<svg xmlns="http://www.w3.org/2000/svg" width="64" height="64" viewBox="0 0 64 64"><path fill="#116A82" d="M38.449 52.729a37.77 37.77 0 0 1-5.5.402c-15.769 0-28.598-10.088-28.598-22.488 0-12.399 12.846-22.487 28.635-22.487 15.806 0 28.662 10.088 28.662 22.487 0 5.996-2.729 11.457-7.713 15.482v11.718l-15.486-5.114z"/><path fill="#4B8CC2" d="M59.648 30.644c0-11.313-11.965-20.487-26.662-20.487-14.694 0-26.635 9.174-26.635 20.487 0 11.314 11.901 20.488 26.598 20.488 1.91 0 3.869-.157 5.669-.452l13.317 4.397v-9.933c5.001-3.706 7.713-8.835 7.713-14.5z"/><g fill="#FFF"><path d="M29.936 17.681h8v7h-8zM37.936 41.682V26.681h-12v2h4v13.001h-4v2h16v-2z"/></g></svg>