<?xml version="1.0" encoding="utf-8"?>
<!-- Generator: Adobe Illustrator 15.0.0, SVG Export Plug-In . SVG Version: 6.00 Build 0)  -->
<!DOCTYPE svg PUBLIC "-//W3C//DTD SVG 1.1//EN" "http://www.w3.org/Graphics/SVG/1.1/DTD/svg11.dtd">
<svg version="1.1" id="Layer_1" xmlns="http://www.w3.org/2000/svg" xmlns:xlink="http://www.w3.org/1999/xlink" x="0px" y="0px"
	 width="64px" height="64px" viewBox="0 0 64 64" enable-background="new 0 0 64 64" xml:space="preserve">
<g id="Off_3_">
	<g>
		<path fill="#116A82" d="M38.449,52.729c-1.774,0.265-3.665,0.402-5.5,0.402c-15.769,0-28.598-10.088-28.598-22.488
			c0-12.399,12.846-22.487,28.635-22.487c15.806,0,28.662,10.088,28.662,22.487c0,5.996-2.729,11.457-7.713,15.482v11.718
			L38.449,52.729z"/>
		<path fill="#4B8CC2" d="M59.648,30.644c0-11.313-11.965-20.487-26.662-20.487c-14.694,0-26.635,9.174-26.635,20.487
			c0,11.314,11.901,20.488,26.598,20.488c1.91,0,3.869-0.157,5.669-0.452l13.317,4.397v-9.933
			C56.936,41.438,59.648,36.309,59.648,30.644z"/>
		<g>
			<rect x="29.936" y="17.681" fill="#FFFFFF" width="8" height="7"/>
			<polygon fill="#FFFFFF" points="37.936,41.682 37.936,28.681 37.936,26.681 29.936,26.681 25.936,26.681 25.936,28.681 
				29.936,28.681 29.936,41.682 25.936,41.682 25.936,43.682 29.936,43.682 37.936,43.682 41.936,43.682 41.936,41.682 			"/>
		</g>
	</g>
</g>
</svg>
