<svg xmlns="http://www.w3.org/2000/svg" width="64" height="64" viewBox="0 0 64 64"><path fill="#F5A322" d="M14.528 55.074c-3.46 0-6.429-2.799-6.429-5.988 0-.001.009-4.133.009-6.639 0-.676 0-2.084.921-2.084.51 0 .895.51 1.244 1.031.486.728 1.159 1.094 2.117 1.154l.159.006c.668 0 1.045-.266 1.59-.822.837-.857.876-2.414.92-9.625-.044-7.202-.083-8.758-.921-9.617-.544-.557-.92-.822-1.585-.822-.053 0-.107.002-.164.005-.956.059-1.628.424-2.116 1.151-.428.637-.784 1.033-1.244 1.033-.921 0-.921-1.407-.921-2.083 0-2.505-.009-6.64-.009-6.64 0-3.19 2.969-5.987 6.353-5.987h33.825c3.234 0 5.865 2.686 5.865 5.986 0 0 .075 6.789.075 6.936 0 1.998.529 1.998 1.144 1.998.594 0 .789-.262 1.145-.806.371-.569.879-1.349 2.197-1.349 2.283 0 2.293 3.439 2.307 8.645l.006 1.627-.006 1.479c-.014 5.206-.021 8.646-2.307 8.646-1.32 0-1.826-.778-2.197-1.35-.355-.544-.551-.807-1.145-.807-.611 0-1.144 0-1.144 2 0 .146-.075 6.938-.075 6.938 0 3.298-2.631 5.982-5.865 5.982l-33.749.002z"/><path fill="#C67F22" d="M48.277 9.646c2.967 0 5.365 2.457 5.365 5.486 0 0 .075 6.789.075 6.936 0 2.215.695 2.498 1.644 2.498 1.828 0 1.301-2.154 3.342-2.154 1.963 0 1.777 3.998 1.812 9.627V32.181c-.033 5.627.149 9.627-1.812 9.627-2.041 0-1.514-2.156-3.342-2.156-.945 0-1.644.285-1.644 2.5 0 .146-.075 6.934-.075 6.934 0 3.033-2.398 5.488-5.365 5.488H14.453c-2.964 0-5.854-2.455-5.854-5.488 0 0 .009-4.133.009-6.639 0-1.198.182-1.584.421-1.584.261 0 .588.451.829.811.417.623 1.13 1.287 2.5 1.375.065.004.129.006.191.006.884 0 1.385-.396 1.946-.973.984-1.01 1.018-2.52 1.062-9.973-.046-7.453-.078-8.959-1.062-9.969-.562-.574-1.062-.973-1.942-.973a3.3 3.3 0 0 0-.195.006c-1.37.084-2.083.75-2.5 1.371-.241.36-.568.812-.829.812-.239 0-.421-.385-.421-1.583 0-2.506-.009-6.641-.009-6.641 0-3.029 2.89-5.486 5.854-5.486h33.824m0-1H14.453c-3.65 0-6.854 3.031-6.854 6.486 0 .002.009 4.136.009 6.641 0 .707 0 2.583 1.421 2.583.755 0 1.253-.647 1.66-1.255.269-.399.707-.867 1.73-.93a2.08 2.08 0 0 1 .134-.004c.454 0 .706.138 1.229.672.698.716.735 2.373.777 9.276-.042 6.894-.079 8.551-.778 9.268-.521.533-.773.672-1.23.672-.043 0-.086-.002-.133-.005-1.021-.065-1.461-.532-1.729-.933-.408-.607-.906-1.254-1.66-1.254-.219 0-.959.076-1.257 1.05-.112.366-.164.854-.164 1.534 0 2.504-.009 6.636-.009 6.637 0 3.458 3.202 6.49 6.853 6.49h33.826c3.513 0 6.365-2.911 6.365-6.488.008-.684.076-6.786.076-6.934 0-1.5.242-1.5.643-1.5.314 0 .384.054.726.578.386.59 1.024 1.578 2.617 1.578 2.78 0 2.791-3.639 2.807-9.145.003-.479.003-.973.007-1.477V32.04c-.004-.512-.004-1.005-.007-1.483-.016-5.506-.022-9.144-2.807-9.144-1.593 0-2.231.987-2.617 1.576-.342.524-.407.578-.726.578-.413 0-.643 0-.643-1.498 0-.148-.068-6.251-.076-6.947 0-3.566-2.856-6.476-6.366-6.476z"/><linearGradient id="a" gradientUnits="userSpaceOnUse" x1="-577.442" y1="-375.955" x2="-577.442" y2="-338.705" gradientTransform="matrix(1 0 0 -1 612 -322)"><stop offset=".127" stop-color="#fff"/><stop offset=".267" stop-color="#fff" stop-opacity=".16"/><stop offset=".539" stop-color="#fff" stop-opacity="0"/></linearGradient><path opacity=".33" fill="url(#a)" d="M14.453 53.869c-2.701 0-5.162-2.279-5.162-4.783 0 0 .01-4.133.01-6.639 0-.129.003-.244.006-.346.691 1.016 1.705 1.568 3.011 1.648.082.006.161.008.236.008 1.185 0 1.851-.584 2.433-1.18 1.209-1.238 1.22-2.828 1.267-10.465-.047-7.646-.058-9.238-1.267-10.475-.582-.598-1.248-1.18-2.433-1.18a4.86 4.86 0 0 0-.236.006c-1.308.08-2.318.637-3.011 1.65a11.331 11.331 0 0 1-.006-.344c0-2.506-.01-6.641-.01-6.641 0-2.5 2.461-4.779 5.162-4.779h33.824c2.578 0 4.678 2.145 4.678 4.779.023 2.348.074 6.801.076 6.936 0 2.246.695 3.205 2.33 3.205 1.26 0 1.766-.777 2.137-1.346.338-.521.523-.809 1.205-.809 1.1 0 1.104 3.613 1.113 7.438 0 .479.01 1.625.01 1.625-.008.504-.01 1.002-.01 1.482-.01 3.822-.017 7.438-1.113 7.438-.682 0-.867-.287-1.205-.808-.371-.569-.877-1.349-2.137-1.349-1.635 0-2.33.957-2.33 3.205-.002.133-.053 4.588-.076 6.926 0 2.646-2.1 4.791-4.678 4.791H14.453v.007z"/><path opacity=".69" fill="#FFF" d="M14.453 11.351h33.824c2.578 0 4.678 2.145 4.678 4.779.023 2.346.074 6.801.076 6.938 0 2.244.695 3.205 2.33 3.205 1.26 0 1.766-.781 2.137-1.35.338-.52.523-.807 1.205-.807 1.1 0 1.104 3.611 1.113 7.438l.004 1.156c0-.181 0-.35.006-.529 0 0-.01-1.145-.01-1.625-.01-3.824-.017-7.438-1.113-7.438-.682 0-.867.287-1.205.809-.371.568-.877 1.346-2.137 1.346-1.635 0-2.33-.959-2.33-3.205-.002-.135-.053-4.588-.076-6.936 0-2.635-2.1-4.779-4.678-4.779H14.453c-2.701 0-5.162 2.279-5.162 4.779 0 0 .002.377.002.965.02-2.488 2.47-4.746 5.16-4.746z"/><g><path opacity=".69" fill="#FFF" d="M9.299 43.445c0-.129.003-.244.006-.346.69 1.014 1.705 1.568 3.011 1.648.082.006.161.008.236.008 1.185 0 1.851-.582 2.433-1.181 1.209-1.235 1.22-2.827 1.267-10.466l-.004-.5c-.045 7.207-.077 8.757-1.263 9.969-.582.596-1.248 1.18-2.433 1.18-.075 0-.154-.002-.236-.008-1.306-.08-2.318-.636-3.011-1.648-.003.102-.006.217-.006.346 0 2.506-.011 6.639-.011 6.639 0 .012.003.023.003.035.005-1.373.008-3.924.008-5.676z"/></g><g><path fill="#D18624" d="M40.203 40.619c-.445 0-.877-.188-1.191-.52-1.412-1.142-5.818-4.836-5.818-6.562 0-1.529.873-2.074 1.691-2.074.086 0 .172.005.26.016l1.715.107a.133.133 0 0 0 .111-.049c.069-.077.104-.223.084-.387l-.004-.048.002-.046c0-.023.107-2.248.107-4.064 0-1.288-1.432-2.287-2.658-2.287a2.289 2.289 0 0 0-2.286 2.287c0 1.531-.858 1.854-1.579 1.854h-3.875c-1.369 0-1.371-1.352-1.373-1.859.004-5.022 4.092-9.107 9.113-9.107 5.023 0 9.113 4.085 9.113 9.106 0 2.314-.258 4.114-.27 4.189-.015.14.02.285.088.362.03.034.063.049.108.049l1.754-.111a1.57 1.57 0 0 1 .195-.011c.854 0 1.719.641 1.719 2.073 0 1.536-4.041 5.074-5.813 6.557-.314.336-.75.525-1.193.525z"/><path fill="#FFF" d="M45.336 32.097l-1.689.104c-.571.069-.983-.432-.916-1.114 0 0 .263-1.805.263-4.101 0-4.687-3.806-8.486-8.492-8.486-4.688 0-8.49 3.8-8.492 8.486.002.685.066 1.239.752 1.239h3.875c.959 0 .959-.791.959-1.232 0-1.607 1.299-2.908 2.906-2.908s3.276 1.301 3.276 2.908c0 1.854-.106 4.094-.106 4.094.07.683-.341 1.184-.918 1.114l-1.687-.104c-.688-.086-1.258.281-1.258 1.441 0 1.577 5.623 6.106 5.623 6.106a1.008 1.008 0 0 0 1.533 0s5.623-4.687 5.623-6.106c.002-1.062-.563-1.527-1.252-1.441z"/><path fill="#D18624" d="M27.278 39.712c-1.043 0-1.891-.864-1.891-1.927v-1.707c0-1.062.848-1.926 1.891-1.926h3.048c1.042 0 1.89.863 1.89 1.926v1.707c0 1.062-.848 1.927-1.89 1.927h-3.048z"/><path fill="#FFF" d="M30.326 34.771h-3.048c-.702 0-1.27.586-1.27 1.307v1.707c0 .722.566 1.307 1.27 1.307h3.048c.7 0 1.27-.585 1.27-1.307v-1.707c-.002-.721-.57-1.307-1.27-1.307z"/><path fill="#D18624" d="M27.278 45.298c-1.043 0-1.891-.864-1.891-1.927v-1.707c0-1.062.848-1.928 1.891-1.928h3.048c1.042 0 1.89.865 1.89 1.928v1.707c0 1.062-.848 1.927-1.89 1.927h-3.048z"/><path fill="#FFF" d="M30.326 40.359h-3.048c-.702 0-1.27.586-1.27 1.306v1.707c0 .722.566 1.306 1.27 1.306h3.048c.7 0 1.27-.584 1.27-1.306v-1.707c-.002-.72-.57-1.306-1.27-1.306z"/><path fill="#D18624" d="M27.278 34.125c-1.043 0-1.891-.864-1.891-1.926v-1.087c0-1.062.848-1.927 1.891-1.927h3.048c1.042 0 1.89.865 1.89 1.927v1.087c0 1.062-.848 1.926-1.89 1.926h-3.048z"/><path fill="#FFF" d="M30.326 29.806h-3.048c-.702 0-1.27.586-1.27 1.306v1.087c0 .721.566 1.305 1.27 1.305h3.048c.7 0 1.27-.584 1.27-1.305v-1.087c-.002-.72-.57-1.306-1.27-1.306z"/></g></svg>