<?xml version="1.0" encoding="utf-8"?>
<!-- Generator: Adobe Illustrator 15.0.0, SVG Export Plug-In . SVG Version: 6.00 Build 0)  -->
<!DOCTYPE svg PUBLIC "-//W3C//DTD SVG 1.1//EN" "http://www.w3.org/Graphics/SVG/1.1/DTD/svg11.dtd">
<svg version="1.1" id="Layer_1" xmlns="http://www.w3.org/2000/svg" xmlns:xlink="http://www.w3.org/1999/xlink" x="0px" y="0px"
	 width="64px" height="64px" viewBox="0 0 64 64" enable-background="new 0 0 64 64" xml:space="preserve">
<g id="on">
	<g>
		<g>
			<g>
				<path fill="#F5A322" d="M14.528,55.074c-3.46,0-6.429-2.799-6.429-5.988c0-0.001,0.009-4.133,0.009-6.639
					c0-0.676,0-2.084,0.921-2.084c0.51,0,0.895,0.51,1.244,1.031c0.486,0.728,1.159,1.094,2.117,1.154l0.159,0.006
					c0.668,0,1.045-0.266,1.59-0.822c0.837-0.857,0.876-2.414,0.92-9.625c-0.044-7.202-0.083-8.758-0.921-9.617
					c-0.544-0.557-0.92-0.822-1.585-0.822c-0.053,0-0.107,0.002-0.164,0.005c-0.956,0.059-1.628,0.424-2.116,1.151
					c-0.428,0.637-0.784,1.033-1.244,1.033c-0.921,0-0.921-1.407-0.921-2.083c0-2.505-0.009-6.64-0.009-6.64
					c0-3.19,2.969-5.987,6.353-5.987h33.825c3.234,0,5.865,2.686,5.865,5.986c0,0,0.075,6.789,0.075,6.936
					c0,1.998,0.529,1.998,1.144,1.998c0.594,0,0.789-0.262,1.145-0.806c0.371-0.569,0.879-1.349,2.197-1.349
					c2.283,0,2.293,3.439,2.307,8.645l0.006,1.627l-0.006,1.479c-0.014,5.206-0.021,8.646-2.307,8.646
					c-1.32,0-1.826-0.778-2.197-1.35c-0.355-0.544-0.551-0.807-1.145-0.807c-0.611,0-1.144,0-1.144,2
					c0,0.146-0.075,6.938-0.075,6.938c0,3.298-2.631,5.982-5.865,5.982L14.528,55.074L14.528,55.074z"/>
				<g>
					<path fill="#C67F22" d="M48.277,9.646c2.967,0,5.365,2.457,5.365,5.486c0,0,0.075,6.789,0.075,6.936
						c0,2.215,0.695,2.498,1.644,2.498c1.828,0,1.301-2.154,3.342-2.154c1.963,0,1.777,3.998,1.812,9.627c0,0.025,0,0.047,0,0.07
						s0,0.047,0,0.072c-0.033,5.627,0.149,9.627-1.812,9.627c-2.041,0-1.514-2.156-3.342-2.156c-0.945,0-1.644,0.285-1.644,2.5
						c0,0.146-0.075,6.934-0.075,6.934c0,3.033-2.398,5.488-5.365,5.488H27.466H14.528h-0.075c-2.964,0-5.854-2.455-5.854-5.488
						c0,0,0.009-4.133,0.009-6.639c0-1.198,0.182-1.584,0.421-1.584c0.261,0,0.588,0.451,0.829,0.811
						c0.417,0.623,1.13,1.287,2.5,1.375c0.065,0.004,0.129,0.006,0.191,0.006c0.884,0,1.385-0.396,1.946-0.973
						c0.984-1.01,1.018-2.52,1.062-9.973c-0.046-7.453-0.078-8.959-1.062-9.969c-0.562-0.574-1.062-0.973-1.942-0.973
						c-0.062,0-0.128,0.002-0.195,0.006c-1.37,0.084-2.083,0.75-2.5,1.371c-0.241,0.36-0.568,0.812-0.829,0.812
						c-0.239,0-0.421-0.385-0.421-1.583c0-2.506-0.009-6.641-0.009-6.641c0-3.029,2.89-5.486,5.854-5.486h0.075h12.938H48.277
						 M48.277,8.646H27.466H14.528h-0.075c-3.65,0-6.854,3.031-6.854,6.486c0,0.002,0.009,4.136,0.009,6.641
						c0,0.707,0,2.583,1.421,2.583c0.755,0,1.253-0.647,1.66-1.255c0.269-0.399,0.707-0.867,1.73-0.93
						c0.047-0.003,0.091-0.004,0.134-0.004c0.454,0,0.706,0.138,1.229,0.672c0.698,0.716,0.735,2.373,0.777,9.276
						c-0.042,6.894-0.079,8.551-0.778,9.268c-0.521,0.533-0.773,0.672-1.23,0.672c-0.043,0-0.086-0.002-0.133-0.005
						c-1.021-0.065-1.461-0.532-1.729-0.933c-0.408-0.607-0.906-1.254-1.66-1.254c-0.219,0-0.959,0.076-1.257,1.05
						c-0.112,0.366-0.164,0.854-0.164,1.534c0,2.504-0.009,6.636-0.009,6.637c0,3.458,3.202,6.49,6.853,6.49h0.076h12.938h20.812
						c3.513,0,6.365-2.911,6.365-6.488c0.008-0.684,0.076-6.786,0.076-6.934c0-1.5,0.242-1.5,0.643-1.5
						c0.314,0,0.384,0.054,0.726,0.578c0.386,0.59,1.024,1.578,2.617,1.578c2.78,0,2.791-3.639,2.807-9.145
						c0.003-0.479,0.003-0.973,0.007-1.477V32.11v-0.07c-0.004-0.512-0.004-1.005-0.007-1.483c-0.016-5.506-0.022-9.144-2.807-9.144
						c-1.593,0-2.231,0.987-2.617,1.576c-0.342,0.524-0.407,0.578-0.726,0.578c-0.413,0-0.643,0-0.643-1.498
						c0-0.148-0.068-6.251-0.076-6.947C54.643,11.556,51.787,8.646,48.277,8.646L48.277,8.646z"/>
				</g>
			</g>
			
				<linearGradient id="SVGID_1_" gradientUnits="userSpaceOnUse" x1="-577.4419" y1="-375.9546" x2="-577.4419" y2="-338.705" gradientTransform="matrix(1 0 0 -1 612 -322)">
				<stop  offset="0.1273" style="stop-color:#FFFFFF"/>
				<stop  offset="0.2667" style="stop-color:#FFFFFF;stop-opacity:0.16"/>
				<stop  offset="0.5394" style="stop-color:#FFFFFF;stop-opacity:0"/>
			</linearGradient>
			<path opacity="0.33" fill="url(#SVGID_1_)" enable-background="new    " d="M14.453,53.869c-2.701,0-5.162-2.279-5.162-4.783
				c0,0,0.01-4.133,0.01-6.639c0-0.129,0.003-0.244,0.006-0.346c0.691,1.016,1.705,1.568,3.011,1.648
				c0.082,0.006,0.161,0.008,0.236,0.008c1.185,0,1.851-0.584,2.433-1.18c1.209-1.238,1.22-2.828,1.267-10.465
				c-0.047-7.646-0.058-9.238-1.267-10.475c-0.582-0.598-1.248-1.18-2.433-1.18c-0.075,0-0.154,0.002-0.236,0.006
				c-1.308,0.08-2.318,0.637-3.011,1.65c-0.003-0.102-0.006-0.215-0.006-0.344c0-2.506-0.01-6.641-0.01-6.641
				c0-2.5,2.461-4.779,5.162-4.779h33.824c2.578,0,4.678,2.145,4.678,4.779c0.023,2.348,0.074,6.801,0.076,6.936
				c0,2.246,0.695,3.205,2.33,3.205c1.26,0,1.766-0.777,2.137-1.346c0.338-0.521,0.523-0.809,1.205-0.809
				c1.1,0,1.104,3.613,1.113,7.438c0,0.479,0.01,1.625,0.01,1.625c-0.008,0.504-0.01,1.002-0.01,1.482
				c-0.01,3.822-0.017,7.438-1.113,7.438c-0.682,0-0.867-0.287-1.205-0.808c-0.371-0.569-0.877-1.349-2.137-1.349
				c-1.635,0-2.33,0.957-2.33,3.205c-0.002,0.133-0.053,4.588-0.076,6.926c0,2.646-2.1,4.791-4.678,4.791H14.453V53.869z"/>
			<g>
				<path opacity="0.69" fill="#FFFFFF" enable-background="new    " d="M14.453,11.351h33.824c2.578,0,4.678,2.145,4.678,4.779
					c0.023,2.346,0.074,6.801,0.076,6.938c0,2.244,0.695,3.205,2.33,3.205c1.26,0,1.766-0.781,2.137-1.35
					c0.338-0.52,0.523-0.807,1.205-0.807c1.1,0,1.104,3.611,1.113,7.438c0,0.279,0.002,0.783,0.004,1.156
					c0-0.181,0-0.35,0.006-0.529c0,0-0.01-1.145-0.01-1.625c-0.01-3.824-0.017-7.438-1.113-7.438c-0.682,0-0.867,0.287-1.205,0.809
					c-0.371,0.568-0.877,1.346-2.137,1.346c-1.635,0-2.33-0.959-2.33-3.205c-0.002-0.135-0.053-4.588-0.076-6.936
					c0-2.635-2.1-4.779-4.678-4.779H14.453c-2.701,0-5.162,2.279-5.162,4.779c0,0,0.002,0.377,0.002,0.965
					C9.313,13.609,11.763,11.351,14.453,11.351z"/>
			</g>
			<g>
				<path opacity="0.69" fill="#FFFFFF" enable-background="new    " d="M9.299,43.445c0-0.129,0.003-0.244,0.006-0.346
					c0.69,1.014,1.705,1.568,3.011,1.648c0.082,0.006,0.161,0.008,0.236,0.008c1.185,0,1.851-0.582,2.433-1.181
					c1.209-1.235,1.22-2.827,1.267-10.466c-0.002-0.172-0.002-0.336-0.004-0.5c-0.045,7.207-0.077,8.757-1.263,9.969
					c-0.582,0.596-1.248,1.18-2.433,1.18c-0.075,0-0.154-0.002-0.236-0.008c-1.306-0.08-2.318-0.636-3.011-1.648
					c-0.003,0.102-0.006,0.217-0.006,0.346c0,2.506-0.011,6.639-0.011,6.639c0,0.012,0.003,0.023,0.003,0.035
					C9.296,47.748,9.299,45.197,9.299,43.445z"/>
			</g>
		</g>
		<g>
			<g>
				<path fill="#D18624" d="M40.203,40.619c-0.445,0-0.877-0.188-1.191-0.52c-1.412-1.142-5.818-4.836-5.818-6.562
					c0-1.529,0.873-2.074,1.691-2.074c0.086,0,0.172,0.005,0.26,0.016l1.715,0.107c0.049,0,0.082-0.015,0.111-0.049
					c0.069-0.077,0.104-0.223,0.084-0.387l-0.004-0.048l0.002-0.046c0-0.023,0.107-2.248,0.107-4.064
					c0-1.288-1.432-2.287-2.658-2.287c-1.26,0-2.286,1.025-2.286,2.287c0,1.531-0.858,1.854-1.579,1.854h-3.875
					c-1.369,0-1.371-1.352-1.373-1.859c0.004-5.022,4.092-9.107,9.113-9.107c5.023,0,9.113,4.085,9.113,9.106
					c0,2.314-0.258,4.114-0.27,4.189c-0.015,0.14,0.02,0.285,0.088,0.362c0.03,0.034,0.063,0.049,0.108,0.049l1.754-0.111
					c0.041-0.006,0.119-0.011,0.195-0.011c0.854,0,1.719,0.641,1.719,2.073c0,1.536-4.041,5.074-5.813,6.557
					C41.082,40.43,40.646,40.619,40.203,40.619z"/>
			</g>
			<g>
				<path fill="#FFFFFF" d="M45.336,32.097l-1.689,0.104c-0.571,0.069-0.983-0.432-0.916-1.114c0,0,0.263-1.805,0.263-4.101
					c0-4.687-3.806-8.486-8.492-8.486c-4.688,0-8.49,3.8-8.492,8.486c0.002,0.685,0.066,1.239,0.752,1.239h3.875
					c0.959,0,0.959-0.791,0.959-1.232c0-1.607,1.299-2.908,2.906-2.908s3.276,1.301,3.276,2.908c0,1.854-0.106,4.094-0.106,4.094
					c0.07,0.683-0.341,1.184-0.918,1.114l-1.687-0.104c-0.688-0.086-1.258,0.281-1.258,1.441c0,1.577,5.623,6.106,5.623,6.106
					c0.422,0.471,1.113,0.471,1.533,0c0,0,5.623-4.687,5.623-6.106C46.59,32.476,46.025,32.011,45.336,32.097z"/>
			</g>
			<g>
				<path fill="#D18624" d="M27.278,39.712c-1.043,0-1.891-0.864-1.891-1.927v-1.707c0-1.062,0.848-1.926,1.891-1.926h3.048
					c1.042,0,1.89,0.863,1.89,1.926v1.707c0,1.062-0.848,1.927-1.89,1.927H27.278L27.278,39.712z"/>
			</g>
			<g>
				<path fill="#FFFFFF" d="M30.326,34.771h-3.048c-0.702,0-1.27,0.586-1.27,1.307v1.707c0,0.722,0.566,1.307,1.27,1.307h3.048
					c0.7,0,1.27-0.585,1.27-1.307v-1.707C31.594,35.357,31.026,34.771,30.326,34.771z"/>
			</g>
			<g>
				<path fill="#D18624" d="M27.278,45.298c-1.043,0-1.891-0.864-1.891-1.927v-1.707c0-1.062,0.848-1.928,1.891-1.928h3.048
					c1.042,0,1.89,0.865,1.89,1.928v1.707c0,1.062-0.848,1.927-1.89,1.927H27.278z"/>
			</g>
			<g>
				<path fill="#FFFFFF" d="M30.326,40.359h-3.048c-0.702,0-1.27,0.586-1.27,1.306v1.707c0,0.722,0.566,1.306,1.27,1.306h3.048
					c0.7,0,1.27-0.584,1.27-1.306v-1.707C31.594,40.945,31.026,40.359,30.326,40.359z"/>
			</g>
			<g>
				<path fill="#D18624" d="M27.278,34.125c-1.043,0-1.891-0.864-1.891-1.926v-1.087c0-1.062,0.848-1.927,1.891-1.927h3.048
					c1.042,0,1.89,0.865,1.89,1.927v1.087c0,1.062-0.848,1.926-1.89,1.926H27.278z"/>
			</g>
			<g>
				<path fill="#FFFFFF" d="M30.326,29.806h-3.048c-0.702,0-1.27,0.586-1.27,1.306v1.087c0,0.721,0.566,1.305,1.27,1.305h3.048
					c0.7,0,1.27-0.584,1.27-1.305v-1.087C31.594,30.392,31.026,29.806,30.326,29.806z"/>
			</g>
		</g>
	</g>
</g>
</svg>
