<?xml version="1.0" encoding="utf-8"?>
<!-- Generator: Adobe Illustrator 15.0.0, SVG Export Plug-In . SVG Version: 6.00 Build 0)  -->
<!DOCTYPE svg PUBLIC "-//W3C//DTD SVG 1.1//EN" "http://www.w3.org/Graphics/SVG/1.1/DTD/svg11.dtd">
<svg version="1.1" id="Layer_1" xmlns="http://www.w3.org/2000/svg" xmlns:xlink="http://www.w3.org/1999/xlink" x="0px" y="0px"
	 width="64px" height="64px" viewBox="0 0 64 64" enable-background="new 0 0 64 64" xml:space="preserve">
<g id="off">
	<g>
		<g>
			<g>
				<path fill="#43D3FF" d="M14.514,55.5c-3.46,0-6.429-2.798-6.429-5.988c0-0.001,0.009-4.133,0.009-6.639
					c0-0.676,0-2.083,0.921-2.083c0.46,0,0.817,0.396,1.244,1.03c0.486,0.727,1.159,1.094,2.117,1.154l0.159,0.006
					c0.668,0,1.045-0.267,1.59-0.822c0.837-0.858,0.876-2.415,0.92-9.626c-0.044-7.202-0.083-8.758-0.921-9.617
					c-0.544-0.557-0.92-0.822-1.585-0.822c-0.053,0-0.107,0.002-0.164,0.005c-0.956,0.059-1.628,0.424-2.116,1.151
					c-0.334,0.499-0.732,1.033-1.244,1.033c-0.921,0-0.921-1.407-0.921-2.083c0-2.505-0.009-6.64-0.009-6.64
					c0-3.19,2.969-5.987,6.354-5.987h33.825c3.234,0,5.865,2.686,5.865,5.986c0,0,0.075,6.789,0.075,6.936
					c0,1.998,0.53,1.998,1.144,1.998c0.594,0,0.789-0.262,1.145-0.806c0.369-0.569,0.879-1.349,2.197-1.349
					c2.283,0,2.293,3.439,2.307,8.645L61,32.609l-0.006,1.479c-0.014,5.206-0.021,8.646-2.307,8.646
					c-1.319,0-1.826-0.78-2.197-1.352c-0.354-0.544-0.551-0.806-1.143-0.806c-0.613,0-1.146,0-1.146,2
					c0,0.146-0.075,6.938-0.075,6.938c0,3.295-2.631,5.982-5.863,5.982h-33.75V55.5z"/>
				<g>
					<path fill="#1E789B" d="M48.264,10.072c2.967,0,5.365,2.457,5.365,5.486c0,0,0.075,6.789,0.075,6.936
						c0,2.215,0.696,2.498,1.644,2.498c1.828,0,1.301-2.154,3.342-2.154c1.963,0,1.776,3.998,1.812,9.627c0,0.025,0,0.047,0,0.07
						s0,0.047,0,0.072c-0.033,5.627,0.15,9.627-1.812,9.627c-2.041,0-1.514-2.156-3.342-2.156c-0.945,0-1.644,0.285-1.644,2.5
						c0,0.146-0.075,6.934-0.075,6.934c0,3.033-2.398,5.488-5.365,5.488H27.452H14.514h-0.076c-2.964,0-5.854-2.455-5.854-5.488
						c0,0,0.009-4.133,0.009-6.639c0-1.198,0.183-1.583,0.422-1.583c0.26,0,0.588,0.45,0.828,0.81c0.417,0.623,1.13,1.287,2.5,1.375
						c0.065,0.004,0.129,0.006,0.191,0.006c0.884,0,1.385-0.396,1.947-0.973c0.983-1.01,1.017-2.52,1.062-9.973
						c-0.046-7.453-0.078-8.959-1.062-9.969c-0.562-0.574-1.062-0.973-1.943-0.973c-0.062,0-0.128,0.002-0.195,0.006
						c-1.37,0.084-2.083,0.75-2.5,1.371c-0.24,0.36-0.568,0.812-0.829,0.812c-0.238,0-0.421-0.385-0.421-1.583
						c0-2.506-0.009-6.641-0.009-6.641c0-3.029,2.89-5.486,5.854-5.486h0.075h12.938H48.264 M48.264,9.072H27.452H14.514h-0.076
						c-3.65,0-6.854,3.031-6.854,6.486c0,0.002,0.009,4.136,0.009,6.641c0,0.707,0,2.583,1.421,2.583
						c0.758,0,1.255-0.648,1.66-1.255c0.269-0.399,0.708-0.866,1.73-0.929c0.047-0.003,0.091-0.004,0.134-0.004
						c0.454,0,0.706,0.138,1.229,0.672c0.698,0.716,0.734,2.373,0.777,9.276c-0.043,6.894-0.079,8.551-0.778,9.269
						c-0.521,0.532-0.773,0.67-1.23,0.67c-0.043,0-0.086,0-0.132-0.004c-1.022-0.064-1.461-0.533-1.729-0.933
						c-0.407-0.606-0.904-1.253-1.659-1.253c-0.22,0-0.959,0.075-1.258,1.049c-0.111,0.367-0.164,0.854-0.164,1.534
						c0,2.505-0.009,6.636-0.009,6.637c0,3.458,3.202,6.49,6.853,6.49h0.076h12.938h20.812c3.512,0,6.365-2.911,6.365-6.487
						c0.008-0.685,0.075-6.787,0.075-6.935c0-1.5,0.241-1.5,0.644-1.5c0.314,0,0.383,0.054,0.726,0.579
						c0.384,0.59,1.024,1.578,2.614,1.578c2.783,0,2.795-3.639,2.809-9.146c0.002-0.478,0.003-0.971,0.006-1.477v-0.078v-0.07
						c-0.003-0.512-0.004-1.005-0.006-1.483c-0.014-5.506-0.021-9.144-2.809-9.144c-1.59,0-2.23,0.987-2.614,1.576
						c-0.343,0.524-0.408,0.578-0.726,0.578c-0.414,0-0.644,0-0.644-1.498c0-0.148-0.067-6.251-0.075-6.947
						C54.629,11.982,51.773,9.072,48.264,9.072L48.264,9.072z"/>
				</g>
			</g>
			
				<linearGradient id="SVGID_1_" gradientUnits="userSpaceOnUse" x1="-577.457" y1="-376.3804" x2="-577.457" y2="-339.1306" gradientTransform="matrix(1 0 0 -1 612 -322)">
				<stop  offset="0.1273" style="stop-color:#FFFFFF"/>
				<stop  offset="0.2667" style="stop-color:#FFFFFF;stop-opacity:0.16"/>
				<stop  offset="0.5394" style="stop-color:#FFFFFF;stop-opacity:0"/>
			</linearGradient>
			<path opacity="0.33" fill="url(#SVGID_1_)" enable-background="new    " d="M14.438,54.295c-2.701,0-5.162-2.279-5.162-4.783
				c0,0,0.01-4.133,0.01-6.639c0-0.129,0.003-0.244,0.006-0.346c0.691,1.016,1.705,1.57,3.011,1.648
				c0.082,0.008,0.161,0.01,0.236,0.01c1.185,0,1.851-0.584,2.433-1.182c1.209-1.236,1.219-2.828,1.267-10.465
				c-0.048-7.646-0.058-9.238-1.267-10.475c-0.582-0.598-1.248-1.18-2.433-1.18c-0.075,0-0.154,0.002-0.236,0.006
				c-1.308,0.08-2.318,0.637-3.011,1.65c-0.003-0.102-0.006-0.215-0.006-0.344c0-2.506-0.01-6.641-0.01-6.641
				c0-2.5,2.461-4.779,5.162-4.779h33.826c2.577,0,4.676,2.145,4.676,4.779c0.023,2.348,0.076,6.801,0.076,6.936
				c0,2.246,0.696,3.205,2.332,3.205c1.258,0,1.764-0.777,2.135-1.346c0.338-0.521,0.524-0.809,1.205-0.809
				c1.101,0,1.104,3.613,1.114,7.438c0,0.48,0.009,1.625,0.009,1.625c-0.006,0.504-0.009,1.002-0.009,1.481
				c-0.011,3.824-0.017,7.438-1.114,7.438c-0.681,0-0.867-0.287-1.205-0.809c-0.371-0.568-0.877-1.348-2.135-1.348
				c-1.636,0-2.332,0.957-2.332,3.205c0,0.133-0.053,4.588-0.076,6.926c0,2.646-2.099,4.791-4.676,4.791H14.438V54.295z"/>
			<g>
				<path opacity="0.69" fill="#FFFFFF" enable-background="new    " d="M14.438,11.777h33.826c2.577,0,4.676,2.145,4.676,4.779
					c0.023,2.346,0.076,6.801,0.076,6.938c0,2.244,0.696,3.205,2.332,3.205c1.258,0,1.764-0.781,2.135-1.35
					c0.338-0.52,0.524-0.807,1.205-0.807c1.101,0,1.104,3.611,1.114,7.438c0,0.279,0.003,0.784,0.003,1.156
					c0-0.18,0-0.35,0.006-0.528c0,0-0.009-1.146-0.009-1.625c-0.011-3.824-0.017-7.438-1.114-7.438
					c-0.681,0-0.867,0.287-1.205,0.809c-0.371,0.568-0.877,1.346-2.135,1.346c-1.636,0-2.332-0.959-2.332-3.205
					c0-0.135-0.053-4.588-0.076-6.936c0-2.635-2.099-4.779-4.676-4.779H14.438c-2.701,0-5.162,2.279-5.162,4.779
					c0,0,0.002,0.377,0.002,0.965C9.299,14.035,11.749,11.777,14.438,11.777z"/>
			</g>
			<g>
				<path opacity="0.69" fill="#FFFFFF" enable-background="new    " d="M9.285,43.871c0-0.129,0.003-0.244,0.006-0.346
					c0.691,1.014,1.705,1.568,3.011,1.648c0.082,0.008,0.161,0.01,0.236,0.01c1.185,0,1.851-0.582,2.433-1.182
					c1.209-1.234,1.219-2.828,1.267-10.465c-0.002-0.172-0.002-0.336-0.004-0.5c-0.044,7.207-0.077,8.756-1.263,9.967
					c-0.582,0.598-1.248,1.182-2.433,1.182c-0.075,0-0.154-0.002-0.236-0.01c-1.306-0.078-2.318-0.635-3.011-1.648
					c-0.003,0.102-0.006,0.217-0.006,0.346c0,2.506-0.01,6.639-0.01,6.639c0,0.012,0.002,0.023,0.002,0.035
					C9.282,48.174,9.285,45.623,9.285,43.871z"/>
			</g>
		</g>
		<g>
			<path fill="#308BA0" d="M39.33,40.572c-0.443,0-0.876-0.188-1.191-0.521c-1.412-1.141-5.818-4.837-5.818-6.562
				c0-1.529,0.875-2.074,1.693-2.074c0.084,0,0.172,0.005,0.26,0.016l1.715,0.107c0.049,0,0.08-0.015,0.111-0.049
				c0.067-0.077,0.103-0.223,0.082-0.387l-0.005-0.048l0.003-0.046c0.002-0.023,0.106-2.248,0.106-4.064
				c0-1.288-1.429-2.287-2.656-2.287c-1.262,0-2.287,1.025-2.287,2.287c0,1.531-0.858,1.854-1.58,1.854h-3.875
				c-1.367,0-1.37-1.352-1.37-1.859c0.002-5.022,4.09-9.107,9.112-9.107c5.024,0,9.113,4.085,9.113,9.106
				c0,2.314-0.259,4.114-0.269,4.189c-0.017,0.14,0.019,0.285,0.088,0.362c0.027,0.034,0.062,0.049,0.107,0.049l1.752-0.111
				c0.042-0.006,0.119-0.011,0.195-0.011c0.854,0,1.719,0.641,1.719,2.073c0,1.534-4.039,5.075-5.812,6.557
				C40.209,40.383,39.775,40.572,39.33,40.572z"/>
		</g>
		<g>
			<path fill="#FFFFFF" d="M44.464,32.05l-1.687,0.105c-0.575,0.069-0.987-0.432-0.918-1.114c0,0,0.263-1.805,0.263-4.101
				c0-4.687-3.806-8.486-8.492-8.486c-4.688,0-8.489,3.8-8.493,8.486c0.001,0.685,0.067,1.239,0.751,1.239h3.875
				c0.959,0,0.959-0.791,0.959-1.232c0-1.607,1.304-2.908,2.908-2.908c1.604,0,3.277,1.301,3.277,2.908
				c0,1.854-0.107,4.094-0.107,4.094c0.07,0.683-0.342,1.184-0.918,1.114l-1.687-0.105c-0.69-0.085-1.256,0.282-1.256,1.442
				c0,1.578,5.623,6.105,5.623,6.105c0.422,0.473,1.109,0.473,1.533,0c0,0,5.62-4.686,5.62-6.105
				C45.719,32.43,45.152,31.965,44.464,32.05z"/>
		</g>
		<g>
			<path fill="#308BA0" d="M26.406,39.665c-1.042,0-1.891-0.864-1.891-1.927v-1.707c0-1.062,0.849-1.926,1.891-1.926h3.048
				c1.041,0,1.889,0.862,1.889,1.926v1.707c0,1.062-0.848,1.927-1.889,1.927H26.406z"/>
		</g>
		<g>
			<path fill="#FFFFFF" d="M29.454,34.727h-3.048c-0.702,0-1.271,0.586-1.271,1.307v1.707c0,0.722,0.567,1.307,1.271,1.307h3.048
				c0.701,0,1.268-0.585,1.268-1.307v-1.707C30.722,35.312,30.155,34.727,29.454,34.727z"/>
		</g>
		<g>
			<path fill="#308BA0" d="M26.406,45.252c-1.042,0-1.891-0.865-1.891-1.927v-1.707c0-1.062,0.849-1.927,1.891-1.927h3.048
				c1.041,0,1.889,0.865,1.889,1.927v1.707c0,1.062-0.848,1.927-1.889,1.927H26.406z"/>
		</g>
		<g>
			<path fill="#FFFFFF" d="M29.454,40.312h-3.048c-0.702,0-1.271,0.586-1.271,1.306v1.707c0,0.722,0.567,1.306,1.271,1.306h3.048
				c0.701,0,1.268-0.584,1.268-1.306v-1.707C30.722,40.898,30.155,40.312,29.454,40.312z"/>
		</g>
		<g>
			<path fill="#308BA0" d="M26.406,34.078c-1.042,0-1.891-0.864-1.891-1.926v-1.087c0-1.062,0.849-1.927,1.891-1.927h3.048
				c1.041,0,1.889,0.865,1.889,1.927v1.087c0,1.062-0.848,1.926-1.889,1.926H26.406z"/>
		</g>
		<g>
			<path fill="#FFFFFF" d="M29.454,29.76h-3.048c-0.702,0-1.271,0.586-1.271,1.306v1.087c0,0.721,0.567,1.305,1.271,1.305h3.048
				c0.701,0,1.268-0.584,1.268-1.305v-1.087C30.722,30.346,30.155,29.76,29.454,29.76z"/>
		</g>
	</g>
</g>
</svg>
