<svg xmlns="http://www.w3.org/2000/svg" width="64" height="64" viewBox="0 0 64 64"><path fill="#43D3FF" d="M14.514 55.5c-3.46 0-6.429-2.798-6.429-5.988 0-.001.009-4.133.009-6.639 0-.676 0-2.083.921-2.083.46 0 .817.396 1.244 1.03.486.727 1.159 1.094 2.117 1.154l.159.006c.668 0 1.045-.267 1.59-.822.837-.858.876-2.415.92-9.626-.044-7.202-.083-8.758-.921-9.617-.544-.557-.92-.822-1.585-.822-.053 0-.107.002-.164.005-.956.059-1.628.424-2.116 1.151-.334.499-.732 1.033-1.244 1.033-.921 0-.921-1.407-.921-2.083 0-2.505-.009-6.64-.009-6.64 0-3.19 2.969-5.987 6.354-5.987h33.825c3.234 0 5.865 2.686 5.865 5.986 0 0 .075 6.789.075 6.936 0 1.998.53 1.998 1.144 1.998.594 0 .789-.262 1.145-.806.369-.569.879-1.349 2.197-1.349 2.283 0 2.293 3.439 2.307 8.645L61 32.609l-.006 1.479c-.014 5.206-.021 8.646-2.307 8.646-1.319 0-1.826-.78-2.197-1.352-.354-.544-.551-.806-1.143-.806-.613 0-1.146 0-1.146 2 0 .146-.075 6.938-.075 6.938 0 3.295-2.631 5.982-5.863 5.982h-33.75v.004z"/><path fill="#1E789B" d="M48.264 10.072c2.967 0 5.365 2.457 5.365 5.486 0 0 .075 6.789.075 6.936 0 2.215.696 2.498 1.644 2.498 1.828 0 1.301-2.154 3.342-2.154 1.963 0 1.776 3.998 1.812 9.627V32.607c-.033 5.627.15 9.627-1.812 9.627-2.041 0-1.514-2.156-3.342-2.156-.945 0-1.644.285-1.644 2.5 0 .146-.075 6.934-.075 6.934 0 3.033-2.398 5.488-5.365 5.488H14.438c-2.964 0-5.854-2.455-5.854-5.488 0 0 .009-4.133.009-6.639 0-1.198.183-1.583.422-1.583.26 0 .588.45.828.81.417.623 1.13 1.287 2.5 1.375.065.004.129.006.191.006.884 0 1.385-.396 1.947-.973.983-1.01 1.017-2.52 1.062-9.973-.046-7.453-.078-8.959-1.062-9.969-.562-.574-1.062-.973-1.943-.973a3.3 3.3 0 0 0-.195.006c-1.37.084-2.083.75-2.5 1.371-.24.36-.568.812-.829.812-.238 0-.421-.385-.421-1.583 0-2.506-.009-6.641-.009-6.641 0-3.029 2.89-5.486 5.854-5.486h33.826m0-1H14.438c-3.65 0-6.854 3.031-6.854 6.486 0 .002.009 4.136.009 6.641 0 .707 0 2.583 1.421 2.583.758 0 1.255-.648 1.66-1.255.269-.399.708-.866 1.73-.929a2.08 2.08 0 0 1 .134-.004c.454 0 .706.138 1.229.672.698.716.734 2.373.777 9.276-.043 6.894-.079 8.551-.778 9.269-.521.532-.773.67-1.23.67-.043 0-.086 0-.132-.004-1.022-.064-1.461-.533-1.729-.933-.407-.606-.904-1.253-1.659-1.253-.22 0-.959.075-1.258 1.049-.111.367-.164.854-.164 1.534 0 2.505-.009 6.636-.009 6.637 0 3.458 3.202 6.49 6.853 6.49h33.826c3.512 0 6.365-2.911 6.365-6.487.008-.685.075-6.787.075-6.935 0-1.5.241-1.5.644-1.5.314 0 .383.054.726.579.384.59 1.024 1.578 2.614 1.578 2.783 0 2.795-3.639 2.809-9.146l.006-1.477V32.465l-.006-1.483c-.014-5.506-.021-9.144-2.809-9.144-1.59 0-2.23.987-2.614 1.576-.343.524-.408.578-.726.578-.414 0-.644 0-.644-1.498 0-.148-.067-6.251-.075-6.947 0-3.565-2.856-6.475-6.365-6.475z"/><linearGradient id="a" gradientUnits="userSpaceOnUse" x1="-577.457" y1="-376.38" x2="-577.457" y2="-339.131" gradientTransform="matrix(1 0 0 -1 612 -322)"><stop offset=".127" stop-color="#fff"/><stop offset=".267" stop-color="#fff" stop-opacity=".16"/><stop offset=".539" stop-color="#fff" stop-opacity="0"/></linearGradient><path opacity=".33" fill="url(#a)" d="M14.438 54.295c-2.701 0-5.162-2.279-5.162-4.783 0 0 .01-4.133.01-6.639 0-.129.003-.244.006-.346.691 1.016 1.705 1.57 3.011 1.648.082.008.161.01.236.01 1.185 0 1.851-.584 2.433-1.182 1.209-1.236 1.219-2.828 1.267-10.465-.048-7.646-.058-9.238-1.267-10.475-.582-.598-1.248-1.18-2.433-1.18a4.86 4.86 0 0 0-.236.006c-1.308.08-2.318.637-3.011 1.65a11.331 11.331 0 0 1-.006-.344c0-2.506-.01-6.641-.01-6.641 0-2.5 2.461-4.779 5.162-4.779h33.826c2.577 0 4.676 2.145 4.676 4.779.023 2.348.076 6.801.076 6.936 0 2.246.696 3.205 2.332 3.205 1.258 0 1.764-.777 2.135-1.346.338-.521.524-.809 1.205-.809 1.101 0 1.104 3.613 1.114 7.438 0 .48.009 1.625.009 1.625-.006.504-.009 1.002-.009 1.481-.011 3.824-.017 7.438-1.114 7.438-.681 0-.867-.287-1.205-.809-.371-.568-.877-1.348-2.135-1.348-1.636 0-2.332.957-2.332 3.205 0 .133-.053 4.588-.076 6.926 0 2.646-2.099 4.791-4.676 4.791H14.438v.008z"/><path opacity=".69" fill="#FFF" d="M14.438 11.777h33.826c2.577 0 4.676 2.145 4.676 4.779.023 2.346.076 6.801.076 6.938 0 2.244.696 3.205 2.332 3.205 1.258 0 1.764-.781 2.135-1.35.338-.52.524-.807 1.205-.807 1.101 0 1.104 3.611 1.114 7.438l.003 1.156c0-.18 0-.35.006-.528 0 0-.009-1.146-.009-1.625-.011-3.824-.017-7.438-1.114-7.438-.681 0-.867.287-1.205.809-.371.568-.877 1.346-2.135 1.346-1.636 0-2.332-.959-2.332-3.205 0-.135-.053-4.588-.076-6.936 0-2.635-2.099-4.779-4.676-4.779H14.438c-2.701 0-5.162 2.279-5.162 4.779 0 0 .002.377.002.965.021-2.489 2.471-4.747 5.16-4.747zM9.285 43.871c0-.129.003-.244.006-.346.691 1.014 1.705 1.568 3.011 1.648.082.008.161.01.236.01 1.185 0 1.851-.582 2.433-1.182 1.209-1.234 1.219-2.828 1.267-10.465l-.004-.5c-.044 7.207-.077 8.756-1.263 9.967-.582.598-1.248 1.182-2.433 1.182-.075 0-.154-.002-.236-.01-1.306-.078-2.318-.635-3.011-1.648-.003.102-.006.217-.006.346 0 2.506-.01 6.639-.01 6.639l.002.035c.005-1.373.008-3.924.008-5.676z"/><path fill="#308BA0" d="M39.33 40.572c-.443 0-.876-.188-1.191-.521-1.412-1.141-5.818-4.837-5.818-6.562 0-1.529.875-2.074 1.693-2.074.084 0 .172.005.26.016l1.715.107c.049 0 .08-.015.111-.049.067-.077.103-.223.082-.387l-.005-.048.003-.046c.002-.023.106-2.248.106-4.064 0-1.288-1.429-2.287-2.656-2.287a2.288 2.288 0 0 0-2.287 2.287c0 1.531-.858 1.854-1.58 1.854h-3.875c-1.367 0-1.37-1.352-1.37-1.859.002-5.022 4.09-9.107 9.112-9.107 5.024 0 9.113 4.085 9.113 9.106 0 2.314-.259 4.114-.269 4.189-.017.14.019.285.088.362a.127.127 0 0 0 .107.049l1.752-.111c.042-.006.119-.011.195-.011.854 0 1.719.641 1.719 2.073 0 1.534-4.039 5.075-5.812 6.557a1.636 1.636 0 0 1-1.193.526z"/><path fill="#FFF" d="M44.464 32.05l-1.687.105c-.575.069-.987-.432-.918-1.114 0 0 .263-1.805.263-4.101 0-4.687-3.806-8.486-8.492-8.486a8.494 8.494 0 0 0-8.493 8.486c.001.685.067 1.239.751 1.239h3.875c.959 0 .959-.791.959-1.232a2.909 2.909 0 0 1 2.908-2.908c1.604 0 3.277 1.301 3.277 2.908 0 1.854-.107 4.094-.107 4.094.07.683-.342 1.184-.918 1.114l-1.687-.105c-.69-.085-1.256.282-1.256 1.442 0 1.578 5.623 6.105 5.623 6.105a1.005 1.005 0 0 0 1.533 0s5.62-4.686 5.62-6.105c.004-1.062-.563-1.527-1.251-1.442z"/><path fill="#308BA0" d="M26.406 39.665c-1.042 0-1.891-.864-1.891-1.927v-1.707c0-1.062.849-1.926 1.891-1.926h3.048c1.041 0 1.889.862 1.889 1.926v1.707c0 1.062-.848 1.927-1.889 1.927h-3.048z"/><g><path fill="#FFF" d="M29.454 34.727h-3.048c-.702 0-1.271.586-1.271 1.307v1.707c0 .722.567 1.307 1.271 1.307h3.048c.701 0 1.268-.585 1.268-1.307v-1.707c0-.722-.567-1.307-1.268-1.307z"/></g><g><path fill="#308BA0" d="M26.406 45.252c-1.042 0-1.891-.865-1.891-1.927v-1.707c0-1.062.849-1.927 1.891-1.927h3.048c1.041 0 1.889.865 1.889 1.927v1.707c0 1.062-.848 1.927-1.889 1.927h-3.048z"/></g><g><path fill="#FFF" d="M29.454 40.312h-3.048c-.702 0-1.271.586-1.271 1.306v1.707c0 .722.567 1.306 1.271 1.306h3.048c.701 0 1.268-.584 1.268-1.306v-1.707c0-.72-.567-1.306-1.268-1.306z"/></g><g><path fill="#308BA0" d="M26.406 34.078c-1.042 0-1.891-.864-1.891-1.926v-1.087c0-1.062.849-1.927 1.891-1.927h3.048c1.041 0 1.889.865 1.889 1.927v1.087c0 1.062-.848 1.926-1.889 1.926h-3.048z"/></g><g><path fill="#FFF" d="M29.454 29.76h-3.048c-.702 0-1.271.586-1.271 1.306v1.087c0 .721.567 1.305 1.271 1.305h3.048c.701 0 1.268-.584 1.268-1.305v-1.087c0-.72-.567-1.306-1.268-1.306z"/></g></svg>