<svg xmlns="http://www.w3.org/2000/svg" width="97" height="77" viewBox="0 0 97 77"><path opacity=".2" d="M80.493 38.122s.228.076 2.563.872c1.417.472.871 1.021.871 1.021S55.012 66.168 52.723 67.982c-2.29 1.815-4.579.646-4.579.646s-27.199-12.667-27.82-12.99c-.623-.322-1.867-1.315-2.091-1.718-.149-.348-.497-.547-.497-.547l-1.071-.722.972-.848 5.225-1.441 17.818-14.78 21.002-3.334 18.811 5.874z"/><path opacity=".2" d="M18.456 38.621s-3.434 1.119-.746 13.388c.148.474.223.972-.199.995-.423.023-.822-.1-1.095-.921-.274-.819-2.488-10.229 1.417-14.732 2.912-1.268 29.614-19.435 29.614-19.435l10.752-1.146 24.855 7.741c2.96 1.194 1.613 2.887.995 3.508-.623.623-28.691 22.67-30.761 24.288-2.062 1.616-4.18.299-4.18.299"/><path fill="#7F5326" d="M16.561 36.362l-2.813-1.094s-3.034-1.543-.721 13.982l2.065-.497 2.812-1.593-1.343-10.798z"/><path fill="#C17E2F" d="M76.333 35.192l2.562.871c1.417.473.871 1.021.871 1.021S50.852 63.238 48.562 65.055c-2.29 1.816-4.579.647-4.579.647s-27.199-12.667-27.82-12.991c-.623-.322-1.867-1.316-2.091-1.717-.149-.35-.497-.547-.497-.547l-1.071-.723.972-.849 5.225-1.44L36.52 32.654l21.002-3.334 18.811 5.872z"/><path fill="#F9A737" d="M76.333 33.601s.225.074 2.562.871c1.417.474.871 1.021.871 1.021S50.852 61.646 48.562 63.462c-2.29 1.815-4.579.646-4.579.646s-27.198-12.665-27.82-12.989c-.623-.324-1.867-1.319-2.091-1.719-.149-.348-.497-.547-.497-.547l5.125-3.012L36.518 31.06l21.002-3.336 18.813 5.877z"/><path fill="#F2F2F2" d="M46.075 62.615L77.452 35.74s-2.017-1.667-1.119-4.404a57.912 57.912 0 0 1 1.769-4.728l-30.07 22.605s-1.062.531-3.85-.663c-2.787-1.192-28.004-12.509-28.004-12.509s-.488.545-.488 1.192c-.299.621-.225.672-.025 1.244-.398.373-.349.722-.125 1.044-.299.399-.299.746-.024 1.17-.299.396-.149.746.075.994-.374.397-.374.771-.075.973-.149.396-.446.646 0 .994-.124.396-.249.498-.024.798-.1.373-.051.646 0 .971-.025.447-.1.797.074.972-.074.35.025.819.199.871-.174.299-.299.771-.149.846l.497.248s-.049.149.299.375c.422.222 27.596 13.785 29.663 13.882z"/><path fill="#E6E6E6" d="M15.879 38.627l29.872 13.164s.223-1.85.521-2.215c-6.603-2.819-21.069-9.521-21.069-9.521l-8.991-3.667s-.721.051-.373 1.069c-.323.224-.498.797-.174 1.021.325.223.214.149.214.149z"/><path fill="none" d="M44.954 49.677L14.295 35.69"/><path fill="#E6E6E6" d="M44.614 56.845l31.719-25.509s1.469-4.231 1.867-4.901c-1.817.746-3.062 1.643-3.062 1.643l-10.326 8.41-14.608 11.244-3.606 1.568c-.001.005-1.927 2.423-1.984 7.545z"/><path fill="#C17E2F" d="M14.295 35.69s-3.434 1.119-.746 13.389c.148.473.223.971-.199.995-.423.023-.822-.102-1.095-.922-.274-.82-2.488-10.229 1.417-14.731 2.912-1.268 29.613-19.435 29.613-19.435l10.752-1.146 24.855 7.741c2.96 1.193 1.616 2.887.995 3.507-.621.623-28.687 22.671-30.756 24.288-2.064 1.617-4.181.299-4.181.299"/><path fill="#F9A737" d="M46.845 11.503c2.115-1.22 5.301-.422 5.301-.422s24.361 9.68 26.751 10.501c2.39.82 1.368 1.966 1.119 2.214-.248.248-28.915 22.597-30.907 23.988-1.988 1.396-3.732.448-3.732.448L13.673 34.421"/><path fill="#E6E6E6" d="M22.185 44.368s5.309.932 12.873 5.84c-12.741-5.642-12.873-5.84-12.873-5.84z"/><path fill="#E6E6E6" d="M44.729 55.249l10.651-7.86-10.6 7.215-14.98-5.127z"/><path opacity=".25" fill="#FFF" d="M45.54 48.314L13.673 34.421l.815-.506z"/></svg>