<svg xmlns="http://www.w3.org/2000/svg" width="97" height="77" viewBox="0 0 97 77"><path fill="#C17E2F" d="M74.954 29.313s12.012 5.519 12.98 6.007c.973.489 1.417 1.391.74 2.452-.482.758-14.153 22.801-14.487 23.272-.661.933-1.716 1.386-3.274.515 0 0-14.922-6.572-19.062-8.139 0 0-4.889-1.884-6.878-1.792-1.588.072-3.452.106-6.204-.655-2.615-.729-3.996-2.078-3.996-2.078S17.081 45.27 8.812 45.184c-2.188-.193-1.707-1.707-.551-2.603l4.752-3.669 55.003-7.229 6.938-2.37z"/><path fill="#F9A737" d="M74.954 28.39s12.012 5.518 12.98 6.006c.971.487 1.417 1.389.74 2.453-.482.756-14.153 22.799-14.487 23.271-.661.932-1.716 1.386-3.274.514 0 0-14.922-6.573-19.062-8.138 0 0-4.889-1.882-6.878-1.791-1.588.072-3.452.105-6.204-.657-2.615-.728-3.996-2.078-3.996-2.078s-17.692-3.622-25.961-3.709c-2.188-.196-1.707-1.709-.551-2.603l4.752-3.669 55.003-7.23 6.938-2.369z"/><path fill="#7F5326" d="M36.278 46.229l-1.505 1.741s1.103 1.4 5.021 2.337c3.918.933 5.18.396 5.18.396l2.01-2.686c-.002.004-9.098-3.153-10.706-1.788z"/><path fill="#FFF" stroke="#E6E6E6" stroke-width=".436" stroke-linecap="round" stroke-linejoin="round" stroke-miterlimit="10" d="M72.757 59.552C52.348 49.261 45.702 48.864 45.702 48.864c-.088.008-.176.018-.263.022l-.271.021a15.41 15.41 0 0 1-.729.034c-.112.004-.371-.156-.481-.156-.246.002-.34.16-.574.152-.256-.012-.549-.299-.79-.315-.132-.013-.22.25-.351.233-.172-.021-.381-.237-.549-.262-.203-.029-.361.137-.553.102-.328-.061-.783-.397-1.084-.475-.384-.101-.604.059-.936-.061-.156-.055-.164-.355-.31-.414-.112-.045-.364.16-.473.115-.207-.088-.31-.438-.491-.523-.087-.043-.262.178-.344.135-.104-.055-.204-.105-.301-.16-.124-.067.017-.346-.091-.408-.149-.092-.537.031-.652-.047-.097-.065-.11-.279-.185-.334-.235-.172-.425-.129-.425-.129S22.478 43.463 9.06 42.641c1.694-1.576 2.834-6.254 2.834-6.254s15.032-2.464 24.977 1.603c9.945 4.063 33.171 12.204 34.228 13.43 1.058 1.223-.192 3.43 1.658 8.132"/><path fill="#FFF" stroke="#E6E6E6" stroke-width=".436" stroke-linecap="round" stroke-linejoin="round" stroke-miterlimit="10" d="M85.823 30.795s.598 3.646 1.93 4.627l-14.994 24.13s-2.119-3.776-.731-9.479c1.383-5.709 13.795-19.278 13.795-19.278zM12.177 36.243l24.318-16.441s2.592.359 3.681.359c4.506 0 18.021-1.234 20.202 5.232l-19.33 18.311s-1.961-5.266-9.389-6.209c-5.337-.68-10.938-.732-14.18-.891-2.104-.101-5.302-.361-5.302-.361z"/><path fill="#FFF" stroke="#E6E6E6" stroke-width=".436" stroke-linecap="round" stroke-linejoin="round" stroke-miterlimit="10" d="M85.823 30.942l-13.97 22.186s-15.196-8.914-21.797-9.69c-6.87-.806-8.646.485-8.646.485l19.437-18.504s2.812-2.609 7.124-2.568c5.037.049 10.451 2.859 17.852 7.945v.146z"/><path fill="#E6E6E6" d="M41.411 46.141s10.322-1.93 30.144 9.791c-.001 0-15.121-8.712-30.144-9.791zM38.799 45.172c.245.258-2.544-6.202-17.036-6.202-14.493 0 10.864-.255 17.036 6.202zM85.823 31.222L71.594 53.127s.084 4.289 1.164 5.848c1.081 1.558 14.995-23.553 14.995-23.553s-1.35-1.657-1.93-4.2zM67.546 22.862l-19.188 20.27s-3.971-.312-6.437.306c5.107-4.583 18.926-18.019 18.926-18.019s3.965-2.76 6.699-2.557z"/></svg>