<?xml version="1.0" encoding="utf-8"?>
<!-- Generator: Adobe Illustrator 15.0.0, SVG Export Plug-In . SVG Version: 6.00 Build 0)  -->
<!DOCTYPE svg PUBLIC "-//W3C//DTD SVG 1.1//EN" "http://www.w3.org/Graphics/SVG/1.1/DTD/svg11.dtd">
<svg version="1.1" id="Layer_1" xmlns="http://www.w3.org/2000/svg" xmlns:xlink="http://www.w3.org/1999/xlink" x="0px" y="0px"
	 width="97px" height="77px" viewBox="0 0 97 77" enable-background="new 0 0 97 77" xml:space="preserve">
<g id="Calque_2" display="none">
</g>
<g id="Extra" display="none">
</g>
<g id="Off_3_">
	<g id="Off_2_" display="none">
		<g display="inline">
			<path opacity="0.2" enable-background="new    " d="M80.493,39.122c0,0,0.228,0.076,2.563,0.872
				c1.417,0.472,0.871,1.021,0.871,1.021S55.012,67.168,52.723,68.982c-2.29,1.815-4.579,0.646-4.579,0.646
				s-27.199-12.667-27.82-12.99c-0.623-0.322-1.867-1.315-2.091-1.718c-0.149-0.348-0.497-0.547-0.497-0.547l-1.071-0.722
				l0.972-0.848l5.225-1.441L40.68,36.582l21.002-3.334L80.493,39.122z"/>
			<path opacity="0.2" enable-background="new    " d="M18.456,39.621c0,0-3.434,1.119-0.746,13.388
				c0.148,0.474,0.223,0.972-0.199,0.995c-0.423,0.023-0.822-0.1-1.095-0.921c-0.274-0.819-2.488-10.229,1.417-14.732
				c2.912-1.268,29.614-19.435,29.614-19.435l10.752-1.146l24.855,7.741c2.96,1.194,1.613,2.887,0.995,3.508
				c-0.623,0.623-28.691,22.67-30.761,24.288c-2.062,1.616-4.18,0.299-4.18,0.299"/>
		</g>
		<path display="inline" fill="#7F5326" d="M16.561,37.362l-2.813-1.094c0,0-3.034-1.543-0.721,13.982l2.065-0.497l2.812-1.593
			L16.561,37.362z"/>
		<path display="inline" fill="#C17E2F" d="M76.333,36.192c0,0,0.225,0.076,2.562,0.871c1.417,0.473,0.871,1.021,0.871,1.021
			S50.852,64.238,48.562,66.055c-2.29,1.816-4.579,0.647-4.579,0.647s-27.199-12.667-27.82-12.991
			c-0.623-0.322-1.867-1.316-2.091-1.717c-0.149-0.35-0.497-0.547-0.497-0.547l-1.071-0.723l0.972-0.849l5.225-1.44L36.52,33.654
			l21.002-3.334L76.333,36.192z"/>
		<path display="inline" fill="#F9A737" d="M76.333,34.601c0,0,0.225,0.074,2.562,0.871c1.417,0.474,0.871,1.021,0.871,1.021
			S50.852,62.646,48.562,64.462c-2.29,1.815-4.579,0.646-4.579,0.646S16.785,52.443,16.163,52.119
			c-0.623-0.324-1.867-1.319-2.091-1.719c-0.149-0.348-0.497-0.547-0.497-0.547l5.125-3.012l17.818-14.781l21.002-3.336
			L76.333,34.601z"/>
		<path display="inline" fill="#F2F2F2" d="M46.075,63.615L77.452,36.74c0,0-2.017-1.667-1.119-4.404
			c0.896-2.737,1.769-4.728,1.769-4.728L48.032,50.213c0,0-1.062,0.531-3.85-0.663c-2.787-1.192-28.004-12.509-28.004-12.509
			s-0.488,0.545-0.488,1.192c-0.299,0.621-0.225,0.672-0.025,1.244c-0.398,0.373-0.349,0.723-0.125,1.045
			c-0.299,0.399-0.299,0.746-0.024,1.17c-0.299,0.396-0.149,0.746,0.075,0.994c-0.374,0.397-0.374,0.771-0.075,0.973
			c-0.149,0.396-0.446,0.646,0,0.994c-0.124,0.396-0.249,0.498-0.024,0.798c-0.1,0.373-0.051,0.646,0,0.971
			c-0.025,0.447-0.1,0.797,0.074,0.972c-0.074,0.35,0.025,0.819,0.199,0.871c-0.174,0.299-0.299,0.771-0.149,0.846
			c0.149,0.074,0.497,0.248,0.497,0.248s-0.049,0.149,0.299,0.375C16.834,49.955,44.008,63.518,46.075,63.615z"/>
		<path display="inline" fill="#E6E6E6" d="M15.879,39.627l29.872,13.164c0,0,0.223-1.85,0.521-2.215
			c-6.603-2.819-21.069-9.521-21.069-9.521l-8.991-3.667c0,0-0.721,0.051-0.373,1.069c-0.323,0.224-0.498,0.797-0.174,1.021
			C15.99,39.701,15.879,39.627,15.879,39.627z"/>
		<line display="inline" fill="none" x1="44.954" y1="50.677" x2="14.295" y2="36.69"/>
		<path display="inline" fill="#E6E6E6" d="M44.614,57.845l31.719-25.509c0,0,1.469-4.231,1.867-4.901
			c-1.817,0.746-3.062,1.643-3.062,1.643l-10.326,8.41L50.204,48.732l-3.606,1.568C46.597,50.305,44.671,52.723,44.614,57.845z"/>
		<path display="inline" fill="#C17E2F" d="M14.295,36.69c0,0-3.434,1.119-0.746,13.389c0.148,0.473,0.223,0.971-0.199,0.995
			c-0.423,0.023-0.822-0.102-1.095-0.922c-0.274-0.82-2.488-10.229,1.417-14.731c2.912-1.268,29.613-19.435,29.613-19.435
			l10.752-1.146l24.855,7.741c2.96,1.193,1.616,2.887,0.995,3.507C79.266,26.711,51.2,48.759,49.131,50.376
			c-2.064,1.617-4.181,0.299-4.181,0.299"/>
		<path display="inline" fill="#F9A737" d="M46.845,12.503c2.115-1.22,5.301-0.422,5.301-0.422s24.361,9.68,26.751,10.501
			c2.39,0.82,1.368,1.966,1.119,2.214c-0.248,0.248-28.915,22.597-30.907,23.988c-1.988,1.396-3.732,0.448-3.732,0.448
			L13.673,35.421"/>
		<path display="inline" fill="#E6E6E6" d="M22.185,45.368c0,0,5.309,0.932,12.873,5.84C22.317,45.566,22.185,45.368,22.185,45.368z
			"/>
		<polygon display="inline" fill="#E6E6E6" points="44.729,56.249 55.38,48.389 44.78,55.604 29.8,50.477 		"/>
		<polygon display="inline" opacity="0.25" fill="#FFFFFF" enable-background="new    " points="45.54,49.314 13.673,35.421 
			14.488,34.915 		"/>
	</g>
	<g id="On_4_">
		<path fill="#C17E2F" d="M74.954,29.313c0,0,12.012,5.519,12.98,6.007c0.973,0.489,1.417,1.391,0.74,2.452
			c-0.482,0.758-14.153,22.801-14.487,23.272c-0.661,0.933-1.716,1.386-3.274,0.515c0,0-14.922-6.572-19.062-8.139
			c0,0-4.889-1.884-6.878-1.792c-1.588,0.072-3.452,0.106-6.204-0.655c-2.615-0.729-3.996-2.078-3.996-2.078
			S17.081,45.27,8.812,45.184c-2.188-0.193-1.707-1.707-0.551-2.603c1.159-0.894,4.752-3.669,4.752-3.669l55.003-7.229
			L74.954,29.313z"/>
		<path fill="#F9A737" d="M74.954,28.39c0,0,12.012,5.518,12.98,6.006c0.971,0.487,1.417,1.389,0.74,2.453
			c-0.482,0.756-14.153,22.799-14.487,23.271c-0.661,0.932-1.716,1.386-3.274,0.514c0,0-14.922-6.573-19.062-8.138
			c0,0-4.889-1.882-6.878-1.791c-1.588,0.072-3.452,0.105-6.204-0.657c-2.615-0.728-3.996-2.078-3.996-2.078
			s-17.692-3.622-25.961-3.709c-2.188-0.196-1.707-1.709-0.551-2.603c1.159-0.896,4.752-3.669,4.752-3.669l55.003-7.23L74.954,28.39
			z"/>
		<path fill="#7F5326" d="M36.278,46.229l-1.505,1.741c0,0,1.103,1.4,5.021,2.337c3.918,0.933,5.18,0.396,5.18,0.396l2.01-2.686
			C46.982,48.021,37.886,44.864,36.278,46.229z"/>
		
			<path fill="#FFFFFF" stroke="#E6E6E6" stroke-width="0.4362" stroke-linecap="round" stroke-linejoin="round" stroke-miterlimit="10" d="
			M72.757,59.552C52.348,49.261,45.702,48.864,45.702,48.864c-0.088,0.008-0.176,0.018-0.263,0.022
			c-0.091,0.008-0.181,0.014-0.271,0.021c-0.248,0.018-0.491,0.028-0.729,0.034c-0.112,0.004-0.371-0.156-0.481-0.156
			c-0.246,0.002-0.34,0.16-0.574,0.152c-0.256-0.012-0.549-0.299-0.79-0.315c-0.132-0.013-0.22,0.25-0.351,0.233
			c-0.172-0.021-0.381-0.237-0.549-0.262c-0.203-0.029-0.361,0.137-0.553,0.102c-0.328-0.061-0.783-0.397-1.084-0.475
			c-0.384-0.101-0.604,0.059-0.936-0.061c-0.156-0.055-0.164-0.355-0.31-0.414c-0.112-0.045-0.364,0.16-0.473,0.115
			c-0.207-0.088-0.31-0.438-0.491-0.523c-0.087-0.043-0.262,0.178-0.344,0.135c-0.104-0.055-0.204-0.105-0.301-0.16
			c-0.124-0.067,0.017-0.346-0.091-0.408c-0.149-0.092-0.537,0.031-0.652-0.047c-0.097-0.065-0.11-0.279-0.185-0.334
			c-0.235-0.172-0.425-0.129-0.425-0.129S22.478,43.463,9.06,42.641c1.694-1.576,2.834-6.254,2.834-6.254s15.032-2.464,24.977,1.603
			c9.945,4.063,33.171,12.204,34.228,13.43C72.157,52.643,70.907,54.85,72.757,59.552"/>
		
			<path fill="#FFFFFF" stroke="#E6E6E6" stroke-width="0.4362" stroke-linecap="round" stroke-linejoin="round" stroke-miterlimit="10" d="
			M85.823,30.795c0,0,0.598,3.646,1.93,4.627l-14.994,24.13c0,0-2.119-3.776-0.731-9.479C73.411,44.364,85.823,30.795,85.823,30.795
			z"/>
		
			<path fill="#FFFFFF" stroke="#E6E6E6" stroke-width="0.4362" stroke-linecap="round" stroke-linejoin="round" stroke-miterlimit="10" d="
			M12.177,36.243l24.318-16.441c0,0,2.592,0.359,3.681,0.359c4.506,0,18.021-1.234,20.202,5.232l-19.33,18.311
			c0,0-1.961-5.266-9.389-6.209c-5.337-0.68-10.938-0.732-14.18-0.891C15.375,36.503,12.177,36.243,12.177,36.243z"/>
		
			<path fill="#FFFFFF" stroke="#E6E6E6" stroke-width="0.4362" stroke-linecap="round" stroke-linejoin="round" stroke-miterlimit="10" d="
			M85.823,30.942l-13.97,22.186c0,0-15.196-8.914-21.797-9.69c-6.87-0.806-8.646,0.485-8.646,0.485l19.437-18.504
			c0,0,2.812-2.609,7.124-2.568c5.037,0.049,10.451,2.859,17.852,7.945V30.942L85.823,30.942z"/>
		<path fill="#E6E6E6" d="M41.411,46.141c0,0,10.322-1.93,30.144,9.791C71.554,55.932,56.434,47.22,41.411,46.141z"/>
		<path fill="#E6E6E6" d="M38.799,45.172c0.245,0.258-2.544-6.202-17.036-6.202C7.27,38.97,32.627,38.715,38.799,45.172z"/>
		<path fill="#E6E6E6" d="M85.823,31.222L71.594,53.127c0,0,0.084,4.289,1.164,5.848c1.081,1.558,14.995-23.553,14.995-23.553
			S86.403,33.765,85.823,31.222z"/>
		<path fill="#E6E6E6" d="M67.546,22.862l-19.188,20.27c0,0-3.971-0.312-6.437,0.306c5.107-4.583,18.926-18.019,18.926-18.019
			S64.812,22.659,67.546,22.862z"/>
	</g>
</g>
<g id="On_3_" display="none">
	<g id="On_2_" display="inline">
		<path fill="#C17E2F" d="M86.812,48.4c0,0,12.012,5.519,12.98,6.007c0.973,0.489,1.417,1.391,0.74,2.452
			c-0.482,0.758-14.153,22.801-14.487,23.271c-0.661,0.934-1.716,1.387-3.274,0.516c0,0-14.922-6.573-19.062-8.14
			c0,0-4.889-1.884-6.878-1.792c-1.588,0.072-3.452,0.105-6.204-0.654c-2.615-0.729-3.996-2.078-3.996-2.078
			s-17.692-3.625-25.961-3.711c-2.188-0.194-1.707-1.707-0.551-2.604C21.278,60.775,24.871,58,24.871,58l55.003-7.229L86.812,48.4z"
			/>
		<path fill="#F9A737" d="M86.812,47.477c0,0,12.012,5.519,12.98,6.006c0.971,0.487,1.417,1.39,0.74,2.453
			c-0.482,0.756-14.153,22.799-14.487,23.271c-0.661,0.932-1.716,1.386-3.274,0.514c0,0-14.922-6.574-19.062-8.138
			c0,0-4.889-1.882-6.878-1.791c-1.588,0.073-3.452,0.106-6.204-0.657c-2.615-0.728-3.996-2.078-3.996-2.078
			s-17.692-3.623-25.961-3.709c-2.188-0.197-1.707-1.709-0.551-2.603c1.159-0.896,4.752-3.669,4.752-3.669l55.003-7.23
			L86.812,47.477z"/>
		<path fill="#7F5326" d="M48.136,65.314l-1.505,1.742c0,0,1.103,1.399,5.021,2.336c3.918,0.933,5.18,0.396,5.18,0.396l2.01-2.686
			C58.841,67.107,49.744,63.951,48.136,65.314z"/>
		
			<path fill="#FFFFFF" stroke="#E6E6E6" stroke-width="0.4362" stroke-linecap="round" stroke-linejoin="round" stroke-miterlimit="10" d="
			M84.615,78.639C64.206,68.348,57.561,67.951,57.561,67.951c-0.088,0.008-0.176,0.018-0.263,0.023
			c-0.091,0.008-0.181,0.014-0.271,0.02c-0.248,0.018-0.491,0.029-0.729,0.035c-0.112,0.004-0.371-0.157-0.481-0.157
			c-0.246,0.002-0.34,0.161-0.574,0.153c-0.256-0.012-0.549-0.299-0.79-0.316c-0.132-0.012-0.22,0.25-0.351,0.234
			c-0.172-0.021-0.381-0.238-0.549-0.262c-0.203-0.029-0.361,0.137-0.553,0.102c-0.328-0.061-0.783-0.398-1.084-0.475
			c-0.384-0.102-0.604,0.059-0.936-0.062c-0.156-0.056-0.164-0.354-0.31-0.414c-0.112-0.045-0.364,0.16-0.473,0.115
			c-0.207-0.089-0.31-0.438-0.491-0.523c-0.087-0.043-0.262,0.179-0.344,0.136c-0.104-0.056-0.204-0.106-0.301-0.16
			c-0.124-0.068,0.017-0.346-0.091-0.408c-0.149-0.092-0.537,0.031-0.652-0.047c-0.097-0.066-0.11-0.28-0.185-0.334
			c-0.235-0.172-0.425-0.129-0.425-0.129s-13.373-2.933-26.791-3.754c1.694-1.576,2.834-6.254,2.834-6.254
			s15.032-2.465,24.977,1.602c9.945,4.064,33.171,12.205,34.228,13.43C84.016,71.729,82.766,73.936,84.615,78.639"/>
		
			<path fill="#FFFFFF" stroke="#E6E6E6" stroke-width="0.4362" stroke-linecap="round" stroke-linejoin="round" stroke-miterlimit="10" d="
			M97.682,49.882c0,0,0.598,3.646,1.93,4.627l-14.994,24.13c0,0-2.119-3.777-0.731-9.479C85.27,63.451,97.682,49.882,97.682,49.882z
			"/>
		
			<path fill="#FFFFFF" stroke="#E6E6E6" stroke-width="0.4362" stroke-linecap="round" stroke-linejoin="round" stroke-miterlimit="10" d="
			M24.035,55.33l24.318-16.441c0,0,2.592,0.359,3.681,0.359c4.506,0,18.021-1.234,20.202,5.232l-19.33,18.311
			c0,0-1.961-5.266-9.389-6.209c-5.337-0.68-10.938-0.732-14.18-0.891C27.233,55.59,24.035,55.33,24.035,55.33z"/>
		
			<path fill="#FFFFFF" stroke="#E6E6E6" stroke-width="0.4362" stroke-linecap="round" stroke-linejoin="round" stroke-miterlimit="10" d="
			M97.682,50.029l-13.97,22.186c0,0-15.196-8.914-21.797-9.691c-6.87-0.805-8.646,0.486-8.646,0.486l19.437-18.504
			c0,0,2.812-2.609,7.124-2.568c5.037,0.049,10.451,2.859,17.852,7.945V50.029L97.682,50.029z"/>
		<path fill="#E6E6E6" d="M53.27,65.227c0,0,10.322-1.929,30.144,9.791C83.412,75.018,68.292,66.307,53.27,65.227z"/>
		<path fill="#E6E6E6" d="M50.657,64.259c0.245,0.257-2.544-6.202-17.036-6.202C19.128,58.057,44.486,57.802,50.657,64.259z"/>
		<path fill="#E6E6E6" d="M97.682,50.309L83.452,72.214c0,0,0.084,4.289,1.164,5.847c1.081,1.559,14.995-23.552,14.995-23.552
			S98.262,52.852,97.682,50.309z"/>
		<path fill="#E6E6E6" d="M79.404,41.949l-19.188,20.27c0,0-3.971-0.312-6.437,0.305c5.107-4.582,18.926-18.018,18.926-18.018
			S76.671,41.746,79.404,41.949z"/>
	</g>
</g>
<g id="Calque_1" display="none">
</g>
</svg>
