<?xml version="1.0" encoding="utf-8"?>
<!-- Generator: Adobe Illustrator 19.1.0, SVG Export Plug-In . SVG Version: 6.00 Build 0)  -->
<svg version="1.1" id="Layer_1" xmlns="http://www.w3.org/2000/svg" xmlns:xlink="http://www.w3.org/1999/xlink" x="0px" y="0px"
	 width="97px" height="77px" viewBox="0 0 97 77" style="enable-background:new 0 0 97 77;" xml:space="preserve">
<path style="opacity:0.2;fill:#231F20;" d="M75.5,29.1l1.9,4.5c1.2,2.9,0.3,6.2-2.2,8.1c2.1,1.9,2.9,5,1.8,7.7L75.1,54
	c-1.1,2.8-3.9,4.4-6.8,4.2c0.4,3-1.2,6.1-4.2,7.3l-4.5,1.9c-2.9,1.2-6.2,0.3-8.1-2.2c-1.9,2.1-5,2.9-7.7,1.8l-4.6-1.9
	c-2.7-1.2-4.4-3.9-4.2-6.7c-3,0.4-6-1.2-7.3-4.2l-1.9-4.5c-1.2-2.9-0.3-6.2,2.2-8.1c-2.2-1.9-2.9-5-1.8-7.8l1.9-4.5
	c1.1-2.7,3.9-4.4,6.7-4.2c-0.4-3,1.2-6,4.2-7.3l4.5-1.9c2.9-1.2,6.2-0.3,8.1,2.2c1.9-2.1,5-2.9,7.7-1.8l4.6,1.9
	c2.8,1.2,4.4,3.9,4.2,6.8C71.3,24.5,74.3,26.2,75.5,29.1z"/>
<path style="fill:#FFFFFF;" d="M72.4,26l1.9,4.5c1.2,2.9,0.3,6.2-2.2,8.1c2.1,1.9,2.9,5,1.8,7.7L72,50.9c-1.1,2.8-3.9,4.4-6.8,4.2
	c0.4,3-1.2,6.1-4.2,7.3l-4.5,1.9c-2.9,1.2-6.2,0.3-8.1-2.2c-1.9,2.1-5,2.9-7.7,1.8l-4.6-1.9c-2.7-1.2-4.4-3.9-4.2-6.7
	c-3,0.4-6-1.2-7.3-4.2l-1.9-4.5c-1.2-2.9-0.3-6.2,2.2-8.1c-2.2-1.9-2.9-5-1.8-7.8l1.9-4.5c1.1-2.7,3.9-4.4,6.7-4.2
	c-0.4-3,1.2-6,4.2-7.3l4.5-1.9c2.9-1.2,6.2-0.3,8.1,2.2c1.9-2.1,5-2.9,7.7-1.8l4.6,1.9c2.8,1.2,4.4,3.9,4.2,6.8
	C68.1,21.4,71.1,23,72.4,26z"/>
<path style="fill:#F9A737;" d="M65.8,27.8L65.8,27.8l-5,1.4l-0.2-0.3c-0.7-0.9-1.6-1.8-2.4-2.4l-0.3-0.2l1.2-4.6
	c0.1-0.4-0.1-0.9-0.5-1L54,18.7c-0.4-0.1-0.9,0-1.1,0.4l-2.4,4.1l-0.3,0c-1.2-0.1-2.4-0.1-3.5,0l-0.3,0l-2.6-4.5
	c-0.2-0.4-0.7-0.6-1.1-0.4l-4.5,1.9c-0.4,0.2-0.6,0.6-0.5,1l1.4,5l-0.3,0.2c-0.9,0.7-1.7,1.5-2.4,2.4l-0.2,0.3l-4.6-1.2
	c-0.4-0.1-0.9,0.1-1,0.5l-1.9,4.5c-0.2,0.4,0,0.9,0.4,1.1l4.1,2.4l0,0.3c-0.1,1.1-0.1,2.2,0,3.4l0,0.3l-4.5,2.6
	c-0.4,0.2-0.6,0.7-0.4,1.1l1.9,4.5c0.2,0.4,0.6,0.6,1,0.5l5-1.4l0.2,0.3c0.7,0.9,1.5,1.7,2.4,2.4l0.3,0.2l-1.2,4.6
	c-0.1,0.4,0.1,0.9,0.5,1l4.6,1.9c0.4,0.2,0.9,0,1.1-0.4l2.4-4.1l0.3,0c1.2,0.1,2.3,0.1,3.4,0l0.3,0l2.6,4.5c0.2,0.4,0.7,0.6,1.1,0.4
	l4.5-1.9c0.4-0.2,0.6-0.6,0.5-1l-1.4-5l0.3-0.2c0.9-0.7,1.7-1.5,2.4-2.4l0.2-0.2l4.6,1.2c0.4,0.1,0.9-0.1,1-0.5l1.9-4.5
	c0.2-0.4,0-0.9-0.4-1.1l-4.1-2.4l0-0.3c0.1-1.2,0.1-2.3,0-3.4l0-0.3l4.5-2.6c0.4-0.2,0.6-0.7,0.4-1.1l-1.9-4.5
	C66.6,27.9,66.2,27.6,65.8,27.8z M51.8,46.5c-4.4,1.8-9.4-0.3-11.3-4.7s0.3-9.4,4.7-11.2c4.4-1.8,9.4,0.3,11.3,4.7
	S56.2,44.6,51.8,46.5z"/>
<path style="fill:#966020;" d="M65.5,26.8L61.1,28c-0.7-0.8-1.4-1.5-2.1-2.1l1-4c0.3-0.9-0.2-1.9-1.1-2.2l-4.5-1.9
	c-0.9-0.4-1.9,0-2.3,0.8L50,22.1c-1.1-0.1-2.1-0.1-3,0l-2.2-3.9c-0.5-0.8-1.5-1.2-2.3-0.8l-4.5,1.9c-0.9,0.4-1.3,1.3-1.1,2.2
	l1.2,4.4c-0.8,0.6-1.5,1.3-2.1,2.1l-4-1C31,26.7,30,27.2,29.7,28l-1.9,4.5c-0.4,0.9,0,1.9,0.8,2.3l3.5,2.1c-0.1,1-0.1,2,0,3
	l-3.9,2.2c-0.8,0.5-1.2,1.5-0.8,2.3l1.9,4.5c0.4,0.9,1.3,1.3,2.2,1.1l4.4-1.2c0.6,0.8,1.3,1.5,2.1,2.1l-1,4C36.7,56,37.2,57,38,57.3
	l4.6,1.9c0.9,0.3,1.9,0,2.3-0.8l2.1-3.6c1,0.1,2,0.1,3,0l2.2,3.9c0.5,0.8,1.5,1.2,2.3,0.8l4.5-1.9c0.9-0.4,1.3-1.3,1.1-2.2L59,51.1
	c0.8-0.6,1.5-1.3,2.1-2.1l4,1c0.9,0.3,1.9-0.2,2.2-1.1l1.9-4.5c0.3-0.9,0-1.9-0.8-2.3L64.9,40c0.1-1,0.1-2,0-3l3.9-2.2
	c0.8-0.5,1.2-1.5,0.8-2.3l-1.9-4.5C67.4,27,66.4,26.5,65.5,26.8z M68.7,32.8c0.2,0.4,0,0.9-0.4,1.1l-4.5,2.6l0,0.3
	c0.1,1.1,0.1,2.3,0,3.4l0,0.3l4.1,2.4c0.4,0.2,0.5,0.7,0.4,1.1l-1.9,4.5c-0.2,0.4-0.6,0.6-1,0.5l-4.6-1.2l-0.2,0.2
	c-0.7,0.9-1.6,1.8-2.4,2.4l-0.3,0.2l1.4,5c0.1,0.4-0.1,0.9-0.5,1l-4.5,1.9c-0.4,0.2-0.9,0-1.1-0.4l-2.6-4.5l-0.3,0
	c-1.1,0.1-2.2,0.1-3.4,0l-0.3,0L44,57.9c-0.2,0.4-0.7,0.5-1.1,0.4l-4.6-1.9c-0.4-0.2-0.6-0.6-0.5-1l1.2-4.6l-0.3-0.2
	c-0.9-0.7-1.7-1.5-2.4-2.4l-0.2-0.3l-5,1.4c-0.4,0.1-0.9-0.1-1-0.5l-1.9-4.5c-0.2-0.4,0-0.9,0.4-1.1l4.5-2.6l0-0.3
	c-0.1-1.2-0.1-2.4,0-3.4l0-0.3L29.1,34c-0.4-0.2-0.5-0.7-0.4-1.1l1.9-4.5c0.2-0.4,0.6-0.6,1-0.5l4.6,1.2l0.2-0.3
	c0.7-0.9,1.5-1.7,2.4-2.4l0.3-0.2l-1.4-5c-0.1-0.4,0.1-0.9,0.5-1l4.5-1.9c0.4-0.2,0.9,0,1.1,0.4l2.6,4.5l0.3,0
	c1.1-0.1,2.2-0.1,3.5,0l0.3,0l2.4-4.1c0.2-0.4,0.7-0.5,1.1-0.4l4.5,1.9c0.4,0.2,0.6,0.6,0.5,1l-1.2,4.6l0.3,0.2
	c0.9,0.7,1.7,1.5,2.4,2.4l0.2,0.3l5-1.3l0,0c0.4-0.1,0.9,0.1,1,0.5L68.7,32.8z"/>
<path style="fill:#966020;" d="M45.2,30.5c-4.4,1.8-6.5,6.9-4.7,11.2s6.9,6.5,11.3,4.7c4.4-1.8,6.5-6.9,4.7-11.3
	S49.6,28.7,45.2,30.5z M51.4,45.5c-3.9,1.6-8.3-0.2-9.9-4.1c-1.6-3.9,0.2-8.3,4.1-9.9c3.9-1.6,8.3,0.2,10,4.1
	C57.1,39.5,55.3,43.9,51.4,45.5z"/>
</svg>
