<?xml version="1.0" encoding="utf-8"?>
<!-- Generator: Adobe Illustrator 19.1.0, SVG Export Plug-In . SVG Version: 6.00 Build 0)  -->
<svg version="1.1" id="Layer_1" xmlns="http://www.w3.org/2000/svg" xmlns:xlink="http://www.w3.org/1999/xlink" x="0px" y="0px"
	 width="97px" height="77px" viewBox="0 0 97 77" style="enable-background:new 0 0 97 77;" xml:space="preserve">
<path style="opacity:0.2;fill:#231F20;" d="M78.5,39.2v4.9c0,3.2-2.1,5.9-5.1,6.6c1.2,2.5,0.8,5.7-1.3,7.8l-3.5,3.5
	c-2.1,2.1-5.3,2.6-7.9,1.3c-0.8,3-3.5,5.1-6.6,5.1h-4.9c-3.2,0-5.8-2.1-6.6-5.1c-2.5,1.2-5.7,0.8-7.8-1.3l-3.5-3.5
	c-2.1-2.1-2.5-5.3-1.3-7.8c-3-0.8-5.1-3.5-5.1-6.6v-4.9c0-3.2,2.1-5.9,5.1-6.6c-1.3-2.6-0.8-5.7,1.3-7.9l3.5-3.5
	c2.1-2.1,5.2-2.6,7.8-1.3c0.8-3,3.5-5.1,6.6-5.1h4.9c3.2,0,5.9,2.1,6.6,5.1c2.5-1.3,5.7-0.8,7.8,1.3l3.5,3.5
	c2.1,2.1,2.6,5.3,1.3,7.9C76.4,33.4,78.5,36,78.5,39.2z"/>
<path style="fill:#FFFFFF;" d="M75.3,36V41c0,3.2-2.1,5.9-5.1,6.6c1.2,2.5,0.8,5.7-1.3,7.8l-3.5,3.5c-2.1,2.1-5.3,2.6-7.9,1.3
	c-0.8,3-3.5,5.1-6.6,5.1H46c-3.2,0-5.8-2.1-6.6-5.1c-2.5,1.2-5.7,0.8-7.8-1.3l-3.5-3.5c-2.1-2.1-2.5-5.3-1.3-7.8
	c-3-0.8-5.1-3.5-5.1-6.6V36c0-3.2,2.1-5.9,5.1-6.6c-1.3-2.6-0.8-5.7,1.3-7.9l3.5-3.5c2.1-2.1,5.2-2.6,7.8-1.3c0.8-3,3.5-5.1,6.6-5.1
	H51c3.2,0,5.9,2.1,6.6,5.1c2.5-1.3,5.7-0.8,7.8,1.3l3.5,3.5c2.1,2.1,2.6,5.3,1.3,7.9C73.2,30.2,75.3,32.9,75.3,36z"/>
<path style="fill:#F9A737;" d="M68.6,35.2L68.6,35.2l-5.2-0.7l-0.1-0.3C63,33.1,62.6,32,62,31.1l-0.2-0.3l2.9-3.8
	c0.3-0.3,0.2-0.8-0.1-1.1l-3.5-3.5c-0.3-0.3-0.8-0.3-1.1,0l-3.8,2.8L56,25c-1.1-0.6-2.2-1-3.2-1.3l-0.3-0.1l-0.7-5.2
	c0-0.4-0.4-0.8-0.8-0.8H46c-0.4,0-0.8,0.3-0.8,0.8l-0.7,5.2l-0.3,0.1C43.1,24,42.1,24.4,41,25l-0.3,0.2L37,22.3
	c-0.4-0.3-0.9-0.2-1.2,0l-3.5,3.5c-0.3,0.3-0.3,0.8-0.1,1.1l2.9,3.8L35,31.1c-0.5,0.9-1,2-1.3,3.2l-0.1,0.3l-5.1,0.7
	c-0.4,0-0.8,0.4-0.8,0.8V41c0,0.4,0.3,0.8,0.8,0.8l5.2,0.7l0.1,0.3c0.3,1.1,0.7,2.1,1.3,3.2l0.2,0.3L32.3,50c-0.3,0.3-0.3,0.8,0,1.1
	l3.5,3.5c0.3,0.3,0.8,0.3,1.1,0l3.8-2.9l0.3,0.1c1,0.6,2.1,1,3.2,1.3l0.3,0.1l0.7,5.1c0,0.4,0.4,0.8,0.8,0.8H51
	c0.4,0,0.8-0.3,0.8-0.8l0.7-5.2l0.3-0.1c1-0.3,2.1-0.7,3.2-1.3l0.3-0.1l3.8,2.9c0.4,0.3,0.8,0.2,1.2,0l3.5-3.5
	c0.3-0.3,0.3-0.8,0.1-1.1l-2.9-3.8l0.2-0.3c0.6-1,1-2.1,1.3-3.2l0.1-0.3l5.2-0.7c0.4,0,0.8-0.4,0.8-0.8V36
	C69.3,35.6,69,35.2,68.6,35.2z M48.5,47.1c-4.8,0-8.6-3.9-8.6-8.6s3.9-8.6,8.6-8.6s8.6,3.9,8.6,8.6S53.2,47.1,48.5,47.1z"/>
<path style="fill:#966020;" d="M68.7,34.2l-4.5-0.6c-0.3-1-0.7-1.9-1.2-2.8l2.5-3.3c0.6-0.7,0.5-1.8-0.1-2.5l-3.5-3.5
	c-0.7-0.7-1.7-0.7-2.5-0.1l-3.3,2.5c-0.9-0.5-1.9-0.9-2.8-1.1l-0.6-4.5c-0.1-1-0.9-1.7-1.8-1.7H46c-0.9,0-1.7,0.7-1.8,1.6l-0.6,4.5
	c-1,0.3-1.9,0.7-2.8,1.2l-3.3-2.5c-0.7-0.6-1.8-0.5-2.5,0.1l-3.5,3.5c-0.7,0.7-0.7,1.7-0.2,2.5l2.5,3.3c-0.5,0.8-0.9,1.8-1.2,2.8
	l-4.5,0.6c-1,0.1-1.7,0.9-1.7,1.8V41c0,1,0.7,1.7,1.7,1.8l4.5,0.6c0.3,0.9,0.7,1.9,1.2,2.8l-2.5,3.3c-0.6,0.7-0.5,1.8,0.1,2.5
	l3.5,3.5c0.7,0.7,1.7,0.7,2.5,0.1l3.3-2.5c0.9,0.5,1.8,0.9,2.8,1.2l0.6,4.5c0.1,0.9,0.9,1.7,1.8,1.7H51c1,0,1.7-0.7,1.8-1.7l0.6-4.5
	c0.9-0.3,1.9-0.7,2.8-1.2l3.3,2.5c0.7,0.6,1.8,0.5,2.5-0.1l3.5-3.5c0.7-0.7,0.7-1.7,0.1-2.5L63,46.1c0.5-0.9,0.9-1.8,1.2-2.8
	l4.5-0.6c1-0.1,1.7-0.9,1.7-1.8V36C70.3,35.1,69.6,34.3,68.7,34.2z M69.3,41c0,0.4-0.3,0.8-0.8,0.8l-5.2,0.7l-0.1,0.3
	c-0.3,1.1-0.7,2.1-1.3,3.2l-0.2,0.3l2.9,3.8c0.3,0.3,0.2,0.8-0.1,1.1l-3.5,3.5c-0.3,0.3-0.8,0.3-1.2,0l-3.8-2.9L56,52
	c-1,0.6-2.1,1-3.2,1.3l-0.3,0.1l-0.7,5.2c0,0.4-0.4,0.8-0.8,0.8H46c-0.4,0-0.8-0.3-0.8-0.8l-0.7-5.1l-0.3-0.1
	c-1.1-0.3-2.1-0.7-3.2-1.3l-0.3-0.1L37,54.7c-0.3,0.3-0.8,0.2-1.1,0l-3.5-3.5c-0.3-0.3-0.3-0.8,0-1.1l2.9-3.8L35,45.9
	c-0.6-1-1-2.1-1.3-3.2l-0.1-0.3l-5.2-0.7c-0.4,0-0.8-0.4-0.8-0.8V36c0-0.4,0.3-0.8,0.8-0.8l5.1-0.7l0.1-0.3c0.3-1.2,0.8-2.2,1.3-3.2
	l0.2-0.3l-2.9-3.8c-0.3-0.3-0.2-0.8,0.1-1.1l3.5-3.5c0.3-0.3,0.8-0.3,1.2,0l3.8,2.9L41,25c1-0.6,2.1-1,3.2-1.3l0.3-0.1l0.7-5.2
	c0-0.4,0.4-0.8,0.8-0.8H51c0.4,0,0.8,0.3,0.8,0.8l0.7,5.2l0.3,0.1c1,0.3,2.1,0.7,3.2,1.3l0.3,0.1l3.8-2.8c0.3-0.3,0.8-0.2,1.1,0
	l3.5,3.5c0.3,0.3,0.3,0.8,0.1,1.1l-2.9,3.8l0.2,0.3c0.5,0.9,1,2,1.3,3.2l0.1,0.3l5.1,0.7h0c0.4,0,0.8,0.4,0.8,0.8V41z"/>
<path style="fill:#966020;" d="M48.5,29.9c-4.8,0-8.6,3.9-8.6,8.6s3.9,8.6,8.6,8.6s8.6-3.9,8.6-8.6S53.2,29.9,48.5,29.9z M48.5,46.1
	c-4.2,0-7.6-3.4-7.6-7.6c0-4.2,3.4-7.6,7.6-7.6s7.6,3.4,7.6,7.6C56.1,42.7,52.7,46.1,48.5,46.1z"/>
</svg>
