<svg xmlns="http://www.w3.org/2000/svg" width="97" height="77" viewBox="0 0 97 77"><path d="M78.5 39.2v4.9c0 3.2-2.1 5.9-5.1 6.6 1.2 2.5.8 5.7-1.3 7.8L68.6 62c-2.1 2.1-5.3 2.6-7.9 1.3-.8 3-3.5 5.1-6.6 5.1h-4.9c-3.2 0-5.8-2.1-6.6-5.1-2.5 1.2-5.7.8-7.8-1.3l-3.5-3.5c-2.1-2.1-2.5-5.3-1.3-7.8-3-.8-5.1-3.5-5.1-6.6v-4.9c0-3.2 2.1-5.9 5.1-6.6-1.3-2.6-.8-5.7 1.3-7.9l3.5-3.5c2.1-2.1 5.2-2.6 7.8-1.3.8-3 3.5-5.1 6.6-5.1h4.9c3.2 0 5.9 2.1 6.6 5.1 2.5-1.3 5.7-.8 7.8 1.3l3.5 3.5c2.1 2.1 2.6 5.3 1.3 7.9 3.1.8 5.2 3.4 5.2 6.6z" opacity=".2" fill="#231f20"/><path d="M75.3 36v5c0 3.2-2.1 5.9-5.1 6.6 1.2 2.5.8 5.7-1.3 7.8l-3.5 3.5c-2.1 2.1-5.3 2.6-7.9 1.3-.8 3-3.5 5.1-6.6 5.1H46c-3.2 0-5.8-2.1-6.6-5.1-2.5 1.2-5.7.8-7.8-1.3l-3.5-3.5c-2.1-2.1-2.5-5.3-1.3-7.8-3-.8-5.1-3.5-5.1-6.6v-5c0-3.2 2.1-5.9 5.1-6.6-1.3-2.6-.8-5.7 1.3-7.9l3.5-3.5c2.1-2.1 5.2-2.6 7.8-1.3.8-3 3.5-5.1 6.6-5.1h5c3.2 0 5.9 2.1 6.6 5.1 2.5-1.3 5.7-.8 7.8 1.3l3.5 3.5c2.1 2.1 2.6 5.3 1.3 7.9 3 .8 5.1 3.5 5.1 6.6z" fill="#fff"/><path d="M68.6 35.2l-5.2-.7-.1-.3c-.3-1.1-.7-2.2-1.3-3.1l-.2-.3 2.9-3.8c.3-.3.2-.8-.1-1.1l-3.5-3.5c-.3-.3-.8-.3-1.1 0l-3.8 2.8-.2-.2c-1.1-.6-2.2-1-3.2-1.3l-.3-.1-.7-5.2c0-.4-.4-.8-.8-.8h-5c-.4 0-.8.3-.8.8l-.7 5.2-.3.1c-1.1.3-2.1.7-3.2 1.3l-.3.2-3.7-2.9c-.4-.3-.9-.2-1.2 0l-3.5 3.5c-.3.3-.3.8-.1 1.1l2.9 3.8-.1.4c-.5.9-1 2-1.3 3.2l-.1.3-5.1.7c-.4 0-.8.4-.8.8V41c0 .4.3.8.8.8l5.2.7.1.3c.3 1.1.7 2.1 1.3 3.2l.2.3-3 3.7c-.3.3-.3.8 0 1.1l3.5 3.5c.3.3.8.3 1.1 0l3.8-2.9.3.1c1 .6 2.1 1 3.2 1.3l.3.1.7 5.1c0 .4.4.8.8.8h5c.4 0 .8-.3.8-.8l.7-5.2.3-.1c1-.3 2.1-.7 3.2-1.3l.3-.1 3.8 2.9c.4.3.8.2 1.2 0l3.5-3.5c.3-.3.3-.8.1-1.1L62 46.1l.2-.3c.6-1 1-2.1 1.3-3.2l.1-.3 5.2-.7c.4 0 .8-.4.8-.8V36c-.3-.4-.6-.8-1-.8zM48.5 47.1c-4.8 0-8.6-3.9-8.6-8.6s3.9-8.6 8.6-8.6 8.6 3.9 8.6 8.6-3.9 8.6-8.6 8.6z" fill="#f9a737"/><path d="M68.7 34.2l-4.5-.6c-.3-1-.7-1.9-1.2-2.8l2.5-3.3c.6-.7.5-1.8-.1-2.5l-3.5-3.5c-.7-.7-1.7-.7-2.5-.1l-3.3 2.5c-.9-.5-1.9-.9-2.8-1.1l-.6-4.5c-.1-1-.9-1.7-1.8-1.7H46c-.9 0-1.7.7-1.8 1.6l-.6 4.5c-1 .3-1.9.7-2.8 1.2l-3.3-2.5c-.7-.6-1.8-.5-2.5.1L31.5 25c-.7.7-.7 1.7-.2 2.5l2.5 3.3c-.5.8-.9 1.8-1.2 2.8l-4.5.6c-1 .1-1.7.9-1.7 1.8v5c0 1 .7 1.7 1.7 1.8l4.5.6c.3.9.7 1.9 1.2 2.8l-2.5 3.3c-.6.7-.5 1.8.1 2.5l3.5 3.5c.7.7 1.7.7 2.5.1l3.3-2.5c.9.5 1.8.9 2.8 1.2l.6 4.5c.1.9.9 1.7 1.8 1.7H51c1 0 1.7-.7 1.8-1.7l.6-4.5c.9-.3 1.9-.7 2.8-1.2l3.3 2.5c.7.6 1.8.5 2.5-.1l3.5-3.5c.7-.7.7-1.7.1-2.5L63 46.1c.5-.9.9-1.8 1.2-2.8l4.5-.6c1-.1 1.7-.9 1.7-1.8V36c-.1-.9-.8-1.7-1.7-1.8zm.6 6.8c0 .4-.3.8-.8.8l-5.2.7-.1.3c-.3 1.1-.7 2.1-1.3 3.2l-.2.3 2.9 3.8c.3.3.2.8-.1 1.1L61 54.7c-.3.3-.8.3-1.2 0L56 51.8v.2c-1 .6-2.1 1-3.2 1.3l-.3.1-.7 5.2c0 .4-.4.8-.8.8h-5c-.4 0-.8-.3-.8-.8l-.7-5.1-.3-.1c-1.1-.3-2.1-.7-3.2-1.3l-.3-.1-3.7 2.7c-.3.3-.8.2-1.1 0l-3.5-3.5c-.3-.3-.3-.8 0-1.1l2.9-3.8-.3-.4c-.6-1-1-2.1-1.3-3.2l-.1-.3-5.2-.7c-.4 0-.8-.4-.8-.8V36c0-.4.3-.8.8-.8l5.1-.7.1-.3c.3-1.2.8-2.2 1.3-3.2l.2-.3-2.9-3.8c-.3-.3-.2-.8.1-1.1l3.5-3.5c.3-.3.8-.3 1.2 0l3.8 2.9.2-.2c1-.6 2.1-1 3.2-1.3l.3-.1.7-5.2c0-.4.4-.8.8-.8h5c.4 0 .8.3.8.8l.7 5.2.3.1c1 .3 2.1.7 3.2 1.3l.3.1 3.8-2.8c.3-.3.8-.2 1.1 0l3.5 3.5c.3.3.3.8.1 1.1l-2.9 3.8.2.3c.5.9 1 2 1.3 3.2l.1.3 5.1.7c.4 0 .8.4.8.8v5z" fill="#966020"/><path d="M48.5 29.9c-4.8 0-8.6 3.9-8.6 8.6s3.9 8.6 8.6 8.6 8.6-3.9 8.6-8.6-3.9-8.6-8.6-8.6zm0 16.2c-4.2 0-7.6-3.4-7.6-7.6 0-4.2 3.4-7.6 7.6-7.6s7.6 3.4 7.6 7.6c0 4.2-3.4 7.6-7.6 7.6z" fill="#966020"/></svg>