<svg xmlns="http://www.w3.org/2000/svg" width="97" height="77" viewBox="0 0 97 77"><path d="M75.5 29.1l1.9 4.5c1.2 2.9.3 6.2-2.2 8.1 2.1 1.9 2.9 5 1.8 7.7L75.1 54c-1.1 2.8-3.9 4.4-6.8 4.2.4 3-1.2 6.1-4.2 7.3l-4.5 1.9c-2.9 1.2-6.2.3-8.1-2.2-1.9 2.1-5 2.9-7.7 1.8l-4.6-1.9c-2.7-1.2-4.4-3.9-4.2-6.7-3 .4-6-1.2-7.3-4.2l-1.9-4.5c-1.2-2.9-.3-6.2 2.2-8.1-2.2-1.9-2.9-5-1.8-7.8l1.9-4.5c1.1-2.7 3.9-4.4 6.7-4.2-.4-3 1.2-6 4.2-7.3l4.5-1.9c2.9-1.2 6.2-.3 8.1 2.2 1.9-2.1 5-2.9 7.7-1.8l4.6 1.9c2.8 1.2 4.4 3.9 4.2 6.8 3.2-.5 6.2 1.2 7.4 4.1z" opacity=".2" fill="#231f20"/><path d="M72.4 26l1.9 4.5c1.2 2.9.3 6.2-2.2 8.1 2.1 1.9 2.9 5 1.8 7.7L72 50.9c-1.1 2.8-3.9 4.4-6.8 4.2.4 3-1.2 6.1-4.2 7.3l-4.5 1.9c-2.9 1.2-6.2.3-8.1-2.2-1.9 2.1-5 2.9-7.7 1.8L36.1 62c-2.7-1.2-4.4-3.9-4.2-6.7-3 .4-6-1.2-7.3-4.2l-1.9-4.5c-1.2-2.9-.3-6.2 2.2-8.1-2.2-1.9-2.9-5-1.8-7.8l1.9-4.5c1.1-2.7 3.9-4.4 6.7-4.2-.4-3 1.2-6 4.2-7.3l4.5-1.9c2.9-1.2 6.2-.3 8.1 2.2 1.9-2.1 5-2.9 7.7-1.8l4.6 1.9c2.8 1.2 4.4 3.9 4.2 6.8 3.1-.5 6.1 1.1 7.4 4.1z" fill="#fff"/><path d="M65.8 27.8l-5 1.4-.2-.3c-.7-.9-1.6-1.8-2.4-2.4l-.3-.2 1.2-4.6c.1-.4-.1-.9-.5-1l-4.6-2c-.4-.1-.9 0-1.1.4l-2.4 4.1h-.3c-1.2-.1-2.4-.1-3.5 0h-.3l-2.6-4.5c-.2-.4-.7-.6-1.1-.4l-4.5 1.9c-.4.2-.6.6-.5 1l1.4 5-.3.2c-.9.7-1.7 1.5-2.4 2.4l-.2.3-4.6-1.2c-.4-.1-.9.1-1 .5l-1.9 4.5c-.2.4 0 .9.4 1.1l4.1 2.4v.3c-.1 1.1-.1 2.2 0 3.4v.3L28.7 43c-.4.2-.6.7-.4 1.1l1.9 4.5c.2.4.6.6 1 .5l5-1.4.2.3c.7.9 1.5 1.7 2.4 2.4l.3.2-1.2 4.6c-.1.4.1.9.5 1l4.6 1.9c.4.2.9 0 1.1-.4l2.4-4.1h.3c1.2.1 2.3.1 3.4 0h.3l2.6 4.5c.2.4.7.6 1.1.4l4.5-1.9c.4-.2.6-.6.5-1l-1.4-5 .3-.2c.9-.7 1.7-1.5 2.4-2.4l.2-.2 4.6 1.2c.4.1.9-.1 1-.5l1.9-4.5c.2-.4 0-.9-.4-1.1l-4.1-2.4v-.3c.1-1.2.1-2.3 0-3.4v-.3l4.5-2.6c.4-.2.6-.7.4-1.1l-1.9-4.5c-.1-.4-.5-.7-.9-.5zm-14 18.7c-4.4 1.8-9.4-.3-11.3-4.7s.3-9.4 4.7-11.2c4.4-1.8 9.4.3 11.3 4.7s-.3 9.3-4.7 11.2z" fill="#f9a737"/><path d="M65.5 26.8L61.1 28c-.7-.8-1.4-1.5-2.1-2.1l1-4c.3-.9-.2-1.9-1.1-2.2l-4.5-1.9c-.9-.4-1.9 0-2.3.8L50 22.1c-1.1-.1-2.1-.1-3 0l-2.2-3.9c-.5-.8-1.5-1.2-2.3-.8L38 19.3c-.9.4-1.3 1.3-1.1 2.2l1.2 4.4c-.8.6-1.5 1.3-2.1 2.1l-4-1c-1-.3-2 .2-2.3 1l-1.9 4.5c-.4.9 0 1.9.8 2.3l3.5 2.1c-.1 1-.1 2 0 3l-3.9 2.2c-.8.5-1.2 1.5-.8 2.3l1.9 4.5c.4.9 1.3 1.3 2.2 1.1l4.4-1.2c.6.8 1.3 1.5 2.1 2.1l-1 4c-.3 1.1.2 2.1 1 2.4l4.6 1.9c.9.3 1.9 0 2.3-.8l2.1-3.6c1 .1 2 .1 3 0l2.2 3.9c.5.8 1.5 1.2 2.3.8l4.5-1.9c.9-.4 1.3-1.3 1.1-2.2L59 51.1c.8-.6 1.5-1.3 2.1-2.1l4 1c.9.3 1.9-.2 2.2-1.1l1.9-4.5c.3-.9 0-1.9-.8-2.3L64.9 40c.1-1 .1-2 0-3l3.9-2.2c.8-.5 1.2-1.5.8-2.3L67.7 28c-.3-1-1.3-1.5-2.2-1.2zm3.2 6c.2.4 0 .9-.4 1.1l-4.5 2.6v.3c.1 1.1.1 2.3 0 3.4v.3l4.1 2.4c.4.2.5.7.4 1.1l-1.9 4.5c-.2.4-.6.6-1 .5l-4.6-1.2-.2.2c-.7.9-1.6 1.8-2.4 2.4l-.3.2 1.4 5c.1.4-.1.9-.5 1l-4.5 1.9c-.4.2-.9 0-1.1-.4l-2.6-4.5h-.3c-1.1.1-2.2.1-3.4 0h-.3L44 57.9c-.2.4-.7.5-1.1.4l-4.6-1.9c-.4-.2-.6-.6-.5-1l1.2-4.6-.3-.2c-.9-.7-1.7-1.5-2.4-2.4l-.2-.3-5 1.4c-.4.1-.9-.1-1-.5l-1.9-4.5c-.2-.4 0-.9.4-1.1l4.5-2.6v-.3c-.1-1.2-.1-2.4 0-3.4v-.3l-4-2.6c-.4-.2-.5-.7-.4-1.1l1.9-4.5c.2-.4.6-.6 1-.5l4.6 1.2.2-.3c.7-.9 1.5-1.7 2.4-2.4l.3-.2-1.4-5c-.1-.4.1-.9.5-1l4.5-1.9c.4-.2.9 0 1.1.4l2.6 4.5h.3c1.1-.1 2.2-.1 3.5 0h.3l2.4-4.1c.2-.4.7-.5 1.1-.4l4.5 1.9c.4.2.6.6.5 1l-1.2 4.6.3.2c.9.7 1.7 1.5 2.4 2.4l.2.3 5-1.3c.4-.1.9.1 1 .5l2 4.5z" fill="#966020"/><path d="M45.2 30.5c-4.4 1.8-6.5 6.9-4.7 11.2s6.9 6.5 11.3 4.7c4.4-1.8 6.5-6.9 4.7-11.3s-6.9-6.4-11.3-4.6zm6.2 15c-3.9 1.6-8.3-.2-9.9-4.1-1.6-3.9.2-8.3 4.1-9.9 3.9-1.6 8.3.2 10 4.1 1.5 3.9-.3 8.3-4.2 9.9z" fill="#966020"/></svg>