<svg xmlns="http://www.w3.org/2000/svg" width="97" height="77" viewBox="0 0 97 77"><path opacity=".2" d="M36.717 43.795l.706.104c.264-1.475.714-3.24 1.521-5.016l-11.488-1.716 1.373-6.396c1.224-5.707 3.983-10.435 7.981-13.67 3.324-2.747 9.292-5.774 18.582-4.386 4.754.709 8.795 2.276 12.008 4.648 5.449 4.029 8.373 10.458 7.824 17.199l-.017.205-.029.205c-1.565 10.473-8.53 12.833-12.694 14.24-.323.111-.653.224-.983.34L58.145 72l-25.08-3.751 3.652-24.454z"/><path fill="#FFF" d="M31.974 39.662l.706.104c.264-1.476.713-3.241 1.52-5.016l-11.487-1.716 1.373-6.396c1.224-5.707 3.983-10.435 7.981-13.67 3.324-2.747 9.292-5.774 18.582-4.386 4.754.709 8.795 2.276 12.011 4.648 5.446 4.03 8.37 10.458 7.821 17.2l-.017.205-.028.205c-1.563 10.473-8.531 12.832-12.692 14.24-.326.111-.656.223-.986.34L53.4 67.867l-25.08-3.75 3.654-24.455z"/><path fill="#28A5DA" d="M30.092 27.927c.833-3.879 2.66-7.608 5.84-10.185 3.192-2.638 7.716-3.996 13.806-3.082 12.121 1.811 15.074 9.685 14.619 15.272-1.145 7.645-5.682 8.238-10.114 9.862-3.029 1.138-3.89 2.216-4.317 5.074L38.427 43.15c.259-2.567.802-8.333 5.985-10.291 2.085-.769 6.088-1.188 6.508-3.983.307-2.053-.831-3.365-3.133-3.711-2.982-.445-4.544 1.928-4.704 4.698l-12.991-1.936zm7.661 19.207l11.431 1.785-1.555 11.965-11.67-1.823 1.794-11.927z"/></svg>