<?xml version="1.0" encoding="utf-8"?>
<!-- Generator: Adobe Illustrator 15.0.0, SVG Export Plug-In . SVG Version: 6.00 Build 0)  -->
<!DOCTYPE svg PUBLIC "-//W3C//DTD SVG 1.1//EN" "http://www.w3.org/Graphics/SVG/1.1/DTD/svg11.dtd">
<svg version="1.1" id="Layer_1" xmlns="http://www.w3.org/2000/svg" xmlns:xlink="http://www.w3.org/1999/xlink" x="0px" y="0px"
	 width="97px" height="77px" viewBox="0 0 97 77" enable-background="new 0 0 97 77" xml:space="preserve">
<g id="Calque_2" display="none">
</g>
<g id="Extra">
</g>
<g id="Off_3_">
	<g id="Off_1_">
		<path opacity="0.2" enable-background="new    " d="M36.717,43.795l0.706,0.104c0.264-1.475,0.714-3.24,1.521-5.016l-11.488-1.716
			l1.373-6.396c1.224-5.707,3.983-10.435,7.981-13.67c3.324-2.747,9.292-5.774,18.582-4.386c4.754,0.709,8.795,2.276,12.008,4.648
			c5.449,4.029,8.373,10.458,7.824,17.199l-0.017,0.205l-0.029,0.205c-1.565,10.473-8.53,12.833-12.694,14.24
			c-0.323,0.111-0.653,0.224-0.983,0.34L58.145,72l-25.08-3.751L36.717,43.795z"/>
		<path fill="#FFFFFF" d="M31.974,39.662l0.706,0.104c0.264-1.476,0.713-3.241,1.52-5.016l-11.487-1.716l1.373-6.396
			c1.224-5.707,3.983-10.435,7.981-13.67c3.324-2.747,9.292-5.774,18.582-4.386c4.754,0.709,8.795,2.276,12.011,4.648
			c5.446,4.03,8.37,10.458,7.821,17.2l-0.017,0.205l-0.028,0.205c-1.563,10.473-8.531,12.832-12.692,14.24
			c-0.326,0.111-0.656,0.223-0.986,0.34L53.4,67.867l-25.08-3.75L31.974,39.662z"/>
		<path fill="#28A5DA" d="M30.092,27.927c0.833-3.879,2.66-7.608,5.84-10.185c3.192-2.638,7.716-3.996,13.806-3.082
			c12.121,1.811,15.074,9.685,14.619,15.272c-1.145,7.645-5.682,8.238-10.114,9.862c-3.029,1.138-3.89,2.216-4.317,5.074
			L38.427,43.15c0.259-2.567,0.802-8.333,5.985-10.291c2.085-0.769,6.088-1.188,6.508-3.983c0.307-2.053-0.831-3.365-3.133-3.711
			c-2.982-0.445-4.544,1.928-4.704,4.698L30.092,27.927z M37.753,47.134l11.431,1.785l-1.555,11.965l-11.67-1.823L37.753,47.134z"/>
	</g>
</g>
<g id="On_3_" display="none">
	<g id="On_1_" display="inline">
		<path opacity="0.2" enable-background="new    " d="M47.717,63.677l0.706,0.104c0.264-1.475,0.714-3.241,1.521-5.016L38.455,57.05
			l1.373-6.396c1.224-5.707,3.983-10.436,7.981-13.67c3.324-2.747,9.292-5.774,18.582-4.386c4.754,0.709,8.795,2.276,12.008,4.648
			c5.449,4.029,8.373,10.458,7.824,17.199l-0.017,0.205l-0.029,0.205c-1.565,10.474-8.53,12.832-12.694,14.239
			c-0.323,0.111-0.653,0.224-0.983,0.341l-3.354,22.445l-25.08-3.751L47.717,63.677z"/>
		<path fill="#FFFFFF" d="M42.974,59.544l0.706,0.104c0.264-1.477,0.713-3.241,1.52-5.017l-11.487-1.716l1.373-6.396
			c1.224-5.707,3.983-10.435,7.981-13.669c3.324-2.747,9.292-5.774,18.582-4.386c4.754,0.709,8.795,2.276,12.011,4.648
			c5.446,4.03,8.37,10.458,7.821,17.201l-0.017,0.205l-0.028,0.205c-1.563,10.473-8.531,12.832-12.692,14.239
			c-0.326,0.111-0.656,0.224-0.986,0.34L64.398,87.75L39.32,84L42.974,59.544z"/>
		<path fill="#28A5DA" d="M41.092,47.809c0.833-3.879,2.66-7.607,5.84-10.185c3.192-2.638,7.716-3.996,13.806-3.082
			c12.121,1.811,15.074,9.685,14.619,15.272c-1.145,7.645-5.682,8.237-10.114,9.861c-3.029,1.139-3.89,2.217-4.317,5.074
			l-11.499-1.718c0.259-2.567,0.802-8.333,5.985-10.29c2.085-0.77,6.088-1.188,6.508-3.983c0.307-2.053-0.831-3.364-3.133-3.711
			c-2.982-0.444-4.544,1.929-4.704,4.698L41.092,47.809z M48.753,67.016l11.431,1.785l-1.555,11.965l-11.67-1.824L48.753,67.016z"/>
	</g>
</g>
<g id="Calque_1" display="none">
</g>
</svg>
