<svg xmlns="http://www.w3.org/2000/svg" width="97" height="77" viewBox="0 0 97 77"><path opacity=".2" d="M82.544 37.967l-4.799-15.56C76.604 18.695 72.934 16 69.021 16h-21.47c-.516-2.738-2.771-4-4.89-4h-8c-2.152 0-4.446 1.308-4.91 4.144-3.302.595-6.188 3.034-7.172 6.237l-4.801 15.625c-.744 2.424-.338 4.939 1.115 6.909a7.53 7.53 0 0 0 3.768 2.702v17.361c0 4.498 3.796 8.021 8.642 8.021H69.02c4.848 0 8.644-3.521 8.644-8.021V47.611a7.527 7.527 0 0 0 3.761-2.706c1.46-1.977 1.868-4.507 1.119-6.938z"/><path fill="#FFF" d="M78.216 34.392l-4.799-15.56c-1.142-3.713-4.812-6.408-8.724-6.408H43.225c-.517-2.738-2.772-4-4.891-4h-8c-2.152 0-4.446 1.308-4.91 4.144-3.302.595-6.188 3.034-7.172 6.237L13.451 34.43c-.744 2.423-.338 4.941 1.115 6.909a7.525 7.525 0 0 0 3.768 2.702v17.361c0 4.498 3.796 8.021 8.642 8.021h37.717c4.846 0 8.642-3.521 8.642-8.021V44.037a7.544 7.544 0 0 0 3.761-2.707c1.461-1.976 1.869-4.507 1.12-6.938z"/><path fill="#966020" d="M70.852 38.424c1.271 0 2.006-1.051 1.631-2.265l-4.801-15.564c-.373-1.213-1.718-2.171-2.986-2.171H26.977c-1.271 0-2.615.929-2.988 2.144l-4.801 15.625c-.373 1.213.36 2.231 1.631 2.231h3.517V61.4c0 1.271 1.371 2.021 2.642 2.021h37.717c1.271 0 2.642-.753 2.642-2.021V40.618v-2.194h3.515z"/><path fill="#966020" d="M30.335 18.424h30v1h-30z"/><path fill="#966020" d="M28.335 27.424V13.637c0-1.998 1.398-2.213 2-2.213h8c.603 0 2 .216 2 2.213v13.787h-12z"/><path fill="#F9A737" d="M39.335 13.637c0-.402 0-1.213-1-1.213h-8c-1 0-1 .812-1 1.213v12.788h10V13.637z"/><path fill="#F9A737" d="M26.977 62.424c-.776 0-1.642-.42-1.642-1.021V37.424h-4.517c-.283 0-.504-.087-.621-.246-.121-.165-.141-.411-.054-.692l4.801-15.625c.239-.778 1.17-1.437 2.032-1.437h37.717c.844 0 1.793.685 2.031 1.465l4.801 15.565c.091.289.065.544-.062.719-.12.162-.338.251-.611.251h-4.519v23.979c0 .604-.862 1.021-1.642 1.021H26.977z"/><path fill="#966020" d="M52.378 51.01c0-3.607-2.937-6.543-6.543-6.543s-6.543 2.936-6.543 6.543c0 .246.017.488.043.729v11.688h13V51.736c.026-.238.043-.48.043-.726z"/><path fill="#FFF" d="M40.335 62.424v-10.74l-.006-.056a5.744 5.744 0 0 1-.037-.618c0-3.057 2.485-5.543 5.543-5.543s5.543 2.486 5.543 5.543c0 .209-.015.415-.037.618l-.006.108v10.688h-11z"/></svg>