<?xml version="1.0" encoding="utf-8"?>
<!-- Generator: Adobe Illustrator 15.0.0, SVG Export Plug-In . SVG Version: 6.00 Build 0)  -->
<!DOCTYPE svg PUBLIC "-//W3C//DTD SVG 1.1//EN" "http://www.w3.org/Graphics/SVG/1.1/DTD/svg11.dtd">
<svg version="1.1" id="Layer_1" xmlns="http://www.w3.org/2000/svg" xmlns:xlink="http://www.w3.org/1999/xlink" x="0px" y="0px"
	 width="97px" height="77px" viewBox="0 0 97 77" enable-background="new 0 0 97 77" xml:space="preserve">
<g id="Calque_2" display="none">
</g>
<g id="Extra">
</g>
<g id="Off_3_">
	<g id="Off">
		<path opacity="0.2" enable-background="new    " d="M82.544,37.967l-4.799-15.56C76.604,18.695,72.934,16,69.021,16H47.551
			c-0.516-2.738-2.771-4-4.89-4h-8c-2.152,0-4.446,1.308-4.91,4.144c-3.302,0.595-6.188,3.034-7.172,6.237l-4.801,15.625
			c-0.744,2.424-0.338,4.939,1.115,6.909c0.953,1.29,2.264,2.217,3.768,2.702v17.361c0,4.498,3.796,8.021,8.642,8.021H69.02
			c4.848,0,8.644-3.521,8.644-8.021V47.611c1.499-0.484,2.81-1.416,3.761-2.706C82.885,42.928,83.293,40.398,82.544,37.967z"/>
		<path fill="#FFFFFF" d="M78.216,34.392l-4.799-15.56c-1.142-3.713-4.812-6.408-8.724-6.408H43.225c-0.517-2.738-2.772-4-4.891-4
			h-8c-2.152,0-4.446,1.308-4.91,4.144c-3.302,0.595-6.188,3.034-7.172,6.237L13.451,34.43c-0.744,2.423-0.338,4.941,1.115,6.909
			c0.953,1.29,2.264,2.218,3.768,2.702v17.361c0,4.498,3.796,8.021,8.642,8.021h37.717c4.846,0,8.642-3.521,8.642-8.021V44.037
			c1.499-0.486,2.808-1.416,3.761-2.707C78.557,39.354,78.965,36.823,78.216,34.392z"/>
		<path fill="#966020" d="M70.852,38.424c1.271,0,2.006-1.051,1.631-2.265l-4.801-15.564c-0.373-1.213-1.718-2.171-2.986-2.171
			H42.372H30.826h-3.849c-1.271,0-2.615,0.929-2.988,2.144l-4.801,15.625c-0.373,1.213,0.36,2.231,1.631,2.231h3.517
			c0,0,0,0.924,0,2.194V61.4c0,1.271,1.371,2.021,2.642,2.021h37.717c1.271,0,2.642-0.753,2.642-2.021V40.618
			c0-1.271,0-2.194,0-2.194H70.852z"/>
		<rect x="30.335" y="18.424" fill="#966020" width="30" height="1"/>
		<path fill="#966020" d="M30.826,18.295"/>
		<path fill="#966020" d="M28.335,27.424V13.637c0-1.998,1.398-2.213,2-2.213h8c0.603,0,2,0.216,2,2.213v13.787H28.335z"/>
		<path fill="#F9A737" d="M39.335,13.637c0-0.402,0-1.213-1-1.213h-8c-1,0-1,0.812-1,1.213v12.396c0,0.402,0,0.392,0,0.392h10
			c0,0,0,0.011,0-0.392V13.637z"/>
		<path fill="#F9A737" d="M26.977,62.424c-0.776,0-1.642-0.42-1.642-1.021V37.424h-4.517c-0.283,0-0.504-0.087-0.621-0.246
			c-0.121-0.165-0.141-0.411-0.054-0.692l4.801-15.625c0.239-0.778,1.17-1.437,2.032-1.437h37.717c0.844,0,1.793,0.685,2.031,1.465
			l4.801,15.565c0.091,0.289,0.065,0.544-0.062,0.719c-0.12,0.162-0.338,0.251-0.611,0.251h-4.519v23.979
			c0,0.604-0.862,1.021-1.642,1.021H26.977L26.977,62.424z"/>
		<path fill="#966020" d="M52.378,51.01c0-3.607-2.937-6.543-6.543-6.543s-6.543,2.936-6.543,6.543c0,0.246,0.017,0.488,0.043,0.729
			v11.688h13V51.736C52.361,51.498,52.378,51.256,52.378,51.01z"/>
		<path fill="#FFFFFF" d="M40.335,62.424v-10.74l-0.006-0.056c-0.022-0.204-0.037-0.409-0.037-0.618
			c0-3.057,2.485-5.543,5.543-5.543s5.543,2.486,5.543,5.543c0,0.209-0.015,0.415-0.037,0.618l-0.006,0.108v10.688H40.335
			L40.335,62.424z"/>
	</g>
</g>
<g id="On_3_" display="none">
	<g id="On" display="inline">
		<path opacity="0.2" enable-background="new    " d="M94.504,56.967l-4.799-15.559C88.564,37.695,84.895,35,80.982,35H59.514
			c-0.517-2.738-2.772-4-4.891-4h-8c-2.152,0-4.446,1.308-4.91,4.144c-3.302,0.595-6.188,3.034-7.172,6.237L29.74,57.006
			c-0.744,2.424-0.338,4.941,1.115,6.909c0.953,1.29,2.264,2.217,3.768,2.702v17.361c0,4.5,3.796,8.021,8.642,8.021h37.717
			c4.846,0,8.642-3.522,8.642-8.021V66.613c1.499-0.486,2.808-1.416,3.761-2.706C94.846,61.928,95.253,59.398,94.504,56.967z"/>
		<path fill="#FFFFFF" d="M90.257,53.967l-4.799-15.559C84.316,34.695,80.646,32,76.734,32H55.266c-0.517-2.738-2.772-4-4.891-4h-8
			c-2.152,0-4.446,1.308-4.91,4.144c-3.302,0.595-6.188,3.034-7.172,6.237l-4.801,15.625c-0.744,2.424-0.338,4.941,1.115,6.909
			c0.953,1.29,2.264,2.217,3.768,2.702v17.361c0,4.5,3.796,8.021,8.642,8.021h37.717c4.846,0,8.642-3.522,8.642-8.021V63.613
			c1.499-0.486,2.808-1.416,3.761-2.706C90.598,58.928,91.006,56.398,90.257,53.967z"/>
		<path fill="#966020" d="M82.893,58c1.271,0,2.006-1.051,1.631-2.266l-4.801-15.563C79.35,38.958,78.005,38,76.734,38H54.412
			H42.866h-3.849c-1.271,0-2.615,0.929-2.988,2.143l-4.801,15.625C30.855,56.98,31.589,58,32.859,58h3.517c0,0,0,0.924,0,2.193
			v20.783c0,1.271,1.371,2.021,2.642,2.021h37.718c1.27,0,2.641-0.753,2.641-2.021V60.193c0-1.271,0-2.193,0-2.193H82.893z"/>
		<rect x="42.376" y="38" fill="#966020" width="30" height="1"/>
		<path fill="#966020" d="M40.376,47V33.213c0-1.998,1.398-2.213,2-2.213h8c0.603,0,2,0.216,2,2.213V47H40.376z"/>
		<path fill="#F9A737" d="M51.376,33.213c0-0.402,0-1.213-1-1.213h-8c-1,0-1,0.812-1,1.213v12.395c0,0.402,0,0.394,0,0.394h10
			c0,0,0,0.011,0-0.394V33.213z"/>
		<path fill="#F9A737" d="M39.018,82c-0.776,0-1.642-0.42-1.642-1.021V57h-4.517c-0.283,0-0.504-0.087-0.621-0.246
			c-0.121-0.165-0.141-0.411-0.054-0.691l4.801-15.625c0.24-0.778,1.17-1.438,2.033-1.438h37.718c0.843,0,1.791,0.686,2.031,1.465
			l4.801,15.565c0.09,0.288,0.064,0.544-0.062,0.719C83.387,56.911,83.168,57,82.893,57h-4.517v23.979
			c0,0.604-0.864,1.021-1.642,1.021H39.018z"/>
		<path fill="#F9A737" d="M39.018,82c-0.776,0-1.642-0.42-1.642-1.021V57h-4.517c-0.283,0-0.504-0.087-0.621-0.246
			c-0.121-0.165-0.141-0.411-0.054-0.691l4.801-15.625c0.24-0.778,1.17-1.438,2.033-1.438h37.718c0.843,0,1.791,0.686,2.031,1.465
			l4.801,15.565c0.09,0.288,0.064,0.544-0.062,0.719C83.387,56.911,83.168,57,82.893,57h-4.517v23.979
			c0,0.604-0.864,1.021-1.642,1.021H39.018z"/>
		<path fill="#966020" d="M64.419,70.586c0-3.607-2.937-6.543-6.543-6.543s-6.543,2.936-6.543,6.543
			c0,0.246,0.017,0.488,0.043,0.729V83h13V71.312C64.402,71.074,64.419,70.832,64.419,70.586z"/>
		<path fill="#FFFFFF" d="M52.376,82V71.259l-0.006-0.055c-0.022-0.204-0.037-0.409-0.037-0.618c0-3.057,2.485-5.543,5.543-5.543
			s5.543,2.486,5.543,5.543c0,0.209-0.015,0.415-0.037,0.618l-0.006,0.108V82H52.376z"/>
	</g>
</g>
<g id="Calque_1" display="none">
</g>
</svg>
