<svg xmlns="http://www.w3.org/2000/svg" width="64" height="64" viewBox="0 0 64 64"><path fill="#AFACA0" d="M6.868 14H60v40H6.868z"/><path fill="#33A6D3" d="M7.952 15h50.964v38H7.952z"/><path fill="#289CBF" d="M18.7 22.149h29.601V44.35H18.7z"/><path fill="#FFF" d="M19.7 23.185h27.601v20.131H19.7z"/><path fill="#289CBF" d="M49 21h9v6h-9z"/><path fill="#FFF" d="M50 22h7v4h-7z"/><path fill="#289CBF" d="M49 27h9v6h-9z"/><path fill="#FFF" d="M50 28h7v4h-7z"/><g><path fill="#289CBF" d="M49 33h9v6h-9z"/><path fill="#FFF" d="M50 34h7v4h-7z"/></g><g><path fill="#289CBF" d="M49 39h9v6h-9z"/><path fill="#FFF" d="M50 40h7v4h-7z"/></g><g><path fill="#289CBF" d="M9 41h9v4H9z"/><path fill="#FFF" d="M10 42h7v2h-7z"/><path fill="#289CBF" d="M9 41h9v4H9z"/><path fill="#FFF" d="M10 42h7v2h-7z"/><path fill="#289CBF" d="M9 26h9v4H9z"/><path fill="#FFF" d="M10 27h7v2h-7z"/><g><path fill="#289CBF" d="M9 31h9v4H9z"/><path fill="#FFF" d="M10 32h7v2h-7z"/></g><g><path fill="#289CBF" d="M9 36h9v4H9z"/><path fill="#FFF" d="M10 37h7v2h-7z"/></g><g><path fill="#289CBF" d="M9 21h9v4H9z"/><path fill="#FFF" d="M10 22h7v2h-7z"/></g></g></svg>