<?xml version="1.0" encoding="utf-8"?>
<!-- Generator: Adobe Illustrator 15.0.0, SVG Export Plug-In . SVG Version: 6.00 Build 0)  -->
<!DOCTYPE svg PUBLIC "-//W3C//DTD SVG 1.1//EN" "http://www.w3.org/Graphics/SVG/1.1/DTD/svg11.dtd">
<svg version="1.1" id="Layer_1" xmlns="http://www.w3.org/2000/svg" xmlns:xlink="http://www.w3.org/1999/xlink" x="0px" y="0px"
	 width="64px" height="64px" viewBox="0 0 64 64" enable-background="new 0 0 64 64" xml:space="preserve">
<g id="Layer_2">
	<rect x="6.868" y="14" fill="#AFACA0" width="53.132" height="40"/>
	<rect x="7.952" y="15" fill="#F5A322" width="50.964" height="38"/>
	<g>
		<rect x="18.7" y="22.149" fill="#D38722" width="29.601" height="22.201"/>
		<rect x="19.7" y="23.185" fill="#FFFFFF" width="27.601" height="20.131"/>
	</g>
	<g>
		<g>
			<rect x="49" y="21" fill="#D38722" width="9" height="6"/>
			<rect x="50" y="22" fill="#FFFFFF" width="7" height="4"/>
		</g>
		<g>
			<rect x="49" y="27" fill="#D38722" width="9" height="6"/>
			<rect x="50" y="28" fill="#FFFFFF" width="7" height="4"/>
		</g>
		<g>
			<rect x="49" y="33" fill="#D38722" width="9" height="6"/>
			<rect x="50" y="34" fill="#FFFFFF" width="7" height="4"/>
		</g>
		<g>
			<rect x="49" y="39" fill="#D38722" width="9" height="6"/>
			<rect x="50" y="40" fill="#FFFFFF" width="7" height="4"/>
		</g>
	</g>
	<g>
		<g>
			<rect x="9" y="41" fill="#D38722" width="9" height="4"/>
			<rect x="10" y="42" fill="#FFFFFF" width="7" height="2"/>
		</g>
		<g>
			<rect x="9" y="41" fill="#D38722" width="9" height="4"/>
			<rect x="10" y="42" fill="#FFFFFF" width="7" height="2"/>
		</g>
		<g>
			<rect x="9" y="26" fill="#D38722" width="9" height="4"/>
			<rect x="10" y="27" fill="#FFFFFF" width="7" height="2"/>
		</g>
		<g>
			<rect x="9" y="31" fill="#D38722" width="9" height="4"/>
			<rect x="10" y="32" fill="#FFFFFF" width="7" height="2"/>
		</g>
		<g>
			<rect x="9" y="36" fill="#D38722" width="9" height="4"/>
			<rect x="10" y="37" fill="#FFFFFF" width="7" height="2"/>
		</g>
		<g>
			<rect x="9" y="21" fill="#D38722" width="9" height="4"/>
			<rect x="10" y="22" fill="#FFFFFF" width="7" height="2"/>
		</g>
	</g>
</g>
</svg>
