<svg xmlns="http://www.w3.org/2000/svg" width="300" height="150" viewBox="0 0 300 150"><radialGradient id="a" cx="-726.029" cy="1606.75" r="62.468" gradientTransform="translate(851.889 -1466.151) scale(.9616)" gradientUnits="userSpaceOnUse"><stop offset=".5"/><stop offset="1" stop-opacity="0"/></radialGradient><path fill="url(#a)" d="M153.741 138.969c-33.125 0-60.071-26.945-60.071-60.07 0-33.123 26.947-60.07 60.071-60.07 33.121 0 60.067 26.947 60.067 60.07 0 33.124-26.946 60.07-60.067 60.07z"/><path fill="#FFF" d="M145.539 134.568c-33.123 0-60.07-26.947-60.07-60.071 0-33.122 26.947-60.069 60.07-60.069s60.07 26.947 60.07 60.069c0 33.124-26.947 60.071-60.07 60.071zm0-104.755c-24.641 0-44.686 20.045-44.686 44.684 0 24.64 20.045 44.688 44.686 44.688 24.639 0 44.686-20.049 44.686-44.688-.001-24.639-20.046-44.684-44.686-44.684z"/><circle fill="#28A5DA" cx="145.539" cy="74.499" r="52.378"/><linearGradient id="b" gradientUnits="userSpaceOnUse" x1="-782.46" y1="1574.215" x2="-782.46" y2="1510.076" gradientTransform="translate(928 -1487.955)"><stop offset="0" stop-color="#fff" stop-opacity="0"/><stop offset="1" stop-color="#fff" stop-opacity=".65"/></linearGradient><path fill="url(#b)" d="M197.917 74.497c0 3.544-23.449 11.763-52.377 11.763s-52.379-9.481-52.379-11.763c0-28.927 23.45-52.376 52.379-52.376 28.926 0 52.377 23.449 52.377 52.376z"/><g><path opacity=".3" fill="#333" d="M134.831 108.146c-2.771 0-5.341-1.223-7.052-3.354-1.462-1.822-2.235-4.197-2.233-6.867l.044-41.526c.01-5.913 3.915-10.203 9.287-10.203 1.895 0 3.791.543 5.639 1.614l35.937 20.797c3.452 1.998 5.433 5.138 5.428 8.613-.003 3.477-1.989 6.613-5.448 8.604l-35.983 20.723c-1.843 1.062-3.732 1.599-5.619 1.599z"/><path fill="#FFF" d="M133.831 106.146c-2.771 0-5.341-1.223-7.052-3.354-1.462-1.822-2.235-4.197-2.233-6.867l.044-41.526c.01-5.913 3.915-10.203 9.287-10.203 1.895 0 3.791.543 5.639 1.614l35.937 20.797c3.452 1.998 5.433 5.138 5.428 8.613-.003 3.477-1.989 6.613-5.448 8.604l-35.983 20.723c-1.843 1.062-3.732 1.599-5.619 1.599z"/><path fill="#F9A737" d="M130.589 54.406c.006-3.753 2.668-5.287 5.918-3.404l35.938 20.799c3.248 1.879 3.246 4.951-.01 6.826l-35.981 20.727c-3.252 1.875-5.91.334-5.908-3.424l.043-41.524z"/></g></svg>