<?xml version="1.0" encoding="utf-8"?>
<!-- Generator: Adobe Illustrator 15.0.0, SVG Export Plug-In . SVG Version: 6.00 Build 0)  -->
<!DOCTYPE svg PUBLIC "-//W3C//DTD SVG 1.1//EN" "http://www.w3.org/Graphics/SVG/1.1/DTD/svg11.dtd">
<svg version="1.1" id="Layer_2" xmlns="http://www.w3.org/2000/svg" xmlns:xlink="http://www.w3.org/1999/xlink" x="0px" y="0px"
	 width="300px" height="150px" viewBox="0 0 300 150" enable-background="new 0 0 300 150" xml:space="preserve">
<g>
	<g>
		<g enable-background="new    ">

				<radialGradient id="SVGID_1_" cx="-726.0293" cy="1606.75" r="62.4685" gradientTransform="matrix(0.9616 0 0 0.9616 851.889 -1466.1511)" gradientUnits="userSpaceOnUse">
				<stop  offset="0.5" style="stop-color:#000000"/>
				<stop  offset="1" style="stop-color:#000000;stop-opacity:0"/>
			</radialGradient>
			<path fill="url(#SVGID_1_)" d="M153.741,138.969c-33.125,0-60.071-26.945-60.071-60.07c0-33.123,26.947-60.07,60.071-60.07
				c33.121,0,60.067,26.947,60.067,60.07C213.808,112.023,186.862,138.969,153.741,138.969z"/>
		</g>
		<path fill="#FFFFFF" d="M145.539,134.568c-33.123,0-60.07-26.947-60.07-60.071c0-33.122,26.947-60.069,60.07-60.069
			s60.07,26.947,60.07,60.069C205.609,107.621,178.662,134.568,145.539,134.568z M145.539,29.813
			c-24.641,0-44.686,20.045-44.686,44.684c0,24.64,20.045,44.688,44.686,44.688c24.639,0,44.686-20.049,44.686-44.688
			C190.224,49.858,170.179,29.813,145.539,29.813z"/>
		<circle fill="#28A5DA" cx="145.539" cy="74.499" r="52.378"/>

			<linearGradient id="SVGID_2_" gradientUnits="userSpaceOnUse" x1="-782.46" y1="1574.2148" x2="-782.46" y2="1510.0762" gradientTransform="matrix(1 0 0 1 928 -1487.9551)">
			<stop  offset="0" style="stop-color:#FFFFFF;stop-opacity:0"/>
			<stop  offset="1" style="stop-color:#FFFFFF;stop-opacity:0.65"/>
		</linearGradient>
		<path fill="url(#SVGID_2_)" d="M197.917,74.497c0,3.544-23.449,11.763-52.377,11.763s-52.379-9.481-52.379-11.763
			c0-28.927,23.45-52.376,52.379-52.376C174.466,22.121,197.917,45.57,197.917,74.497z"/>
		<g>
			<path opacity="0.3" fill="#333333" enable-background="new    " d="M134.831,108.146c-2.771,0-5.341-1.223-7.052-3.354
				c-1.462-1.822-2.235-4.197-2.233-6.867l0.044-41.526c0.01-5.913,3.915-10.203,9.287-10.203c1.895,0,3.791,0.543,5.639,1.614
				l35.937,20.797c3.452,1.998,5.433,5.138,5.428,8.613c-0.003,3.477-1.989,6.613-5.448,8.604l-35.983,20.723
				C138.607,107.609,136.718,108.146,134.831,108.146z"/>
			<path fill="#FFFFFF" d="M133.831,106.146c-2.771,0-5.341-1.223-7.052-3.354c-1.462-1.822-2.235-4.197-2.233-6.867l0.044-41.526
				c0.01-5.913,3.915-10.203,9.287-10.203c1.895,0,3.791,0.543,5.639,1.614l35.937,20.797c3.452,1.998,5.433,5.138,5.428,8.613
				c-0.003,3.477-1.989,6.613-5.448,8.604l-35.983,20.723C137.607,105.609,135.718,106.146,133.831,106.146z"/>
			<path fill="#F9A737" d="M130.589,54.406c0.006-3.753,2.668-5.287,5.918-3.404l35.938,20.799c3.248,1.879,3.246,4.951-0.01,6.826
				l-35.981,20.727c-3.252,1.875-5.91,0.334-5.908-3.424L130.589,54.406z"/>
		</g>
	</g>
</g>
</svg>
