<?xml version="1.0" encoding="utf-8"?>
<!-- Generator: Adobe Illustrator 15.0.0, SVG Export Plug-In . SVG Version: 6.00 Build 0)  -->
<!DOCTYPE svg PUBLIC "-//W3C//DTD SVG 1.1//EN" "http://www.w3.org/Graphics/SVG/1.1/DTD/svg11.dtd">
<svg version="1.1" id="Layer_1" xmlns="http://www.w3.org/2000/svg" xmlns:xlink="http://www.w3.org/1999/xlink" x="0px" y="0px"
	 width="64px" height="64px" viewBox="0 0 64 64" enable-background="new 0 0 64 64" xml:space="preserve">
<g id="on">
	<g>
		<path fill="#F5A322" d="M19.207,52.986c0,0-7.522-3.387-8.17,2.839c-0.106,1.247,0.521,1.849,1.155,1.493
			C12.816,57.3,17.082,53.725,19.207,52.986z"/>
		<path fill="#F5A322" d="M19.635,50.555c0,0-5.138-13.546-13.67-6.619C-0.117,48.871,14.366,48.003,19.635,50.555z"/>
		<path fill="#A55435" d="M30.496,41.898c0,0-4.771,2.545-4.612,6.089c0.143,3.163-4.076,4.48-5.544,4.567
			c-1.467,0.086,13.059,5.586,16.635-6.656C32.67,39.742,30.496,41.898,30.496,41.898z"/>
		<line fill="none" x1="24.006" y1="55.104" x2="26.938" y2="54.466"/>
		<polygon fill="#CAD3D0" points="37.098,46.016 30.366,41.691 35.708,29.674 45.805,36.157 		"/>
		<path fill="#F5A322" d="M57.568,10.437l-0.039-0.025c0.427-1.08,0.048-2.346-0.967-2.997l-0.035-0.022
			c-1.016-0.65-2.32-0.469-3.125,0.369l-0.041-0.026l-16.812,22.48l8.414,5.403L57.568,10.437z"/>
		<g>
			<g>
				<path fill="#EFAC52" d="M57.568,10.437l-0.039-0.025c0.369-0.934,0.134-2.002-0.59-2.695L40.756,32.917l4.207,2.701
					L57.568,10.437z"/>
			</g>
		</g>
		<polyline fill="#D7DBD9" points="40.756,32.916 33.732,43.854 36.23,45.458 44.963,35.617 		"/>
		<path fill="#874129" d="M32.312,42.941c0,0,1.798,1.191,2.665,1.75c0.682,0.436-3.472,3.531-3.509,4.519
			c-0.117,3.152-6.326,4.284-11.256,3.419c3.465-0.673,6.312-2.334,5.678-5.083c-0.636-2.748,4.607-5.67,4.607-5.67"/>
		<path fill="#AD6242" d="M33.732,43.854c0,0-1.478,11.289-13.52,8.773c7.664,2.812,12.436,0.779,16.018-7.171"/>
	</g>
</g>
</svg>
