<svg xmlns="http://www.w3.org/2000/svg" width="64" height="64" viewBox="0 0 64 64"><path fill="#2898CD" d="M19.206 52.987s-7.522-3.387-8.17 2.839c-.106 1.247.521 1.849 1.156 1.493.625-.018 4.889-3.593 7.014-4.332zM19.635 50.556s-5.138-13.546-13.67-6.619c-6.082 4.935 8.401 4.067 13.67 6.619z"/><path fill="#A55435" d="M30.495 41.899s-4.771 2.545-4.612 6.089c.143 3.163-4.076 4.48-5.543 4.567-1.468.086 13.059 5.586 16.634-6.656-4.302-6.156-6.479-4-6.479-4z"/><path fill="none" d="M24.008 55.104l2.93-.637"/><path fill="#CAD3D0" d="M37.098 46.017l-6.732-4.325 5.343-12.017 10.096 6.483z"/><path fill="#2898CD" d="M57.569 10.437l-.04-.026a2.48 2.48 0 0 0-.967-2.997l-.034-.022a2.478 2.478 0 0 0-3.125.369l-.041-.026-16.812 22.48 8.414 5.403 12.605-25.181z"/><path fill="#33A6D3" d="M57.569 10.437l-.04-.026a2.478 2.478 0 0 0-.589-2.695L40.756 32.917l4.207 2.701 12.606-25.181z"/><path fill="#D7DBD9" d="M40.758 32.917l-7.025 10.937 2.497 1.605 8.735-9.841"/><path fill="#874129" d="M32.31 42.942s1.8 1.191 2.667 1.75c.681.436-3.473 3.531-3.51 4.519-.117 3.152-6.326 4.284-11.256 3.419 3.465-.673 6.312-2.334 5.678-5.083-.635-2.748 4.607-5.67 4.607-5.67"/><path fill="#AD6242" d="M33.733 43.854s-1.481 11.289-13.521 8.773c7.664 2.812 12.437.779 16.019-7.171"/></svg>