<?xml version="1.0" encoding="utf-8"?>
<!-- Generator: Adobe Illustrator 15.0.0, SVG Export Plug-In . SVG Version: 6.00 Build 0)  -->
<!DOCTYPE svg PUBLIC "-//W3C//DTD SVG 1.1//EN" "http://www.w3.org/Graphics/SVG/1.1/DTD/svg11.dtd">
<svg version="1.1" id="Layer_1" xmlns="http://www.w3.org/2000/svg" xmlns:xlink="http://www.w3.org/1999/xlink" x="0px" y="0px"
	 width="64px" height="64px" viewBox="0 0 64 64" enable-background="new 0 0 64 64" xml:space="preserve">
<g id="off">
	<g>
		<path fill="#2898CD" d="M19.206,52.987c0,0-7.522-3.387-8.17,2.839c-0.106,1.247,0.521,1.849,1.156,1.493
			C12.817,57.301,17.081,53.726,19.206,52.987z"/>
		<path fill="#2898CD" d="M19.635,50.556c0,0-5.138-13.546-13.67-6.619C-0.117,48.872,14.366,48.004,19.635,50.556z"/>
		<path fill="#A55435" d="M30.495,41.899c0,0-4.771,2.545-4.612,6.089c0.143,3.163-4.076,4.48-5.543,4.567
			c-1.468,0.086,13.059,5.586,16.634-6.656C32.672,39.743,30.495,41.899,30.495,41.899z"/>
		<line fill="none" x1="24.008" y1="55.104" x2="26.938" y2="54.467"/>
		<polygon fill="#CAD3D0" points="37.098,46.017 30.366,41.692 35.709,29.675 45.805,36.158 		"/>
		<path fill="#2898CD" d="M57.569,10.437l-0.04-0.026c0.427-1.08,0.048-2.346-0.967-2.997l-0.034-0.022
			c-1.015-0.65-2.321-0.469-3.125,0.369l-0.041-0.026l-16.812,22.48l8.414,5.403L57.569,10.437z"/>
		<g>
			<g>
				<path fill="#33A6D3" d="M57.569,10.437l-0.04-0.026c0.369-0.934,0.134-2.002-0.589-2.695L40.756,32.917l4.207,2.701
					L57.569,10.437z"/>
			</g>
		</g>
		<polyline fill="#D7DBD9" points="40.758,32.917 33.733,43.854 36.23,45.459 44.965,35.618 		"/>
		<path fill="#874129" d="M32.31,42.942c0,0,1.8,1.191,2.667,1.75c0.681,0.436-3.473,3.531-3.51,4.519
			c-0.117,3.152-6.326,4.284-11.256,3.419c3.465-0.673,6.312-2.334,5.678-5.083c-0.635-2.748,4.607-5.67,4.607-5.67"/>
		<path fill="#AD6242" d="M33.733,43.854c0,0-1.481,11.289-13.521,8.773c7.664,2.812,12.437,0.779,16.019-7.171"/>
	</g>
</g>
</svg>
