<svg xmlns="http://www.w3.org/2000/svg" width="64" height="64" viewBox="0 0 64 64"><path fill="#F5A322" d="M19.207 52.986s-7.522-3.387-8.17 2.839c-.106 1.247.521 1.849 1.155 1.493.624-.018 4.89-3.593 7.015-4.332zM19.635 50.555s-5.138-13.546-13.67-6.619c-6.082 4.935 8.401 4.067 13.67 6.619z"/><path fill="#A55435" d="M30.496 41.898s-4.771 2.545-4.612 6.089c.143 3.163-4.076 4.48-5.544 4.567-1.467.086 13.059 5.586 16.635-6.656-4.305-6.156-6.479-4-6.479-4z"/><path fill="none" d="M24.006 55.104l2.932-.638"/><path fill="#CAD3D0" d="M37.098 46.016l-6.732-4.325 5.342-12.017 10.097 6.483z"/><path fill="#F5A322" d="M57.568 10.437l-.039-.025a2.48 2.48 0 0 0-.967-2.997l-.035-.022a2.478 2.478 0 0 0-3.125.369l-.041-.026-16.812 22.48 8.414 5.403 12.605-25.182z"/><path fill="#EFAC52" d="M57.568 10.437l-.039-.025a2.477 2.477 0 0 0-.59-2.695l-16.183 25.2 4.207 2.701 12.605-25.181z"/><path fill="#D7DBD9" d="M40.756 32.916l-7.024 10.938 2.498 1.604 8.733-9.841"/><path fill="#874129" d="M32.312 42.941s1.798 1.191 2.665 1.75c.682.436-3.472 3.531-3.509 4.519-.117 3.152-6.326 4.284-11.256 3.419 3.465-.673 6.312-2.334 5.678-5.083-.636-2.748 4.607-5.67 4.607-5.67"/><path fill="#AD6242" d="M33.732 43.854s-1.478 11.289-13.52 8.773c7.664 2.812 12.436.779 16.018-7.171"/></svg>