<svg width="64" height="64" viewBox="0 0 64 64" fill="none" xmlns="http://www.w3.org/2000/svg">
<path d="M18.0596 24.1584H45.9407V43.3267C45.9407 51.0258 39.6993 57.2672 32.0001 57.2672C24.301 57.2672 18.0596 51.0258 18.0596 43.3267V24.1584Z" fill="#7CD5FB"/>
<path d="M24.0913 54.8081C26.3384 56.359 29.0633 57.2672 32.0003 57.2672C39.6996 57.2672 45.9409 51.0258 45.9409 43.3267V24.1584H42.4557V41.5841C42.4557 49.2833 36.2144 55.5247 28.5152 55.5247C26.9689 55.5247 25.4812 55.2729 24.0913 54.8081Z" fill="black" fill-opacity="0.05"/>
<path fill-rule="evenodd" clip-rule="evenodd" d="M32 6.73273C27.188 6.73273 23.2871 10.6336 23.2871 15.4456V24.1584L26.7721 24.1584V15.4456C26.7721 12.5584 29.1127 10.2179 31.9998 10.2179C34.887 10.2179 37.2275 12.5584 37.2275 15.4456V24.1584L40.7128 24.1584V15.4456C40.7128 10.6336 36.8119 6.73273 32 6.73273Z" fill="#CAD3D0"/>
<path fill-rule="evenodd" clip-rule="evenodd" d="M31.1288 6.77575C31.4154 6.7473 31.7061 6.73273 32.0001 6.73273C36.8121 6.73273 40.713 10.6336 40.713 15.4456V24.1584H38.9703V15.4456C38.9703 10.9277 35.5317 7.21292 31.1288 6.77575ZM31.1288 10.2902C30.8454 10.2426 30.5543 10.2179 30.2575 10.2179C27.3703 10.2179 25.0298 12.5584 25.0298 15.4456V24.1584H26.7723V15.4456C26.7723 12.8553 28.6563 10.7049 31.1288 10.2902Z" fill="#C4C4C4" fill-opacity="0.6"/>
<circle cx="32.0003" cy="34.6138" r="3.48514" fill="#575E75"/>
<path d="M30.2577 36.3564H33.7428L35.4854 46.8118H28.5151L30.2577 36.3564Z" fill="#575E75"/>
</svg>
