<svg xmlns="http://www.w3.org/2000/svg" xmlns:xlink="http://www.w3.org/1999/xlink" width="202" height="156" viewBox="0 0 202 156"><path fill="#A67C52" d="M202 150c0 3.312-2.688 6-6 6H6c-3.313 0-6-2.688-6-6V6a6 6 0 0 1 6-6h190c3.312 0 6 2.687 6 6v144z"/><path fill="#A67C52" d="M200 150a4 4 0 0 1-4 4H6a4 4 0 0 1-4-4V6a4 4 0 0 1 4-4h190a4 4 0 0 1 4 4v144z"/><defs><path id="a" d="M200 150a4 4 0 0 1-4 4H6a4 4 0 0 1-4-4V6a4 4 0 0 1 4-4h190a4 4 0 0 1 4 4v144z"/></defs><clipPath id="b"><use xlink:href="#a" overflow="visible"/></clipPath><path clip-path="url(#b)" fill="#A67C52" d="M-7.973 74.124l214.048 1.706M-7.941 70.124l214.048 1.705M-7.909 66.124l214.047 1.706M-7.877 62.124l214.048 1.706M-7.845 58.124l214.048 1.706M-7.813 54.125l214.048 1.705M-7.781 50.125l214.048 1.706M-7.75 46.125l214.048 1.706M-7.718 42.125L206.33 43.83M-7.686 38.125l214.048 1.705M-7.654 34.125l214.047 1.706M-7.622 30.125l214.048 1.706M-7.59 26.125l214.048 1.706M-7.558 22.125l214.047 1.706M-7.526 18.125l214.048 1.706M-7.495 14.125l214.048 1.706M-7.463 10.125l214.048 1.706M-7.431 6.126l214.048 1.706M-2.041 76.171l214.045 1.706M-2.009 72.171l214.045 1.706M-1.977 68.171l214.045 1.706M-1.945 64.171L212.1 65.877M-1.913 60.171l214.045 1.706M-1.881 56.172l214.045 1.705M-1.849 52.172l214.044 1.706M-1.817 48.172l214.045 1.706M-1.786 44.172l214.045 1.706M-1.754 40.172l214.045 1.706M-1.722 36.172l214.045 1.706M-1.69 32.172l214.045 1.706M-1.658 28.172l214.045 1.706M-1.626 24.173l214.045 1.705M-1.594 20.173l214.045 1.706M-1.562 16.173l214.045 1.706M-1.531 12.173l214.045 1.706M-4.023 8.153l214.045 1.706M3.945 4.216l201.993 1.609M1.919 2.2l201.994 1.61M3.977.216l201.993 1.61M1.952-1.8L203.944-.19M2.733 156.212l201.993 1.609M.708 154.195l201.993 1.609m3.342-75.975L-8.004 78.124m214.016 5.705L-8.036 82.123m214.015 5.706L-8.068 86.123m214.016 5.706L-8.1 90.123m214.016 5.705L-8.132 94.123m214.016 5.705L-8.164 98.123m214.017 5.705l-214.048-1.705m214.015 5.705l-214.048-1.705m214.016 5.705l-214.047-1.706m214.016 5.706l-214.048-1.706m214.016 5.706l-214.048-1.706m214.016 5.706l-214.048-1.706m214.016 5.705l-214.048-1.705m214.016 5.705l-214.048-1.705m214.017 5.705L-8.45 134.122m214.015 5.705l-214.048-1.705m214.016 5.705l-214.048-1.706m214.017 5.706l-214.048-1.706m216.971 7.73L-5.62 152.145m217.593-70.269L-2.072 80.171m214.012 5.705L-2.104 84.171m214.013 5.705L-2.136 88.171m214.013 5.705L-2.168 92.171m214.013 5.705L-2.2 96.17m214.013 5.706L-2.231 100.17m214.012 5.706L-2.264 104.17m214.014 5.705L-2.295 108.17m214.013 5.705L-2.327 112.17m214.013 5.705L-2.359 116.17m214.013 5.705L-2.391 120.17m214.013 5.705L-2.423 124.17m214.013 5.705l-214.044-1.706m214.013 5.706l-214.045-1.706m214.012 5.706l-214.045-1.706m214.013 5.705L-2.55 140.169m211.488 5.685l-214.045-1.706m204.539 5.63l-201.994-1.609m205.295 3.636L.74 150.195"/><path fill="#A67C52" d="M7 7h188v142H7z"/><path fill="#A67C52" d="M9 9h184v138H9z"/><g><path fill="#8C6239" d="M202 150c0 3.312-2.688 6-6 6H6c-3.313 0-6-2.688-6-6V6a6 6 0 0 1 6-6h190c3.312 0 6 2.687 6 6v144z"/><path fill="#A67C52" d="M200 150a4 4 0 0 1-4 4H6a4 4 0 0 1-4-4V6a4 4 0 0 1 4-4h190a4 4 0 0 1 4 4v144z"/><defs><path id="c" d="M200 150a4 4 0 0 1-4 4H6a4 4 0 0 1-4-4V6a4 4 0 0 1 4-4h190a4 4 0 0 1 4 4v144z"/></defs><clipPath id="d"><use xlink:href="#c" overflow="visible"/></clipPath><path clip-path="url(#d)" fill="none" stroke="#EAC4A0" stroke-width=".3" stroke-dasharray="2,2" d="M-7.973 74.124l214.048 1.706M-7.941 70.124l214.048 1.705M-7.909 66.124l214.047 1.706M-7.877 62.124l214.048 1.706M-7.845 58.124l214.048 1.706M-7.813 54.125l214.048 1.705M-7.781 50.125l214.048 1.706M-7.75 46.125l214.048 1.706M-7.718 42.125L206.33 43.83M-7.686 38.125l214.048 1.705M-7.654 34.125l214.047 1.706M-7.622 30.125l214.048 1.706M-7.59 26.125l214.048 1.706M-7.558 22.125l214.047 1.706M-7.526 18.125l214.048 1.706M-7.495 14.125l214.048 1.706M-7.463 10.125l214.048 1.706M-7.431 6.126l214.048 1.706M-2.041 76.171l214.045 1.706M-2.009 72.171l214.045 1.706M-1.977 68.171l214.045 1.706M-1.945 64.171L212.1 65.877M-1.913 60.171l214.045 1.706M-1.881 56.172l214.045 1.705M-1.849 52.172l214.044 1.706M-1.817 48.172l214.045 1.706M-1.786 44.172l214.045 1.706M-1.754 40.172l214.045 1.706M-1.722 36.172l214.045 1.706M-1.69 32.172l214.045 1.706M-1.658 28.172l214.045 1.706M-1.626 24.173l214.045 1.705M-1.594 20.173l214.045 1.706M-1.562 16.173l214.045 1.706M-1.531 12.173l214.045 1.706M-4.023 8.153l214.045 1.706M3.945 4.216l201.993 1.609M1.919 2.2l201.994 1.61M3.977.216l201.993 1.61M1.952-1.8L203.944-.19M2.733 156.212l201.993 1.609M.708 154.195l201.993 1.609m3.342-75.975L-8.004 78.124m214.016 5.705L-8.036 82.123m214.015 5.706L-8.068 86.123m214.016 5.706L-8.1 90.123m214.016 5.705L-8.132 94.123m214.016 5.705L-8.164 98.123m214.017 5.705l-214.048-1.705m214.015 5.705l-214.048-1.705m214.016 5.705l-214.047-1.706m214.016 5.706l-214.048-1.706m214.016 5.706l-214.048-1.706m214.016 5.706l-214.048-1.706m214.016 5.705l-214.048-1.705m214.016 5.705l-214.048-1.705m214.017 5.705L-8.45 134.122m214.015 5.705l-214.048-1.705m214.016 5.705l-214.048-1.706m214.017 5.706l-214.048-1.706m216.971 7.73L-5.62 152.145m217.593-70.269L-2.072 80.171m214.012 5.705L-2.104 84.171m214.013 5.705L-2.136 88.171m214.013 5.705L-2.168 92.171m214.013 5.705L-2.2 96.17m214.013 5.706L-2.231 100.17m214.012 5.706L-2.264 104.17m214.014 5.705L-2.295 108.17m214.013 5.705L-2.327 112.17m214.013 5.705L-2.359 116.17m214.013 5.705L-2.391 120.17m214.013 5.705L-2.423 124.17m214.013 5.705l-214.044-1.706m214.013 5.706l-214.045-1.706m214.012 5.706l-214.045-1.706m214.013 5.705L-2.55 140.169m211.488 5.685l-214.045-1.706m204.539 5.63l-201.994-1.609m205.295 3.636L.74 150.195"/><path fill="#8C6239" d="M7 7h188v142H7z"/><path fill="#FFF" d="M9 9h184v138H9z"/></g><g><defs><path id="e" d="M200 150a4 4 0 0 1-4 4H6a4 4 0 0 1-4-4V6a4 4 0 0 1 4-4h190a4 4 0 0 1 4 4v144z"/></defs></g></svg>