<?xml version="1.0" encoding="utf-8"?>
<!-- Generator: Adobe Illustrator 15.0.0, SVG Export Plug-In . SVG Version: 6.00 Build 0)  -->
<!DOCTYPE svg PUBLIC "-//W3C//DTD SVG 1.1//EN" "http://www.w3.org/Graphics/SVG/1.1/DTD/svg11.dtd">
<svg version="1.1" id="Layer_1" xmlns="http://www.w3.org/2000/svg" xmlns:xlink="http://www.w3.org/1999/xlink" x="0px" y="0px"
	 width="202px" height="156px" viewBox="0 0 202 156" enable-background="new 0 0 202 156" xml:space="preserve">
<g id="Layer_1">
	<g>
		<g>
			<path fill="#A67C52" d="M202,150c0,3.312-2.688,6-6,6H6c-3.313,0-6-2.688-6-6V6c0-3.313,2.687-6,6-6h190c3.312,0,6,2.687,6,6V150
				z"/>
			<path fill="#A67C52" d="M200,150c0,2.209-1.791,4-4,4H6c-2.209,0-4-1.791-4-4V6c0-2.209,1.791-4,4-4h190c2.209,0,4,1.791,4,4V150
				z"/>
			<g>
				<defs>
					<path id="SVGID_1_" d="M200,150c0,2.209-1.791,4-4,4H6c-2.209,0-4-1.791-4-4V6c0-2.209,1.791-4,4-4h190c2.209,0,4,1.791,4,4
						V150z"/>
				</defs>
				<clipPath id="SVGID_2_">
					<use xlink:href="#SVGID_1_"  overflow="visible"/>
				</clipPath>
				<path clip-path="url(#SVGID_2_)" fill="#A67C52" d="M-7.973,74.124l214.048,1.706 M-7.941,70.124l214.048,1.705 M-7.909,66.124
					l214.047,1.706 M-7.877,62.124l214.048,1.706 M-7.845,58.124l214.048,1.706 M-7.813,54.125l214.048,1.705 M-7.781,50.125
					l214.048,1.706 M-7.75,46.125l214.048,1.706 M-7.718,42.125L206.33,43.83 M-7.686,38.125l214.048,1.705 M-7.654,34.125
					l214.047,1.706 M-7.622,30.125l214.048,1.706 M-7.59,26.125l214.048,1.706 M-7.558,22.125l214.047,1.706 M-7.526,18.125
					l214.048,1.706 M-7.495,14.125l214.048,1.706 M-7.463,10.125l214.048,1.706 M-7.431,6.126l214.048,1.706 M-2.041,76.171
					l214.045,1.706 M-2.009,72.171l214.045,1.706 M-1.977,68.171l214.045,1.706 M-1.945,64.171L212.1,65.877 M-1.913,60.171
					l214.045,1.706 M-1.881,56.172l214.045,1.705 M-1.849,52.172l214.044,1.706 M-1.817,48.172l214.045,1.706 M-1.786,44.172
					l214.045,1.706 M-1.754,40.172l214.045,1.706 M-1.722,36.172l214.045,1.706 M-1.69,32.172l214.045,1.706 M-1.658,28.172
					l214.045,1.706 M-1.626,24.173l214.045,1.705 M-1.594,20.173l214.045,1.706 M-1.562,16.173l214.045,1.706 M-1.531,12.173
					l214.045,1.706 M-4.023,8.153l214.045,1.706 M3.945,4.216l201.993,1.609 M1.919,2.2L203.913,3.81 M3.977,0.216l201.993,1.61
					 M1.952-1.8L203.944-0.19 M2.733,156.212l201.993,1.609 M0.708,154.195l201.993,1.609 M206.043,79.829L-8.004,78.124
					 M206.012,83.829L-8.036,82.123 M205.979,87.829L-8.068,86.123 M205.948,91.829L-8.1,90.123 M205.916,95.828L-8.132,94.123
					 M205.884,99.828L-8.164,98.123 M205.853,103.828l-214.048-1.705 M205.82,107.828l-214.048-1.705 M205.788,111.828
					l-214.047-1.706 M205.757,115.828l-214.048-1.706 M205.725,119.828l-214.048-1.706 M205.693,123.828l-214.048-1.706
					 M205.661,127.827l-214.048-1.705 M205.629,131.827l-214.048-1.705 M205.598,135.827l-214.048-1.705 M205.565,139.827
					l-214.048-1.705 M205.533,143.827l-214.048-1.706 M205.502,147.827l-214.048-1.706 M208.425,153.851L-5.62,152.145
					 M211.973,81.876L-2.072,80.171 M211.94,85.876L-2.104,84.171 M211.909,89.876L-2.136,88.171 M211.877,93.876L-2.168,92.171
					 M211.845,97.876L-2.2,96.17 M211.813,101.876L-2.231,100.17 M211.781,105.876L-2.264,104.17 M211.75,109.875L-2.295,108.17
					 M211.718,113.875L-2.327,112.17 M211.686,117.875L-2.359,116.17 M211.654,121.875L-2.391,120.17 M211.622,125.875
					L-2.423,124.17 M211.59,129.875l-214.044-1.706 M211.559,133.875l-214.045-1.706 M211.526,137.875l-214.045-1.706
					 M211.494,141.874L-2.55,140.169 M208.938,145.854l-214.045-1.706 M199.432,149.778l-201.994-1.609 M202.733,151.805
					L0.74,150.195"/>
			</g>
			<rect x="7" y="7" fill="#A67C52" width="188" height="142"/>
			<rect x="9" y="9" fill="#A67C52" width="184" height="138"/>
		</g>
	</g>
	<g>
		<g>
			<path fill="#8C6239" d="M202,150c0,3.312-2.688,6-6,6H6c-3.313,0-6-2.688-6-6V6c0-3.313,2.687-6,6-6h190c3.312,0,6,2.687,6,6V150
				z"/>
			<path fill="#A67C52" d="M200,150c0,2.209-1.791,4-4,4H6c-2.209,0-4-1.791-4-4V6c0-2.209,1.791-4,4-4h190c2.209,0,4,1.791,4,4V150
				z"/>
			<g>
				<defs>
					<path id="SVGID_3_" d="M200,150c0,2.209-1.791,4-4,4H6c-2.209,0-4-1.791-4-4V6c0-2.209,1.791-4,4-4h190c2.209,0,4,1.791,4,4
						V150z"/>
				</defs>
				<clipPath id="SVGID_4_">
					<use xlink:href="#SVGID_3_"  overflow="visible"/>
				</clipPath>
				<path clip-path="url(#SVGID_4_)" fill="none" stroke="#EAC4A0" stroke-width="0.3" stroke-dasharray="2,2" d="M-7.973,74.124
					l214.048,1.706 M-7.941,70.124l214.048,1.705 M-7.909,66.124l214.047,1.706 M-7.877,62.124l214.048,1.706 M-7.845,58.124
					l214.048,1.706 M-7.813,54.125l214.048,1.705 M-7.781,50.125l214.048,1.706 M-7.75,46.125l214.048,1.706 M-7.718,42.125
					L206.33,43.83 M-7.686,38.125l214.048,1.705 M-7.654,34.125l214.047,1.706 M-7.622,30.125l214.048,1.706 M-7.59,26.125
					l214.048,1.706 M-7.558,22.125l214.047,1.706 M-7.526,18.125l214.048,1.706 M-7.495,14.125l214.048,1.706 M-7.463,10.125
					l214.048,1.706 M-7.431,6.126l214.048,1.706 M-2.041,76.171l214.045,1.706 M-2.009,72.171l214.045,1.706 M-1.977,68.171
					l214.045,1.706 M-1.945,64.171L212.1,65.877 M-1.913,60.171l214.045,1.706 M-1.881,56.172l214.045,1.705 M-1.849,52.172
					l214.044,1.706 M-1.817,48.172l214.045,1.706 M-1.786,44.172l214.045,1.706 M-1.754,40.172l214.045,1.706 M-1.722,36.172
					l214.045,1.706 M-1.69,32.172l214.045,1.706 M-1.658,28.172l214.045,1.706 M-1.626,24.173l214.045,1.705 M-1.594,20.173
					l214.045,1.706 M-1.562,16.173l214.045,1.706 M-1.531,12.173l214.045,1.706 M-4.023,8.153l214.045,1.706 M3.945,4.216
					l201.993,1.609 M1.919,2.2L203.913,3.81 M3.977,0.216l201.993,1.61 M1.952-1.8L203.944-0.19 M2.733,156.212l201.993,1.609
					 M0.708,154.195l201.993,1.609 M206.043,79.829L-8.004,78.124 M206.012,83.829L-8.036,82.123 M205.979,87.829L-8.068,86.123
					 M205.948,91.829L-8.1,90.123 M205.916,95.828L-8.132,94.123 M205.884,99.828L-8.164,98.123 M205.853,103.828l-214.048-1.705
					 M205.82,107.828l-214.048-1.705 M205.788,111.828l-214.047-1.706 M205.757,115.828l-214.048-1.706 M205.725,119.828
					l-214.048-1.706 M205.693,123.828l-214.048-1.706 M205.661,127.827l-214.048-1.705 M205.629,131.827l-214.048-1.705
					 M205.598,135.827l-214.048-1.705 M205.565,139.827l-214.048-1.705 M205.533,143.827l-214.048-1.706 M205.502,147.827
					l-214.048-1.706 M208.425,153.851L-5.62,152.145 M211.973,81.876L-2.072,80.171 M211.94,85.876L-2.104,84.171 M211.909,89.876
					L-2.136,88.171 M211.877,93.876L-2.168,92.171 M211.845,97.876L-2.2,96.17 M211.813,101.876L-2.231,100.17 M211.781,105.876
					L-2.264,104.17 M211.75,109.875L-2.295,108.17 M211.718,113.875L-2.327,112.17 M211.686,117.875L-2.359,116.17 M211.654,121.875
					L-2.391,120.17 M211.622,125.875L-2.423,124.17 M211.59,129.875l-214.044-1.706 M211.559,133.875l-214.045-1.706
					 M211.526,137.875l-214.045-1.706 M211.494,141.874L-2.55,140.169 M208.938,145.854l-214.045-1.706 M199.432,149.778
					l-201.994-1.609 M202.733,151.805L0.74,150.195"/>
			</g>
			<rect x="7" y="7" fill="#8C6239" width="188" height="142"/>
			<rect x="9" y="9" fill="#FFFFFF" width="184" height="138"/>
		</g>
	</g>
	<g>
		<g>
			<g>
				<defs>
					<path id="SVGID_5_" d="M200,150c0,2.209-1.791,4-4,4H6c-2.209,0-4-1.791-4-4V6c0-2.209,1.791-4,4-4h190c2.209,0,4,1.791,4,4
						V150z"/>
				</defs>
				<clipPath id="SVGID_6_">
					<use xlink:href="#SVGID_5_"  overflow="visible"/>
				</clipPath>
			</g>
		</g>
	</g>
</g>
</svg>
