<?xml version="1.0" encoding="utf-8"?>
<!-- Generator: Adobe Illustrator 16.0.0, SVG Export Plug-In . SVG Version: 6.00 Build 0)  -->
<!DOCTYPE svg PUBLIC "-//W3C//DTD SVG 1.1//EN" "http://www.w3.org/Graphics/SVG/1.1/DTD/svg11.dtd">
<svg version="1.1" xmlns="http://www.w3.org/2000/svg" xmlns:xlink="http://www.w3.org/1999/xlink" x="0px" y="0px" width="48px"
	 height="27px" viewBox="0 0 48 27" enable-background="new 0 0 48 27" xml:space="preserve">
<g id="Layer_1">
</g>
<g id="Layer_2">
	<g>
		<g>
			<path fill="#A8721B" d="M48,14c0,7.15-5.85,13-13,13H13C5.85,27,0,21.15,0,14v-1C0,5.85,5.85,0,13,0h22c7.15,0,13,5.85,13,13V14z
				"/>
		</g>
		<g>
			<linearGradient id="SVGID_1_" gradientUnits="userSpaceOnUse" x1="24" y1="26.75" x2="24" y2="0.481">
				<stop  offset="0.0056" style="stop-color:#FBC926"/>
				<stop  offset="1" style="stop-color:#FFFBCC"/>
			</linearGradient>
			<path fill="url(#SVGID_1_)" d="M13,26C6.4,26,1,20.6,1,14v-1C1,6.4,6.4,1,13,1h22c6.6,0,12,5.4,12,12v1c0,6.6-5.4,12-12,12H13z"
				/>
		</g>
		<polygon fill="#A8721B" points="31.233,9.27 23.896,19.781 16.559,9.27 		"/>
	</g>
</g>
</svg>
