<svg xmlns="http://www.w3.org/2000/svg" width="48" height="27" viewBox="0 0 48 27"><path fill="#A8721B" d="M48 14c0 7.15-5.85 13-13 13H13C5.85 27 0 21.15 0 14v-1C0 5.85 5.85 0 13 0h22c7.15 0 13 5.85 13 13v1z"/><linearGradient id="a" gradientUnits="userSpaceOnUse" x1="24" y1="26.75" x2="24" y2=".481"><stop offset=".006" stop-color="#fbc926"/><stop offset="1" stop-color="#fffbcc"/></linearGradient><path fill="url(#a)" d="M13 26C6.4 26 1 20.6 1 14v-1C1 6.4 6.4 1 13 1h22c6.6 0 12 5.4 12 12v1c0 6.6-5.4 12-12 12H13z"/><path fill="#A8721B" d="M31.233 9.27l-7.337 10.511L16.559 9.27z"/></svg>