<?xml version="1.0" encoding="utf-8"?>
<!-- Generator: Adobe Illustrator 16.0.0, SVG Export Plug-In . SVG Version: 6.00 Build 0)  -->
<!DOCTYPE svg PUBLIC "-//W3C//DTD SVG 1.1//EN" "http://www.w3.org/Graphics/SVG/1.1/DTD/svg11.dtd">
<svg version="1.1" xmlns="http://www.w3.org/2000/svg" xmlns:xlink="http://www.w3.org/1999/xlink" x="0px" y="0px" width="36px"
	 height="20px" viewBox="0 0 36 20" enable-background="new 0 0 36 20" xml:space="preserve">
<g id="Layer_1">
</g>
<g id="Layer_2">
	<g>
		<g>
			<path fill="#A8721B" d="M36,10c0,5.5-4.5,10-10,10H10C4.5,20,0,15.5,0,10l0,0C0,4.5,4.5,0,10,0h16C31.5,0,36,4.5,36,10L36,10z"/>
		</g>
		<g>
			<linearGradient id="SVGID_1_" gradientUnits="userSpaceOnUse" x1="18" y1="1.0898" x2="18" y2="18.706">
				<stop  offset="0" style="stop-color:#FFFBCC"/>
				<stop  offset="0.9944" style="stop-color:#FBC926"/>
			</linearGradient>
			<path fill="url(#SVGID_1_)" d="M10,19c-4.95,0-9-4.05-9-9l0,0c0-4.95,4.05-9,9-9h16c4.95,0,9,4.05,9,9l0,0c0,4.95-4.05,9-9,9H10z
				"/>
		</g>
		<polygon fill="#A8721B" points="23.233,6.27 17.896,14.781 12.559,6.27 		"/>
	</g>
</g>
</svg>
