<svg xmlns="http://www.w3.org/2000/svg" width="50" height="50" viewBox="0 0 50 50"><path fill="#FFF" d="M14.181 41.981c.086 0 .16-.041.207-.111.1-.149.078-.432-.059-.754-4.621-10.922-2.506-17.181-.834-19.938 1.611-2.66 4.094-4.312 6.807-4.53a7.66 7.66 0 0 1 .664-.027c3.852 0 6.904 2.668 8.787 4.906l.891 1.059-5.418 5.362c-.13.13-.17.438-.104.599.084.201.314.453.617.453H42.35c.41 0 .377-.528.377-.945v-16.46c0-.275.034-.598-.292-.598-.153 0-.24.083-.404.247-.189.188-1.036 1.065-4.071 4.066l-1.086 1.093-1.043-1.144c-2.621-2.846-7.117-6.239-13.67-6.239-.162 0-.323.002-.487.007-4.709.123-8.572 1.998-11.168 5.421-3.146 4.146-4.185 10.359-2.712 16.214 1.169 4.646 3.764 8.459 5.734 10.841.264.317.484.478.653.478z"/></svg>