<?xml version="1.0" encoding="utf-8"?>
<!-- Generator: Adobe Illustrator 15.0.0, SVG Export Plug-In . SVG Version: 6.00 Build 0)  -->
<!DOCTYPE svg PUBLIC "-//W3C//DTD SVG 1.1//EN" "http://www.w3.org/Graphics/SVG/1.1/DTD/svg11.dtd">
<svg version="1.1" id="Layer_1" xmlns="http://www.w3.org/2000/svg" xmlns:xlink="http://www.w3.org/1999/xlink" x="0px" y="0px"
	 width="50px" height="50px" viewBox="0 0 50 50" enable-background="new 0 0 50 50" xml:space="preserve">
<g>
	<path opacity="0.5" d="M14.181,42.231c0.086,0,0.16-0.041,0.207-0.111c0.1-0.149,0.078-0.432-0.059-0.754
		c-4.621-10.922-2.506-17.181-0.834-19.938c1.611-2.66,4.094-4.312,6.807-4.53c0.217-0.019,0.441-0.027,0.664-0.027
		c3.852,0,6.904,2.668,8.787,4.906l0.891,1.059c0,0-5.285,5.23-5.418,5.362c-0.13,0.13-0.17,0.313-0.104,0.474
		c0.084,0.201,0.314,0.328,0.617,0.328h16.611c0.41,0,0.377-0.278,0.377-0.695v-16.46c0-0.275,0.034-0.598-0.292-0.598
		c-0.153,0-0.24,0.083-0.404,0.247c-0.189,0.188-1.036,1.065-4.071,4.066l-1.086,1.093l-1.043-1.144
		c-2.621-2.846-7.117-6.239-13.67-6.239c-0.162,0-0.323,0.002-0.487,0.007c-4.709,0.123-8.572,1.998-11.168,5.421
		c-3.146,4.146-4.185,10.359-2.712,16.214c1.169,4.646,3.764,8.459,5.734,10.841C13.792,42.07,14.012,42.231,14.181,42.231z"/>
	<path fill="#BBBEBF" d="M13.712,39.187c-4.503-10.897-2.348-17.211-0.645-20.02c1.696-2.798,4.318-4.537,7.194-4.77
		c0.229-0.02,0.468-0.028,0.704-0.028c4.045,0,7.219,2.766,9.17,5.085l1.188,1.411c0,0-5.08,5.275-5.684,5.875
		c0.025,0.004,0.059,0.258,0.1,0.258h16.557c0.004,0,0.432-0.604,0.432-0.695V9.949l-0.234,0.021
		c-0.35,0.354-1.456,1.366-4.065,3.945l-1.513,1.461l-1.425-1.529c-2.553-2.771-6.946-6.077-13.313-6.077
		c-0.158,0-0.322,0.002-0.482,0.006c-4.553,0.12-8.284,1.927-10.786,5.224c-3.057,4.029-4.064,10.079-2.628,15.79
		C9.387,33.187,11.802,36.833,13.712,39.187z"/>
</g>
</svg>
