<svg xmlns="http://www.w3.org/2000/svg" width="50" height="50" viewBox="0 0 50 50"><path opacity=".5" d="M14.181 42.231c.086 0 .16-.041.207-.111.1-.149.078-.432-.059-.754-4.621-10.922-2.506-17.181-.834-19.938 1.611-2.66 4.094-4.312 6.807-4.53a7.66 7.66 0 0 1 .664-.027c3.852 0 6.904 2.668 8.787 4.906l.891 1.059-5.418 5.362a.433.433 0 0 0-.104.474c.084.201.314.328.617.328H42.35c.41 0 .377-.278.377-.695v-16.46c0-.275.034-.598-.292-.598-.153 0-.24.083-.404.247-.189.188-1.036 1.065-4.071 4.066l-1.086 1.093-1.043-1.144c-2.621-2.846-7.117-6.239-13.67-6.239-.162 0-.323.002-.487.007-4.709.123-8.572 1.998-11.168 5.421-3.146 4.146-4.185 10.359-2.712 16.214 1.169 4.646 3.764 8.459 5.734 10.841.264.317.484.478.653.478z"/><path fill="#BBBEBF" d="M13.712 39.187c-4.503-10.897-2.348-17.211-.645-20.02 1.696-2.798 4.318-4.537 7.194-4.77a8.17 8.17 0 0 1 .704-.028c4.045 0 7.219 2.766 9.17 5.085l1.188 1.411s-5.08 5.275-5.684 5.875c.025.004.059.258.1.258h16.557c.004 0 .432-.604.432-.695V9.949l-.234.021c-.35.354-1.456 1.366-4.065 3.945l-1.513 1.461-1.425-1.529c-2.553-2.771-6.946-6.077-13.313-6.077-.158 0-.322.002-.482.006-4.553.12-8.284 1.927-10.786 5.224-3.057 4.029-4.064 10.079-2.628 15.79 1.105 4.397 3.52 8.043 5.43 10.397z"/></svg>