<svg xmlns="http://www.w3.org/2000/svg" width="50" height="50" viewBox="0 0 50 50"><path opacity=".5" d="M35.713 42.23a.247.247 0 0 1-.207-.11c-.1-.149-.076-.433.061-.754 4.621-10.923 2.506-17.181.834-19.938-1.612-2.66-4.094-4.312-6.809-4.53a7.646 7.646 0 0 0-.662-.027c-3.854 0-6.906 2.668-8.789 4.906l-.891 1.059 5.418 5.362c.13.13.17.312.104.474-.084.201-.315.328-.618.328H7.544c-.411 0-.026-.277-.026-.695v-16.46c0-.275-.21-.598.116-.598.154 0 .153.083.316.247.189.188.992 1.065 4.027 4.066l1.065 1.093 1.032-1.144c2.622-2.846 7.111-6.239 13.664-6.239.162 0 .32.002.484.007 4.711.123 8.57 1.998 11.166 5.421 3.146 4.146 4.186 10.359 2.711 16.214-1.168 4.646-3.763 8.459-5.733 10.841-.262.317-.484.477-.653.477z"/><path fill="#BBBEBF" d="M36.184 39.188c4.502-10.897 2.346-17.211.644-20.021-1.696-2.798-4.318-4.537-7.194-4.77a8.162 8.162 0 0 0-.703-.028c-4.045 0-7.22 2.766-9.171 5.085l-1.188 1.411s5.08 5.275 5.684 5.875c-.024.004-.058.258-.1.258H7.598c-.003 0-.08-.604-.08-.695V9.949l.058.021c.351.354 1.369 1.366 3.977 3.945l1.469 1.461 1.403-1.529c2.553-2.771 6.937-6.077 13.306-6.077.158 0 .315.002.476.006 4.552.12 8.282 1.927 10.782 5.224 3.058 4.029 4.063 10.079 2.627 15.79-1.108 4.398-3.524 8.043-5.432 10.398z"/></svg>