<?xml version="1.0" encoding="utf-8"?>
<!-- Generator: Adobe Illustrator 15.0.0, SVG Export Plug-In . SVG Version: 6.00 Build 0)  -->
<!DOCTYPE svg PUBLIC "-//W3C//DTD SVG 1.1//EN" "http://www.w3.org/Graphics/SVG/1.1/DTD/svg11.dtd">
<svg version="1.1" id="Layer_1" xmlns="http://www.w3.org/2000/svg" xmlns:xlink="http://www.w3.org/1999/xlink" x="0px" y="0px"
	 width="50px" height="50px" viewBox="0 0 50 50" enable-background="new 0 0 50 50" xml:space="preserve">
<g>
	<path opacity="0.5" d="M35.713,42.231c-0.085,0-0.16-0.041-0.207-0.111c-0.1-0.149-0.077-0.432,0.06-0.754
		c4.621-10.922,2.506-17.181,0.834-19.938c-1.612-2.66-4.094-4.312-6.808-4.53c-0.217-0.019-0.441-0.027-0.663-0.027
		c-3.853,0-6.905,2.668-8.788,4.906l-0.891,1.059c0,0,5.286,5.23,5.418,5.362c0.13,0.13,0.17,0.313,0.104,0.474
		c-0.084,0.201-0.315,0.328-0.618,0.328H7.544c-0.411,0-0.026-0.278-0.026-0.695v-16.46c0-0.275-0.21-0.598,0.116-0.598
		c0.154,0,0.153,0.083,0.316,0.247c0.189,0.188,0.992,1.065,4.027,4.066l1.065,1.093l1.032-1.144
		c2.622-2.846,7.111-6.239,13.664-6.239c0.162,0,0.321,0.002,0.485,0.007c4.71,0.123,8.57,1.998,11.166,5.421
		c3.146,4.146,4.185,10.359,2.711,16.214c-1.168,4.646-3.763,8.459-5.734,10.841C36.103,42.07,35.882,42.231,35.713,42.231z"/>
	<path fill="#FFFFFF" d="M36.183,39.187c4.502-10.897,2.347-17.211,0.644-20.02c-1.696-2.798-4.318-4.537-7.194-4.77
		c-0.229-0.02-0.468-0.028-0.703-0.028c-4.045,0-7.22,2.766-9.171,5.085l-1.188,1.411c0,0,5.08,5.275,5.684,5.875
		c-0.024,0.004-0.058,0.258-0.1,0.258H7.598c-0.003,0-0.08-0.604-0.08-0.695V9.949l0.058,0.021c0.351,0.354,1.369,1.366,3.977,3.945
		l1.469,1.461l1.403-1.529c2.553-2.771,6.937-6.077,13.305-6.077c0.158,0,0.316,0.002,0.476,0.006
		c4.552,0.12,8.282,1.927,10.783,5.224c3.057,4.029,4.063,10.079,2.626,15.79C40.508,33.187,38.092,36.833,36.183,39.187z"/>
</g>
</svg>
