<svg xmlns="http://www.w3.org/2000/svg" width="76" height="66" viewBox="0 0 76 66"><path fill="#FFF" d="M41.9 18h-7.6c-2.64 0-5.3 2.45-5.3 4.65v12.183C29 35.612 30.138 36 30.917 36h.166c.779 0 .917-.388.917-1.167V24.05c0-.329.17-.6.5-.6s.5.271.5.6V53.65c0 1.1 1.01 2 2 2s2-.9 2-2v-16.8c0-.33.57-.85.9-.85h.2c.33 0-.1.52-.1.85V53.651c0 1.1 1.01 2 2 2s2-.9 2-2V24.05c0-.329.17-.6.5-.6s.5.271.5.6V34.834C43 35.612 44.138 36 44.917 36h.166c.779 0 .917-.388.917-1.167V24.267 22.65c0-2.2-1.46-4.65-4.1-4.65z"/><circle fill="#FFF" cx="38.2" cy="14.05" r="3.7"/><g fill="#AB55A1"><path d="M41.9 17h-.277c-.386 1-.845 1-1.355 1H41.9c2.64 0 4.1 2.45 4.1 4.65v12.183c0 .779-.138 1.167-.917 1.167h-.166C44.138 36 43 35.612 43 34.833V24.05c0-.329-.17-.6-.5-.6s-.5.271-.5.6v29.601c0 1.1-1.01 2-2 2s-2-.9-2-2V36.85c0-.33.43-.85.1-.85h-.2c-.33 0-.9.52-.9.85V53.651c0 1.1-1.01 2-2 2s-2-.9-2-2V24.051c0-.329-.17-.6-.5-.6s-.5.271-.5.6V34.835c0 .777-.138 1.165-.917 1.165h-.166C30.138 36 29 35.612 29 34.833V24.267 22.65c0-2.2 2.66-4.65 5.3-4.65h1.833c-.511 0-.97 0-1.355-1H34.3c-3.09 0-6.3 2.773-6.3 5.65v12.183C28 36.166 29.584 37 30.917 37h.166c.528 0 .917.079.917-.21v16.86c0 1.598 1.652 3 3.25 3 1.016 0 2.077-.566 2.625-1.39.548.823 1.297 1.39 2.313 1.39 1.598 0 2.813-1.402 2.813-3V36.79c1 .289 1.389.21 1.917.21h.166C46.416 37 47 36.166 47 34.833V22.65c0-2.608-1.75-5.65-5.1-5.65zM34.5 13.925c0-2.044 1.656-3.638 3.7-3.638 2.043 0 3.7 1.563 3.7 3.606 0 1.376-.76 3.106-1.875 3.106h1.598c.786-1 1.277-1.836 1.277-3.075 0-2.591-2.108-4.638-4.7-4.638s-4.7 2.016-4.7 4.606c0 1.239.491 2.106 1.277 3.106h1.597C35.26 17 34.5 15.301 34.5 13.925z"/><path d="M36.133 18h4.135c.511 0 .97 0 1.355-1h-1.598c-.54 1-1.158.5-1.825.5-.668 0-1.285.5-1.826-.5h-1.597c.386 1 .845 1 1.356 1zM38.2 18.5c.745 0 1.44.5 2.067-.5h-4.135c.628 1 1.323.5 2.068.5z"/></g></svg>