<svg xmlns="http://www.w3.org/2000/svg" width="76" height="66" viewBox="0 0 76 66"><path fill="#308BA0" d="M54 29a4 4 0 0 1 4-4h1a4 4 0 0 1 4 4v8a4 4 0 0 1-4 4h-1a4 4 0 0 1-4-4v-8z"/><path fill="#FFF" d="M55 29a3 3 0 0 1 3-3h1a3 3 0 0 1 3 3v8a3 3 0 0 1-3 3h-1a3 3 0 0 1-3-3v-8z"/><path fill="#308BA0" d="M44 29a4 4 0 0 1 4-4h1a4 4 0 0 1 4 4v8a4 4 0 0 1-4 4h-1a4 4 0 0 1-4-4v-8z"/><path fill="#FFF" d="M45 29a3 3 0 0 1 3-3h1a3 3 0 0 1 3 3v8a3 3 0 0 1-3 3h-1a3 3 0 0 1-3-3v-8z"/><g><path fill="#308BA0" d="M42.859 36.973c0 .877-.26 1.689-.926 2.284-.779.7-1.783 1.034-2.942.917l-2.612-.479c-.539-.059-1.017.061-1.309.322a.815.815 0 0 0-.275.626c0 .042.002.085.014.188l.246 3.979c.022.189.035.378.035.562 0 1.074-.398 1.97-1.154 2.597-.776.646-1.896.971-3.33.971-4.018 0-13.385-11.339-15.354-13.778a3.42 3.42 0 0 1-1.115-2.522c0-.959.396-1.853 1.121-2.528 2.756-3.303 11.775-13.774 15.348-13.774 3.306 0 4.479 1.957 4.479 3.631 0 .164-.01.33-.025.439 0 0-.27 4.184-.27 4.227 0 .25.086.461.27.626.291.262.755.381 1.295.325l2.586-.48c1.159-.121 2.217.213 2.996.916.664.6.924 1.412.924 2.288v8.663z"/><path fill="#FFF" d="M30.606 47.945c2.783 0 3.66-1.354 3.457-3.009l-.252-4.037c-.166-1.379 1.034-2.366 2.672-2.196l2.612.479c1.638.17 2.764-.655 2.764-2.042v-9c0-1.387-1.126-2.211-2.764-2.041l-2.612.48c-1.638.17-2.838-.818-2.672-2.197l.252-4.037c.203-1.654-.908-3.008-3.457-3.008-3.402 0-14.623 13.467-14.623 13.467-1.129 1.01-1.129 2.663 0 3.674 0 .001 10.846 13.467 14.623 13.467z"/></g></svg>