<svg xmlns="http://www.w3.org/2000/svg" width="85" height="66" viewBox="0 0 85 66"><path fill="#D6BD05" d="M70.602 37.162c-.092.037-2.259.918-4.078 1.736a.953.953 0 0 1-.353.1l-5.382-5.916-3.52-6.176 3.186-1.173 7.878 4.768a2.034 2.034 0 0 0 2.218-1.825c.108-1.116-.796-1.468-1.824-2.216l-8.803-4.858-6.119 2.251a4.33 4.33 0 0 0-3.14-7.307 4.329 4.329 0 0 0-4.331 4.33 4.332 4.332 0 0 0 3.861 4.306l-5.375 4.977-.139.052-.129.069a.652.652 0 0 1-.074.038l-2.752-3.552a2.03 2.03 0 0 0-3.132 2.583l4.128 5.006c.415.504.637.926 1.871.926.616 0 1.54-.938 2.312-1.332l3.566-3.243 3.086 4.731a253.928 253.928 0 0 0-3.048 1.76c-2.204 1.304-2.284 3.592-1.782 4.943l1.729 6.863a2.028 2.028 0 0 0 2.464 1.472 2.032 2.032 0 0 0 1.474-2.465l-1.76-6.992.016-.099-.108-.194-.002-.012a.581.581 0 0 1 .039-.023c1.567-.928 5.276-3.028 5.313-3.049.355-.201.627-.496.801-.834l4.414 4.852c.511.619 1.597 1.396 3.076 1.396.606 0 1.28-.131 2.008-.459 1.748-.785 3.916-1.666 3.938-1.677a2.03 2.03 0 0 0 1.117-2.646 2.031 2.031 0 0 0-2.644-1.111"/><path fill="#D6BD05" d="M30.844 51.27a3.019 3.019 0 0 1-2.89-2.123l-1.823-5.797c-.332-.35-1.062-1.014-2.404-1.789-.825-.479-2.325-1.226-3.499-1.797l-2.893 5.316-6.209 2.143a3.032 3.032 0 0 1-3.853-1.875 3.036 3.036 0 0 1 1.876-3.854l4.003-1.383 6.094-10.458-1.077-.035-3.829 2.968a3.002 3.002 0 0 1-1.854.636 3.016 3.016 0 0 1-2.397-1.174 3.035 3.035 0 0 1 .539-4.253l5.553-4.303 6.784.216a5.336 5.336 0 0 1 5.038-7.081c2.989 0 5.331 2.278 5.331 5.185a5.113 5.113 0 0 1-2.641 4.5c1.088.571 2.104 1.125 2.902 1.74.986.757 1.72 1.175 2.114 1.356l4.537-3.848c.153-.024.312-.037.469-.037 1.474 0 2.762 1.105 2.995 2.572.265 1.654-.772 2.122-2.515 3.478l-5.657 4.066-.433-.056c-.517-.065-2.422-.446-5.205-2.587a8.504 8.504 0 0 0-.913-.594l-2.462 3.773.241.14c3.158 1.828 4.359 3.496 4.651 3.963l.206.33 2.113 6.72a3.035 3.035 0 0 1-2.892 3.942"/><path fill="#FFF" d="M9.476 42.439l4.354-1.504 7.125-12.227-3.113-.101-4.114 3.189a2.031 2.031 0 0 1-2.487-3.21l5.269-4.084 7.543.242.298.105c.102.036.338.12.671.244a4.309 4.309 0 0 1-1.35-3.135c0-2.392 1.939-4.331 4.331-4.331s4.331 1.793 4.331 4.185c0 2.393-1.939 4.187-4.331 4.187h-.013c1.756 1 3.741 1.878 4.996 2.845 1.296.996 2.203 1.456 2.604 1.594l4.808-3.89c1.107-.177 2.148.597 2.325 1.704.176 1.106-.843 1.707-1.685 2.333l-5.516 4.044-.29-.037c-.323-.041-2.075-.352-4.722-2.388-.463-.356-1.12-.74-1.856-1.12l-3.56 5.458c.44.229.844.448 1.171.639 3.039 1.76 4.12 3.332 4.306 3.629l.137.222 2.075 6.597a2.032 2.032 0 0 1-1.938 2.641 2.032 2.032 0 0 1-1.936-1.422l-1.889-6.009c-.296-.342-1.118-1.176-2.791-2.146-1.082-.627-3.254-1.685-4.423-2.244l-3.163 5.812-5.842 2.017a2.03 2.03 0 0 1-1.325-3.839"/></svg>