<svg xmlns="http://www.w3.org/2000/svg" width="76" height="66" viewBox="0 0 76 66"><g fill="#AB55A1"><path d="M41.9 18h-.277c-.386 0-.845 0-1.355 1H41.9c2.64 0 4.1 1.388 4.1 3.588v12.183c0 .779-.138 2.229-.917 2.229h-.166C44.138 37 43 35.55 43 34.771V23.987c0-.329-.17-.6-.5-.6s-.5.271-.5.6v29.601c0 1.1-1.01 2-2 2s-2-.9-2-2V36.787c0-.33.43.213.1.213h-.2c-.33 0-.9-.543-.9-.213V53.588c0 1.1-1.01 2-2 2s-2-.9-2-2V23.988c0-.329-.17-.6-.5-.6s-.5.271-.5.6V34.772c0 .778-.138 2.228-.917 2.228h-.166C30.138 37 29 35.55 29 34.771V24.205v-1.617c0-2.2 2.66-3.588 5.3-3.588h1.833c-.511-1-.97-1-1.355-1H34.3c-3.09 0-6.3 1.711-6.3 4.588v12.183C28 36.104 29.584 38 30.917 38h.166c.528 0 .917-.983.917-1.272v16.86c0 1.598 1.652 3 3.25 3 1.016 0 2.077-.566 2.625-1.39.548.823 1.297 1.39 2.313 1.39 1.598 0 2.813-1.402 2.813-3v-16.86C44 37.017 44.389 38 44.917 38h.166C46.416 38 47 36.104 47 34.771V22.588C47 19.979 45.25 18 41.9 18z"/><path d="M34.5 14.394c0-2.044 1.656-3.903 3.7-3.903 2.043 0 3.7 1.961 3.7 4.005 0 1.376-.76 2.505-1.875 3.505h1.598c.786-1 1.277-2.367 1.277-3.606 0-2.591-2.108-4.903-4.7-4.903s-4.7 2.414-4.7 5.005c0 1.239.491 2.505 1.277 3.505h1.597C35.26 17 34.5 15.77 34.5 14.394z"/><path d="M36.133 19h4.135c.511-1 .97-1 1.355-1h-1.598c-.54 0-1.158.5-1.825.5-.668 0-1.285-.5-1.826-.5h-1.597c.386 0 .845 0 1.356 1zM38.2 19.5c.745 0 1.44-.5 2.067-.5h-4.135c.628 0 1.323.5 2.068.5z"/></g></svg>