<svg xmlns="http://www.w3.org/2000/svg" width="76" height="66" viewBox="0 0 76 66"><path fill="#308BA0" d="M43.802 10a4 4 0 0 1-4 4h-8a4 4 0 0 1-4-4V9a4 4 0 0 1 4-4h8a4 4 0 0 1 4 4v1z"/><path fill="#FFF" d="M42.802 10a3 3 0 0 1-3 3h-8a3 3 0 0 1-3-3V9a3 3 0 0 1 3-3h8a3 3 0 0 1 3 3v1z"/><path fill="#308BA0" d="M43.802 20a4 4 0 0 1-4 4h-8a4 4 0 0 1-4-4v-1a4 4 0 0 1 4-4h8a4 4 0 0 1 4 4v1z"/><path fill="#FFF" d="M42.802 20a3 3 0 0 1-3 3h-8a3 3 0 0 1-3-3v-1a3 3 0 0 1 3-3h8a3 3 0 0 1 3 3v1z"/><g><path fill="#308BA0" d="M40.136 25.277c.877 0 1.689.26 2.284.926.7.779 1.034 1.783.917 2.942l-.479 2.612c-.059.539.061 1.017.322 1.309a.815.815 0 0 0 .626.275c.042 0 .085-.002.188-.014l3.979-.246c.189-.022.378-.035.562-.035 1.074 0 1.97.398 2.597 1.154.646.776.971 1.896.971 3.33 0 4.018-11.339 13.385-13.778 15.354-.672.72-1.565 1.116-2.522 1.116-.959 0-1.854-.396-2.528-1.121C29.972 50.123 19.5 41.104 19.5 37.531c0-3.306 1.957-4.479 3.632-4.479.164 0 .33.01.438.025 0 0 4.185.27 4.228.27.25 0 .461-.086.626-.27.262-.291.381-.755.324-1.295l-.479-2.586c-.121-1.159.213-2.217.916-2.996.6-.664 1.412-.924 2.288-.924h8.663z"/><path fill="#FFF" d="M51.108 37.53c0-2.783-1.354-3.66-3.009-3.457l-4.037.252c-1.379.166-2.366-1.034-2.196-2.672l.479-2.612c.17-1.638-.655-2.764-2.042-2.764h-9c-1.387 0-2.211 1.126-2.041 2.764l.479 2.612c.17 1.638-.817 2.838-2.196 2.672l-4.037-.252c-1.654-.203-3.008.908-3.008 3.457 0 3.402 13.468 14.623 13.468 14.623 1.01 1.129 2.663 1.129 3.674 0 0 0 13.466-10.845 13.466-14.623z"/></g></svg>