<?xml version="1.0" encoding="utf-8"?>
<!-- Generator: Adobe Illustrator 15.0.0, SVG Export Plug-In . SVG Version: 6.00 Build 0)  -->
<!DOCTYPE svg PUBLIC "-//W3C//DTD SVG 1.1//EN" "http://www.w3.org/Graphics/SVG/1.1/DTD/svg11.dtd">
<svg version="1.1" id="Layer_1" xmlns="http://www.w3.org/2000/svg" xmlns:xlink="http://www.w3.org/1999/xlink" x="0px" y="0px"
	 width="85px" height="66px" viewBox="0 0 85 66" enable-background="new 0 0 85 66" xml:space="preserve">
<path fill="#AE1F24" d="M45.207,55c-1.312,0-2.051-0.518-2.438-0.951c-0.496-0.556-0.721-1.311-0.627-2.124l0.008-0.073l0.021-0.07
	c0.175-0.651,0.312-1.365,0.363-1.85c-1.55-0.009-4.453-0.033-6.704-0.053c-1.586-0.013-2.846-0.023-3.073-0.023
	c-8.604,0-15.604-7.595-15.604-16.93c0-9.067,5.693-16.405,13.311-17.257c3.374-3.763,4.667-4.279,5.484-4.279
	c1.313,0,2.051,0.519,2.438,0.953c0.496,0.557,0.717,1.313,0.623,2.124l-0.008,0.072l-0.019,0.07
	c-0.174,0.652-0.311,1.366-0.362,1.85c1.549,0.008,4.453,0.033,6.703,0.053c1.585,0.014,2.845,0.024,3.071,0.024
	c4.185,0,8.112,1.772,11.062,4.991C62.389,24.722,64,28.961,64,33.465c0,9.066-5.693,16.404-13.309,17.258
	C47.316,54.482,46.023,55,45.207,55z M30.501,29.23c-1.499,0.724-1.74,2.58-1.74,3.695c0,2.646,1.946,5.147,4.004,5.147
	c0.335,0,8.276,0.035,9.769,0.039c-0.052-0.488-0.188-1.209-0.364-1.867l-0.02-0.07l-0.008-0.072
	c-0.099-0.859,0.109-1.604,0.603-2.156c0.546-0.611,1.374-0.922,2.462-0.922c0.827,0.001,2.189,0.486,5.445,4.136
	c1.5-0.724,1.74-2.579,1.74-3.694c0-2.646-1.945-5.148-4.002-5.148c-0.336,0-8.279-0.034-9.771-0.038
	c0.052,0.487,0.188,1.208,0.363,1.866l0.019,0.07l0.008,0.071c0.101,0.859-0.107,1.605-0.599,2.157
	c-0.546,0.612-1.374,0.923-2.462,0.923C35.122,33.365,33.758,32.881,30.501,29.23z M63,33.465c0-8.793-6.539-15.93-14.604-15.929
	c-0.613,0-8.76-0.079-10.525-0.079c-0.684,0,0.146-3.105,0.146-3.105c0.125-1.08-0.545-1.962-2.068-1.962
	c-0.992,0-3.1,2.094-4.998,4.237c-7.523,0.608-12.797,7.879-12.797,16.299c0,8.793,6.539,15.93,14.604,15.93
	c0.613,0,8.762,0.078,10.527,0.078c0.684,0-0.148,3.104-0.148,3.104C43.014,53.119,43.682,54,45.207,54
	c0.992,0,3.1-2.094,4.998-4.236C57.729,49.154,63,41.885,63,33.465z M53.393,33.465c0,2.547-1.049,4.361-3.045,4.861
	c-1.885-2.165-4.023-4.301-5.141-4.303c-1.668,0-2.193,0.885-2.07,1.965c0,0,0.832,3.125,0.148,3.125
	c-1.934,0-9.678-0.04-10.52-0.04c-2.76,0-5.004-3.136-5.004-6.147c0-2.548,1.049-4.362,3.045-4.862
	c1.885,2.166,4.027,4.302,5.143,4.303c1.666,0,2.193-0.885,2.068-1.965c0,0-0.83-3.124-0.146-3.124c1.932,0,9.678,0.039,10.52,0.039
	C51.148,27.316,53.393,30.452,53.393,33.465z"/>
<path fill="#FFFFFF" d="M63,33.465c0-8.793-6.539-15.93-14.604-15.929c-0.613,0-8.76-0.079-10.525-0.079
	c-0.684,0,0.146-3.105,0.146-3.105c0.125-1.08-0.545-1.962-2.068-1.962c-0.992,0-3.1,2.094-4.998,4.237
	c-7.523,0.608-12.797,7.879-12.797,16.299c0,8.793,6.539,15.93,14.604,15.93c0.613,0,8.762,0.078,10.527,0.078
	c0.684,0-0.148,3.104-0.148,3.104C43.014,53.119,43.682,54,45.207,54c0.992,0,3.1-2.094,4.998-4.236
	C57.729,49.154,63,41.885,63,33.465z M53.393,33.465c0,2.547-1.049,4.361-3.045,4.861c-1.885-2.165-4.023-4.301-5.141-4.303
	c-1.668,0-2.193,0.885-2.07,1.965c0,0,0.832,3.125,0.148,3.125c-1.934,0-9.678-0.04-10.52-0.04c-2.76,0-5.004-3.136-5.004-6.147
	c0-2.548,1.049-4.362,3.045-4.862c1.885,2.166,4.027,4.302,5.143,4.303c1.666,0,2.193-0.885,2.068-1.965c0,0-0.83-3.124-0.146-3.124
	c1.932,0,9.678,0.039,10.52,0.039C51.148,27.316,53.393,30.452,53.393,33.465z"/>
<path fill="none" stroke="#AE1F24" stroke-miterlimit="10" d="M30.844,16.273c-5.506,5.506-5.781,6.647,0,12.428 M50.324,50.174
	c5.506-5.506,5.781-6.646,0-12.428"/>
</svg>
