<svg xmlns="http://www.w3.org/2000/svg" width="85" height="66" viewBox="0 0 85 66"><path fill="#AE1F24" d="M45.207 55c-1.312 0-2.051-.518-2.438-.951-.496-.556-.721-1.311-.627-2.124l.008-.073.021-.07a13.15 13.15 0 0 0 .363-1.85c-1.55-.009-4.453-.033-6.704-.053a990.527 990.527 0 0 0-3.073-.023c-8.604 0-15.604-7.595-15.604-16.93 0-9.067 5.693-16.405 13.311-17.257 3.374-3.763 4.667-4.279 5.484-4.279 1.313 0 2.051.519 2.438.953.496.557.717 1.313.623 2.124l-.008.072-.019.07a13.334 13.334 0 0 0-.362 1.85c1.549.008 4.453.033 6.703.053 1.585.014 2.845.024 3.071.024 4.185 0 8.112 1.772 11.062 4.991C62.389 24.722 64 28.961 64 33.465c0 9.066-5.693 16.404-13.309 17.258C47.316 54.482 46.023 55 45.207 55zM30.501 29.23c-1.499.724-1.74 2.58-1.74 3.695 0 2.646 1.946 5.147 4.004 5.147.335 0 8.276.035 9.769.039a13.465 13.465 0 0 0-.364-1.867l-.02-.07-.008-.072c-.099-.859.109-1.604.603-2.156.546-.611 1.374-.922 2.462-.922.827.001 2.189.486 5.445 4.136 1.5-.724 1.74-2.579 1.74-3.694 0-2.646-1.945-5.148-4.002-5.148-.336 0-8.279-.034-9.771-.038.052.487.188 1.208.363 1.866l.019.07.008.071c.101.859-.107 1.605-.599 2.157-.546.612-1.374.923-2.462.923-.826-.002-2.19-.486-5.447-4.137zM63 33.465c0-8.793-6.539-15.93-14.604-15.929-.613 0-8.76-.079-10.525-.079-.684 0 .146-3.105.146-3.105.125-1.08-.545-1.962-2.068-1.962-.992 0-3.1 2.094-4.998 4.237-7.523.608-12.797 7.879-12.797 16.299 0 8.793 6.539 15.93 14.604 15.93.613 0 8.762.078 10.527.078.684 0-.148 3.104-.148 3.104-.123 1.081.545 1.962 2.07 1.962.992 0 3.1-2.094 4.998-4.236C57.729 49.154 63 41.885 63 33.465zm-9.607 0c0 2.547-1.049 4.361-3.045 4.861-1.885-2.165-4.023-4.301-5.141-4.303-1.668 0-2.193.885-2.07 1.965 0 0 .832 3.125.148 3.125-1.934 0-9.678-.04-10.52-.04-2.76 0-5.004-3.136-5.004-6.147 0-2.548 1.049-4.362 3.045-4.862 1.885 2.166 4.027 4.302 5.143 4.303 1.666 0 2.193-.885 2.068-1.965 0 0-.83-3.124-.146-3.124 1.932 0 9.678.039 10.52.039 2.757-.001 5.002 3.135 5.002 6.148z"/><path fill="#FFF" d="M63 33.465c0-8.793-6.539-15.93-14.604-15.929-.613 0-8.76-.079-10.525-.079-.684 0 .146-3.105.146-3.105.125-1.08-.545-1.962-2.068-1.962-.992 0-3.1 2.094-4.998 4.237-7.523.608-12.797 7.879-12.797 16.299 0 8.793 6.539 15.93 14.604 15.93.613 0 8.762.078 10.527.078.684 0-.148 3.104-.148 3.104-.123 1.081.545 1.962 2.07 1.962.992 0 3.1-2.094 4.998-4.236C57.729 49.154 63 41.885 63 33.465zm-9.607 0c0 2.547-1.049 4.361-3.045 4.861-1.885-2.165-4.023-4.301-5.141-4.303-1.668 0-2.193.885-2.07 1.965 0 0 .832 3.125.148 3.125-1.934 0-9.678-.04-10.52-.04-2.76 0-5.004-3.136-5.004-6.147 0-2.548 1.049-4.362 3.045-4.862 1.885 2.166 4.027 4.302 5.143 4.303 1.666 0 2.193-.885 2.068-1.965 0 0-.83-3.124-.146-3.124 1.932 0 9.678.039 10.52.039 2.757-.001 5.002 3.135 5.002 6.148z"/><path fill="none" stroke="#AE1F24" stroke-miterlimit="10" d="M30.844 16.273c-5.506 5.506-5.781 6.647 0 12.428m19.48 21.473c5.506-5.506 5.781-6.646 0-12.428"/></svg>