<svg xmlns="http://www.w3.org/2000/svg" width="76" height="66" viewBox="0 0 76 66"><path fill="#308BA0" d="M25 29a4 4 0 0 0-4-4h-1a4 4 0 0 0-4 4v8a4 4 0 0 0 4 4h1a4 4 0 0 0 4-4v-8z"/><path fill="#FFF" d="M24 29a3 3 0 0 0-3-3h-1a3 3 0 0 0-3 3v8a3 3 0 0 0 3 3h1a3 3 0 0 0 3-3v-8z"/><path fill="#308BA0" d="M35 29a4 4 0 0 0-4-4h-1a4 4 0 0 0-4 4v8a4 4 0 0 0 4 4h1a4 4 0 0 0 4-4v-8z"/><path fill="#FFF" d="M34 29a3 3 0 0 0-3-3h-1a3 3 0 0 0-3 3v8a3 3 0 0 0 3 3h1a3 3 0 0 0 3-3v-8z"/><g><path fill="#308BA0" d="M36.137 28.31c0-.876.26-1.688.924-2.288.779-.703 1.837-1.037 2.996-.916l2.586.48c.54.056 1.004-.063 1.295-.325a.803.803 0 0 0 .27-.626c0-.043-.27-4.227-.27-4.227a3.35 3.35 0 0 1-.025-.439c0-1.674 1.173-3.631 4.479-3.631 3.572 0 12.592 10.471 15.348 13.774.726.676 1.121 1.569 1.121 2.528 0 .957-.396 1.851-1.115 2.522-1.971 2.44-11.338 13.778-15.355 13.778-1.434 0-2.554-.325-3.33-.971-.756-.627-1.154-1.522-1.154-2.597 0-.185.013-.373.035-.562l.246-3.979a1.51 1.51 0 0 0 .014-.188c0-.25-.094-.46-.275-.626-.292-.262-.77-.381-1.309-.322l-2.612.479c-1.159.117-2.163-.217-2.942-.917-.666-.595-.926-1.407-.926-2.284V28.31z"/><path fill="#FFF" d="M63.013 34.479c1.129-1.011 1.129-2.664 0-3.674 0 0-11.221-13.467-14.623-13.467-2.549 0-3.66 1.354-3.457 3.008l.252 4.037c.166 1.379-1.034 2.367-2.672 2.197L39.9 26.1c-1.638-.17-2.764.654-2.764 2.041v9c0 1.387 1.126 2.212 2.764 2.042l2.612-.479c1.638-.17 2.838.817 2.672 2.196l-.252 4.037c-.203 1.654.674 3.009 3.457 3.009 3.778-.001 14.624-13.467 14.624-13.467z"/></g></svg>