<svg xmlns="http://www.w3.org/2000/svg" width="85" height="66" viewBox="0 0 85 66"><path fill="#4A845F" d="M62.995 23.657l-.14-3.342-.033-.854-.01-.218a1.832 1.832 0 0 0-.297-.922 1.63 1.63 0 0 0-1.051-.688 2.378 2.378 0 0 0-.639-.042c-.113.005-.186.018-.271.028l-.229.041c-.488.088-1.062.113-1.614.139-.555.033-1.065.019-1.616-.014-1.082-.065-1.611.011-1.611.011-1.448-.013-9.041-2.262-11.17-2.43l-2.882-.228c-1.56-.193-3.337-.315-5.178-.221-.233.016-1.099.083-1.099.083l-.181.034c-1.393.167-2.746.47-3.956.868-.221.145-.585.29-1.021.481l-.343.083-.248.186c-.667.324-1.531.771-2.23 1.443l-.176.023v.04l.244-.158h-.016l.343 24h-.003l-.004.029a6.72 6.72 0 0 0 .085 1.076c.011.045.014.135.034.143.03-.037.063-.07.098-.104.255-.229.535-.379 1.034-.418a5.01 5.01 0 0 1 .774-.516l.251-.164.187-.111c.127-.076.261-.147.398-.223.277-.143.578-.271.905-.396a10.615 10.615 0 0 1 2.325-.551l-.032-.08c2.065-.437 4.342-.465 6.693-.295 2.354.18 4.788.59 7.271 1.115l3.781.826c1.282.271 2.583.548 3.946.682.687.069 1.383.063 2.061.036a19.56 19.56 0 0 0 2.055-.196c.342-.051.684-.11 1.021-.184l.505-.109c.151-.028.405-.101.595-.205.409-.209.917-.602 1.068-.998.156-.39.381-.802.381-1.192v-.021c0-5.612-.123-11.333-.139-16.858l.134.371zm-35.338-5.68l-.285.09c.159-.09.31-.166.459-.233l-.176.132.002.011z"/><path fill="#4A845F" d="M29 54.93v-.4V43.034c0-.276-.164-.501-.164-.501l-.088-6.118c-.023-.151.066-.257.08-.46.022-.153.172-.309.172-.462v-.858l-.18-.303-.085-.008c-.014-.162-.075-.113-.093-.014.016-.14.188-.287.194-.463 0-.057.164-.113.164-.168v.077c0 .028-.006.062-.008.091l.008.378v.012-.002l-.02.102.02.14v-1.958l-.17-.41c-.017-.473-.113-.944-.055-1.235l.109-.351.116.061v-.131l-.135-1.482-.045-2.945.03-9.423a1.76 1.76 0 0 0-.101-.649 1.661 1.661 0 0 0-.361-.572c-.304-.326-.706-.531-1.119-.641-.82-.209-1.762-.081-2.451.515-.337.288-.588.764-.566 1.233l-.008 1.213-.019 2.469a937.466 937.466 0 0 1-.156 10.487c-.14 6.789.521 10.98.218 17.841-.053 1.315-.065 3.194-.063 5.063l.006 1.399c.006.375.128.738.309 1.024.182.291.413.516.654.688a3.077 3.077 0 0 0 1.499.543c.485.051.438-.011.835-.133 1.061-.378 1.479-1.173 1.527-1.604.05-.456-.054-.345-.054-.549zm-.295-29.387a6.9 6.9 0 0 1-.059 1.563c-.021-.469 0-1.075.059-1.563z"/><path fill="#5DB27F" d="M56.516 42.075c-.365 0-.729-.013-1.098-.052-1.305-.127-2.582-.396-3.816-.658l-3.799-.829c-2.881-.611-5.233-.974-7.41-1.138a36.026 36.026 0 0 0-2.574-.103c-1.643 0-3.082.138-4.4.413l-1.167.246.019.046c-.45.104-.879.229-1.284.38-.366.138-.703.284-1.015.443a8.806 8.806 0 0 0-.458.253l-.194.117-.275.182a5.414 5.414 0 0 0-.477.287l-.328-22.821.574-.181-.1-.495c.365-.23.752-.43 1.13-.613l.085-.042.16-.119.229-.056.325-.142c.302-.131.569-.246.794-.376a19.793 19.793 0 0 1 3.655-.79l.188-.034c.185-.015.831-.064 1.026-.075.416-.021.832-.031 1.243-.031 1.177 0 2.441.083 3.757.246l2.926.232c.992.078 3.519.809 5.746 1.365 2.892.719 4.704 1.27 5.499 1.27h.076l.075-.111c.029-.004.244-.078.642-.078.209 0 .465-.019.77 0 .354.021.689.021 1.031.021.23 0 .468-.012.705-.027.588-.025 1.188-.057 1.73-.155l.229-.042c.061-.006.095-.013.143-.015l.122-.005c.1 0 .188.009.266.024.188.038.34.132.42.256a.71.71 0 0 1 .11.27.532.532 0 0 1 .021.15l.164 3.98-.117.021c.01 2.564.037 5.17.068 7.787.033 3.024.068 6.063.068 9.07 0 .117-.113.383-.188.559l-.123.295c-.041.081-.275.311-.592.473-.082.045-.211.09-.345.115l-.514.112c-.309.063-.633.12-.956.171a18.778 18.778 0 0 1-2.766.204z"/></svg>