<?xml version="1.0" encoding="utf-8"?>
<!-- Generator: Adobe Illustrator 15.0.0, SVG Export Plug-In . SVG Version: 6.00 Build 0)  -->
<!DOCTYPE svg PUBLIC "-//W3C//DTD SVG 1.1//EN" "http://www.w3.org/Graphics/SVG/1.1/DTD/svg11.dtd">
<svg version="1.1" id="Layer_1" xmlns="http://www.w3.org/2000/svg" xmlns:xlink="http://www.w3.org/1999/xlink" x="0px" y="0px"
	 width="85px" height="66px" viewBox="0 0 85 66" enable-background="new 0 0 85 66" xml:space="preserve">
<path fill="#4A845F" d="M62.995,23.657l-0.14-3.342l-0.033-0.854l-0.01-0.218c-0.004-0.11-0.021-0.22-0.045-0.326
	c-0.052-0.213-0.131-0.417-0.252-0.596c-0.236-0.362-0.627-0.604-1.051-0.688c-0.209-0.045-0.432-0.055-0.639-0.042
	c-0.113,0.005-0.186,0.018-0.271,0.028l-0.229,0.041c-0.488,0.088-1.062,0.113-1.614,0.139c-0.555,0.033-1.065,0.019-1.616-0.014
	c-1.082-0.065-1.611,0.011-1.611,0.011c-1.448-0.013-9.041-2.262-11.17-2.43c-2.128-0.168-2.882-0.228-2.882-0.228
	c-1.56-0.193-3.337-0.315-5.178-0.221C36.021,14.933,35.155,15,35.155,15l-0.181,0.034c-1.393,0.167-2.746,0.47-3.956,0.868
	c-0.221,0.145-0.585,0.29-1.021,0.481l-0.343,0.083l-0.248,0.186c-0.667,0.324-1.531,0.771-2.23,1.443L27,18.118v0.04
	C27,18.159,27.245,18,27.244,18c0.001,0-0.016,0-0.016,0l0.343,24h-0.003l-0.004,0.029c0.004,0.254,0.016,0.501,0.039,0.729
	c0.013,0.116,0.027,0.232,0.046,0.347c0.011,0.045,0.014,0.135,0.034,0.143c0.03-0.037,0.063-0.07,0.098-0.104
	c0.255-0.229,0.535-0.379,1.034-0.418c0.246-0.207,0.499-0.359,0.774-0.516l0.251-0.164l0.187-0.111
	c0.127-0.076,0.261-0.147,0.398-0.223c0.277-0.143,0.578-0.271,0.905-0.396c0.655-0.239,1.421-0.437,2.325-0.551l-0.032-0.08
	c2.065-0.437,4.342-0.465,6.693-0.295c2.354,0.18,4.788,0.59,7.271,1.115l3.781,0.826c1.282,0.271,2.583,0.548,3.946,0.682
	c0.687,0.069,1.383,0.063,2.061,0.036c0.684-0.028,1.371-0.095,2.055-0.196c0.342-0.051,0.684-0.11,1.021-0.184l0.505-0.109
	c0.151-0.028,0.405-0.101,0.595-0.205c0.409-0.209,0.917-0.602,1.068-0.998C62.775,40.967,63,40.555,63,40.165v-0.021
	c0-5.612-0.123-11.333-0.139-16.858L62.995,23.657z M27.657,17.977l-0.285,0.09c0.159-0.09,0.31-0.166,0.459-0.233l-0.176,0.132
	C27.655,17.965,27.655,17.967,27.657,17.977z"/>
<path fill="#4A845F" d="M29,54.93V54.53c0,0,0-0.108,0-0.104V43.034c0-0.276-0.164-0.501-0.164-0.501l-0.088-6.118
	c-0.023-0.151,0.066-0.257,0.08-0.46C28.85,35.802,29,35.646,29,35.493v-0.858l-0.18-0.303l-0.085-0.008
	c-0.014-0.162-0.075-0.113-0.093-0.014c0.016-0.14,0.188-0.287,0.194-0.463c0-0.057,0.164-0.113,0.164-0.168
	c0,0.024,0,0.053,0,0.077c0,0.028-0.006,0.062-0.008,0.091L29,34.225v0.012v-0.002l-0.02,0.102L29,34.477v-1.958l-0.17-0.41
	c-0.017-0.473-0.113-0.944-0.055-1.235l0.109-0.351L29,30.584v-0.131l-0.135-1.482l-0.045-2.945l0.03-9.423
	c0.006-0.177-0.019-0.441-0.101-0.649c-0.075-0.217-0.211-0.41-0.361-0.572c-0.304-0.326-0.706-0.531-1.119-0.641
	c-0.82-0.209-1.762-0.081-2.451,0.515c-0.337,0.288-0.588,0.764-0.566,1.233l-0.008,1.213l-0.019,2.469
	c-0.034,3.612-0.086,7.084-0.156,10.487c-0.14,6.789,0.521,10.98,0.218,17.841c-0.053,1.315-0.065,3.194-0.063,5.063l0.006,1.399
	c0.006,0.375,0.128,0.738,0.309,1.024c0.182,0.291,0.413,0.516,0.654,0.688c0.487,0.348,1.014,0.493,1.499,0.543
	c0.485,0.051,0.438-0.011,0.835-0.133c1.061-0.378,1.479-1.173,1.527-1.604C29.104,55.023,29,55.134,29,54.93z M28.705,25.543
	c0.051,0.606,0.002,1.116-0.059,1.563C28.625,26.637,28.646,26.031,28.705,25.543z"/>
<path fill="#5DB27F" d="M56.516,42.075c-0.365,0-0.729-0.013-1.098-0.052c-1.305-0.127-2.582-0.396-3.816-0.658l-3.799-0.829
	c-2.881-0.611-5.233-0.974-7.41-1.138c-0.924-0.066-1.765-0.103-2.574-0.103c-1.643,0-3.082,0.138-4.4,0.413l-1.167,0.246L32.271,40
	c-0.45,0.104-0.879,0.229-1.284,0.38c-0.366,0.138-0.703,0.284-1.015,0.443c-0.161,0.084-0.313,0.166-0.458,0.253l-0.194,0.117
	l-0.275,0.182c-0.135,0.072-0.299,0.167-0.477,0.287L28.24,18.841l0.574-0.181l-0.1-0.495c0.365-0.23,0.752-0.43,1.13-0.613
	l0.085-0.042l0.16-0.119l0.229-0.056l0.325-0.142c0.302-0.131,0.569-0.246,0.794-0.376c1.141-0.367,2.401-0.64,3.655-0.79
	l0.188-0.034c0.185-0.015,0.831-0.064,1.026-0.075c0.416-0.021,0.832-0.031,1.243-0.031c1.177,0,2.441,0.083,3.757,0.246
	l2.926,0.232c0.992,0.078,3.519,0.809,5.746,1.365C52.87,18.449,54.682,19,55.477,19h0.076l0.075-0.111
	c0.029-0.004,0.244-0.078,0.642-0.078c0.209,0,0.465-0.019,0.77,0c0.354,0.021,0.689,0.021,1.031,0.021
	c0.23,0,0.468-0.012,0.705-0.027c0.588-0.025,1.188-0.057,1.73-0.155l0.229-0.042c0.061-0.006,0.095-0.013,0.143-0.015L61,18.588
	c0.1,0,0.188,0.009,0.266,0.024c0.188,0.038,0.34,0.132,0.42,0.256c0.055,0.083,0.092,0.171,0.11,0.27
	c0.015,0.052,0.021,0.101,0.021,0.15l0.164,3.98l-0.117,0.021c0.01,2.564,0.037,5.17,0.068,7.787C61.965,34.1,62,37.139,62,40.146
	c0,0.117-0.113,0.383-0.188,0.559L61.689,41c-0.041,0.081-0.275,0.311-0.592,0.473c-0.082,0.045-0.211,0.09-0.345,0.115L60.238,41.7
	c-0.309,0.063-0.633,0.12-0.956,0.171c-0.644,0.096-1.3,0.158-1.946,0.186C57.064,42.066,56.791,42.075,56.516,42.075z"/>
</svg>
