<svg xmlns="http://www.w3.org/2000/svg" width="76" height="66" viewBox="0 0 76 66"><g opacity=".25"><path fill="#FF61F8" d="M23.25 45.543c.622 0 1.27-.272 1.625-.735.355.463.69.735 1.313.735 1.178 0 1.813-.976 1.813-2.372v-7.188c1 .171.652.268 1.031.268 1.123 0 1.969-.856 1.969-1.992v-4.36C31 27.784 29.834 27 27.539 27h-5.216C20.072 27 18 27.75 18 29.897v4.36c0 1.08.916 1.992 2 1.992.361 0 1-.102 1-.276v7.197c0 1.397 1.072 2.373 2.25 2.373z"/><path fill="#FFF" d="M22.323 28h5.216c1.812 0 2.461.388 2.461 1.897V34.257c0 .535-.344.992-.969.992S28 34.793 28 34.258v-3.399c0-.227-.273-.412-.5-.412s-.5.185-.5.411V32.642v-.628 11.157c0 .755-.321 1.372-1 1.372-.68 0-1-.617-1-1.372v-5.53c0-.226.295.359.068.359h-.137c-.226 0-.931-.585-.931-.358v5.529c0 .755-.32 1.372-1 1.372-.679 0-1-.617-1-1.372V32.014v.628-1.784c0-.227-.273-.412-.5-.412s-.5.186-.5.412v3.399c0 .535-.465.992-1 .992s-1-.457-1-.992v-3.25-1.11C19 28.388 20.512 28 22.323 28z"/><path fill="#FF61F8" d="M24.862 27.535a3.544 3.544 0 0 0 3.54-3.539c0-1.952-1.588-3.539-3.54-3.539s-3.539 1.587-3.539 3.539a3.543 3.543 0 0 0 3.539 3.539z"/><circle fill="#FFF" cx="24.862" cy="23.996" r="2.539"/></g><g opacity=".5"><path fill="#FF61F8" d="M32.688 50.738c.762 0 1.683-.426 2.094-1.043.411.617 1.16 1.043 1.922 1.043 1.198 0 2.297-1.053 2.297-2.25V35.843C39 36.06 39.792 37 40.188 37h.125c1 0 1.688-1.625 1.688-2.625v-9.137C42 23.08 40.093 22 37.775 22h-5.701C29.563 22 27 23.281 27 25.238v9.137c0 1 1.688 2.625 2.688 2.625h.125c.395 0 .187-.94.187-1.157v12.646c0 1.197 1.489 2.249 2.688 2.249z"/><path fill="#FFF" d="M32.075 23h5.701c1.979 0 3.224.588 3.224 2.238v9.137c0 .584-.104 1.625-.687 1.625h-.125C39.604 36 39 34.959 39 34.375v-8.088c0-.246-.252-.449-.5-.449s-.5.203-.5.449v22.201c0 .824-.757 1.5-1.5 1.5s-1.5-.676-1.5-1.5V35.886c0-.246.322.114.075.114h-.149c-.248 0-.926-.36-.926-.113v12.602c0 .824-.757 1.5-1.5 1.5s-1.5-.676-1.5-1.5V26.288c0-.246-.252-.449-.5-.449s-.5.202-.5.448V34.375c0 .584.396 1.625-.187 1.625h-.125C29.104 36 28 34.959 28 34.375V26.451v-1.213C28 23.588 30.095 23 32.075 23z"/><path fill="#FF61F8" d="M34.85 22.313a3.529 3.529 0 0 0 3.525-3.525 3.53 3.53 0 0 0-3.525-3.525 3.53 3.53 0 0 0-3.525 3.525 3.53 3.53 0 0 0 3.525 3.525z"/><circle fill="#FFF" cx="34.85" cy="18.787" r="2.775"/></g><path fill="#AB55A1" d="M45.25 56.65c1.016 0 2.077-.566 2.625-1.39.548.823 1.297 1.39 2.313 1.39 1.598 0 2.813-1.402 2.813-3V36.79c1 .289 1.389 1.21 1.917 1.21h.166C56.416 38 57 36.166 57 34.833V22.65c0-2.877-2.21-4.65-5.3-4.65h-7.6c-3.35 0-6.1 2.042-6.1 4.65v12.183C38 36.166 39.584 38 40.917 38h.166c.528 0 .917-.921.917-1.21v16.86c0 1.598 1.652 3 3.25 3z"/><path fill="#FFF" d="M44.1 19h7.6c2.64 0 4.3 1.45 4.3 3.65v12.183c0 .779-.138 2.167-.917 2.167h-.166C54.138 37 53 35.612 53 34.833V24.05c0-.329-.17-.6-.5-.6s-.5.271-.5.6V53.65c0 1.1-1.01 2-2 2s-2-.9-2-2v-16.8c0-.33.43.15.1.15h-.2c-.33 0-.9-.48-.9-.15V53.651c0 1.1-1.01 2-2 2s-2-.9-2-2V24.05c0-.329-.17-.6-.5-.6s-.5.271-.5.6V34.834c0 .778-.138 2.166-.917 2.166h-.166C40.138 37 39 35.612 39 34.833V24.267 22.65c0-2.2 2.46-3.65 5.1-3.65z"/><path fill="#AB55A1" d="M47.8 18.75c2.592 0 4.7-2.108 4.7-4.7 0-2.591-2.108-4.7-4.7-4.7s-4.7 2.109-4.7 4.7c0 2.592 2.108 4.7 4.7 4.7z"/><circle fill="#FFF" cx="47.8" cy="14.05" r="3.7"/></svg>