<svg xmlns="http://www.w3.org/2000/svg" width="76" height="66" viewBox="0 0 76 66"><path fill="#308BA0" d="M27.95 53.945a3.971 3.971 0 0 1-2.829-1.168L23 50.657l-2.122 2.12a3.969 3.969 0 0 1-2.828 1.168 3.971 3.971 0 0 1-2.829-1.168 4.005 4.005 0 0 1 0-5.656L17.343 45l-2.121-2.121a4.003 4.003 0 0 1 0-5.656 3.967 3.967 0 0 1 2.828-1.168c1.071 0 2.075.414 2.829 1.168L23 39.343l2.121-2.12a3.967 3.967 0 0 1 2.828-1.168c1.071 0 2.075.414 2.829 1.168a4.003 4.003 0 0 1 0 5.656L28.657 45l2.121 2.121a4.003 4.003 0 0 1 0 5.656 3.97 3.97 0 0 1-2.828 1.168z"/><path fill="#FFF" d="M27.243 45l2.828-2.828c1.167-1.167 1.167-3.076 0-4.242s-3.076-1.166-4.243 0L23 40.757l-2.829-2.827c-1.167-1.166-3.076-1.166-4.243 0s-1.167 3.075 0 4.242L18.757 45l-2.828 2.828a3.008 3.008 0 0 0 0 4.242 3.007 3.007 0 0 0 4.243 0L23 49.243l2.828 2.827a3.007 3.007 0 0 0 4.243 0 3.008 3.008 0 0 0 0-4.242L27.243 45z"/><circle fill="#308BA0" cx="35" cy="45" r="3"/><circle fill="#FFF" cx="35" cy="45" r="2"/><circle fill="#308BA0" cx="40" cy="45" r="3"/><circle fill="#FFF" cx="40" cy="45" r="2"/><circle fill="#308BA0" cx="45" cy="45" r="3"/><circle fill="#FFF" cx="45" cy="45" r="2"/><g><circle fill="#308BA0" cx="50" cy="45" r="3"/><circle fill="#FFF" cx="50" cy="45" r="2"/></g><path fill="#308BA0" d="M47.143 38.557l.832-.701c.195-.164.389-.332.571-.516a8.937 8.937 0 0 0 2.632-6.365 8.94 8.94 0 0 0-2.631-6.363 8.82 8.82 0 0 0-6.281-2.598c-2.445 0-4.793.947-6.447 2.598l-.744.744-.041.032c-.049.148.193.686.61 1.012l2.085 1.838c.59.459.966 1.146 1.012 1.896.038.625-.136 1.59-1.181 2.635-.554.554-1.815 1.189-6.693 1.189-3.384 0-6.903-.3-7.408-.345l-.071.002c-.745 0-1.429-.29-1.928-.816a2.644 2.644 0 0 1-.717-1.899c-.311-2.908-1.119-12.136.846-14.102.814-.813 1.647-1.227 2.477-1.227.805 0 1.528.383 2.093 1.106l1.761 1.993c.261.329.52.458.631.458.039 0 .09-.053.126-.097.052-.06.518-.548.808-.814 3.857-3.857 8.728-5.999 13.685-5.999 4.596 0 9.016 1.891 12.447 5.322 7.408 7.408 7.408 19.462 0 26.87-.146.146-.299.279-.453.415l-.92.834-7.101-7.102z"/><path fill="#FFF" d="M54.91 18.247c-7.071-7.071-17.493-6.549-24.749.707-.271.249-.707.707-.707.707-.697.858-1.705.405-2.283-.33l-1.799-2.039c-.691-.885-1.753-1.109-3.075.212-1.797 1.798-.551 13.36-.551 13.36-.056 1.019.73 1.805 1.747 1.747 0 0 11.741 1.069 13.361-.551 1.211-1.211 1.096-2.384.214-3.073l-2.041-1.801c-.733-.575-1.481-1.879-.623-2.575l.707-.707c3.514-3.515 9.964-4.179 14.142 0 3.899 3.898 3.899 10.243 0 14.142a9.447 9.447 0 0 1-.634.573l5.656 5.656c.211-.191.432-.369.635-.572 7.018-7.017 7.018-18.437 0-25.456z"/></svg>