<svg xmlns="http://www.w3.org/2000/svg" width="76" height="66" viewBox="0 0 76 66"><path fill="#308BA0" d="M46.708 43.941a2.677 2.677 0 0 1-1.92-.836c-2.276-1.838-9.374-7.791-9.374-10.57 0-2.465 1.409-3.343 2.727-3.343.137 0 .277.009.42.026l2.762.173a.22.22 0 0 0 .179-.078c.112-.125.163-.358.136-.624l-.009-.076.003-.075c.002-.036.174-3.621.174-6.548 0-2.074-2.302-3.684-4.281-3.684-2.03 0-3.684 1.664-3.684 3.695 0 2.468-1.384 2.998-2.545 2.998h-6.242c-2.206 0-2.209-2.188-2.211-3.006.004-8.092 6.59-14.68 14.682-14.68 8.097 0 14.683 6.579 14.683 14.669 0 3.729-.414 6.626-.431 6.747-.023.227.026.459.141.584a.216.216 0 0 0 .177.077l2.823-.179c.066-.01.191-.018.314-.018 1.379 0 2.77 1.032 2.77 3.34 0 2.475-6.508 8.178-9.367 10.562a2.658 2.658 0 0 1-1.927.846z"/><path fill="#FFF" d="M54.979 30.211l-2.717.17c-.926.111-1.591-.695-1.477-1.795 0 0 .421-2.906.421-6.605 0-7.551-6.129-13.672-13.683-13.672-7.553 0-13.677 6.133-13.682 13.684.004 1.101.11 2.007 1.213 2.007h6.242c1.545 0 1.545-1.285 1.545-1.998a4.688 4.688 0 0 1 4.685-4.689c2.586 0 5.279 2.093 5.279 4.681 0 2.986-.174 6.595-.174 6.595.114 1.1-.55 1.905-1.479 1.794l-2.715-.171c-1.113-.137-2.023.455-2.023 2.324 0 2.542 9.059 9.837 9.059 9.837.68.76 1.791.76 2.471 0 0 0 9.059-7.547 9.059-9.837-.003-1.714-.913-2.462-2.024-2.325z"/><path fill="#308BA0" d="M25.888 42C24.208 42 23 41.087 23 39.376v-2.75C23 34.915 24.208 34 25.888 34h4.91c1.678 0 3.202.915 3.202 2.626v2.75C34 41.087 32.476 42 30.798 42h-4.91z"/><path fill="#FFF" d="M30.798 35h-4.91C24.757 35 24 35.466 24 36.626v2.75c0 1.162.757 1.624 1.888 1.624h4.91C31.927 41 33 40.538 33 39.376v-2.75C33 35.466 31.927 35 30.798 35z"/><path fill="#308BA0" d="M25.888 51C24.208 51 23 50.087 23 48.376v-2.75C23 43.915 24.208 43 25.888 43h4.91c1.678 0 3.202.915 3.202 2.626v2.75C34 50.087 32.476 51 30.798 51h-4.91z"/><path fill="#FFF" d="M30.798 44h-4.91C24.757 44 24 44.466 24 45.626v2.75c0 1.162.757 1.624 1.888 1.624h4.91C31.927 50 33 49.538 33 48.376v-2.75C33 44.466 31.927 44 30.798 44z"/><path fill="#308BA0" d="M25.888 33C24.208 33 23 32.087 23 30.376v-1.75C23 26.915 24.208 26 25.888 26h4.91c1.678 0 3.202.915 3.202 2.626v1.75C34 32.087 32.476 33 30.798 33h-4.91z"/><path fill="#FFF" d="M30.798 27h-4.91C24.757 27 24 27.466 24 28.626v1.75c0 1.162.757 1.624 1.888 1.624h4.91C31.927 32 33 31.538 33 30.376v-1.75C33 27.466 31.927 27 30.798 27z"/></svg>