<svg xmlns="http://www.w3.org/2000/svg" width="76" height="66" viewBox="0 0 76 66"><path fill="#308BA0" d="M40.036 52.318c-5.883 0-11.408-2.285-15.556-6.436l-.707-.707 7.071-7.07.707.707c2.263 2.264 5.276 3.51 8.485 3.51s6.223-1.246 8.485-3.51c4.679-4.68 4.679-12.292 0-16.972-2.623-2.622-5.573-4.008-8.535-4.008-2.938 0-5.776 1.349-8.438 4.008l-.041.041-.045.036a6.004 6.004 0 0 0-.574.58l-.057.064-.066.055a1.682 1.682 0 0 0-.216.203c.029.027 2.204 1.94 2.204 1.94.59.459.966 1.146 1.012 1.896.039.625-.135 1.59-1.18 2.636-.554.554-1.815 1.189-6.693 1.189-3.384 0-6.903-.3-7.409-.345l-.069.002c-.746 0-1.431-.29-1.93-.817a2.638 2.638 0 0 1-.716-1.898c-.311-2.908-1.12-12.137.846-14.102.813-.813 1.646-1.227 2.476-1.227.805 0 1.529.383 2.094 1.105l1.761 1.994c.261.329.519.458.63.458.039 0 .09-.053.126-.097.052-.06.518-.548.808-.814 4.428-4.429 9.78-6.786 15.447-6.786 5.688 0 11.238 2.421 15.634 6.816 4.149 4.148 6.435 9.673 6.435 15.557 0 5.883-2.284 11.407-6.435 15.556-4.147 4.151-9.672 6.436-15.554 6.436z"/><path fill="#FFF" d="M54.885 15.479c-8.188-8.188-20.506-9.192-29.698 0-.271.249-.708.707-.708.707-.697.858-1.705.405-2.283-.33l-1.799-2.039c-.691-.885-1.753-1.11-3.075.212-1.797 1.797-.551 13.36-.551 13.36-.056 1.019.73 1.804 1.747 1.747 0 0 11.741 1.068 13.36-.551 1.211-1.212 1.097-2.384.214-3.073l-2.041-1.801c-.733-.576-.774-1.172.084-1.869 0 0 .413-.474.708-.707 6.364-6.363 13.316-5.068 18.386 0 5.068 5.069 5.067 13.316 0 18.385-5.068 5.069-13.315 5.069-18.386 0l-5.657 5.657c8.188 8.188 21.511 8.188 29.698 0 8.186-8.188 8.189-21.51.001-29.698z"/></svg>