<?xml version="1.0" encoding="utf-8"?>
<!-- Generator: Adobe Illustrator 16.0.0, SVG Export Plug-In . SVG Version: 6.00 Build 0)  -->
<!DOCTYPE svg PUBLIC "-//W3C//DTD SVG 1.1//EN" "http://www.w3.org/Graphics/SVG/1.1/DTD/svg11.dtd">
<svg version="1.1" id="Layer_1" xmlns="http://www.w3.org/2000/svg" xmlns:xlink="http://www.w3.org/1999/xlink" x="0px" y="0px"
	 width="76px" height="66px" viewBox="0 0 76 66" enable-background="new 0 0 76 66" xml:space="preserve">
<path fill="#D6BD05" d="M59.939,45.6C59.979,45.406,60,45.205,60,45V23c0-0.205-0.021-0.406-0.061-0.6L47.874,33L59.939,45.6z"/>
<path fill="#D6BD05" d="M24.061,22.4C24.021,22.594,24,22.795,24,23v22c0,0.205,0.021,0.406,0.061,0.6L36.126,33L24.061,22.4z"/>
<path fill="#FFFF91" d="M27,47c-1.103,0-2-0.896-2-2V23c0-1.103,0.897-2,2-2h30c1.104,0,2,0.897,2,2v22c0,1.104-0.896,2-2,2H27z"/>
<path fill="#D6BD05" d="M25,35.777l-13-1.81l13-1.81V35.777z M25,29.778l-7.062-1.809L25,26.159V29.778z M25,41.777l-7.062-1.81
	L25,38.159V41.777z"/>
<polygon fill="#D6BD05" points="36.817,32.393 36.126,33 36.817,33.607 37.5,33 "/>
<polygon fill="#D6BD05" points="47.184,33.607 47.874,33 47.184,32.393 46.5,33 "/>
<polygon fill="#FFFF91" points="37.5,33 42,37 46.5,33 42,29 "/>
<path fill="#D6BD05" d="M47.184,33.607l12.354,12.979c0.188-0.3,0.331-0.63,0.401-0.986L47.874,33L47.184,33.607z M59.223,47H24.778
	c0.549,0.609,1.336,1,2.222,1h30C57.887,48,58.673,47.609,59.223,47z M36.817,33.607L36.126,33L24.061,45.6
	c0.072,0.358,0.215,0.688,0.403,0.988L36.817,33.607z M24.778,21h34.443c-0.549-0.609-1.336-1-2.222-1H27
	C26.114,20,25.327,20.391,24.778,21z M36.817,32.393l-12.354-10.98c-0.188,0.3-0.331,0.63-0.403,0.988L36.126,33L36.817,32.393z
	 M47.184,32.393L47.874,33l12.065-10.6c-0.072-0.358-0.215-0.688-0.403-0.988L47.184,32.393z M47.184,33.607L46.5,33L42,37l-4.5-4
	l-0.683,0.607L42,38.16L47.184,33.607z M25.229,45.908l-0.765,0.68c0.092,0.146,0.198,0.283,0.314,0.412H27
	C26.227,47,25.561,46.553,25.229,45.908z M57,47h2.223c0.115-0.129,0.223-0.266,0.313-0.412l-0.765-0.68
	C58.439,46.553,57.773,47,57,47z M58.771,22.092l0.765-0.68c-0.093-0.147-0.198-0.283-0.313-0.412H57
	C57.773,21,58.439,21.447,58.771,22.092z M27,21h-2.222c-0.116,0.129-0.223,0.265-0.314,0.412l0.765,0.68
	C25.561,21.447,26.227,21,27,21z"/>
</svg>
