<svg xmlns="http://www.w3.org/2000/svg" width="85" height="66" viewBox="0 0 85 66"><path fill="#005899" d="M64 49c0 1.65-1.35 3-3 3H22c-1.65 0-3-1.35-3-3V28c0-1.65 1.35-3 3-3h39c1.65 0 3 1.35 3 3v21z"/><path fill="#0087FF" d="M22 51c-1.1 0-2-.9-2-2V28c0-1.1.9-2 2-2h39c1.1 0 2 .9 2 2v21c0 1.1-.9 2-2 2H22z"/><path fill="#005899" d="M60 52c2 0 2-1.094 2.425-1.094l-19.85-15.467c-.866-.68-2.284-.645-3.15.035l-19.85 15.414C20 51 20.9 52 22 52h38z"/><path fill="#0087FF" d="M41 36c.369 0 .719-.029.959.158L61.1 51H20.9l19.141-14.842c.24-.187.59-.158.959-.158z"/><path fill="#005899" d="M23 25s-2.425 0-2.425 1.232l19.85 17.536c.866.678 2.284.678 3.15 0l19.85-17.536C63.096 25.904 62.1 25 61 25H23z"/><path fill="#005899" d="M23 27s-3 .138-3-1.095l20.425-15.466c.866-.678 2.284-.644 3.15.034L63 25.888c-.329.328-.9 1.112-2 1.112H23z"/><path fill="#005899" d="M42 44.275c-.559 0-1.092-.16-1.502-.452l-.064-.046L25 30.587V18h34v12.587l-15.434 13.19-.064.046c-.41.292-.943.452-1.502.452z"/><path fill="#FFF" d="M26 19v11.168l.846.832 14.233 12.009c.238.171.571.269.921.269s.683-.098.921-.269L57.154 31l.846-.832V19H26z"/><path fill="#005899" d="M29 25h26v1H29v-1zm0 3h21v1H29v-1zm0 3h21v1H29v-1z"/></svg>