<svg xmlns="http://www.w3.org/2000/svg" width="76" height="66" viewBox="0 0 76 66"><path fill="#64A01F" d="M36.956 32.325c-5.219 0-9.345-3.287-10.766-8.579l-.234-3.639 1.91 2.675c2.356 2.376 5.5 3.632 9.09 3.632s6.733-1.256 9.09-3.632l1.91-2.675-.233 3.639c-1.422 5.292-5.548 8.579-10.767 8.579zm0-4.911c-4.055 0-7.373-1.48-9.8-3.928 1.226 4.563 4.698 7.839 9.8 7.839 5.103 0 8.573-3.276 9.8-7.839-2.427 2.448-5.744 3.928-9.8 3.928zm0-.371c-4.135 0-7.769-1.461-10.51-4.225l-.187-.188-.069-.256a15.705 15.705 0 0 1-.525-4.086C25.665 11.558 29.569 8 36.956 8c7.387 0 11.291 3.558 11.291 10.289a15.79 15.79 0 0 1-.524 4.086l-.07.256-.187.188c-2.741 2.763-6.375 4.224-10.51 4.224zm0-1c4.056 0 7.373-1.481 9.8-3.929a14.7 14.7 0 0 0 .491-3.825C47.247 11.848 43.396 9 36.956 9c-6.441 0-10.291 2.848-10.291 9.289a14.7 14.7 0 0 0 .491 3.825c2.427 2.448 5.745 3.929 9.8 3.929z"/><path fill="#FFF" d="M36.956 27.414c-4.055 0-7.373-1.48-9.8-3.928 1.226 4.563 4.698 7.839 9.8 7.839 5.103 0 8.573-3.276 9.8-7.839-2.427 2.448-5.744 3.928-9.8 3.928z"/><path fill="#FFF" d="M36.956 26.043c4.056 0 7.373-1.481 9.8-3.929a14.7 14.7 0 0 0 .491-3.825C47.247 11.848 43.396 9 36.956 9c-6.441 0-10.291 2.848-10.291 9.289a14.7 14.7 0 0 0 .491 3.825c2.427 2.448 5.745 3.929 9.8 3.929z"/><path fill="#64A01F" d="M33.713 48l-3.077-17.748 1.697.731c1.426.613 2.98.925 4.623.925 1.644 0 3.196-.312 4.623-.925l1.696-.731L40.199 48h-6.486z"/><path fill="#FFF" d="M31.937 31.901L34.555 47h4.802l2.619-15.099c-1.521.655-3.211 1.007-5.021 1.007-1.808 0-3.497-.351-5.018-1.007z"/><path fill="#64A01F" d="M34 47h6v7h-6z"/><path fill="#FFF" d="M35 48h4v5h-4z"/><path fill="#64A01F" d="M32.956 61c-3.007 0-10-1.169-10-12 0-.88.012-1.797.023-2.729.066-5.06.149-11.353-1.975-13.503-.517-.524-1.167-.768-2.048-.768H18v-4h.956c1.966 0 3.613.658 4.896 1.958C27.15 33.3 27.06 40.217 26.98 46.32c-.012.918-.023 1.814-.023 2.68 0 7.091 3.207 8 6 8 .949 0 1.639-.186 1.895-.507.137-.228.219-1.254.109-2.401l-.043-.441.297-.33.297-.321h3.227l.188.758c.007.03.608 3.236-.92 5.193C36.945 60.311 35.246 61 32.956 61z"/><path fill="#FFF" d="M32.956 60c-3.361 0-9-1.43-9-11 0-.876.012-1.788.023-2.717.072-5.518.176-11.77-2.242-14.218C21.031 31.349 20 31 19 31v-2c2 0 3.074.559 4.162 1.66 3.006 3.045 2.907 9.74 2.829 15.648-.012.92-.029 1.822-.029 2.689 0 6.057 2.287 9 6.998 9 1.311 0 2.21-.298 2.676-.885.603-.762.293-3.352.321-3.115h2c.021.082.463 2.799-.738 4.336C36.356 59.439 34.922 60 32.956 60z"/><path fill="#64A01F" d="M36.456 10a.5.5 0 1 1 0 1 .5.5 0 0 1 0-1zm0 2a.5.5 0 1 1 0 1 .5.5 0 0 1 0-1zm0 2a.5.5 0 1 1 0 1 .5.5 0 0 1 0-1zm0 2a.5.5 0 1 1 0 1 .5.5 0 0 1 0-1zm0 2a.5.5 0 1 1 0 1 .5.5 0 0 1 0-1zm0 2a.5.5 0 1 1 0 1 .5.5 0 0 1 0-1zm0 2a.5.5 0 1 1 0 1 .5.5 0 0 1 0-1zm0 2a.5.5 0 1 1 0 1 .5.5 0 0 1 0-1zm-2-14a.5.5 0 1 1 0 1 .5.5 0 0 1 0-1zm0 2a.5.5 0 1 1 0 1 .5.5 0 0 1 0-1zm0 2a.5.5 0 1 1 0 1 .5.5 0 0 1 0-1zm0 2a.5.5 0 1 1 0 1 .5.5 0 0 1 0-1zm0 2a.5.5 0 1 1 0 1 .5.5 0 0 1 0-1zm0 2a.5.5 0 1 1 0 1 .5.5 0 0 1 0-1zm0 2a.5.5 0 1 1 0 1 .5.5 0 0 1 0-1zm0 2a.5.5 0 1 1 0 1 .5.5 0 0 1 0-1zm-2-14a.5.5 0 1 1 0 1 .5.5 0 0 1 0-1zm0 2a.5.5 0 1 1 0 1 .5.5 0 0 1 0-1zm0 2a.5.5 0 1 1 0 1 .5.5 0 0 1 0-1zm0 2a.5.5 0 1 1 0 1 .5.5 0 0 1 0-1zm0 2a.5.5 0 1 1 0 1 .5.5 0 0 1 0-1zm0 2a.5.5 0 1 1 0 1 .5.5 0 0 1 0-1zm0 2a.5.5 0 1 1 0 1 .5.5 0 0 1 0-1zm0 2a.5.5 0 1 1 0 1 .5.5 0 0 1 0-1zm-2-14a.5.5 0 1 1 0 1 .5.5 0 0 1 0-1zm0 2a.5.5 0 1 1 0 1 .5.5 0 0 1 0-1zm0 2a.5.5 0 1 1 0 1 .5.5 0 0 1 0-1zm0 2a.5.5 0 1 1 0 1 .5.5 0 0 1 0-1zm0 2a.5.5 0 1 1 0 1 .5.5 0 0 1 0-1zm0 2a.5.5 0 1 1 0 1 .5.5 0 0 1 0-1zm0 2a.5.5 0 1 1 0 1 .5.5 0 0 1 0-1zm0 2a.5.5 0 1 1 0 1 .5.5 0 0 1 0-1zm-2-12a.5.5 0 1 1 0 1 .5.5 0 0 1 0-1zm0 2a.5.5 0 1 1 0 1 .5.5 0 0 1 0-1zm0 2a.5.5 0 1 1 0 1 .5.5 0 0 1 0-1zm0 2a.5.5 0 1 1 0 1 .5.5 0 0 1 0-1zm0 2a.5.5 0 1 1 0 1 .5.5 0 0 1 0-1zm0 2a.5.5 0 1 1 0 1 .5.5 0 0 1 0-1zm10-12a.5.5 0 1 1 0 1 .5.5 0 0 1 0-1zm0 2a.5.5 0 1 1 0 1 .5.5 0 0 1 0-1zm0 2a.5.5 0 1 1 0 1 .5.5 0 0 1 0-1zm0 2a.5.5 0 1 1 0 1 .5.5 0 0 1 0-1zm0 2a.5.5 0 1 1 0 1 .5.5 0 0 1 0-1zm0 2a.5.5 0 1 1 0 1 .5.5 0 0 1 0-1zm0 2a.5.5 0 1 1 0 1 .5.5 0 0 1 0-1zm0 2a.5.5 0 1 1 0 1 .5.5 0 0 1 0-1zm2-14a.5.5 0 1 1 0 1 .5.5 0 0 1 0-1zm0 2a.5.5 0 1 1 0 1 .5.5 0 0 1 0-1zm0 2a.5.5 0 1 1 0 1 .5.5 0 0 1 0-1zm0 2a.5.5 0 1 1 0 1 .5.5 0 0 1 0-1zm0 2a.5.5 0 1 1 0 1 .5.5 0 0 1 0-1zm0 2a.5.5 0 1 1 0 1 .5.5 0 0 1 0-1zm0 2a.5.5 0 1 1 0 1 .5.5 0 0 1 0-1zm0 2a.5.5 0 1 1 0 1 .5.5 0 0 1 0-1zm2-14a.5.5 0 1 1 0 1 .5.5 0 0 1 0-1zm0 2a.5.5 0 1 1 0 1 .5.5 0 0 1 0-1zm0 2a.5.5 0 1 1 0 1 .5.5 0 0 1 0-1zm0 2a.5.5 0 1 1 0 1 .5.5 0 0 1 0-1zm0 2a.5.5 0 1 1 0 1 .5.5 0 0 1 0-1zm0 2a.5.5 0 1 1 0 1 .5.5 0 0 1 0-1zm0 2a.5.5 0 1 1 0 1 .5.5 0 0 1 0-1zm0 2a.5.5 0 1 1 0 1 .5.5 0 0 1 0-1zm2-14a.5.5 0 1 1 0 1 .5.5 0 0 1 0-1zm0 2a.5.5 0 1 1 0 1 .5.5 0 0 1 0-1zm0 2a.5.5 0 1 1 0 1 .5.5 0 0 1 0-1zm0 2a.5.5 0 1 1 0 1 .5.5 0 0 1 0-1zm0 2a.5.5 0 1 1 0 1 .5.5 0 0 1 0-1zm0 2a.5.5 0 1 1 0 1 .5.5 0 0 1 0-1zm0 2a.5.5 0 1 1 0 1 .5.5 0 0 1 0-1zm0 2a.5.5 0 1 1 0 1 .5.5 0 0 1 0-1zm2-10a.5.5 0 1 1 0 1 .5.5 0 0 1 0-1zm0 2a.5.5 0 1 1 0 1 .5.5 0 0 1 0-1zm0 2a.5.5 0 1 1 0 1 .5.5 0 0 1 0-1zm0 2a.5.5 0 1 1 0 1 .5.5 0 0 1 0-1zm0 2a.5.5 0 1 1 0 1 .5.5 0 0 1 0-1z"/></svg>