<svg xmlns="http://www.w3.org/2000/svg" width="85" height="66" viewBox="0 0 85 66"><path fill="#FFF" d="M32.4 17h-7.6c-2.64 0-4.8 1.7-4.8 3.9v8.183c0 .778.638 1.917 1.417 1.917h.166C22.362 31 23 29.861 23 29.083V22.3c0-.329.17-.6.5-.6s.5.271.5.6v1.4-.8 19c0 1.1 1.01 2 2 2s2-.9 2-2V31.1c0-.33.07-.1.4-.1h.2c.33 0 .4-.23.4.1v10.8c0 1.1 1.01 2 2 2s2-.9 2-2V22.3c0-.329.17-.6.5-.6s.5.271.5.6V29.083c0 .778.638 1.917 1.417 1.917h.166C36.362 31 37 29.861 37 29.083v-6.566V20.9c0-2.2-1.96-3.9-4.6-3.9z"/><circle fill="#FFF" cx="28.7" cy="12.3" r="3.7"/><path fill="#D6BD05" d="M32.4 16h-.277c-.386 0-.845 0-1.355 1H32.4c2.64 0 4.6 1.7 4.6 3.9v8.183c0 .778-.638 1.917-1.417 1.917h-.166C34.638 31 34 29.861 34 29.083V22.3c0-.329-.17-.6-.5-.6s-.5.271-.5.6v19.6c0 1.1-1.01 2-2 2s-2-.9-2-2V31.1c0-.33-.07-.1-.4-.1h-.2c-.33 0-.4-.23-.4.1v10.8c0 1.1-1.01 2-2 2s-2-.9-2-2v-19 .8-1.4c0-.329-.17-.6-.5-.6s-.5.271-.5.6V29.083c0 .778-.638 1.917-1.417 1.917h-.166C20.638 31 20 29.861 20 29.083v-6.566V20.9c0-2.2 2.16-3.9 4.8-3.9h1.833c-.511-1-.97-1-1.355-1H24.8c-3.09 0-5.8 2.023-5.8 4.9v8.183C19 30.416 20.084 32 21.417 32h.166c.528 0 1.019-.671 1.417-.96V41.9c0 1.598 1.402 3 3 3 1.016 0 1.952-.566 2.5-1.393.548.823 1.484 1.393 2.5 1.393 1.598 0 3-1.402 3-3V31.04c.398.289.889.96 1.417.96h.166C36.916 32 38 30.416 38 29.083V20.9c0-2.608-2.25-4.9-5.6-4.9zM25 12.55c0-2.044 1.656-3.825 3.7-3.825 2.043 0 3.7 1.844 3.7 3.888 0 1.376-.76 2.388-1.875 3.388h1.598c.786-1 1.277-2.211 1.277-3.45 0-2.591-2.108-4.825-4.7-4.825S24 10.021 24 12.612c0 1.24.491 2.388 1.277 3.388h1.597C25.76 15 25 13.926 25 12.55zM26.633 17h4.135c.511-1 .97-1 1.355-1h-1.598c-.54 0-1.158.5-1.825.5-.668 0-1.285-.5-1.826-.5h-1.597c.386 0 .845 0 1.356 1zm2.067.5c.745 0 1.44-.5 2.067-.5h-4.135c.628 0 1.323.5 2.068.5z"/><path fill="#D6BD05" d="M55.426 59c-1.457-1-3.012-.825-4.656-1.436-1.103-.406-2.242-.955-3.289-1.17-1.222-.25-2.528-1.021-4.049-1.845-1.07-.577-2.178-1.209-3.229-1.62-2.304-.904-3.334-2.723-4.161-4.166-.532-.934-.993-1.742-1.72-2.324l-1.106-.889.453-1.244c.47-1.353 2.489-2.306 4.408-2.306h.126c-3.524-4-7.512-7.482-9.376-9.635-1.812-2.096-2.753-5.408-.543-7.523.688-.66 1.56-1.058 2.518-1.058 1.81 0 3.453 1.21 4.683 2.286.725.635 1.527 1.317 2.369 2.047 1.986 1.721 4.203 3.635 6.126 5.388a34.456 34.456 0 0 1 2.328-1.995c.742-.58 1.717-.889 2.812-.889a5.62 5.62 0 0 1 1.611.229c1.731-1.481 2.084-1.669 2.229-1.749a5.336 5.336 0 0 1 2.509-.605c1.258 0 2.467.416 3.461 1.169.799-.203 1.866-.421 2.771-.421 2.123 0 3.619 1.879 4.802 3.716 3.851 5.985 4.729 8.418 3.87 14.517C69.588 53.051 67.198 59 55.451 59h-.025z"/><path fill="#FFF" d="M55.426 58c-1.277-1-2.75-.795-4.309-1.372-1.139-.421-2.315-.981-3.438-1.212-1.076-.221-2.324-.96-3.771-1.742-1.098-.594-2.232-1.238-3.342-1.675-1.976-.774-2.869-2.354-3.658-3.731-.559-.978-1.088-1.908-1.964-2.605l-.554-.445.221-.771c.301-.86 1.846-1.826 3.466-1.826.605 0 1.196.128 1.755.384.35.158.711.438 1.17.797.697.542 1.631 1.271 2.448 1.418-3.634-3.418-11.112-10.52-13.867-13.7-1.511-1.748-2.346-4.388-.607-6.051a2.593 2.593 0 0 1 1.826-.732c1.493 0 3.013 1.177 4.024 2.063a575 575 0 0 0 2.373 2.063c2.227 1.929 4.743 4.108 6.801 6.015.338-.348 1.4-1.396 2.922-2.58.717-.559 1.594-.676 2.201-.676.557 0 1.236.104 1.822.368.937-.811 2.119-1.807 2.49-2.006a4.343 4.343 0 0 1 2.035-.487c1.193 0 2.338.456 3.223 1.271.742-.209 2.017-.521 3.012-.521 1.643 0 2.924 1.646 3.961 3.258 3.748 5.827 4.541 8.029 3.721 13.834C68.621 52.744 66.404 58 55.451 58h-.025z"/></svg>