<svg xmlns="http://www.w3.org/2000/svg" width="76" height="66" viewBox="0 0 76 66"><path fill="#A8721B" d="M28.604 24c.05.527.195 2.029.381 2.752l.018.068.008.071c.099.902-.119 1.681-.63 2.252-.558.623-1.396.938-2.494.938-2.552-.004-7.663-6.716-9.788-9.67a2.809 2.809 0 0 1 .006-3.831c2.704-3.634 7.53-9.663 9.782-9.663 1.324 0 2.073.525 2.468.967.517.577.75 1.366.656 2.222l-.008.071-.018.07c-.188.728-.333 2.232-.382 2.752H41c10.201 0 18.5 8.299 18.5 18.5S51.201 50 41 50h-4c-.999 0-2-.992-2-1.996v-6.999C35 40 35.999 39 37 39h4c4.136 0 7.5-3.364 7.5-7.5S45.136 24 41 24H28.604z"/><path fill="#FFF" d="M27.864 23c-.699 0 .153 4.001.153 4.001.126 1.144-.417 2.081-2.13 2.081-2.332-.004-9.018-9.312-9.018-9.312a1.81 1.81 0 0 1 0-2.541s6.92-9.312 9.018-9.312c1.57 0 2.256.934 2.13 2.079 0 0-.853 4.003-.153 4.003H41c9.649 0 17.5 7.851 17.5 17.5S50.649 49 41 49h-4s-1 .006-1-.997v-7.006S35.999 40 37 40h4c4.687 0 8.5-3.813 8.5-8.5S45.687 23 41 23H27.864z"/></svg>