<?xml version="1.0" encoding="utf-8"?>
<!-- Generator: Adobe Illustrator 16.0.0, SVG Export Plug-In . SVG Version: 6.00 Build 0)  -->
<!DOCTYPE svg PUBLIC "-//W3C//DTD SVG 1.1//EN" "http://www.w3.org/Graphics/SVG/1.1/DTD/svg11.dtd">
<svg version="1.1" xmlns="http://www.w3.org/2000/svg" xmlns:xlink="http://www.w3.org/1999/xlink" x="0px" y="0px" width="76px"
	 height="66px" viewBox="0 0 76 66" enable-background="new 0 0 76 66" xml:space="preserve">
<g id="Layer_1" display="none">
	<path display="inline" fill="#A8721B" d="M34,48c0,1-1,2-2,2h-5c-1,0-2-1-2-2v-7c0-1,1-2,2-2h5c1,0,2,1,2,2V48z"/>
	<g display="inline">
		<path fill="#FFFFFF" d="M27,49c-0.449,0-1-0.552-1-1v-7c0-0.448,0.551-1,1-1h5c0.449,0,1,0.552,1,1v7c0,0.448-0.551,1-1,1H27z"/>
	</g>
	<path display="inline" fill="#A8721B" d="M24,48c0,1-1,2-2,2h-3c-1,0-2-1-2-2v-7c0-1,1-2,2-2h3c1,0,2,1,2,2V48z"/>
	<g display="inline">
		<path fill="#FFFFFF" d="M19,49c-0.449,0-1-0.552-1-1v-7c0-0.448,0.551-1,1-1h3c0.449,0,1,0.552,1,1v7c0,0.448-0.551,1-1,1H19z"/>
	</g>
</g>
<g id="Icons">
	<g>
		<path fill="#A8721B" d="M28.604,24c0.05,0.527,0.195,2.029,0.381,2.752l0.018,0.068l0.008,0.071
			c0.099,0.902-0.119,1.681-0.63,2.252c-0.558,0.623-1.396,0.938-2.494,0.938c-2.552-0.004-7.663-6.716-9.788-9.67
			c-1.004-1.076-1.002-2.761,0.006-3.831c2.704-3.634,7.53-9.663,9.782-9.663c1.324,0,2.073,0.525,2.468,0.967
			c0.517,0.577,0.75,1.366,0.656,2.222l-0.008,0.071l-0.018,0.07c-0.188,0.728-0.333,2.232-0.382,2.752H31h10
			c10.201,0,18.5,8.299,18.5,18.5S51.201,50,41,50c0,0-3.001,0-4,0s-2-0.992-2-1.996s0-5.994,0-6.999S35.999,39,37,39s4,0,4,0
			c4.136,0,7.5-3.364,7.5-7.5S45.136,24,41,24H31H28.604z"/>
		<g>
			<path fill="#FFFFFF" d="M27.864,23c-0.699,0,0.153,4.001,0.153,4.001c0.126,1.144-0.417,2.081-2.13,2.081
				c-2.332-0.004-9.018-9.312-9.018-9.312c-0.694-0.699-0.694-1.845,0-2.541c0,0,6.92-9.312,9.018-9.312
				c1.57,0,2.256,0.934,2.13,2.079c0,0-0.853,4.003-0.153,4.003H31h10c9.649,0,17.5,7.851,17.5,17.5S50.649,49,41,49h-4
				c0,0-1,0.006-1-0.997s0-7.006,0-7.006S35.999,40,37,40s4,0,4,0c4.687,0,8.5-3.813,8.5-8.5S45.687,23,41,23H31H27.864z"/>
		</g>
	</g>
</g>
</svg>
