<svg xmlns="http://www.w3.org/2000/svg" width="76" height="66" viewBox="0 0 76 66"><g opacity=".4"><path fill="#FF61F8" d="M31 56.65c-1.016 0-1.952-.566-2.5-1.39-.548.823-1.484 1.39-2.5 1.39-1.598 0-3-1.402-3-3V36.79c-.398.289-.889 1.21-1.417 1.21h-.166C20.084 38 19 36.166 19 34.833V22.65c0-2.877 2.71-4.65 5.8-4.65h7.6c3.35 0 5.6 2.042 5.6 4.65v12.183C38 36.166 36.916 38 35.583 38h-.166c-.528 0-1.019-.921-1.417-1.21v16.86c0 1.598-1.402 3-3 3z"/><path fill="#FFF" d="M32.4 19h-7.6c-2.64 0-4.8 1.45-4.8 3.65v12.183c0 .779.638 2.167 1.417 2.167h.166C22.362 37 23 35.612 23 34.833V24.05c0-.329.17-.6.5-.6s.5.271.5.6V53.65c0 1.1 1.01 2 2 2s2-.9 2-2v-16.8c0-.33.07.15.4.15h.2c.33 0 .4-.48.4-.15V53.651c0 1.1 1.01 2 2 2s2-.9 2-2V24.05c0-.329.17-.6.5-.6s.5.271.5.6V34.834c0 .778.638 2.166 1.417 2.166h.166C36.362 37 37 35.612 37 34.833V24.267 22.65c0-2.2-1.96-3.65-4.6-3.65z"/><path fill="#FF61F8" d="M28.7 18.75a4.705 4.705 0 0 1-4.7-4.7c0-2.591 2.108-4.7 4.7-4.7s4.7 2.109 4.7 4.7c0 2.592-2.108 4.7-4.7 4.7z"/><circle fill="#FFF" cx="28.7" cy="14.05" r="3.7"/></g><g opacity=".4"><path fill="#FF61F8" d="M53 45.543a1.844 1.844 0 0 1-1.5-.735 1.844 1.844 0 0 1-1.5.735c-1.178 0-2-.976-2-2.372v-7.188a2.077 2.077 0 0 1-1.031.268c-1.123 0-1.969-.856-1.969-1.992v-4.36C45 27.784 46.666 27 48.961 27h5.216c2.251 0 3.823.75 3.823 2.897v4.36c0 1.08-.916 1.992-2 1.992-.361 0-.703-.102-1-.276v7.197c0 1.397-.822 2.373-2 2.373z"/><path fill="#FFF" d="M54.177 28h-5.216C47.149 28 46 28.388 46 29.897V34.257c0 .535.344.992.969.992S48 34.793 48 34.258v-3.399c0-.227.273-.412.5-.412s.5.186.5.412V32.643v-.628 11.157c0 .755.321 1.372 1 1.372.68 0 1-.617 1-1.372V37.641c0-.226.205.359.432.359h.137c.226 0 .431-.585.431-.358v5.529c0 .755.32 1.372 1 1.372.679 0 1-.617 1-1.372V32.014v.628-1.784c0-.227.273-.412.5-.412s.5.186.5.412v3.399c0 .535.465.992 1 .992s1-.457 1-.992v-3.25-1.11C57 28.388 55.988 28 54.177 28z"/><path fill="#FF61F8" d="M51.638 27.535a3.544 3.544 0 0 1-3.54-3.539c0-1.952 1.588-3.539 3.54-3.539s3.539 1.587 3.539 3.539a3.543 3.543 0 0 1-3.539 3.539z"/><circle fill="#FFF" cx="51.638" cy="23.996" r="2.539"/></g><path fill="#AB55A1" d="M43.563 50.738c-.762 0-1.558-.426-1.969-1.043-.411.617-1.348 1.043-2.109 1.043-1.198 0-2.484-1.053-2.484-2.25V35.843C37 36.06 36.708 37 36.313 37h-.125c-1 0-2.188-1.625-2.188-2.625v-9.137C34 23.08 36.407 22 38.725 22h5.701C46.938 22 49 23.281 49 25.238v9.137c0 1-1.188 2.625-2.188 2.625h-.125c-.395 0-.687-.94-.687-1.157v12.646c0 1.197-1.239 2.249-2.437 2.249z"/><path fill="#FFF" d="M44.425 23h-5.701C36.745 23 35 23.588 35 25.238v9.137c0 .584.604 1.625 1.188 1.625h.125c.583 0 .687-1.041.687-1.625v-8.088c0-.246.252-.449.5-.449s.5.203.5.449v22.201c0 .824.757 1.5 1.5 1.5s1.5-.676 1.5-1.5V35.886c0-.246.178.114.425.114h.149c.248 0 .426-.36.426-.113v12.602c0 .824.757 1.5 1.5 1.5s1.5-.676 1.5-1.5V26.288c0-.246.252-.449.5-.449s.5.203.5.449V34.376c0 .583.104 1.624.688 1.624h.125C47.396 36 48 34.959 48 34.375V26.451v-1.213C48 23.588 46.405 23 44.425 23z"/><path fill="#AB55A1" d="M41.65 22.313a3.529 3.529 0 0 1-3.525-3.525 3.53 3.53 0 0 1 3.525-3.525 3.53 3.53 0 0 1 3.525 3.525 3.53 3.53 0 0 1-3.525 3.525z"/><circle fill="#FFF" cx="41.65" cy="18.787" r="2.775"/></svg>