<svg xmlns="http://www.w3.org/2000/svg" width="76" height="66" viewBox="0 0 76 66"><path fill="#308BA0" d="M21.772 45.883c-4.15-4.148-6.435-9.673-6.435-15.556 0-5.884 2.285-11.409 6.435-15.557 4.396-4.395 9.946-6.816 15.634-6.816 5.667 0 11.02 2.357 15.447 6.786.289.266.756.754.808.814.036.044.087.097.126.097.111 0 .369-.129.631-.458l1.76-1.994c.565-.722 1.289-1.105 2.095-1.105.829 0 1.663.414 2.476 1.227 1.967 1.965 1.157 11.194.846 14.102a2.633 2.633 0 0 1-.715 1.898 2.63 2.63 0 0 1-1.931.817l-.069-.002c-.506.045-4.024.345-7.408.345-4.879 0-6.14-.635-6.693-1.189-1.045-1.046-1.219-2.011-1.18-2.636a2.606 2.606 0 0 1 1.012-1.896s2.175-1.913 2.204-1.94a1.682 1.682 0 0 0-.216-.203l-.066-.055-.057-.064a6.004 6.004 0 0 0-.574-.58l-.045-.036-.041-.041c-2.661-2.659-5.499-4.008-8.438-4.008-2.962 0-5.912 1.386-8.535 4.008-4.679 4.679-4.679 12.292 0 16.972 2.263 2.264 5.276 3.51 8.485 3.51s6.222-1.246 8.485-3.51l.707-.707 7.07 7.07-.707.707c-4.147 4.15-9.672 6.436-15.556 6.436-5.882-.001-11.407-2.286-15.555-6.436z"/><path fill="#FFF" d="M22.479 45.177c8.187 8.188 21.51 8.188 29.698 0L46.52 39.52c-5.07 5.069-13.317 5.069-18.386 0-5.067-5.068-5.068-13.315 0-18.385 5.069-5.068 12.021-6.363 18.386 0 .295.233.708.707.708.707.857.697.816 1.293.084 1.869l-2.041 1.801c-.883.689-.997 1.861.214 3.073 1.619 1.619 13.36.551 13.36.551 1.017.057 1.803-.728 1.746-1.747 0 0 1.246-11.563-.551-13.36-1.322-1.322-2.384-1.097-3.074-.212l-1.799 2.039c-.578.735-1.587 1.188-2.283.33 0 0-.438-.458-.709-.707-9.191-9.192-21.51-8.188-29.697 0-8.188 8.188-8.185 21.51.001 29.698z"/></svg>