<svg xmlns="http://www.w3.org/2000/svg" width="76" height="66" viewBox="0 0 76 66"><path fill="#AB55A1" d="M47.282 51.334c-3.584-1.793-5.412-4.966-6.064-6.334H38c-12.287 0-21.911-7.136-21.911-16.246 0-9.111 9.625-16.249 21.911-16.249 12.082 0 21.911 7.397 21.911 16.49 0 5.271-3.281 10.079-9.011 13.215-1.004 1.229-2.957 4.202-2.19 8.033l.401 2.006-1.829-.915z"/><path fill="#FFF" d="M58.911 28.995c0-8.555-9.362-15.49-20.911-15.49s-20.911 6.694-20.911 15.249S26.451 44 38 44h3.872s1.599 4.309 5.856 6.439c-.943-4.725 1.875-8.25 2.525-9.02 5.245-2.812 8.658-7.262 8.658-12.424z"/></svg>