<svg xmlns="http://www.w3.org/2000/svg" width="76" height="66" viewBox="0 0 76 66"><g opacity=".25"><path fill="#FF61F8" d="M30.5 56.65c-1.016 0-1.702-.566-2.25-1.39-.548.823-1.859 1.39-2.875 1.39-1.598 0-3.375-1.402-3.375-3V36.79c0 .289.111 1.21-.417 1.21h-.166C20.084 38 18 36.166 18 34.833V22.65c0-2.877 3.71-4.65 6.8-4.65h7.6c3.35 0 4.6 2.042 4.6 4.65v12.183C37 36.166 36.916 38 35.583 38h-.166C34.889 38 34 37.079 33 36.79v16.86c0 1.598-.902 3-2.5 3z"/><path fill="#FFF" d="M32.4 19h-7.6c-2.64 0-5.8 1.45-5.8 3.65v12.183C19 35.612 20.638 37 21.417 37h.166c.779 0 .417-1.388.417-2.167V24.05c0-.329.17-.6.5-.6s.5.271.5.6V53.65c0 1.1 1.01 2 2 2s2-.9 2-2v-16.8c0-.33 1.07.15 1.4.15h.2c.33 0-.6-.48-.6-.15V53.651c0 1.1 1.01 2 2 2s2-.9 2-2V24.05c0-.329.17-.6.5-.6s.5.271.5.6V34.834C33 35.612 34.638 37 35.417 37h.166c.779 0 .417-1.388.417-2.167V24.267 22.65c0-2.2-.96-3.65-3.6-3.65z"/><path fill="#FF61F8" d="M28.7 18.75a4.705 4.705 0 0 1-4.7-4.7c0-2.591 2.108-4.7 4.7-4.7s4.7 2.109 4.7 4.7c0 2.592-2.108 4.7-4.7 4.7z"/><circle fill="#FFF" cx="28.7" cy="14.05" r="3.7"/></g><g opacity=".5"><path fill="#FF61F8" d="M43.063 50.738c-.762 0-1.308-.426-1.719-1.043-.411.617-1.723 1.043-2.484 1.043-1.198 0-2.859-1.053-2.859-2.25V35.843C36 36.06 36.708 37 36.313 37h-.125c-1 0-3.188-1.625-3.188-2.625v-9.137C33 23.08 36.407 22 38.725 22h5.701C46.938 22 48 23.281 48 25.238v9.137c0 1-.188 2.625-1.188 2.625h-.125C46.292 37 45 36.06 45 35.843v12.646c0 1.197-.739 2.249-1.937 2.249z"/><path fill="#FFF" d="M44.425 23h-5.701C36.745 23 34 23.588 34 25.238v9.137C34 34.959 35.604 36 36.188 36h.125c.583 0-.313-1.041-.313-1.625v-8.088c0-.246.252-.449.5-.449s.5.203.5.449v22.201c0 .824.757 1.5 1.5 1.5s1.5-.676 1.5-1.5V35.886c0-.246 1.178.114 1.425.114h.149c.248 0-.574-.36-.574-.113v12.602c0 .824.757 1.5 1.5 1.5s1.5-.676 1.5-1.5V26.288c0-.246.252-.449.5-.449s.5.203.5.449V34.376C45 34.959 46.104 36 46.688 36h.125c.583 0 .187-1.041.187-1.625V26.451v-1.213c0-1.65-.595-2.238-2.575-2.238z"/><path fill="#FF61F8" d="M41.65 22.313a3.529 3.529 0 0 1-3.525-3.525 3.53 3.53 0 0 1 3.525-3.525 3.53 3.53 0 0 1 3.525 3.525 3.53 3.53 0 0 1-3.525 3.525z"/><circle fill="#FFF" cx="41.65" cy="18.787" r="2.775"/></g><path fill="#AB55A1" d="M52.5 45.543c-.622 0-.895-.272-1.25-.735-.355.463-1.253.735-1.875.735-1.178 0-2.375-.976-2.375-2.372v-7.188c0 .171-.652.268-1.031.268-1.123 0-1.969-.856-1.969-1.992v-4.36C44 27.784 46.666 27 48.961 27h5.216c2.251 0 2.823.75 2.823 2.897v4.36c0 1.08-.916 1.992-2 1.992-.361 0 0-.102-1-.276v7.197c0 1.397-.322 2.373-1.5 2.373z"/><path fill="#FFF" d="M54.177 28h-5.216C47.149 28 45 28.388 45 29.897V34.257c0 .535.344.992.969.992S47 34.793 47 34.258v-3.399c0-.227.273-.412.5-.412s.5.186.5.412V32.643v-.628 11.157c0 .755.321 1.372 1 1.372.68 0 1-.617 1-1.372V37.641c0-.226 1.205.359 1.432.359h.137c.226 0-.569-.585-.569-.358v5.529c0 .755.32 1.372 1 1.372.679 0 1-.617 1-1.372V32.014v.628-1.784c0-.227.273-.412.5-.412s.5.186.5.412v3.399c0 .535.465.992 1 .992s1-.457 1-.992v-3.25-1.11C56 28.388 55.988 28 54.177 28z"/><path fill="#AB55A1" d="M51.638 27.535a3.544 3.544 0 0 1-3.54-3.539c0-1.952 1.588-3.539 3.54-3.539s3.539 1.587 3.539 3.539a3.543 3.543 0 0 1-3.539 3.539z"/><circle fill="#FFF" cx="51.638" cy="23.996" r="2.539"/></svg>