<svg xmlns="http://www.w3.org/2000/svg" width="76" height="66" viewBox="0 0 76 66"><path fill="#64A01F" d="M16 23h8v14h-8z"/><path fill="#FFF" d="M17 36h6V24h-6z"/><path fill="#64A01F" d="M25 37V23l11-11v36z"/><path fill="#FFF" d="M26 36.586V23.414l9-9v31.172z"/><path fill="#64A01F" d="M36.182 35.343l1.172-1.042a6.643 6.643 0 0 0 2.238-4.952 6.59 6.59 0 0 0-1.92-4.658l-1.09-1.104 3.393-3.395 1.104 1.114a11.364 11.364 0 0 1 3.313 8.042c0 3.246-1.399 6.355-3.844 8.531l-1.158 1.033-3.208-3.569z"/><path fill="#FFF" d="M40.368 22.011l-.396-.4-1.979 1.98.392.396a7.583 7.583 0 0 1 2.208 5.361 7.643 7.643 0 0 1-2.573 5.699l-.42.374 1.871 2.082.416-.371a10.443 10.443 0 0 0 3.508-7.784 10.38 10.38 0 0 0-3.027-7.337z"/><path fill="#64A01F" d="M40.26 39.882l1.164-1.044a12.736 12.736 0 0 0 4.262-9.489 12.63 12.63 0 0 0-3.703-8.963l-1.096-1.104 3.396-3.394 1.104 1.11c3.288 3.31 5.102 7.695 5.102 12.351 0 4.976-2.135 9.737-5.857 13.064l-1.16 1.039-3.212-3.57z"/><path fill="#FFF" d="M44.676 17.703l-.396-.399-1.979 1.98.395.396a13.64 13.64 0 0 1 3.994 9.668c0 3.896-1.674 7.628-4.596 10.234l-.418.375 1.871 2.083.416-.373a16.539 16.539 0 0 0 5.523-12.319c0-4.388-1.709-8.524-4.81-11.645z"/><path fill="#64A01F" d="M44.611 44.725l1.162-1.043a19.264 19.264 0 0 0 6.425-14.333c0-5.113-1.993-9.931-5.61-13.565l-1.098-1.105 3.394-3.392 1.103 1.106C54.51 16.936 57 22.957 57 29.349a24.078 24.078 0 0 1-8.02 17.907l-1.16 1.038-3.209-3.569z"/><path fill="#FFF" d="M49.277 13.099l-.396-.397-1.98 1.979.396.397c3.806 3.823 5.902 8.892 5.902 14.271a20.265 20.265 0 0 1-6.757 15.077l-.418.375 1.873 2.083.416-.373A23.077 23.077 0 0 0 56 29.349c0-6.126-2.389-11.897-6.723-16.25z"/></svg>