<svg xmlns="http://www.w3.org/2000/svg" width="76" height="66" viewBox="0 0 76 66"><path fill="#FFF" d="M47.816 18.938a3.876 3.876 0 0 1-3.601-2.479 3.827 3.827 0 0 1 .083-2.945 3.83 3.83 0 0 1 2.143-2.023c.44-.168.902-.254 1.371-.254 1.586 0 3.033.996 3.599 2.479a3.825 3.825 0 0 1-.084 2.946 3.828 3.828 0 0 1-2.142 2.024 3.82 3.82 0 0 1-1.369.252z"/><path fill="#A8721B" d="M47.813 11.612a3.475 3.475 0 1 1-1.236.229 3.46 3.46 0 0 1 1.236-.229m.001-.75a4.224 4.224 0 0 0-3.857 2.498 4.194 4.194 0 0 0-.092 3.232 4.25 4.25 0 0 0 3.95 2.721 4.22 4.22 0 0 0 1.502-.277 4.199 4.199 0 0 0 2.352-2.222 4.2 4.2 0 0 0 .092-3.233 4.245 4.245 0 0 0-3.947-2.719z"/><path fill="#FFF" d="M29.568 30.965c.002-.443.006-.983.016-1.583h-9.09a1 1 0 1 0 0 2h8.673l.401-.417zm-.798-6.583H16.494a1 1 0 1 0 0 2h12.174c.026-.653.059-1.323.102-2zM55.232 51.796c-1.991 0-3.084-2.089-3.129-2.178l-3.045-7.496-4.091-5.245-.542 4.352a.373.373 0 0 1-.08.189l-6.285 7.771a.396.396 0 0 1-.082.076c-.042.026-1.039.688-2.123.689-.605 0-1.122-.202-1.535-.6-1.406-1.351-.563-3.299-.526-3.381a.352.352 0 0 1 .073-.106l5.827-6.048c-.006-1.401.007-11.177 1.207-14.052.435-1.04.533-1.853.277-2.287a.713.713 0 0 0-.402-.32l-4.316 2.301-2.88 4.209c-.028.038-.511.68-1.344.68-.352 0-.708-.114-1.061-.341a2.272 2.272 0 0 1-1.066-2.339.372.372 0 0 1 .066-.146l4.061-5.41a.371.371 0 0 1 .083-.08c.203-.144 4.995-3.522 8.314-3.522.354 0 .688.039.987.116.688.178 6.748 1.773 7.745 3.262.772 1.151 2.299 2.725 2.569 3l4.623 2.375c.039.017 1.4.628 1.762 1.657.148.427.113.856-.106 1.278-.389.744-1.043 1.154-1.842 1.154-.478 0-.837-.143-.876-.159l-4.764-2.173a.377.377 0 0 1-.105-.072l-3.348-3.272c-.924 2.364-1.969 5.599-1.707 6.287.324.85 3.982 5.64 6.361 8.65l3.527 8.247c.023.064.357 1.053-.123 1.89-.295.515-.816.847-1.552.989a2.792 2.792 0 0 1-.552.055z"/><path fill="#A8721B" d="M42.633 18.888c.315 0 .615.032.895.104.867.224 6.652 1.802 7.527 3.107.875 1.304 2.654 3.097 2.654 3.097l4.678 2.403s2.243.99 1.493 2.428c-.403.774-1.024.953-1.51.953-.416 0-.733-.131-.733-.131l-4.75-2.167-3.75-3.666s-2.38 5.871-1.916 7.083c.461 1.211 6.416 8.749 6.416 8.749l3.479 8.162s.683 1.959-1.4 2.363a2.532 2.532 0 0 1-.48.047c-1.784 0-2.795-1.975-2.795-1.975l-3.053-7.514-4.678-6-.654 5.25-6.284 7.771s-.931.626-1.913.626c-.441 0-.893-.126-1.275-.493-1.232-1.185-.443-2.958-.443-2.958l5.933-6.156S40 28.91 41.253 25.912c1.252-3-.529-3.146-.529-3.146l-4.517 2.407-2.933 4.285s-.381.517-1.034.517c-.249 0-.536-.074-.857-.281-1.165-.75-.903-1.943-.903-1.943l4.061-5.41c-.005 0 4.854-3.453 8.092-3.453m0-.75c-3.438 0-8.325 3.445-8.532 3.592a.764.764 0 0 0-.165.161l-4.061 5.41a.76.76 0 0 0-.133.29c-.139.632-.036 1.92 1.23 2.734.413.266.838.4 1.263.4 1.003 0 1.576-.737 1.638-.821l2.844-4.155 4.064-2.166a.333.333 0 0 1 .078.098c.068.122.246.624-.305 1.943-1.191 2.852-1.24 12.192-1.236 14.046l-5.722 5.938a.76.76 0 0 0-.146.217c-.041.092-.984 2.273.609 3.804.479.46 1.1.702 1.795.702 1.177 0 2.217-.678 2.332-.754a.73.73 0 0 0 .164-.15l6.284-7.771a.729.729 0 0 0 .161-.379l.432-3.453 3.5 4.49 3.015 7.418c.008.021.017.039.026.06.051.097 1.244 2.382 3.463 2.382.205 0 .416-.021.625-.061 1.053-.205 1.563-.75 1.805-1.172.556-.965.203-2.055.16-2.176a.924.924 0 0 0-.019-.047l-3.478-8.162a.781.781 0 0 0-.102-.171c-2.853-3.61-6.031-7.835-6.306-8.552-.158-.554.597-3.097 1.501-5.487l2.941 2.874a.74.74 0 0 0 .213.146l4.75 2.167c.072.03.496.198 1.045.198.945 0 1.718-.481 2.175-1.356a1.94 1.94 0 0 0 .128-1.575c-.406-1.161-1.822-1.814-1.982-1.886l-4.53-2.328c-.353-.362-1.763-1.829-2.483-2.903-1.052-1.569-6.818-3.121-7.963-3.416a4.265 4.265 0 0 0-1.078-.129z"/></svg>