<svg xmlns="http://www.w3.org/2000/svg" width="76" height="66" viewBox="0 0 76 66"><g fill="#FFF"><circle cx="36.368" cy="14.588" r="3.475"/><path d="M46.255 29.689s1.124 1.756-.042 2.464-2.163.038-2.163.038-3.149-4.121-3.961-5.642c-.448-.838-1.373-3.546-1.373-3.546s-.198 7.218.265 8.431c.463 1.211 4.418 8.75 4.418 8.75l3.27 7.961s1.088 2.234-1.245 3.018-3.196-1.904-3.196-1.904l-3.078-7.99-3.679-7.134-1.349 7.761-2.002 7.453s-.529 1.814-2.737 1.814-2.05-1.698-2.05-1.698l2.05-8.397s1.949-11.904 1.949-15.154c0-1.069-.47-3.507-.47-3.507-.688.688-1.798 2.021-2.181 3.288-.377 1.242-.61 6.156-.61 6.156s-.271 1.221-1.729 1.221-1.487-1.842-1.487-1.842.573-4.646 1.036-6.272c.59-2.07 2.607-6.286 5.85-6.318.896-.008 6.893.019 8.074 1.054 1.185 1.033 2.063 3.885 2.902 5.318.661 1.131 3.538 4.677 3.538 4.677z"/></g><g fill="#A8721B"><path d="M36.366 11.113a3.477 3.477 0 1 1 .005 6.95 3.476 3.476 0 1 1-.005-6.95m.001-.75a4.229 4.229 0 0 0-3.423 6.7 4.239 4.239 0 0 0 3.428 1.75c.893 0 1.748-.277 2.474-.802a4.196 4.196 0 0 0 1.694-2.753 4.185 4.185 0 0 0-.748-3.146 4.238 4.238 0 0 0-3.425-1.749z"/><path d="M31.956 18.636c1.392 0 6.746.083 7.854 1.055 1.185 1.033 2.063 3.885 2.902 5.318.664 1.134 3.541 4.681 3.541 4.681s1.124 1.756-.042 2.464a2.12 2.12 0 0 1-1.114.325c-.621 0-1.049-.287-1.049-.287s-3.15-4.121-3.961-5.642c-.449-.838-1.373-3.546-1.373-3.546s-.199 7.218.264 8.431c.463 1.211 4.418 8.749 4.418 8.749l3.271 7.963s1.088 2.233-1.245 3.017a2.527 2.527 0 0 1-.818.144c-1.721 0-2.379-2.048-2.379-2.048l-3.076-7.989-3.681-7.135-1.349 7.762-2.002 7.451s-.529 1.815-2.737 1.815-2.05-1.698-2.05-1.698l2.05-8.396s1.949-11.905 1.949-15.155c0-1.069-.47-3.507-.47-3.507-.688.688-1.798 2.021-2.181 3.288-.377 1.242-.61 6.156-.61 6.156s-.271 1.221-1.729 1.221-1.487-1.842-1.487-1.842.573-4.646 1.036-6.272c.59-2.07 2.607-6.286 5.85-6.318.054-.005.128-.005.218-.005m0-.75l-.226.001c-3.656.036-5.893 4.505-6.564 6.863-.473 1.663-1.035 6.193-1.059 6.386a.717.717 0 0 0-.006.104c.015.893.5 2.58 2.237 2.58 1.629 0 2.322-1.183 2.462-1.808a.787.787 0 0 0 .017-.128c.063-1.341.292-5.028.579-5.974.178-.588.562-1.232.991-1.812.104.679.191 1.389.191 1.813 0 3.077-1.829 14.356-1.935 15.006L26.6 49.286a.737.737 0 0 0-.019.108c-.009.098-.07.976.583 1.691.499.547 1.243.825 2.214.825 2.191 0 3.22-1.541 3.457-2.354l2.007-7.469a.703.703 0 0 0 .015-.066l.966-5.561 2.638 5.113 3.063 7.951c.021.065.838 2.527 3.078 2.527.342 0 .698-.062 1.059-.182 1.117-.375 1.602-1.045 1.811-1.542.491-1.175-.063-2.381-.13-2.515l-3.25-7.918-.028-.063c-1.096-2.086-4.016-7.709-4.383-8.668-.16-.424-.242-2.169-.257-4.271a.04.04 0 0 1 .005.009c.829 1.555 3.896 5.572 4.026 5.743.05.064.108.121.178.166.063.043.64.415 1.468.415.522 0 1.028-.146 1.504-.435a1.78 1.78 0 0 0 .836-1.144c.248-1.071-.469-2.236-.553-2.365-.016-.023-.031-.046-.05-.068-.79-.974-2.955-3.697-3.476-4.587-.271-.461-.557-1.107-.86-1.793-.638-1.439-1.298-2.928-2.196-3.712-1.232-1.074-5.76-1.235-8.35-1.235z"/></g></svg>