<svg xmlns="http://www.w3.org/2000/svg" width="76" height="66" viewBox="0 0 76 66"><path fill="#FFF" d="M53.707 24.263a3.857 3.857 0 0 1-3.852-3.852c0-2.123 1.729-3.85 3.852-3.85s3.852 1.727 3.852 3.85a3.857 3.857 0 0 1-3.852 3.852z"/><path fill="#A8721B" d="M53.707 16.937a3.478 3.478 0 0 1 3.477 3.475 3.478 3.478 0 0 1-6.954 0 3.476 3.476 0 0 1 3.477-3.475m0-.75a4.232 4.232 0 0 0-4.227 4.225c0 2.33 1.896 4.227 4.227 4.227s4.227-1.896 4.227-4.227a4.231 4.231 0 0 0-4.227-4.225z"/><path fill="#FFF" d="M51.066 52.996c-2.059 0-2.582-1.479-2.604-1.54a.388.388 0 0 1-.014-.188l1.378-7.688-4.229-4.021-3.058 5.023a.373.373 0 0 1-.209.163c-.291.09-7.133 2.213-7.696 2.364a1.019 1.019 0 0 1-.252.033c-.744 0-1.466-.846-1.839-2.153-.27-.947-.062-1.603.16-1.982a1.815 1.815 0 0 1 1.149-.862l5.569-1.362c.313-1.679 2.165-11.141 4.294-13.382 1.187-1.247 1.457-1.852 1.519-2.088l-4.676-.219-5.083 3.35c-.088.047-.53.258-1.097.258-.678 0-1.246-.303-1.642-.876-.814-1.18-.167-2.201.29-2.577l6.036-4.143a.375.375 0 0 1 .211-.065h.011c1.429.04 8.597.257 9.444.62.873.374 5.371 4.594 5.756 6.269.268 1.157 1.201 2.566 1.56 3.079l5.295-1.239h-.001c-.009 0 .243-.093.575-.093.392 0 1.104.137 1.489 1.052.171.407.18.816.021 1.183-.298.7-1.072 1.015-1.16 1.048l-7.469 1.782a.376.376 0 0 1-.374-.124l-2.237-2.665c-1.524 1.239-3.463 3.114-3.463 3.837 0 .691 3.172 3.752 6.108 6.191a.372.372 0 0 1 .13.348l-1.413 8.716c-.121.678-.796 1.951-2.479 1.951z"/><path fill="#A8721B" d="M39.273 21.413s8.481.236 9.309.59c.824.354 5.186 4.477 5.538 6.008.353 1.531 1.767 3.417 1.767 3.417l5.538-1.296s.209-.083.488-.083c.369 0 .858.146 1.144.822.5 1.188-.927 1.735-.927 1.735l-7.421 1.767-2.475-2.945s-3.889 3.063-3.889 4.358 6.242 6.479 6.242 6.479l-1.413 8.715s-.297 1.641-2.108 1.641c-1.813 0-2.25-1.286-2.25-1.286l1.414-7.89-4.713-4.479-3.297 5.421s-7.122 2.209-7.686 2.362a.535.535 0 0 1-.154.021c-.532 0-1.142-.701-1.478-1.883-.369-1.297.225-2.182 1.037-2.38l5.805-1.42s2.003-11.074 4.239-13.43c2.238-2.356 1.531-2.709 1.531-2.709l-5.063-.236-5.184 3.416s-.396.196-.891.196c-.434 0-.944-.15-1.333-.714-.834-1.208.22-2.074.22-2.074l6.01-4.123m0-.75a.75.75 0 0 0-.424.132l-6.009 4.123a.64.64 0 0 0-.052.039c-.638.524-1.26 1.776-.361 3.079.462.67 1.155 1.038 1.95 1.038.652 0 1.167-.247 1.224-.274a.775.775 0 0 0 .079-.046l4.98-3.281 3.993.187c-.19.306-.547.781-1.213 1.481-2.127 2.239-3.899 10.979-4.346 13.333l-5.333 1.305a2.195 2.195 0 0 0-1.384 1.039c-.366.629-.436 1.437-.197 2.272.426 1.497 1.269 2.429 2.199 2.429.119 0 .237-.017.351-.047.57-.154 7.417-2.279 7.708-2.369a.745.745 0 0 0 .418-.326l2.814-4.627 3.746 3.562-1.343 7.491a.754.754 0 0 0 .028.374c.023.073.637 1.795 2.959 1.795 1.93 0 2.707-1.476 2.848-2.256l1.416-8.729a.75.75 0 0 0-.262-.697c-2.703-2.244-5.729-5.125-5.969-5.924.081-.502 1.426-1.947 3.034-3.29l2 2.381a.75.75 0 0 0 .748.247l7.421-1.767c.032-.008.064-.018.096-.029.104-.04 1.013-.409 1.371-1.251.196-.463.188-.973-.021-1.476-.342-.814-1.01-1.281-1.832-1.281-.319 0-.577.071-.699.112l-5.006 1.171c-.405-.601-1.135-1.773-1.357-2.739-.42-1.827-4.965-6.097-5.974-6.529-.862-.37-6.989-.578-9.582-.65-.003-.002-.011-.002-.019-.002z"/><path fill="#FFF" d="M30.272 42.507h-1.811a1 1 0 1 0 0 2h1.92l-.109-2zm7.318-3.45l.044-.217H24.462a1 1 0 1 0 0 2h6.11l7.018-1.783zm.867-3.883H21.462a1 1 0 1 0 0 2h16.525c.141-.634.298-1.307.47-2zm1.029-3.667H18.462a1 1 0 1 0 0 2h20.433a48.1 48.1 0 0 1 .591-2zm.578-1.666c.271-.721.558-1.398.857-2h-.675l-3.034 2h2.852zm-8.176-2H15.462a1 1 0 1 0 0 2h17.972l-1.546-2zm-2.217-2.869l1.164-.798H14.462a1 1 0 1 0 0 2h16.139l-.93-1.202z"/></svg>