<?xml version="1.0" encoding="utf-8"?>
<!-- Generator: Adobe Illustrator 15.0.0, SVG Export Plug-In . SVG Version: 6.00 Build 0)  -->
<!DOCTYPE svg PUBLIC "-//W3C//DTD SVG 1.1//EN" "http://www.w3.org/Graphics/SVG/1.1/DTD/svg11.dtd">
<svg version="1.1" id="Layer_1" xmlns="http://www.w3.org/2000/svg" xmlns:xlink="http://www.w3.org/1999/xlink" x="0px" y="0px"
	 width="76px" height="66px" viewBox="0 0 76 66" enable-background="new 0 0 76 66" xml:space="preserve">
<path fill="#A8721B" d="M45.828,13.912H29.904l-11.258,11.26v15.924l11.258,11.258h15.924l11.26-11.258V25.172L45.828,13.912z
	 M50.434,37.559c0,0-3.781,7.787-4.434,8.441c-1.555,1.551-3.641,3-6,3l-3.607,0.17C29.516,49.17,27,45.455,27,40V24
	c0-1,0.811-1.557,1.765-1.557C29.717,22.443,30,23.047,30,24c0,0,0,5.012,0,7c0,2,2,2,2,0c0-2.633,0-11,0-11
	c0-0.953,0.636-1.566,1.59-1.566c0.954,0,1.41,0.613,1.41,1.566c0,0,0,8.51,0,11c0,1,2,0.977,2,0c0-2.656,0-12,0-12
	c0-0.951,0.462-1.902,1.416-1.902C39.369,17.098,40,18.049,40,19c0,0,0,9.367,0,12c0,1,2,1,2,0c0-2.363,0-10,0-10c0-1,0-2,1-2
	c0,0,0.667,0,1,0c0.952,0,1,1,1,2l-0.034,14.807c0,0,0,1.02,0,1.355c0,1.482,1.714-2.072,2.272-2.77
	c1.205-1.5,3.4-1.551,4.465-0.676C52.77,34.594,50.975,36.9,50.434,37.559z"/>
<path fill="#FFFFFF" d="M30.318,51.354L19.646,40.682V25.586l10.672-10.674h15.096l10.674,10.674v15.096L45.414,51.354H30.318z
	 M28.765,21.443C27.163,21.443,26,22.519,26,24v16c0,6.652,3.593,10.17,10.393,10.17c0,0,3.657-0.171,3.658-0.171
	c2.213,0,4.469-1.106,6.656-3.291c0.664-0.667,3.127-5.63,4.575-8.606c0.397-0.492,0.917-1.199,1.284-1.936
	c0.935-1.872,0.258-2.821-0.229-3.221c-0.628-0.516-1.489-0.801-2.428-0.801c-1.364,0-2.622,0.591-3.45,1.622
	c-0.137,0.17-0.291,0.41-0.488,0.744L46,21.002C46,20.18,46,18,44,18h-1c-1.993,0-2,2.013-2,2.99V19
	c0-1.601-1.159-2.902-2.584-2.902c-1.4,0-2.416,1.22-2.416,2.902v1c0-1.559-0.946-2.566-2.41-2.566C32.065,17.434,31,18.489,31,20
	v11v-7C31,21.692,29.437,21.443,28.765,21.443z"/>
<path fill="#A8721B" d="M27.586,58L13,43.414V22.586L27.586,8h20.828L63,22.586v20.828L48.414,58H27.586z M46.586,54L59,41.586
	V24.414L46.586,12H29.414L17,24.414v17.172L29.414,54H46.586z"/>
<path fill="#FFFFFF" d="M48,9h-9h-1H28L14,23v20l14,14h10h1h9l14-14V23L48,9z M60,42L47,55h-8h-1h-9L16,42V24l13-13h9h1h8l13,13V42z
	"/>
</svg>
