<svg xmlns="http://www.w3.org/2000/svg" width="76" height="66" viewBox="0 0 76 66"><path fill="#A8721B" d="M45.828 13.912H29.904l-11.258 11.26v15.924l11.258 11.258h15.924l11.26-11.258V25.172l-11.26-11.26zm4.606 23.647S46.653 45.346 46 46c-1.555 1.551-3.641 3-6 3l-3.607.17C29.516 49.17 27 45.455 27 40V24c0-1 .811-1.557 1.765-1.557.952 0 1.235.604 1.235 1.557v7c0 2 2 2 2 0V20c0-.953.636-1.566 1.59-1.566.954 0 1.41.613 1.41 1.566v11c0 1 2 .977 2 0V19c0-.951.462-1.902 1.416-1.902.953 0 1.584.951 1.584 1.902v12c0 1 2 1 2 0V21c0-1 0-2 1-2h1c.952 0 1 1 1 2l-.034 14.807v1.355c0 1.482 1.714-2.072 2.272-2.77 1.205-1.5 3.4-1.551 4.465-.676 1.067.878-.728 3.184-1.269 3.843z"/><path fill="#FFF" d="M30.318 51.354L19.646 40.682V25.586l10.672-10.674h15.096l10.674 10.674v15.096L45.414 51.354H30.318zm-1.553-29.911C27.163 21.443 26 22.519 26 24v16c0 6.652 3.593 10.17 10.393 10.17l3.658-.171c2.213 0 4.469-1.106 6.656-3.291.664-.667 3.127-5.63 4.575-8.606.397-.492.917-1.199 1.284-1.936.935-1.872.258-2.821-.229-3.221-.628-.516-1.489-.801-2.428-.801-1.364 0-2.622.591-3.45 1.622-.137.17-.291.41-.488.744L46 21.002C46 20.18 46 18 44 18h-1c-1.993 0-2 2.013-2 2.99V19c0-1.601-1.159-2.902-2.584-2.902-1.4 0-2.416 1.22-2.416 2.902v1c0-1.559-.946-2.566-2.41-2.566-1.525 0-2.59 1.055-2.59 2.566v11-7c0-2.308-1.563-2.557-2.235-2.557z"/><path fill="#A8721B" d="M27.586 58L13 43.414V22.586L27.586 8h20.828L63 22.586v20.828L48.414 58H27.586zm19-4L59 41.586V24.414L46.586 12H29.414L17 24.414v17.172L29.414 54h17.172z"/><path fill="#FFF" d="M48 9H28L14 23v20l14 14h20l14-14V23L48 9zm12 33L47 55H29L16 42V24l13-13h18l13 13v18z"/></svg>