<svg xmlns="http://www.w3.org/2000/svg" width="76" height="66" viewBox="0 0 76 66"><path fill="#308BA0" d="M32.169 34c-.876 0-1.688-.26-2.288-.924-.703-.779-1.037-1.837-.916-2.996l.48-2.586c.056-.54-.063-1.004-.325-1.295a.806.806 0 0 0-.626-.27c-.043 0-4.227.27-4.227.27a3.329 3.329 0 0 1-.439.026c-1.674 0-3.631-1.173-3.631-4.479 0-3.572 10.471-12.592 13.774-15.348.675-.725 1.569-1.121 2.528-1.121.957 0 1.85.396 2.522 1.115C41.461 8.362 52.8 17.729 52.8 21.746c0 1.434-.326 2.554-.971 3.33-.627.756-1.523 1.155-2.596 1.155-.185 0-.373-.013-.563-.036l-3.979-.246a1.73 1.73 0 0 0-.188-.014c-.25 0-.46.094-.626.276-.262.292-.381.769-.323 1.308l.479 2.613c.118 1.159-.216 2.163-.917 2.942-.595.666-1.407.926-2.284.926h-8.663z"/><path fill="#FFF" d="M38.338 7.124c-1.011-1.129-2.664-1.129-3.674 0 0 0-13.467 11.221-13.467 14.623 0 2.549 1.354 3.66 3.008 3.457l4.037-.252c1.379-.166 2.367 1.035 2.197 2.672l-.48 2.613C29.789 31.874 30.614 33 32 33h9c1.387 0 2.212-1.126 2.042-2.763l-.479-2.613c-.17-1.637.817-2.838 2.196-2.672l4.037.252c1.654.203 3.009-.674 3.009-3.457 0-3.777-13.467-14.623-13.467-14.623z"/><path fill="#308BA0" d="M44 50a4 4 0 0 1-4 4h-8a4 4 0 0 1-4-4v-1a4 4 0 0 1 4-4h8a4 4 0 0 1 4 4v1z"/><path fill="#FFF" d="M43 50a3 3 0 0 1-3 3h-8a3 3 0 0 1-3-3v-1a3 3 0 0 1 3-3h8a3 3 0 0 1 3 3v1z"/><g><path fill="#308BA0" d="M44 40a4 4 0 0 1-4 4h-8a4 4 0 0 1-4-4v-1a4 4 0 0 1 4-4h8a4 4 0 0 1 4 4v1z"/><path fill="#FFF" d="M43 40a3 3 0 0 1-3 3h-8a3 3 0 0 1-3-3v-1a3 3 0 0 1 3-3h8a3 3 0 0 1 3 3v1z"/></g></svg>