<?xml version="1.0" encoding="utf-8"?>
<!-- Generator: Adobe Illustrator 15.0.0, SVG Export Plug-In . SVG Version: 6.00 Build 0)  -->
<!DOCTYPE svg PUBLIC "-//W3C//DTD SVG 1.1//EN" "http://www.w3.org/Graphics/SVG/1.1/DTD/svg11.dtd">
<svg version="1.1" id="Layer_1" xmlns="http://www.w3.org/2000/svg" xmlns:xlink="http://www.w3.org/1999/xlink" x="0px" y="0px"
	 width="76px" height="66px" viewBox="0 0 76 66" enable-background="new 0 0 76 66" xml:space="preserve">
<path fill="#FFFFFF" stroke="#A8721B" stroke-width="0.75" stroke-linejoin="round" stroke-miterlimit="10" d="M37.282,14.227
	c-10.228,0-18.507,8.275-18.507,18.496c0,10.219,8.279,18.502,18.507,18.502c10.224,0,18.503-8.283,18.503-18.502
	C55.785,22.502,47.506,14.227,37.282,14.227z M39.531,11.569c10.697,1.12,19.029,10.157,19.029,21.154
	C58.561,44.473,49.04,54,37.285,54C25.521,54,16,44.473,16,32.723c0-10.993,8.328-20.027,19.031-21.152V9.362h4.5V11.569
	L39.531,11.569z"/>
<path fill="#FFFFFF" stroke="#A8721B" stroke-width="0.75" stroke-linejoin="round" stroke-miterlimit="10" d="M41.378,6.43
	c0,1.105-0.896,2-2,2h-4c-1.104,0-2-0.895-2-2l0,0c0-1.104,0.896-2,2-2h4C40.482,4.43,41.378,5.326,41.378,6.43L41.378,6.43z"/>
<path fill="#FFFFFF" stroke="#A8721B" stroke-width="0.75" stroke-linejoin="round" stroke-miterlimit="10" d="M53.631,32.701
	c0,9.029-7.329,16.347-16.355,16.347c-9.017,0-16.339-7.315-16.339-16.347c0-9.021,7.322-16.348,16.339-16.348
	C46.302,16.354,53.631,23.68,53.631,32.701z M52.152,32.701c0-0.436-0.354-0.787-0.789-0.787h-2.875
	c-0.434,0-0.785,0.352-0.785,0.787c0,0.434,0.354,0.785,0.785,0.785h2.875C51.8,33.486,52.152,33.135,52.152,32.701z M38.071,46.786
	v-2.875c0-0.437-0.353-0.787-0.789-0.787c-0.434,0-0.786,0.353-0.786,0.787v2.875c0,0.434,0.353,0.787,0.786,0.787
	C37.719,47.573,38.071,47.22,38.071,46.786z M38.071,21.492v-2.875c0-0.434-0.353-0.787-0.789-0.787
	c-0.434,0-0.786,0.354-0.786,0.787v2.875c0,0.436,0.353,0.787,0.786,0.787C37.719,22.279,38.071,21.928,38.071,21.492z
	 M26.866,32.701c0-0.436-0.354-0.787-0.788-0.787h-2.875c-0.435,0-0.787,0.352-0.787,0.787c0,0.434,0.353,0.785,0.787,0.785h2.875
	C26.513,33.486,26.866,33.135,26.866,32.701z M43.713,27.736c0.444-0.455,0.434-1.184-0.021-1.627
	c-0.457-0.443-1.185-0.434-1.627,0.023l-4.848,4.984l-8.785-7.539c-0.481-0.412-1.208-0.357-1.621,0.123
	c-0.414,0.482-0.358,1.209,0.123,1.623L37.36,34.27L43.713,27.736z"/>
</svg>
