<svg xmlns="http://www.w3.org/2000/svg" width="76" height="66" viewBox="0 0 76 66"><path fill="#FFF" stroke="#A8721B" stroke-width=".75" stroke-linejoin="round" stroke-miterlimit="10" d="M37.282 14.227c-10.228 0-18.507 8.275-18.507 18.496 0 10.219 8.279 18.502 18.507 18.502 10.224 0 18.503-8.283 18.503-18.502 0-10.221-8.279-18.496-18.503-18.496zm2.249-2.658c10.697 1.12 19.029 10.157 19.029 21.154C58.561 44.473 49.04 54 37.285 54 25.521 54 16 44.473 16 32.723c0-10.993 8.328-20.027 19.031-21.152V9.362h4.5v2.207zM41.378 6.43a2 2 0 0 1-2 2h-4a2 2 0 0 1 0-4h4a2 2 0 0 1 2 2z"/><path fill="#FFF" stroke="#A8721B" stroke-width=".75" stroke-linejoin="round" stroke-miterlimit="10" d="M53.631 32.701c0 9.029-7.329 16.347-16.355 16.347-9.017 0-16.339-7.315-16.339-16.347 0-9.021 7.322-16.348 16.339-16.348 9.026.001 16.355 7.327 16.355 16.348zm-1.479 0a.788.788 0 0 0-.789-.787h-2.875a.785.785 0 0 0 0 1.572h2.875a.786.786 0 0 0 .789-.785zM38.071 46.786v-2.875a.786.786 0 1 0-1.575 0v2.875a.788.788 0 0 0 1.575 0zm0-25.294v-2.875a.788.788 0 0 0-1.575 0v2.875a.786.786 0 1 0 1.575 0zM26.866 32.701a.787.787 0 0 0-.788-.787h-2.875a.787.787 0 1 0 0 1.572h2.875a.786.786 0 0 0 .788-.785zm16.847-4.965a1.15 1.15 0 1 0-1.648-1.604l-4.848 4.984-8.785-7.539a1.152 1.152 0 0 0-1.621.123 1.152 1.152 0 0 0 .123 1.623L37.36 34.27l6.353-6.534z"/></svg>