<svg xmlns="http://www.w3.org/2000/svg" width="168" height="168" viewBox="0 0 168 168"><radialGradient id="a" cx="-144.186" cy="410.977" r="78.088" gradientTransform="translate(232 -322.955)" gradientUnits="userSpaceOnUse"><stop offset=".5"/><stop offset="1" stop-opacity="0"/></radialGradient><path fill="url(#a)" d="M87.814 166.109c-43.06 0-78.09-35.028-78.09-78.088 0-43.058 35.031-78.087 78.09-78.087 43.058 0 78.088 35.03 78.088 78.087 0 43.06-35.03 78.088-78.088 78.088z"/><circle fill="none" stroke="#28A5DA" stroke-width="20" stroke-miterlimit="10" cx="78.812" cy="80.022" r="68.089"/><circle fill="#F9A737" cx="78.812" cy="80.022" r="68.089"/><linearGradient id="b" gradientUnits="userSpaceOnUse" x1="-153.186" y1="418.266" x2="-153.186" y2="334.89" gradientTransform="translate(232 -322.955)"><stop offset="0" stop-color="#fff" stop-opacity="0"/><stop offset="1" stop-color="#fff" stop-opacity=".5"/></linearGradient><path fill="url(#b)" d="M146.902 80.021c0 4.607-30.484 15.289-68.088 15.289-37.605 0-68.09-12.33-68.09-15.289 0-37.604 30.484-68.087 68.09-68.087 37.603 0 68.088 30.484 68.088 68.087z"/><path opacity=".3" fill="#333" d="M90.131 137.453l-37.087-5.799 5.636-37.463.184.029.072-.726c.412-4.09 1.313-13.069 7.135-19.776l-25.096-3.75 1.563-7.289c2.175-10.134 7.019-18.48 14.004-24.143 6.587-5.445 14.858-8.229 24.536-8.229 2.646 0 5.423.215 8.253.64 27.69 4.141 36.104 22.92 34.896 37.741l-.053.467c-2.633 17.626-13.646 21.354-21.686 24.078-.951.322-1.91.646-2.865.996-3.562 1.338-3.572 1.396-4.035 4.51l-1.031 6.927-.289-.043-4.137 31.83z"/><path fill="#FFF" d="M88.131 134.453l-37.087-5.799 5.636-37.463.184.029.072-.726c.412-4.09 1.313-13.069 7.135-19.776l-25.096-3.75 1.563-7.289c2.175-10.134 7.019-18.48 14.004-24.143 6.587-5.445 14.858-8.229 24.536-8.229 2.646 0 5.423.216 8.253.64 27.69 4.141 36.104 22.92 34.896 37.741l-.053.467c-2.633 17.626-13.646 21.354-21.686 24.078-.951.322-1.91.646-2.865.996-3.562 1.338-3.572 1.396-4.035 4.51l-1.031 6.927-.289-.043-4.137 31.83z"/><path fill="#28A5DA" d="M47.383 61.148c1.648-7.683 5.27-15.069 11.565-20.17 6.323-5.229 15.288-7.914 27.346-6.106 24.009 3.59 29.858 19.185 28.957 30.251-2.262 15.143-11.253 16.318-20.035 19.535-6 2.254-7.707 4.39-8.551 10.052l-22.774-3.401c.512-5.088 1.588-16.5 11.854-20.383 4.132-1.518 12.06-2.349 12.888-7.89.608-4.063-1.646-6.665-6.197-7.349-5.912-.885-9 3.818-9.322 9.307l-25.731-3.846zm15.172 38.047l22.641 3.537-3.079 23.693-23.114-3.613 3.552-23.617z"/></svg>