<?xml version="1.0" encoding="utf-8"?>
<!-- Generator: Adobe Illustrator 15.0.0, SVG Export Plug-In . SVG Version: 6.00 Build 0)  -->
<!DOCTYPE svg PUBLIC "-//W3C//DTD SVG 1.1//EN" "http://www.w3.org/Graphics/SVG/1.1/DTD/svg11.dtd">
<svg version="1.1" id="Layer_2" xmlns="http://www.w3.org/2000/svg" xmlns:xlink="http://www.w3.org/1999/xlink" x="0px" y="0px"
	 width="168px" height="168px" viewBox="0 0 168 168" enable-background="new 0 0 168 168" xml:space="preserve">
<g>
	<g enable-background="new    ">
		
			<radialGradient id="SVGID_1_" cx="-144.1865" cy="410.9766" r="78.0884" gradientTransform="matrix(1 0 0 1 232 -322.9551)" gradientUnits="userSpaceOnUse">
			<stop  offset="0.5" style="stop-color:#000000"/>
			<stop  offset="1" style="stop-color:#000000;stop-opacity:0"/>
		</radialGradient>
		<path fill="url(#SVGID_1_)" d="M87.814,166.109c-43.06,0-78.09-35.028-78.09-78.088c0-43.058,35.031-78.087,78.09-78.087
			c43.058,0,78.088,35.03,78.088,78.087C165.902,131.081,130.872,166.109,87.814,166.109z"/>
	</g>
	<g>
		<circle fill="none" stroke="#28A5DA" stroke-width="20" stroke-miterlimit="10" cx="78.812" cy="80.022" r="68.089"/>
	</g>
	<circle fill="#F9A737" cx="78.812" cy="80.022" r="68.089"/>
	
		<linearGradient id="SVGID_2_" gradientUnits="userSpaceOnUse" x1="-153.1865" y1="418.2656" x2="-153.1865" y2="334.8896" gradientTransform="matrix(1 0 0 1 232 -322.9551)">
		<stop  offset="0" style="stop-color:#FFFFFF;stop-opacity:0"/>
		<stop  offset="1" style="stop-color:#FFFFFF;stop-opacity:0.5"/>
	</linearGradient>
	<path fill="url(#SVGID_2_)" d="M146.902,80.021c0,4.607-30.484,15.289-68.088,15.289c-37.605,0-68.09-12.33-68.09-15.289
		c0-37.604,30.484-68.087,68.09-68.087C116.417,11.934,146.902,42.418,146.902,80.021z"/>
	<path opacity="0.3" fill="#333333" enable-background="new    " d="M90.131,137.453l-37.087-5.799l5.636-37.463l0.184,0.029
		l0.072-0.726c0.412-4.09,1.313-13.069,7.135-19.776l-25.096-3.75l1.563-7.289c2.175-10.134,7.019-18.48,14.004-24.143
		c6.587-5.445,14.858-8.229,24.536-8.229c2.646,0,5.423,0.215,8.253,0.64c27.69,4.141,36.104,22.92,34.896,37.741l-0.053,0.467
		c-2.633,17.626-13.646,21.354-21.686,24.078c-0.951,0.322-1.91,0.646-2.865,0.996c-3.562,1.338-3.572,1.396-4.035,4.51
		l-1.031,6.927l-0.289-0.043L90.131,137.453z"/>
	<path fill="#FFFFFF" d="M88.131,134.453l-37.087-5.799l5.636-37.463l0.184,0.029l0.072-0.726c0.412-4.09,1.313-13.069,7.135-19.776
		l-25.096-3.75l1.563-7.289c2.175-10.134,7.019-18.48,14.004-24.143c6.587-5.445,14.858-8.229,24.536-8.229
		c2.646,0,5.423,0.216,8.253,0.64c27.69,4.141,36.104,22.92,34.896,37.741l-0.053,0.467c-2.633,17.626-13.646,21.354-21.686,24.078
		c-0.951,0.322-1.91,0.646-2.865,0.996c-3.562,1.338-3.572,1.396-4.035,4.51l-1.031,6.927l-0.289-0.043L88.131,134.453z"/>
	<path fill="#28A5DA" d="M47.383,61.148c1.648-7.683,5.27-15.069,11.565-20.17c6.323-5.229,15.288-7.914,27.346-6.106
		c24.009,3.59,29.858,19.185,28.957,30.251c-2.262,15.143-11.253,16.318-20.035,19.535c-6,2.254-7.707,4.39-8.551,10.052
		l-22.774-3.401c0.512-5.088,1.588-16.5,11.854-20.383c4.132-1.518,12.06-2.349,12.888-7.89c0.608-4.063-1.646-6.665-6.197-7.349
		c-5.912-0.885-9,3.818-9.322,9.307L47.383,61.148z M62.555,99.195l22.641,3.537l-3.079,23.693l-23.114-3.613L62.555,99.195z"/>
</g>
</svg>
