<?xml version="1.0" encoding="utf-8"?>
<!-- Generator: Adobe Illustrator 15.0.0, SVG Export Plug-In . SVG Version: 6.00 Build 0)  -->
<!DOCTYPE svg PUBLIC "-//W3C//DTD SVG 1.1//EN" "http://www.w3.org/Graphics/SVG/1.1/DTD/svg11.dtd">
<svg version="1.1" id="Layer_2" xmlns="http://www.w3.org/2000/svg" xmlns:xlink="http://www.w3.org/1999/xlink" x="0px" y="0px"
	 width="168px" height="168px" viewBox="0 0 168 168" enable-background="new 0 0 168 168" xml:space="preserve">
<g>
	<g>
		<circle fill="none" stroke="#228BAF" stroke-width="20" stroke-miterlimit="10" cx="85.089" cy="85.089" r="68.089"/>
	</g>
	<circle fill="#F9A737" cx="85.089" cy="85.089" r="68.089"/>
	
		<linearGradient id="SVGID_1_" gradientUnits="userSpaceOnUse" x1="-287.856" y1="-731.7412" x2="-287.856" y2="-815.1167" gradientTransform="matrix(1 0 0 -1 372.9448 -663.7402)">
		<stop  offset="0" style="stop-color:#FFFFFF;stop-opacity:0"/>
		<stop  offset="1" style="stop-color:#FFFFFF;stop-opacity:0.5"/>
	</linearGradient>
	<path fill="url(#SVGID_1_)" d="M153.178,83.288c0-4.607-30.482-15.287-68.088-15.287C47.485,68.001,17,80.331,17,83.288
		c0,37.604,30.483,68.088,68.09,68.088C122.691,151.376,153.178,120.893,153.178,83.288z"/>
	<path fill="#28A5DA" d="M53.659,68.216c1.647-7.683,5.27-15.069,11.564-20.17c6.323-5.229,15.288-7.914,27.347-6.106
		c24.011,3.59,29.857,19.184,28.957,30.252c-2.264,15.141-11.252,16.318-20.035,19.535c-6,2.254-7.707,4.39-8.551,10.051
		l-22.773-3.399c0.512-5.088,1.588-16.5,11.855-20.381c4.131-1.519,12.059-2.351,12.887-7.892c0.605-4.063-1.646-6.664-6.197-7.348
		c-5.912-0.885-8.999,3.818-9.322,9.307L53.659,68.216z M68.83,106.264l22.643,3.536l-3.08,23.694l-23.114-3.612L68.83,106.264z"/>
</g>
</svg>
