<svg xmlns="http://www.w3.org/2000/svg" width="168" height="168" viewBox="0 0 168 168"><circle fill="none" stroke="#228BAF" stroke-width="20" stroke-miterlimit="10" cx="85.089" cy="85.089" r="68.089"/><circle fill="#F9A737" cx="85.089" cy="85.089" r="68.089"/><linearGradient id="a" gradientUnits="userSpaceOnUse" x1="-287.856" y1="-731.741" x2="-287.856" y2="-815.117" gradientTransform="matrix(1 0 0 -1 372.945 -663.74)"><stop offset="0" stop-color="#fff" stop-opacity="0"/><stop offset="1" stop-color="#fff" stop-opacity=".5"/></linearGradient><path fill="url(#a)" d="M153.178 83.288c0-4.607-30.482-15.287-68.088-15.287-37.605 0-68.09 12.33-68.09 15.287 0 37.604 30.483 68.088 68.09 68.088 37.601 0 68.088-30.483 68.088-68.088z"/><path fill="#28A5DA" d="M53.659 68.216c1.647-7.683 5.27-15.069 11.564-20.17 6.323-5.229 15.288-7.914 27.347-6.106 24.011 3.59 29.857 19.184 28.957 30.252-2.264 15.141-11.252 16.318-20.035 19.535-6 2.254-7.707 4.39-8.551 10.051l-22.773-3.399c.512-5.088 1.588-16.5 11.855-20.381 4.131-1.519 12.059-2.351 12.887-7.892.605-4.063-1.646-6.664-6.197-7.348-5.912-.885-8.999 3.818-9.322 9.307l-25.732-3.849zm15.171 38.048l22.643 3.536-3.08 23.694-23.114-3.612 3.551-23.618z"/></svg>