<?xml version="1.0" encoding="utf-8"?>
<!-- Generator: Adobe Illustrator 21.0.2, SVG Export Plug-In . SVG Version: 6.00 Build 0)  -->
<svg version="1.1" id="Layer_2" xmlns="http://www.w3.org/2000/svg" xmlns:xlink="http://www.w3.org/1999/xlink" x="0px" y="0px"
	 viewBox="0 0 168 168" enable-background="new 0 0 168 168" xml:space="preserve">
<g>
	<g enable-background="new    ">
		
			<radialGradient id="SVGID_1_" cx="-144.187" cy="-240.9766" r="78.0882" gradientTransform="matrix(1 0 0 -1 232 -152.9551)" gradientUnits="userSpaceOnUse">
			<stop  offset="0.5" style="stop-color:#000000"/>
			<stop  offset="1" style="stop-color:#000000;stop-opacity:0"/>
		</radialGradient>
		<path fill="url(#SVGID_1_)" d="M87.8,166.1c-43.1,0-78.1-35-78.1-78.1c0-43.1,35-78.1,78.1-78.1c43.1,0,78.1,35,78.1,78.1
			C165.9,131.1,130.9,166.1,87.8,166.1z"/>
	</g>
	<g>
		<circle fill="none" stroke="#28A5DA" stroke-width="20" stroke-miterlimit="10" cx="78.8" cy="80" r="68.1"/>
	</g>
	<circle fill="#F9A737" cx="78.8" cy="80" r="68.1"/>
	
		<linearGradient id="SVGID_2_" gradientUnits="userSpaceOnUse" x1="-153.187" y1="-248.2651" x2="-153.187" y2="-164.8891" gradientTransform="matrix(1 0 0 -1 232 -152.9551)">
		<stop  offset="0" style="stop-color:#FFFFFF;stop-opacity:0"/>
		<stop  offset="1" style="stop-color:#FFFFFF;stop-opacity:0.5"/>
	</linearGradient>
	<path fill="url(#SVGID_2_)" d="M146.9,80c0,4.6-30.5,15.3-68.1,15.3C41.2,95.3,10.7,83,10.7,80c0-37.6,30.5-68.1,68.1-68.1
		C116.4,11.9,146.9,42.4,146.9,80z"/>
	<path display="none" opacity="0.3" fill="#333333" enable-background="new    " d="M90.1,137.5L53,131.7l5.6-37.5l0.2,0l0.1-0.7
		c0.4-4.1,1.3-13.1,7.1-19.8L41,70l1.6-7.3c2.2-10.1,7-18.5,14-24.1c6.6-5.4,14.9-8.2,24.5-8.2c2.6,0,5.4,0.2,8.3,0.6
		c27.7,4.1,36.1,22.9,34.9,37.7l-0.1,0.5c-2.6,17.6-13.6,21.4-21.7,24.1c-1,0.3-1.9,0.6-2.9,1c-3.6,1.3-3.6,1.4-4,4.5l-1,6.9l-0.3,0
		L90.1,137.5z"/>
	<path display="none" fill="#FFFFFF" d="M88.1,134.5L51,128.7l5.6-37.5l0.2,0l0.1-0.7c0.4-4.1,1.3-13.1,7.1-19.8L39,67l1.6-7.3
		c2.2-10.1,7-18.5,14-24.1c6.6-5.4,14.9-8.2,24.5-8.2c2.6,0,5.4,0.2,8.3,0.6c27.7,4.1,36.1,22.9,34.9,37.7l-0.1,0.5
		c-2.6,17.6-13.6,21.4-21.7,24.1c-1,0.3-1.9,0.6-2.9,1c-3.6,1.3-3.6,1.4-4,4.5l-1,6.9l-0.3,0L88.1,134.5z"/>
	<path display="none" fill="#28A5DA" d="M47.4,61.1C49,53.5,52.7,46.1,58.9,41c6.3-5.2,15.3-7.9,27.3-6.1c24,3.6,29.9,19.2,29,30.3
		c-2.3,15.1-11.3,16.3-20,19.5c-6,2.3-7.7,4.4-8.6,10.1l-22.8-3.4c0.5-5.1,1.6-16.5,11.9-20.4c4.1-1.5,12.1-2.3,12.9-7.9
		c0.6-4.1-1.6-6.7-6.2-7.3c-5.9-0.9-9,3.8-9.3,9.3L47.4,61.1z M62.6,99.2l22.6,3.5l-3.1,23.7L59,122.8L62.6,99.2z"/>
</g>
<g id="Page-1">
	<g id="Tablet-Landscape-v1" transform="translate(-474.000000, -439.000000)">
		<g id="Home" transform="translate(450.000000, 415.000000)">
			<g id="home-icon" transform="translate(28.000000, 28.000000)">
				<g id="Combined-Shape">
					<g>
						<path id="path-1" fill="#BE8538" d="M51.7,79.8v24.6c0,2.8,2.2,5,5,5h43c2.8,0,5-2.2,5-5V79.7c2.3,1.1,5.1,0.5,6.8-1.5
							c2-2.4,1.7-6.1-0.7-8.1L82.2,46c-1.1-0.9-2.5-1.4-3.9-1.3c-1.4,0-2.7,0.4-3.8,1.3l-9.2,7.7v-4.4c0-1.1-0.9-2-2-2h-6
							c-1.1,0-2,0.9-2,2v12.7l-9.5,8c-2.4,2-2.8,5.7-0.7,8.1C46.7,80.2,49.5,80.8,51.7,79.8L51.7,79.8z"/>
					</g>
					<path fill="none" stroke="#BE8538" stroke-width="4" d="M49.7,82.3v22.1c0,3.9,3.1,7,7,7h43c3.9,0,7-3.1,7-7V82.3
						c2.4,0.1,4.8-0.8,6.4-2.8c2.8-3.3,2.3-8.2-1-10.9L83.5,44.5c-1.5-1.2-3.3-1.9-5.2-1.8c-1.9,0-3.7,0.6-5.1,1.8l-5.9,5v-0.1
						c0-2.2-1.8-4-4-4h-6c-2.2,0-4,1.8-4,4v11.8l-8.8,7.4c-3.3,2.8-3.7,7.7-1,10.9C45.1,81.4,47.4,82.4,49.7,82.3z"/>
				</g>
				<g id="Combined-Shape_1_">
					<g>
						<path id="path-2" fill="#FFFFFF" d="M48.7,75.8v24.6c0,2.8,2.2,5,5,5h43c2.8,0,5-2.2,5-5V75.7c2.3,1.1,5.1,0.5,6.8-1.5
							c2-2.4,1.7-6.1-0.7-8.1L79.2,42c-1.1-0.9-2.5-1.4-3.9-1.3c-1.4,0-2.7,0.4-3.8,1.3l-9.2,7.7v-4.4c0-1.1-0.9-2-2-2h-6
							c-1.1,0-2,0.9-2,2v12.7l-9.5,8c-2.4,2-2.8,5.7-0.7,8.1C43.7,76.2,46.5,76.8,48.7,75.8L48.7,75.8z"/>
					</g>
					<path fill="none" stroke="#FFFFFF" stroke-width="4" d="M46.7,78.3v22.1c0,3.9,3.1,7,7,7h43c3.9,0,7-3.1,7-7V78.3
						c2.4,0.1,4.8-0.8,6.4-2.8c2.8-3.3,2.3-8.2-1-10.9L80.5,40.5c-1.5-1.2-3.3-1.9-5.2-1.8c-1.9,0-3.7,0.6-5.1,1.8l-5.9,5v-0.1
						c0-2.2-1.8-4-4-4h-6c-2.2,0-4,1.8-4,4v11.8l-8.8,7.4c-3.3,2.8-3.7,7.7-1,10.9C42.1,77.4,44.4,78.4,46.7,78.3z"/>
				</g>
				<path id="Rectangle-2" fill="#0FBD8C" d="M48.7,73.4l26.5-21.9l26.5,21.9v27c0,2.8-2.2,5-5,5h-43c-2.8,0-5-2.2-5-5V73.4z"/>
				<path id="Rectangle-5" fill="#0B8E69" d="M65.2,83.4c0-1.1,0.9-2,2-2h16c1.1,0,2,0.9,2,2v22h-20V83.4z"/>
				<path id="Rectangle-4" fill="#0FBD8C" d="M52.2,45.4c0-1.1,0.9-2,2-2h6c1.1,0,2,0.9,2,2v16h-10V45.4z"/>
				<path id="Combined-Shape_2_" fill="#0B8E69" d="M75.3,40.7c1.4,0,2.8,0.4,3.9,1.3l28.7,24.1c2.4,2,2.8,5.7,0.7,8.1
					c-2.1,2.4-5.7,2.8-8.1,0.7L75.3,53.8L50.2,74.9c-2.4,2-6.1,1.7-8.1-0.7c-2.1-2.4-1.7-6.1,0.7-8.1L71.5,42
					C72.6,41.1,73.9,40.6,75.3,40.7L75.3,40.7z"/>
			</g>
		</g>
	</g>
</g>
</svg>
