<svg xmlns="http://www.w3.org/2000/svg" viewBox="0 0 168 168"><radialGradient id="a" cx="-144.187" cy="-240.977" r="78.088" gradientTransform="matrix(1 0 0 -1 232 -152.955)" gradientUnits="userSpaceOnUse"><stop offset=".5"/><stop offset="1" stop-opacity="0"/></radialGradient><path fill="url(#a)" d="M87.8 166.1c-43.1 0-78.1-35-78.1-78.1 0-43.1 35-78.1 78.1-78.1 43.1 0 78.1 35 78.1 78.1 0 43.1-35 78.1-78.1 78.1z"/><circle fill="none" stroke="#28A5DA" stroke-width="20" stroke-miterlimit="10" cx="78.8" cy="80" r="68.1"/><circle fill="#F9A737" cx="78.8" cy="80" r="68.1"/><linearGradient id="b" gradientUnits="userSpaceOnUse" x1="-153.187" y1="-248.265" x2="-153.187" y2="-164.889" gradientTransform="matrix(1 0 0 -1 232 -152.955)"><stop offset="0" stop-color="#fff" stop-opacity="0"/><stop offset="1" stop-color="#fff" stop-opacity=".5"/></linearGradient><path fill="url(#b)" d="M146.9 80c0 4.6-30.5 15.3-68.1 15.3C41.2 95.3 10.7 83 10.7 80c0-37.6 30.5-68.1 68.1-68.1 37.6 0 68.1 30.5 68.1 68.1z"/><path fill="#BE8538" d="M55.7 83.8v24.6c0 2.8 2.2 5 5 5h43c2.8 0 5-2.2 5-5V83.7c2.3 1.1 5.1.5 6.8-1.5 2-2.4 1.7-6.1-.7-8.1L86.2 50c-1.1-.9-2.5-1.4-3.9-1.3-1.4 0-2.7.4-3.8 1.3l-9.2 7.7v-4.4c0-1.1-.9-2-2-2h-6c-1.1 0-2 .9-2 2V66l-9.5 8c-2.4 2-2.8 5.7-.7 8.1 1.6 2.1 4.4 2.7 6.6 1.7z"/><path fill="none" stroke="#BE8538" stroke-width="4" d="M53.7 86.3v22.1c0 3.9 3.1 7 7 7h43c3.9 0 7-3.1 7-7V86.3c2.4.1 4.8-.8 6.4-2.8 2.8-3.3 2.3-8.2-1-10.9L87.5 48.5c-1.5-1.2-3.3-1.9-5.2-1.8-1.9 0-3.7.6-5.1 1.8l-5.9 5v-.1c0-2.2-1.8-4-4-4h-6c-2.2 0-4 1.8-4 4v11.8l-8.8 7.4c-3.3 2.8-3.7 7.7-1 10.9 1.6 1.9 3.9 2.9 6.2 2.8z"/><path fill="#FFF" d="M52.7 79.8v24.6c0 2.8 2.2 5 5 5h43c2.8 0 5-2.2 5-5V79.7c2.3 1.1 5.1.5 6.8-1.5 2-2.4 1.7-6.1-.7-8.1L83.2 46c-1.1-.9-2.5-1.4-3.9-1.3-1.4 0-2.7.4-3.8 1.3l-9.2 7.7v-4.4c0-1.1-.9-2-2-2h-6c-1.1 0-2 .9-2 2V62l-9.5 8c-2.4 2-2.8 5.7-.7 8.1 1.6 2.1 4.4 2.7 6.6 1.7z"/><path fill="none" stroke="#FFF" stroke-width="4" d="M50.7 82.3v22.1c0 3.9 3.1 7 7 7h43c3.9 0 7-3.1 7-7V82.3c2.4.1 4.8-.8 6.4-2.8 2.8-3.3 2.3-8.2-1-10.9L84.5 44.5c-1.5-1.2-3.3-1.9-5.2-1.8-1.9 0-3.7.6-5.1 1.8l-5.9 5v-.1c0-2.2-1.8-4-4-4h-6c-2.2 0-4 1.8-4 4v11.8l-8.8 7.4c-3.3 2.8-3.7 7.7-1 10.9 1.6 1.9 3.9 2.9 6.2 2.8z"/><path fill="#0FBD8C" d="M52.7 77.4l26.5-21.9 26.5 21.9v27c0 2.8-2.2 5-5 5h-43c-2.8 0-5-2.2-5-5v-27z"/><path fill="#0B8E69" d="M69.2 87.4c0-1.1.9-2 2-2h16c1.1 0 2 .9 2 2v22h-20v-22z"/><path fill="#0FBD8C" d="M56.2 49.4c0-1.1.9-2 2-2h6c1.1 0 2 .9 2 2v16h-10v-16z"/><path fill="#0B8E69" d="M79.3 44.7c1.4 0 2.8.4 3.9 1.3l28.7 24.1c2.4 2 2.8 5.7.7 8.1-2.1 2.4-5.7 2.8-8.1.7L79.3 57.8 54.2 78.9c-2.4 2-6.1 1.7-8.1-.7-2.1-2.4-1.7-6.1.7-8.1L75.5 46c1.1-.9 2.4-1.4 3.8-1.3z"/></svg>