<?xml version="1.0" encoding="utf-8"?>
<!-- Generator: Adobe Illustrator 15.0.0, SVG Export Plug-In . SVG Version: 6.00 Build 0)  -->
<!DOCTYPE svg PUBLIC "-//W3C//DTD SVG 1.1//EN" "http://www.w3.org/Graphics/SVG/1.1/DTD/svg11.dtd">
<svg version="1.1" id="Layer_2" xmlns="http://www.w3.org/2000/svg" xmlns:xlink="http://www.w3.org/1999/xlink" x="0px" y="0px"
	 width="168px" height="168px" viewBox="0 0 168 168" enable-background="new 0 0 168 168" xml:space="preserve">
<g>
	<g>
		<circle fill="none" stroke="#228BAF" stroke-width="20" stroke-miterlimit="10" cx="85.089" cy="85.089" r="68.089"/>
	</g>
	<circle fill="#F9A737" cx="85.089" cy="85.089" r="68.089"/>
	
		<linearGradient id="SVGID_1_" gradientUnits="userSpaceOnUse" x1="3010.8994" y1="-28.9805" x2="3010.8994" y2="54.395" gradientTransform="matrix(-1 0 0 1 3095.9883 96.9805)">
		<stop  offset="0" style="stop-color:#FFFFFF;stop-opacity:0"/>
		<stop  offset="1" style="stop-color:#FFFFFF;stop-opacity:0.5"/>
	</linearGradient>
	<path fill="url(#SVGID_1_)" d="M17,83.288C17,78.681,47.483,68,85.088,68c37.605,0,68.09,12.33,68.09,15.288
		c0,37.604-30.482,68.088-68.09,68.088C47.485,151.376,17,120.891,17,83.288z"/>
	<g>
		<path fill="#966020" d="M115.049,124.839H95.014l0.012-17.698c0.031-0.303,0.056-0.609,0.056-0.922
			c0-4.586-3.729-8.314-8.313-8.314c-4.585,0-8.313,3.729-8.313,8.314c0,0.313,0.021,0.623,0.056,0.932l0.009,0.162v17.526h-20.04
			c-1.906,0-3.964-1.159-3.964-3.032V87.339h-5.274c-0.914,0-1.676-0.351-2.141-0.979c-0.469-0.637-0.578-1.478-0.308-2.362
			l7.202-23.439c0.557-1.804,2.525-3.216,4.482-3.216h2.037V50.16c0-2.995,2.098-3.318,3-3.318h12c0.902,0,3,0.323,3,3.318v7.182
			h36.538c1.922,0,3.934,1.462,4.481,3.259l7.198,23.345c0.273,0.876,0.16,1.756-0.315,2.408c-0.474,0.633-1.244,0.988-2.127,0.988
			h-5.276v34.469C119.012,123.706,116.997,124.839,115.049,124.839z"/>
		<path fill="#F9A737" d="M125.3,84.385l-7.2-23.349c-0.357-1.17-1.781-2.197-3.047-2.197H77.014v-8.682c0-0.604,0-1.818-1.5-1.818
			h-12c-1.5,0-1.5,1.219-1.5,1.818v8.682h-3.536c-1.296,0-2.689,0.989-3.051,2.156l-7.201,23.438
			c-0.129,0.422-0.1,0.792,0.082,1.038c0.176,0.238,0.508,0.368,0.932,0.368h6.774v35.968c0,0.902,1.3,1.532,2.464,1.532h18.536
			v-16.026c-0.039-0.36-0.063-0.726-0.063-1.094c0-5.412,4.404-9.814,9.812-9.814c5.41,0,9.813,4.402,9.813,9.814
			c0,0.368-0.022,0.731-0.063,1.09v16.03h18.535c1.169,0,2.463-0.627,2.463-1.532V85.839h6.777c0.408,0,0.734-0.134,0.917-0.376
			C125.398,85.2,125.438,84.818,125.3,84.385z"/>
	</g>
</g>
</svg>
