<svg xmlns="http://www.w3.org/2000/svg" width="168" height="168" viewBox="0 0 168 168"><radialGradient id="a" cx="-169.133" cy="-239.663" r="78.088" gradientTransform="matrix(1 0 0 -1 256.945 -151.64)" gradientUnits="userSpaceOnUse"><stop offset=".5"/><stop offset="1" stop-opacity="0"/></radialGradient><path fill="url(#a)" d="M87.812 166.109c-43.059 0-78.088-35.028-78.088-78.088 0-43.058 35.03-78.086 78.088-78.086S165.9 44.964 165.9 88.021c0 43.06-35.029 78.088-78.088 78.088z"/><circle fill="none" stroke="#28A5DA" stroke-width="20" stroke-miterlimit="10" cx="78.813" cy="78.023" r="68.089"/><circle fill="#F9A737" cx="78.813" cy="78.023" r="68.089"/><linearGradient id="b" gradientUnits="userSpaceOnUse" x1="-178.133" y1="-244.951" x2="-178.133" y2="-161.576" gradientTransform="matrix(1 0 0 -1 256.945 -151.64)"><stop offset="0" stop-color="#fff" stop-opacity="0"/><stop offset="1" stop-color="#fff" stop-opacity=".5"/></linearGradient><path fill="url(#b)" d="M146.9 78.023c0 4.607-30.482 15.288-68.086 15.288s-68.09-12.331-68.09-15.288c0-37.604 30.483-68.088 68.09-68.088 37.602 0 68.086 30.484 68.086 68.088z"/><path opacity=".3" fill="#333" d="M109.771 126.271H53.202c-6.429 0-11.464-4.625-11.464-10.53V88.544c-2.403-.504-4.507-1.832-5.959-3.812-1.877-2.542-2.403-5.828-1.437-8.996l7.205-23.451c.967-3.129 3.289-5.711 6.189-7.184v-1.01c0-7.104 5.282-10.82 10.5-10.82h12c5.141 0 10.342 3.605 10.496 10.5h29.042c5.235 0 10.137 3.604 11.654 8.566l7.194 23.328c.981 3.143.465 6.455-1.437 9.046a9.974 9.974 0 0 1-5.955 3.828v27.198c.004 5.909-5.029 10.534-11.459 10.534z"/><path fill="#FFF" d="M106.771 123.271H50.202c-6.429 0-11.464-4.625-11.464-10.53V85.544c-2.403-.506-4.507-1.833-5.959-3.81-1.877-2.543-2.403-5.828-1.437-8.996l7.205-23.451c.967-3.129 3.289-5.711 6.189-7.184v-1.01c0-7.104 5.282-10.82 10.5-10.82h12c5.141 0 10.342 3.605 10.496 10.5h29.042c5.235 0 10.137 3.604 11.654 8.566l7.194 23.328c.981 3.143.465 6.455-1.437 9.047a9.974 9.974 0 0 1-5.955 3.828v27.198c.004 5.906-5.029 10.531-11.459 10.531z"/><path fill="#966020" d="M116.014 78.273c1.906 0 3.008-1.576 2.445-3.396l-7.201-23.346c-.562-1.82-2.576-3.258-4.479-3.258H50.202c-1.906 0-3.923 1.395-4.481 3.217L38.52 74.928c-.56 1.819.541 3.346 2.446 3.346h5.275v34.464c0 1.906 2.057 3.033 3.965 3.033h56.573c1.906 0 3.964-1.129 3.964-3.033V81.567v-3.293l5.271-.001z"/><path fill="#966020" d="M55.238 48.273h45v1.5h-45z"/><path fill="#966020" d="M52.238 61.773v-20.68c0-2.998 2.097-3.32 3-3.32h12c.904 0 3 .326 3 3.32v20.68h-18z"/><path fill="#F9A737" d="M68.738 41.093c0-.604 0-1.82-1.5-1.82h-12c-1.5 0-1.5 1.219-1.5 1.82V60.275h15V41.093z"/><path fill="#F9A737" d="M50.202 114.271c-1.164 0-2.464-.629-2.464-1.53V76.773h-6.774c-.424 0-.756-.129-.932-.369-.182-.246-.211-.615-.082-1.037l7.201-23.438c.36-1.166 1.755-2.156 3.051-2.156h56.573c1.267 0 2.689 1.029 3.047 2.197l7.201 23.35c.138.434.101.814-.094 1.078-.182.242-.508.375-.916.375h-6.777v35.968c0 .903-1.295 1.53-2.463 1.53H50.202z"/><path fill="#966020" d="M88.303 97.15c0-5.409-4.405-9.813-9.815-9.813-5.409 0-9.813 4.404-9.813 9.813 0 .369.025.732.063 1.095v17.53h19.5V98.241c.039-.357.065-.72.065-1.091z"/><path fill="#FFF" d="M70.238 114.271V98.163l-.008-.084a8.394 8.394 0 0 1-.058-.929c0-4.584 3.729-8.313 8.314-8.313 4.587 0 8.314 3.729 8.314 8.313 0 .314-.021.623-.055.929l-.011.162v16.03H70.238z"/></svg>