<svg xmlns="http://www.w3.org/2000/svg" width="168" height="168" viewBox="0 0 168 168"><circle fill="none" stroke="#228BAF" stroke-width="20" stroke-miterlimit="10" cx="85.089" cy="85.089" r="68.089"/><circle fill="#F9A737" cx="85.089" cy="85.089" r="68.089"/><linearGradient id="a" gradientUnits="userSpaceOnUse" x1="3010.899" y1="-28.98" x2="3010.899" y2="54.395" gradientTransform="matrix(-1 0 0 1 3095.988 96.98)"><stop offset="0" stop-color="#fff" stop-opacity="0"/><stop offset="1" stop-color="#fff" stop-opacity=".5"/></linearGradient><path fill="url(#a)" d="M17 83.288C17 78.681 47.483 68 85.088 68c37.605 0 68.09 12.33 68.09 15.288 0 37.604-30.482 68.088-68.09 68.088C47.485 151.376 17 120.891 17 83.288z"/><path fill="#966020" d="M115.049 124.839H95.014l.012-17.698a9.02 9.02 0 0 0 .056-.922c0-4.586-3.729-8.314-8.313-8.314-4.585 0-8.313 3.729-8.313 8.314 0 .313.021.623.056.932l.009.162v17.526h-20.04c-1.906 0-3.964-1.159-3.964-3.032V87.339h-5.274c-.914 0-1.676-.351-2.141-.979-.469-.637-.578-1.478-.308-2.362l7.202-23.439c.557-1.804 2.525-3.216 4.482-3.216h2.037V50.16c0-2.995 2.098-3.318 3-3.318h12c.902 0 3 .323 3 3.318v7.182h36.538c1.922 0 3.934 1.462 4.481 3.259l7.198 23.345c.273.876.16 1.756-.315 2.408-.474.633-1.244.988-2.127.988h-5.276v34.469c-.002 1.895-2.017 3.028-3.965 3.028z"/><path fill="#F9A737" d="M125.3 84.385l-7.2-23.349c-.357-1.17-1.781-2.197-3.047-2.197H77.014v-8.682c0-.604 0-1.818-1.5-1.818h-12c-1.5 0-1.5 1.219-1.5 1.818v8.682h-3.536c-1.296 0-2.689.989-3.051 2.156l-7.201 23.438c-.129.422-.1.792.082 1.038.176.238.508.368.932.368h6.774v35.968c0 .902 1.3 1.532 2.464 1.532h18.536v-16.026c-.039-.36-.063-.726-.063-1.094 0-5.412 4.404-9.814 9.812-9.814 5.41 0 9.813 4.402 9.813 9.814 0 .368-.022.731-.063 1.09v16.03h18.535c1.169 0 2.463-.627 2.463-1.532V85.839h6.777c.408 0 .734-.134.917-.376.193-.263.233-.645.095-1.078z"/></svg>