<?xml version="1.0" encoding="utf-8"?>
<!-- Generator: Adobe Illustrator 15.0.0, SVG Export Plug-In . SVG Version: 6.00 Build 0)  -->
<!DOCTYPE svg PUBLIC "-//W3C//DTD SVG 1.1//EN" "http://www.w3.org/Graphics/SVG/1.1/DTD/svg11.dtd">
<svg version="1.1" id="Layer_2" xmlns="http://www.w3.org/2000/svg" xmlns:xlink="http://www.w3.org/1999/xlink" x="0px" y="0px"
	 width="168px" height="168px" viewBox="0 0 168 168" enable-background="new 0 0 168 168" xml:space="preserve">
<g>
	<g enable-background="new    ">
		
			<radialGradient id="SVGID_1_" cx="-169.1328" cy="-239.6631" r="78.0879" gradientTransform="matrix(1 0 0 -1 256.9448 -151.6406)" gradientUnits="userSpaceOnUse">
			<stop  offset="0.5" style="stop-color:#000000"/>
			<stop  offset="1" style="stop-color:#000000;stop-opacity:0"/>
		</radialGradient>
		<path fill="url(#SVGID_1_)" d="M87.812,166.109c-43.059,0-78.088-35.028-78.088-78.088c0-43.058,35.03-78.086,78.088-78.086
			S165.9,44.964,165.9,88.021C165.9,131.081,130.871,166.109,87.812,166.109z"/>
	</g>
	<g>
		<circle fill="none" stroke="#28A5DA" stroke-width="20" stroke-miterlimit="10" cx="78.813" cy="78.023" r="68.089"/>
	</g>
	<circle fill="#F9A737" cx="78.813" cy="78.023" r="68.089"/>
	
		<linearGradient id="SVGID_2_" gradientUnits="userSpaceOnUse" x1="-178.1328" y1="-244.9507" x2="-178.1328" y2="-161.5757" gradientTransform="matrix(1 0 0 -1 256.9448 -151.6406)">
		<stop  offset="0" style="stop-color:#FFFFFF;stop-opacity:0"/>
		<stop  offset="1" style="stop-color:#FFFFFF;stop-opacity:0.5"/>
	</linearGradient>
	<path fill="url(#SVGID_2_)" d="M146.9,78.023c0,4.607-30.482,15.288-68.086,15.288s-68.09-12.331-68.09-15.288
		c0-37.604,30.483-68.088,68.09-68.088C116.416,9.935,146.9,40.419,146.9,78.023z"/>
	<path opacity="0.3" fill="#333333" enable-background="new    " d="M109.771,126.271H53.202c-6.429,0-11.464-4.625-11.464-10.53
		V88.544c-2.403-0.504-4.507-1.832-5.959-3.812c-1.877-2.542-2.403-5.828-1.437-8.996l7.205-23.451
		c0.967-3.129,3.289-5.711,6.189-7.184v-1.01c0-7.104,5.282-10.82,10.5-10.82h12c5.141,0,10.342,3.605,10.496,10.5h29.042
		c5.235,0,10.137,3.604,11.654,8.566l7.194,23.328c0.981,3.143,0.465,6.455-1.437,9.046c-1.488,1.998-3.582,3.319-5.955,3.828
		v27.198C121.234,121.646,116.201,126.271,109.771,126.271z"/>
	<path fill="#FFFFFF" d="M106.771,123.271H50.202c-6.429,0-11.464-4.625-11.464-10.53V85.544c-2.403-0.506-4.507-1.833-5.959-3.81
		c-1.877-2.543-2.403-5.828-1.437-8.996l7.205-23.451c0.967-3.129,3.289-5.711,6.189-7.184v-1.01c0-7.104,5.282-10.82,10.5-10.82h12
		c5.141,0,10.342,3.605,10.496,10.5h29.042c5.235,0,10.137,3.604,11.654,8.566l7.194,23.328c0.981,3.143,0.465,6.455-1.437,9.047
		c-1.488,1.998-3.582,3.319-5.955,3.828v27.198C118.234,118.646,113.201,123.271,106.771,123.271z"/>
	<path fill="#966020" d="M116.014,78.273c1.906,0,3.008-1.576,2.445-3.396l-7.201-23.346c-0.562-1.82-2.576-3.258-4.479-3.258
		H73.295H55.976h-5.774c-1.906,0-3.923,1.395-4.481,3.217L38.52,74.928c-0.56,1.819,0.541,3.346,2.446,3.346h5.275
		c0,0,0,1.388,0,3.293v31.171c0,1.906,2.057,3.033,3.965,3.033h56.573c1.906,0,3.964-1.129,3.964-3.033V81.567
		c0-1.905,0-3.293,0-3.293L116.014,78.273L116.014,78.273z"/>
	<rect x="55.238" y="48.273" fill="#966020" width="45" height="1.5"/>
	<path fill="#966020" d="M55.975,48.08"/>
	<path fill="#966020" d="M52.238,61.773v-20.68c0-2.998,2.097-3.32,3-3.32h12c0.904,0,3,0.326,3,3.32v20.68H52.238z"/>
	<path fill="#F9A737" d="M68.738,41.093c0-0.604,0-1.82-1.5-1.82h-12c-1.5,0-1.5,1.219-1.5,1.82v18.594c0,0.604,0,0.588,0,0.588h15
		c0,0,0,0.016,0-0.588V41.093z"/>
	<path fill="#F9A737" d="M50.202,114.271c-1.164,0-2.464-0.629-2.464-1.53V76.773h-6.774c-0.424,0-0.756-0.129-0.932-0.369
		c-0.182-0.246-0.211-0.615-0.082-1.037l7.201-23.438c0.36-1.166,1.755-2.156,3.051-2.156h56.573c1.267,0,2.689,1.029,3.047,2.197
		l7.201,23.35c0.138,0.434,0.101,0.814-0.094,1.078c-0.182,0.242-0.508,0.375-0.916,0.375h-6.777v35.968
		c0,0.903-1.295,1.53-2.463,1.53H50.202L50.202,114.271z"/>
	<path fill="#966020" d="M88.303,97.15c0-5.409-4.405-9.813-9.815-9.813c-5.409,0-9.813,4.404-9.813,9.813
		c0,0.369,0.025,0.732,0.063,1.095v17.53h19.5V98.241C88.277,97.884,88.303,97.521,88.303,97.15z"/>
	<path fill="#FFFFFF" d="M70.238,114.271V98.163l-0.008-0.084c-0.034-0.308-0.058-0.613-0.058-0.929
		c0-4.584,3.729-8.313,8.314-8.313c4.587,0,8.314,3.729,8.314,8.313c0,0.314-0.021,0.623-0.055,0.929l-0.011,0.162v16.03H70.238
		L70.238,114.271z"/>
</g>
</svg>
