<svg xmlns="http://www.w3.org/2000/svg" viewBox="0 0 168 168"><radialGradient id="a" cx="-144.187" cy="-240.977" r="78.088" gradientTransform="matrix(1 0 0 -1 232 -152.955)" gradientUnits="userSpaceOnUse"><stop offset=".5"/><stop offset="1" stop-opacity="0"/></radialGradient><path fill="url(#a)" d="M87.8 166.1c-43.1 0-78.1-35-78.1-78.1 0-43.1 35-78.1 78.1-78.1 43.1 0 78.1 35 78.1 78.1 0 43.1-35 78.1-78.1 78.1z"/><circle fill="none" stroke="#28A5DA" stroke-width="20" stroke-miterlimit="10" cx="78.8" cy="80" r="68.1"/><circle fill="#F9A737" cx="78.8" cy="80" r="68.1"/><linearGradient id="b" gradientUnits="userSpaceOnUse" x1="-153.187" y1="-248.265" x2="-153.187" y2="-164.889" gradientTransform="matrix(1 0 0 -1 232 -152.955)"><stop offset="0" stop-color="#fff" stop-opacity="0"/><stop offset="1" stop-color="#fff" stop-opacity=".5"/></linearGradient><path fill="url(#b)" d="M146.9 80c0 4.6-30.5 15.3-68.1 15.3C41.2 95.3 10.7 83 10.7 80c0-37.6 30.5-68.1 68.1-68.1 37.6 0 68.1 30.5 68.1 68.1z"/><title>other-icon</title><g transform="translate(-8.7 -7.756)"><path fill="#BE8538" stroke="#BE8538" stroke-width="6.3" d="M70 64.3c11.1-11.1 29.1-11.1 40.1 0 11.1 11.1 11.1 29.1 0 40.1L90 124.6l-20.1-20.1c-11.1-11.1-11.1-29.1 0-40.1l.1-.1z"/><path fill="#35A8DF" d="M67 61.3c11.1-11.1 29.1-11.1 40.1 0 11.1 11.1 11.1 29.1 0 40.1L87 121.6l-20.1-20.1c-11.1-11.1-11.1-29.1 0-40.1l.1-.1z"/><path fill="#2E91BF" d="M104.5 58.9c.9.7 1.8 1.5 2.7 2.3 11.1 11.1 11.1 29.1 0 40.1L87 121.6l-12.5-12.5 7.5 7.5 20.2-20.2c10.2-10.2 11-26.3 2.3-37.5z"/><ellipse fill="#2E91BF" cx="86.6" cy="80.9" rx="11.7" ry="11.7"/><path fill="#287EA6" d="M79.4 90.1c-2.7-2.1-4.5-5.5-4.5-9.2 0-6.5 5.2-11.7 11.7-11.7 3.7 0 7.1 1.8 9.2 4.5-2-1.6-4.5-2.5-7.2-2.5-6.5 0-11.7 5.2-11.7 11.7 0 2.7.9 5.2 2.5 7.2z"/><path fill="none" stroke="#FFF" stroke-width="6.3" d="M67 61.3c11.1-11.1 29.1-11.1 40.1 0 11.1 11.1 11.1 29.1 0 40.1L87 121.6l-20.1-20.1c-11.1-11.1-11.1-29.1 0-40.1l.1-.1z"/></g></svg>