<?xml version="1.0" encoding="utf-8"?>
<!-- Generator: Adobe Illustrator 21.0.2, SVG Export Plug-In . SVG Version: 6.00 Build 0)  -->
<svg version="1.1" id="Layer_2" xmlns="http://www.w3.org/2000/svg" xmlns:xlink="http://www.w3.org/1999/xlink" x="0px" y="0px"
	 viewBox="0 0 168 168" enable-background="new 0 0 168 168" xml:space="preserve">
<g>
	<g enable-background="new    ">
		
			<radialGradient id="SVGID_1_" cx="-144.187" cy="-240.9766" r="78.0882" gradientTransform="matrix(1 0 0 -1 232 -152.9551)" gradientUnits="userSpaceOnUse">
			<stop  offset="0.5" style="stop-color:#000000"/>
			<stop  offset="1" style="stop-color:#000000;stop-opacity:0"/>
		</radialGradient>
		<path fill="url(#SVGID_1_)" d="M87.8,166.1c-43.1,0-78.1-35-78.1-78.1c0-43.1,35-78.1,78.1-78.1c43.1,0,78.1,35,78.1,78.1
			C165.9,131.1,130.9,166.1,87.8,166.1z"/>
	</g>
	<g>
		<circle fill="none" stroke="#28A5DA" stroke-width="20" stroke-miterlimit="10" cx="78.8" cy="80" r="68.1"/>
	</g>
	<circle fill="#F9A737" cx="78.8" cy="80" r="68.1"/>
	
		<linearGradient id="SVGID_2_" gradientUnits="userSpaceOnUse" x1="-153.187" y1="-248.2651" x2="-153.187" y2="-164.8891" gradientTransform="matrix(1 0 0 -1 232 -152.9551)">
		<stop  offset="0" style="stop-color:#FFFFFF;stop-opacity:0"/>
		<stop  offset="1" style="stop-color:#FFFFFF;stop-opacity:0.5"/>
	</linearGradient>
	<path fill="url(#SVGID_2_)" d="M146.9,80c0,4.6-30.5,15.3-68.1,15.3C41.2,95.3,10.7,83,10.7,80c0-37.6,30.5-68.1,68.1-68.1
		C116.4,11.9,146.9,42.4,146.9,80z"/>
	<path display="none" opacity="0.3" fill="#333333" enable-background="new    " d="M90.1,137.5L53,131.7l5.6-37.5l0.2,0l0.1-0.7
		c0.4-4.1,1.3-13.1,7.1-19.8L41,70l1.6-7.3c2.2-10.1,7-18.5,14-24.1c6.6-5.4,14.9-8.2,24.5-8.2c2.6,0,5.4,0.2,8.3,0.6
		c27.7,4.1,36.1,22.9,34.9,37.7l-0.1,0.5c-2.6,17.6-13.6,21.4-21.7,24.1c-1,0.3-1.9,0.6-2.9,1c-3.6,1.3-3.6,1.4-4,4.5l-1,6.9l-0.3,0
		L90.1,137.5z"/>
	<path display="none" fill="#FFFFFF" d="M88.1,134.5L51,128.7l5.6-37.5l0.2,0l0.1-0.7c0.4-4.1,1.3-13.1,7.1-19.8L39,67l1.6-7.3
		c2.2-10.1,7-18.5,14-24.1c6.6-5.4,14.9-8.2,24.5-8.2c2.6,0,5.4,0.2,8.3,0.6c27.7,4.1,36.1,22.9,34.9,37.7l-0.1,0.5
		c-2.6,17.6-13.6,21.4-21.7,24.1c-1,0.3-1.9,0.6-2.9,1c-3.6,1.3-3.6,1.4-4,4.5l-1,6.9l-0.3,0L88.1,134.5z"/>
	<path display="none" fill="#28A5DA" d="M47.4,61.1C49,53.5,52.7,46.1,58.9,41c6.3-5.2,15.3-7.9,27.3-6.1c24,3.6,29.9,19.2,29,30.3
		c-2.3,15.1-11.3,16.3-20,19.5c-6,2.3-7.7,4.4-8.6,10.1l-22.8-3.4c0.5-5.1,1.6-16.5,11.9-20.4c4.1-1.5,12.1-2.3,12.9-7.9
		c0.6-4.1-1.6-6.7-6.2-7.3c-5.9-0.9-9,3.8-9.3,9.3L47.4,61.1z M62.6,99.2l22.6,3.5l-3.1,23.7L59,122.8L62.6,99.2z"/>
</g>
<title>other-icon</title>
<desc>Created with Sketch.</desc>
<g id="Page-1">
	<g id="Tablet-Landscape-v1" transform="translate(-680.000000, -439.000000)">
		<g id="Other" transform="translate(648.000000, 415.000000)">
			<g id="other-icon" transform="translate(23.300000, 16.243902)">
				<path id="Rectangle" fill="#BE8538" stroke="#BE8538" stroke-width="6.3" d="M70,64.3c11.1-11.1,29.1-11.1,40.1,0l0,0
					c11.1,11.1,11.1,29.1,0,40.1L90,124.6l-20.1-20.1c-11.1-11.1-11.1-29.1,0-40.1L70,64.3z"/>
				<path id="Rectangle_1_" fill="#35A8DF" d="M67,61.3c11.1-11.1,29.1-11.1,40.1,0l0,0c11.1,11.1,11.1,29.1,0,40.1L87,121.6
					l-20.1-20.1c-11.1-11.1-11.1-29.1,0-40.1L67,61.3z"/>
				<path id="Combined-Shape" fill="#2E91BF" d="M104.5,58.9c0.9,0.7,1.8,1.5,2.7,2.3c11.1,11.1,11.1,29.1,0,40.1L87,121.6
					l-12.5-12.5l7.5,7.5l20.2-20.2C112.4,86.2,113.2,70.1,104.5,58.9L104.5,58.9z"/>
				<ellipse id="Oval-2" fill="#2E91BF" cx="86.6" cy="80.9" rx="11.7" ry="11.7"/>
				<path id="Combined-Shape_1_" fill="#287EA6" d="M79.4,90.1c-2.7-2.1-4.5-5.5-4.5-9.2c0-6.5,5.2-11.7,11.7-11.7
					c3.7,0,7.1,1.8,9.2,4.5c-2-1.6-4.5-2.5-7.2-2.5c-6.5,0-11.7,5.2-11.7,11.7C76.9,85.6,77.8,88.1,79.4,90.1L79.4,90.1z"/>
				<path id="Rectangle_2_" fill="none" stroke="#FFFFFF" stroke-width="6.3" d="M67,61.3c11.1-11.1,29.1-11.1,40.1,0l0,0
					c11.1,11.1,11.1,29.1,0,40.1L87,121.6l-20.1-20.1c-11.1-11.1-11.1-29.1,0-40.1L67,61.3z"/>
			</g>
		</g>
	</g>
</g>
</svg>
