<svg xmlns="http://www.w3.org/2000/svg" viewBox="0 0 168 168"><radialGradient id="a" cx="-144.187" cy="-240.977" r="78.088" gradientTransform="matrix(1 0 0 -1 232 -152.955)" gradientUnits="userSpaceOnUse"><stop offset=".5"/><stop offset="1" stop-opacity="0"/></radialGradient><path fill="url(#a)" d="M87.8 166.1c-43.1 0-78.1-35-78.1-78.1 0-43.1 35-78.1 78.1-78.1 43.1 0 78.1 35 78.1 78.1 0 43.1-35 78.1-78.1 78.1z"/><circle fill="none" stroke="#28A5DA" stroke-width="20" stroke-miterlimit="10" cx="78.8" cy="80" r="68.1"/><circle fill="#F9A737" cx="78.8" cy="80" r="68.1"/><linearGradient id="b" gradientUnits="userSpaceOnUse" x1="-153.187" y1="-248.265" x2="-153.187" y2="-164.889" gradientTransform="matrix(1 0 0 -1 232 -152.955)"><stop offset="0" stop-color="#fff" stop-opacity="0"/><stop offset="1" stop-color="#fff" stop-opacity=".5"/></linearGradient><path fill="url(#b)" d="M146.9 80c0 4.6-30.5 15.3-68.1 15.3C41.2 95.3 10.7 83 10.7 80c0-37.6 30.5-68.1 68.1-68.1 37.6 0 68.1 30.5 68.1 68.1z"/><title>other-icon</title><title>school-icon</title><path fill="#BE8538" d="M98.6 48.685c.8 0 1.7 0 2.5.1-.4 3.9-1.9 7.5-4.4 10.5 7 1.8 11.9 8.2 11.9 15.4v.9c-.3 16-10.5 30.5-18.1 34.3-.4.2-.9.4-1.3.6l-.5.2h-.5c-.4.1-.8.2-1.2.1h-.6c-2 .1-4-.6-5.4-2.1-1.4 1.5-3.4 2.3-5.5 2.3h-.6c-.4 0-.8 0-1.2-.1h-.5l-.5-.2c-.5-.1-.9-.3-1.3-.6-7.7-4-17.8-18.6-18.1-34.5v-.8c0-6.6 4-12.5 10.2-14.9 6.1-2.4 13.1-.8 17.6 4.1.4-.4.8-.9 1.3-1.2-.3-8-6-9.6-7.4-9.9h-.2c-.6-.3-.6-1.3-.1-2.4.5-1 1.1-1.5 1.6-1.5h.2c5.6 2 7.2 7.3 7.1 12.3.5-3.7 2.3-7.1 5-9.6 3-2 6.4-3.1 10-3z"/><path fill="none" stroke="#BE8538" stroke-width="6.3" d="M77.5 51.785c.2-.1.2-.2.2-.1-.1 0-.2.1-.2.1zm-1 .3h-.2.2zm0-1.8c.6.4.9 1 .9 1.6-.2.2-.6.3-.9.3v-1.9zm8 1.4c-1.8 2.3-3.1 5-3.7 7.9-.1.4-.2.8-.2 1.2v.1h.1l1.8.1 4.3.3c0-3.7-.7-7-2.3-9.6-1.5-2.5-3.8-4.5-6.9-5.6l-.5-.2h-.8c-2 0-3.4 1.3-4.4 3.3-1.2 2.4-1.2 5.3 1.5 6.6l.2.1.2.1c.3.1.5.1.8.1.7.2 1.6.6 2.3 1.3 0 0 .1 0 .1.1 1 .9 1.7 2.3 2 4.2 0 .2.1.5.1.7v.6h.6l2.5-.1-1.6-1.9-.1-.1-.3-.5c-.4.4-.8.7-1.2 1.1-.1.1-.2.2-.3.4l.4.4.6.6 1.3 1.2 2.3-2.1c-.3-.3-.5-.6-.8-.9-.5-.5-1.1-1-1.7-1.5-1.2-.9-2.4-1.6-3.8-2.2-4.6-2-9.9-2.2-14.7-.3-7.3 2.9-12.2 9.9-12.2 17.8v.7c.3 15.5 9.7 32 19.7 37.3.6.4 1.3.7 2 .9l.4.1.5.2h.6c.5.1 1 .2 1.6.1h.6c1.9.1 3.9-.5 5.5-1.5 1.7.9 3.5 1.3 5.4 1.3h.6c.5 0 1 0 1.5-.1h.6l.5-.2.5-.2c.6-.2 1.3-.5 1.9-.8 9.9-5.1 19.4-21.5 19.8-37v-.9c0-7.2-4-13.7-10.2-16.9 1.5-2.7 2.4-5.6 2.7-8.7l.3-3-3-.4c-.9-.1-1.9-.2-2.9-.2-4.2-.1-8.3 1.1-11.7 3.5l-.2.1-.2.1c-.8.8-1.5 1.6-2.1 2.4z"/><path fill="#FFF" d="M95.9 46.885c.8 0 1.7 0 2.5.1-.4 3.9-1.9 7.5-4.4 10.5 7 1.8 11.9 8.2 11.9 15.4v.8c-.3 16-10.5 30.5-18.1 34.3-.4.2-.9.4-1.3.6l-.5.2h-.4c-.4.1-.8.2-1.2.1h-.6c-2 .1-4-.6-5.4-2.1-1.4 1.5-3.4 2.3-5.5 2.3h-.6c-.4 0-.8 0-1.2-.1h-.4l-.5-.2c-.5-.1-.9-.3-1.3-.6-7.7-4-17.8-18.6-18.1-34.5v-.8c0-6.6 4-12.5 10.2-14.9 6.1-2.4 13.1-.8 17.6 4.1.4-.4.8-.9 1.3-1.2-.3-8-6-9.6-7.4-9.9h-.2c-.5-.2-.5-1.3 0-2.3.5-1 1.1-1.5 1.6-1.5h.2c5.6 2 7.2 7.3 7.1 12.3.5-3.7 2.3-7.1 5-9.6 2.7-2 6.1-3.1 9.7-3z"/><path fill="none" stroke="#FFF" stroke-width="5.4" d="M74.2 49.785c.1.2.1.3.1.4 0 0 0-.1.1-.3l.2-.4c-.1.1-.2.2-.4.3zm-.4.1h-.2.2zm0-.8c.2.2.3.4.4.6 0 .1 0 .1.1.2-.1 0-.3.1-.4.1v-.9zm7.9 1.6c-1.7 2.3-2.8 5-3.4 7.9 0 .2-.1.4-.1.6l.8.1 4.6.3c.1-3.4-.5-6.4-1.9-8.9-1.4-2.7-3.7-4.8-7-6l-.4-.2h-.7c-1.8 0-3.1 1.2-4 3-1.1 2.2-1.1 4.9 1.3 6l.2.1h.1c.2.1.5.1.7.1.8.2 1.7.7 2.6 1.4.5.5 1 1 1.4 1.7.4.8.8 1.8.9 3 0 .3.1.7.1 1v.2h.2l2.5-.1-1.8-2c-.4.3-.7.6-1 1l-.5.5.6.5.2.1 1.3 1.2 2-1.8-1.2-1.2c-.2-.2-.5-.4-.7-.6-.8-.7-1.6-1.2-2.5-1.7-4.8-2.8-10.7-3.3-16.1-1.2-7.2 2.8-11.9 9.7-11.9 17.4v.8c.3 15.3 9.6 31.7 19.5 36.9.6.3 1.2.6 1.9.8l.4.1.4.1h.5c.5.1 1 .2 1.5.1h.6c1.9.1 3.9-.5 5.5-1.5 1.6.9 3.5 1.4 5.4 1.3h.6c.5 0 1 0 1.5-.1h.5l.4-.1.5-.2c.6-.2 1.2-.4 1.8-.8 9.8-5 19.2-21.3 19.5-36.7v-.9c0-7.2-4.1-13.6-10.4-16.7 1.6-2.7 2.6-5.8 2.9-8.9l.2-2.6-2.6-.3c-.9-.1-1.9-.2-2.8-.2-4.1-.1-8.1 1.1-11.5 3.5l-.2.1-.1.1c-.7.9-1.6 1.8-2.3 2.8z"/><path fill="#F05A28" d="M105.9 73.785c-.3 16-10.5 30.5-18.1 34.3-.4.2-.9.4-1.3.6l-.5.2h-.4c-.4.1-.8.2-1.2.1h-.6c-2 .1-4-.6-5.4-2.1-1.4 1.5-3.4 2.3-5.5 2.3h-.6c-.4 0-.8 0-1.2-.1h-.4l-.5-.2c-.5-.1-.9-.3-1.3-.6-7.7-4-17.8-18.6-18.1-34.5v-.8c0-6.6 4-12.5 10.2-14.9 6.1-2.4 13.1-.8 17.6 4.1 4.5-4.8 11.4-6.5 17.5-4.1 6.1 2.4 10.2 8.3 10.2 14.9-.4.3-.4.6-.4.8z"/><path fill="#D45024" d="M61.5 102.185c2.4 2.8 4.9 5 7.2 6.2.4.2.9.4 1.3.6l.5.2h.4c.4.1.8.2 1.2.1h.6c2.1.1 4-.8 5.5-2.3 1.4 1.4 3.4 2.2 5.4 2.1h.6c.4 0 .8 0 1.2-.1h.4l.5-.2c.5-.1.9-.3 1.3-.6 7.7-3.8 17.8-18.4 18.1-34.3v-.8h.1c0-5.3-2.6-10.2-6.9-13.1 1.8 2.6 2.9 5.8 2.9 9.1h-.1v.8c-.3 16-10.5 30.5-18.1 34.3-.4.2-.9.4-1.3.6l-.5.2h-.4c-.4.1-.8.2-1.2.1h-.6c-2 .1-4-.6-5.4-2.1-1.4 1.5-3.4 2.3-5.5 2.3h-.6c-.4 0-.8 0-1.2-.1h-.4l-.5-.2c-.5-.1-.9-.3-1.3-.6-1.1-.6-2.2-1.3-3.2-2.2z"/><path fill="#FF8C66" d="M65.1 63.385c-3.2-1.4-6.9-.2-8.6 2.8-2 3-2 6.9 0 9.9.4-5.5 3.7-10.3 8.6-12.7z"/><path fill="#8A5D3B" d="M71.8 50.985h.3c1.9.4 10.9 3.1 5.9 19h1s6.6-18.5-5.3-22.8c-.5-.2-1.3.4-1.9 1.5-.6 1-.5 2 0 2.3z"/><path fill="#37B34A" d="M98.4 47.085l-17.9 14.3s.5-7.5 5.5-11.5c4.9-4 12.4-2.8 12.4-2.8z"/><path fill="#009345" d="M92.9 58.585c-4.9 4-12.4 2.8-12.4 2.8l17.9-14.3s-.5 7.5-5.5 11.5z"/><path fill="#F05A28" d="M77.5 63.885H86v7.5h-8.5z"/><path fill="#DA4E28" d="M66.5 57.085c4.7 0 9.2 2.1 12.2 5.7 1.6 2 4.9 0 4.9 0-.7 1.2-1.9 2.1-3.2 2.3-4.4 0-6.4-8-13.9-8z"/></svg>