<?xml version="1.0" encoding="utf-8"?>
<!-- Generator: Adobe Illustrator 21.0.2, SVG Export Plug-In . SVG Version: 6.00 Build 0)  -->
<svg version="1.1" id="Layer_2" xmlns="http://www.w3.org/2000/svg" xmlns:xlink="http://www.w3.org/1999/xlink" x="0px" y="0px"
	 viewBox="0 0 168 168" enable-background="new 0 0 168 168" xml:space="preserve">
<g>
	<g enable-background="new    ">
		
			<radialGradient id="SVGID_1_" cx="-144.187" cy="-240.9766" r="78.0882" gradientTransform="matrix(1 0 0 -1 232 -152.9551)" gradientUnits="userSpaceOnUse">
			<stop  offset="0.5" style="stop-color:#000000"/>
			<stop  offset="1" style="stop-color:#000000;stop-opacity:0"/>
		</radialGradient>
		<path fill="url(#SVGID_1_)" d="M87.8,166.1c-43.1,0-78.1-35-78.1-78.1c0-43.1,35-78.1,78.1-78.1c43.1,0,78.1,35,78.1,78.1
			C165.9,131.1,130.9,166.1,87.8,166.1z"/>
	</g>
	<g>
		<circle fill="none" stroke="#28A5DA" stroke-width="20" stroke-miterlimit="10" cx="78.8" cy="80" r="68.1"/>
	</g>
	<circle fill="#F9A737" cx="78.8" cy="80" r="68.1"/>
	
		<linearGradient id="SVGID_2_" gradientUnits="userSpaceOnUse" x1="-153.187" y1="-248.2651" x2="-153.187" y2="-164.8891" gradientTransform="matrix(1 0 0 -1 232 -152.9551)">
		<stop  offset="0" style="stop-color:#FFFFFF;stop-opacity:0"/>
		<stop  offset="1" style="stop-color:#FFFFFF;stop-opacity:0.5"/>
	</linearGradient>
	<path fill="url(#SVGID_2_)" d="M146.9,80c0,4.6-30.5,15.3-68.1,15.3C41.2,95.3,10.7,83,10.7,80c0-37.6,30.5-68.1,68.1-68.1
		C116.4,11.9,146.9,42.4,146.9,80z"/>
	<path display="none" opacity="0.3" fill="#333333" enable-background="new    " d="M90.1,137.5L53,131.7l5.6-37.5l0.2,0l0.1-0.7
		c0.4-4.1,1.3-13.1,7.1-19.8L41,70l1.6-7.3c2.2-10.1,7-18.5,14-24.1c6.6-5.4,14.9-8.2,24.5-8.2c2.6,0,5.4,0.2,8.3,0.6
		c27.7,4.1,36.1,22.9,34.9,37.7l-0.1,0.5c-2.6,17.6-13.6,21.4-21.7,24.1c-1,0.3-1.9,0.6-2.9,1c-3.6,1.3-3.6,1.4-4,4.5l-1,6.9l-0.3,0
		L90.1,137.5z"/>
	<path display="none" fill="#FFFFFF" d="M88.1,134.5L51,128.7l5.6-37.5l0.2,0l0.1-0.7c0.4-4.1,1.3-13.1,7.1-19.8L39,67l1.6-7.3
		c2.2-10.1,7-18.5,14-24.1c6.6-5.4,14.9-8.2,24.5-8.2c2.6,0,5.4,0.2,8.3,0.6c27.7,4.1,36.1,22.9,34.9,37.7l-0.1,0.5
		c-2.6,17.6-13.6,21.4-21.7,24.1c-1,0.3-1.9,0.6-2.9,1c-3.6,1.3-3.6,1.4-4,4.5l-1,6.9l-0.3,0L88.1,134.5z"/>
	<path display="none" fill="#28A5DA" d="M47.4,61.1C49,53.5,52.7,46.1,58.9,41c6.3-5.2,15.3-7.9,27.3-6.1c24,3.6,29.9,19.2,29,30.3
		c-2.3,15.1-11.3,16.3-20,19.5c-6,2.3-7.7,4.4-8.6,10.1l-22.8-3.4c0.5-5.1,1.6-16.5,11.9-20.4c4.1-1.5,12.1-2.3,12.9-7.9
		c0.6-4.1-1.6-6.7-6.2-7.3c-5.9-0.9-9,3.8-9.3,9.3L47.4,61.1z M62.6,99.2l22.6,3.5l-3.1,23.7L59,122.8L62.6,99.2z"/>
</g>
<title>other-icon</title>
<desc>Created with Sketch.</desc>
<title>school-icon</title>
<desc>Created with Sketch.</desc>
<g id="Page-1">
	<g id="Tablet-Landscape-v1" transform="translate(-280.000000, -441.000000)">
		<g id="School" transform="translate(251.000000, 415.000000)">
			<g id="school-icon" transform="translate(34.200000, 31.585366)">
				<g id="Path">
					<g>
						<path id="path-1" fill="#BE8538" d="M93.4,43.1c0.8,0,1.7,0,2.5,0.1c-0.4,3.9-1.9,7.5-4.4,10.5c7,1.8,11.9,8.2,11.9,15.4V70
							c-0.3,16-10.5,30.5-18.1,34.3c-0.4,0.2-0.9,0.4-1.3,0.6l-0.5,0.2H83c-0.4,0.1-0.8,0.2-1.2,0.1h-0.6c-2,0.1-4-0.6-5.4-2.1
							c-1.4,1.5-3.4,2.3-5.5,2.3h-0.6c-0.4,0-0.8,0-1.2-0.1H68l-0.5-0.2c-0.5-0.1-0.9-0.3-1.3-0.6c-7.7-4-17.8-18.6-18.1-34.5v-0.8
							c0-6.6,4-12.5,10.2-14.9c6.1-2.4,13.1-0.8,17.6,4.1c0.4-0.4,0.8-0.9,1.3-1.2c-0.3-8-6-9.6-7.4-9.9l0,0c-0.1,0-0.1,0-0.2,0
							C69,47,69,46,69.5,44.9c0.5-1,1.1-1.5,1.6-1.5h0.2c5.6,2,7.2,7.3,7.1,12.3c0.5-3.7,2.3-7.1,5-9.6C86.4,44.1,89.8,43,93.4,43.1
							L93.4,43.1z"/>
					</g>
					<path fill="none" stroke="#BE8538" stroke-width="6.3" d="M72.3,46.2c0,0.1,0,0.1,0,0.2C72.3,46.5,72.3,46.4,72.3,46.2
						c0.2-0.1,0.2-0.2,0.2-0.1C72.4,46.1,72.3,46.2,72.3,46.2z M71.3,46.5c-0.1,0-0.1,0-0.2,0L71.3,46.5L71.3,46.5z M71.3,44.7
						c0.6,0.4,0.9,1,0.9,1.6c-0.2,0.2-0.6,0.3-0.9,0.3V44.7z M79.3,46.1c-1.8,2.3-3.1,5-3.7,7.9c-0.1,0.4-0.2,0.8-0.2,1.2
						c0,0,0,0.1,0,0.1l0.1,0l1.8,0.1l4.3,0.3C81.6,52,80.9,48.7,79.3,46.1c-1.5-2.5-3.8-4.5-6.9-5.6l-0.5-0.2h-0.6h-0.2
						c-2,0-3.4,1.3-4.4,3.3c-1.2,2.4-1.2,5.3,1.5,6.6l0.2,0.1l0.2,0.1c0.3,0.1,0.5,0.1,0.8,0.1c0.7,0.2,1.6,0.6,2.3,1.3
						c0,0,0.1,0,0.1,0.1c1,0.9,1.7,2.3,2,4.2c0,0.2,0.1,0.5,0.1,0.7c0,0.2,0,0.4,0,0.6l0.6,0l2.5-0.1l-1.6-1.9l-0.1-0.1L75,54.8
						c-0.4,0.4-0.8,0.7-1.2,1.1c-0.1,0.1-0.2,0.2-0.3,0.4l0.4,0.4l0.6,0.6l1.3,1.2l2.3-2.1c-0.3-0.3-0.5-0.6-0.8-0.9
						c-0.5-0.5-1.1-1-1.7-1.5c-1.2-0.9-2.4-1.6-3.8-2.2c-4.6-2-9.9-2.2-14.7-0.3c-7.3,2.9-12.2,9.9-12.2,17.8V70
						c0.3,15.5,9.7,32,19.7,37.3c0.6,0.4,1.3,0.7,2,0.9l0.4,0.1l0.5,0.2H68h0.1c0.5,0.1,1,0.2,1.6,0.1l0.6,0
						c1.9,0.1,3.9-0.5,5.5-1.5c1.7,0.9,3.5,1.3,5.4,1.3h0.6c0.5,0,1,0,1.5-0.1h0.1h0.5l0.5-0.2l0.5-0.2c0.6-0.2,1.3-0.5,1.9-0.8
						c9.9-5.1,19.4-21.5,19.8-37l0-0.9c0-7.2-4-13.7-10.2-16.9c1.5-2.7,2.4-5.6,2.7-8.7l0.3-3l-3-0.4c-0.9-0.1-1.9-0.2-2.9-0.2
						c-4.2-0.1-8.3,1.1-11.7,3.5l-0.2,0.1l-0.2,0.1C80.6,44.5,79.9,45.3,79.3,46.1z"/>
				</g>
				<g id="Path_1_">
					<g>
						<path id="path-2" fill="#FFFFFF" d="M90.7,41.3c0.8,0,1.7,0,2.5,0.1c-0.4,3.9-1.9,7.5-4.4,10.5c7,1.8,11.9,8.2,11.9,15.4v0.8
							c-0.3,16-10.5,30.5-18.1,34.3c-0.4,0.2-0.9,0.4-1.3,0.6l-0.5,0.2h-0.4c-0.4,0.1-0.8,0.2-1.2,0.1h-0.6c-2,0.1-4-0.6-5.4-2.1
							c-1.4,1.5-3.4,2.3-5.5,2.3h-0.6c-0.4,0-0.8,0-1.2-0.1h-0.4l-0.5-0.2c-0.5-0.1-0.9-0.3-1.3-0.6c-7.7-4-17.8-18.6-18.1-34.5
							v-0.8c0-6.6,4-12.5,10.2-14.9c6.1-2.4,13.1-0.8,17.6,4.1c0.4-0.4,0.8-0.9,1.3-1.2c-0.3-8-6-9.6-7.4-9.9l0,0
							c-0.1,0-0.1,0-0.2,0c-0.5-0.2-0.5-1.3,0-2.3c0.5-1,1.1-1.5,1.6-1.5h0.2c5.6,2,7.2,7.3,7.1,12.3c0.5-3.7,2.3-7.1,5-9.6
							C83.7,42.3,87.1,41.2,90.7,41.3L90.7,41.3z"/>
					</g>
					<path fill="none" stroke="#FFFFFF" stroke-width="5.4" d="M69,44.2c0.1,0.2,0.1,0.3,0.1,0.4c0,0,0-0.1,0.1-0.3
						c0.1-0.2,0.2-0.4,0.2-0.4C69.3,44,69.2,44.1,69,44.2z M68.6,44.3c-0.1,0-0.1,0-0.2,0L68.6,44.3L68.6,44.3z M68.6,43.5
						c0.2,0.2,0.3,0.4,0.4,0.6c0,0.1,0,0.1,0.1,0.2c-0.1,0-0.3,0.1-0.4,0.1V43.5z M76.5,45.1c-1.7,2.3-2.8,5-3.4,7.9
						c0,0.2-0.1,0.4-0.1,0.6l0.8,0.1l4.6,0.3C78.5,50.6,77.9,47.6,76.5,45.1c-1.4-2.7-3.7-4.8-7-6l-0.4-0.2h-0.5h-0.2
						c-1.8,0-3.1,1.2-4,3c-1.1,2.2-1.1,4.9,1.3,6l0.2,0.1L66,48c0.2,0.1,0.5,0.1,0.7,0.1c0.8,0.2,1.7,0.7,2.6,1.4
						c0.5,0.5,1,1,1.4,1.7c0.4,0.8,0.8,1.8,0.9,3c0,0.3,0.1,0.7,0.1,1c0,0.1,0,0.1,0,0.2l0.2,0l2.5-0.1l-1.8-2c-0.4,0.3-0.7,0.6-1,1
						c-0.2,0.2-0.3,0.3-0.5,0.5l0.6,0.5l0.2,0.1l1.3,1.2l2-1.8c-0.4-0.4-0.8-0.8-1.2-1.2c-0.2-0.2-0.5-0.4-0.7-0.6
						c-0.8-0.7-1.6-1.2-2.5-1.7c-4.8-2.8-10.7-3.3-16.1-1.2c-7.2,2.8-11.9,9.7-11.9,17.4v0.8c0.3,15.3,9.6,31.7,19.5,36.9
						c0.6,0.3,1.2,0.6,1.9,0.8l0.4,0.1l0.4,0.1h0.4h0.1c0.5,0.1,1,0.2,1.5,0.1l0.6,0c1.9,0.1,3.9-0.5,5.5-1.5
						c1.6,0.9,3.5,1.4,5.4,1.3h0.6c0.5,0,1,0,1.5-0.1h0.1h0.4l0.4-0.1l0.5-0.2c0.6-0.2,1.2-0.4,1.8-0.8c9.8-5,19.2-21.3,19.5-36.7
						l0-0.9c0-7.2-4.1-13.6-10.4-16.7c1.6-2.7,2.6-5.8,2.9-8.9l0.2-2.6l-2.6-0.3c-0.9-0.1-1.9-0.2-2.8-0.2
						c-4.1-0.1-8.1,1.1-11.5,3.5l-0.2,0.1l-0.1,0.1C78.1,43.2,77.2,44.1,76.5,45.1z"/>
				</g>
				<path id="Shape" fill="#F05A28" d="M100.7,68.2c-0.3,16-10.5,30.5-18.1,34.3c-0.4,0.2-0.9,0.4-1.3,0.6l-0.5,0.2h-0.4
					c-0.4,0.1-0.8,0.2-1.2,0.1h-0.6c-2,0.1-4-0.6-5.4-2.1c-1.4,1.5-3.4,2.3-5.5,2.3h-0.6c-0.4,0-0.8,0-1.2-0.1h-0.4l-0.5-0.2
					c-0.5-0.1-0.9-0.3-1.3-0.6c-7.7-4-17.8-18.6-18.1-34.5v-0.8c0-6.6,4-12.5,10.2-14.9c6.1-2.4,13.1-0.8,17.6,4.1
					c4.5-4.8,11.4-6.5,17.5-4.1c6.1,2.4,10.2,8.3,10.2,14.9C100.7,67.7,100.7,68,100.7,68.2z"/>
				<path id="Combined-Shape" fill="#D45024" d="M56.3,96.6c2.4,2.8,4.9,5,7.2,6.2c0.4,0.2,0.9,0.4,1.3,0.6l0.5,0.2h0.4
					c0.4,0.1,0.8,0.2,1.2,0.1h0.6c2.1,0.1,4-0.8,5.5-2.3c1.4,1.4,3.4,2.2,5.4,2.1h0.6c0.4,0,0.8,0,1.2-0.1h0.4l0.5-0.2
					c0.5-0.1,0.9-0.3,1.3-0.6c7.7-3.8,17.8-18.4,18.1-34.3v-0.8h0.1c0-5.3-2.6-10.2-6.9-13.1c1.8,2.6,2.9,5.8,2.9,9.1h-0.1v0.8
					c-0.3,16-10.5,30.5-18.1,34.3c-0.4,0.2-0.9,0.4-1.3,0.6l-0.5,0.2h-0.4c-0.4,0.1-0.8,0.2-1.2,0.1h-0.6c-2,0.1-4-0.6-5.4-2.1
					c-1.4,1.5-3.4,2.3-5.5,2.3h-0.6c-0.4,0-0.8,0-1.2-0.1h-0.4l-0.5-0.2c-0.5-0.1-0.9-0.3-1.3-0.6C58.4,98.2,57.3,97.5,56.3,96.6
					L56.3,96.6z"/>
				<path id="_Path_" fill="#FF8C66" d="M59.9,57.8c-3.2-1.4-6.9-0.2-8.6,2.8c-2,3-2,6.9,0,9.9C51.7,65,55,60.2,59.9,57.8L59.9,57.8
					z"/>
				<path id="Shape_1_" fill="#8A5D3B" d="M66.6,45.4c0.1,0,0.2,0,0.3,0l0,0c1.9,0.4,10.9,3.1,5.9,19h1c0,0,6.6-18.5-5.3-22.8
					c-0.5-0.2-1.3,0.4-1.9,1.5C66,44.1,66.1,45.1,66.6,45.4z"/>
				<path id="Shape_2_" fill="#37B34A" d="M93.2,41.5L75.3,55.8c0,0,0.5-7.5,5.5-11.5C85.7,40.3,93.2,41.5,93.2,41.5z"/>
				<path id="Shape_3_" fill="#009345" d="M87.7,53c-4.9,4-12.4,2.8-12.4,2.8l17.9-14.3C93.2,41.5,92.7,49,87.7,53z"/>
				<rect id="Rectangle-path" x="72.3" y="58.3" fill="#F05A28" width="8.5" height="7.5"/>
				<path id="_Path_3" fill="#DA4E28" d="M61.3,51.5c4.7,0,9.2,2.1,12.2,5.7c1.6,2,4.9,0,4.9,0c-0.7,1.2-1.9,2.1-3.2,2.3
					C70.8,59.5,68.8,51.5,61.3,51.5L61.3,51.5z"/>
			</g>
		</g>
	</g>
</g>
</svg>
