<?xml version="1.0" encoding="utf-8"?>
<!-- Generator: Adobe Illustrator 15.0.0, SVG Export Plug-In . SVG Version: 6.00 Build 0)  -->
<!DOCTYPE svg PUBLIC "-//W3C//DTD SVG 1.1//EN" "http://www.w3.org/Graphics/SVG/1.1/DTD/svg11.dtd">
<svg version="1.1" id="Layer_1" xmlns="http://www.w3.org/2000/svg" xmlns:xlink="http://www.w3.org/1999/xlink" x="0px" y="0px"
	 width="76px" height="66px" viewBox="0 0 76 66" enable-background="new 0 0 76 66" xml:space="preserve">
<g>
	<g>
		<path fill="#43D3FF" d="M9.727,65.15C5.078,65.15,1,61.312,1,56.938c0,0,0.013-5.81,0.013-9.332c0-1.348,0.13-2.725,1.092-2.725
			c0.555,0,1.033,0.544,1.58,1.36c0.712,1.062,1.736,1.622,3.13,1.71c0.083,0.005,0.163,0.008,0.242,0.008
			c1.003,0,1.587-0.41,2.375-1.217c1.233-1.264,1.289-3.469,1.352-13.67c-0.063-10.194-0.119-12.397-1.352-13.662
			c-0.788-0.807-1.372-1.217-2.375-1.217c-0.078,0-0.159,0.003-0.242,0.008c-1.393,0.086-2.416,0.645-3.129,1.708
			c-0.547,0.817-1.025,1.362-1.58,1.362c-0.962,0-1.092-1.378-1.092-2.726C1.013,15.025,1,9.214,1,9.214C1,4.838,5.078,1,9.727,1
			h47.546c4.435,0,8.041,3.684,8.041,8.213c0,0,0.104,9.542,0.104,9.749c0,3.01,0.921,3.01,1.812,3.01
			c0.979,0,1.312-0.513,1.772-1.224c0.522-0.804,1.177-1.804,2.92-1.804c3.011,0,3.021,4.752,3.039,11.946l0.009,2.285l-0.009,2.084
			c-0.019,7.195-0.028,11.948-3.039,11.948c-1.743,0-2.396-1.001-2.92-1.807c-0.462-0.711-0.796-1.226-1.772-1.226
			c-0.891,0-1.812,0-1.812,3.015c0,0.207-0.104,9.752-0.104,9.752c0,4.522-3.606,8.209-8.041,8.209H9.727L9.727,65.15z"/>
		<g>
			<path fill="#308BA0" d="M57.273,1.5c4.166,0,7.541,3.454,7.541,7.713c0,0,0.104,9.542,0.104,9.749c0,3.113,0.979,3.51,2.312,3.51
				c2.566,0,1.824-3.027,4.691-3.027c2.762,0,2.5,5.62,2.549,13.531c0,0.035,0,0.066,0,0.1c0,0.034,0,0.064,0,0.101
				c-0.049,7.909,0.213,13.532-2.549,13.532c-2.867,0-2.125-3.029-4.691-3.029c-1.332,0-2.312,0.399-2.312,3.512
				c0,0.207-0.104,9.748-0.104,9.748c0,4.263-3.375,7.713-7.541,7.713H28.018H9.834H9.727c-4.164,0-8.227-3.45-8.227-7.713
				c0,0,0.013-5.811,0.013-9.332c0-1.685,0.255-2.226,0.592-2.226c0.365,0,0.826,0.634,1.165,1.14
				c0.586,0.873,1.588,1.81,3.514,1.932c0.094,0.006,0.185,0.009,0.273,0.009c1.241,0,1.944-0.562,2.732-1.367
				c1.385-1.42,1.43-3.54,1.494-14.017C11.219,22.6,11.174,20.481,9.789,19.062C9,18.253,8.298,17.693,7.056,17.693
				c-0.088,0-0.179,0.003-0.273,0.009c-1.926,0.119-2.928,1.055-3.514,1.928c-0.339,0.507-0.8,1.141-1.165,1.141
				c-0.337,0-0.592-0.542-0.592-2.226c0-3.521-0.013-9.332-0.013-9.332C1.5,4.954,5.562,1.5,9.727,1.5h0.107h18.184H57.273
				 M57.273,0.5H28.018H9.834H9.727C4.812,0.5,0.5,4.571,0.5,9.213c0,0.002,0.013,5.812,0.013,9.332c0,0.965,0,3.226,1.592,3.226
				c0.863,0,1.483-0.818,1.996-1.584c0.395-0.589,1.11-1.385,2.744-1.486c0.073-0.004,0.143-0.007,0.211-0.007
				c0.835,0,1.297,0.329,2.018,1.067c1.097,1.125,1.148,3.288,1.209,13.321c-0.062,10.023-0.113,12.188-1.21,13.312
				c-0.719,0.734-1.181,1.063-2.017,1.063c-0.069,0-0.139-0.002-0.212-0.007C5.21,47.35,4.496,46.553,4.1,45.963
				c-0.513-0.766-1.132-1.582-1.995-1.582c-0.305,0-1.05,0.115-1.379,1.188c-0.144,0.472-0.213,1.138-0.213,2.037
				c0,3.521-0.013,9.33-0.013,9.33c0,4.646,4.312,8.717,9.227,8.717h0.107h18.184h29.255c4.711,0,8.541-3.908,8.541-8.715
				c0.004-0.379,0.104-9.537,0.104-9.746c0-2.514,0.552-2.514,1.312-2.514c0.672,0,0.873,0.256,1.354,0.997
				c0.525,0.81,1.322,2.033,3.339,2.033c3.509,0,3.521-4.951,3.539-12.446c0.002-0.674,0.004-1.367,0.009-2.08v-0.106v-0.1
				c-0.005-0.719-0.007-1.413-0.009-2.086c-0.021-7.494-0.03-12.445-3.539-12.445c-2.017,0-2.812,1.222-3.339,2.031
				c-0.48,0.74-0.684,0.996-1.354,0.996c-0.76,0-1.312,0-1.312-2.51c0-0.21-0.103-9.37-0.104-9.76
				C65.814,4.409,61.982,0.5,57.273,0.5L57.273,0.5z"/>
		</g>
	</g>
	
		<linearGradient id="SVGID_1_" gradientUnits="userSpaceOnUse" x1="37.9858" y1="608.7764" x2="37.9858" y2="556.4203" gradientTransform="matrix(1 0 0 1 0 -545)">
		<stop  offset="0.1273" style="stop-color:#7AFFFF"/>
		<stop  offset="0.2667" style="stop-color:#7AFFFF;stop-opacity:0.16"/>
		<stop  offset="0.5394" style="stop-color:#7AFFFF;stop-opacity:0"/>
	</linearGradient>
	<path opacity="0.2" fill="url(#SVGID_1_)" enable-background="new    " d="M9.727,63.659c-3.797,0-7.255-3.203-7.255-6.722
		c0,0,0.013-5.812,0.013-9.332c0-0.184,0.004-0.342,0.008-0.485c0.973,1.427,2.396,2.208,4.232,2.319
		c0.115,0.008,0.227,0.011,0.333,0.011c1.663,0,2.601-0.82,3.419-1.658c1.7-1.739,1.713-3.976,1.778-14.709
		c-0.065-10.749-0.078-12.984-1.778-14.724C9.658,17.521,8.721,16.7,7.058,16.7c-0.106,0-0.218,0.004-0.333,0.01
		c-1.838,0.113-3.26,0.895-4.232,2.32c-0.004-0.143-0.008-0.303-0.008-0.485c0-3.521-0.013-9.332-0.013-9.332
		c0-3.516,3.458-6.719,7.255-6.719h47.546c3.623,0,6.572,3.016,6.572,6.719c0.032,3.298,0.104,9.558,0.106,9.749
		c0,3.157,0.979,4.504,3.276,4.504c1.769,0,2.479-1.093,3-1.893c0.476-0.732,0.737-1.135,1.692-1.135
		c1.545,0,1.554,5.079,1.567,10.454c0,0.675,0.011,2.283,0.011,2.283c-0.008,0.71-0.011,1.409-0.011,2.085
		c-0.016,5.374-0.022,10.453-1.567,10.453c-0.955,0-1.219-0.404-1.692-1.135c-0.521-0.803-1.231-1.895-3-1.895
		c-2.299,0-3.276,1.348-3.276,4.506c-0.002,0.188-0.074,6.449-0.106,9.734c0,3.719-2.949,6.732-6.572,6.732H9.727V63.659z"/>
	
		<linearGradient id="SVGID_2_" gradientUnits="userSpaceOnUse" x1="42.7861" y1="544.9385" x2="37.3102" y2="569.2393" gradientTransform="matrix(1 0 0 1 0 -545)">
		<stop  offset="0" style="stop-color:#7AFFFF"/>
		<stop  offset="1" style="stop-color:#7AFFFF;stop-opacity:0.17"/>
	</linearGradient>
	<path opacity="0.75" fill="url(#SVGID_2_)" enable-background="new    " d="M2.492,19.03c0.973-1.426,2.395-2.207,4.232-2.32
		c0.115-0.006,0.227-0.01,0.333-0.01c1.663,0,2.601,0.82,3.419,1.659c1.607,1.645,1.707,6.122,1.768,15.423
		c18.04,4.051,26.213-1.793,45.277-1.793c11.387,0,8.021,0.692,15.975,1.907c0.004-0.244,0.004-0.478,0.006-0.723
		c0,0-0.01-1.608-0.01-2.283c-0.016-5.375-0.023-10.454-1.568-10.454c-0.955,0-1.219,0.402-1.693,1.135
		c-0.521,0.8-1.23,1.893-3,1.893c-2.299,0-3.275-1.347-3.275-4.504c-0.002-0.191-0.074-6.451-0.105-9.749
		c0-3.703-2.949-6.719-6.572-6.719H9.727c-3.797,0-7.255,3.203-7.255,6.719c0,0,0.013,5.811,0.013,9.332
		C2.484,18.728,2.488,18.888,2.492,19.03z"/>
	<path opacity="0.9" fill="#FFFFFF" enable-background="new    " d="M9.727,3.897h47.546c3.623,0,6.572,3.014,6.572,6.719
		c0.032,3.296,0.104,9.558,0.106,9.75c0,3.154,0.979,4.504,3.276,4.504c1.769,0,2.479-1.096,3-1.895
		c0.476-0.731,0.737-1.135,1.692-1.135c1.545,0,1.554,5.077,1.567,10.453c0,0.393,0.003,1.102,0.005,1.625
		c0-0.252,0-0.491,0.006-0.743c0,0-0.011-1.608-0.011-2.283c-0.016-5.375-0.022-10.454-1.567-10.454
		c-0.955,0-1.219,0.402-1.692,1.135c-0.521,0.8-1.231,1.893-3,1.893c-2.299,0-3.276-1.347-3.276-4.504
		c-0.002-0.191-0.074-6.451-0.106-9.749c0-3.703-2.949-6.719-6.572-6.719H9.727c-3.797,0-7.255,3.203-7.255,6.719
		c0,0,0.001,0.528,0.002,1.355C2.505,7.071,5.947,3.897,9.727,3.897z"/>
	<path opacity="0.9" fill="#FFFFFF" enable-background="new    " d="M2.484,49.009c0-0.183,0.004-0.343,0.008-0.485
		c0.973,1.427,2.396,2.207,4.232,2.319c0.115,0.009,0.227,0.013,0.333,0.013c1.663,0,2.601-0.818,3.419-1.66
		c1.7-1.737,1.713-3.977,1.778-14.711c-0.002-0.237-0.003-0.471-0.005-0.7c-0.062,10.13-0.111,12.308-1.773,14.01
		C9.658,48.63,8.721,49.45,7.058,49.45c-0.106,0-0.218-0.003-0.333-0.011c-1.836-0.111-3.26-0.895-4.232-2.319
		c-0.004,0.144-0.008,0.304-0.008,0.485c0,3.521-0.013,9.332-0.013,9.332c0,0.017,0.002,0.03,0.002,0.049
		C2.479,55.059,2.484,51.473,2.484,49.009z"/>
</g>
</svg>
