<svg xmlns="http://www.w3.org/2000/svg" width="76" height="66" viewBox="0 0 76 66"><path fill="#43D3FF" d="M9.727 65.15C5.078 65.15 1 61.312 1 56.938c0 0 .013-5.81.013-9.332 0-1.348.13-2.725 1.092-2.725.555 0 1.033.544 1.58 1.36.712 1.062 1.736 1.622 3.13 1.71.083.005.163.008.242.008 1.003 0 1.587-.41 2.375-1.217 1.233-1.264 1.289-3.469 1.352-13.67-.063-10.194-.119-12.397-1.352-13.662-.788-.807-1.372-1.217-2.375-1.217-.078 0-.159.003-.242.008-1.393.086-2.416.645-3.129 1.708-.547.817-1.025 1.362-1.58 1.362-.962 0-1.092-1.378-1.092-2.726C1.013 15.025 1 9.214 1 9.214 1 4.838 5.078 1 9.727 1h47.546c4.435 0 8.041 3.684 8.041 8.213 0 0 .104 9.542.104 9.749 0 3.01.921 3.01 1.812 3.01.979 0 1.312-.513 1.772-1.224.522-.804 1.177-1.804 2.92-1.804 3.011 0 3.021 4.752 3.039 11.946l.009 2.285-.009 2.084c-.019 7.195-.028 11.948-3.039 11.948-1.743 0-2.396-1.001-2.92-1.807-.462-.711-.796-1.226-1.772-1.226-.891 0-1.812 0-1.812 3.015 0 .207-.104 9.752-.104 9.752 0 4.522-3.606 8.209-8.041 8.209H9.727z"/><path fill="#308BA0" d="M57.273 1.5c4.166 0 7.541 3.454 7.541 7.713 0 0 .104 9.542.104 9.749 0 3.113.979 3.51 2.312 3.51 2.566 0 1.824-3.027 4.691-3.027 2.762 0 2.5 5.62 2.549 13.531v.201c-.049 7.909.213 13.532-2.549 13.532-2.867 0-2.125-3.029-4.691-3.029-1.332 0-2.312.399-2.312 3.512 0 .207-.104 9.748-.104 9.748 0 4.263-3.375 7.713-7.541 7.713H9.727c-4.164 0-8.227-3.45-8.227-7.713 0 0 .013-5.811.013-9.332 0-1.685.255-2.226.592-2.226.365 0 .826.634 1.165 1.14.586.873 1.588 1.81 3.514 1.932.094.006.185.009.273.009 1.241 0 1.944-.562 2.732-1.367 1.385-1.42 1.43-3.54 1.494-14.017-.064-10.479-.109-12.598-1.494-14.017-.789-.809-1.491-1.369-2.733-1.369-.088 0-.179.003-.273.009-1.926.119-2.928 1.055-3.514 1.928-.339.507-.8 1.141-1.165 1.141-.337 0-.592-.542-.592-2.226 0-3.521-.013-9.332-.013-9.332C1.5 4.954 5.562 1.5 9.727 1.5h47.546m0-1H9.727C4.812.5.5 4.571.5 9.213c0 .002.013 5.812.013 9.332 0 .965 0 3.226 1.592 3.226.863 0 1.483-.818 1.996-1.584.395-.589 1.11-1.385 2.744-1.486.073-.004.143-.007.211-.007.835 0 1.297.329 2.018 1.067 1.097 1.125 1.148 3.288 1.209 13.321-.062 10.023-.113 12.188-1.21 13.312-.719.734-1.181 1.063-2.017 1.063-.069 0-.139-.002-.212-.007-1.634-.1-2.348-.897-2.744-1.487-.513-.766-1.132-1.582-1.995-1.582-.305 0-1.05.115-1.379 1.188-.144.472-.213 1.138-.213 2.037 0 3.521-.013 9.33-.013 9.33 0 4.646 4.312 8.717 9.227 8.717h47.546c4.711 0 8.541-3.908 8.541-8.715.004-.379.104-9.537.104-9.746 0-2.514.552-2.514 1.312-2.514.672 0 .873.256 1.354.997.525.81 1.322 2.033 3.339 2.033 3.509 0 3.521-4.951 3.539-12.446.002-.674.004-1.367.009-2.08V32.976c-.005-.719-.007-1.413-.009-2.086-.021-7.494-.03-12.445-3.539-12.445-2.017 0-2.812 1.222-3.339 2.031-.48.74-.684.996-1.354.996-.76 0-1.312 0-1.312-2.51 0-.21-.103-9.37-.104-9.76C65.814 4.409 61.982.5 57.273.5z"/><linearGradient id="a" gradientUnits="userSpaceOnUse" x1="37.986" y1="608.776" x2="37.986" y2="556.42" gradientTransform="translate(0 -545)"><stop offset=".127" stop-color="#7affff"/><stop offset=".267" stop-color="#7affff" stop-opacity=".16"/><stop offset=".539" stop-color="#7affff" stop-opacity="0"/></linearGradient><path opacity=".2" fill="url(#a)" d="M9.727 63.659c-3.797 0-7.255-3.203-7.255-6.722 0 0 .013-5.812.013-9.332 0-.184.004-.342.008-.485.973 1.427 2.396 2.208 4.232 2.319.115.008.227.011.333.011 1.663 0 2.601-.82 3.419-1.658 1.7-1.739 1.713-3.976 1.778-14.709-.065-10.749-.078-12.984-1.778-14.724-.819-.838-1.756-1.659-3.419-1.659-.106 0-.218.004-.333.01-1.838.113-3.26.895-4.232 2.32a16.833 16.833 0 0 1-.008-.485c0-3.521-.013-9.332-.013-9.332 0-3.516 3.458-6.719 7.255-6.719h47.546c3.623 0 6.572 3.016 6.572 6.719.032 3.298.104 9.558.106 9.749 0 3.157.979 4.504 3.276 4.504 1.769 0 2.479-1.093 3-1.893.476-.732.737-1.135 1.692-1.135 1.545 0 1.554 5.079 1.567 10.454 0 .675.011 2.283.011 2.283-.008.71-.011 1.409-.011 2.085-.016 5.374-.022 10.453-1.567 10.453-.955 0-1.219-.404-1.692-1.135-.521-.803-1.231-1.895-3-1.895-2.299 0-3.276 1.348-3.276 4.506-.002.188-.074 6.449-.106 9.734 0 3.719-2.949 6.732-6.572 6.732H9.727v.004z"/><linearGradient id="b" gradientUnits="userSpaceOnUse" x1="42.786" y1="544.938" x2="37.31" y2="569.239" gradientTransform="translate(0 -545)"><stop offset="0" stop-color="#7affff"/><stop offset="1" stop-color="#7affff" stop-opacity=".17"/></linearGradient><path opacity=".75" fill="url(#b)" d="M2.492 19.03c.973-1.426 2.395-2.207 4.232-2.32.115-.006.227-.01.333-.01 1.663 0 2.601.82 3.419 1.659 1.607 1.645 1.707 6.122 1.768 15.423 18.04 4.051 26.213-1.793 45.277-1.793 11.387 0 8.021.692 15.975 1.907.004-.244.004-.478.006-.723 0 0-.01-1.608-.01-2.283-.016-5.375-.023-10.454-1.568-10.454-.955 0-1.219.402-1.693 1.135-.521.8-1.23 1.893-3 1.893-2.299 0-3.275-1.347-3.275-4.504-.002-.191-.074-6.451-.105-9.749 0-3.703-2.949-6.719-6.572-6.719H9.727c-3.797 0-7.255 3.203-7.255 6.719 0 0 .013 5.811.013 9.332-.001.185.003.345.007.487z"/><path opacity=".9" fill="#FFF" d="M9.727 3.897h47.546c3.623 0 6.572 3.014 6.572 6.719.032 3.296.104 9.558.106 9.75 0 3.154.979 4.504 3.276 4.504 1.769 0 2.479-1.096 3-1.895.476-.731.737-1.135 1.692-1.135 1.545 0 1.554 5.077 1.567 10.453 0 .393.003 1.102.005 1.625 0-.252 0-.491.006-.743 0 0-.011-1.608-.011-2.283-.016-5.375-.022-10.454-1.567-10.454-.955 0-1.219.402-1.692 1.135-.521.8-1.231 1.893-3 1.893-2.299 0-3.276-1.347-3.276-4.504-.002-.191-.074-6.451-.106-9.749 0-3.703-2.949-6.719-6.572-6.719H9.727c-3.797 0-7.255 3.203-7.255 6.719l.002 1.355c.031-3.497 3.473-6.671 7.253-6.671zM2.484 49.009c0-.183.004-.343.008-.485.973 1.427 2.396 2.207 4.232 2.319.115.009.227.013.333.013 1.663 0 2.601-.818 3.419-1.66 1.7-1.737 1.713-3.977 1.778-14.711l-.005-.7c-.062 10.13-.111 12.308-1.773 14.01-.818.835-1.755 1.655-3.418 1.655-.106 0-.218-.003-.333-.011-1.836-.111-3.26-.895-4.232-2.319a16.96 16.96 0 0 0-.008.485c0 3.521-.013 9.332-.013 9.332l.002.049c.005-1.927.01-5.513.01-7.977z"/></svg>