<?xml version="1.0" encoding="utf-8"?>
<!-- Generator: Adobe Illustrator 16.0.0, SVG Export Plug-In . SVG Version: 6.00 Build 0)  -->
<!DOCTYPE svg PUBLIC "-//W3C//DTD SVG 1.1//EN" "http://www.w3.org/Graphics/SVG/1.1/DTD/svg11.dtd">
<svg version="1.1" id="Layer_1" xmlns="http://www.w3.org/2000/svg" xmlns:xlink="http://www.w3.org/1999/xlink" x="0px" y="0px"
	 width="85px" height="66px" viewBox="0 0 85 66" enable-background="new 0 0 85 66" xml:space="preserve">
<g>
	<path fill="#B3B3B3" d="M32.409,65.083C15.2,64.988,1.199,50.596,1.199,33.001c0-17.594,14.001-31.987,31.21-32.084l4.439,0.008
		h29.257c4.433,0,8.039,3.684,8.039,8.213c0,0,0.107,9.543,0.107,9.749c0,3.011,0.92,3.011,1.809,3.011
		c0.977,0,1.311-0.513,1.773-1.223c0.523-0.804,1.174-1.804,2.92-1.804c3.012,0,3.023,4.76,3.039,11.966l0.008,2.265l-0.008,2.064
		c-0.016,7.207-0.027,11.969-3.039,11.969c-1.746,0-2.396-1.002-2.92-1.807c-0.463-0.711-0.797-1.225-1.773-1.225
		c-0.889,0-1.809,0-1.809,3.014c0,0.207-0.107,9.752-0.107,9.752c0,4.523-3.606,8.209-8.039,8.209H36.848l-4.436,0.006H32.409z"/>
	<g>
		<path fill="#999999" d="M32.412,1.417l4.436,0.008h29.258c4.164,0,7.539,3.455,7.539,7.713c0,0,0.107,9.543,0.107,9.749
			c0,3.113,0.975,3.511,2.309,3.511c2.566,0,1.824-3.027,4.693-3.027c2.76,0,2.502,5.619,2.547,13.531c0,0.034,0,0.066,0,0.099
			c0,0.034,0,0.065,0,0.101c-0.045,7.91,0.213,13.533-2.547,13.533c-2.869,0-2.127-3.031-4.693-3.031
			c-1.334,0-2.309,0.4-2.309,3.514c0,0.207-0.107,9.746-0.107,9.746c0,4.262-3.375,7.715-7.539,7.715H36.848l-4.436,0.006
			C15.436,64.489,1.699,50.386,1.699,33.001C1.699,15.614,15.436,1.513,32.412,1.417 M32.414,0.417H32.41h-0.004
			C14.923,0.516,0.699,15.133,0.699,33.001c0,17.869,14.224,32.485,31.707,32.582l4.443-0.006h29.256
			c4.709,0,8.539-3.909,8.539-8.715c0.004-0.379,0.107-9.536,0.107-9.746c0-2.514,0.549-2.514,1.309-2.514
			c0.671,0,0.871,0.256,1.354,0.997c0.527,0.811,1.322,2.034,3.34,2.034c3.511,0,3.522-4.96,3.539-12.467
			c0.002-0.667,0.004-1.354,0.008-2.061V33v-0.099c-0.004-0.712-0.006-1.399-0.008-2.066c-0.017-7.506-0.028-12.465-3.539-12.465
			c-2.017,0-2.813,1.222-3.34,2.031c-0.481,0.74-0.683,0.996-1.354,0.996c-0.76,0-1.309,0-1.309-2.511
			c0-0.209-0.104-9.371-0.107-9.76c0-4.793-3.83-8.702-8.539-8.702H36.848L32.414,0.417L32.414,0.417z"/>
	</g>
</g>
</svg>
