<?xml version="1.0" encoding="utf-8"?>
<!-- Generator: Adobe Illustrator 16.0.0, SVG Export Plug-In . SVG Version: 6.00 Build 0)  -->
<!DOCTYPE svg PUBLIC "-//W3C//DTD SVG 1.1//EN" "http://www.w3.org/Graphics/SVG/1.1/DTD/svg11.dtd">
<svg version="1.1" id="Layer_1" xmlns="http://www.w3.org/2000/svg" xmlns:xlink="http://www.w3.org/1999/xlink" x="0px" y="0px"
	 width="76px" height="66px" viewBox="0 0 76 66" enable-background="new 0 0 76 66" xml:space="preserve">
<g>
	<g>
		<path fill="#B3B3B3" d="M9.742,65.075c-4.649,0-8.728-3.838-8.728-8.213c0-0.001,0.014-5.811,0.014-9.332
			c0-1.348,0.13-2.726,1.092-2.726c0.555,0,1.032,0.544,1.579,1.361c0.714,1.063,1.738,1.621,3.13,1.709
			c0.084,0.005,0.166,0.008,0.245,0.008c1.001,0,1.584-0.409,2.373-1.216c1.232-1.264,1.289-3.468,1.353-13.671
			c-0.063-10.194-0.12-12.397-1.353-13.661c-0.789-0.807-1.373-1.217-2.375-1.217c-0.078,0-0.159,0.003-0.242,0.008
			c-1.392,0.086-2.416,0.645-3.13,1.708c-0.546,0.817-1.024,1.362-1.579,1.362c-0.961,0-1.091-1.378-1.091-2.726
			c0-3.52-0.014-9.331-0.014-9.331c0-4.376,4.078-8.214,8.728-8.214H57.29c4.433,0,8.039,3.684,8.039,8.213
			c0,0,0.107,9.542,0.107,9.749c0,3.01,0.918,3.01,1.807,3.01c0.978,0,1.312-0.513,1.774-1.223c0.523-0.804,1.175-1.804,2.921-1.804
			c3.013,0,3.023,4.756,3.04,11.956l0.007,2.276l-0.007,2.074c-0.016,7.2-0.027,11.957-3.04,11.957
			c-1.747,0-2.398-1.001-2.921-1.806c-0.462-0.71-0.797-1.224-1.774-1.224c-0.888,0-1.807,0-1.807,3.012
			c0,0.207-0.107,9.754-0.107,9.754c0,4.522-3.606,8.207-8.039,8.207H9.742z"/>
		<g>
			<path fill="#999999" d="M57.29,1.424c4.162,0,7.539,3.454,7.539,7.713c0,0,0.107,9.542,0.107,9.749
				c0,3.113,0.975,3.51,2.307,3.51c2.568,0,1.824-3.027,4.695-3.027c2.762,0,2.502,5.62,2.547,13.531c0,0.035,0,0.066,0,0.1
				s0,0.064,0,0.102c-0.045,7.908,0.215,13.531-2.547,13.531c-2.871,0-2.127-3.029-4.695-3.029c-1.332,0-2.307,0.4-2.307,3.512
				c0,0.207-0.107,9.748-0.107,9.748c0,4.262-3.377,7.713-7.539,7.713H28.034H9.849H9.742c-4.165,0-8.228-3.451-8.228-7.713
				c0,0,0.014-5.811,0.014-9.332c0-1.685,0.254-2.226,0.592-2.226c0.364,0,0.825,0.634,1.163,1.14
				c0.587,0.873,1.59,1.809,3.515,1.93c0.095,0.006,0.187,0.009,0.276,0.009c1.239,0,1.941-0.559,2.73-1.366
				c1.385-1.42,1.43-3.541,1.495-14.018c-0.065-10.475-0.11-12.593-1.495-14.013c-0.79-0.808-1.492-1.368-2.733-1.368
				c-0.088,0-0.179,0.003-0.273,0.009c-1.925,0.119-2.928,1.055-3.515,1.928c-0.338,0.506-0.799,1.141-1.164,1.141
				c-0.337,0-0.591-0.542-0.591-2.226c0-3.521-0.014-9.332-0.014-9.332c0-4.259,4.063-7.713,8.228-7.713h0.106h18.186H57.29
				 M57.29,0.424H28.034H9.849H9.742c-4.916,0-9.228,4.071-9.228,8.713c0,0.002,0.014,5.813,0.014,9.332
				c0,0.965,0,3.226,1.591,3.226c0.863,0,1.482-0.818,1.995-1.585c0.395-0.588,1.111-1.384,2.745-1.485
				c0.072-0.004,0.143-0.007,0.211-0.007c0.834,0,1.296,0.33,2.018,1.067c1.096,1.124,1.148,3.287,1.21,13.32
				c-0.063,10.025-0.114,12.188-1.211,13.313c-0.719,0.735-1.181,1.064-2.014,1.064c-0.069,0-0.14-0.002-0.214-0.007
				c-1.633-0.103-2.35-0.899-2.747-1.489c-0.511-0.765-1.129-1.582-1.993-1.582h0c-0.305,0-1.05,0.116-1.378,1.188
				c-0.143,0.469-0.213,1.136-0.213,2.037c0,3.521-0.014,9.329-0.014,9.33c0,4.644,4.312,8.715,9.228,8.715h0.106h18.186H57.29
				c4.708,0,8.539-3.908,8.539-8.713c0.004-0.379,0.107-9.538,0.107-9.748c0-2.512,0.548-2.512,1.307-2.512
				c0.672,0,0.873,0.256,1.355,0.997c0.526,0.81,1.322,2.032,3.34,2.032c3.511,0,3.522-4.955,3.54-12.455
				c0.001-0.671,0.003-1.361,0.007-2.07v-0.107v-0.1c-0.004-0.715-0.006-1.406-0.007-2.076c-0.017-7.5-0.028-12.455-3.54-12.455
				c-2.018,0-2.813,1.222-3.34,2.031c-0.482,0.74-0.683,0.996-1.355,0.996c-0.759,0-1.307,0-1.307-2.51
				c0-0.21-0.103-9.371-0.107-9.76C65.829,4.333,61.999,0.424,57.29,0.424L57.29,0.424z"/>
		</g>
	</g>
</g>
</svg>
