<svg xmlns="http://www.w3.org/2000/svg" width="76" height="66" viewBox="0 0 76 66"><path fill="#B3B3B3" d="M9.742 65.075c-4.649 0-8.728-3.838-8.728-8.213 0-.001.014-5.811.014-9.332 0-1.348.13-2.726 1.092-2.726.555 0 1.032.544 1.579 1.361.714 1.063 1.738 1.621 3.13 1.709.084.005.166.008.245.008 1.001 0 1.584-.409 2.373-1.216 1.232-1.264 1.289-3.468 1.353-13.671-.063-10.194-.12-12.397-1.353-13.661-.789-.807-1.373-1.217-2.375-1.217-.078 0-.159.003-.242.008-1.392.086-2.416.645-3.13 1.708-.546.817-1.024 1.362-1.579 1.362-.961 0-1.091-1.378-1.091-2.726 0-3.52-.014-9.331-.014-9.331 0-4.376 4.078-8.214 8.728-8.214H57.29c4.433 0 8.039 3.684 8.039 8.213 0 0 .107 9.542.107 9.749 0 3.01.918 3.01 1.807 3.01.978 0 1.312-.513 1.774-1.223.523-.804 1.175-1.804 2.921-1.804 3.013 0 3.023 4.756 3.04 11.956l.007 2.276-.007 2.074c-.016 7.2-.027 11.957-3.04 11.957-1.747 0-2.398-1.001-2.921-1.806-.462-.71-.797-1.224-1.774-1.224-.888 0-1.807 0-1.807 3.012 0 .207-.107 9.754-.107 9.754 0 4.522-3.606 8.207-8.039 8.207H9.742z"/><path fill="#999" d="M57.29 1.424c4.162 0 7.539 3.454 7.539 7.713 0 0 .107 9.542.107 9.749 0 3.113.975 3.51 2.307 3.51 2.568 0 1.824-3.027 4.695-3.027 2.762 0 2.502 5.62 2.547 13.531v.202c-.045 7.908.215 13.531-2.547 13.531-2.871 0-2.127-3.029-4.695-3.029-1.332 0-2.307.4-2.307 3.512 0 .207-.107 9.748-.107 9.748 0 4.262-3.377 7.713-7.539 7.713H9.742c-4.165 0-8.228-3.451-8.228-7.713 0 0 .014-5.811.014-9.332 0-1.685.254-2.226.592-2.226.364 0 .825.634 1.163 1.14.587.873 1.59 1.809 3.515 1.93.095.006.187.009.276.009 1.239 0 1.941-.559 2.73-1.366 1.385-1.42 1.43-3.541 1.495-14.018-.065-10.475-.11-12.593-1.495-14.013-.79-.808-1.492-1.368-2.733-1.368-.088 0-.179.003-.273.009-1.925.119-2.928 1.055-3.515 1.928-.338.506-.799 1.141-1.164 1.141-.337 0-.591-.542-.591-2.226 0-3.521-.014-9.332-.014-9.332 0-4.259 4.063-7.713 8.228-7.713H57.29m0-1.003H9.742C4.826.424.514 4.495.514 9.137c0 .002.014 5.813.014 9.332 0 .965 0 3.226 1.591 3.226.863 0 1.482-.818 1.995-1.585.395-.588 1.111-1.384 2.745-1.485.072-.004.143-.007.211-.007.834 0 1.296.33 2.018 1.067 1.096 1.124 1.148 3.287 1.21 13.32-.063 10.025-.114 12.188-1.211 13.313-.719.735-1.181 1.064-2.014 1.064-.069 0-.14-.002-.214-.007-1.633-.103-2.35-.899-2.747-1.489-.511-.765-1.129-1.582-1.993-1.582-.305 0-1.05.116-1.378 1.188-.143.469-.213 1.136-.213 2.037 0 3.521-.014 9.329-.014 9.33 0 4.644 4.312 8.715 9.228 8.715H57.29c4.708 0 8.539-3.908 8.539-8.713.004-.379.107-9.538.107-9.748 0-2.512.548-2.512 1.307-2.512.672 0 .873.256 1.355.997.526.81 1.322 2.032 3.34 2.032 3.511 0 3.522-4.955 3.54-12.455.001-.671.003-1.361.007-2.07V32.898a504.25 504.25 0 0 1-.007-2.076c-.017-7.5-.028-12.455-3.54-12.455-2.018 0-2.813 1.222-3.34 2.031-.482.74-.683.996-1.355.996-.759 0-1.307 0-1.307-2.51 0-.21-.103-9.371-.107-9.76 0-4.791-3.83-8.7-8.539-8.7z"/></svg>