<svg xmlns="http://www.w3.org/2000/svg" width="85" height="66" viewBox="0 0 85 66"><path fill="#B3B3B3" d="M32.409 65.083C15.2 64.988 1.199 50.596 1.199 33.001 1.199 15.407 15.2 1.014 32.409.917l4.439.008h29.257c4.433 0 8.039 3.684 8.039 8.213 0 0 .107 9.543.107 9.749 0 3.011.92 3.011 1.809 3.011.977 0 1.311-.513 1.773-1.223.523-.804 1.174-1.804 2.92-1.804 3.012 0 3.023 4.76 3.039 11.966l.008 2.265-.008 2.064c-.016 7.207-.027 11.969-3.039 11.969-1.746 0-2.396-1.002-2.92-1.807-.463-.711-.797-1.225-1.773-1.225-.889 0-1.809 0-1.809 3.014 0 .207-.107 9.752-.107 9.752 0 4.523-3.606 8.209-8.039 8.209H36.848l-4.436.006h-.003z"/><path fill="#999" d="M32.412 1.417l4.436.008h29.258c4.164 0 7.539 3.455 7.539 7.713 0 0 .107 9.543.107 9.749 0 3.113.975 3.511 2.309 3.511 2.566 0 1.824-3.027 4.693-3.027 2.76 0 2.502 5.619 2.547 13.531v.2c-.045 7.91.213 13.533-2.547 13.533-2.869 0-2.127-3.031-4.693-3.031-1.334 0-2.309.4-2.309 3.514 0 .207-.107 9.746-.107 9.746 0 4.262-3.375 7.715-7.539 7.715H36.848l-4.436.006C15.436 64.489 1.699 50.386 1.699 33.001c0-17.387 13.737-31.488 30.713-31.584m.002-1h-.008C14.923.516.699 15.133.699 33.001c0 17.869 14.224 32.485 31.707 32.582l4.443-.006h29.256c4.709 0 8.539-3.909 8.539-8.715.004-.379.107-9.536.107-9.746 0-2.514.549-2.514 1.309-2.514.671 0 .871.256 1.354.997.527.811 1.322 2.034 3.34 2.034 3.511 0 3.522-4.96 3.539-12.467.002-.667.004-1.354.008-2.061V32.901c-.004-.712-.006-1.399-.008-2.066-.017-7.506-.028-12.465-3.539-12.465-2.017 0-2.813 1.222-3.34 2.031-.481.74-.683.996-1.354.996-.76 0-1.309 0-1.309-2.511 0-.209-.104-9.371-.107-9.76 0-4.793-3.83-8.702-8.539-8.702H36.848L32.414.417z"/></svg>