<?xml version="1.0" encoding="utf-8"?>
<!-- Generator: Adobe Illustrator 16.0.0, SVG Export Plug-In . SVG Version: 6.00 Build 0)  -->
<!DOCTYPE svg PUBLIC "-//W3C//DTD SVG 1.1//EN" "http://www.w3.org/Graphics/SVG/1.1/DTD/svg11.dtd">
<svg version="1.1" id="Layer_1" xmlns="http://www.w3.org/2000/svg" xmlns:xlink="http://www.w3.org/1999/xlink" x="0px" y="0px"
	 width="76px" height="66px" viewBox="0 0 76 66" enable-background="new 0 0 76 66" xml:space="preserve">
<g>
	<path fill="#B3B3B3" d="M10.328,65.151c-4.659,0-8.747-3.847-8.747-8.232c0-0.001,0.014-5.827,0.014-9.354
		c0-1.35,0.13-2.729,1.093-2.729c0.556,0,1.035,0.546,1.583,1.365c0.716,1.064,1.743,1.625,3.138,1.711
		c0.085,0.005,0.167,0.008,0.247,0.008c1.001,0,1.586-0.411,2.378-1.22c1.24-1.269,1.291-3.273,1.355-13.703
		c-0.064-10.423-0.115-12.427-1.355-13.695c-0.79-0.809-1.374-1.219-2.379-1.219c-0.079,0-0.161,0.002-0.246,0.008
		c-1.395,0.085-2.421,0.645-3.138,1.711c-0.547,0.818-1.025,1.363-1.582,1.363c-0.963,0-1.093-1.38-1.093-2.73
		c0-3.529-0.014-9.352-0.014-9.353c0-4.386,4.087-8.233,8.747-8.233h32.646C60.313,0.854,74.418,15.277,74.418,33
		c0,17.722-14.104,32.146-31.441,32.151H10.328z"/>
	<g>
		<path fill="#999999" d="M42.977,1.349C60.066,1.354,73.918,15.523,73.918,33S60.066,64.645,42.977,64.651h-0.002H28.662H10.436
			h-0.107c-4.174,0-8.247-3.459-8.247-7.732c0,0,0.014-5.826,0.014-9.354c0-1.687,0.255-2.229,0.593-2.229
			c0.366,0,0.828,0.636,1.167,1.143c0.588,0.874,1.594,1.813,3.522,1.933c0.096,0.006,0.188,0.009,0.278,0.009
			c1.241,0,1.944-0.563,2.735-1.37c1.391-1.423,1.434-3.55,1.498-14.05c-0.064-10.5-0.107-12.626-1.498-14.048
			c-0.791-0.81-1.494-1.369-2.737-1.369c-0.089,0-0.181,0.003-0.276,0.009c-1.929,0.117-2.935,1.057-3.522,1.932
			c-0.339,0.507-0.801,1.142-1.167,1.142c-0.338,0-0.593-0.542-0.593-2.23c0-3.529-0.014-9.354-0.014-9.354
			c0-4.271,4.072-7.732,8.247-7.732h0.107h18.227h14.313H42.977 M42.977,0.349L42.977,0.349h-0.002H28.662H10.436h-0.107
			c-4.926,0-9.247,4.081-9.247,8.732c0,0.002,0.014,5.825,0.014,9.354c0,0.967,0,3.23,1.593,3.23c0.865,0,1.484-0.819,1.998-1.586
			c0.632-0.939,1.506-1.414,2.752-1.489c0.075-0.004,0.146-0.007,0.216-0.007c0.837,0,1.3,0.33,2.021,1.068
			c1.101,1.125,1.152,3.294,1.214,13.355c-0.062,10.05-0.113,12.219-1.213,13.345c-0.724,0.739-1.188,1.069-2.021,1.069
			c-0.07,0-0.141-0.002-0.215-0.007c-1.247-0.078-2.123-0.552-2.755-1.493c-0.512-0.766-1.132-1.584-1.996-1.585
			c-0.306,0-1.051,0.116-1.38,1.189c-0.144,0.47-0.213,1.137-0.213,2.04c0,3.527-0.014,9.352-0.014,9.352
			c0,4.654,4.321,8.735,9.247,8.735h0.107h18.227h14.313C60.589,65.645,74.918,50.998,74.918,33
			C74.918,15.001,60.589,0.354,42.977,0.349L42.977,0.349z"/>
	</g>
</g>
</svg>
