<svg xmlns="http://www.w3.org/2000/svg" width="76" height="66" viewBox="0 0 76 66"><path fill="#B3B3B3" d="M10.328 65.151c-4.659 0-8.747-3.847-8.747-8.232 0-.001.014-5.827.014-9.354 0-1.35.13-2.729 1.093-2.729.556 0 1.035.546 1.583 1.365.716 1.064 1.743 1.625 3.138 1.711.085.005.167.008.247.008 1.001 0 1.586-.411 2.378-1.22 1.24-1.269 1.291-3.273 1.355-13.703-.064-10.423-.115-12.427-1.355-13.695-.79-.809-1.374-1.219-2.379-1.219a3.48 3.48 0 0 0-.246.008c-1.395.085-2.421.645-3.138 1.711-.547.818-1.025 1.363-1.582 1.363-.963 0-1.093-1.38-1.093-2.73 0-3.529-.014-9.352-.014-9.353 0-4.386 4.087-8.233 8.747-8.233h32.646C60.313.854 74.418 15.277 74.418 33c0 17.722-14.104 32.146-31.441 32.151H10.328z"/><path fill="#999" d="M42.977 1.349C60.066 1.354 73.918 15.523 73.918 33S60.066 64.645 42.977 64.651H10.329c-4.174 0-8.247-3.459-8.247-7.732 0 0 .014-5.826.014-9.354 0-1.687.255-2.229.593-2.229.366 0 .828.636 1.167 1.143.588.874 1.594 1.813 3.522 1.933.096.006.188.009.278.009 1.241 0 1.944-.563 2.735-1.37 1.391-1.423 1.434-3.55 1.498-14.05-.064-10.5-.107-12.626-1.498-14.048-.791-.81-1.494-1.369-2.737-1.369-.089 0-.181.003-.276.009-1.929.117-2.935 1.057-3.522 1.932-.339.507-.801 1.142-1.167 1.142-.338 0-.593-.542-.593-2.23 0-3.529-.014-9.354-.014-9.354 0-4.271 4.072-7.732 8.247-7.732H42.977m0-1.002H10.329c-4.926 0-9.247 4.081-9.247 8.732 0 .002.014 5.825.014 9.354 0 .967 0 3.23 1.593 3.23.865 0 1.484-.819 1.998-1.586.632-.939 1.506-1.414 2.752-1.489.075-.004.146-.007.216-.007.837 0 1.3.33 2.021 1.068 1.101 1.125 1.152 3.294 1.214 13.355-.062 10.05-.113 12.219-1.213 13.345-.724.739-1.188 1.069-2.021 1.069a3.17 3.17 0 0 1-.215-.007c-1.247-.078-2.123-.552-2.755-1.493-.512-.766-1.132-1.584-1.996-1.585-.306 0-1.051.116-1.38 1.189-.144.47-.213 1.137-.213 2.04 0 3.527-.014 9.352-.014 9.352 0 4.654 4.321 8.735 9.247 8.735h32.647C60.589 65.645 74.918 50.998 74.918 33 74.918 15.001 60.589.354 42.977.349z"/></svg>