<?xml version="1.0" encoding="utf-8"?>
<!-- Generator: Adobe Illustrator 15.0.0, SVG Export Plug-In . SVG Version: 6.00 Build 0)  -->
<!DOCTYPE svg PUBLIC "-//W3C//DTD SVG 1.1//EN" "http://www.w3.org/Graphics/SVG/1.1/DTD/svg11.dtd">
<svg version="1.1" id="Layer_2_1_" xmlns="http://www.w3.org/2000/svg" xmlns:xlink="http://www.w3.org/1999/xlink" x="0px" y="0px"
	 width="86px" height="66px" viewBox="0 0 86 66" enable-background="new 0 0 86 66" xml:space="preserve">
<g>
	<path opacity="0.3" stroke="#000000" stroke-miterlimit="10" d="M84.562,33.15c0-17.477-13.852-31.646-30.941-31.65
		c-0.001,0-0.002,0-0.002,0H27.626H9.399H9.292c-4.175,0-8.247,3.462-8.247,7.732c0,0,0.014,5.824,0.014,9.354
		c0,3.514,1.107,2.063,1.76,1.088c0.588-0.875,1.594-1.814,3.522-1.932c1.418-0.088,2.165,0.492,3.013,1.36
		c1.391,1.422,1.434,3.548,1.498,14.048c-0.064,10.5-0.107,12.627-1.498,14.05c-0.848,0.866-1.595,1.45-3.013,1.361
		c-1.929-0.12-2.935-1.059-3.522-1.933c-0.652-0.976-1.76-2.427-1.76,1.086c0,3.528-0.014,9.354-0.014,9.354
		c0,4.273,4.072,7.732,8.247,7.732h0.107h18.227h25.992c0,0,0.002,0,0.003,0C70.711,64.796,84.562,50.627,84.562,33.15z"/>
	<g>
		<path fill="#FF0000" d="M9.729,65.539c-4.66,0-8.747-3.847-8.747-8.232c0-0.001,0.014-5.826,0.014-9.354
			c0-1.35,0.13-2.729,1.093-2.729c0.556,0,1.035,0.545,1.583,1.364c0.716,1.064,1.743,1.625,3.138,1.712
			c0.085,0.005,0.167,0.008,0.246,0.008c1.001,0,1.586-0.411,2.378-1.22c1.24-1.269,1.292-3.273,1.355-13.703
			c-0.064-10.423-0.115-12.427-1.355-13.695c-0.79-0.809-1.375-1.22-2.379-1.22c-0.079,0-0.161,0.002-0.245,0.008
			c-1.396,0.086-2.423,0.646-3.138,1.713c-0.548,0.818-1.027,1.364-1.582,1.364c-0.963,0-1.093-1.38-1.093-2.73
			c0-3.53-0.014-9.354-0.014-9.354c0-4.386,4.087-8.232,8.747-8.232h44.327C71.395,1.242,85.5,15.665,85.5,33.388
			S71.396,65.533,54.059,65.539H9.729z"/>
		<g>
			<path fill="#AE1F24" d="M54.059,1.737C71.148,1.742,85,15.912,85,33.388c0,17.477-13.852,31.646-30.941,31.651
				c-0.001,0-0.003,0-0.003,0H28.063H9.837H9.729c-4.175,0-8.247-3.459-8.247-7.732c0,0,0.014-5.826,0.014-9.354
				c0-1.687,0.255-2.229,0.593-2.229c0.366,0,0.828,0.636,1.167,1.143c0.588,0.874,1.594,1.812,3.522,1.933
				c0.096,0.006,0.188,0.009,0.278,0.009c1.241,0,1.944-0.562,2.735-1.37c1.391-1.423,1.434-3.55,1.498-14.05
				c-0.064-10.5-0.107-12.626-1.498-14.048C9,18.53,8.297,17.97,7.055,17.97c-0.089,0-0.182,0.003-0.276,0.009
				c-1.929,0.119-2.935,1.057-3.522,1.934c-0.339,0.507-0.801,1.142-1.167,1.142c-0.338,0-0.593-0.542-0.593-2.23
				c0-3.53-0.014-9.355-0.014-9.355c0-4.27,4.072-7.731,8.247-7.731h0.107h18.227h25.993C54.057,1.737,54.058,1.737,54.059,1.737
				 M54.059,0.737L54.059,0.737h-0.002H28.063H9.837H9.729c-4.926,0-9.247,4.08-9.247,8.731c0,0.002,0.014,5.826,0.014,9.355
				c0,0.966,0,3.23,1.593,3.23c0.864,0,1.484-0.819,1.998-1.586c0.63-0.94,1.505-1.415,2.753-1.492
				c0.074-0.004,0.146-0.007,0.215-0.007c0.836,0,1.299,0.33,2.021,1.069c1.1,1.125,1.152,3.294,1.213,13.355
				c-0.062,10.05-0.113,12.219-1.213,13.344c-0.723,0.739-1.187,1.069-2.02,1.069c-0.07,0-0.141-0.002-0.215-0.007
				c-1.247-0.078-2.123-0.552-2.755-1.492c-0.512-0.766-1.132-1.585-1.996-1.585c-0.306,0-1.051,0.115-1.379,1.188
				c-0.144,0.47-0.214,1.138-0.214,2.04c0,3.527-0.014,9.352-0.014,9.353c0,4.654,4.321,8.734,9.247,8.734h0.107h18.227h25.992
				C71.671,66.033,86,51.386,86,33.388C86,15.389,71.671,0.742,54.059,0.737L54.059,0.737z"/>
		</g>
	</g>
	<g>
		<linearGradient id="SVGID_1_" gradientUnits="userSpaceOnUse" x1="43.2407" y1="64.7021" x2="43.2407" y2="40.6928">
			<stop  offset="0" style="stop-color:#FFFFFF"/>
			<stop  offset="1" style="stop-color:#FFFFFF;stop-opacity:0"/>
		</linearGradient>
		<path opacity="0.33" fill="url(#SVGID_1_)" d="M9.729,64.044c-3.806,0-7.273-3.212-7.273-6.737c0,0,0.014-5.826,0.014-9.354
			c0-0.183,0.003-0.343,0.007-0.484c0.977,1.43,2.402,2.21,4.243,2.323c0.114,0.01,0.228,0.013,0.335,0.013
			c1.664,0,2.605-0.823,3.426-1.662c1.705-1.744,1.717-3.984,1.782-14.747c-0.065-10.775-0.077-13.014-1.782-14.76
			c-0.82-0.842-1.762-1.663-3.426-1.663c-0.107,0-0.221,0.005-0.335,0.011c-1.841,0.113-3.267,0.896-4.243,2.328
			c-0.004-0.145-0.007-0.305-0.007-0.486c0-3.531-0.014-9.358-0.014-9.358c0-3.522,3.468-6.733,7.273-6.733h44.326
			c16.526,0.006,29.97,13.758,29.97,30.655c0,16.899-13.443,30.65-29.967,30.656H9.729z"/>
	</g>
	<path opacity="0.65" fill="#FFFFFF" d="M9.729,4.139h44.326c16.295,0.005,29.587,13.378,29.952,29.953
		c0.005-0.236,0.018-0.468,0.018-0.704c0-16.897-13.443-30.649-29.97-30.655H9.729c-3.806,0-7.273,3.211-7.273,6.733
		c0,0,0.002,0.53,0.003,1.358C2.491,7.321,5.941,4.139,9.729,4.139z"/>
	<linearGradient id="SVGID_2_" gradientUnits="userSpaceOnUse" x1="50.0039" y1="-14.1553" x2="43.337" y2="21.6481">
		<stop  offset="0" style="stop-color:#FFFFFF"/>
		<stop  offset="1" style="stop-color:#FFFFFF;stop-opacity:0.39"/>
	</linearGradient>
	<path opacity="0.53" fill="url(#SVGID_2_)" d="M2.477,19.311c0.977-1.432,2.402-2.215,4.243-2.328
		c0.114-0.006,0.228-0.011,0.335-0.011c1.664,0,2.605,0.821,3.426,1.663c1.705,1.746,1.717,3.984,1.782,14.76
		c-0.003,0.283-0.003,0.559-0.005,0.83l1.623,0.152c22.455,2.12,40.423-4.674,54.169-3.268c8.579,0.877,13.142,3.031,15.861,4.868
		c0.07-0.855,0.114-1.716,0.114-2.59c0-16.897-13.443-30.649-29.97-30.655H9.729c-3.806,0-7.273,3.211-7.273,6.733
		c0,0,0.014,5.827,0.014,9.358C2.47,19.006,2.473,19.166,2.477,19.311z"/>
</g>
</svg>
