<svg xmlns="http://www.w3.org/2000/svg" width="86" height="66" viewBox="0 0 86 66"><path opacity=".3" stroke="#000" stroke-miterlimit="10" d="M84.562 33.15c0-17.477-13.852-31.646-30.941-31.65H9.292c-4.175 0-8.247 3.462-8.247 7.732 0 0 .014 5.824.014 9.354 0 3.514 1.107 2.063 1.76 1.088.588-.875 1.594-1.814 3.522-1.932 1.418-.088 2.165.492 3.013 1.36 1.391 1.422 1.434 3.548 1.498 14.048-.064 10.5-.107 12.627-1.498 14.05-.848.866-1.595 1.45-3.013 1.361-1.929-.12-2.935-1.059-3.522-1.933-.652-.976-1.76-2.427-1.76 1.086 0 3.528-.014 9.354-.014 9.354 0 4.273 4.072 7.732 8.247 7.732h44.329c17.09-.004 30.941-14.173 30.941-31.65z"/><path fill="#F00" d="M9.729 65.539c-4.66 0-8.747-3.847-8.747-8.232 0-.001.014-5.826.014-9.354 0-1.35.13-2.729 1.093-2.729.556 0 1.035.545 1.583 1.364.716 1.064 1.743 1.625 3.138 1.712.085.005.167.008.246.008 1.001 0 1.586-.411 2.378-1.22 1.24-1.269 1.292-3.273 1.355-13.703-.064-10.423-.115-12.427-1.355-13.695-.79-.809-1.375-1.22-2.379-1.22-.079 0-.161.002-.245.008-1.396.086-2.423.646-3.138 1.713-.548.818-1.027 1.364-1.582 1.364-.963 0-1.093-1.38-1.093-2.73 0-3.53-.014-9.354-.014-9.354 0-4.386 4.087-8.232 8.747-8.232h44.327C71.395 1.242 85.5 15.665 85.5 33.388S71.396 65.533 54.059 65.539H9.729z"/><path fill="#AE1F24" d="M54.059 1.737C71.148 1.742 85 15.912 85 33.388c0 17.477-13.852 31.646-30.941 31.651H9.729c-4.175 0-8.247-3.459-8.247-7.732 0 0 .014-5.826.014-9.354 0-1.687.255-2.229.593-2.229.366 0 .828.636 1.167 1.143.588.874 1.594 1.812 3.522 1.933.096.006.188.009.278.009 1.241 0 1.944-.562 2.735-1.37 1.391-1.423 1.434-3.55 1.498-14.05-.064-10.5-.107-12.626-1.498-14.048C9 18.53 8.297 17.97 7.055 17.97c-.089 0-.182.003-.276.009-1.929.119-2.935 1.057-3.522 1.934-.339.507-.801 1.142-1.167 1.142-.338 0-.593-.542-.593-2.23 0-3.53-.014-9.355-.014-9.355 0-4.27 4.072-7.731 8.247-7.731h44.327c0-.002.001-.002.002-.002m0-1H9.729C4.803.737.482 4.817.482 9.468c0 .002.014 5.826.014 9.355 0 .966 0 3.23 1.593 3.23.864 0 1.484-.819 1.998-1.586.63-.94 1.505-1.415 2.753-1.492.074-.004.146-.007.215-.007.836 0 1.299.33 2.021 1.069 1.1 1.125 1.152 3.294 1.213 13.355-.062 10.05-.113 12.219-1.213 13.344-.723.739-1.187 1.069-2.02 1.069a3.17 3.17 0 0 1-.215-.007c-1.247-.078-2.123-.552-2.755-1.492-.512-.766-1.132-1.585-1.996-1.585-.306 0-1.051.115-1.379 1.188-.144.47-.214 1.138-.214 2.04 0 3.527-.014 9.352-.014 9.353 0 4.654 4.321 8.734 9.247 8.734h44.326C71.671 66.033 86 51.386 86 33.388 86 15.389 71.671.742 54.059.737z"/><linearGradient id="a" gradientUnits="userSpaceOnUse" x1="43.241" y1="64.702" x2="43.241" y2="40.693"><stop offset="0" stop-color="#fff"/><stop offset="1" stop-color="#fff" stop-opacity="0"/></linearGradient><path opacity=".33" fill="url(#a)" d="M9.729 64.044c-3.806 0-7.273-3.212-7.273-6.737 0 0 .014-5.826.014-9.354 0-.183.003-.343.007-.484.977 1.43 2.402 2.21 4.243 2.323.114.01.228.013.335.013 1.664 0 2.605-.823 3.426-1.662 1.705-1.744 1.717-3.984 1.782-14.747-.065-10.775-.077-13.014-1.782-14.76-.82-.842-1.762-1.663-3.426-1.663-.107 0-.221.005-.335.011-1.841.113-3.267.896-4.243 2.328a17.377 17.377 0 0 1-.007-.486c0-3.531-.014-9.358-.014-9.358 0-3.522 3.468-6.733 7.273-6.733h44.326c16.526.006 29.97 13.758 29.97 30.655 0 16.899-13.443 30.65-29.967 30.656H9.729z"/><path opacity=".65" fill="#FFF" d="M9.729 4.139h44.326c16.295.005 29.587 13.378 29.952 29.953.005-.236.018-.468.018-.704 0-16.897-13.443-30.649-29.97-30.655H9.729c-3.806 0-7.273 3.211-7.273 6.733l.003 1.358c.032-3.503 3.482-6.685 7.27-6.685z"/><linearGradient id="b" gradientUnits="userSpaceOnUse" x1="50.004" y1="-14.155" x2="43.337" y2="21.648"><stop offset="0" stop-color="#fff"/><stop offset="1" stop-color="#fff" stop-opacity=".39"/></linearGradient><path opacity=".53" fill="url(#b)" d="M2.477 19.311c.977-1.432 2.402-2.215 4.243-2.328.114-.006.228-.011.335-.011 1.664 0 2.605.821 3.426 1.663 1.705 1.746 1.717 3.984 1.782 14.76-.003.283-.003.559-.005.83l1.623.152c22.455 2.12 40.423-4.674 54.169-3.268 8.579.877 13.142 3.031 15.861 4.868.07-.855.114-1.716.114-2.59 0-16.897-13.443-30.649-29.97-30.655H9.729c-3.806 0-7.273 3.211-7.273 6.733 0 0 .014 5.827.014 9.358 0 .183.003.343.007.488z"/></svg>