<svg xmlns="http://www.w3.org/2000/svg" width="76" height="66" viewBox="0 0 76 66"><path fill="#F00" d="M9.747 65.302C5.087 65.302 1 61.455 1 57.069c0-.001.014-5.826.014-9.354 0-1.35.13-2.729 1.093-2.729.556 0 1.035.545 1.583 1.364.716 1.064 1.743 1.625 3.138 1.712.085.005.167.008.247.008 1 0 1.586-.411 2.377-1.22 1.24-1.269 1.292-3.273 1.355-13.703-.064-10.423-.115-12.427-1.355-13.695-.79-.809-1.374-1.219-2.379-1.219a3.48 3.48 0 0 0-.246.008c-1.395.085-2.421.645-3.138 1.711-.547.818-1.025 1.363-1.582 1.363-.963 0-1.093-1.38-1.093-2.73C1.014 15.057 1 9.234 1 9.233 1 4.847 5.087 1 9.747 1h32.646c17.338.005 31.443 14.428 31.443 32.15s-14.104 32.146-31.44 32.152H9.747z"/><path fill="#AE1F24" d="M42.396 1.5c17.09.005 30.941 14.174 30.941 31.65S59.485 64.796 42.396 64.802H9.747c-4.175 0-8.247-3.459-8.247-7.732 0 0 .014-5.826.014-9.354 0-1.687.255-2.229.593-2.229.366 0 .828.636 1.167 1.143.588.874 1.594 1.812 3.522 1.933.096.006.188.009.278.009 1.241 0 1.944-.562 2.735-1.37 1.391-1.423 1.434-3.55 1.498-14.05-.064-10.5-.107-12.626-1.498-14.048-.791-.81-1.494-1.369-2.736-1.369-.089 0-.181.003-.276.009-1.929.117-2.935 1.057-3.522 1.932-.339.507-.801 1.142-1.167 1.142-.338 0-.593-.542-.593-2.23 0-3.529-.014-9.354-.014-9.354C1.5 4.962 5.572 1.5 9.747 1.5h32.649m0-1H9.747C4.821.5.5 4.581.5 9.232c0 .002.014 5.825.014 9.354 0 .967 0 3.23 1.593 3.23.865 0 1.484-.819 1.998-1.586.632-.939 1.506-1.414 2.752-1.489.075-.004.146-.007.216-.007.837 0 1.3.33 2.021 1.068 1.1 1.125 1.152 3.294 1.213 13.355-.062 10.05-.113 12.219-1.213 13.344-.724.739-1.187 1.069-2.02 1.069a3.17 3.17 0 0 1-.215-.007c-1.247-.078-2.123-.552-2.755-1.493-.512-.765-1.132-1.584-1.996-1.584-.306 0-1.051.115-1.379 1.188-.144.47-.214 1.138-.214 2.04 0 3.527-.014 9.353-.014 9.353 0 4.653 4.321 8.734 9.247 8.734h32.646c17.615-.006 31.944-14.653 31.944-32.651C74.337 15.152 60.008.505 42.396.5z"/><linearGradient id="a" gradientUnits="userSpaceOnUse" x1="37.419" y1="64.465" x2="37.419" y2="40.456"><stop offset="0" stop-color="#fff"/><stop offset="1" stop-color="#fff" stop-opacity="0"/></linearGradient><path opacity=".33" fill="url(#a)" d="M9.747 63.807c-3.806 0-7.273-3.212-7.273-6.737 0 0 .014-5.826.014-9.354 0-.183.003-.343.007-.484.977 1.43 2.402 2.21 4.243 2.323.114.01.228.013.335.013 1.664 0 2.605-.823 3.426-1.662 1.705-1.744 1.717-3.984 1.782-14.748-.065-10.773-.077-13.013-1.782-14.758-.82-.842-1.762-1.664-3.426-1.664-.107 0-.221.004-.335.011-1.841.113-3.267.896-4.243 2.327a17.319 17.319 0 0 1-.007-.486c0-3.53-.014-9.357-.014-9.357 0-3.521 3.468-6.733 7.273-6.733h32.646C58.919 2.5 72.362 16.252 72.362 33.15c0 16.899-13.443 30.65-29.967 30.656H9.747z"/><path opacity=".65" fill="#FFF" d="M9.747 3.9h32.646c16.295.006 29.587 13.379 29.952 29.953.005-.235.018-.467.018-.703 0-16.898-13.443-30.65-29.97-30.655H9.747c-3.806 0-7.273 3.212-7.273 6.733l.003 1.357C2.509 7.084 5.959 3.9 9.747 3.9z"/><linearGradient id="b" gradientUnits="userSpaceOnUse" x1="43.832" y1="-12.517" x2="37.529" y2="21.331"><stop offset="0" stop-color="#fff"/><stop offset="1" stop-color="#fff" stop-opacity=".39"/></linearGradient><path opacity=".53" fill="url(#b)" d="M2.494 19.072c.977-1.431 2.402-2.214 4.243-2.327.114-.007.228-.011.335-.011 1.664 0 2.605.822 3.426 1.664 1.705 1.745 1.717 3.984 1.782 14.758-.003.285-.003.56-.005.832l1.623.152c22.455 2.119 28.742-4.676 42.488-3.269 8.579.876 13.142 3.03 15.861 4.868.07-.855.114-1.717.114-2.59 0-16.898-13.443-30.65-29.97-30.655H9.747c-3.806 0-7.273 3.212-7.273 6.733 0 0 .014 5.827.014 9.357-.001.184.002.345.006.488z"/><path opacity=".34" fill="#FFF" d="M2.562 49.742c0-.184.004-.342.01-.486.975 1.43 2.402 2.212 4.24 2.326.116.008.227.012.336.012 1.666 0 2.604-.823 3.425-1.663 1.706-1.744 1.718-3.984 1.782-14.748 0-.241-.001-.47-.004-.702-.061 10.153-.111 12.338-1.778 14.044-.82.84-1.759 1.663-3.425 1.663-.109 0-.22-.003-.336-.013-1.838-.112-3.266-.895-4.24-2.322-.006.141-.01.303-.01.484 0 3.528-.012 9.355-.012 9.355l.002.045c.005-1.934.01-5.522.01-7.995z"/></svg>