<?xml version="1.0" encoding="utf-8"?>
<!-- Generator: Adobe Illustrator 15.0.0, SVG Export Plug-In . SVG Version: 6.00 Build 0)  -->
<!DOCTYPE svg PUBLIC "-//W3C//DTD SVG 1.1//EN" "http://www.w3.org/Graphics/SVG/1.1/DTD/svg11.dtd">
<svg version="1.1" id="Layer_2_1_" xmlns="http://www.w3.org/2000/svg" xmlns:xlink="http://www.w3.org/1999/xlink" x="0px" y="0px"
	 width="76px" height="66px" viewBox="0 0 76 66" enable-background="new 0 0 76 66" xml:space="preserve">
<g>
	<path fill="#FF0000" d="M9.747,65.302C5.087,65.302,1,61.455,1,57.069c0-0.001,0.014-5.826,0.014-9.354
		c0-1.35,0.13-2.729,1.093-2.729c0.556,0,1.035,0.545,1.583,1.364c0.716,1.064,1.743,1.625,3.138,1.712
		c0.085,0.005,0.167,0.008,0.247,0.008c1,0,1.586-0.411,2.377-1.22c1.24-1.269,1.292-3.273,1.355-13.703
		c-0.064-10.423-0.115-12.427-1.355-13.695c-0.79-0.809-1.374-1.219-2.379-1.219c-0.079,0-0.161,0.002-0.246,0.008
		c-1.395,0.085-2.421,0.645-3.138,1.711c-0.547,0.818-1.025,1.363-1.582,1.363c-0.963,0-1.093-1.38-1.093-2.73
		C1.014,15.057,1,9.234,1,9.233C1,4.847,5.087,1,9.747,1h32.646c17.338,0.005,31.443,14.428,31.443,32.15
		S59.732,65.296,42.396,65.302H9.747z"/>
	<g>
		<path fill="#AE1F24" d="M42.396,1.5c17.09,0.005,30.941,14.174,30.941,31.65S59.485,64.796,42.396,64.802h-0.003H28.081H9.854
			H9.747c-4.175,0-8.247-3.459-8.247-7.732c0,0,0.014-5.826,0.014-9.354c0-1.687,0.255-2.229,0.593-2.229
			c0.366,0,0.828,0.636,1.167,1.143c0.588,0.874,1.594,1.812,3.522,1.933c0.096,0.006,0.188,0.009,0.278,0.009
			c1.241,0,1.944-0.562,2.735-1.37c1.391-1.423,1.434-3.55,1.498-14.05c-0.064-10.5-0.107-12.626-1.498-14.048
			c-0.791-0.81-1.494-1.369-2.736-1.369c-0.089,0-0.181,0.003-0.276,0.009c-1.929,0.117-2.935,1.057-3.522,1.932
			c-0.339,0.507-0.801,1.142-1.167,1.142c-0.338,0-0.593-0.542-0.593-2.23c0-3.529-0.014-9.354-0.014-9.354
			C1.5,4.962,5.572,1.5,9.747,1.5h0.107h18.227h14.312H42.396 M42.396,0.5L42.396,0.5h-0.002H28.081H9.854H9.747
			C4.821,0.5,0.5,4.581,0.5,9.232c0,0.002,0.014,5.825,0.014,9.354c0,0.967,0,3.23,1.593,3.23c0.865,0,1.484-0.819,1.998-1.586
			c0.632-0.939,1.506-1.414,2.752-1.489c0.075-0.004,0.146-0.007,0.216-0.007c0.837,0,1.3,0.33,2.021,1.068
			c1.1,1.125,1.152,3.294,1.213,13.355c-0.062,10.05-0.113,12.219-1.213,13.344C8.37,47.24,7.907,47.57,7.074,47.57
			c-0.07,0-0.141-0.002-0.215-0.007c-1.247-0.078-2.123-0.552-2.755-1.493c-0.512-0.765-1.132-1.584-1.996-1.584
			c-0.306,0-1.051,0.115-1.379,1.188c-0.144,0.47-0.214,1.138-0.214,2.04c0,3.527-0.014,9.353-0.014,9.353
			c0,4.653,4.321,8.734,9.247,8.734h0.107h18.227h14.312c17.615-0.006,31.944-14.653,31.944-32.651
			C74.337,15.152,60.008,0.505,42.396,0.5L42.396,0.5z"/>
	</g>
</g>
<g>
	<linearGradient id="SVGID_1_" gradientUnits="userSpaceOnUse" x1="37.4185" y1="64.4648" x2="37.4185" y2="40.4555">
		<stop  offset="0" style="stop-color:#FFFFFF"/>
		<stop  offset="1" style="stop-color:#FFFFFF;stop-opacity:0"/>
	</linearGradient>
	<path opacity="0.33" fill="url(#SVGID_1_)" d="M9.747,63.807c-3.806,0-7.273-3.212-7.273-6.737c0,0,0.014-5.826,0.014-9.354
		c0-0.183,0.003-0.343,0.007-0.484c0.977,1.43,2.402,2.21,4.243,2.323c0.114,0.01,0.228,0.013,0.335,0.013
		c1.664,0,2.605-0.823,3.426-1.662c1.705-1.744,1.717-3.984,1.782-14.748c-0.065-10.773-0.077-13.013-1.782-14.758
		c-0.82-0.842-1.762-1.664-3.426-1.664c-0.107,0-0.221,0.004-0.335,0.011c-1.841,0.113-3.267,0.896-4.243,2.327
		c-0.004-0.144-0.007-0.305-0.007-0.486c0-3.53-0.014-9.357-0.014-9.357c0-3.521,3.468-6.733,7.273-6.733h32.646
		C58.919,2.5,72.362,16.252,72.362,33.15c0,16.899-13.443,30.65-29.967,30.656H9.747z"/>
</g>
<path opacity="0.65" fill="#FFFFFF" d="M9.747,3.9h32.646c16.295,0.006,29.587,13.379,29.952,29.953
	c0.005-0.235,0.018-0.467,0.018-0.703c0-16.898-13.443-30.65-29.97-30.655H9.747c-3.806,0-7.273,3.212-7.273,6.733
	c0,0,0.002,0.529,0.003,1.357C2.509,7.084,5.959,3.9,9.747,3.9z"/>
<linearGradient id="SVGID_2_" gradientUnits="userSpaceOnUse" x1="43.832" y1="-12.5166" x2="37.5294" y2="21.3307">
	<stop  offset="0" style="stop-color:#FFFFFF"/>
	<stop  offset="1" style="stop-color:#FFFFFF;stop-opacity:0.39"/>
</linearGradient>
<path opacity="0.53" fill="url(#SVGID_2_)" d="M2.494,19.072c0.977-1.431,2.402-2.214,4.243-2.327
	c0.114-0.007,0.228-0.011,0.335-0.011c1.664,0,2.605,0.822,3.426,1.664c1.705,1.745,1.717,3.984,1.782,14.758
	c-0.003,0.285-0.003,0.56-0.005,0.832l1.623,0.152c22.455,2.119,28.742-4.676,42.488-3.269c8.579,0.876,13.142,3.03,15.861,4.868
	c0.07-0.855,0.114-1.717,0.114-2.59c0-16.898-13.443-30.65-29.97-30.655H9.747c-3.806,0-7.273,3.212-7.273,6.733
	c0,0,0.014,5.827,0.014,9.357C2.487,18.768,2.49,18.929,2.494,19.072z"/>
<path opacity="0.34" fill="#FFFFFF" d="M2.562,49.742c0-0.184,0.004-0.342,0.01-0.486c0.975,1.43,2.402,2.212,4.24,2.326
	c0.116,0.008,0.227,0.012,0.336,0.012c1.666,0,2.604-0.823,3.425-1.663c1.706-1.744,1.718-3.984,1.782-14.748
	c0-0.241-0.001-0.47-0.004-0.702c-0.061,10.153-0.111,12.338-1.778,14.044c-0.82,0.84-1.759,1.663-3.425,1.663
	c-0.109,0-0.22-0.003-0.336-0.013c-1.838-0.112-3.266-0.895-4.24-2.322c-0.006,0.141-0.01,0.303-0.01,0.484
	c0,3.528-0.012,9.355-0.012,9.355c0,0.014,0.002,0.03,0.002,0.045C2.557,55.803,2.562,52.215,2.562,49.742z"/>
</svg>
