<?xml version="1.0" encoding="utf-8"?>
<!-- Generator: Adobe Illustrator 15.0.0, SVG Export Plug-In . SVG Version: 6.00 Build 0)  -->
<!DOCTYPE svg PUBLIC "-//W3C//DTD SVG 1.1//EN" "http://www.w3.org/Graphics/SVG/1.1/DTD/svg11.dtd">
<svg version="1.1" id="Layer_2" xmlns="http://www.w3.org/2000/svg" xmlns:xlink="http://www.w3.org/1999/xlink" x="0px" y="0px"
	 width="76px" height="66px" viewBox="0 0 76 66" enable-background="new 0 0 76 66" xml:space="preserve">
<g>
	<g>
		<path fill="#FFAE1F" d="M9.727,65.152C5.078,65.152,1,61.312,1,56.938c0,0,0.014-5.809,0.014-9.332
			c0-1.347,0.13-2.725,1.092-2.725c0.554,0,1.032,0.544,1.579,1.36c0.711,1.062,1.735,1.622,3.13,1.711
			c0.081,0.005,0.161,0.008,0.239,0.008c1.004,0,1.589-0.41,2.378-1.218c1.232-1.264,1.289-3.469,1.352-13.67
			c-0.062-10.193-0.119-12.396-1.352-13.661c-0.789-0.807-1.373-1.217-2.373-1.217c-0.079,0-0.16,0.002-0.244,0.008
			c-1.393,0.086-2.417,0.645-3.13,1.708c-0.547,0.817-1.025,1.361-1.58,1.361c-0.961,0-1.091-1.378-1.091-2.726
			C1.014,15.026,1,9.214,1,9.214C1,4.838,5.078,1,9.727,1h47.548c4.434,0,8.039,3.684,8.039,8.213c0,0,0.106,9.543,0.106,9.749
			c0,3.011,0.919,3.011,1.81,3.011c0.978,0,1.312-0.513,1.771-1.223c0.521-0.804,1.176-1.804,2.921-1.804
			c3.013,0,3.022,4.76,3.04,11.966l0.008,2.265l-0.008,2.065c-0.018,7.207-0.027,11.968-3.04,11.968
			c-1.746,0-2.396-1.002-2.921-1.808c-0.462-0.711-0.796-1.226-1.771-1.226c-0.891,0-1.81,0-1.81,3.015
			c0,0.207-0.106,9.752-0.106,9.752c0,4.522-3.605,8.209-8.039,8.209H9.727L9.727,65.152z"/>
		<g>
			<path fill="#A8721B" d="M57.275,1.5c4.164,0,7.539,3.455,7.539,7.713c0,0,0.105,9.543,0.105,9.749
				c0,3.113,0.977,3.511,2.311,3.511c2.564,0,1.824-3.027,4.691-3.027c2.762,0,2.502,5.619,2.549,13.531c0,0.034,0,0.066,0,0.099
				c0,0.034,0,0.066,0,0.101c-0.047,7.91,0.213,13.533-2.549,13.533c-2.867,0-2.127-3.03-4.691-3.03
				c-1.334,0-2.311,0.399-2.311,3.514c0,0.207-0.105,9.746-0.105,9.746c0,4.263-3.375,7.716-7.539,7.716H28.018H9.834H9.727
				c-4.164,0-8.227-3.453-8.227-7.716c0,0,0.014-5.81,0.014-9.332c0-1.685,0.255-2.226,0.592-2.226c0.364,0,0.825,0.634,1.164,1.14
				c0.586,0.875,1.588,1.81,3.514,1.933c0.093,0.006,0.183,0.009,0.271,0.009c1.242,0,1.945-0.561,2.735-1.368
				c1.385-1.42,1.43-3.54,1.494-14.017c-0.065-10.477-0.11-12.595-1.495-14.015C9,18.255,8.298,17.694,7.058,17.694
				c-0.089,0-0.18,0.003-0.275,0.009c-1.926,0.119-2.928,1.055-3.514,1.928c-0.339,0.506-0.8,1.14-1.165,1.14
				c-0.337,0-0.591-0.542-0.591-2.226c0-3.52-0.014-9.332-0.014-9.332C1.5,4.955,5.562,1.5,9.727,1.5h0.107h18.184H57.275
				 M57.275,0.5H28.018H9.834H9.727C4.812,0.5,0.5,4.571,0.5,9.213c0,0.002,0.014,5.813,0.014,9.332c0,0.965,0,3.226,1.591,3.226
				c0.862,0,1.482-0.817,1.995-1.583c0.396-0.589,1.111-1.385,2.745-1.486c0.074-0.004,0.145-0.007,0.213-0.007
				c0.833,0,1.294,0.329,2.016,1.067c1.097,1.124,1.148,3.287,1.209,13.32c-0.062,10.023-0.113,12.188-1.21,13.312
				c-0.72,0.735-1.183,1.064-2.02,1.064c-0.068,0-0.138-0.003-0.21-0.007c-1.634-0.104-2.349-0.9-2.743-1.49
				c-0.514-0.767-1.133-1.582-1.995-1.582c-0.305,0-1.05,0.116-1.378,1.188c-0.144,0.47-0.213,1.136-0.213,2.037
				c0,3.521-0.014,9.33-0.014,9.33c0,4.645,4.312,8.717,9.227,8.717h0.107h18.184h29.257c4.709,0,8.539-3.909,8.539-8.715
				c0.004-0.379,0.106-9.537,0.106-9.746c0-2.516,0.55-2.516,1.31-2.516c0.672,0,0.873,0.258,1.354,0.997
				c0.525,0.812,1.322,2.034,3.34,2.034c3.512,0,3.521-4.96,3.54-12.467c0.001-0.667,0.003-1.354,0.009-2.06v-0.107v-0.099
				c-0.006-0.711-0.008-1.399-0.009-2.066c-0.019-7.506-0.028-12.465-3.54-12.465c-2.017,0-2.812,1.222-3.34,2.031
				c-0.48,0.74-0.684,0.996-1.354,0.996c-0.76,0-1.31,0-1.31-2.511c0-0.209-0.104-9.371-0.106-9.76
				C65.814,4.409,61.982,0.5,57.275,0.5L57.275,0.5z"/>
		</g>
	</g>
	
		<linearGradient id="SVGID_1_" gradientUnits="userSpaceOnUse" x1="41.9697" y1="545.7715" x2="38.3912" y2="564.1941" gradientTransform="matrix(1 0 0 1 0 -545)">
		<stop  offset="0" style="stop-color:#FFFF00"/>
		<stop  offset="1" style="stop-color:#FFFF00;stop-opacity:0.17"/>
	</linearGradient>
	<path opacity="0.5" fill="url(#SVGID_1_)" enable-background="new    " d="M2.492,19.031c0.973-1.426,2.395-2.207,4.232-2.32
		C6.84,16.704,6.951,16.7,7.059,16.7c1.66,0,2.6,0.82,3.418,1.659c1.607,1.645,1.707,6.123,1.768,15.424
		c18.041,4.051,26.215-1.793,45.276-1.793c11.388,0,8.021,0.691,15.976,1.906c0.002-0.242,0.002-0.476,0.006-0.722
		c0,0-0.01-1.608-0.01-2.284c-0.017-5.375-0.022-10.453-1.568-10.453c-0.954,0-1.219,0.401-1.692,1.135
		c-0.521,0.799-1.231,1.893-3,1.893c-2.301,0-3.276-1.348-3.276-4.504c-0.002-0.191-0.074-6.452-0.108-9.75
		c0-3.703-2.947-6.719-6.568-6.719H9.727c-3.797,0-7.256,3.203-7.256,6.719c0,0,0.014,5.811,0.014,9.332
		C2.484,18.728,2.488,18.889,2.492,19.031z"/>
	
		<linearGradient id="SVGID_2_" gradientUnits="userSpaceOnUse" x1="37.9854" y1="608.7803" x2="37.9853" y2="556.4217" gradientTransform="matrix(1 0 0 1 0 -545)">
		<stop  offset="0.1273" style="stop-color:#FFFF00;stop-opacity:0.35"/>
		<stop  offset="0.2667" style="stop-color:#FFFF00;stop-opacity:0.16"/>
		<stop  offset="0.5394" style="stop-color:#FFFF00;stop-opacity:0"/>
	</linearGradient>
	<path opacity="0.33" fill="url(#SVGID_2_)" enable-background="new    " d="M9.727,63.66c-3.797,0-7.256-3.203-7.256-6.723
		c0,0,0.014-5.811,0.014-9.332c0-0.184,0.004-0.342,0.008-0.484c0.973,1.426,2.395,2.207,4.232,2.32
		c0.115,0.006,0.227,0.01,0.334,0.01c1.66,0,2.6-0.82,3.418-1.658c1.699-1.74,1.713-3.975,1.777-14.709
		c-0.064-10.75-0.078-12.984-1.777-14.725C9.658,17.521,8.719,16.7,7.059,16.7c-0.107,0-0.219,0.004-0.334,0.011
		c-1.838,0.113-3.26,0.895-4.232,2.32c-0.004-0.143-0.008-0.304-0.008-0.486c0-3.521-0.014-9.332-0.014-9.332
		c0-3.516,3.459-6.719,7.256-6.719h47.548c3.621,0,6.567,3.016,6.567,6.719c0.035,3.298,0.107,9.559,0.109,9.75
		c0,3.156,0.978,4.504,3.276,4.504c1.769,0,2.479-1.094,3-1.893c0.476-0.733,0.737-1.135,1.692-1.135
		c1.545,0,1.554,5.078,1.567,10.453c0,0.676,0.011,2.284,0.011,2.284c-0.008,0.71-0.011,1.41-0.011,2.085
		c-0.016,5.373-0.022,10.453-1.567,10.453c-0.955,0-1.219-0.403-1.692-1.135c-0.521-0.804-1.231-1.896-3-1.896
		c-2.301,0-3.276,1.349-3.276,4.506c-0.002,0.188-0.074,6.449-0.109,9.735c0,3.718-2.946,6.732-6.567,6.732H9.727V63.66z"/>
	<path fill="#FFFFFF" enable-background="new    " d="M9.727,3.898h47.548c3.621,0,6.567,3.014,6.567,6.719
		c0.035,3.295,0.107,9.557,0.109,9.75c0,3.153,0.978,4.504,3.276,4.504c1.769,0,2.479-1.096,3-1.895
		c0.476-0.732,0.737-1.136,1.692-1.136c1.545,0,1.554,5.077,1.567,10.454c0,0.393,0.003,1.1,0.005,1.623c0-0.25,0-0.49,0.006-0.742
		c0,0-0.011-1.608-0.011-2.284c-0.016-5.375-0.022-10.453-1.567-10.453c-0.955,0-1.219,0.401-1.692,1.135
		c-0.521,0.799-1.231,1.893-3,1.893c-2.301,0-3.276-1.348-3.276-4.504c-0.002-0.191-0.074-6.452-0.109-9.75
		c0-3.703-2.946-6.719-6.567-6.719H9.727c-3.797,0-7.256,3.203-7.256,6.719c0,0,0.002,0.529,0.002,1.355
		C2.506,7.071,5.947,3.898,9.727,3.898z"/>
	<path opacity="0.69" fill="#FFFFFF" enable-background="new    " d="M2.484,49.01c0-0.184,0.004-0.344,0.008-0.486
		c0.973,1.428,2.395,2.207,4.232,2.32c0.115,0.008,0.227,0.012,0.334,0.012c1.66,0,2.6-0.818,3.418-1.66
		c1.699-1.736,1.713-3.977,1.777-14.711c0-0.238-0.002-0.471-0.004-0.699c-0.062,10.129-0.111,12.307-1.773,14.01
		c-0.818,0.838-1.758,1.658-3.418,1.658c-0.107,0-0.219-0.004-0.334-0.012c-1.838-0.111-3.26-0.895-4.232-2.318
		c-0.004,0.145-0.008,0.303-0.008,0.482c0,3.523-0.014,9.332-0.014,9.332c0,0.02,0.002,0.033,0.002,0.049
		C2.477,55.059,2.484,51.473,2.484,49.01z"/>
</g>
</svg>
