<svg xmlns="http://www.w3.org/2000/svg" width="76" height="66" viewBox="0 0 76 66"><path fill="#FFAE1F" d="M9.727 65.152C5.078 65.152 1 61.312 1 56.938c0 0 .014-5.809.014-9.332 0-1.347.13-2.725 1.092-2.725.554 0 1.032.544 1.579 1.36.711 1.062 1.735 1.622 3.13 1.711.081.005.161.008.239.008 1.004 0 1.589-.41 2.378-1.218 1.232-1.264 1.289-3.469 1.352-13.67-.062-10.193-.119-12.396-1.352-13.661-.789-.807-1.373-1.217-2.373-1.217-.079 0-.16.002-.244.008-1.393.086-2.417.645-3.13 1.708-.547.817-1.025 1.361-1.58 1.361-.961 0-1.091-1.378-1.091-2.726C1.014 15.026 1 9.214 1 9.214 1 4.838 5.078 1 9.727 1h47.548c4.434 0 8.039 3.684 8.039 8.213 0 0 .106 9.543.106 9.749 0 3.011.919 3.011 1.81 3.011.978 0 1.312-.513 1.771-1.223.521-.804 1.176-1.804 2.921-1.804 3.013 0 3.022 4.76 3.04 11.966l.008 2.265-.008 2.065c-.018 7.207-.027 11.968-3.04 11.968-1.746 0-2.396-1.002-2.921-1.808-.462-.711-.796-1.226-1.771-1.226-.891 0-1.81 0-1.81 3.015 0 .207-.106 9.752-.106 9.752 0 4.522-3.605 8.209-8.039 8.209H9.727z"/><path fill="#A8721B" d="M57.275 1.5c4.164 0 7.539 3.455 7.539 7.713 0 0 .105 9.543.105 9.749 0 3.113.977 3.511 2.311 3.511 2.564 0 1.824-3.027 4.691-3.027 2.762 0 2.502 5.619 2.549 13.531v.2c-.047 7.91.213 13.533-2.549 13.533-2.867 0-2.127-3.03-4.691-3.03-1.334 0-2.311.399-2.311 3.514 0 .207-.105 9.746-.105 9.746 0 4.263-3.375 7.716-7.539 7.716H9.727c-4.164 0-8.227-3.453-8.227-7.716 0 0 .014-5.81.014-9.332 0-1.685.255-2.226.592-2.226.364 0 .825.634 1.164 1.14.586.875 1.588 1.81 3.514 1.933.093.006.183.009.271.009 1.242 0 1.945-.561 2.735-1.368 1.385-1.42 1.43-3.54 1.494-14.017-.065-10.477-.11-12.595-1.495-14.015-.789-.809-1.491-1.37-2.731-1.37-.089 0-.18.003-.275.009-1.926.119-2.928 1.055-3.514 1.928-.339.506-.8 1.14-1.165 1.14-.337 0-.591-.542-.591-2.226 0-3.52-.014-9.332-.014-9.332C1.5 4.955 5.562 1.5 9.727 1.5h47.548m0-1H9.727C4.812.5.5 4.571.5 9.213c0 .002.014 5.813.014 9.332 0 .965 0 3.226 1.591 3.226.862 0 1.482-.817 1.995-1.583.396-.589 1.111-1.385 2.745-1.486.074-.004.145-.007.213-.007.833 0 1.294.329 2.016 1.067 1.097 1.124 1.148 3.287 1.209 13.32-.062 10.023-.113 12.188-1.21 13.312-.72.735-1.183 1.064-2.02 1.064-.068 0-.138-.003-.21-.007-1.634-.104-2.349-.9-2.743-1.49-.514-.767-1.133-1.582-1.995-1.582-.305 0-1.05.116-1.378 1.188-.144.47-.213 1.136-.213 2.037 0 3.521-.014 9.33-.014 9.33 0 4.645 4.312 8.717 9.227 8.717h47.548c4.709 0 8.539-3.909 8.539-8.715.004-.379.106-9.537.106-9.746 0-2.516.55-2.516 1.31-2.516.672 0 .873.258 1.354.997.525.812 1.322 2.034 3.34 2.034 3.512 0 3.521-4.96 3.54-12.467.001-.667.003-1.354.009-2.06V32.972c-.006-.711-.008-1.399-.009-2.066-.019-7.506-.028-12.465-3.54-12.465-2.017 0-2.812 1.222-3.34 2.031-.48.74-.684.996-1.354.996-.76 0-1.31 0-1.31-2.511 0-.209-.104-9.371-.106-9.76C65.814 4.409 61.982.5 57.275.5z"/><linearGradient id="a" gradientUnits="userSpaceOnUse" x1="41.97" y1="545.771" x2="38.391" y2="564.194" gradientTransform="translate(0 -545)"><stop offset="0" stop-color="#ff0"/><stop offset="1" stop-color="#ff0" stop-opacity=".17"/></linearGradient><path opacity=".5" fill="url(#a)" d="M2.492 19.031c.973-1.426 2.395-2.207 4.232-2.32a5.56 5.56 0 0 1 .335-.011c1.66 0 2.6.82 3.418 1.659 1.607 1.645 1.707 6.123 1.768 15.424 18.041 4.051 26.215-1.793 45.276-1.793 11.388 0 8.021.691 15.976 1.906.002-.242.002-.476.006-.722 0 0-.01-1.608-.01-2.284-.017-5.375-.022-10.453-1.568-10.453-.954 0-1.219.401-1.692 1.135-.521.799-1.231 1.893-3 1.893-2.301 0-3.276-1.348-3.276-4.504-.002-.191-.074-6.452-.108-9.75 0-3.703-2.947-6.719-6.568-6.719H9.727c-3.797 0-7.256 3.203-7.256 6.719 0 0 .014 5.811.014 9.332-.001.185.003.346.007.488z"/><linearGradient id="b" gradientUnits="userSpaceOnUse" x1="37.985" y1="608.78" x2="37.985" y2="556.422" gradientTransform="translate(0 -545)"><stop offset=".127" stop-color="#ff0" stop-opacity=".35"/><stop offset=".267" stop-color="#ff0" stop-opacity=".16"/><stop offset=".539" stop-color="#ff0" stop-opacity="0"/></linearGradient><path opacity=".33" fill="url(#b)" d="M9.727 63.66c-3.797 0-7.256-3.203-7.256-6.723 0 0 .014-5.811.014-9.332 0-.184.004-.342.008-.484.973 1.426 2.395 2.207 4.232 2.32.115.006.227.01.334.01 1.66 0 2.6-.82 3.418-1.658 1.699-1.74 1.713-3.975 1.777-14.709-.064-10.75-.078-12.984-1.777-14.725-.819-.838-1.758-1.659-3.418-1.659-.107 0-.219.004-.334.011-1.838.113-3.26.895-4.232 2.32a16.907 16.907 0 0 1-.008-.486c0-3.521-.014-9.332-.014-9.332 0-3.516 3.459-6.719 7.256-6.719h47.548c3.621 0 6.567 3.016 6.567 6.719.035 3.298.107 9.559.109 9.75 0 3.156.978 4.504 3.276 4.504 1.769 0 2.479-1.094 3-1.893.476-.733.737-1.135 1.692-1.135 1.545 0 1.554 5.078 1.567 10.453 0 .676.011 2.284.011 2.284-.008.71-.011 1.41-.011 2.085-.016 5.373-.022 10.453-1.567 10.453-.955 0-1.219-.403-1.692-1.135-.521-.804-1.231-1.896-3-1.896-2.301 0-3.276 1.349-3.276 4.506-.002.188-.074 6.449-.109 9.735 0 3.718-2.946 6.732-6.567 6.732H9.727v.004z"/><path fill="#FFF" d="M9.727 3.898h47.548c3.621 0 6.567 3.014 6.567 6.719.035 3.295.107 9.557.109 9.75 0 3.153.978 4.504 3.276 4.504 1.769 0 2.479-1.096 3-1.895.476-.732.737-1.136 1.692-1.136 1.545 0 1.554 5.077 1.567 10.454 0 .393.003 1.1.005 1.623 0-.25 0-.49.006-.742 0 0-.011-1.608-.011-2.284-.016-5.375-.022-10.453-1.567-10.453-.955 0-1.219.401-1.692 1.135-.521.799-1.231 1.893-3 1.893-2.301 0-3.276-1.348-3.276-4.504-.002-.191-.074-6.452-.109-9.75 0-3.703-2.946-6.719-6.567-6.719H9.727c-3.797 0-7.256 3.203-7.256 6.719 0 0 .002.529.002 1.355.033-3.496 3.474-6.669 7.254-6.669z"/><path opacity=".69" fill="#FFF" d="M2.484 49.01c0-.184.004-.344.008-.486.973 1.428 2.395 2.207 4.232 2.32.115.008.227.012.334.012 1.66 0 2.6-.818 3.418-1.66 1.699-1.736 1.713-3.977 1.777-14.711 0-.238-.002-.471-.004-.699-.062 10.129-.111 12.307-1.773 14.01-.818.838-1.758 1.658-3.418 1.658a4.83 4.83 0 0 1-.334-.012c-1.838-.111-3.26-.895-4.232-2.318-.004.145-.008.303-.008.482 0 3.523-.014 9.332-.014 9.332l.002.049c.005-1.928.012-5.514.012-7.977z"/></svg>