<svg xmlns="http://www.w3.org/2000/svg" width="76" height="66" viewBox="0 0 76 66"><path fill="#FF61F8" d="M9.727 65.15C5.078 65.15 1 61.312 1 56.938c0 0 .014-5.81.014-9.332 0-1.348.13-2.725 1.092-2.725.554 0 1.032.544 1.58 1.36.712 1.062 1.736 1.622 3.13 1.71.083.005.163.008.242.008 1.005 0 1.588-.41 2.375-1.216 1.233-1.265 1.289-3.47 1.352-13.671-.063-10.194-.119-12.397-1.352-13.662-.787-.807-1.371-1.217-2.375-1.217-.078 0-.159.003-.242.008-1.393.086-2.416.645-3.129 1.708-.547.817-1.025 1.362-1.58 1.362-.961 0-1.091-1.378-1.091-2.726C1.014 15.025 1 9.214 1 9.214 1 4.838 5.078 1 9.727 1h47.548c4.434 0 8.039 3.684 8.039 8.213 0 0 .105 9.542.105 9.749 0 3.01.919 3.01 1.811 3.01.979 0 1.312-.513 1.772-1.223.521-.804 1.177-1.804 2.921-1.804 3.014 0 3.021 4.756 3.038 11.955l.009 2.277-.009 2.076c-.019 7.199-.024 11.956-3.038 11.956-1.744 0-2.396-1.001-2.922-1.807-.462-.711-.796-1.227-1.771-1.227-.892 0-1.811 0-1.811 3.016 0 .207-.105 9.752-.105 9.752 0 4.521-3.605 8.209-8.039 8.209H9.727v-.002z"/><path fill="#AB55A1" d="M57.275 1.5c4.164 0 7.539 3.454 7.539 7.713 0 0 .104 9.542.104 9.749 0 3.113.979 3.51 2.312 3.51 2.565 0 1.824-3.027 4.692-3.027 2.763 0 2.5 5.62 2.548 13.531v.201c-.048 7.909.215 13.532-2.548 13.532-2.868 0-2.127-3.029-4.692-3.029-1.332 0-2.312.399-2.312 3.512 0 .207-.104 9.748-.104 9.748 0 4.264-3.375 7.713-7.539 7.713H9.727c-4.164 0-8.227-3.449-8.227-7.713 0 0 .014-5.811.014-9.332 0-1.685.255-2.226.592-2.226.364 0 .825.634 1.164 1.14.586.873 1.588 1.811 3.514 1.933.094.006.185.009.273.009 1.242 0 1.945-.562 2.732-1.367 1.385-1.42 1.43-3.539 1.494-14.017-.064-10.48-.109-12.599-1.494-14.018-.788-.808-1.49-1.368-2.733-1.368-.088 0-.179.003-.273.009-1.926.119-2.928 1.055-3.514 1.928-.339.507-.8 1.141-1.165 1.141-.337 0-.591-.542-.591-2.226 0-3.521-.014-9.332-.014-9.332C1.5 4.954 5.562 1.5 9.727 1.5h47.548m0-1H9.727C4.812.5.5 4.571.5 9.213c0 .002.014 5.812.014 9.332 0 .965 0 3.226 1.591 3.226.863 0 1.482-.818 1.996-1.584.395-.589 1.11-1.385 2.744-1.486.073-.004.143-.007.211-.007.836 0 1.298.329 2.017 1.066 1.097 1.125 1.148 3.288 1.21 13.322-.062 10.023-.113 12.188-1.21 13.312-.718.733-1.18 1.062-2.017 1.062-.068 0-.139-.002-.212-.007-1.634-.099-2.348-.896-2.744-1.486-.513-.766-1.132-1.582-1.995-1.582-.305 0-1.05.115-1.378 1.188-.144.472-.213 1.138-.213 2.037 0 3.521-.014 9.33-.014 9.33 0 4.646 4.312 8.715 9.227 8.715h47.548c4.709 0 8.539-3.906 8.539-8.713.004-.379.105-9.537.105-9.748 0-2.513.551-2.513 1.311-2.513.672 0 .873.257 1.354.997.525.811 1.323 2.033 3.341 2.033 3.511 0 3.521-4.955 3.538-12.455.001-.671.003-1.361.008-2.071V32.975a376.04 376.04 0 0 1-.008-2.078c-.02-7.5-.027-12.454-3.538-12.454-2.018 0-2.812 1.222-3.341 2.031-.48.74-.684.996-1.354.996-.76 0-1.311 0-1.311-2.51 0-.21-.104-9.371-.105-9.76 0-4.791-3.832-8.7-8.539-8.7z"/><linearGradient id="a" gradientUnits="userSpaceOnUse" x1="37.985" y1="-541.776" x2="37.985" y2="-489.42" gradientTransform="matrix(1 0 0 -1 0 -478)"><stop offset=".127" stop-color="#fff" stop-opacity=".33"/><stop offset=".267" stop-color="#fff" stop-opacity=".16"/><stop offset=".539" stop-color="#fff" stop-opacity="0"/></linearGradient><path opacity=".33" fill="url(#a)" d="M9.727 63.659c-3.797 0-7.254-3.203-7.254-6.722 0 0 .012-5.812.012-9.332 0-.185.004-.342.008-.485.973 1.427 2.396 2.208 4.232 2.319.115.008.227.011.334.011 1.662 0 2.6-.82 3.418-1.658 1.701-1.739 1.713-3.976 1.779-14.709-.066-10.749-.078-12.984-1.779-14.724-.819-.838-1.756-1.659-3.418-1.659-.107 0-.219.004-.334.01-1.838.113-3.26.895-4.232 2.32a16.833 16.833 0 0 1-.008-.485c0-3.521-.012-9.332-.012-9.332 0-3.516 3.457-6.719 7.254-6.719h47.548c3.621 0 6.57 3.016 6.57 6.719.031 3.298.104 9.558.105 9.749 0 3.157.979 4.504 3.275 4.504 1.77 0 2.479-1.093 3.002-1.893.475-.732.738-1.135 1.692-1.135 1.543 0 1.554 5.079 1.565 10.454 0 .675.011 2.283.011 2.283-.009.71-.011 1.409-.011 2.085-.014 5.374-.022 10.453-1.565 10.453-.954 0-1.221-.404-1.692-1.135-.521-.803-1.232-1.895-3.002-1.895-2.299 0-3.275 1.348-3.275 4.506-.002.188-.074 6.449-.105 9.733 0 3.72-2.949 6.732-6.57 6.732H9.727v.005z"/><path opacity=".69" fill="#FFF" d="M9.727 3.897h47.548c3.621 0 6.57 3.014 6.57 6.719.031 3.296.104 9.558.105 9.75 0 3.154.979 4.504 3.275 4.504 1.77 0 2.479-1.096 3.002-1.895.475-.731.738-1.135 1.692-1.135 1.543 0 1.554 5.077 1.565 10.453 0 .393.002 1.102.005 1.625 0-.252 0-.491.006-.743 0 0-.011-1.608-.011-2.283-.014-5.375-.022-10.454-1.565-10.454-.954 0-1.221.402-1.692 1.135-.521.8-1.232 1.893-3.002 1.893-2.299 0-3.275-1.347-3.275-4.504-.002-.191-.074-6.451-.105-9.749 0-3.703-2.949-6.719-6.57-6.719H9.727c-3.797 0-7.254 3.203-7.254 6.719l.002 1.355c.031-3.497 3.472-6.671 7.252-6.671zM2.484 49.009c0-.183.004-.343.008-.485.973 1.428 2.396 2.207 4.232 2.319.115.009.227.013.334.013 1.662 0 2.6-.817 3.418-1.66 1.701-1.736 1.713-3.977 1.779-14.711l-.006-.699c-.061 10.13-.111 12.308-1.773 14.01-.818.834-1.755 1.654-3.417 1.654-.107 0-.219-.003-.334-.011-1.836-.111-3.26-.896-4.232-2.319a16.96 16.96 0 0 0-.008.485c0 3.521-.012 9.332-.012 9.332l.002.049c.004-1.927.009-5.513.009-7.977z"/><linearGradient id="b" gradientUnits="userSpaceOnUse" x1="42.787" y1="-477.938" x2="37.311" y2="-502.24" gradientTransform="matrix(1 0 0 -1 0 -478)"><stop offset="0" stop-color="#fff" stop-opacity=".75"/><stop offset="1" stop-color="#fff" stop-opacity=".17"/></linearGradient><path opacity=".5" fill="url(#b)" d="M2.492 19.03c.973-1.426 2.395-2.207 4.232-2.32.115-.006.227-.01.334-.01 1.662 0 2.6.82 3.418 1.659 1.607 1.645 1.707 6.122 1.768 15.423 18.041 4.051 26.213-1.793 45.279-1.793 11.385 0 8.021.692 15.973 1.907.004-.244.004-.479.006-.724 0 0-.01-1.608-.01-2.283-.014-5.375-.023-10.454-1.566-10.454-.955 0-1.221.402-1.693 1.135-.521.8-1.231 1.893-3.002 1.893-2.299 0-3.274-1.347-3.274-4.504-.002-.191-.074-6.451-.104-9.749 0-3.703-2.949-6.719-6.57-6.719H9.727c-3.797 0-7.254 3.203-7.254 6.719 0 0 .012 5.811.012 9.332-.001.186.003.346.007.488z"/><g><path fill="#FF61F8" d="M9.727 65.15C5.078 65.15 1 61.312 1 56.938c0 0 .014-5.81.014-9.332 0-1.348.13-2.725 1.092-2.725.554 0 1.032.544 1.58 1.36.712 1.062 1.736 1.622 3.13 1.71.083.005.163.008.242.008 1.005 0 1.588-.41 2.375-1.216 1.233-1.265 1.289-3.47 1.352-13.671-.063-10.194-.119-12.397-1.352-13.662-.787-.807-1.371-1.217-2.375-1.217-.078 0-.159.003-.242.008-1.393.086-2.416.645-3.129 1.708-.547.817-1.025 1.362-1.58 1.362-.961 0-1.091-1.378-1.091-2.726C1.014 15.025 1 9.214 1 9.214 1 4.838 5.078 1 9.727 1h47.548c4.434 0 8.039 3.684 8.039 8.213 0 0 .107 9.542.107 9.749 0 3.01.919 3.01 1.809 3.01.979 0 1.312-.513 1.774-1.223.522-.804 1.175-1.804 2.921-1.804 3.012 0 3.021 4.756 3.038 11.955l.007 2.277-.007 2.076c-.017 7.199-.026 11.956-3.038 11.956-1.746 0-2.398-1.001-2.922-1.807-.462-.711-.796-1.225-1.773-1.225-.89 0-1.809 0-1.809 3.014 0 .207-.107 9.752-.107 9.752 0 4.523-3.605 8.209-8.039 8.209H9.727v-.002z"/><path fill="#AB55A1" d="M57.275 1.5c4.164 0 7.539 3.454 7.539 7.713 0 0 .106 9.542.106 9.749 0 3.113.978 3.51 2.31 3.51 2.567 0 1.824-3.027 4.694-3.027 2.761 0 2.5 5.62 2.546 13.531v.201c-.046 7.909.215 13.532-2.546 13.532-2.87 0-2.127-3.029-4.694-3.029-1.332 0-2.31.399-2.31 3.512 0 .207-.106 9.748-.106 9.748 0 4.262-3.375 7.713-7.539 7.713H9.727c-4.164 0-8.227-3.451-8.227-7.713 0 0 .014-5.811.014-9.332 0-1.685.255-2.226.592-2.226.364 0 .825.634 1.164 1.14.586.873 1.588 1.809 3.514 1.931.094.006.185.009.273.009 1.242 0 1.945-.561 2.732-1.367 1.385-1.42 1.43-3.541 1.494-14.017-.064-10.478-.109-12.597-1.494-14.016-.788-.808-1.49-1.368-2.733-1.368-.088 0-.179.003-.273.009-1.926.119-2.928 1.055-3.514 1.928-.339.507-.8 1.141-1.165 1.141-.337 0-.591-.542-.591-2.226 0-3.521-.014-9.332-.014-9.332C1.5 4.954 5.562 1.5 9.727 1.5h47.548m0-1H9.727C4.812.5.5 4.571.5 9.213c0 .002.014 5.812.014 9.332 0 .965 0 3.226 1.591 3.226.863 0 1.482-.818 1.996-1.584.395-.589 1.11-1.385 2.744-1.486.073-.004.143-.007.211-.007.836 0 1.298.329 2.017 1.066 1.097 1.125 1.148 3.288 1.21 13.322-.062 10.023-.113 12.188-1.21 13.312-.718.735-1.18 1.064-2.017 1.064-.068 0-.139-.002-.212-.007-1.634-.101-2.348-.898-2.744-1.488-.513-.766-1.132-1.582-1.995-1.582-.305 0-1.05.115-1.378 1.188-.144.47-.213 1.136-.213 2.037 0 3.521-.014 9.33-.014 9.33 0 4.644 4.312 8.715 9.227 8.715h47.548c4.709 0 8.539-3.908 8.539-8.713.004-.379.107-9.537.107-9.748 0-2.513.549-2.513 1.309-2.513.672 0 .873.257 1.354.997.526.811 1.323 2.033 3.341 2.033 3.51 0 3.521-4.955 3.538-12.455.001-.671.003-1.361.007-2.071V32.975c-.004-.716-.006-1.407-.007-2.078-.019-7.5-.028-12.454-3.538-12.454-2.018 0-2.812 1.222-3.341 2.031-.481.74-.683.996-1.354.996-.76 0-1.309 0-1.309-2.51 0-.21-.104-9.371-.107-9.76 0-4.791-3.832-8.7-8.539-8.7z"/><linearGradient id="c" gradientUnits="userSpaceOnUse" x1="37.987" y1="3.222" x2="37.987" y2="55.579" gradientTransform="matrix(1 0 0 -1 0 67)"><stop offset=".127" stop-color="#fff" stop-opacity=".5"/><stop offset=".267" stop-color="#fff" stop-opacity=".16"/><stop offset=".539" stop-color="#fff" stop-opacity="0"/></linearGradient><path opacity=".33" fill="url(#c)" d="M9.727 63.659c-3.797 0-7.254-3.203-7.254-6.722 0 0 .012-5.811.012-9.332 0-.183.004-.342.008-.485.973 1.427 2.396 2.208 4.232 2.319.115.008.227.011.334.011 1.662 0 2.6-.82 3.418-1.658 1.701-1.739 1.713-3.976 1.779-14.709-.066-10.749-.078-12.984-1.779-14.724-.819-.838-1.756-1.659-3.418-1.659-.107 0-.219.004-.334.01-1.838.113-3.26.895-4.232 2.32a16.833 16.833 0 0 1-.008-.485c0-3.521-.012-9.332-.012-9.332 0-3.516 3.457-6.719 7.254-6.719h47.548c3.621 0 6.57 3.016 6.57 6.719.033 3.298.105 9.558.107 9.749 0 3.157.979 4.504 3.277 4.504 1.768 0 2.479-1.093 3.002-1.893.473-.732.738-1.135 1.692-1.135 1.543 0 1.554 5.079 1.566 10.454 0 .675.01 2.283.01 2.283-.008.71-.01 1.409-.01 2.085-.015 5.374-.023 10.453-1.566 10.453-.954 0-1.221-.404-1.692-1.135-.523-.803-1.234-1.895-3.002-1.895-2.299 0-3.277 1.348-3.277 4.506-.002.188-.074 6.449-.107 9.735 0 3.718-2.949 6.732-6.57 6.732H9.727v.003z"/><linearGradient id="d" gradientUnits="userSpaceOnUse" x1="42.787" y1="67.061" x2="37.311" y2="42.759" gradientTransform="matrix(1 0 0 -1 0 67)"><stop offset="0" stop-color="#fff" stop-opacity=".5"/><stop offset="1" stop-color="#fff" stop-opacity=".17"/></linearGradient><path opacity=".76" fill="url(#d)" d="M2.492 19.03c.973-1.426 2.395-2.207 4.232-2.32.115-.006.227-.01.334-.01 1.662 0 2.6.82 3.418 1.659 1.607 1.645 1.707 6.122 1.768 15.423 18.041 4.051 26.213-1.793 45.279-1.793 11.385 0 8.021.692 15.973 1.907.004-.244.004-.477.006-.722 0 0-.01-1.608-.01-2.283-.014-5.375-.023-10.454-1.566-10.454-.955 0-1.221.402-1.693 1.135-.522.8-1.233 1.893-3.002 1.893-2.299 0-3.276-1.347-3.276-4.504-.002-.191-.074-6.451-.106-9.749 0-3.703-2.949-6.719-6.57-6.719H9.727c-3.797 0-7.254 3.203-7.254 6.719 0 0 .012 5.811.012 9.332-.001.184.003.344.007.486z"/><path opacity=".69" fill="#FFF" d="M2.484 49.009c0-.183.004-.343.008-.485.973 1.426 2.396 2.207 4.232 2.319.115.009.227.013.334.013 1.662 0 2.6-.819 3.418-1.66 1.701-1.738 1.713-3.977 1.779-14.711l-.006-.701c-.061 10.13-.111 12.308-1.773 14.01-.818.836-1.755 1.656-3.417 1.656-.107 0-.219-.003-.334-.011-1.836-.111-3.26-.894-4.232-2.319a16.96 16.96 0 0 0-.008.485c0 3.521-.012 9.332-.012 9.332l.002.049c.004-1.927.009-5.513.009-7.977zM9.727 3.897h47.548c3.621 0 6.57 3.014 6.57 6.719.033 3.296.105 9.558.107 9.75 0 3.154.979 4.504 3.277 4.504 1.768 0 2.479-1.096 3.002-1.895.473-.731.738-1.135 1.692-1.135 1.543 0 1.554 5.077 1.566 10.453l.004 1.625c0-.252 0-.491.006-.743 0 0-.01-1.608-.01-2.283-.015-5.375-.023-10.454-1.566-10.454-.954 0-1.221.402-1.692 1.135-.523.8-1.234 1.893-3.002 1.893-2.299 0-3.277-1.347-3.277-4.504-.002-.191-.074-6.451-.107-9.749 0-3.703-2.949-6.719-6.57-6.719H9.727c-3.797 0-7.254 3.203-7.254 6.719l.002 1.355c.031-3.497 3.472-6.671 7.252-6.671z"/></g></svg>