<svg xmlns="http://www.w3.org/2000/svg" width="76" height="66" viewBox="0 0 76 66"><path opacity=".3" d="M10.328 65.15c-4.659 0-8.747-3.846-8.747-8.231 0-.001.014-5.827.014-9.354 0-1.35.13-2.729 1.093-2.729.556 0 1.035.546 1.583 1.365.716 1.064 1.743 1.625 3.138 1.711.085.005.167.008.247.008 1.001 0 1.586-.411 2.378-1.22 1.24-1.269 1.291-3.273 1.355-13.703-.064-10.423-.115-12.427-1.355-13.695-.79-.809-1.374-1.219-2.379-1.219a3.48 3.48 0 0 0-.246.008c-1.395.085-2.421.645-3.138 1.711-.547.818-1.025 1.363-1.582 1.363-.963 0-1.093-1.38-1.093-2.73 0-3.529-.014-9.352-.014-9.353 0-4.386 4.087-8.233 8.747-8.233h32.646C60.312.854 74.418 15.277 74.418 33c0 17.723-14.104 32.146-31.441 32.15H10.328z"/></svg>