<svg xmlns="http://www.w3.org/2000/svg" width="85" height="66" viewBox="0 0 85 66"><path opacity=".3" d="M32.409 65.083C15.2 64.988 1.199 50.596 1.199 33.001 1.199 15.407 15.2 1.014 32.409.917l4.439.008h29.257c4.433 0 8.039 3.684 8.039 8.213 0 0 .106 9.543.106 9.749 0 3.011.92 3.011 1.81 3.011.977 0 1.311-.513 1.772-1.223.522-.804 1.174-1.804 2.92-1.804 3.013 0 3.022 4.76 3.039 11.966l.008 2.265-.008 2.064c-.017 7.207-.026 11.969-3.039 11.969-1.746 0-2.396-1.002-2.92-1.807-.463-.711-.797-1.225-1.772-1.225-.89 0-1.81 0-1.81 3.014 0 .207-.106 9.752-.106 9.752 0 4.523-3.606 8.209-8.039 8.209H36.848l-4.436.006-.003-.001z"/></svg>