<?xml version="1.0" encoding="utf-8"?>
<!-- Generator: Adobe Illustrator 15.0.0, SVG Export Plug-In . SVG Version: 6.00 Build 0)  -->
<!DOCTYPE svg PUBLIC "-//W3C//DTD SVG 1.1//EN" "http://www.w3.org/Graphics/SVG/1.1/DTD/svg11.dtd">
<svg version="1.1" id="Layer_1" xmlns="http://www.w3.org/2000/svg" xmlns:xlink="http://www.w3.org/1999/xlink" x="0px" y="0px"
	 width="86px" height="66px" viewBox="0 0 86 66" enable-background="new 0 0 86 66" xml:space="preserve">
<path opacity="0.3" d="M9.926,65.15c-4.659,0-8.747-3.846-8.747-8.231c0-0.001,0.014-5.827,0.014-9.354
	c0-1.35,0.13-2.729,1.093-2.729c0.556,0,1.035,0.546,1.583,1.365c0.716,1.064,1.742,1.625,3.138,1.711
	c0.085,0.005,0.167,0.008,0.246,0.008c1.001,0,1.586-0.411,2.378-1.22c1.24-1.269,1.291-3.273,1.355-13.703
	C10.921,22.573,10.87,20.569,9.63,19.301c-0.79-0.809-1.375-1.22-2.379-1.22c-0.079,0-0.161,0.002-0.245,0.008
	c-1.397,0.086-2.424,0.646-3.139,1.713c-0.548,0.818-1.026,1.364-1.582,1.364c-0.963,0-1.093-1.38-1.093-2.73
	c0-3.53-0.014-9.354-0.014-9.354c0-4.386,4.088-8.232,8.747-8.232h44.327C71.591,0.854,85.695,15.277,85.695,33
	c0,17.723-14.104,32.146-31.44,32.15H9.926z"/>
</svg>
