<?xml version="1.0" encoding="utf-8"?>
<!-- Generator: Adobe Illustrator 15.0.0, SVG Export Plug-In . SVG Version: 6.00 Build 0)  -->
<!DOCTYPE svg PUBLIC "-//W3C//DTD SVG 1.1//EN" "http://www.w3.org/Graphics/SVG/1.1/DTD/svg11.dtd">
<svg version="1.1" id="Layer_1" xmlns="http://www.w3.org/2000/svg" xmlns:xlink="http://www.w3.org/1999/xlink" x="0px" y="0px"
	 width="85px" height="66px" viewBox="0 0 85 66" enable-background="new 0 0 85 66" xml:space="preserve">
<path opacity="0.3" d="M32.409,65.083C15.2,64.988,1.199,50.596,1.199,33.001c0-17.594,14.001-31.987,31.21-32.084l4.439,0.008
	h29.257c4.433,0,8.039,3.684,8.039,8.213c0,0,0.106,9.543,0.106,9.749c0,3.011,0.92,3.011,1.81,3.011
	c0.977,0,1.311-0.513,1.772-1.223c0.522-0.804,1.174-1.804,2.92-1.804c3.013,0,3.022,4.76,3.039,11.966l0.008,2.265l-0.008,2.064
	c-0.017,7.207-0.026,11.969-3.039,11.969c-1.746,0-2.396-1.002-2.92-1.807c-0.463-0.711-0.797-1.225-1.772-1.225
	c-0.89,0-1.81,0-1.81,3.014c0,0.207-0.106,9.752-0.106,9.752c0,4.523-3.606,8.209-8.039,8.209H36.848l-4.436,0.006L32.409,65.083
	L32.409,65.083z"/>
</svg>
