<?xml version="1.0" encoding="utf-8"?>
<!-- Generator: Adobe Illustrator 15.0.0, SVG Export Plug-In . SVG Version: 6.00 Build 0)  -->
<!DOCTYPE svg PUBLIC "-//W3C//DTD SVG 1.1//EN" "http://www.w3.org/Graphics/SVG/1.1/DTD/svg11.dtd">
<svg version="1.1" id="Layer_1" xmlns="http://www.w3.org/2000/svg" xmlns:xlink="http://www.w3.org/1999/xlink" x="0px" y="0px"
	 width="76px" height="66px" viewBox="0 0 76 66" enable-background="new 0 0 76 66" xml:space="preserve">
<path opacity="0.3" d="M9.742,65.075c-4.649,0-8.728-3.839-8.728-8.214c0,0,0.014-5.811,0.014-9.332c0-1.348,0.13-2.725,1.092-2.725
	c0.555,0,1.032,0.543,1.579,1.36c0.714,1.063,1.738,1.621,3.13,1.709c0.084,0.005,0.166,0.008,0.245,0.008
	c1.001,0,1.584-0.409,2.373-1.216c1.232-1.264,1.289-3.468,1.353-13.671c-0.063-10.194-0.12-12.397-1.353-13.661
	c-0.789-0.807-1.373-1.217-2.375-1.217c-0.078,0-0.159,0.003-0.242,0.008c-1.392,0.086-2.416,0.645-3.13,1.708
	c-0.546,0.817-1.024,1.362-1.579,1.362c-0.961,0-1.091-1.378-1.091-2.726c0-3.52-0.014-9.331-0.014-9.331
	c0-4.376,4.078-8.214,8.728-8.214H57.29c4.433,0,8.039,3.684,8.039,8.213c0,0,0.106,9.542,0.106,9.749c0,3.01,0.918,3.01,1.808,3.01
	c0.978,0,1.312-0.513,1.774-1.223c0.522-0.804,1.174-1.804,2.92-1.804c3.014,0,3.023,4.756,3.041,11.956l0.006,2.276l-0.006,2.074
	c-0.017,7.2-0.027,11.957-3.041,11.957c-1.746,0-2.397-1.001-2.92-1.806c-0.463-0.71-0.797-1.225-1.774-1.225
	c-0.888,0-1.808,0-1.808,3.013c0,0.206-0.106,9.754-0.106,9.754c0,4.522-3.606,8.207-8.039,8.207H9.742z"/>
</svg>
