<svg xmlns="http://www.w3.org/2000/svg" width="76" height="66" viewBox="0 0 76 66"><path opacity=".3" d="M9.742 65.075c-4.649 0-8.728-3.839-8.728-8.214 0 0 .014-5.811.014-9.332 0-1.348.13-2.725 1.092-2.725.555 0 1.032.543 1.579 1.36.714 1.063 1.738 1.621 3.13 1.709.084.005.166.008.245.008 1.001 0 1.584-.409 2.373-1.216 1.232-1.264 1.289-3.468 1.353-13.671-.063-10.194-.12-12.397-1.353-13.661-.789-.807-1.373-1.217-2.375-1.217-.078 0-.159.003-.242.008-1.392.086-2.416.645-3.13 1.708-.546.817-1.024 1.362-1.579 1.362-.961 0-1.091-1.378-1.091-2.726 0-3.52-.014-9.331-.014-9.331 0-4.376 4.078-8.214 8.728-8.214H57.29c4.433 0 8.039 3.684 8.039 8.213 0 0 .106 9.542.106 9.749 0 3.01.918 3.01 1.808 3.01.978 0 1.312-.513 1.774-1.223.522-.804 1.174-1.804 2.92-1.804 3.014 0 3.023 4.756 3.041 11.956l.006 2.276-.006 2.074c-.017 7.2-.027 11.957-3.041 11.957-1.746 0-2.397-1.001-2.92-1.806-.463-.71-.797-1.225-1.774-1.225-.888 0-1.808 0-1.808 3.013 0 .206-.106 9.754-.106 9.754 0 4.522-3.606 8.207-8.039 8.207H9.742z"/></svg>