<svg xmlns="http://www.w3.org/2000/svg" width="76" height="66" viewBox="0 0 76 66"><path fill="#8BEA28" d="M9.728 65.152c-4.65 0-8.728-3.84-8.728-8.215 0 0 .014-5.81.014-9.332 0-1.348.13-2.725 1.092-2.725.554 0 1.032.544 1.579 1.36.713 1.062 1.737 1.622 3.131 1.71.083.005.163.008.241.008 1.003 0 1.587-.41 2.375-1.217 1.232-1.264 1.289-3.469 1.353-13.67-.063-10.194-.12-12.397-1.353-13.662-.789-.807-1.373-1.217-2.375-1.217-.078 0-.159.003-.242.008-1.392.086-2.416.645-3.13 1.708-.546.817-1.024 1.362-1.579 1.362-.961 0-1.091-1.378-1.091-2.726C1.014 15.025 1 9.214 1 9.214 1 4.838 5.078 1 9.728 1h47.547c4.434 0 8.039 3.684 8.039 8.213 0 0 .107 9.542.107 9.749 0 3.01.918 3.01 1.807 3.01.979 0 1.312-.513 1.774-1.223.522-.804 1.175-1.804 2.921-1.804 3.014 0 3.023 4.756 3.04 11.956l.007 2.275-.007 2.075c-.017 7.2-.026 11.957-3.04 11.957-1.747 0-2.398-1.001-2.922-1.806-.462-.711-.796-1.226-1.773-1.226-.889 0-1.807 0-1.807 3.013 0 .207-.107 9.754-.107 9.754 0 4.522-3.605 8.209-8.039 8.209H9.728z"/><path fill="#64A01F" d="M57.275 1.5c4.162 0 7.539 3.454 7.539 7.713 0 0 .106 9.542.106 9.749 0 3.113.976 3.51 2.308 3.51 2.567 0 1.823-3.027 4.694-3.027 2.763 0 2.502 5.62 2.548 13.531v.201c-.046 7.909.215 13.532-2.548 13.532-2.871 0-2.127-3.029-4.694-3.029-1.332 0-2.308.399-2.308 3.512 0 .207-.106 9.748-.106 9.748 0 4.262-3.377 7.715-7.539 7.715H9.728c-4.165 0-8.228-3.453-8.228-7.715 0 0 .014-5.811.014-9.332 0-1.685.255-2.226.592-2.226.364 0 .825.634 1.163 1.14.587.873 1.59 1.809 3.515 1.931.094.006.185.009.273.009 1.241 0 1.943-.561 2.733-1.367 1.385-1.42 1.43-3.541 1.495-14.017-.065-10.476-.11-12.594-1.495-14.014-.79-.81-1.493-1.37-2.734-1.37-.088 0-.179.003-.273.009-1.925.119-2.928 1.055-3.515 1.928-.338.506-.799 1.141-1.164 1.141-.337 0-.591-.542-.591-2.226 0-3.521-.014-9.332-.014-9.332C1.5 4.954 5.562 1.5 9.728 1.5h47.547m0-1H9.728C4.812.5.5 4.571.5 9.213c0 .002.014 5.812.014 9.332 0 .965 0 3.226 1.591 3.226.863 0 1.482-.818 1.995-1.585.395-.588 1.111-1.384 2.745-1.485.072-.004.143-.007.211-.007.834 0 1.296.329 2.018 1.067 1.096 1.124 1.148 3.287 1.21 13.321-.062 10.023-.114 12.188-1.211 13.313-.72.735-1.182 1.064-2.017 1.064-.068 0-.139-.002-.211-.007-1.634-.104-2.35-.9-2.746-1.49-.511-.765-1.13-1.581-1.993-1.581-.305 0-1.05.115-1.378 1.188-.144.47-.213 1.136-.213 2.037 0 3.521-.014 9.328-.014 9.33 0 4.645 4.312 8.717 9.228 8.717h47.546c4.709 0 8.539-3.909 8.539-8.715.004-.379.107-9.537.107-9.748 0-2.513.549-2.513 1.307-2.513.672 0 .873.257 1.354.997.526.811 1.323 2.033 3.341 2.033 3.512 0 3.521-4.955 3.54-12.456.001-.67.003-1.36.007-2.07V32.975a504.25 504.25 0 0 1-.007-2.076c-.019-7.5-.028-12.455-3.54-12.455-2.018 0-2.812 1.222-3.341 2.031-.481.74-.683.996-1.354.996-.758 0-1.307 0-1.307-2.51 0-.21-.104-9.371-.107-9.76C65.814 4.409 61.982.5 57.275.5z"/><linearGradient id="a" gradientUnits="userSpaceOnUse" x1="37.985" y1="3.22" x2="37.985" y2="55.579" gradientTransform="matrix(1 0 0 -1 0 67)"><stop offset=".127" stop-color="#ff0" stop-opacity=".5"/><stop offset=".267" stop-color="#ff0" stop-opacity=".16"/><stop offset=".539" stop-color="#fff" stop-opacity="0"/></linearGradient><path opacity=".2" fill="url(#a)" d="M9.728 63.66c-3.798 0-7.257-3.204-7.257-6.723 0 0 .014-5.811.014-9.332 0-.183.004-.342.009-.485.973 1.427 2.395 2.208 4.231 2.319.115.008.227.011.332.011 1.663 0 2.602-.82 3.42-1.658 1.699-1.739 1.713-3.976 1.777-14.709-.064-10.749-.078-12.984-1.777-14.724-.819-.838-1.757-1.659-3.42-1.659-.105 0-.217.004-.332.01-1.837.113-3.259.895-4.231 2.32a13.657 13.657 0 0 1-.009-.485c0-3.521-.014-9.332-.014-9.332 0-3.516 3.459-6.719 7.257-6.719h47.547c3.619 0 6.568 3.016 6.568 6.719.035 3.298.107 9.558.109 9.749 0 3.157.977 4.504 3.275 4.504 1.77 0 2.479-1.093 3.002-1.893.473-.732.74-1.135 1.692-1.135 1.545 0 1.556 5.079 1.568 10.454 0 .675.008 2.283.008 2.283-.006.71-.008 1.409-.008 2.085-.015 5.374-.023 10.453-1.568 10.453-.952 0-1.221-.404-1.692-1.135-.523-.803-1.232-1.895-3.002-1.895-2.299 0-3.275 1.348-3.275 4.506-.002.188-.074 6.449-.109 9.735 0 3.718-2.949 6.733-6.568 6.733H9.728v.003z"/><linearGradient id="b" gradientUnits="userSpaceOnUse" x1="41.97" y1="66.228" x2="38.391" y2="47.806" gradientTransform="matrix(1 0 0 -1 0 67)"><stop offset="0" stop-color="#ff0"/><stop offset="1" stop-color="#fff" stop-opacity=".17"/></linearGradient><path opacity=".8" fill="url(#b)" d="M2.493 19.03c.973-1.426 2.395-2.207 4.231-2.32.115-.006.227-.01.332-.01 1.663 0 2.602.82 3.42 1.659 1.606 1.645 1.707 6.122 1.768 15.423 18.041 4.051 26.215-1.793 45.277-1.793 11.387 0 8.022.692 15.975 1.907l.004-.722s-.008-1.608-.008-2.283c-.014-5.375-.023-10.454-1.568-10.454-.953 0-1.221.402-1.693 1.135-.522.8-1.231 1.893-3.002 1.893-2.299 0-3.274-1.347-3.274-4.504-.002-.191-.074-6.451-.108-9.749 0-3.703-2.949-6.719-6.568-6.719H9.728c-3.798 0-7.257 3.203-7.257 6.719 0 0 .014 5.811.014 9.332-.001.184.003.344.008.486z"/><path opacity=".69" fill="#FFF" d="M9.728 3.897h47.547c3.619 0 6.568 3.014 6.568 6.719.035 3.296.107 9.558.109 9.75 0 3.154.977 4.504 3.275 4.504 1.77 0 2.479-1.096 3.002-1.895.473-.731.74-1.135 1.692-1.135 1.545 0 1.556 5.077 1.568 10.453l.004 1.625c0-.252 0-.491.004-.743 0 0-.008-1.608-.008-2.283-.015-5.375-.023-10.454-1.568-10.454-.952 0-1.221.402-1.692 1.135-.523.8-1.232 1.893-3.002 1.893-2.299 0-3.275-1.347-3.275-4.504-.002-.191-.074-6.451-.109-9.749 0-3.703-2.949-6.719-6.568-6.719H9.728c-3.798 0-7.257 3.203-7.257 6.719 0 0 .002.528.002 1.355.033-3.497 3.474-6.671 7.255-6.671zM2.484 49.009c0-.183.004-.343.009-.485.973 1.426 2.395 2.207 4.231 2.319.115.009.227.013.332.013 1.663 0 2.602-.819 3.42-1.66 1.699-1.738 1.713-3.977 1.777-14.711l-.004-.701c-.062 10.13-.111 12.308-1.773 14.01-.818.836-1.756 1.656-3.419 1.656-.105 0-.217-.003-.332-.011-1.837-.111-3.259-.894-4.231-2.319-.005.144-.009.304-.009.485 0 3.521-.014 9.332-.014 9.332l.002.049c.005-1.927.011-5.513.011-7.977z"/></svg>