<?xml version="1.0" encoding="utf-8"?>
<!-- Generator: Adobe Illustrator 15.0.0, SVG Export Plug-In . SVG Version: 6.00 Build 0)  -->
<!DOCTYPE svg PUBLIC "-//W3C//DTD SVG 1.1//EN" "http://www.w3.org/Graphics/SVG/1.1/DTD/svg11.dtd">
<svg version="1.1" id="Layer_1" xmlns="http://www.w3.org/2000/svg" xmlns:xlink="http://www.w3.org/1999/xlink" x="0px" y="0px"
	 width="76px" height="66px" viewBox="0 0 76 66" enable-background="new 0 0 76 66" xml:space="preserve">
<g>
	<g>
		<path fill="#8BEA28" d="M9.728,65.152c-4.65,0-8.728-3.84-8.728-8.215c0,0,0.014-5.81,0.014-9.332c0-1.348,0.13-2.725,1.092-2.725
			c0.554,0,1.032,0.544,1.579,1.36c0.713,1.062,1.737,1.622,3.131,1.71c0.083,0.005,0.163,0.008,0.241,0.008
			c1.003,0,1.587-0.41,2.375-1.217c1.232-1.264,1.289-3.469,1.353-13.67c-0.063-10.194-0.12-12.397-1.353-13.662
			c-0.789-0.807-1.373-1.217-2.375-1.217c-0.078,0-0.159,0.003-0.242,0.008c-1.392,0.086-2.416,0.645-3.13,1.708
			c-0.546,0.817-1.024,1.362-1.579,1.362c-0.961,0-1.091-1.378-1.091-2.726C1.014,15.025,1,9.214,1,9.214C1,4.838,5.078,1,9.728,1
			h47.547c4.434,0,8.039,3.684,8.039,8.213c0,0,0.107,9.542,0.107,9.749c0,3.01,0.918,3.01,1.807,3.01
			c0.979,0,1.312-0.513,1.774-1.223c0.522-0.804,1.175-1.804,2.921-1.804c3.014,0,3.023,4.756,3.04,11.956l0.007,2.275l-0.007,2.075
			c-0.017,7.2-0.026,11.957-3.04,11.957c-1.747,0-2.398-1.001-2.922-1.806c-0.462-0.711-0.796-1.226-1.773-1.226
			c-0.889,0-1.807,0-1.807,3.013c0,0.207-0.107,9.754-0.107,9.754c0,4.522-3.605,8.209-8.039,8.209H9.728z"/>
		<g>
			<path fill="#64A01F" d="M57.275,1.5c4.162,0,7.539,3.454,7.539,7.713c0,0,0.106,9.542,0.106,9.749c0,3.113,0.976,3.51,2.308,3.51
				c2.567,0,1.823-3.027,4.694-3.027c2.763,0,2.502,5.62,2.548,13.531c0,0.035,0,0.066,0,0.1c0,0.034,0,0.064,0,0.101
				c-0.046,7.909,0.215,13.532-2.548,13.532c-2.871,0-2.127-3.029-4.694-3.029c-1.332,0-2.308,0.399-2.308,3.512
				c0,0.207-0.106,9.748-0.106,9.748c0,4.262-3.377,7.715-7.539,7.715H28.02H9.834H9.728c-4.165,0-8.228-3.453-8.228-7.715
				c0,0,0.014-5.811,0.014-9.332c0-1.685,0.255-2.226,0.592-2.226c0.364,0,0.825,0.634,1.163,1.14
				c0.587,0.873,1.59,1.809,3.515,1.931c0.094,0.006,0.185,0.009,0.273,0.009c1.241,0,1.943-0.561,2.733-1.367
				c1.385-1.42,1.43-3.541,1.495-14.017c-0.065-10.476-0.11-12.594-1.495-14.014c-0.79-0.81-1.493-1.37-2.734-1.37
				c-0.088,0-0.179,0.003-0.273,0.009c-1.925,0.119-2.928,1.055-3.515,1.928c-0.338,0.506-0.799,1.141-1.164,1.141
				c-0.337,0-0.591-0.542-0.591-2.226c0-3.521-0.014-9.332-0.014-9.332C1.5,4.954,5.562,1.5,9.728,1.5h0.106H28.02H57.275
				 M57.275,0.5H28.02H9.834H9.728C4.812,0.5,0.5,4.571,0.5,9.213c0,0.002,0.014,5.812,0.014,9.332c0,0.965,0,3.226,1.591,3.226
				c0.863,0,1.482-0.818,1.995-1.585c0.395-0.588,1.111-1.384,2.745-1.485c0.072-0.004,0.143-0.007,0.211-0.007
				c0.834,0,1.296,0.329,2.018,1.067c1.096,1.124,1.148,3.287,1.21,13.321C10.222,43.105,10.17,45.27,9.073,46.395
				c-0.72,0.735-1.182,1.064-2.017,1.064c-0.068,0-0.139-0.002-0.211-0.007c-1.634-0.104-2.35-0.9-2.746-1.49
				c-0.511-0.765-1.13-1.581-1.993-1.581c-0.305,0-1.05,0.115-1.378,1.188c-0.144,0.47-0.213,1.136-0.213,2.037
				c0,3.521-0.014,9.328-0.014,9.33c0,4.645,4.312,8.717,9.228,8.717h0.106H28.02h29.255c4.709,0,8.539-3.909,8.539-8.715
				c0.004-0.379,0.107-9.537,0.107-9.748c0-2.513,0.549-2.513,1.307-2.513c0.672,0,0.873,0.257,1.354,0.997
				c0.526,0.811,1.323,2.033,3.341,2.033c3.512,0,3.521-4.955,3.54-12.456c0.001-0.67,0.003-1.36,0.007-2.07v-0.106v-0.1
				c-0.004-0.715-0.006-1.406-0.007-2.076c-0.019-7.5-0.028-12.455-3.54-12.455c-2.018,0-2.812,1.222-3.341,2.031
				c-0.481,0.74-0.683,0.996-1.354,0.996c-0.758,0-1.307,0-1.307-2.51c0-0.21-0.104-9.371-0.107-9.76
				C65.814,4.409,61.982,0.5,57.275,0.5L57.275,0.5z"/>
		</g>
	</g>
	
		<linearGradient id="SVGID_1_" gradientUnits="userSpaceOnUse" x1="37.9849" y1="3.2202" x2="37.9849" y2="55.5788" gradientTransform="matrix(1 0 0 -1 0 67)">
		<stop  offset="0.1273" style="stop-color:#FFFF00;stop-opacity:0.5"/>
		<stop  offset="0.2667" style="stop-color:#FFFF00;stop-opacity:0.16"/>
		<stop  offset="0.5394" style="stop-color:#FFFFFF;stop-opacity:0"/>
	</linearGradient>
	<path opacity="0.2" fill="url(#SVGID_1_)" enable-background="new    " d="M9.728,63.66c-3.798,0-7.257-3.204-7.257-6.723
		c0,0,0.014-5.811,0.014-9.332c0-0.183,0.004-0.342,0.009-0.485c0.973,1.427,2.395,2.208,4.231,2.319
		c0.115,0.008,0.227,0.011,0.332,0.011c1.663,0,2.602-0.82,3.42-1.658c1.699-1.739,1.713-3.976,1.777-14.709
		c-0.064-10.749-0.078-12.984-1.777-14.724C9.658,17.521,8.72,16.7,7.057,16.7c-0.105,0-0.217,0.004-0.332,0.01
		c-1.837,0.113-3.259,0.895-4.231,2.32c-0.005-0.143-0.009-0.303-0.009-0.485c0-3.521-0.014-9.332-0.014-9.332
		c0-3.516,3.459-6.719,7.257-6.719h47.547c3.619,0,6.568,3.016,6.568,6.719c0.035,3.298,0.107,9.558,0.109,9.749
		c0,3.157,0.977,4.504,3.275,4.504c1.77,0,2.479-1.093,3.002-1.893c0.473-0.732,0.74-1.135,1.692-1.135
		c1.545,0,1.556,5.079,1.568,10.454c0,0.675,0.008,2.283,0.008,2.283c-0.006,0.71-0.008,1.409-0.008,2.085
		c-0.015,5.374-0.023,10.453-1.568,10.453c-0.952,0-1.221-0.404-1.692-1.135c-0.523-0.803-1.232-1.895-3.002-1.895
		c-2.299,0-3.275,1.348-3.275,4.506c-0.002,0.188-0.074,6.449-0.109,9.735c0,3.718-2.949,6.733-6.568,6.733H9.728V63.66z"/>
	
		<linearGradient id="SVGID_2_" gradientUnits="userSpaceOnUse" x1="41.9697" y1="66.2285" x2="38.3911" y2="47.8057" gradientTransform="matrix(1 0 0 -1 0 67)">
		<stop  offset="0" style="stop-color:#FFFF00"/>
		<stop  offset="1" style="stop-color:#FFFFFF;stop-opacity:0.17"/>
	</linearGradient>
	<path opacity="0.8" fill="url(#SVGID_2_)" enable-background="new    " d="M2.493,19.03c0.973-1.426,2.395-2.207,4.231-2.32
		c0.115-0.006,0.227-0.01,0.332-0.01c1.663,0,2.602,0.82,3.42,1.659c1.606,1.645,1.707,6.122,1.768,15.423
		c18.041,4.051,26.215-1.793,45.277-1.793c11.387,0,8.022,0.692,15.975,1.907c0.002-0.244,0.002-0.477,0.004-0.722
		c0,0-0.008-1.608-0.008-2.283c-0.014-5.375-0.023-10.454-1.568-10.454c-0.953,0-1.221,0.402-1.693,1.135
		c-0.522,0.8-1.231,1.893-3.002,1.893c-2.299,0-3.274-1.347-3.274-4.504c-0.002-0.191-0.074-6.451-0.108-9.749
		c0-3.703-2.949-6.719-6.568-6.719H9.728c-3.798,0-7.257,3.203-7.257,6.719c0,0,0.014,5.811,0.014,9.332
		C2.484,18.728,2.488,18.888,2.493,19.03z"/>
	<path opacity="0.69" fill="#FFFFFF" enable-background="new    " d="M9.728,3.897h47.547c3.619,0,6.568,3.014,6.568,6.719
		c0.035,3.296,0.107,9.558,0.109,9.75c0,3.154,0.977,4.504,3.275,4.504c1.77,0,2.479-1.096,3.002-1.895
		c0.473-0.731,0.74-1.135,1.692-1.135c1.545,0,1.556,5.077,1.568,10.453c0,0.393,0.002,1.102,0.004,1.625
		c0-0.252,0-0.491,0.004-0.743c0,0-0.008-1.608-0.008-2.283c-0.015-5.375-0.023-10.454-1.568-10.454
		c-0.952,0-1.221,0.402-1.692,1.135c-0.523,0.8-1.232,1.893-3.002,1.893c-2.299,0-3.275-1.347-3.275-4.504
		c-0.002-0.191-0.074-6.451-0.109-9.749c0-3.703-2.949-6.719-6.568-6.719H9.728c-3.798,0-7.257,3.203-7.257,6.719
		c0,0,0.002,0.528,0.002,1.355C2.506,7.071,5.947,3.897,9.728,3.897z"/>
	<path opacity="0.69" fill="#FFFFFF" enable-background="new    " d="M2.484,49.009c0-0.183,0.004-0.343,0.009-0.485
		c0.973,1.426,2.395,2.207,4.231,2.319c0.115,0.009,0.227,0.013,0.332,0.013c1.663,0,2.602-0.819,3.42-1.66
		c1.699-1.738,1.713-3.977,1.777-14.711c-0.002-0.238-0.002-0.471-0.004-0.701c-0.062,10.13-0.111,12.308-1.773,14.01
		C9.658,48.63,8.72,49.45,7.057,49.45c-0.105,0-0.217-0.003-0.332-0.011c-1.837-0.111-3.259-0.894-4.231-2.319
		c-0.005,0.144-0.009,0.304-0.009,0.485c0,3.521-0.014,9.332-0.014,9.332c0,0.017,0.002,0.031,0.002,0.049
		C2.478,55.059,2.484,51.473,2.484,49.009z"/>
</g>
</svg>
