<?xml version="1.0" encoding="utf-8"?>
<!-- Generator: Adobe Illustrator 15.0.0, SVG Export Plug-In . SVG Version: 6.00 Build 0)  -->
<!DOCTYPE svg PUBLIC "-//W3C//DTD SVG 1.1//EN" "http://www.w3.org/Graphics/SVG/1.1/DTD/svg11.dtd">
<svg version="1.1" id="Layer_3" xmlns="http://www.w3.org/2000/svg" xmlns:xlink="http://www.w3.org/1999/xlink" x="0px" y="0px"
	 width="85px" height="66px" viewBox="0 0 85 66" enable-background="new 0 0 85 66" xml:space="preserve">
<g>
	<path fill="#FFEA00" d="M32.185,65.418c-17.209-0.095-31.21-14.487-31.21-32.082c0-17.594,14.001-31.987,31.21-32.084l4.439,0.008
		h29.256c4.433,0,8.039,3.684,8.039,8.213c0,0,0.107,9.543,0.107,9.749c0,3.011,0.92,3.011,1.809,3.011
		c0.977,0,1.311-0.513,1.772-1.223c0.523-0.804,1.175-1.804,2.921-1.804c3.012,0,3.023,4.76,3.04,11.966l0.007,2.264L83.569,35.5
		c-0.017,7.207-0.028,11.969-3.04,11.969c-1.746,0-2.397-1.002-2.921-1.807c-0.462-0.711-0.796-1.225-1.772-1.225
		c-0.889,0-1.809,0-1.809,3.014c0,0.207-0.107,9.752-0.107,9.752c0,4.523-3.606,8.209-8.039,8.209H36.624l-4.435,0.006H32.185z"/>
	<g>
		<path fill="#D6BD05" d="M32.188,1.752l4.436,0.008h29.257c4.164,0,7.539,3.455,7.539,7.713c0,0,0.107,9.543,0.107,9.749
			c0,3.113,0.975,3.511,2.309,3.511c2.566,0,1.824-3.027,4.693-3.027c2.76,0,2.502,5.619,2.547,13.531c0,0.034,0,0.066,0,0.099
			c0,0.034,0,0.065,0,0.101c-0.045,7.91,0.213,13.533-2.547,13.533c-2.869,0-2.127-3.031-4.693-3.031
			c-1.334,0-2.309,0.4-2.309,3.514c0,0.207-0.107,9.746-0.107,9.746c0,4.262-3.375,7.715-7.539,7.715H36.624l-4.436,0.006
			C15.21,64.824,1.475,50.721,1.475,33.336C1.475,15.949,15.21,1.848,32.188,1.752 M32.19,0.752h-0.004h-0.004
			C14.699,0.851,0.475,15.468,0.475,33.336c0,17.869,14.224,32.485,31.708,32.582l4.442-0.006h29.256
			c4.708,0,8.539-3.909,8.539-8.715c0.004-0.379,0.107-9.536,0.107-9.746c0-2.514,0.549-2.514,1.309-2.514
			c0.671,0,0.872,0.256,1.354,0.997c0.526,0.811,1.322,2.034,3.34,2.034c3.511,0,3.522-4.96,3.54-12.467
			c0.001-0.667,0.003-1.354,0.007-2.061v-0.106v-0.099c-0.004-0.711-0.006-1.399-0.007-2.066c-0.018-7.506-0.029-12.465-3.54-12.465
			c-2.017,0-2.812,1.222-3.34,2.031c-0.481,0.74-0.683,0.996-1.354,0.996c-0.76,0-1.309,0-1.309-2.511
			c0-0.209-0.104-9.371-0.107-9.76c0-4.793-3.831-8.702-8.539-8.702H36.624L32.19,0.752L32.19,0.752z"/>
	</g>
</g>
<g>
	<linearGradient id="SVGID_1_" gradientUnits="userSpaceOnUse" x1="42.1094" y1="64.584" x2="42.1094" y2="40.624">
		<stop  offset="0" style="stop-color:#FFFFFF"/>
		<stop  offset="1" style="stop-color:#FFFFFF;stop-opacity:0"/>
	</linearGradient>
	<path opacity="0.33" fill="url(#SVGID_1_)" d="M50.574,63.928c0,0-18.183-0.002-18.378-0.002
		C15.792,63.832,2.447,50.109,2.447,33.336c0-16.774,13.345-30.496,29.749-30.589c0.195-0.001,18.378-0.005,18.378-0.005h14.963
		c3.625,0,6.576,3.014,6.576,6.721c0.035,3.298,0.105,9.562,0.105,9.754c0,3.158,0.979,4.505,3.279,4.505
		c1.77,0,2.482-1.094,3-1.896c0.48-0.73,0.74-1.134,1.695-1.134c1.547,0,1.557,5.079,1.568,10.458
		c0.002,0.676,0.01,2.284,0.01,2.284c-0.006,0.712-0.006,1.411-0.008,2.087c-0.014,5.377-0.023,10.457-1.57,10.457
		c-0.955,0-1.215-0.404-1.695-1.135c-0.518-0.801-1.23-1.895-3-1.895c-2.301,0-3.279,1.348-3.279,4.508
		c0,0.189-0.07,6.453-0.105,9.738c0,3.717-2.951,6.732-6.576,6.732H50.574z"/>
</g>
<path opacity="0.65" fill="#FFFFFF" d="M32.196,4.149c0.195-0.001,18.378-0.005,18.378-0.005h14.963
	c3.625,0,6.576,3.016,6.576,6.723c0.035,3.297,0.105,9.562,0.105,9.752c0,3.158,0.979,4.505,3.279,4.505c1.77,0,2.482-1.094,3-1.896
	c0.48-0.73,0.74-1.133,1.695-1.133c1.547,0,1.557,5.08,1.568,10.457c0.002,0.395,0.004,1.102,0.006,1.625
	c0.002-0.25,0.002-0.489,0.004-0.743c0,0-0.008-1.608-0.01-2.284c-0.012-5.379-0.021-10.458-1.568-10.458
	c-0.955,0-1.215,0.403-1.695,1.134c-0.518,0.802-1.23,1.896-3,1.896c-2.301,0-3.279-1.347-3.279-4.505
	c0-0.191-0.07-6.456-0.105-9.754c0-3.707-2.951-6.721-6.576-6.721H50.574c0,0-18.183,0.004-18.378,0.005
	C15.792,2.84,2.447,16.562,2.447,33.336c0,0.236,0.011,0.467,0.017,0.701C2.831,17.586,16.021,4.242,32.196,4.149z"/>
<g opacity="0.6">
	<linearGradient id="SVGID_2_" gradientUnits="userSpaceOnUse" x1="51.0771" y1="-16.2119" x2="44.1449" y2="21.0166">
		<stop  offset="0" style="stop-color:#FFFFFF"/>
		<stop  offset="1" style="stop-color:#FFFFFF;stop-opacity:0.39"/>
	</linearGradient>
	<path fill="url(#SVGID_2_)" d="M53.193,29.788c12.109,0.183,22.918,2.51,28.578,3.531c-0.004-0.456-0.008-1.542-0.01-2.069
		c-0.012-5.379-0.021-10.457-1.568-10.457c-0.955,0-1.215,0.403-1.695,1.134c-0.518,0.802-1.23,1.896-3,1.896
		c-2.301,0-3.279-1.348-3.279-4.505c0-0.192-0.07-6.456-0.105-9.755c0-3.706-2.951-6.721-6.576-6.721H50.574
		c0,0-18.183,0.004-18.378,0.006C17.727,2.929,5.645,13.615,2.993,27.645C10.446,42.25,38.981,29.575,53.193,29.788z"/>
</g>
</svg>
