<svg xmlns="http://www.w3.org/2000/svg" width="85" height="66" viewBox="0 0 85 66"><path fill="#FFEA00" d="M32.185 65.418C14.976 65.323.975 50.931.975 33.336c0-17.594 14.001-31.987 31.21-32.084l4.439.008H65.88c4.433 0 8.039 3.684 8.039 8.213 0 0 .107 9.543.107 9.749 0 3.011.92 3.011 1.809 3.011.977 0 1.311-.513 1.772-1.223.523-.804 1.175-1.804 2.921-1.804 3.012 0 3.023 4.76 3.04 11.966l.007 2.264-.006 2.064c-.017 7.207-.028 11.969-3.04 11.969-1.746 0-2.397-1.002-2.921-1.807-.462-.711-.796-1.225-1.772-1.225-.889 0-1.809 0-1.809 3.014 0 .207-.107 9.752-.107 9.752 0 4.523-3.606 8.209-8.039 8.209H36.624l-4.435.006h-.004z"/><path fill="#D6BD05" d="M32.188 1.752l4.436.008h29.257c4.164 0 7.539 3.455 7.539 7.713 0 0 .107 9.543.107 9.749 0 3.113.975 3.511 2.309 3.511 2.566 0 1.824-3.027 4.693-3.027 2.76 0 2.502 5.619 2.547 13.531v.2c-.045 7.91.213 13.533-2.547 13.533-2.869 0-2.127-3.031-4.693-3.031-1.334 0-2.309.4-2.309 3.514 0 .207-.107 9.746-.107 9.746 0 4.262-3.375 7.715-7.539 7.715H36.624l-4.436.006C15.21 64.824 1.475 50.721 1.475 33.336c0-17.387 13.735-31.488 30.713-31.584m.002-1h-.008C14.699.851.475 15.468.475 33.336c0 17.869 14.224 32.485 31.708 32.582l4.442-.006h29.256c4.708 0 8.539-3.909 8.539-8.715.004-.379.107-9.536.107-9.746 0-2.514.549-2.514 1.309-2.514.671 0 .872.256 1.354.997.526.811 1.322 2.034 3.34 2.034 3.511 0 3.522-4.96 3.54-12.467.001-.667.003-1.354.007-2.061V33.235c-.004-.711-.006-1.399-.007-2.066-.018-7.506-.029-12.465-3.54-12.465-2.017 0-2.812 1.222-3.34 2.031-.481.74-.683.996-1.354.996-.76 0-1.309 0-1.309-2.511 0-.209-.104-9.371-.107-9.76 0-4.793-3.831-8.702-8.539-8.702H36.624L32.19.752z"/><linearGradient id="a" gradientUnits="userSpaceOnUse" x1="42.109" y1="64.584" x2="42.109" y2="40.624"><stop offset="0" stop-color="#fff"/><stop offset="1" stop-color="#fff" stop-opacity="0"/></linearGradient><path opacity=".33" fill="url(#a)" d="M50.574 63.928l-18.378-.002c-16.404-.094-29.749-13.817-29.749-30.59 0-16.774 13.345-30.496 29.749-30.589l18.378-.005h14.963c3.625 0 6.576 3.014 6.576 6.721.035 3.298.105 9.562.105 9.754 0 3.158.979 4.505 3.279 4.505 1.77 0 2.482-1.094 3-1.896.48-.73.74-1.134 1.695-1.134 1.547 0 1.557 5.079 1.568 10.458l.01 2.284c-.006.712-.006 1.411-.008 2.087-.014 5.377-.023 10.457-1.57 10.457-.955 0-1.215-.404-1.695-1.135-.518-.801-1.23-1.895-3-1.895-2.301 0-3.279 1.348-3.279 4.508 0 .189-.07 6.453-.105 9.738 0 3.717-2.951 6.732-6.576 6.732H50.574z"/><path opacity=".65" fill="#FFF" d="M32.196 4.149l18.378-.005h14.963c3.625 0 6.576 3.016 6.576 6.723.035 3.297.105 9.562.105 9.752 0 3.158.979 4.505 3.279 4.505 1.77 0 2.482-1.094 3-1.896.48-.73.74-1.133 1.695-1.133 1.547 0 1.557 5.08 1.568 10.457l.006 1.625.004-.743-.01-2.284c-.012-5.379-.021-10.458-1.568-10.458-.955 0-1.215.403-1.695 1.134-.518.802-1.23 1.896-3 1.896-2.301 0-3.279-1.347-3.279-4.505 0-.191-.07-6.456-.105-9.754 0-3.707-2.951-6.721-6.576-6.721H50.574l-18.378.005C15.792 2.84 2.447 16.562 2.447 33.336c0 .236.011.467.017.701.367-16.451 13.557-29.795 29.732-29.888z"/><g opacity=".6"><linearGradient id="b" gradientUnits="userSpaceOnUse" x1="51.077" y1="-16.212" x2="44.145" y2="21.017"><stop offset="0" stop-color="#fff"/><stop offset="1" stop-color="#fff" stop-opacity=".39"/></linearGradient><path fill="url(#b)" d="M53.193 29.788c12.109.183 22.918 2.51 28.578 3.531-.004-.456-.008-1.542-.01-2.069-.012-5.379-.021-10.457-1.568-10.457-.955 0-1.215.403-1.695 1.134-.518.802-1.23 1.896-3 1.896-2.301 0-3.279-1.348-3.279-4.505 0-.192-.07-6.456-.105-9.755 0-3.706-2.951-6.721-6.576-6.721H50.574s-18.183.004-18.378.006C17.727 2.929 5.645 13.615 2.993 27.645c7.453 14.605 35.988 1.93 50.2 2.143z"/></g></svg>