<svg xmlns="http://www.w3.org/2000/svg" width="76" height="66" viewBox="0 0 76 66"><path fill="#FFEA00" d="M9.727 65.152C5.078 65.152 1 61.313 1 56.938c0-.001.014-5.809.014-9.332 0-1.347.13-2.725 1.092-2.725.554 0 1.032.544 1.579 1.36.711 1.062 1.735 1.622 3.13 1.711.081.005.161.008.239.008 1.004 0 1.589-.41 2.378-1.218 1.232-1.264 1.289-3.468 1.352-13.67-.062-10.193-.119-12.396-1.352-13.661-.789-.807-1.373-1.217-2.373-1.217-.079 0-.16.002-.244.008-1.393.086-2.417.645-3.13 1.708-.547.817-1.025 1.361-1.58 1.361-.961 0-1.091-1.378-1.091-2.726C1.014 15.026 1 9.214 1 9.214 1 4.838 5.078 1 9.727 1h47.549c4.433 0 8.039 3.684 8.039 8.213 0 0 .107 9.543.107 9.749 0 3.011.919 3.011 1.809 3.011.977 0 1.311-.513 1.772-1.223.523-.804 1.175-1.804 2.921-1.804 3.012 0 3.023 4.76 3.04 11.966l.007 2.265-.007 2.065c-.017 7.207-.028 11.968-3.04 11.968-1.746 0-2.397-1.002-2.921-1.807-.462-.711-.796-1.225-1.772-1.225-.89 0-1.809 0-1.809 3.014 0 .207-.107 9.752-.107 9.752 0 4.523-3.606 8.209-8.039 8.209H9.727z"/><path fill="#D6BD05" d="M57.275 1.5c4.164 0 7.539 3.455 7.539 7.713 0 0 .107 9.543.107 9.749 0 3.113.975 3.511 2.309 3.511 2.566 0 1.824-3.027 4.693-3.027 2.76 0 2.502 5.619 2.547 13.531v.2c-.045 7.91.213 13.533-2.547 13.533-2.869 0-2.127-3.031-4.693-3.031-1.334 0-2.309.4-2.309 3.514 0 .207-.107 9.746-.107 9.746 0 4.262-3.375 7.715-7.539 7.715H9.727c-4.164 0-8.227-3.453-8.227-7.715 0 0 .014-5.809.014-9.332 0-1.684.255-2.225.592-2.225.364 0 .825.633 1.164 1.139.586.875 1.588 1.809 3.514 1.932.093.006.183.009.271.009 1.242 0 1.945-.56 2.735-1.368 1.385-1.42 1.43-3.541 1.494-14.017-.065-10.477-.11-12.595-1.495-14.015-.789-.807-1.491-1.368-2.731-1.368-.089 0-.18.003-.275.009-1.926.119-2.928 1.055-3.514 1.928-.339.506-.8 1.14-1.165 1.14-.337 0-.591-.542-.591-2.226 0-3.52-.014-9.332-.014-9.332C1.5 4.955 5.562 1.5 9.727 1.5h47.548m0-1H9.727C4.812.5.5 4.571.5 9.213c0 .002.014 5.813.014 9.332 0 .965 0 3.226 1.591 3.226.862 0 1.482-.817 1.995-1.583.396-.589 1.111-1.385 2.745-1.486.074-.004.145-.007.213-.007.833 0 1.294.329 2.016 1.067 1.097 1.124 1.148 3.287 1.209 13.32-.062 10.024-.113 12.187-1.21 13.312-.72.737-1.183 1.066-2.02 1.066-.068 0-.138-.003-.21-.007-1.634-.104-2.349-.9-2.743-1.49-.514-.766-1.133-1.582-1.995-1.582-.305 0-1.05.116-1.378 1.188-.144.469-.213 1.135-.213 2.036 0 3.522-.014 9.33-.014 9.33 0 4.645 4.312 8.717 9.227 8.717h47.549c4.708 0 8.539-3.909 8.539-8.715.004-.379.107-9.536.107-9.746 0-2.514.549-2.514 1.309-2.514.671 0 .872.256 1.354.997.526.811 1.322 2.034 3.34 2.034 3.511 0 3.522-4.96 3.54-12.467.001-.667.003-1.354.007-2.06V32.975c-.004-.711-.006-1.399-.007-2.066-.018-7.506-.029-12.465-3.54-12.465-2.017 0-2.812 1.222-3.34 2.031-.481.74-.683.996-1.354.996-.76 0-1.309 0-1.309-2.511 0-.209-.104-9.371-.107-9.76-.001-4.791-3.832-8.7-8.54-8.7z"/><g opacity=".33"><linearGradient id="a" gradientUnits="userSpaceOnUse" x1="37.987" y1="63.78" x2="37.987" y2="11.422"><stop offset=".127" stop-color="#fff"/><stop offset=".267" stop-color="#fff" stop-opacity=".16"/><stop offset=".539" stop-color="#fff" stop-opacity="0"/></linearGradient><path opacity=".33" fill="url(#a)" d="M9.727 63.66c-3.797 0-7.256-3.203-7.256-6.723 0 0 .014-5.809.014-9.332 0-.182.004-.342.008-.484.973 1.426 2.395 2.207 4.232 2.32.115.006.227.01.334.01 1.66 0 2.6-.82 3.418-1.658 1.699-1.74 1.713-3.975 1.777-14.709-.064-10.75-.078-12.984-1.777-14.725-.819-.838-1.758-1.659-3.418-1.659-.107 0-.219.004-.334.011-1.838.113-3.26.895-4.232 2.32a16.907 16.907 0 0 1-.008-.486c0-3.521-.014-9.332-.014-9.332 0-3.516 3.459-6.719 7.256-6.719h47.549c3.621 0 6.568 3.016 6.568 6.719.035 3.298.107 9.559.109 9.75 0 3.156.977 4.504 3.277 4.504 1.768 0 2.479-1.094 3-1.893.475-.733.738-1.135 1.693-1.135 1.545 0 1.553 5.078 1.568 10.453 0 .676.01 2.284.01 2.284-.008.71-.01 1.41-.01 2.085-.016 5.373-.023 10.453-1.568 10.453-.955 0-1.219-.404-1.693-1.135-.521-.803-1.232-1.895-3-1.895-2.301 0-3.277 1.348-3.277 4.506-.002.188-.074 6.449-.109 9.736 0 3.717-2.947 6.732-6.568 6.732H9.727z"/></g><path opacity=".69" fill="#FFF" d="M9.727 3.898h47.549c3.621 0 6.568 3.014 6.568 6.719.035 3.295.107 9.557.109 9.75 0 3.153.977 4.504 3.277 4.504 1.768 0 2.479-1.096 3-1.895.475-.732.738-1.136 1.693-1.136 1.545 0 1.553 5.077 1.568 10.454l.004 1.623c0-.25 0-.49.006-.742 0 0-.01-1.608-.01-2.284-.016-5.375-.023-10.453-1.568-10.453-.955 0-1.219.401-1.693 1.135-.521.799-1.232 1.893-3 1.893-2.301 0-3.277-1.348-3.277-4.504-.002-.191-.074-6.452-.109-9.75 0-3.703-2.947-6.719-6.568-6.719H9.727c-3.797 0-7.256 3.203-7.256 6.719 0 0 .002.529.002 1.355.033-3.496 3.474-6.669 7.254-6.669zM2.484 49.01c0-.184.004-.344.008-.486.973 1.426 2.395 2.207 4.232 2.32.115.008.227.012.334.012 1.66 0 2.6-.82 3.418-1.66 1.699-1.738 1.713-3.977 1.777-14.711 0-.24-.002-.471-.004-.701-.062 10.129-.111 12.307-1.773 14.01-.818.838-1.758 1.658-3.418 1.658-.107 0-.219-.004-.334-.01-1.838-.113-3.26-.895-4.232-2.32-.004.143-.008.303-.008.484 0 3.523-.014 9.332-.014 9.332l.002.049c.005-1.928.012-5.514.012-7.977z"/><linearGradient id="b" gradientUnits="userSpaceOnUse" x1="41.969" y1=".77" x2="38.39" y2="19.194"><stop offset="0" stop-color="#fff"/><stop offset="1" stop-color="#fff" stop-opacity=".17"/></linearGradient><path fill="url(#b)" fill-opacity=".6" d="M2.492 19.031c.973-1.426 2.395-2.207 4.232-2.32a5.56 5.56 0 0 1 .335-.011c1.66 0 2.6.82 3.418 1.659 1.607 1.645 1.707 6.123 1.768 15.424 18.041 4.051 26.215-1.793 45.277-1.793 11.387 0 8.021.691 15.975 1.906.002-.242.002-.474.006-.72 0 0-.01-1.608-.01-2.284-.016-5.375-.023-10.453-1.568-10.453-.955 0-1.219.401-1.693 1.135-.521.799-1.232 1.893-3 1.893-2.301 0-3.277-1.348-3.277-4.504-.002-.191-.074-6.452-.109-9.75 0-3.703-2.947-6.719-6.568-6.719H9.727c-3.797 0-7.256 3.203-7.256 6.719 0 0 .014 5.811.014 9.332-.001.183.003.344.007.486z"/></svg>