<?xml version="1.0" encoding="utf-8"?>
<!-- Generator: Adobe Illustrator 15.0.0, SVG Export Plug-In . SVG Version: 6.00 Build 0)  -->
<!DOCTYPE svg PUBLIC "-//W3C//DTD SVG 1.1//EN" "http://www.w3.org/Graphics/SVG/1.1/DTD/svg11.dtd">
<svg version="1.1" id="Layer_2" xmlns="http://www.w3.org/2000/svg" xmlns:xlink="http://www.w3.org/1999/xlink" x="0px" y="0px"
	 width="76px" height="66px" viewBox="0 0 76 66" enable-background="new 0 0 76 66" xml:space="preserve">
<g>
	<g>
		<path fill="#FFEA00" d="M9.727,65.152C5.078,65.152,1,61.313,1,56.938c0-0.001,0.014-5.809,0.014-9.332
			c0-1.347,0.13-2.725,1.092-2.725c0.554,0,1.032,0.544,1.579,1.36c0.711,1.062,1.735,1.622,3.13,1.711
			c0.081,0.005,0.161,0.008,0.239,0.008c1.004,0,1.589-0.41,2.378-1.218c1.232-1.264,1.289-3.468,1.352-13.67
			c-0.062-10.193-0.119-12.396-1.352-13.661c-0.789-0.807-1.373-1.217-2.373-1.217c-0.079,0-0.16,0.002-0.244,0.008
			c-1.393,0.086-2.417,0.645-3.13,1.708c-0.547,0.817-1.025,1.361-1.58,1.361c-0.961,0-1.091-1.378-1.091-2.726
			C1.014,15.026,1,9.214,1,9.214C1,4.838,5.078,1,9.727,1h47.549c4.433,0,8.039,3.684,8.039,8.213c0,0,0.107,9.543,0.107,9.749
			c0,3.011,0.919,3.011,1.809,3.011c0.977,0,1.311-0.513,1.772-1.223c0.523-0.804,1.175-1.804,2.921-1.804
			c3.012,0,3.023,4.76,3.04,11.966l0.007,2.265l-0.007,2.065c-0.017,7.207-0.028,11.968-3.04,11.968
			c-1.746,0-2.397-1.002-2.921-1.807c-0.462-0.711-0.796-1.225-1.772-1.225c-0.89,0-1.809,0-1.809,3.014
			c0,0.207-0.107,9.752-0.107,9.752c0,4.523-3.606,8.209-8.039,8.209H9.727z"/>
		<g>
			<path fill="#D6BD05" d="M57.275,1.5c4.164,0,7.539,3.455,7.539,7.713c0,0,0.107,9.543,0.107,9.749
				c0,3.113,0.975,3.511,2.309,3.511c2.566,0,1.824-3.027,4.693-3.027c2.76,0,2.502,5.619,2.547,13.531c0,0.034,0,0.066,0,0.099
				c0,0.034,0,0.066,0,0.101c-0.045,7.91,0.213,13.533-2.547,13.533c-2.869,0-2.127-3.031-4.693-3.031
				c-1.334,0-2.309,0.4-2.309,3.514c0,0.207-0.107,9.746-0.107,9.746c0,4.262-3.375,7.715-7.539,7.715H28.018H9.834H9.727
				c-4.164,0-8.227-3.453-8.227-7.715c0,0,0.014-5.809,0.014-9.332c0-1.684,0.255-2.225,0.592-2.225
				c0.364,0,0.825,0.633,1.164,1.139c0.586,0.875,1.588,1.809,3.514,1.932c0.093,0.006,0.183,0.009,0.271,0.009
				c1.242,0,1.945-0.56,2.735-1.368c1.385-1.42,1.43-3.541,1.494-14.017C11.219,22.6,11.174,20.482,9.789,19.062
				C9,18.255,8.298,17.694,7.058,17.694c-0.089,0-0.18,0.003-0.275,0.009c-1.926,0.119-2.928,1.055-3.514,1.928
				c-0.339,0.506-0.8,1.14-1.165,1.14c-0.337,0-0.591-0.542-0.591-2.226c0-3.52-0.014-9.332-0.014-9.332
				C1.5,4.955,5.562,1.5,9.727,1.5h0.107h18.184H57.275 M57.275,0.5H28.018H9.834H9.727C4.812,0.5,0.5,4.571,0.5,9.213
				c0,0.002,0.014,5.813,0.014,9.332c0,0.965,0,3.226,1.591,3.226c0.862,0,1.482-0.817,1.995-1.583
				c0.396-0.589,1.111-1.385,2.745-1.486c0.074-0.004,0.145-0.007,0.213-0.007c0.833,0,1.294,0.329,2.016,1.067
				c1.097,1.124,1.148,3.287,1.209,13.32c-0.062,10.024-0.113,12.187-1.21,13.312c-0.72,0.737-1.183,1.066-2.02,1.066
				c-0.068,0-0.138-0.003-0.21-0.007c-1.634-0.104-2.349-0.9-2.743-1.49c-0.514-0.766-1.133-1.582-1.995-1.582
				c-0.305,0-1.05,0.116-1.378,1.188c-0.144,0.469-0.213,1.135-0.213,2.036c0,3.522-0.014,9.33-0.014,9.33
				c0,4.645,4.312,8.717,9.227,8.717h0.107h18.184h29.258c4.708,0,8.539-3.909,8.539-8.715c0.004-0.379,0.107-9.536,0.107-9.746
				c0-2.514,0.549-2.514,1.309-2.514c0.671,0,0.872,0.256,1.354,0.997c0.526,0.811,1.322,2.034,3.34,2.034
				c3.511,0,3.522-4.96,3.54-12.467c0.001-0.667,0.003-1.354,0.007-2.06v-0.107v-0.099c-0.004-0.711-0.006-1.399-0.007-2.066
				c-0.018-7.506-0.029-12.465-3.54-12.465c-2.017,0-2.812,1.222-3.34,2.031c-0.481,0.74-0.683,0.996-1.354,0.996
				c-0.76,0-1.309,0-1.309-2.511c0-0.209-0.104-9.371-0.107-9.76C65.814,4.409,61.983,0.5,57.275,0.5L57.275,0.5z"/>
		</g>
	</g>
	<g opacity="0.33">
		<linearGradient id="SVGID_1_" gradientUnits="userSpaceOnUse" x1="37.9868" y1="63.7803" x2="37.9868" y2="11.4217">
			<stop  offset="0.1273" style="stop-color:#FFFFFF"/>
			<stop  offset="0.2667" style="stop-color:#FFFFFF;stop-opacity:0.16"/>
			<stop  offset="0.5394" style="stop-color:#FFFFFF;stop-opacity:0"/>
		</linearGradient>
		<path opacity="0.33" fill="url(#SVGID_1_)" d="M9.727,63.66c-3.797,0-7.256-3.203-7.256-6.723c0,0,0.014-5.809,0.014-9.332
			c0-0.182,0.004-0.342,0.008-0.484c0.973,1.426,2.395,2.207,4.232,2.32c0.115,0.006,0.227,0.01,0.334,0.01
			c1.66,0,2.6-0.82,3.418-1.658c1.699-1.74,1.713-3.975,1.777-14.709c-0.064-10.75-0.078-12.984-1.777-14.725
			C9.658,17.521,8.719,16.7,7.059,16.7c-0.107,0-0.219,0.004-0.334,0.011c-1.838,0.113-3.26,0.895-4.232,2.32
			c-0.004-0.143-0.008-0.304-0.008-0.486c0-3.521-0.014-9.332-0.014-9.332c0-3.516,3.459-6.719,7.256-6.719h47.549
			c3.621,0,6.568,3.016,6.568,6.719c0.035,3.298,0.107,9.559,0.109,9.75c0,3.156,0.977,4.504,3.277,4.504
			c1.768,0,2.479-1.094,3-1.893c0.475-0.733,0.738-1.135,1.693-1.135c1.545,0,1.553,5.078,1.568,10.453
			c0,0.676,0.01,2.284,0.01,2.284c-0.008,0.71-0.01,1.41-0.01,2.085c-0.016,5.373-0.023,10.453-1.568,10.453
			c-0.955,0-1.219-0.404-1.693-1.135c-0.521-0.803-1.232-1.895-3-1.895c-2.301,0-3.277,1.348-3.277,4.506
			c-0.002,0.188-0.074,6.449-0.109,9.736c0,3.717-2.947,6.732-6.568,6.732H9.727z"/>
	</g>
	<g>
		<g>
			<path opacity="0.69" fill="#FFFFFF" d="M9.727,3.898h47.549c3.621,0,6.568,3.014,6.568,6.719c0.035,3.295,0.107,9.557,0.109,9.75
				c0,3.153,0.977,4.504,3.277,4.504c1.768,0,2.479-1.096,3-1.895c0.475-0.732,0.738-1.136,1.693-1.136
				c1.545,0,1.553,5.077,1.568,10.454c0,0.393,0.002,1.1,0.004,1.623c0-0.25,0-0.49,0.006-0.742c0,0-0.01-1.608-0.01-2.284
				c-0.016-5.375-0.023-10.453-1.568-10.453c-0.955,0-1.219,0.401-1.693,1.135c-0.521,0.799-1.232,1.893-3,1.893
				c-2.301,0-3.277-1.348-3.277-4.504c-0.002-0.191-0.074-6.452-0.109-9.75c0-3.703-2.947-6.719-6.568-6.719H9.727
				c-3.797,0-7.256,3.203-7.256,6.719c0,0,0.002,0.529,0.002,1.355C2.506,7.071,5.947,3.898,9.727,3.898z"/>
		</g>
		<g>
			<path opacity="0.69" fill="#FFFFFF" d="M2.484,49.01c0-0.184,0.004-0.344,0.008-0.486c0.973,1.426,2.395,2.207,4.232,2.32
				c0.115,0.008,0.227,0.012,0.334,0.012c1.66,0,2.6-0.82,3.418-1.66c1.699-1.738,1.713-3.977,1.777-14.711
				c0-0.24-0.002-0.471-0.004-0.701c-0.062,10.129-0.111,12.307-1.773,14.01c-0.818,0.838-1.758,1.658-3.418,1.658
				c-0.107,0-0.219-0.004-0.334-0.01c-1.838-0.113-3.26-0.895-4.232-2.32c-0.004,0.143-0.008,0.303-0.008,0.484
				c0,3.523-0.014,9.332-0.014,9.332c0,0.018,0.002,0.033,0.002,0.049C2.477,55.059,2.484,51.473,2.484,49.01z"/>
		</g>
	</g>
	<linearGradient id="SVGID_2_" gradientUnits="userSpaceOnUse" x1="41.9688" y1="0.7705" x2="38.3902" y2="19.1936">
		<stop  offset="0" style="stop-color:#FFFFFF"/>
		<stop  offset="1" style="stop-color:#FFFFFF;stop-opacity:0.17"/>
	</linearGradient>
	<path fill="url(#SVGID_2_)" fill-opacity="0.6" d="M2.492,19.031c0.973-1.426,2.395-2.207,4.232-2.32
		C6.84,16.704,6.951,16.7,7.059,16.7c1.66,0,2.6,0.82,3.418,1.659c1.607,1.645,1.707,6.123,1.768,15.424
		c18.041,4.051,26.215-1.793,45.277-1.793c11.387,0,8.021,0.691,15.975,1.906c0.002-0.242,0.002-0.474,0.006-0.72
		c0,0-0.01-1.608-0.01-2.284c-0.016-5.375-0.023-10.453-1.568-10.453c-0.955,0-1.219,0.401-1.693,1.135
		c-0.521,0.799-1.232,1.893-3,1.893c-2.301,0-3.277-1.348-3.277-4.504c-0.002-0.191-0.074-6.452-0.109-9.75
		c0-3.703-2.947-6.719-6.568-6.719H9.727c-3.797,0-7.256,3.203-7.256,6.719c0,0,0.014,5.811,0.014,9.332
		C2.484,18.728,2.488,18.889,2.492,19.031z"/>
</g>
</svg>
