<svg xmlns="http://www.w3.org/2000/svg" width="79" height="79" viewBox="0 0 79 79"><g fill="#666"><path d="M35.601 70.77a28.94 28.94 0 0 1-4.331-.778 34.5 34.5 0 0 1-2.276-.691 51.257 51.257 0 0 0-1.875-.606l-1.299-.398-.209-.031a32.002 32.002 0 0 1-4.354-2.811l-.055-.043-.062-.033c-.479-.271-.81-.42-1.103-.553-.305-.139-.549-.25-.905-.445-.915-.529-2.032-1.314-3.84-3.348-1.115-1.164-1.74-1.953-2.162-2.521L7.95 46.725c-.396-.925-.676-1.845-.907-2.976-.373-1.895-.478-3.908-.321-6.149.247-2.419.525-4.054.789-5.457.277-1.354.624-2.857 1.491-4.835l.018-.042.015-.043c.212-.635.448-1.271.701-1.896l.405-.795c1.073-2.103 2.1-3.75 3.436-5.51a25.787 25.787 0 0 1 4.644-4.678l.036-.028.033-.031a32.32 32.32 0 0 1 1.416-1.283l.07-.054c3.105-2.294 6.922-4.077 10.746-5.022l.586 1.782C18.462 13.225 9.153 24.864 9.153 38.643c0 16.554 13.44 30.023 29.959 30.023S69.07 55.197 69.07 38.643 55.63 8.617 39.11 8.617c-2.729 0-5.701.459-8.216 1.147l-.374-1.842s.77-.069.877-.235l1.285-.216.118-.021.109-.047c.559-.239 1.34-.325 2.166-.415.664-.072 1.395-.083 2.027-.087l.842-.006.002-.017 1.182.003.222.01c.281.011.568.023.854.031.848.024 1.836.062 2.696.156.916.1 1.634.208 2.162.411l.099.038s.146.023.168.028l2.017.332.096.027c3.836.941 7.668 2.729 10.791 5.033l.092.073c.508.429 1.008.899 1.387 1.259l.033.032.037.029a25.86 25.86 0 0 1 4.666 4.707c1.318 1.736 2.342 3.378 3.412 5.48l.406.797c.25.617.483 1.252.698 1.896l.015.042.018.041c.865 1.977 1.218 3.5 1.502 4.891.257 1.357.531 2.978.787 5.504.148 2.164.041 4.157-.336 6.065-.041.201-.086.4-.133.598l-3.103 9.402c-.125.297-.262.607-.409.937l-.025.057-.033.058a42.68 42.68 0 0 1-1.844 2.955c-.529.746-1.199 1.69-2.672 3.229-1.924 2.16-3.045 2.896-3.945 3.418-.279.149-.53.269-.828.401-.314.144-.635.285-1.098.552l-.062.032-.055.043a32.126 32.126 0 0 1-4.504 2.892l.104.019-.367.207.135-.252-1.219.377c-.687.211-1.179.362-1.908.617a33.04 33.04 0 0 1-2.277.688c-.987.254-2.379.572-4.311.775L39 71.122l-3.399-.352z"/><path d="M49.305 23.146l4.91 4.91-25.513 25.506-4.91-4.911z"/><path d="M54.21 48.659l-4.912 4.91-25.506-25.513 4.911-4.91z"/></g></svg>