<?xml version="1.0" encoding="utf-8"?>
<!-- Generator: Adobe Illustrator 15.0.0, SVG Export Plug-In . SVG Version: 6.00 Build 0)  -->
<!DOCTYPE svg PUBLIC "-//W3C//DTD SVG 1.1//EN" "http://www.w3.org/Graphics/SVG/1.1/DTD/svg11.dtd">
<svg version="1.1" id="Layer_1" xmlns="http://www.w3.org/2000/svg" xmlns:xlink="http://www.w3.org/1999/xlink" x="0px" y="0px"
	 width="79px" height="79px" viewBox="0 0 79 79" enable-background="new 0 0 79 79" xml:space="preserve">
<g>
	<path fill="#666666" d="M39.362,31.526c-3.779,0-6.854,3.074-6.854,6.853c0,3.778,3.074,6.854,6.854,6.854
		c3.781,0,6.854-3.073,6.854-6.854C46.216,34.602,43.141,31.526,39.362,31.526 M36.415,39.244c-1.639,0-2.971-1.331-2.971-2.972
		c0-1.64,1.332-2.971,2.971-2.971c1.641,0,2.97,1.331,2.97,2.971C39.385,37.913,38.056,39.244,36.415,39.244"/>
	<path fill="#666666" d="M27.251,39.64v0.887c0,0-8.983,1.701-7.764,5.436c1.222,3.736,7.264,3.469,7.264,3.469v-3.135l8.312,5.398
		l-8.312,5.332v-3.154c0,0-11.465-0.264-11.465-6.826C15.286,42.719,22.751,40.139,27.251,39.64"/>
	<path fill="#666666" d="M50.251,37.282v-3.12l1.054-0.177c1.092-0.207,2.602-0.615,3.946-1.158v-4.788
		c0-0.11-0.01-0.208-0.017-0.31c-0.728-0.197-1.442-0.291-1.983-0.334v4.069l-9.792-6.36h-17.7c-1.264,0-3.008,0.627-3.008,2.934
		V39.35c1.479-0.431,2.945-0.716,4.223-0.853l1.277-0.14v3.124l-0.881,0.176c-1.295,0.246-3.147,0.775-4.619,1.479v4.6
		c0.879,0.322,1.816,0.457,2.5,0.513V44.18l11.582,7.524l-2.965,1.899h18.375c1.168,0,3.008-0.621,3.008-3.104V36.458
		c-1.28,0.338-2.53,0.567-3.638,0.687L50.251,37.282z M39.362,48.682c-5.681,0-10.303-4.621-10.303-10.301
		c0-5.681,4.621-10.303,10.303-10.303c5.682,0,10.303,4.622,10.303,10.302C49.665,44.061,45.044,48.682,39.362,48.682"/>
	<path fill="#666666" d="M27.37,41.656l0.881-0.176V38.36l-1.277,0.139c-1.277,0.138-2.744,0.422-4.223,0.854v3.786
		C24.224,42.434,26.075,41.902,27.37,41.656"/>
	<path fill="#666666" d="M51.305,33.985l-1.054,0.177v3.12l1.365-0.137c1.104-0.121,2.354-0.349,3.635-0.688v-3.631
		C53.907,33.37,52.396,33.778,51.305,33.985"/>
	<path fill="#666666" d="M51.251,36.001v-0.888c0,0,8.981-1.7,7.763-5.436c-1.222-3.734-7.263-3.467-7.263-3.467v3.134l-8.312-5.399
		l8.312-5.332v3.156c0,0,11.465,0.262,11.465,6.826C63.216,32.923,55.751,35.503,51.251,36.001"/>
	<path fill="#666666" d="M35.602,69.768c-1.928-0.201-3.327-0.521-4.331-0.778c-1-0.267-1.699-0.496-2.277-0.691
		c-0.698-0.241-1.188-0.396-1.867-0.604l-1.307-0.4l-0.21-0.033c-1.52-0.814-2.982-1.76-4.354-2.811l-0.055-0.045l-0.062-0.033
		c-0.477-0.271-0.794-0.414-1.102-0.553c-0.305-0.137-0.549-0.25-0.906-0.445c-0.915-0.531-2.031-1.314-3.84-3.348
		c-1.114-1.166-1.741-1.955-2.162-2.521l-5.18-11.785c-0.395-0.926-0.676-1.844-0.906-2.975c-0.374-1.895-0.479-3.907-0.322-6.148
		c0.247-2.422,0.525-4.056,0.789-5.457c0.276-1.354,0.622-2.857,1.49-4.835l0.018-0.042l0.014-0.043
		c0.213-0.636,0.448-1.271,0.701-1.896l0.406-0.795c1.071-2.102,2.098-3.75,3.435-5.51c1.011-1.3,2.359-2.88,4.643-4.678
		l0.036-0.027l0.033-0.033c0.439-0.416,0.916-0.86,1.416-1.282l0.043-0.035l0.027-0.019c3.106-2.295,6.922-4.079,10.746-5.023
		l0.584,1.782C18.459,12.221,9.15,23.86,9.15,37.637c0,16.554,13.44,30.023,29.96,30.023c16.519,0,29.957-13.469,29.957-30.023
		S55.629,7.615,39.11,7.615c-2.73,0-5.379,0.368-7.896,1.058l-0.963-0.867l-0.156-0.358c0.095-0.081,0.317-0.36,0.427-0.526
		l2.162-0.452L32.8,6.45l0.108-0.047c0.56-0.239,1.341-0.325,2.166-0.415c0.664-0.072,1.396-0.083,2.028-0.087l0.841-0.006
		l0.002-0.018l1.182,0.003l0.222,0.01c0.281,0.011,0.568,0.023,0.854,0.031c0.849,0.024,1.836,0.062,2.697,0.156
		c0.914,0.1,1.633,0.208,2.162,0.411l0.098,0.038c0,0,0.146,0.023,0.168,0.028l0.373,0.181l1.011,0.086l0.132,0.031l0.502,0.034l0,0
		l0.094,0.027c3.836,0.941,7.668,2.729,10.791,5.032l0.095,0.074c0.506,0.428,1.008,0.898,1.386,1.258l0.034,0.033l0.037,0.028
		c2.286,1.799,3.642,3.39,4.666,4.707c1.317,1.735,2.342,3.377,3.411,5.479l0.406,0.799c0.25,0.619,0.484,1.254,0.698,1.896
		l0.015,0.042l0.019,0.041c0.864,1.975,1.217,3.499,1.502,4.891c0.256,1.363,0.53,2.986,0.785,5.506
		c0.149,2.162,0.043,4.156-0.334,6.064c-0.041,0.2-0.086,0.401-0.134,0.598l-3.103,9.402c-0.125,0.299-0.261,0.608-0.409,0.938
		l-0.022,0.055l-0.033,0.057c-0.791,1.367-1.26,2.095-1.849,2.955c-0.528,0.748-1.196,1.693-2.67,3.23
		c-1.926,2.16-3.045,2.896-3.944,3.418c-0.279,0.15-0.531,0.268-0.828,0.402c-0.313,0.143-0.633,0.285-1.101,0.551l-0.062,0.033
		l-0.056,0.043c-1.416,1.088-2.932,2.061-4.502,2.891l0.103,0.02l-0.366,0.207l0.135-0.252l-1.225,0.377
		c-0.684,0.211-1.177,0.363-1.904,0.615c-0.56,0.188-1.246,0.416-2.274,0.688c-0.989,0.256-2.381,0.573-4.312,0.776l-3.396,0.355
		L35.602,69.768z"/>
</g>
</svg>
