<?xml version="1.0" encoding="utf-8"?>
<!-- Generator: Adobe Illustrator 15.0.0, SVG Export Plug-In . SVG Version: 6.00 Build 0)  -->
<!DOCTYPE svg PUBLIC "-//W3C//DTD SVG 1.1//EN" "http://www.w3.org/Graphics/SVG/1.1/DTD/svg11.dtd">
<svg version="1.1" id="Layer_1" xmlns="http://www.w3.org/2000/svg" xmlns:xlink="http://www.w3.org/1999/xlink" x="0px" y="0px"
	 width="79px" height="79px" viewBox="0 0 79 79" enable-background="new 0 0 79 79" xml:space="preserve">
<g>
	<path fill="#FFFFFF" d="M35.601,70.77c-1.927-0.201-3.326-0.521-4.331-0.779c-1-0.266-1.698-0.496-2.276-0.691
		c-0.701-0.244-1.194-0.396-1.875-0.607l-1.299-0.398l-0.209-0.031c-1.52-0.814-2.982-1.76-4.354-2.811l-0.055-0.043l-0.062-0.033
		c-0.479-0.271-0.81-0.42-1.103-0.553c-0.305-0.139-0.549-0.25-0.905-0.445c-0.915-0.529-2.032-1.314-3.84-3.348
		c-1.115-1.164-1.74-1.953-2.162-2.52l-5.18-11.787c-0.396-0.924-0.676-1.844-0.907-2.975C6.67,41.854,6.565,39.841,6.722,37.6
		c0.247-2.419,0.525-4.054,0.789-5.457c0.277-1.354,0.624-2.857,1.491-4.835l0.018-0.042l0.015-0.043
		c0.212-0.635,0.448-1.271,0.701-1.896l0.405-0.795c1.073-2.103,2.1-3.75,3.436-5.51c1.011-1.3,2.359-2.879,4.644-4.678l0.036-0.028
		l0.033-0.031c0.438-0.416,0.912-0.858,1.416-1.283l0.07-0.054c3.105-2.294,6.922-4.077,10.746-5.022l0.586,1.782
		C18.462,13.225,9.153,24.864,9.153,38.643c0,16.554,13.44,30.023,29.959,30.023s29.959-13.469,29.959-30.023
		c0-16.554-13.441-30.026-29.961-30.026c-2.729,0-5.701,0.459-8.216,1.147l-0.374-1.842c0,0,0.77-0.069,0.877-0.235
		c0,0,1.284-0.216,1.285-0.216L32.8,7.45l0.109-0.047c0.559-0.239,1.34-0.325,2.166-0.415c0.664-0.072,1.395-0.083,2.027-0.087
		l0.842-0.006l0.002-0.017l1.182,0.003l0.222,0.01c0.281,0.011,0.568,0.023,0.854,0.031c0.848,0.024,1.836,0.062,2.697,0.156
		c0.916,0.1,1.633,0.208,2.161,0.411l0.099,0.038c0,0,0.146,0.023,0.168,0.028l2.016,0.332l0,0l0.096,0.027
		c3.836,0.941,7.668,2.729,10.791,5.033l0.092,0.073c0.508,0.429,1.008,0.899,1.387,1.259l0.033,0.032l0.037,0.029
		c2.285,1.798,3.642,3.389,4.666,4.707c1.318,1.736,2.342,3.378,3.412,5.48l0.406,0.797c0.25,0.617,0.484,1.252,0.699,1.896
		l0.014,0.042l0.018,0.041c0.865,1.977,1.218,3.5,1.502,4.891c0.257,1.357,0.531,2.978,0.787,5.504
		c0.148,2.164,0.041,4.158-0.336,6.066c-0.041,0.201-0.086,0.4-0.133,0.598l-3.102,9.402c-0.125,0.297-0.262,0.607-0.41,0.936
		l-0.025,0.057l-0.033,0.057c-0.789,1.365-1.258,2.092-1.844,2.955c-0.529,0.746-1.199,1.691-2.672,3.23
		c-1.924,2.16-3.045,2.895-3.945,3.418c-0.279,0.15-0.53,0.268-0.828,0.402c-0.315,0.143-0.635,0.285-1.098,0.551l-0.062,0.033
		l-0.055,0.043c-1.416,1.086-2.933,2.059-4.504,2.891l0.104,0.018l-0.368,0.207l0.135-0.252l-1.219,0.377
		c-0.686,0.211-1.178,0.363-1.908,0.617c-0.559,0.188-1.246,0.416-2.277,0.688c-0.987,0.254-2.379,0.572-4.311,0.775l-3.396,0.355
		L35.601,70.77z"/>
	
		<rect x="35.528" y="20.317" transform="matrix(-0.707 -0.7072 0.7072 -0.707 39.452 93.0524)" fill="#FFFFFF" width="6.945" height="36.075"/>
	
		<rect x="35.528" y="20.317" transform="matrix(0.7072 -0.707 0.707 0.7072 -15.698 38.8059)" fill="#FFFFFF" width="6.945" height="36.076"/>
</g>
</svg>
