<?xml version="1.0" encoding="utf-8"?>
<!-- Generator: Adobe Illustrator 15.0.0, SVG Export Plug-In . SVG Version: 6.00 Build 0)  -->
<!DOCTYPE svg PUBLIC "-//W3C//DTD SVG 1.1//EN" "http://www.w3.org/Graphics/SVG/1.1/DTD/svg11.dtd">
<svg version="1.1" id="Layer_2" xmlns="http://www.w3.org/2000/svg" xmlns:xlink="http://www.w3.org/1999/xlink" x="0px" y="0px"
	 width="79px" height="79px" viewBox="0 0 79 79" enable-background="new 0 0 79 79" xml:space="preserve">
<g>
	<path fill="#666666" d="M51.952,25.896H25.467c-1.264,0-2.971,0.628-2.971,2.935v22.461c0,2.291,1.755,3.104,2.971,3.104h26.485
		c1.168,0,3.044-0.623,3.044-3.104V28.831C54.996,25.914,52.689,25.896,51.952,25.896 M39.07,49.477
		c-5.682,0-10.303-4.623-10.303-10.305c0-5.681,4.621-10.303,10.303-10.303c5.681,0,10.303,4.622,10.303,10.303
		C49.373,44.854,44.751,49.477,39.07,49.477"/>
	<path fill="#666666" d="M52.996,24.845c0-0.964-1.014-1.447-2.371-1.447h-3.993c-1.358,0-3.136,0.483-3.136,1.447v2.834
		c0,0.964,1.777,2.219,3.136,2.219h3.993c1.357,0,2.371-1.255,2.371-2.219V24.845z"/>
	<path fill="#666666" d="M39.07,32.319c-3.779,0-6.853,3.074-6.853,6.853c0,3.779,3.074,6.854,6.853,6.854
		c3.778,0,6.854-3.073,6.854-6.854C45.924,35.394,42.85,32.319,39.07,32.319 M36.124,40.036c-1.64,0-2.97-1.33-2.97-2.971
		c0-1.64,1.33-2.971,2.97-2.971s2.97,1.331,2.97,2.971C39.094,38.706,37.764,40.036,36.124,40.036"/>
	<path fill="#666666" d="M35.594,70.562c-1.931-0.203-3.33-0.523-4.334-0.781c-1.007-0.268-1.703-0.497-2.276-0.691
		c-0.683-0.238-1.161-0.386-1.822-0.591l-1.354-0.416L25.6,68.051c-1.515-0.812-2.979-1.756-4.354-2.811l-0.055-0.043l-0.061-0.034
		c-0.45-0.255-0.753-0.396-1.101-0.552c-0.289-0.131-0.539-0.244-0.904-0.444c-0.916-0.53-2.032-1.313-3.841-3.349
		c-1.11-1.16-1.738-1.951-2.162-2.52L7.94,46.512c-0.396-0.924-0.676-1.844-0.907-2.974c-0.373-1.894-0.479-3.907-0.32-6.148
		c0.247-2.423,0.525-4.057,0.788-5.457c0.278-1.354,0.625-2.859,1.491-4.834l0.018-0.042l0.014-0.043
		c0.213-0.637,0.447-1.272,0.701-1.898l0.404-0.794c1.071-2.102,2.099-3.75,3.435-5.512c1.012-1.3,2.362-2.88,4.644-4.676
		l0.037-0.029l0.034-0.032c0.436-0.414,0.909-0.856,1.414-1.282l0.091-0.076c3.051-2.25,6.817-4.021,10.593-4.97l0.448,1.83
		C18.317,13.182,9.141,24.753,9.141,38.431c0,16.555,13.44,30.023,29.96,30.023c16.519,0,29.958-13.468,29.958-30.023
		c0-16.554-13.438-30.021-29.958-30.021c-2.785,0-6.063,0.552-8.624,1.268l-0.1-1.933c0.014-0.022,1.197-0.295,1.213-0.316
		c0.06-0.083,1.202-0.186,1.202-0.186l0.106-0.046c0.557-0.238,1.333-0.323,2.156-0.414c0.67-0.073,1.374-0.083,2.039-0.088
		l0.844-0.006L37.94,6.67l1.179,0.004l0.19,0.009c0.292,0.013,0.59,0.025,0.888,0.031c0.845,0.024,1.83,0.062,2.695,0.157
		c0.916,0.1,1.635,0.208,2.16,0.41l0.1,0.038c0,0,0.146,0.024,0.168,0.028l2.016,0.333c0.001,0,0.096,0.027,0.096,0.027
		c3.836,0.94,7.67,2.728,10.791,5.033l0.096,0.074c0.518,0.439,1.037,0.929,1.382,1.257l0.034,0.032l0.037,0.029
		c2.283,1.797,3.642,3.388,4.666,4.708c1.318,1.734,2.342,3.375,3.412,5.479l0.403,0.792h0.002c0.252,0.623,0.487,1.259,0.701,1.9
		l0.015,0.043l0.018,0.041c0.869,1.983,1.219,3.503,1.502,4.89c0.257,1.361,0.531,2.982,0.787,5.506
		c0.149,2.163,0.041,4.157-0.334,6.065c-0.043,0.2-0.088,0.4-0.133,0.6l-3.103,9.398c-0.126,0.299-0.263,0.609-0.411,0.938
		l-0.023,0.054l-0.032,0.057c-0.794,1.373-1.263,2.098-1.847,2.955c-0.527,0.746-1.195,1.69-2.672,3.23
		c-1.925,2.162-3.043,2.896-3.945,3.418c-0.287,0.156-0.545,0.275-0.825,0.4c-0.294,0.134-0.625,0.283-1.101,0.553l-0.062,0.033
		l-0.056,0.043c-1.42,1.09-2.936,2.062-4.504,2.891l0.104,0.02l-0.367,0.207l0.133-0.252l-1.291,0.396
		c-0.658,0.205-1.136,0.354-1.838,0.598c-0.562,0.189-1.254,0.418-2.273,0.688c-0.986,0.255-2.377,0.574-4.312,0.775l-3.395,0.355
		L35.594,70.562z"/>
</g>
</svg>
