<svg xmlns="http://www.w3.org/2000/svg" width="79" height="79" viewBox="0 0 79 79"><g fill="#FA0"><path d="M39.362 31.526a6.861 6.861 0 0 0-6.854 6.853 6.862 6.862 0 0 0 6.854 6.854 6.86 6.86 0 0 0 6.854-6.854c0-3.777-3.075-6.853-6.854-6.853m-2.947 7.718a2.973 2.973 0 0 1 0-5.943 2.97 2.97 0 1 1 0 5.943M27.251 39.64v.887s-8.983 1.701-7.764 5.436c1.222 3.736 7.264 3.469 7.264 3.469v-3.135l8.312 5.398-8.312 5.332v-3.154s-11.465-.264-11.465-6.826c0-4.328 7.465-6.908 11.965-7.407"/><path d="M50.251 37.282v-3.12l1.054-.177a22.383 22.383 0 0 0 3.946-1.158v-4.788c0-.11-.01-.208-.017-.31a11.113 11.113 0 0 0-1.983-.334v4.069l-9.792-6.36h-17.7c-1.264 0-3.008.627-3.008 2.934V39.35a24.907 24.907 0 0 1 4.223-.853l1.277-.14v3.124l-.881.176c-1.295.246-3.147.775-4.619 1.479v4.6c.879.322 1.816.457 2.5.513V44.18l11.582 7.524-2.965 1.899h18.375c1.168 0 3.008-.621 3.008-3.104V36.458c-1.28.338-2.53.567-3.638.687l-1.362.137zm-10.889 11.4c-5.681 0-10.303-4.621-10.303-10.301 0-5.681 4.621-10.303 10.303-10.303S49.665 32.7 49.665 38.38c0 5.681-4.621 10.302-10.303 10.302"/><path d="M27.37 41.656l.881-.176v-3.12l-1.277.139a24.935 24.935 0 0 0-4.223.854v3.786c1.473-.705 3.324-1.237 4.619-1.483M51.305 33.985l-1.054.177v3.12l1.365-.137a25.153 25.153 0 0 0 3.635-.688v-3.631a22.332 22.332 0 0 1-3.946 1.159"/><path d="M51.251 36.001v-.888s8.981-1.7 7.763-5.436c-1.222-3.734-7.263-3.467-7.263-3.467v3.134l-8.312-5.399 8.312-5.332v3.156s11.465.262 11.465 6.826c0 4.328-7.465 6.908-11.965 7.406"/><path d="M35.602 69.768a28.89 28.89 0 0 1-4.331-.778c-1-.267-1.699-.496-2.277-.691a50.235 50.235 0 0 0-1.867-.604l-1.307-.4-.21-.033a32.098 32.098 0 0 1-4.354-2.811l-.055-.045-.062-.033c-.477-.271-.794-.414-1.102-.553-.305-.137-.549-.25-.906-.445-.915-.531-2.031-1.314-3.84-3.348-1.114-1.166-1.741-1.955-2.162-2.521l-5.18-11.785c-.395-.926-.676-1.844-.906-2.975-.374-1.895-.479-3.907-.322-6.148a61.06 61.06 0 0 1 .789-5.457c.276-1.354.622-2.857 1.49-4.835l.018-.042.014-.043c.213-.636.448-1.271.701-1.896l.406-.795c1.071-2.102 2.098-3.75 3.435-5.51a25.777 25.777 0 0 1 4.643-4.678l.036-.027.033-.033c.439-.416.916-.86 1.416-1.282l.043-.035.027-.019c3.106-2.295 6.922-4.079 10.746-5.023l.584 1.782C18.459 12.221 9.15 23.86 9.15 37.637c0 16.554 13.44 30.023 29.96 30.023 16.519 0 29.957-13.469 29.957-30.023S55.629 7.615 39.11 7.615c-2.73 0-5.379.368-7.896 1.058l-.963-.867-.156-.358c.095-.081.317-.36.427-.526l2.162-.452.116-.02.108-.047c.56-.239 1.341-.325 2.166-.415.664-.072 1.396-.083 2.028-.087l.841-.006.002-.018 1.182.003.222.01c.281.011.568.023.854.031.849.024 1.836.062 2.697.156.914.1 1.633.208 2.162.411l.098.038s.146.023.168.028l.373.181 1.011.086.132.031.502.034.094.027c3.836.941 7.668 2.729 10.791 5.032l.095.074c.506.428 1.008.898 1.386 1.258l.034.033.037.028a25.89 25.89 0 0 1 4.666 4.707c1.317 1.735 2.342 3.377 3.411 5.479l.406.799c.25.619.484 1.254.698 1.896l.015.042.019.041c.864 1.975 1.217 3.499 1.502 4.891.256 1.363.53 2.986.785 5.506.149 2.162.043 4.156-.334 6.064-.041.2-.086.401-.134.598l-3.103 9.402c-.125.299-.261.608-.409.938l-.022.055-.033.057a40.925 40.925 0 0 1-1.849 2.955c-.528.748-1.196 1.693-2.67 3.23-1.926 2.16-3.045 2.896-3.944 3.418-.279.15-.531.268-.828.402-.313.143-.633.285-1.101.551l-.062.033-.056.043a31.83 31.83 0 0 1-4.502 2.891l.103.02-.366.207.135-.252-1.225.377c-.684.211-1.177.363-1.904.615-.56.188-1.246.416-2.274.688-.989.256-2.381.573-4.312.776l-3.396.355-3.397-.354z"/></g></svg>