<svg xmlns="http://www.w3.org/2000/svg" width="79" height="79" viewBox="0 0 79 79"><g fill="#FA0"><path d="M51.952 25.896H25.467c-1.264 0-2.971.628-2.971 2.935v22.461c0 2.291 1.755 3.104 2.971 3.104h26.485c1.168 0 3.044-.623 3.044-3.104V28.831c0-2.917-2.307-2.935-3.044-2.935M39.07 49.477c-5.682 0-10.303-4.623-10.303-10.305 0-5.681 4.621-10.303 10.303-10.303 5.681 0 10.303 4.622 10.303 10.303 0 5.682-4.622 10.305-10.303 10.305"/><path d="M52.996 24.845c0-.964-1.014-1.447-2.371-1.447h-3.993c-1.358 0-3.136.483-3.136 1.447v2.834c0 .964 1.777 2.219 3.136 2.219h3.993c1.357 0 2.371-1.255 2.371-2.219v-2.834zM39.07 32.319a6.86 6.86 0 0 0-6.853 6.853 6.861 6.861 0 0 0 6.853 6.854 6.862 6.862 0 0 0 6.854-6.854 6.861 6.861 0 0 0-6.854-6.853m-2.946 7.717a2.97 2.97 0 1 1 .001-5.941 2.97 2.97 0 0 1-.001 5.941"/><path d="M35.594 70.562a28.926 28.926 0 0 1-6.61-1.472c-.683-.238-1.161-.386-1.822-.591l-1.354-.416-.208-.032a32.018 32.018 0 0 1-4.354-2.811l-.055-.043-.061-.034c-.45-.255-.753-.396-1.101-.552-.289-.131-.539-.244-.904-.444-.916-.53-2.032-1.313-3.841-3.349-1.11-1.16-1.738-1.951-2.162-2.52L7.94 46.512c-.396-.924-.676-1.844-.907-2.974-.373-1.894-.479-3.907-.32-6.148.247-2.423.525-4.057.788-5.457.278-1.354.625-2.859 1.491-4.834l.018-.042.014-.043a32.29 32.29 0 0 1 .701-1.898l.404-.794c1.071-2.102 2.099-3.75 3.435-5.512a25.826 25.826 0 0 1 4.644-4.676l.037-.029.034-.032a32.41 32.41 0 0 1 1.414-1.282l.091-.076c3.051-2.25 6.817-4.021 10.593-4.97l.448 1.83C18.317 13.182 9.141 24.753 9.141 38.431c0 16.555 13.44 30.023 29.96 30.023 16.519 0 29.958-13.468 29.958-30.023 0-16.554-13.438-30.021-29.958-30.021-2.785 0-6.063.552-8.624 1.268l-.1-1.933c.014-.022 1.197-.295 1.213-.316.06-.083 1.202-.186 1.202-.186l.106-.046c.557-.238 1.333-.323 2.156-.414.67-.073 1.374-.083 2.039-.088l.844-.006.003-.019 1.179.004.19.009c.292.013.59.025.888.031.845.024 1.83.062 2.695.157.916.1 1.635.208 2.16.41l.1.038.168.028 2.016.333.096.027c3.836.94 7.67 2.728 10.791 5.033l.096.074c.518.439 1.037.929 1.382 1.257l.034.032.037.029a25.83 25.83 0 0 1 4.666 4.708c1.318 1.734 2.342 3.375 3.412 5.479l.403.792h.002c.252.623.487 1.259.701 1.9l.015.043.018.041c.869 1.983 1.219 3.503 1.502 4.89a60.82 60.82 0 0 1 .787 5.506c.149 2.163.041 4.157-.334 6.065-.043.2-.088.4-.133.6l-3.103 9.398c-.126.299-.263.609-.411.938l-.023.054-.032.057a41.849 41.849 0 0 1-1.847 2.955c-.527.746-1.195 1.69-2.672 3.23-1.925 2.162-3.043 2.896-3.945 3.418-.287.156-.545.275-.825.4-.294.134-.625.283-1.101.553l-.062.033-.056.043a31.926 31.926 0 0 1-4.504 2.891l.104.02-.367.207.133-.252-1.291.396c-.658.205-1.136.354-1.838.598-.562.189-1.254.418-2.273.688-.986.255-2.377.574-4.312.775l-3.395.355-3.397-.351z"/></g></svg>