<svg xmlns="http://www.w3.org/2000/svg" width="58" height="54" viewBox="0 0 58 54"><path fill="#333" d="M54.373 30a8.774 8.774 0 0 1-.044-.723c-.007-.444-.041-.691-.071-.91l-.025-.192c-.02-.169-.034-.332-.049-.487-.074-.748-.146-1.519-.572-2.146a22.893 22.893 0 0 1-.176-.474c-.151-.417-.308-.846-.504-1.233a1.492 1.492 0 0 0-.185-.492c-.47-.807-1.005-1.385-1.478-1.895-.392-.421-.76-.818-1.086-1.334l-.304-.479-.543-.158a3.622 3.622 0 0 0-.407-.088l-.048-.007a1.956 1.956 0 0 0-.767-.433 2.207 2.207 0 0 0-.572-.075c-.171 0-.322.02-.45.043l-.204-.16-.197.026-1.123-.908c-.107-.088-.312-.407-.422-.579-.016-.022-.028-.045-.043-.066l-.254-.63-.412-.138-.061-.095c-.27-.413-.717-1.104-1.619-1.264l-.927-.163 1.729-.325a25.787 25.787 0 0 1 2.228 2.675l.45-.301c.044.345.193.671.445.94.133.143.623.609 1.313.609l.825-.003.443-.688.441-.694-.516-1.135-.272-.182a2.083 2.083 0 0 0-.487-.375l-.406-.217c-.732-1.116-1.582-2.044-2.346-2.863a43.462 43.462 0 0 1-.757-.82l-.894-1.002 1.896.32-3.352-3.33a2.513 2.513 0 0 0-.517-.387l-.354-.679-.822.131a1.453 1.453 0 0 0-.115-.02l-.012.043-.115.018.039.282-.333 1.323a6.048 6.048 0 0 0-.657-.374l.264-.622a8.808 8.808 0 0 1-.694-.388 10.152 10.152 0 0 0-.854-.471 4.317 4.317 0 0 0-.308-.131l.013-.079-.895-.34-.074-.067-.334-.073-.111-.033a2.64 2.64 0 0 0-.441-.106c-.064-.01-.115-.015-.162-.02l-.145-.048-.229-.154-.204-.063c-1.091-.351-2.16-.495-3.197-.641a45.39 45.39 0 0 0-.862-.108c-.142-.063-.296-.078-.462-.102l-.123.04h-.106c-.083 0-.179-.063-.284-.043-.447-.044-.863-.135-1.236-.135-.084 0-.166-.023-.239-.021l-.045.002.321-.76-2.559.299c-.438.051-.772.165-1.051.36l-.429.298h-.073c-.12 0-.24.063-.377.089-1.781.292-3.586.889-5.249 1.64a1.657 1.657 0 0 0-.693.194 1.873 1.873 0 0 0-.213.115l-.035-.007-.468.23c-1.97.969-3.885 2.494-5.688 4.528-1.508 1.69-2.786 3.571-3.692 5.436-.569 1.162-.954 2.341-1.293 3.381-.104.318-.206.632-.312.938l-.029.086-.019.088c-.445 2.077-.657 3.689-.713 5.395-.038 1.209-.051 2.755.192 3.966a3.223 3.223 0 0 0 .157.549c.012.074.007.152.008.23.002.214.004.479.063.773.13.683.343 1.307.549 1.91.082.238.163.478.237.717a26.322 26.322 0 0 0 1.029 2.785c.179.396.392.734.579 1.035.088.141.177.279.257.422.052.093.092.192.136.295.088.203.198.457.351.707.399.662.879 1.26 1.302 1.785.195.242.388.48.568.724.85 1.132 1.709 2.217 2.865 3.061 1.039 1.024 2.46 2.065 3.771 2.767.799.664 1.704 1.012 2.581 1.35.251.096.506.193.766.305.071.049.187.125.337.194.89.419 1.935.729 3.189.946.488.089.968.154 1.425.218.435.06.845.116 1.196.185l.274.053.275-.047a.453.453 0 0 1 .089-.008c.116 0 .274.028.459.062a5.371 5.371 0 0 0 1.101.118c.383 0 .736-.041 1.047-.075.16-.019.317-.037.438-.048l.075.008c.119.012.24.021.363.021l.125-.004c.541-.029 1.018-.141 1.479-.248.157-.037.318-.074.488-.108.242-.052.498-.085.759-.118.681-.092 1.517-.203 2.358-.579.625-.123 1.979-.452 3.059-1.138 1.4-.506 2.533-1.36 3.63-2.188.256-.191.513-.386.774-.576.097-.07.193-.134.291-.197.332-.217.766-.502 1.138-.957.503-.348.894-.797 1.246-1.2.093-.106.187-.216.28-.319.129-.14.26-.279.392-.42.388-.412.786-.839 1.158-1.318.323-.41.6-.854.866-1.283.205-.328.429-.688.621-.932.554-.236 1.135-.799 1.145-2.125l.385-.125.289-.421c.346-.504.482-1.017.564-1.44.02-.023.037-.049.055-.069.221-.282.551-.707.73-1.396.072-.293.084-.555.096-.765.003-.069.002-.139.013-.2.04-.19.086-.375.132-.557.121-.489.26-1.043.284-1.689A9.469 9.469 0 0 0 54.373 30zM42.335 13.691l.127-.13c.181.159.358.325.538.496l-.665-.366zm-14.213 1.274l-.004-.021c.039-.008.078-.021.117-.033l-.113.054zm15.08 5.704a2.769 2.769 0 0 0-.692.745c-.15.246-.24.494-.312.694a3.638 3.638 0 0 1-.063.173c-.056.107-.104.212-.151.313-.016.032-.03.067-.047.103a1.877 1.877 0 0 0-.256.312l-.332.197-.105.732-.094.028-.252.711c-.062.176-.135.348-.207.521-.224.537-.477 1.146-.556 1.87-.01.076-.04.344-.021.618a2.18 2.18 0 0 1-.03.537l-.144.111-.094.281c-.298.316-.527.724-.582 1.178l-.005.051c-.016.176.001.336.031.475a1.872 1.872 0 0 0-.202.69c-.023.247.014.464.066.64-.012.022-.021.045-.031.065a1.668 1.668 0 0 0-.602.942c-.098.398-.047.802.121 1.156l-.039.059c-.119.18-.254.387-.371.623-.289.304-.448.628-.559.848a.589.589 0 0 0-.029.063 1.933 1.933 0 0 0-.312.267 2.476 2.476 0 0 0-.371.555c-.016.027-.029.058-.037.069a2.421 2.421 0 0 1-.195.22 1.401 1.401 0 0 0-.053.055 2.321 2.321 0 0 0-.874.697 1.771 1.771 0 0 0-.621.357 1.769 1.769 0 0 0-.541.24 1.51 1.51 0 0 0-.408.17 1.825 1.825 0 0 0-.42.328l-.114.039c-.222.078-.519.181-.823.36a7.226 7.226 0 0 0-.764.173c-.277.073-.498.133-.705.133-.047 0-.098-.004-.148-.01l-.35-.046-.312.108-.33-.072-.314.143c-.154.004-.312.02-.469.035-.082.008-.164.021-.26.021l-1.052-.357-.093.142a8.21 8.21 0 0 0-1.055-.179c-.306-.142-.603-.213-.841-.271-.151-.037-.295-.072-.377-.104-.034-.02-.064-.041-.097-.062a2.96 2.96 0 0 0-.684-.343c-.118-.039-.387-.207-.563-.318a8.194 8.194 0 0 0-.542-.32 2.107 2.107 0 0 0-.368-.145 2.908 2.908 0 0 0-.589-.43c-.624-.329-1.257-1.117-1.692-1.659-.177-.214-.358-.363-.492-.474-.048-.043-.102-.082-.149-.133-.054-.058-.151-.258-.223-.404a5.76 5.76 0 0 0-.399-.721 2.368 2.368 0 0 0-.278-.335 4.632 4.632 0 0 1-.073-.174 5.24 5.24 0 0 0-.173-.399c-.071-.15-.147-.303-.224-.453-.22-.438-.428-.854-.448-1.15l-.022-.314-.148-.283c-.249-.471-.423-1.471-.466-2.676l-.016-.437-.026-.039c.006-.086.009-.183.003-.289-.03-.551-.083-1.474.112-1.957l.068-.169.025-.181c.208-1.455.795-2.93 1.7-4.27.794-1.182 1.842-2.276 3.117-3.257a3.06 3.06 0 0 0 .795-.456l.06-.021.457-.124.237-.285c.074-.031.202-.074.301-.107.208-.07.42-.145.623-.235l.244-.109.666.053.303-.559c.199-.055.492-.11.672-.144.226-.043.428-.084.587-.125l-.205.1 4.841.706c.127.033.338.089.594.089.345 0 .673-.101.947-.292l.883-.611.162.128.346-.066c.064.021.131.037.199.05l.165.029.167-.007c.212-.009.412-.058.596-.139l.094.055c.139.085.313.188.508.269.119.052.228.081.324.107.104.118.252.256.459.395l.094.04.438.155h.045c.07 0 .142.145.21.195.477.342.928.709 1.399.956l.157-.287.979.863c.222.194.435.501.659.826.168.241.35.504.562.762l.045.594.502.199c.01.021.02.043.028.064l.076.16-.14.326c-.008.009-.023.019-.035.029z" opacity=".25"/><path fill="#FFF" d="M51.219 27.824c-.02-.234-.042-.473-.044-.722-.006-.444-.041-.692-.071-.911l-.024-.192c-.021-.169-.035-.331-.05-.487-.072-.748-.146-1.518-.571-2.146-.06-.152-.118-.313-.176-.473-.152-.418-.308-.846-.505-1.234a1.448 1.448 0 0 0-.185-.492c-.469-.807-1.005-1.385-1.478-1.895-.391-.421-.76-.818-1.086-1.334l-.303-.477-.543-.159a3.844 3.844 0 0 0-.453-.095 1.989 1.989 0 0 0-.768-.433 2.201 2.201 0 0 0-.572-.075c-.17 0-.322.02-.451.043l-.203-.16-.196.026-1.124-.908c-.107-.087-.312-.407-.424-.579-.014-.021-.028-.045-.043-.066l-.254-.63-.412-.138-.061-.094c-.268-.414-.717-1.105-1.619-1.264l-.926-.164 1.729-.325a25.661 25.661 0 0 1 2.228 2.675l.452-.301c.042.345.193.671.445.94.134.144.623.61 1.312.61l.825-.004.442-.688.443-.693-.516-1.135-.273-.183a2.07 2.07 0 0 0-.486-.374l-.405-.218c-.733-1.116-1.583-2.044-2.349-2.862-.256-.275-.51-.547-.754-.821l-.895-1.002 1.896.32-3.352-3.33a2.438 2.438 0 0 0-.518-.387l-.352-.679-.819.133c-.041-.008-.082-.016-.121-.021l-.009.043-.116.017.039.282-.336 1.321a5.956 5.956 0 0 0-.658-.373l.263-.623a8.21 8.21 0 0 1-.694-.388 9.291 9.291 0 0 0-.853-.47 4.537 4.537 0 0 0-.306-.129l.013-.08-.896-.34-.074-.067-.334-.073-.111-.033a2.744 2.744 0 0 0-.603-.125l-.144-.049-.229-.154-.205-.063c-1.09-.35-2.16-.494-3.196-.641a55.208 55.208 0 0 0-.864-.108c-.142-.062-.296-.077-.461-.101l-.125.039h-.106c-.083 0-.179-.063-.285-.043-.447-.043-.862-.135-1.236-.135-.083 0-.166-.023-.239-.021l-.045.002.321-.76-2.559.299c-.438.051-.771.166-1.051.361l-.427.297h-.073c-.12 0-.24.063-.376.09-1.782.291-3.586.889-5.25 1.639a1.657 1.657 0 0 0-.693.194 1.854 1.854 0 0 0-.212.114l-.035-.007-.468.23c-1.97.97-3.885 2.494-5.688 4.528-1.508 1.69-2.786 3.572-3.692 5.436-.569 1.162-.954 2.342-1.293 3.381-.104.318-.206.633-.312.939l-.029.085-.019.089c-.444 2.077-.657 3.69-.713 5.394-.038 1.209-.05 2.755.192 3.966.034.188.088.348.127.465l.03.084c.012.074.007.152.008.23.002.214.004.48.063.773.13.684.343 1.307.549 1.909.082.24.163.479.237.718a26.24 26.24 0 0 0 1.029 2.785c.179.396.392.735.579 1.034.088.142.177.281.257.423.052.092.092.192.136.295.088.203.198.459.351.709.399.661.879 1.258 1.302 1.782.195.243.388.482.569.724.849 1.133 1.709 2.219 2.865 3.062a17.424 17.424 0 0 0 3.771 2.766c.799.664 1.704 1.013 2.581 1.35.251.097.506.193.766.304.072.049.187.125.337.195.89.419 1.936.729 3.189.946.488.088.968.154 1.425.217.435.062.845.117 1.197.186l.273.055.275-.05a.453.453 0 0 1 .089-.008c.116 0 .275.029.459.063.206.037.438.08.705.102.134.012.267.016.398.016.384 0 .736-.039 1.047-.076.159-.019.317-.035.438-.047l.075.008c.12.012.24.021.364.021l.124-.003c.541-.027 1.018-.14 1.479-.248.157-.036.318-.074.488-.109.243-.051.498-.082.76-.117.68-.092 1.516-.203 2.359-.578.625-.124 1.977-.453 3.057-1.137 1.4-.508 2.533-1.361 3.631-2.189.256-.191.513-.387.775-.576.096-.07.193-.133.29-.197.332-.218.767-.502 1.138-.957.504-.348.895-.797 1.246-1.201.094-.105.188-.215.282-.317.127-.142.258-.278.392-.421.385-.412.785-.839 1.157-1.316.323-.412.601-.855.867-1.285.204-.328.429-.688.619-.933.554-.233 1.136-.798 1.146-2.123l.385-.125.289-.422c.346-.504.482-1.017.564-1.44.02-.023.037-.049.055-.069.219-.282.551-.707.729-1.396.073-.291.085-.553.096-.764.003-.067.002-.14.013-.201.041-.19.086-.374.131-.556.123-.489.261-1.042.285-1.689a10.2 10.2 0 0 0-.051-1.231zM39.182 11.516l.127-.13c.182.159.359.325.539.496l-.666-.366zm-14.214 1.273l-.004-.021c.04-.008.078-.021.117-.033l-.113.054zm15.08 5.705a2.762 2.762 0 0 0-.692.744c-.149.246-.239.494-.312.695-.023.063-.044.129-.064.172-.056.107-.104.213-.151.314l-.048.102a1.885 1.885 0 0 0-.254.313l-.332.196-.106.732-.094.028-.252.711c-.062.176-.134.348-.206.521-.225.537-.477 1.145-.555 1.869-.01.076-.041.344-.022.617.017.183-.003.397-.03.538l-.144.112-.093.281c-.297.316-.526.723-.582 1.177l-.006.052a1.62 1.62 0 0 0 .031.473 1.917 1.917 0 0 0-.201.691c-.023.247.014.464.065.641l-.031.064a1.665 1.665 0 0 0-.601.941c-.098.399-.047.803.121 1.156l-.038.061c-.118.18-.255.387-.372.621-.288.305-.449.629-.559.85a.575.575 0 0 0-.029.062 2.07 2.07 0 0 0-.312.267c-.184.2-.291.403-.371.554-.016.028-.029.059-.037.071-.043.062-.113.133-.194.218l-.054.055a2.325 2.325 0 0 0-.873.697c-.112.04-.246.1-.392.186a1.895 1.895 0 0 0-.229.172 1.85 1.85 0 0 0-.541.239c-.127.033-.27.086-.408.17a1.935 1.935 0 0 0-.42.328c-.038.015-.078.027-.114.041-.222.076-.519.18-.823.359-.288.045-.542.113-.764.172-.278.074-.497.133-.705.133-.047 0-.097-.003-.148-.01l-.35-.045-.314.109-.329-.072-.315.141a8.436 8.436 0 0 0-.469.036c-.082.009-.164.021-.26.021l-1.051-.356-.093.142a8.42 8.42 0 0 0-1.055-.18c-.306-.14-.603-.212-.841-.27-.151-.037-.295-.071-.377-.105l-.097-.06a2.893 2.893 0 0 0-.684-.345c-.118-.039-.386-.207-.563-.317a7.778 7.778 0 0 0-.542-.32 2.388 2.388 0 0 0-.368-.146 2.986 2.986 0 0 0-.589-.43c-.624-.328-1.257-1.117-1.692-1.658-.177-.213-.358-.363-.491-.475-.049-.041-.103-.082-.15-.132-.053-.058-.151-.258-.223-.403a5.698 5.698 0 0 0-.399-.722 2.368 2.368 0 0 0-.278-.335 5.854 5.854 0 0 1-.073-.174 6.112 6.112 0 0 0-.173-.399 19.003 19.003 0 0 0-.223-.454c-.22-.438-.428-.852-.449-1.15l-.022-.313-.147-.278c-.249-.472-.423-1.474-.466-2.679l-.016-.436-.026-.039c.006-.086.009-.183.003-.289-.031-.551-.083-1.474.112-1.957l.068-.169.026-.181c.208-1.455.795-2.93 1.7-4.27.794-1.182 1.842-2.275 3.117-3.257.312-.116.583-.29.795-.456l.059-.021.457-.123.238-.285c.074-.032.202-.075.3-.108.208-.07.42-.144.623-.235l.244-.109.667.053.302-.559c.199-.055.493-.109.672-.144a9.85 9.85 0 0 0 .587-.124l-.205.099 4.842.706c.126.033.337.089.594.089.344 0 .672-.101.947-.292l.882-.611.162.128.347-.065c.063.02.131.036.198.049l.165.029.167-.007c.212-.009.413-.058.595-.139l.094.056c.14.084.313.188.509.268.118.053.228.082.323.107.104.118.252.256.459.395l.095.041.438.154h.045c.069 0 .141.145.209.195.478.342.927.709 1.399.956l.158-.287.979.863c.221.194.435.501.66.826.166.241.35.504.562.763l.045.594.501.198c.01.021.021.043.028.064l.076.16-.14.326-.037.027z"/><path fill="#606060" d="M49.288 31.893c.069-.278.035-.608.095-.901.141-.685.359-1.289.387-2 .023-.627-.088-1.226-.095-1.867-.007-.479-.05-.635-.086-.953-.106-.926-.108-1.689-.448-2.058-.257-.62-.481-1.392-.766-1.899-.044-.079-.061-.264-.079-.293-.743-1.279-1.7-1.869-2.532-3.178-.212-.063-.482-.055-.779-.208-.133-.067-.289-.276-.411-.312-.458-.123-.798.295-1.267-.071-.097.013-.08.11-.127.159-.687.295-1.184.723-1.76.85-.184.428-.574.52-.783.86-.129.21-.205.539-.324.771-.138.268-.227.522-.39.747-.213.068-.178.316-.348.416-.046.322-.177.586-.239.9-.066.045-.093.121-.182.148-.239.676-.604 1.315-.688 2.078a2.02 2.02 0 0 0-.016.3c.048.56-.06 1.429-.388 1.684-.033.096.039.101.006.195-.147.05-.443.301-.473.538-.007.082.158.257.16.445.001.284-.312.481-.331.729-.013.11.128.272.132.398.018.331-.261.913-.418 1.128-.119.173-.283.185-.315.336-.033.136.065.299.28.385.142.294 0 .646-.207.991-.205.348-.474.68-.569 1.004-.418.271-.461.811-.796 1.126-.068.062-.184.103-.248.168-.104.113-.182.328-.301.492-.207.283-.445.467-.615.707-.524.037-.573.496-.895.692-.121.07-.285.064-.418.144-.109.069-.177.205-.305.271-.129.063-.305.052-.426.113-.092.047-.137.139-.217.168-.104.039-.196.006-.297.066-.106.061-.174.219-.285.275-.407.223-.905.265-1.258.596-.792.025-1.41.453-2.357.332-.225.076-.395.128-.638.074-.053.023-.052.096-.137.09-.48-.086-1.008.143-1.505-.026a.214.214 0 0 1-.082.079c-.682-.223-1.526-.432-2.108-.434-.367-.267-.894-.269-1.39-.479-.234-.096-.422-.277-.647-.352-.445-.146-.931-.52-1.322-.729-.118-.062-.271-.065-.388-.127-.21-.116-.363-.336-.588-.457-.882-.465-1.611-1.36-2.145-2.024-.169-.203-.383-.326-.59-.549-.342-.369-.487-.895-.766-1.308-.07-.104-.184-.183-.248-.278-.173-.25-.246-.537-.386-.822-.332-.701-.759-1.394-.813-2.142-.449-.85-.599-2.235-.638-3.322-.168-.244-.024-.48-.037-.733-.044-.778-.097-1.823.219-2.604.247-1.728.946-3.423 1.94-4.895.994-1.479 2.269-2.733 3.677-3.782.295-.041.625-.311.802-.498.083.046.224-.031.344-.064.312-.374.892-.446 1.396-.673.07-.232.436-.198.598-.397.117.078-.091.123.074.137.248-.459 1.508-.564 2.047-.708-.039.004-.054-.048-.005-.06.144.07.189-.109.342-.121 1.011-.131 1.759-.463 2.685-.509.11.058.392.245.513.129-.16-.04-.368-.056-.338-.2.268.08.634.063.837-.019.343.044.499.153.823.114.074.021-.039-.164.121-.125.455.188.727.129 1.125.326.161-.095.67.033.793.16.155-.004-.109-.164.018-.154.393.099.767.191 1.068.43.109-.021.203-.076.352-.029.098.035-.085.109.072.138.164-.007-.041-.174.035-.251.207.047.203-.037.334-.065.222.204.476.147.733.235.267.088.504.289.752.393.212.092.354.057.568.206.176.12.258.312.452.441.113.054 0-.141.146-.038.688.463 1.329.981 1.902 1.28-.841-.485-1.212-1.114-2.009-1.437-.021-.184-.348-.148-.348-.366-.09.032.037.185-.107.071-.045-.043-.045-.086-.131-.129.188-.069.041-.166.043-.297-.604-.38-1.125-.59-1.672-.865-.119-.016.029.117-.099.084-.22-.078-.369-.178-.637-.25-.024-.143-.173-.27-.019-.373.756.34 1.879.67 2.734 1.215.259.164.445.445.699.396-.398-.221-.586-.596-.913-.83-.427-.297-.997-.405-1.423-.668-.119-.077-.147-.149-.262-.205-.091-.046-.281-.039-.382-.09-.108-.057-.087-.118-.186-.156-.203-.072-.392-.05-.61-.14-.363-.155-.691-.396-1.119-.495-.06-.076.016-.191.119-.182.493.175.58.197 1.082.385-.051-.035-.074-.074-.052-.119.149.07.19.127.321.104-.371-.145-.254-.348-.084-.395.922.409 2.078.891 2.738 1.412.111-.006.208-.047.35.014.842.445 1.643 1.152 2.443 1.776-.746-.911-1.799-1.579-2.994-2.198-.029-.051.049-.102-.078-.153-.539-.218-1.127-.542-1.545-.7l-.369-.602c-1.359-.45-2.225-1.265-3.629-1.553.024-.089-.08-.136-.11-.208.127-.051.221-.131.366-.168.232.045.483.047.67.162 1.264.018 2.863.773 4.283 1.33.233-.048.156-.218.094-.39-.641-.413-1.35-.495-2.03-.944-.151-.43.22-.567.821-.348 1.002.342 2.602 1.227 3.142 1.644 2.746 1.449 4.962 3.706 6.836 6.272-.921-1.528-2.137-2.66-3.194-3.844-.041.052-.102.031-.188-.057-1.109-1.096-2.53-2.127-3.771-2.71-.385-.486-1.486-.772-1.927-1.204.271-.25.786-.189 1.375.023-.569-.275-1.056-.629-1.542-.856-.396-.19-1.141-.364-1.326-.501-.045-.035.075-.066-.021-.104.169.063-.311-.089-.348-.092-.242-.035-.205-.002-.471-.093-.345-.117-.336-.12-.537-.257-1.209-.389-2.438-.509-3.688-.698-.13-.021-.396-.036-.417-.041-.118-.03-.011-.081-.169-.104-.089-.012-.054.062-.186.045a11.407 11.407 0 0 0-1.558-.083c-1.242.03-2.722.122-3.721.339-.227.023.047-.137-.256-.074-1.744.283-3.56.835-5.272 1.654-.133.054-.089-.115-.269-.003-.246.099-.12.201-.332.304-.147.035-.288.059-.391.036-1.979.974-3.736 2.495-5.231 4.182-1.401 1.571-2.599 3.317-3.465 5.097-.688 1.404-1.083 2.839-1.532 4.146-.389 1.818-.624 3.4-.681 5.129-.039 1.241-.037 2.621.169 3.648.032.178.132.379.163.586.049.312.001.644.062.955.161.841.497 1.656.746 2.463.281.904.591 1.764.965 2.615.215.479.522.889.776 1.34.168.3.275.654.463.961.52.863 1.219 1.623 1.785 2.382.759 1.011 1.574 2.063 2.638 2.813 1.006 1.012 2.431 2.036 3.648 2.666.849.764 2.011 1.057 3.162 1.553.123.053.189.129.311.186.871.41 1.862.662 2.816.828.955.172 1.872.256 2.643.406.595-.105 1.081.096 1.631.139.592.045 1.138-.07 1.703-.109.186-.014.358.032.547.024.576-.03 1.123-.201 1.742-.328.918-.19 1.971-.176 2.959-.667.832-.145 2.051-.496 2.851-1.053 1.569-.521 2.841-1.645 4.192-2.623.457-.333.955-.561 1.272-1.061.542-.297.972-.877 1.458-1.412.482-.527 1.016-1.06 1.479-1.654.666-.85 1.216-2.057 1.865-2.627.779-.032.192-1.114.627-1.836.295-.369.453-.246.752-.344.242-.353.31-.742.377-1.142.213-.418.605-.664.765-1.277zM31.764 10.349c-.021.03-.013.054.019.072-.14.1-.262-.169-.019-.072zm.105-.023c.349.115.883.197 1.082.412.064.031.012-.184.136-.168.115.133.259.267.503.391-.097.228-.513-.143-.63.048-.178-.104-.265-.159-.396-.089-.353-.244-.498-.136-.762-.329.132-.103-.013-.122.067-.265z"/></svg>