<svg xmlns="http://www.w3.org/2000/svg" width="58" height="54" viewBox="0 0 58 54"><path fill="#333" d="M54.373 30a8.774 8.774 0 0 1-.044-.723c-.007-.444-.041-.691-.071-.91l-.025-.192c-.02-.169-.034-.332-.049-.487-.074-.748-.146-1.519-.572-2.146a22.893 22.893 0 0 1-.176-.474c-.151-.417-.308-.846-.504-1.233a1.492 1.492 0 0 0-.185-.492c-.47-.807-1.005-1.385-1.478-1.895-.392-.421-.76-.818-1.086-1.334l-.304-.479-.543-.158a3.622 3.622 0 0 0-.407-.088l-.048-.007a1.956 1.956 0 0 0-.767-.433 2.207 2.207 0 0 0-.572-.075c-.171 0-.322.02-.45.043l-.204-.16-.197.026-1.123-.908c-.107-.088-.312-.407-.422-.579-.016-.022-.028-.045-.043-.066l-.254-.63-.412-.138-.061-.095c-.27-.413-.717-1.104-1.619-1.264l-.927-.163 1.729-.325a25.787 25.787 0 0 1 2.228 2.675l.45-.301c.044.345.193.671.445.94.133.143.623.609 1.313.609l.825-.003.443-.688.441-.694-.516-1.135-.272-.182a2.083 2.083 0 0 0-.487-.375l-.406-.217c-.732-1.116-1.582-2.044-2.346-2.863a43.462 43.462 0 0 1-.757-.82l-.894-1.002 1.896.32-3.352-3.33a2.513 2.513 0 0 0-.517-.387l-.354-.679-.822.131a1.453 1.453 0 0 0-.115-.02l-.012.043-.115.018.039.282-.333 1.323a6.048 6.048 0 0 0-.657-.374l.264-.622a8.808 8.808 0 0 1-.694-.388 10.152 10.152 0 0 0-.854-.471 4.317 4.317 0 0 0-.308-.131l.013-.079-.895-.34-.074-.067-.334-.073-.111-.033a2.64 2.64 0 0 0-.441-.106c-.064-.01-.115-.015-.162-.02l-.145-.048-.229-.154-.204-.063c-1.091-.351-2.16-.495-3.197-.641a45.39 45.39 0 0 0-.862-.108c-.142-.063-.296-.078-.462-.102l-.123.04h-.106c-.083 0-.179-.063-.284-.043-.447-.044-.863-.135-1.236-.135-.084 0-.166-.023-.239-.021l-.045.002.321-.76-2.559.299c-.438.051-.772.165-1.051.36l-.429.298h-.073c-.12 0-.24.063-.377.089-1.781.292-3.586.889-5.249 1.64a1.657 1.657 0 0 0-.693.194 1.873 1.873 0 0 0-.213.115l-.035-.007-.468.23c-1.97.969-3.885 2.494-5.688 4.528-1.508 1.69-2.786 3.571-3.692 5.436-.569 1.162-.954 2.341-1.293 3.381-.104.318-.206.632-.312.938l-.029.086-.019.088c-.445 2.077-.657 3.689-.713 5.395-.038 1.209-.051 2.755.192 3.966a3.223 3.223 0 0 0 .157.549c.012.074.007.152.008.23.002.214.004.479.063.773.13.683.343 1.307.549 1.91.082.238.163.478.237.717a26.322 26.322 0 0 0 1.029 2.785c.179.396.392.734.579 1.035.088.141.177.279.257.422.052.093.092.192.136.295.088.203.198.457.351.707.399.662.879 1.26 1.302 1.785.195.242.388.48.568.724.85 1.132 1.709 2.217 2.865 3.061 1.039 1.024 2.46 2.065 3.771 2.767.799.664 1.704 1.012 2.581 1.35.251.096.506.193.766.305.071.049.187.125.337.194.89.419 1.935.729 3.189.946.488.089.968.154 1.425.218.435.06.845.116 1.196.185l.274.053.275-.047a.453.453 0 0 1 .089-.008c.116 0 .274.028.459.062a5.371 5.371 0 0 0 1.101.118c.383 0 .736-.041 1.047-.075.16-.019.317-.037.438-.048l.075.008c.119.012.24.021.363.021l.125-.004c.541-.029 1.018-.141 1.479-.248.157-.037.318-.074.488-.108.242-.052.498-.085.759-.118.681-.092 1.517-.203 2.358-.579.625-.123 1.979-.452 3.059-1.138 1.4-.506 2.533-1.36 3.63-2.188.256-.191.513-.386.774-.576.097-.07.193-.134.291-.197.332-.217.766-.502 1.138-.957.503-.348.894-.797 1.246-1.2.093-.106.187-.216.28-.319.129-.14.26-.279.392-.42.388-.412.786-.839 1.158-1.318.323-.41.6-.854.866-1.283.205-.328.429-.688.621-.932.554-.236 1.135-.799 1.145-2.125l.385-.125.289-.421c.346-.504.482-1.017.564-1.44.02-.023.037-.049.055-.069.221-.282.551-.707.73-1.396.072-.293.084-.555.096-.765.003-.069.002-.139.013-.2.04-.19.086-.375.132-.557.121-.489.26-1.043.284-1.689A9.469 9.469 0 0 0 54.373 30zM42.335 13.691l.127-.13c.181.159.358.325.538.496l-.665-.366zm-14.213 1.274l-.004-.021c.039-.008.078-.021.117-.033l-.113.054zm15.08 5.704a2.769 2.769 0 0 0-.692.745c-.15.246-.24.494-.312.694a3.638 3.638 0 0 1-.063.173c-.056.107-.104.212-.151.313-.016.032-.03.067-.047.103a1.877 1.877 0 0 0-.256.312l-.332.197-.105.732-.094.028-.252.711c-.062.176-.135.348-.207.521-.224.537-.477 1.146-.556 1.87-.01.076-.04.344-.021.618a2.18 2.18 0 0 1-.03.537l-.144.111-.094.281c-.298.316-.527.724-.582 1.178l-.005.051c-.016.176.001.336.031.475a1.872 1.872 0 0 0-.202.69c-.023.247.014.464.066.64-.012.022-.021.045-.031.065a1.668 1.668 0 0 0-.602.942c-.098.398-.047.802.121 1.156l-.039.059c-.119.18-.254.387-.371.623-.289.304-.448.628-.559.848a.589.589 0 0 0-.029.063 1.933 1.933 0 0 0-.312.267 2.476 2.476 0 0 0-.371.555c-.016.027-.029.058-.037.069a2.421 2.421 0 0 1-.195.22 1.401 1.401 0 0 0-.053.055 2.321 2.321 0 0 0-.874.697 1.771 1.771 0 0 0-.621.357 1.769 1.769 0 0 0-.541.24 1.51 1.51 0 0 0-.408.17 1.825 1.825 0 0 0-.42.328l-.114.039c-.222.078-.519.181-.823.36a7.226 7.226 0 0 0-.764.173c-.277.073-.498.133-.705.133-.047 0-.098-.004-.148-.01l-.35-.046-.312.108-.33-.072-.314.143c-.154.004-.312.02-.469.035-.082.008-.164.021-.26.021l-1.052-.357-.093.142a8.21 8.21 0 0 0-1.055-.179c-.306-.142-.603-.213-.841-.271-.151-.037-.295-.072-.377-.104-.034-.02-.064-.041-.097-.062a2.96 2.96 0 0 0-.684-.343c-.118-.039-.387-.207-.563-.318a8.194 8.194 0 0 0-.542-.32 2.107 2.107 0 0 0-.368-.145 2.908 2.908 0 0 0-.589-.43c-.624-.329-1.257-1.117-1.692-1.659-.177-.214-.358-.363-.492-.474-.048-.043-.102-.082-.149-.133-.054-.058-.151-.258-.223-.404a5.76 5.76 0 0 0-.399-.721 2.368 2.368 0 0 0-.278-.335 4.632 4.632 0 0 1-.073-.174 5.24 5.24 0 0 0-.173-.399c-.071-.15-.147-.303-.224-.453-.22-.438-.428-.854-.448-1.15l-.022-.314-.148-.283c-.249-.471-.423-1.471-.466-2.676l-.016-.437-.026-.039c.006-.086.009-.183.003-.289-.03-.551-.083-1.474.112-1.957l.068-.169.025-.181c.208-1.455.795-2.93 1.7-4.27.794-1.182 1.842-2.276 3.117-3.257a3.06 3.06 0 0 0 .795-.456l.06-.021.457-.124.237-.285c.074-.031.202-.074.301-.107.208-.07.42-.145.623-.235l.244-.109.666.053.303-.559c.199-.055.492-.11.672-.144.226-.043.428-.084.587-.125l-.205.1 4.841.706c.127.033.338.089.594.089.345 0 .673-.101.947-.292l.883-.611.162.128.346-.066c.064.021.131.037.199.05l.165.029.167-.007c.212-.009.412-.058.596-.139l.094.055c.139.085.313.188.508.269.119.052.228.081.324.107.104.118.252.256.459.395l.094.04.438.155h.045c.07 0 .142.145.21.195.477.342.928.709 1.399.956l.157-.287.979.863c.222.194.435.501.659.826.168.241.35.504.562.762l.045.594.502.199c.01.021.02.043.028.064l.076.16-.14.326c-.008.009-.023.019-.035.029z" opacity=".25"/><path fill="#FFF" d="M51.018 27.723c-.021-.235-.043-.473-.045-.722-.007-.445-.041-.692-.07-.911l-.025-.192c-.02-.169-.035-.332-.05-.487-.072-.748-.146-1.519-.571-2.146-.061-.153-.117-.313-.176-.474-.152-.417-.309-.846-.504-1.233a1.475 1.475 0 0 0-.186-.492c-.469-.807-1.004-1.385-1.478-1.895-.392-.421-.759-.818-1.086-1.334l-.304-.478-.543-.159a3.652 3.652 0 0 0-.406-.088l-.049-.007a1.948 1.948 0 0 0-.767-.433 2.2 2.2 0 0 0-.571-.075c-.172 0-.322.02-.451.043l-.203-.16-.196.026-1.123-.908c-.108-.088-.313-.407-.424-.579-.015-.022-.028-.045-.043-.066l-.253-.63-.413-.138c-.021-.031-.04-.063-.06-.095-.27-.413-.717-1.104-1.619-1.264l-.928-.163 1.729-.325a25.537 25.537 0 0 1 2.228 2.675l.451-.301c.043.345.193.671.445.94.134.143.623.609 1.312.609l.825-.003.443-.688.442-.694-.517-1.135-.272-.182a2.073 2.073 0 0 0-.486-.375l-.405-.217c-.733-1.116-1.583-2.044-2.348-2.863a51.364 51.364 0 0 1-.757-.82l-.894-1.002 1.896.32-3.352-3.33c-.18-.179-.367-.3-.517-.387l-.353-.679-.82.134a1.356 1.356 0 0 0-.119-.021l-.012.043-.111.018.038.282-.336 1.321a6.131 6.131 0 0 0-.656-.374l.263-.622c-.229-.11-.454-.245-.694-.388a9.683 9.683 0 0 0-.853-.471 4.317 4.317 0 0 0-.308-.131l.014-.079-.895-.34-.076-.067-.332-.073-.112-.033a2.679 2.679 0 0 0-.44-.106c-.064-.01-.115-.015-.162-.02l-.145-.048-.229-.154-.205-.063c-1.092-.351-2.161-.495-3.197-.641-.24-.034-.803-.102-.863-.108-.142-.063-.296-.078-.461-.102l-.124.04h-.106c-.083 0-.179-.063-.284-.043-.447-.044-.862-.135-1.236-.135-.084 0-.166-.023-.239-.021l-.045.002.321-.76-2.559.299c-.438.051-.771.165-1.051.36l-.427.298h-.073c-.12 0-.24.063-.377.089-1.781.292-3.586.889-5.249 1.64a1.657 1.657 0 0 0-.693.194 1.71 1.71 0 0 0-.212.114l-.035-.007-.468.23c-1.97.969-3.885 2.494-5.688 4.528-1.508 1.69-2.786 3.571-3.692 5.436-.569 1.162-.954 2.341-1.293 3.381-.104.318-.206.632-.312.938l-.031.087-.019.088c-.444 2.077-.657 3.689-.713 5.395-.038 1.209-.051 2.755.192 3.966.034.188.088.348.127.465l.03.083c.012.075.007.152.008.23.002.215.004.479.063.773.13.684.343 1.307.549 1.91.082.238.163.479.237.717a26.24 26.24 0 0 0 1.029 2.785c.179.396.392.734.579 1.035.088.141.177.279.257.422.052.093.092.193.136.295.088.204.198.458.351.708.399.662.879 1.259 1.302 1.784.195.242.388.48.568.724.85 1.132 1.709 2.218 2.865 3.062 1.039 1.023 2.46 2.064 3.771 2.766.799.664 1.704 1.012 2.581 1.35.251.096.506.193.766.305.071.049.187.125.337.195.89.418 1.936.729 3.189.945.488.089.968.155 1.425.219.435.06.845.115 1.196.185l.273.053.275-.048a.453.453 0 0 1 .089-.008c.116 0 .274.029.459.062.205.038.438.081.705.102.134.011.267.016.397.016.384 0 .736-.04 1.047-.075.159-.019.317-.036.438-.047l.075.007c.12.012.24.021.364.021l.124-.004c.541-.028 1.018-.141 1.479-.248.157-.036.318-.074.488-.108.243-.051.498-.084.76-.118.68-.092 1.516-.203 2.358-.578.625-.123 1.978-.453 3.058-1.138 1.4-.507 2.533-1.36 3.631-2.188.256-.191.513-.385.774-.576.097-.069.193-.133.29-.196.332-.218.766-.502 1.139-.958.502-.348.894-.796 1.246-1.2a29 29 0 0 1 .28-.319c.128-.14.259-.278.392-.42.387-.412.785-.838 1.157-1.317.323-.411.601-.854.867-1.284.204-.328.429-.688.619-.932.554-.235 1.136-.799 1.146-2.125l.385-.125.289-.42c.346-.504.482-1.018.564-1.441.02-.023.037-.048.055-.068.219-.283.551-.707.729-1.396.073-.292.085-.555.096-.764.003-.069.003-.14.013-.201.041-.19.086-.375.131-.557.123-.488.262-1.043.285-1.688.02-.451-.015-.866-.045-1.231zM38.979 11.414l.127-.13c.182.159.359.325.539.496l-.666-.366zm-14.213 1.274l-.004-.021c.039-.008.078-.021.117-.033l-.113.054zm15.08 5.704c-.184.147-.462.369-.691.745-.149.246-.24.494-.313.694-.022.064-.044.129-.063.173a8.023 8.023 0 0 0-.151.314l-.047.102a1.872 1.872 0 0 0-.255.312l-.332.197-.105.732-.095.028-.255.711c-.062.176-.135.348-.206.521-.224.537-.478 1.146-.556 1.87-.01.076-.041.344-.021.617.016.183-.004.397-.029.538l-.145.111-.094.281c-.297.316-.525.724-.581 1.178l-.005.051c-.016.177 0 .336.031.475a1.89 1.89 0 0 0-.203.691c-.022.246.015.463.066.64l-.031.065a1.67 1.67 0 0 0-.602.941c-.098.398-.047.803.121 1.156l-.038.059c-.118.18-.254.387-.372.623-.287.305-.448.628-.559.848-.01.021-.021.043-.029.063a2.032 2.032 0 0 0-.312.267c-.184.201-.291.404-.371.555-.016.027-.029.058-.037.07-.045.062-.113.133-.194.219l-.054.055a2.308 2.308 0 0 0-.873.697c-.112.04-.245.099-.393.186a1.87 1.87 0 0 0-.229.172 1.664 1.664 0 0 0-.381.146c-.06.028-.111.062-.16.093-.127.033-.27.086-.408.17a1.876 1.876 0 0 0-.42.328l-.114.04a4.41 4.41 0 0 0-.823.36c-.287.045-.542.113-.764.172-.277.074-.497.133-.705.133-.047 0-.097-.003-.148-.01l-.35-.045-.313.107-.329-.072-.315.143a6.87 6.87 0 0 0-.469.036c-.082.008-.164.02-.26.021l-1.052-.357-.093.142a8.21 8.21 0 0 0-1.055-.179 4.379 4.379 0 0 0-.841-.27c-.151-.037-.295-.072-.377-.105-.034-.02-.064-.04-.097-.061a2.956 2.956 0 0 0-.684-.344c-.118-.039-.387-.207-.563-.318-.18-.112-.354-.221-.542-.32a2.19 2.19 0 0 0-.368-.145 2.946 2.946 0 0 0-.589-.43c-.624-.329-1.257-1.117-1.692-1.659-.177-.213-.358-.362-.491-.474-.049-.042-.103-.082-.149-.133-.054-.058-.151-.258-.223-.403a5.84 5.84 0 0 0-.399-.722 2.353 2.353 0 0 0-.278-.334 4.632 4.632 0 0 1-.073-.174 5.072 5.072 0 0 0-.173-.399 14.672 14.672 0 0 0-.224-.454c-.22-.438-.428-.854-.448-1.15l-.022-.314-.147-.279c-.249-.471-.423-1.472-.466-2.677l-.016-.436-.026-.039c.006-.086.009-.183.003-.289-.03-.551-.083-1.474.112-1.957l.068-.169.025-.181c.208-1.455.795-2.93 1.7-4.27.794-1.182 1.842-2.276 3.117-3.257a3.06 3.06 0 0 0 .795-.456l.06-.021.457-.124.237-.285c.074-.031.202-.074.301-.107.208-.07.42-.145.623-.235l.244-.109.666.053.303-.559c.199-.055.492-.11.672-.144a9.77 9.77 0 0 0 .587-.125l-.205.1 4.842.706c.126.033.337.089.593.089.346 0 .674-.101.948-.292l.882-.611.162.128.346-.066c.064.021.131.037.199.05l.166.029.166-.007c.213-.009.413-.058.596-.139l.094.055c.14.085.314.188.509.269.119.052.228.081.323.107.104.118.253.256.46.395l.094.04.438.155h.045c.07 0 .141.145.209.195.478.342.928.709 1.4.956l.157-.287.979.863c.221.194.434.501.658.826.168.241.351.504.563.762l.045.594.501.199.029.064c.023.052.05.105.076.16l-.141.326a.18.18 0 0 0-.034.024z"/><path fill="#F9A737" d="M49.086 31.791c.07-.279.034-.609.096-.902.141-.685.357-1.289.385-2 .024-.627-.086-1.225-.094-1.867-.007-.479-.05-.635-.086-.953-.107-.927-.107-1.689-.449-2.058-.256-.62-.48-1.392-.766-1.899-.045-.079-.061-.264-.079-.294-.741-1.278-1.7-1.868-2.532-3.178-.211-.062-.482-.054-.777-.207-.133-.068-.289-.276-.412-.312-.458-.123-.797.294-1.266-.071-.098.013-.082.109-.129.159-.686.294-1.183.723-1.759.85-.184.428-.575.52-.784.86-.127.209-.205.539-.322.771-.139.268-.228.521-.391.747-.213.068-.178.315-.348.416-.046.322-.176.586-.238.899-.066.045-.093.121-.182.148-.239.676-.604 1.316-.688 2.078-.01.069-.021.216-.017.301.048.56-.06 1.428-.388 1.684-.032.096.039.1.007.195-.147.05-.443.3-.474.537-.006.082.158.256.16.445.002.285-.312.482-.33.729-.014.111.127.273.131.4.018.33-.262.912-.418 1.127-.119.174-.283.185-.315.336-.033.137.065.299.28.385.142.293 0 .646-.207.992-.205.347-.473.679-.569 1.004-.419.271-.461.809-.796 1.126-.068.062-.186.102-.248.168-.104.112-.182.327-.301.491-.206.283-.445.467-.615.707-.523.037-.573.496-.895.692-.121.07-.285.063-.418.144-.108.069-.177.205-.306.271-.129.064-.305.051-.426.114-.093.047-.138.138-.216.168-.104.039-.197.005-.299.065-.105.061-.172.22-.284.276-.407.222-.905.265-1.257.595-.792.025-1.411.454-2.358.332-.225.077-.395.129-.638.074-.054.023-.052.096-.138.089-.479-.085-1.008.144-1.505-.024a.21.21 0 0 1-.081.078c-.683-.223-1.526-.431-2.108-.433-.367-.268-.894-.269-1.391-.479-.233-.096-.422-.276-.646-.352-.445-.145-.931-.519-1.322-.729-.118-.062-.271-.065-.388-.127-.21-.115-.363-.336-.588-.456-.882-.466-1.611-1.361-2.146-2.025-.169-.204-.383-.325-.59-.548-.342-.371-.486-.895-.766-1.309-.07-.104-.184-.182-.248-.278-.174-.25-.246-.537-.387-.823-.331-.699-.759-1.392-.813-2.14-.448-.851-.599-2.235-.638-3.323-.168-.244-.024-.48-.037-.732-.044-.779-.097-1.823.219-2.604.246-1.728.946-3.424 1.939-4.895.994-1.479 2.269-2.733 3.678-3.783.295-.04.625-.31.802-.498.083.047.224-.031.345-.063.312-.374.892-.446 1.396-.673.07-.232.437-.199.598-.397.117.078-.091.123.074.136.247-.458 1.508-.563 2.047-.707-.039.004-.054-.048-.006-.061.145.071.189-.108.343-.12 1.011-.131 1.759-.463 2.685-.509.11.058.392.245.513.129-.16-.041-.368-.056-.339-.2.269.079.634.063.837-.019.343.044.499.153.823.114.073.019-.039-.164.119-.125.456.187.728.129 1.125.326.162-.095.672.032.793.16.156-.005-.107-.165.02-.154.393.099.768.191 1.068.429.109-.021.203-.075.352-.029.098.036-.085.109.073.139.163-.007-.041-.174.034-.252.207.047.203-.036.334-.064.223.204.476.147.733.234.267.089.505.29.753.394.211.092.354.056.567.206.176.119.258.312.452.441.113.054 0-.141.146-.039.688.464 1.329.982 1.902 1.281-.841-.486-1.212-1.115-2.009-1.438-.021-.183-.348-.147-.348-.365-.09.032.036.185-.107.07-.045-.043-.045-.085-.131-.128.188-.069.041-.166.043-.297-.604-.38-1.125-.59-1.672-.865-.119-.016.029.116-.099.084-.22-.079-.368-.178-.637-.25-.024-.144-.173-.27-.019-.373.756.34 1.879.669 2.734 1.215.26.164.445.445.7.396-.399-.221-.587-.597-.914-.83-.427-.298-.997-.405-1.422-.669-.119-.076-.148-.148-.263-.205-.09-.045-.281-.038-.381-.089-.109-.057-.089-.118-.187-.156-.203-.072-.392-.05-.61-.14-.352-.152-.68-.392-1.108-.492-.061-.076.015-.191.117-.182.493.175.58.197 1.082.385-.051-.035-.074-.074-.052-.12.149.071.19.128.322.104-.372-.145-.255-.348-.085-.395.923.409 2.078.891 2.738 1.412.111-.006.209-.048.351.014.841.445 1.642 1.151 2.442 1.776-.746-.911-1.799-1.579-2.994-2.199-.029-.051.049-.101-.077-.152-.54-.219-1.128-.542-1.546-.7l-.371-.603c-1.36-.45-2.226-1.265-3.63-1.553.024-.089-.08-.137-.11-.208.127-.051.222-.131.367-.168.231.045.483.047.67.162 1.263.018 2.862.773 4.282 1.33.234-.048.156-.218.096-.39-.641-.414-1.352-.495-2.031-.945-.15-.43.221-.566.822-.348 1.003.343 2.602 1.228 3.143 1.645 2.745 1.449 4.961 3.705 6.836 6.272-.922-1.528-2.138-2.66-3.193-3.845-.041.053-.102.032-.188-.056-1.111-1.097-2.531-2.127-3.771-2.71-.387-.486-1.487-.773-1.928-1.204.271-.25.787-.19 1.375.022-.568-.274-1.057-.628-1.541-.855-.396-.188-1.141-.362-1.328-.5-.043-.035.076-.066-.021-.104.169.064-.31-.088-.348-.091-.241-.035-.205-.002-.47-.093-.347-.117-.338-.121-.539-.258-1.207-.389-2.438-.508-3.687-.697-.128-.02-.395-.036-.415-.04-.118-.03-.012-.082-.169-.104-.089-.013-.054.062-.186.045a11.421 11.421 0 0 0-1.559-.083c-1.242.029-2.722.122-3.721.339-.228.023.047-.138-.256-.074-1.744.283-3.56.835-5.272 1.653-.133.055-.089-.114-.269-.002-.246.098-.12.201-.332.303-.147.035-.288.059-.391.037-1.979.974-3.736 2.495-5.231 4.182-1.401 1.57-2.599 3.316-3.465 5.097-.688 1.404-1.083 2.839-1.532 4.146-.389 1.817-.624 3.4-.681 5.128-.039 1.242-.037 2.621.169 3.649.032.178.132.379.163.586.049.312.001.645.062.954.161.843.496 1.657.746 2.464.281.905.591 1.765.965 2.615.215.479.522.889.776 1.34.168.301.274.654.463.961.52.863 1.219 1.623 1.785 2.383.759 1.011 1.574 2.062 2.638 2.812 1.007 1.014 2.432 2.037 3.648 2.665.849.765 2.011 1.058 3.161 1.554.123.053.189.129.312.187.871.409 1.862.661 2.816.827.954.173 1.872.257 2.643.406.595-.105 1.081.096 1.631.139.592.046 1.138-.07 1.703-.108.186-.015.358.032.547.024.577-.031 1.123-.201 1.742-.328.918-.19 1.971-.176 2.96-.668.831-.145 2.05-.496 2.851-1.053 1.568-.521 2.84-1.644 4.192-2.623.457-.332.954-.562 1.272-1.062.541-.295.971-.876 1.457-1.411.481-.527 1.017-1.06 1.479-1.654.667-.85 1.216-2.056 1.865-2.627.779-.031.193-1.113.628-1.836.296-.369.452-.246.753-.344.24-.352.309-.742.376-1.141.206-.424.598-.67.758-1.283zM31.561 10.247c-.021.029-.012.053.02.072-.142.101-.263-.169-.02-.072zm.106-.022c.349.115.883.196 1.082.411.065.031.013-.183.136-.167.114.133.26.267.504.391-.098.228-.515-.144-.631.048-.178-.104-.265-.159-.396-.09-.353-.244-.496-.135-.76-.328.128-.104-.015-.123.065-.265z"/></svg>