<?xml version="1.0" encoding="utf-8"?>
<!-- Generator: Adobe Illustrator 15.0.0, SVG Export Plug-In . SVG Version: 6.00 Build 0)  -->
<!DOCTYPE svg PUBLIC "-//W3C//DTD SVG 1.1//EN" "http://www.w3.org/Graphics/SVG/1.1/DTD/svg11.dtd">
<svg version="1.1" id="Layer_1" xmlns="http://www.w3.org/2000/svg" xmlns:xlink="http://www.w3.org/1999/xlink" x="0px" y="0px"
	 width="58px" height="54px" viewBox="0 0 58 54" enable-background="new 0 0 58 54" xml:space="preserve">
<g id="unpress_states">
	<g id="Buttons_copy">
	</g>
	<g id="Buttons_on">
	</g>
	<g id="Buttons">
	</g>
	<g id="DrawingToolsButtonsDefault">
	</g>
	<g id="DrawingsShapesStrokesDefault">
		<g>
			<g opacity="0.25">
				<g>
					<path fill="#333333" d="M54.373,30c-0.021-0.234-0.042-0.473-0.044-0.723c-0.007-0.444-0.041-0.691-0.071-0.91l-0.025-0.192
						c-0.02-0.169-0.034-0.332-0.049-0.487c-0.074-0.748-0.146-1.519-0.572-2.146c-0.059-0.153-0.118-0.313-0.176-0.474
						c-0.151-0.417-0.308-0.846-0.504-1.233c-0.027-0.131-0.076-0.318-0.185-0.492c-0.47-0.807-1.005-1.385-1.478-1.895
						c-0.392-0.421-0.76-0.818-1.086-1.334l-0.304-0.479l-0.543-0.158c-0.125-0.037-0.262-0.063-0.407-0.088
						c-0.016-0.002-0.031-0.005-0.048-0.007c-0.155-0.138-0.405-0.329-0.767-0.433c-0.186-0.05-0.379-0.075-0.572-0.075
						c-0.171,0-0.322,0.02-0.45,0.043l-0.204-0.16l-0.197,0.026l-1.123-0.908c-0.107-0.088-0.312-0.407-0.422-0.579
						c-0.016-0.022-0.028-0.045-0.043-0.066l-0.254-0.63l-0.412-0.138c-0.021-0.031-0.041-0.063-0.061-0.095
						c-0.27-0.413-0.717-1.104-1.619-1.264l-0.927-0.163l1.729-0.325c0.756,0.784,1.496,1.675,2.228,2.675l0.45-0.301
						c0.044,0.345,0.193,0.671,0.445,0.94c0.133,0.143,0.623,0.609,1.313,0.609l0.825-0.003l0.443-0.688l0.441-0.694l-0.516-1.135
						l-0.272-0.182c-0.095-0.095-0.257-0.251-0.487-0.375l-0.406-0.217c-0.732-1.116-1.582-2.044-2.346-2.863
						c-0.258-0.274-0.512-0.546-0.757-0.82l-0.894-1.002l1.896,0.32l-3.352-3.33c-0.181-0.179-0.367-0.3-0.517-0.387l-0.354-0.679
						l-0.822,0.131C40.84,6.606,40.8,6.599,40.762,6.594L40.75,6.637l-0.115,0.018l0.039,0.282L40.341,8.26
						c-0.215-0.143-0.438-0.265-0.657-0.374l0.264-0.622c-0.229-0.11-0.455-0.245-0.694-0.388C38.98,6.713,38.697,6.545,38.4,6.405
						c-0.099-0.047-0.201-0.09-0.308-0.131l0.013-0.079l-0.895-0.34l-0.074-0.067l-0.334-0.073l-0.111-0.033
						c-0.188-0.056-0.305-0.089-0.441-0.106c-0.064-0.01-0.115-0.015-0.162-0.02c0,0-0.111-0.036-0.145-0.048l-0.229-0.154
						L35.51,5.291c-1.091-0.351-2.16-0.495-3.197-0.641c-0.239-0.034-0.803-0.102-0.862-0.108c-0.142-0.063-0.296-0.078-0.462-0.102
						l-0.123,0.04h-0.106c-0.083,0-0.179-0.063-0.284-0.043c-0.447-0.044-0.863-0.135-1.236-0.135c-0.084,0-0.166-0.023-0.239-0.021
						c-0.015,0.001-0.03,0.002-0.045,0.002l0.321-0.76l-2.559,0.299c-0.438,0.051-0.772,0.165-1.051,0.36L25.238,4.48h-0.073
						c-0.12,0-0.24,0.063-0.377,0.089c-1.781,0.292-3.586,0.889-5.249,1.64c-0.238,0.012-0.471,0.077-0.693,0.194
						C18.77,6.438,18.7,6.476,18.633,6.518l-0.035-0.007l-0.468,0.23c-1.97,0.969-3.885,2.494-5.688,4.528
						c-1.508,1.69-2.786,3.571-3.692,5.436c-0.569,1.162-0.954,2.341-1.293,3.381c-0.104,0.318-0.206,0.632-0.312,0.938L7.116,21.11
						l-0.019,0.088c-0.445,2.077-0.657,3.689-0.713,5.395c-0.038,1.209-0.051,2.755,0.192,3.966
						c0.034,0.188,0.088,0.349,0.127,0.465c0.012,0.035,0.025,0.071,0.03,0.084c0.012,0.074,0.007,0.152,0.008,0.23
						c0.002,0.214,0.004,0.479,0.063,0.773c0.13,0.683,0.343,1.307,0.549,1.91c0.082,0.238,0.163,0.478,0.237,0.717
						c0.318,1.021,0.653,1.929,1.029,2.785c0.179,0.396,0.392,0.734,0.579,1.035c0.088,0.141,0.177,0.279,0.257,0.422
						c0.052,0.093,0.092,0.192,0.136,0.295c0.088,0.203,0.198,0.457,0.351,0.707c0.399,0.662,0.879,1.26,1.302,1.785
						c0.195,0.242,0.388,0.48,0.568,0.724c0.85,1.132,1.709,2.217,2.865,3.061c1.039,1.024,2.46,2.065,3.771,2.767
						c0.799,0.664,1.704,1.012,2.581,1.35c0.251,0.096,0.506,0.193,0.766,0.305c0.071,0.049,0.187,0.125,0.337,0.194
						c0.89,0.419,1.935,0.729,3.189,0.946c0.488,0.089,0.968,0.154,1.425,0.218c0.435,0.06,0.845,0.116,1.196,0.185l0.274,0.053
						l0.275-0.047c0.03-0.006,0.06-0.008,0.089-0.008c0.116,0,0.274,0.028,0.459,0.062c0.205,0.038,0.438,0.081,0.705,0.102
						c0.134,0.01,0.268,0.016,0.396,0.016c0.383,0,0.736-0.041,1.047-0.075c0.16-0.019,0.317-0.037,0.438-0.048l0.075,0.008
						c0.119,0.012,0.24,0.021,0.363,0.021l0.125-0.004c0.541-0.029,1.018-0.141,1.479-0.248c0.157-0.037,0.318-0.074,0.488-0.108
						c0.242-0.052,0.498-0.085,0.759-0.118c0.681-0.092,1.517-0.203,2.358-0.579c0.625-0.123,1.979-0.452,3.059-1.138
						c1.4-0.506,2.533-1.36,3.63-2.188c0.256-0.191,0.513-0.386,0.774-0.576c0.097-0.07,0.193-0.134,0.291-0.197
						c0.332-0.217,0.766-0.502,1.138-0.957c0.503-0.348,0.894-0.797,1.246-1.2c0.093-0.106,0.187-0.216,0.28-0.319
						c0.129-0.14,0.26-0.279,0.392-0.42c0.388-0.412,0.786-0.839,1.158-1.318c0.323-0.41,0.6-0.854,0.866-1.283
						c0.205-0.328,0.429-0.688,0.621-0.932c0.554-0.236,1.135-0.799,1.145-2.125l0.385-0.125l0.289-0.421
						c0.346-0.504,0.482-1.017,0.564-1.44c0.02-0.023,0.037-0.049,0.055-0.069c0.221-0.282,0.551-0.707,0.73-1.396
						c0.072-0.293,0.084-0.555,0.096-0.765c0.003-0.069,0.002-0.139,0.013-0.2c0.04-0.19,0.086-0.375,0.132-0.557
						c0.121-0.489,0.26-1.043,0.284-1.689C54.439,30.78,54.404,30.365,54.373,30z M42.335,13.691l0.127-0.13
						c0.181,0.159,0.358,0.325,0.538,0.496L42.335,13.691z M28.122,14.965l-0.004-0.021c0.039-0.008,0.078-0.021,0.117-0.033
						L28.122,14.965z M43.202,20.669c-0.185,0.147-0.462,0.369-0.692,0.745c-0.15,0.246-0.24,0.494-0.312,0.694
						c-0.022,0.064-0.045,0.129-0.063,0.173c-0.056,0.107-0.104,0.212-0.151,0.313c-0.016,0.032-0.03,0.067-0.047,0.103
						c-0.094,0.092-0.179,0.195-0.256,0.312l-0.332,0.197c0,0-0.104,0.725-0.105,0.732l-0.094,0.028l-0.252,0.711
						c-0.062,0.176-0.135,0.348-0.207,0.521c-0.224,0.537-0.477,1.146-0.556,1.87c-0.01,0.076-0.04,0.344-0.021,0.618
						c0.016,0.183-0.004,0.396-0.03,0.537l-0.144,0.111l-0.094,0.281c-0.298,0.316-0.527,0.724-0.582,1.178l-0.005,0.051
						c-0.016,0.176,0.001,0.336,0.031,0.475c-0.093,0.184-0.179,0.416-0.202,0.69c-0.023,0.247,0.014,0.464,0.066,0.64
						c-0.012,0.022-0.021,0.045-0.031,0.065c-0.195,0.157-0.497,0.459-0.602,0.942c-0.098,0.398-0.047,0.802,0.121,1.156
						c-0.014,0.02-0.025,0.039-0.039,0.059c-0.119,0.18-0.254,0.387-0.371,0.623c-0.289,0.304-0.448,0.628-0.559,0.848
						c-0.011,0.021-0.021,0.042-0.029,0.063c-0.092,0.062-0.199,0.149-0.312,0.267c-0.184,0.201-0.292,0.404-0.371,0.555
						c-0.016,0.027-0.029,0.058-0.037,0.069c-0.045,0.062-0.113,0.134-0.195,0.22c-0.018,0.018-0.035,0.035-0.053,0.055
						c-0.435,0.193-0.713,0.494-0.874,0.697c-0.112,0.039-0.245,0.099-0.392,0.186c-0.088,0.056-0.164,0.113-0.229,0.171
						c-0.115,0.03-0.248,0.075-0.382,0.146c-0.059,0.029-0.11,0.062-0.159,0.094c-0.127,0.033-0.271,0.086-0.408,0.17
						c-0.182,0.102-0.317,0.222-0.42,0.328c-0.039,0.014-0.078,0.027-0.114,0.039c-0.222,0.078-0.519,0.181-0.823,0.36
						c-0.287,0.046-0.543,0.113-0.764,0.173c-0.277,0.073-0.498,0.133-0.705,0.133c-0.047,0-0.098-0.004-0.148-0.01l-0.35-0.046
						l-0.312,0.108l-0.33-0.072l-0.314,0.143c-0.154,0.004-0.312,0.02-0.469,0.035c-0.082,0.008-0.164,0.021-0.26,0.021
						l-1.052-0.357l-0.093,0.142c-0.339-0.078-0.703-0.146-1.055-0.179c-0.306-0.142-0.603-0.213-0.841-0.271
						c-0.151-0.037-0.295-0.072-0.377-0.104c-0.034-0.02-0.064-0.041-0.097-0.062c-0.151-0.097-0.38-0.242-0.684-0.343
						c-0.118-0.039-0.387-0.207-0.563-0.318c-0.18-0.113-0.354-0.221-0.542-0.32c-0.134-0.068-0.258-0.113-0.368-0.145
						c-0.13-0.118-0.32-0.285-0.589-0.43c-0.624-0.329-1.257-1.117-1.692-1.659c-0.177-0.214-0.358-0.363-0.492-0.474
						c-0.048-0.043-0.102-0.082-0.149-0.133c-0.054-0.058-0.151-0.258-0.223-0.404c-0.107-0.22-0.23-0.47-0.399-0.721
						c-0.096-0.142-0.194-0.249-0.278-0.335c-0.021-0.047-0.051-0.118-0.073-0.174c-0.056-0.14-0.113-0.28-0.173-0.399
						c-0.071-0.15-0.147-0.303-0.224-0.453c-0.22-0.438-0.428-0.854-0.448-1.15l-0.022-0.314l-0.148-0.283
						c-0.249-0.471-0.423-1.471-0.466-2.676l-0.016-0.437l-0.026-0.039c0.006-0.086,0.009-0.183,0.003-0.289
						c-0.03-0.551-0.083-1.474,0.112-1.957l0.068-0.169l0.025-0.181c0.208-1.455,0.795-2.93,1.7-4.27
						c0.794-1.182,1.842-2.276,3.117-3.257c0.312-0.117,0.582-0.29,0.795-0.456c0.022-0.008,0.042-0.015,0.06-0.021l0.457-0.124
						l0.237-0.285c0.074-0.031,0.202-0.074,0.301-0.107c0.208-0.07,0.42-0.145,0.623-0.235l0.244-0.109l0.666,0.053l0.303-0.559
						c0.199-0.055,0.492-0.11,0.672-0.144c0.226-0.043,0.428-0.084,0.587-0.125l-0.205,0.1l4.841,0.706
						c0.127,0.033,0.338,0.089,0.594,0.089c0.345,0,0.673-0.101,0.947-0.292l0.883-0.611l0.162,0.128l0.346-0.066
						c0.064,0.021,0.131,0.037,0.199,0.05l0.165,0.029l0.167-0.007c0.212-0.009,0.412-0.058,0.596-0.139
						c0.031,0.018,0.062,0.036,0.094,0.055c0.139,0.085,0.313,0.188,0.508,0.269c0.119,0.052,0.228,0.081,0.324,0.107
						c0.104,0.118,0.252,0.256,0.459,0.395l0.094,0.04l0.438,0.155h0.045c0.07,0,0.142,0.145,0.21,0.195
						c0.477,0.342,0.928,0.709,1.399,0.956l0.157-0.287l0.979,0.863c0.222,0.194,0.435,0.501,0.659,0.826
						c0.168,0.241,0.35,0.504,0.562,0.762l0.045,0.594l0.502,0.199c0.01,0.021,0.02,0.043,0.028,0.064
						c0.024,0.052,0.05,0.105,0.076,0.16l-0.14,0.326C43.229,20.649,43.214,20.659,43.202,20.669z"/>
				</g>
			</g>
			<g>
				<path fill="#FFFFFF" d="M51.219,27.824c-0.02-0.234-0.042-0.473-0.044-0.722c-0.006-0.444-0.041-0.692-0.071-0.911l-0.024-0.192
					c-0.021-0.169-0.035-0.331-0.05-0.487c-0.072-0.748-0.146-1.518-0.571-2.146c-0.06-0.152-0.118-0.313-0.176-0.473
					c-0.152-0.418-0.308-0.846-0.505-1.234c-0.026-0.131-0.075-0.318-0.185-0.492c-0.469-0.807-1.005-1.385-1.478-1.895
					c-0.391-0.421-0.76-0.818-1.086-1.334l-0.303-0.477l-0.543-0.159c-0.125-0.036-0.261-0.062-0.406-0.087
					c-0.016-0.003-0.032-0.006-0.047-0.008c-0.157-0.137-0.406-0.329-0.768-0.433c-0.186-0.05-0.378-0.075-0.572-0.075
					c-0.17,0-0.322,0.02-0.451,0.043l-0.203-0.16l-0.196,0.026L42.416,15.7c-0.107-0.087-0.312-0.407-0.424-0.579
					c-0.014-0.021-0.028-0.045-0.043-0.066l-0.254-0.63l-0.412-0.138c-0.02-0.031-0.04-0.063-0.061-0.094
					c-0.268-0.414-0.717-1.105-1.619-1.264l-0.926-0.164l1.729-0.325c0.757,0.784,1.496,1.675,2.228,2.675l0.452-0.301
					c0.042,0.345,0.193,0.671,0.445,0.94c0.134,0.144,0.623,0.61,1.312,0.61l0.825-0.004l0.442-0.688l0.443-0.693l-0.516-1.135
					l-0.273-0.183c-0.095-0.095-0.257-0.251-0.486-0.374l-0.405-0.218c-0.733-1.116-1.583-2.044-2.349-2.862
					c-0.256-0.275-0.51-0.547-0.754-0.821l-0.895-1.002l1.896,0.32l-3.352-3.33c-0.179-0.179-0.367-0.3-0.518-0.387l-0.352-0.679
					L37.73,4.441c-0.041-0.008-0.082-0.016-0.121-0.021L37.6,4.463L37.484,4.48l0.039,0.282l-0.336,1.321
					c-0.215-0.143-0.438-0.264-0.658-0.373l0.263-0.623c-0.229-0.109-0.455-0.244-0.694-0.388c-0.271-0.163-0.555-0.331-0.853-0.47
					c-0.097-0.045-0.2-0.089-0.306-0.129l0.013-0.08l-0.896-0.34l-0.074-0.067L33.648,3.54l-0.111-0.033
					c-0.188-0.055-0.305-0.089-0.441-0.106c-0.063-0.009-0.115-0.015-0.162-0.019c0,0-0.11-0.037-0.144-0.049l-0.229-0.154
					l-0.205-0.063c-1.09-0.35-2.16-0.494-3.196-0.641c-0.241-0.033-0.803-0.102-0.864-0.108c-0.142-0.062-0.296-0.077-0.461-0.101
					L27.71,2.305h-0.106c-0.083,0-0.179-0.063-0.285-0.043c-0.447-0.043-0.862-0.135-1.236-0.135c-0.083,0-0.166-0.023-0.239-0.021
					c-0.015,0.001-0.03,0.002-0.045,0.002l0.321-0.76l-2.559,0.299c-0.438,0.051-0.771,0.166-1.051,0.361l-0.427,0.297H22.01
					c-0.12,0-0.24,0.063-0.376,0.09c-1.782,0.291-3.586,0.889-5.25,1.639c-0.238,0.012-0.471,0.077-0.693,0.194
					c-0.075,0.034-0.146,0.073-0.212,0.114l-0.035-0.007l-0.468,0.23c-1.97,0.97-3.885,2.494-5.688,4.528
					c-1.508,1.69-2.786,3.572-3.692,5.436c-0.569,1.162-0.954,2.342-1.293,3.381c-0.104,0.318-0.206,0.633-0.312,0.939l-0.029,0.085
					l-0.019,0.089c-0.444,2.077-0.657,3.69-0.713,5.394c-0.038,1.209-0.05,2.755,0.192,3.966c0.034,0.188,0.088,0.348,0.127,0.465
					c0.012,0.035,0.025,0.072,0.03,0.084c0.012,0.074,0.007,0.152,0.008,0.23c0.002,0.214,0.004,0.48,0.063,0.773
					c0.13,0.684,0.343,1.307,0.549,1.909c0.082,0.24,0.163,0.479,0.237,0.718c0.318,1.021,0.653,1.93,1.029,2.785
					c0.179,0.396,0.392,0.735,0.579,1.034c0.088,0.142,0.177,0.281,0.257,0.423c0.052,0.092,0.092,0.192,0.136,0.295
					c0.088,0.203,0.198,0.459,0.351,0.709c0.399,0.661,0.879,1.258,1.302,1.782c0.195,0.243,0.388,0.482,0.569,0.724
					c0.849,1.133,1.709,2.219,2.865,3.062c1.039,1.023,2.459,2.064,3.771,2.766c0.799,0.664,1.704,1.013,2.581,1.35
					c0.251,0.097,0.506,0.193,0.766,0.304c0.072,0.049,0.187,0.125,0.337,0.195c0.89,0.419,1.936,0.729,3.189,0.946
					c0.488,0.088,0.968,0.154,1.425,0.217c0.435,0.062,0.845,0.117,1.197,0.186l0.273,0.055l0.275-0.05
					c0.03-0.006,0.06-0.008,0.089-0.008c0.116,0,0.275,0.029,0.459,0.063c0.206,0.037,0.438,0.08,0.705,0.102
					c0.134,0.012,0.267,0.016,0.398,0.016c0.384,0,0.736-0.039,1.047-0.076c0.159-0.019,0.317-0.035,0.438-0.047l0.075,0.008
					c0.12,0.012,0.24,0.021,0.364,0.021l0.124-0.003c0.541-0.027,1.018-0.14,1.479-0.248c0.157-0.036,0.318-0.074,0.488-0.109
					c0.243-0.051,0.498-0.082,0.76-0.117c0.68-0.092,1.516-0.203,2.359-0.578c0.625-0.124,1.977-0.453,3.057-1.137
					c1.4-0.508,2.533-1.361,3.631-2.189c0.256-0.191,0.513-0.387,0.775-0.576c0.096-0.07,0.193-0.133,0.29-0.197
					c0.332-0.218,0.767-0.502,1.138-0.957c0.504-0.348,0.895-0.797,1.246-1.201c0.094-0.105,0.188-0.215,0.282-0.317
					c0.127-0.142,0.258-0.278,0.392-0.421c0.385-0.412,0.785-0.839,1.157-1.316c0.323-0.412,0.601-0.855,0.867-1.285
					c0.204-0.328,0.429-0.688,0.619-0.933c0.554-0.233,1.136-0.798,1.146-2.123l0.385-0.125l0.289-0.422
					c0.346-0.504,0.482-1.017,0.564-1.44c0.02-0.023,0.037-0.049,0.055-0.069c0.219-0.282,0.551-0.707,0.729-1.396
					c0.073-0.291,0.085-0.553,0.096-0.764c0.003-0.067,0.002-0.14,0.013-0.201c0.041-0.19,0.086-0.374,0.131-0.556
					c0.123-0.489,0.261-1.042,0.285-1.689C51.285,28.604,51.25,28.189,51.219,27.824z M39.182,11.516l0.127-0.13
					c0.182,0.159,0.359,0.325,0.539,0.496L39.182,11.516z M24.968,12.789l-0.004-0.021c0.04-0.008,0.078-0.021,0.117-0.033
					L24.968,12.789z M40.048,18.494c-0.185,0.146-0.462,0.369-0.692,0.744c-0.149,0.246-0.239,0.494-0.312,0.695
					c-0.023,0.063-0.044,0.129-0.064,0.172c-0.056,0.107-0.104,0.213-0.151,0.314c-0.015,0.032-0.031,0.068-0.048,0.102
					c-0.092,0.092-0.178,0.195-0.254,0.313l-0.332,0.196c0,0-0.104,0.725-0.106,0.732l-0.094,0.028l-0.252,0.711
					c-0.062,0.176-0.134,0.348-0.206,0.521c-0.225,0.537-0.477,1.145-0.555,1.869c-0.01,0.076-0.041,0.344-0.022,0.617
					c0.017,0.183-0.003,0.397-0.03,0.538l-0.144,0.112l-0.093,0.281c-0.297,0.316-0.526,0.723-0.582,1.177l-0.006,0.052
					c-0.015,0.176,0.002,0.334,0.031,0.473c-0.092,0.185-0.177,0.416-0.201,0.691c-0.023,0.247,0.014,0.464,0.065,0.641
					c-0.011,0.021-0.021,0.043-0.031,0.064c-0.194,0.156-0.497,0.459-0.601,0.941c-0.098,0.399-0.047,0.803,0.121,1.156
					c-0.014,0.021-0.025,0.04-0.038,0.061c-0.118,0.18-0.255,0.387-0.372,0.621c-0.288,0.305-0.449,0.629-0.559,0.85
					c-0.011,0.021-0.021,0.041-0.029,0.062c-0.09,0.063-0.198,0.148-0.312,0.267c-0.184,0.2-0.291,0.403-0.371,0.554
					c-0.016,0.028-0.029,0.059-0.037,0.071c-0.043,0.062-0.113,0.133-0.194,0.218c-0.019,0.018-0.035,0.036-0.054,0.055
					c-0.435,0.193-0.711,0.494-0.873,0.697c-0.112,0.04-0.246,0.1-0.392,0.186c-0.088,0.057-0.165,0.115-0.229,0.172
					c-0.115,0.031-0.248,0.076-0.381,0.146c-0.059,0.03-0.111,0.062-0.16,0.093c-0.127,0.033-0.27,0.086-0.408,0.17
					c-0.182,0.103-0.316,0.224-0.42,0.328c-0.038,0.015-0.078,0.027-0.114,0.041c-0.222,0.076-0.519,0.18-0.823,0.359
					c-0.288,0.045-0.542,0.113-0.764,0.172c-0.278,0.074-0.497,0.133-0.705,0.133c-0.047,0-0.097-0.003-0.148-0.01l-0.35-0.045
					l-0.314,0.109l-0.329-0.072l-0.315,0.141c-0.154,0.006-0.312,0.021-0.469,0.036c-0.082,0.009-0.164,0.021-0.26,0.021
					l-1.051-0.356l-0.093,0.142c-0.339-0.078-0.704-0.146-1.055-0.18c-0.306-0.14-0.603-0.212-0.841-0.27
					c-0.151-0.037-0.295-0.071-0.377-0.105c-0.034-0.02-0.064-0.04-0.097-0.06c-0.151-0.099-0.379-0.243-0.684-0.345
					c-0.118-0.039-0.386-0.207-0.563-0.317c-0.18-0.113-0.354-0.222-0.542-0.32c-0.134-0.067-0.258-0.112-0.368-0.146
					c-0.13-0.117-0.32-0.284-0.589-0.43c-0.624-0.328-1.257-1.117-1.692-1.658c-0.177-0.213-0.358-0.363-0.491-0.475
					c-0.049-0.041-0.103-0.082-0.15-0.132c-0.053-0.058-0.151-0.258-0.223-0.403c-0.107-0.221-0.23-0.471-0.399-0.722
					c-0.096-0.142-0.194-0.249-0.278-0.335c-0.021-0.047-0.05-0.117-0.073-0.174c-0.056-0.139-0.114-0.279-0.173-0.399
					c-0.071-0.151-0.147-0.303-0.223-0.454c-0.22-0.438-0.428-0.852-0.449-1.15l-0.022-0.313l-0.147-0.278
					c-0.249-0.472-0.423-1.474-0.466-2.679l-0.016-0.436l-0.026-0.039c0.006-0.086,0.009-0.183,0.003-0.289
					c-0.031-0.551-0.083-1.474,0.112-1.957l0.068-0.169l0.026-0.181c0.208-1.455,0.795-2.93,1.7-4.27
					c0.794-1.182,1.842-2.275,3.117-3.257c0.312-0.116,0.583-0.29,0.795-0.456c0.022-0.008,0.042-0.015,0.059-0.021l0.457-0.123
					l0.238-0.285c0.074-0.032,0.202-0.075,0.3-0.108c0.208-0.07,0.42-0.144,0.623-0.235l0.244-0.109l0.667,0.053l0.302-0.559
					c0.199-0.055,0.493-0.109,0.672-0.144c0.226-0.043,0.429-0.083,0.587-0.124l-0.205,0.099l4.842,0.706
					c0.126,0.033,0.337,0.089,0.594,0.089c0.344,0,0.672-0.101,0.947-0.292l0.882-0.611l0.162,0.128l0.347-0.065
					c0.063,0.02,0.131,0.036,0.198,0.049l0.165,0.029l0.167-0.007c0.212-0.009,0.413-0.058,0.595-0.139
					c0.031,0.019,0.062,0.036,0.094,0.056c0.14,0.084,0.313,0.188,0.509,0.268c0.118,0.053,0.228,0.082,0.323,0.107
					c0.104,0.118,0.252,0.256,0.459,0.395l0.095,0.041l0.438,0.154h0.045c0.069,0,0.141,0.145,0.209,0.195
					c0.478,0.342,0.927,0.709,1.399,0.956l0.158-0.287l0.979,0.863c0.221,0.194,0.435,0.501,0.66,0.826
					c0.166,0.241,0.35,0.504,0.562,0.763l0.045,0.594l0.501,0.198c0.01,0.021,0.021,0.043,0.028,0.064
					c0.024,0.052,0.051,0.106,0.076,0.16l-0.14,0.326C40.074,18.474,40.061,18.484,40.048,18.494z"/>
			</g>
			<path fill="#606060" d="M49.288,31.893c0.069-0.278,0.035-0.608,0.095-0.901c0.141-0.685,0.359-1.289,0.387-2
				c0.023-0.627-0.088-1.226-0.095-1.867c-0.007-0.479-0.05-0.635-0.086-0.953c-0.106-0.926-0.108-1.689-0.448-2.058
				c-0.257-0.62-0.481-1.392-0.766-1.899c-0.044-0.079-0.061-0.264-0.079-0.293c-0.743-1.279-1.7-1.869-2.532-3.178
				c-0.212-0.063-0.482-0.055-0.779-0.208c-0.133-0.067-0.289-0.276-0.411-0.312c-0.458-0.123-0.798,0.295-1.267-0.071
				c-0.097,0.013-0.08,0.11-0.127,0.159c-0.687,0.295-1.184,0.723-1.76,0.85c-0.184,0.428-0.574,0.52-0.783,0.86
				c-0.129,0.21-0.205,0.539-0.324,0.771c-0.138,0.268-0.227,0.522-0.39,0.747c-0.213,0.068-0.178,0.316-0.348,0.416
				c-0.046,0.322-0.177,0.586-0.239,0.9c-0.066,0.045-0.093,0.121-0.182,0.148c-0.239,0.676-0.604,1.315-0.688,2.078
				c-0.009,0.068-0.021,0.215-0.016,0.3c0.048,0.56-0.06,1.429-0.388,1.684c-0.033,0.096,0.039,0.101,0.006,0.195
				c-0.147,0.05-0.443,0.301-0.473,0.538c-0.007,0.082,0.158,0.257,0.16,0.445c0.001,0.284-0.312,0.481-0.331,0.729
				c-0.013,0.11,0.128,0.272,0.132,0.398c0.018,0.331-0.261,0.913-0.418,1.128c-0.119,0.173-0.283,0.185-0.315,0.336
				c-0.033,0.136,0.065,0.299,0.28,0.385c0.142,0.294,0,0.646-0.207,0.991c-0.205,0.348-0.474,0.68-0.569,1.004
				c-0.418,0.271-0.461,0.811-0.796,1.126c-0.068,0.062-0.184,0.103-0.248,0.168c-0.104,0.113-0.182,0.328-0.301,0.492
				c-0.207,0.283-0.445,0.467-0.615,0.707c-0.524,0.037-0.573,0.496-0.895,0.692c-0.121,0.07-0.285,0.064-0.418,0.144
				c-0.109,0.069-0.177,0.205-0.305,0.271c-0.129,0.063-0.305,0.052-0.426,0.113c-0.092,0.047-0.137,0.139-0.217,0.168
				c-0.104,0.039-0.196,0.006-0.297,0.066c-0.106,0.061-0.174,0.219-0.285,0.275c-0.407,0.223-0.905,0.265-1.258,0.596
				c-0.792,0.025-1.41,0.453-2.357,0.332c-0.225,0.076-0.395,0.128-0.638,0.074c-0.053,0.023-0.052,0.096-0.137,0.09
				c-0.48-0.086-1.008,0.143-1.505-0.026c-0.022,0.032-0.046,0.062-0.082,0.079c-0.682-0.223-1.526-0.432-2.108-0.434
				c-0.367-0.267-0.894-0.269-1.39-0.479c-0.234-0.096-0.422-0.277-0.647-0.352c-0.445-0.146-0.931-0.52-1.322-0.729
				c-0.118-0.062-0.271-0.065-0.388-0.127c-0.21-0.116-0.363-0.336-0.588-0.457c-0.882-0.465-1.611-1.36-2.145-2.024
				c-0.169-0.203-0.383-0.326-0.59-0.549c-0.342-0.369-0.487-0.895-0.766-1.308c-0.07-0.104-0.184-0.183-0.248-0.278
				c-0.173-0.25-0.246-0.537-0.386-0.822c-0.332-0.701-0.759-1.394-0.813-2.142c-0.449-0.85-0.599-2.235-0.638-3.322
				c-0.168-0.244-0.024-0.48-0.037-0.733c-0.044-0.778-0.097-1.823,0.219-2.604c0.247-1.728,0.946-3.423,1.94-4.895
				c0.994-1.479,2.269-2.733,3.677-3.782c0.295-0.041,0.625-0.311,0.802-0.498c0.083,0.046,0.224-0.031,0.344-0.064
				c0.312-0.374,0.892-0.446,1.396-0.673c0.07-0.232,0.436-0.198,0.598-0.397c0.117,0.078-0.091,0.123,0.074,0.137
				c0.248-0.459,1.508-0.564,2.047-0.708c-0.039,0.004-0.054-0.048-0.005-0.06c0.144,0.07,0.189-0.109,0.342-0.121
				c1.011-0.131,1.759-0.463,2.685-0.509c0.11,0.058,0.392,0.245,0.513,0.129c-0.16-0.04-0.368-0.056-0.338-0.2
				c0.268,0.08,0.634,0.063,0.837-0.019c0.343,0.044,0.499,0.153,0.823,0.114c0.074,0.021-0.039-0.164,0.121-0.125
				c0.455,0.188,0.727,0.129,1.125,0.326c0.161-0.095,0.67,0.033,0.793,0.16c0.155-0.004-0.109-0.164,0.018-0.154
				c0.393,0.099,0.767,0.191,1.068,0.43c0.109-0.021,0.203-0.076,0.352-0.029c0.098,0.035-0.085,0.109,0.072,0.138
				c0.164-0.007-0.041-0.174,0.035-0.251c0.207,0.047,0.203-0.037,0.334-0.065c0.222,0.204,0.476,0.147,0.733,0.235
				c0.267,0.088,0.504,0.289,0.752,0.393c0.212,0.092,0.354,0.057,0.568,0.206c0.176,0.12,0.258,0.312,0.452,0.441
				c0.113,0.054,0-0.141,0.146-0.038c0.688,0.463,1.329,0.981,1.902,1.28c-0.841-0.485-1.212-1.114-2.009-1.437
				c-0.021-0.184-0.348-0.148-0.348-0.366c-0.09,0.032,0.037,0.185-0.107,0.071c-0.045-0.043-0.045-0.086-0.131-0.129
				c0.188-0.069,0.041-0.166,0.043-0.297c-0.604-0.38-1.125-0.59-1.672-0.865c-0.119-0.016,0.029,0.117-0.099,0.084
				c-0.22-0.078-0.369-0.178-0.637-0.25c-0.024-0.143-0.173-0.27-0.019-0.373c0.756,0.34,1.879,0.67,2.734,1.215
				c0.259,0.164,0.445,0.445,0.699,0.396c-0.398-0.221-0.586-0.596-0.913-0.83c-0.427-0.297-0.997-0.405-1.423-0.668
				c-0.119-0.077-0.147-0.149-0.262-0.205c-0.091-0.046-0.281-0.039-0.382-0.09c-0.108-0.057-0.087-0.118-0.186-0.156
				c-0.203-0.072-0.392-0.05-0.61-0.14c-0.363-0.155-0.691-0.396-1.119-0.495c-0.06-0.076,0.016-0.191,0.119-0.182
				c0.493,0.175,0.58,0.197,1.082,0.385c-0.051-0.035-0.074-0.074-0.052-0.119c0.149,0.07,0.19,0.127,0.321,0.104
				c-0.371-0.145-0.254-0.348-0.084-0.395c0.922,0.409,2.078,0.891,2.738,1.412c0.111-0.006,0.208-0.047,0.35,0.014
				c0.842,0.445,1.643,1.152,2.443,1.776c-0.746-0.911-1.799-1.579-2.994-2.198c-0.029-0.051,0.049-0.102-0.078-0.153
				c-0.539-0.218-1.127-0.542-1.545-0.7L33.396,8.43c-1.359-0.45-2.225-1.265-3.629-1.553c0.024-0.089-0.08-0.136-0.11-0.208
				c0.127-0.051,0.221-0.131,0.366-0.168c0.232,0.045,0.483,0.047,0.67,0.162c1.264,0.018,2.863,0.773,4.283,1.33
				c0.233-0.048,0.156-0.218,0.094-0.39c-0.641-0.413-1.35-0.495-2.03-0.944c-0.151-0.43,0.22-0.567,0.821-0.348
				c1.002,0.342,2.602,1.227,3.142,1.644c2.746,1.449,4.962,3.706,6.836,6.272c-0.921-1.528-2.137-2.66-3.194-3.844
				c-0.041,0.052-0.102,0.031-0.188-0.057c-1.109-1.096-2.53-2.127-3.771-2.71c-0.385-0.486-1.486-0.772-1.927-1.204
				c0.271-0.25,0.786-0.189,1.375,0.023c-0.569-0.275-1.056-0.629-1.542-0.856c-0.396-0.19-1.141-0.364-1.326-0.501
				c-0.045-0.035,0.075-0.066-0.021-0.104c0.169,0.063-0.311-0.089-0.348-0.092c-0.242-0.035-0.205-0.002-0.471-0.093
				c-0.345-0.117-0.336-0.12-0.537-0.257c-1.209-0.389-2.438-0.509-3.688-0.698c-0.13-0.021-0.396-0.036-0.417-0.041
				c-0.118-0.03-0.011-0.081-0.169-0.104c-0.089-0.012-0.054,0.062-0.186,0.045c-0.492-0.056-1.06-0.098-1.558-0.083
				c-1.242,0.03-2.722,0.122-3.721,0.339c-0.227,0.023,0.047-0.137-0.256-0.074c-1.744,0.283-3.56,0.835-5.272,1.654
				c-0.133,0.054-0.089-0.115-0.269-0.003c-0.246,0.099-0.12,0.201-0.332,0.304c-0.147,0.035-0.288,0.059-0.391,0.036
				c-1.979,0.974-3.736,2.495-5.231,4.182C8.998,11.66,7.8,13.406,6.934,15.186c-0.688,1.404-1.083,2.839-1.532,4.146
				c-0.389,1.818-0.624,3.4-0.681,5.129c-0.039,1.241-0.037,2.621,0.169,3.648c0.032,0.178,0.132,0.379,0.163,0.586
				c0.049,0.312,0.001,0.644,0.062,0.955c0.161,0.841,0.497,1.656,0.746,2.463c0.281,0.904,0.591,1.764,0.965,2.615
				c0.215,0.479,0.522,0.889,0.776,1.34c0.168,0.3,0.275,0.654,0.463,0.961c0.52,0.863,1.219,1.623,1.785,2.382
				c0.759,1.011,1.574,2.063,2.638,2.813c1.006,1.012,2.431,2.036,3.648,2.666c0.849,0.764,2.011,1.057,3.162,1.553
				c0.123,0.053,0.189,0.129,0.311,0.186c0.871,0.41,1.862,0.662,2.816,0.828c0.955,0.172,1.872,0.256,2.643,0.406
				c0.595-0.105,1.081,0.096,1.631,0.139c0.592,0.045,1.138-0.07,1.703-0.109c0.186-0.014,0.358,0.032,0.547,0.024
				c0.576-0.03,1.123-0.201,1.742-0.328c0.918-0.19,1.971-0.176,2.959-0.667c0.832-0.145,2.051-0.496,2.851-1.053
				c1.569-0.521,2.841-1.645,4.192-2.623c0.457-0.333,0.955-0.561,1.272-1.061c0.542-0.297,0.972-0.877,1.458-1.412
				c0.482-0.527,1.016-1.06,1.479-1.654c0.666-0.85,1.216-2.057,1.865-2.627c0.779-0.032,0.192-1.114,0.627-1.836
				c0.295-0.369,0.453-0.246,0.752-0.344c0.242-0.353,0.31-0.742,0.377-1.142C48.736,32.752,49.128,32.506,49.288,31.893z
				 M31.764,10.349c-0.021,0.03-0.013,0.054,0.019,0.072C31.643,10.521,31.521,10.252,31.764,10.349z M31.869,10.326
				c0.349,0.115,0.883,0.197,1.082,0.412c0.064,0.031,0.012-0.184,0.136-0.168c0.115,0.133,0.259,0.267,0.503,0.391
				c-0.097,0.228-0.513-0.143-0.63,0.048c-0.178-0.104-0.265-0.159-0.396-0.089c-0.353-0.244-0.498-0.136-0.762-0.329
				C31.934,10.488,31.789,10.469,31.869,10.326z"/>
		</g>
	</g>
</g>
</svg>
