<?xml version="1.0" encoding="utf-8"?>
<!-- Generator: Adobe Illustrator 15.0.0, SVG Export Plug-In . SVG Version: 6.00 Build 0)  -->
<!DOCTYPE svg PUBLIC "-//W3C//DTD SVG 1.1//EN" "http://www.w3.org/Graphics/SVG/1.1/DTD/svg11.dtd">
<svg version="1.1" id="Layer_1" xmlns="http://www.w3.org/2000/svg" xmlns:xlink="http://www.w3.org/1999/xlink" x="0px" y="0px"
	 width="58px" height="54px" viewBox="0 0 58 54" enable-background="new 0 0 58 54" xml:space="preserve">
<g id="Pressed_states">
	<g id="buttons_pressed">
	</g>
	<g id="buttons_pressed_on">
	</g>
	<g id="buttons_pressed_copy">
	</g>
	<g id="DrawingToolsButtonsTaped">
	</g>
	<g id="DrawingsShapesStrokesTaped">
		<g>
			<g opacity="0.25">
				<g>
					<path fill="#333333" d="M54.373,30c-0.021-0.234-0.042-0.473-0.044-0.723c-0.007-0.444-0.041-0.691-0.071-0.91l-0.025-0.192
						c-0.02-0.169-0.034-0.332-0.049-0.487c-0.074-0.748-0.146-1.519-0.572-2.146c-0.059-0.153-0.118-0.313-0.176-0.474
						c-0.151-0.417-0.308-0.846-0.504-1.233c-0.027-0.131-0.076-0.318-0.185-0.492c-0.47-0.807-1.005-1.385-1.478-1.895
						c-0.392-0.421-0.76-0.818-1.086-1.334l-0.304-0.479l-0.543-0.158c-0.125-0.037-0.262-0.063-0.407-0.088
						c-0.016-0.002-0.031-0.005-0.048-0.007c-0.155-0.138-0.405-0.329-0.767-0.433c-0.186-0.05-0.379-0.075-0.572-0.075
						c-0.171,0-0.322,0.02-0.45,0.043l-0.204-0.16l-0.197,0.026l-1.123-0.908c-0.107-0.088-0.312-0.407-0.422-0.579
						c-0.016-0.022-0.028-0.045-0.043-0.066l-0.254-0.63l-0.412-0.138c-0.021-0.031-0.041-0.063-0.061-0.095
						c-0.27-0.413-0.717-1.104-1.619-1.264l-0.927-0.163l1.729-0.325c0.756,0.784,1.496,1.675,2.228,2.675l0.45-0.301
						c0.044,0.345,0.193,0.671,0.445,0.94c0.133,0.143,0.623,0.609,1.313,0.609l0.825-0.003l0.443-0.688l0.441-0.694l-0.516-1.135
						l-0.272-0.182c-0.095-0.095-0.257-0.251-0.487-0.375l-0.406-0.217c-0.732-1.116-1.582-2.044-2.346-2.863
						c-0.258-0.274-0.512-0.546-0.757-0.82l-0.894-1.002l1.896,0.32l-3.352-3.33c-0.181-0.179-0.367-0.3-0.517-0.387l-0.354-0.679
						l-0.822,0.131C40.84,6.606,40.8,6.599,40.762,6.594L40.75,6.637l-0.115,0.018l0.039,0.282L40.341,8.26
						c-0.215-0.143-0.438-0.265-0.657-0.374l0.264-0.622c-0.229-0.11-0.455-0.245-0.694-0.388C38.98,6.713,38.697,6.545,38.4,6.405
						c-0.099-0.047-0.201-0.09-0.308-0.131l0.013-0.079l-0.895-0.34l-0.074-0.067l-0.334-0.073l-0.111-0.033
						c-0.188-0.056-0.305-0.089-0.441-0.106c-0.064-0.01-0.115-0.015-0.162-0.02c0,0-0.111-0.036-0.145-0.048l-0.229-0.154
						L35.51,5.291c-1.091-0.351-2.16-0.495-3.197-0.641c-0.239-0.034-0.803-0.102-0.862-0.108c-0.142-0.063-0.296-0.078-0.462-0.102
						l-0.123,0.04h-0.106c-0.083,0-0.179-0.063-0.284-0.043c-0.447-0.044-0.863-0.135-1.236-0.135c-0.084,0-0.166-0.023-0.239-0.021
						c-0.015,0.001-0.03,0.002-0.045,0.002l0.321-0.76l-2.559,0.299c-0.438,0.051-0.772,0.165-1.051,0.36L25.238,4.48h-0.073
						c-0.12,0-0.24,0.063-0.377,0.089c-1.781,0.292-3.586,0.889-5.249,1.64c-0.238,0.012-0.471,0.077-0.693,0.194
						C18.77,6.438,18.7,6.476,18.633,6.518l-0.035-0.007l-0.468,0.23c-1.97,0.969-3.885,2.494-5.688,4.528
						c-1.508,1.69-2.786,3.571-3.692,5.436c-0.569,1.162-0.954,2.341-1.293,3.381c-0.104,0.318-0.206,0.632-0.312,0.938L7.116,21.11
						l-0.019,0.088c-0.445,2.077-0.657,3.689-0.713,5.395c-0.038,1.209-0.051,2.755,0.192,3.966
						c0.034,0.188,0.088,0.349,0.127,0.465c0.012,0.035,0.025,0.071,0.03,0.084c0.012,0.074,0.007,0.152,0.008,0.23
						c0.002,0.214,0.004,0.479,0.063,0.773c0.13,0.683,0.343,1.307,0.549,1.91c0.082,0.238,0.163,0.478,0.237,0.717
						c0.318,1.021,0.653,1.929,1.029,2.785c0.179,0.396,0.392,0.734,0.579,1.035c0.088,0.141,0.177,0.279,0.257,0.422
						c0.052,0.093,0.092,0.192,0.136,0.295c0.088,0.203,0.198,0.457,0.351,0.707c0.399,0.662,0.879,1.26,1.302,1.785
						c0.195,0.242,0.388,0.48,0.568,0.724c0.85,1.132,1.709,2.217,2.865,3.061c1.039,1.024,2.46,2.065,3.771,2.767
						c0.799,0.664,1.704,1.012,2.581,1.35c0.251,0.096,0.506,0.193,0.766,0.305c0.071,0.049,0.187,0.125,0.337,0.194
						c0.89,0.419,1.935,0.729,3.189,0.946c0.488,0.089,0.968,0.154,1.425,0.218c0.435,0.06,0.845,0.116,1.196,0.185l0.274,0.053
						l0.275-0.047c0.03-0.006,0.06-0.008,0.089-0.008c0.116,0,0.274,0.028,0.459,0.062c0.205,0.038,0.438,0.081,0.705,0.102
						c0.134,0.01,0.268,0.016,0.396,0.016c0.383,0,0.736-0.041,1.047-0.075c0.16-0.019,0.317-0.037,0.438-0.048l0.075,0.008
						c0.119,0.012,0.24,0.021,0.363,0.021l0.125-0.004c0.541-0.029,1.018-0.141,1.479-0.248c0.157-0.037,0.318-0.074,0.488-0.108
						c0.242-0.052,0.498-0.085,0.759-0.118c0.681-0.092,1.517-0.203,2.358-0.579c0.625-0.123,1.979-0.452,3.059-1.138
						c1.4-0.506,2.533-1.36,3.63-2.188c0.256-0.191,0.513-0.386,0.774-0.576c0.097-0.07,0.193-0.134,0.291-0.197
						c0.332-0.217,0.766-0.502,1.138-0.957c0.503-0.348,0.894-0.797,1.246-1.2c0.093-0.106,0.187-0.216,0.28-0.319
						c0.129-0.14,0.26-0.279,0.392-0.42c0.388-0.412,0.786-0.839,1.158-1.318c0.323-0.41,0.6-0.854,0.866-1.283
						c0.205-0.328,0.429-0.688,0.621-0.932c0.554-0.236,1.135-0.799,1.145-2.125l0.385-0.125l0.289-0.421
						c0.346-0.504,0.482-1.017,0.564-1.44c0.02-0.023,0.037-0.049,0.055-0.069c0.221-0.282,0.551-0.707,0.73-1.396
						c0.072-0.293,0.084-0.555,0.096-0.765c0.003-0.069,0.002-0.139,0.013-0.2c0.04-0.19,0.086-0.375,0.132-0.557
						c0.121-0.489,0.26-1.043,0.284-1.689C54.439,30.78,54.404,30.365,54.373,30z M42.335,13.691l0.127-0.13
						c0.181,0.159,0.358,0.325,0.538,0.496L42.335,13.691z M28.122,14.965l-0.004-0.021c0.039-0.008,0.078-0.021,0.117-0.033
						L28.122,14.965z M43.202,20.669c-0.185,0.147-0.462,0.369-0.692,0.745c-0.15,0.246-0.24,0.494-0.312,0.694
						c-0.022,0.064-0.045,0.129-0.063,0.173c-0.056,0.107-0.104,0.212-0.151,0.313c-0.016,0.032-0.03,0.067-0.047,0.103
						c-0.094,0.092-0.179,0.195-0.256,0.312l-0.332,0.197c0,0-0.104,0.725-0.105,0.732l-0.094,0.028l-0.252,0.711
						c-0.062,0.176-0.135,0.348-0.207,0.521c-0.224,0.537-0.477,1.146-0.556,1.87c-0.01,0.076-0.04,0.344-0.021,0.618
						c0.016,0.183-0.004,0.396-0.03,0.537l-0.144,0.111l-0.094,0.281c-0.298,0.316-0.527,0.724-0.582,1.178l-0.005,0.051
						c-0.016,0.176,0.001,0.336,0.031,0.475c-0.093,0.184-0.179,0.416-0.202,0.69c-0.023,0.247,0.014,0.464,0.066,0.64
						c-0.012,0.022-0.021,0.045-0.031,0.065c-0.195,0.157-0.497,0.459-0.602,0.942c-0.098,0.398-0.047,0.802,0.121,1.156
						c-0.014,0.02-0.025,0.039-0.039,0.059c-0.119,0.18-0.254,0.387-0.371,0.623c-0.289,0.304-0.448,0.628-0.559,0.848
						c-0.011,0.021-0.021,0.042-0.029,0.063c-0.092,0.062-0.199,0.149-0.312,0.267c-0.184,0.201-0.292,0.404-0.371,0.555
						c-0.016,0.027-0.029,0.058-0.037,0.069c-0.045,0.062-0.113,0.134-0.195,0.22c-0.018,0.018-0.035,0.035-0.053,0.055
						c-0.435,0.193-0.713,0.494-0.874,0.697c-0.112,0.039-0.245,0.099-0.392,0.186c-0.088,0.056-0.164,0.113-0.229,0.171
						c-0.115,0.03-0.248,0.075-0.382,0.146c-0.059,0.029-0.11,0.062-0.159,0.094c-0.127,0.033-0.271,0.086-0.408,0.17
						c-0.182,0.102-0.317,0.222-0.42,0.328c-0.039,0.014-0.078,0.027-0.114,0.039c-0.222,0.078-0.519,0.181-0.823,0.36
						c-0.287,0.046-0.543,0.113-0.764,0.173c-0.277,0.073-0.498,0.133-0.705,0.133c-0.047,0-0.098-0.004-0.148-0.01l-0.35-0.046
						l-0.312,0.108l-0.33-0.072l-0.314,0.143c-0.154,0.004-0.312,0.02-0.469,0.035c-0.082,0.008-0.164,0.021-0.26,0.021
						l-1.052-0.357l-0.093,0.142c-0.339-0.078-0.703-0.146-1.055-0.179c-0.306-0.142-0.603-0.213-0.841-0.271
						c-0.151-0.037-0.295-0.072-0.377-0.104c-0.034-0.02-0.064-0.041-0.097-0.062c-0.151-0.097-0.38-0.242-0.684-0.343
						c-0.118-0.039-0.387-0.207-0.563-0.318c-0.18-0.113-0.354-0.221-0.542-0.32c-0.134-0.068-0.258-0.113-0.368-0.145
						c-0.13-0.118-0.32-0.285-0.589-0.43c-0.624-0.329-1.257-1.117-1.692-1.659c-0.177-0.214-0.358-0.363-0.492-0.474
						c-0.048-0.043-0.102-0.082-0.149-0.133c-0.054-0.058-0.151-0.258-0.223-0.404c-0.107-0.22-0.23-0.47-0.399-0.721
						c-0.096-0.142-0.194-0.249-0.278-0.335c-0.021-0.047-0.051-0.118-0.073-0.174c-0.056-0.14-0.113-0.28-0.173-0.399
						c-0.071-0.15-0.147-0.303-0.224-0.453c-0.22-0.438-0.428-0.854-0.448-1.15l-0.022-0.314l-0.148-0.283
						c-0.249-0.471-0.423-1.471-0.466-2.676l-0.016-0.437l-0.026-0.039c0.006-0.086,0.009-0.183,0.003-0.289
						c-0.03-0.551-0.083-1.474,0.112-1.957l0.068-0.169l0.025-0.181c0.208-1.455,0.795-2.93,1.7-4.27
						c0.794-1.182,1.842-2.276,3.117-3.257c0.312-0.117,0.582-0.29,0.795-0.456c0.022-0.008,0.042-0.015,0.06-0.021l0.457-0.124
						l0.237-0.285c0.074-0.031,0.202-0.074,0.301-0.107c0.208-0.07,0.42-0.145,0.623-0.235l0.244-0.109l0.666,0.053l0.303-0.559
						c0.199-0.055,0.492-0.11,0.672-0.144c0.226-0.043,0.428-0.084,0.587-0.125l-0.205,0.1l4.841,0.706
						c0.127,0.033,0.338,0.089,0.594,0.089c0.345,0,0.673-0.101,0.947-0.292l0.883-0.611l0.162,0.128l0.346-0.066
						c0.064,0.021,0.131,0.037,0.199,0.05l0.165,0.029l0.167-0.007c0.212-0.009,0.412-0.058,0.596-0.139
						c0.031,0.018,0.062,0.036,0.094,0.055c0.139,0.085,0.313,0.188,0.508,0.269c0.119,0.052,0.228,0.081,0.324,0.107
						c0.104,0.118,0.252,0.256,0.459,0.395l0.094,0.04l0.438,0.155h0.045c0.07,0,0.142,0.145,0.21,0.195
						c0.477,0.342,0.928,0.709,1.399,0.956l0.157-0.287l0.979,0.863c0.222,0.194,0.435,0.501,0.659,0.826
						c0.168,0.241,0.35,0.504,0.562,0.762l0.045,0.594l0.502,0.199c0.01,0.021,0.02,0.043,0.028,0.064
						c0.024,0.052,0.05,0.105,0.076,0.16l-0.14,0.326C43.229,20.649,43.214,20.659,43.202,20.669z"/>
				</g>
			</g>
			<g>
				<path fill="#FFFFFF" d="M51.018,27.723c-0.021-0.235-0.043-0.473-0.045-0.722c-0.007-0.445-0.041-0.692-0.07-0.911l-0.025-0.192
					c-0.02-0.169-0.035-0.332-0.05-0.487c-0.072-0.748-0.146-1.519-0.571-2.146c-0.061-0.153-0.117-0.313-0.176-0.474
					c-0.152-0.417-0.309-0.846-0.504-1.233c-0.027-0.131-0.076-0.318-0.186-0.492c-0.469-0.807-1.004-1.385-1.478-1.895
					c-0.392-0.421-0.759-0.818-1.086-1.334l-0.304-0.478L45.98,17.2c-0.125-0.037-0.262-0.063-0.406-0.088
					c-0.016-0.002-0.032-0.005-0.049-0.007c-0.155-0.138-0.404-0.329-0.767-0.433c-0.186-0.05-0.378-0.075-0.571-0.075
					c-0.172,0-0.322,0.02-0.451,0.043l-0.203-0.16l-0.196,0.026l-1.123-0.908c-0.108-0.088-0.313-0.407-0.424-0.579
					c-0.015-0.022-0.028-0.045-0.043-0.066l-0.253-0.63l-0.413-0.138c-0.021-0.031-0.04-0.063-0.06-0.095
					c-0.27-0.413-0.717-1.104-1.619-1.264l-0.928-0.163l1.729-0.325c0.757,0.784,1.497,1.675,2.228,2.675l0.451-0.301
					c0.043,0.345,0.193,0.671,0.445,0.94c0.134,0.143,0.623,0.609,1.312,0.609l0.825-0.003l0.443-0.688l0.442-0.694l-0.517-1.135
					l-0.272-0.182c-0.095-0.095-0.256-0.251-0.486-0.375l-0.405-0.217c-0.733-1.116-1.583-2.044-2.348-2.863
					c-0.257-0.274-0.511-0.546-0.757-0.82l-0.894-1.002l1.896,0.32l-3.352-3.33c-0.18-0.179-0.367-0.3-0.517-0.387l-0.353-0.679
					l-0.82,0.134c-0.041-0.009-0.08-0.016-0.119-0.021l-0.012,0.043L37.282,4.38l0.038,0.282l-0.336,1.321
					c-0.215-0.143-0.438-0.265-0.656-0.374l0.263-0.622c-0.229-0.11-0.454-0.245-0.694-0.388c-0.271-0.163-0.556-0.331-0.853-0.471
					c-0.099-0.047-0.201-0.09-0.308-0.131l0.014-0.079l-0.895-0.34l-0.076-0.067l-0.332-0.073l-0.112-0.033
					c-0.188-0.056-0.306-0.089-0.44-0.106c-0.064-0.01-0.115-0.015-0.162-0.02c0,0-0.111-0.036-0.145-0.048l-0.229-0.154
					l-0.205-0.063c-1.092-0.351-2.161-0.495-3.197-0.641c-0.24-0.034-0.803-0.102-0.863-0.108c-0.142-0.063-0.296-0.078-0.461-0.102
					l-0.124,0.04h-0.106c-0.083,0-0.179-0.063-0.284-0.043c-0.447-0.044-0.862-0.135-1.236-0.135c-0.084,0-0.166-0.023-0.239-0.021
					c-0.015,0.001-0.03,0.002-0.045,0.002l0.321-0.76l-2.559,0.299c-0.438,0.051-0.771,0.165-1.051,0.36l-0.427,0.298H21.81
					c-0.12,0-0.24,0.063-0.377,0.089c-1.781,0.292-3.586,0.889-5.249,1.64c-0.238,0.012-0.471,0.077-0.693,0.194
					c-0.075,0.034-0.146,0.072-0.212,0.114l-0.035-0.007l-0.468,0.23c-1.97,0.969-3.885,2.494-5.688,4.528
					c-1.508,1.69-2.786,3.571-3.692,5.436c-0.569,1.162-0.954,2.341-1.293,3.381c-0.104,0.318-0.206,0.632-0.312,0.938L3.76,18.833
					l-0.019,0.088c-0.444,2.077-0.657,3.689-0.713,5.395c-0.038,1.209-0.051,2.755,0.192,3.966c0.034,0.188,0.088,0.348,0.127,0.465
					c0.012,0.035,0.025,0.071,0.03,0.083c0.012,0.075,0.007,0.152,0.008,0.23c0.002,0.215,0.004,0.479,0.063,0.773
					c0.13,0.684,0.343,1.307,0.549,1.91c0.082,0.238,0.163,0.479,0.237,0.717c0.318,1.021,0.653,1.93,1.029,2.785
					c0.179,0.396,0.392,0.734,0.579,1.035c0.088,0.141,0.177,0.279,0.257,0.422c0.052,0.093,0.092,0.193,0.136,0.295
					c0.088,0.204,0.198,0.458,0.351,0.708c0.399,0.662,0.879,1.259,1.302,1.784c0.195,0.242,0.388,0.48,0.568,0.724
					c0.85,1.132,1.709,2.218,2.865,3.062c1.039,1.023,2.46,2.064,3.771,2.766c0.799,0.664,1.704,1.012,2.581,1.35
					c0.251,0.096,0.506,0.193,0.766,0.305c0.071,0.049,0.187,0.125,0.337,0.195c0.89,0.418,1.936,0.729,3.189,0.945
					c0.488,0.089,0.968,0.155,1.425,0.219c0.435,0.06,0.845,0.115,1.196,0.185l0.273,0.053l0.275-0.048
					c0.03-0.006,0.06-0.008,0.089-0.008c0.116,0,0.274,0.029,0.459,0.062c0.205,0.038,0.438,0.081,0.705,0.102
					c0.134,0.011,0.267,0.016,0.397,0.016c0.384,0,0.736-0.04,1.047-0.075c0.159-0.019,0.317-0.036,0.438-0.047l0.075,0.007
					c0.12,0.012,0.24,0.021,0.364,0.021l0.124-0.004c0.541-0.028,1.018-0.141,1.479-0.248c0.157-0.036,0.318-0.074,0.488-0.108
					c0.243-0.051,0.498-0.084,0.76-0.118c0.68-0.092,1.516-0.203,2.358-0.578c0.625-0.123,1.978-0.453,3.058-1.138
					c1.4-0.507,2.533-1.36,3.631-2.188c0.256-0.191,0.513-0.385,0.774-0.576c0.097-0.069,0.193-0.133,0.29-0.196
					c0.332-0.218,0.766-0.502,1.139-0.958c0.502-0.348,0.894-0.796,1.246-1.2c0.092-0.106,0.187-0.215,0.28-0.319
					c0.128-0.14,0.259-0.278,0.392-0.42c0.387-0.412,0.785-0.838,1.157-1.317c0.323-0.411,0.601-0.854,0.867-1.284
					c0.204-0.328,0.429-0.688,0.619-0.932c0.554-0.235,1.136-0.799,1.146-2.125l0.385-0.125l0.289-0.42
					c0.346-0.504,0.482-1.018,0.564-1.441c0.02-0.023,0.037-0.048,0.055-0.068c0.219-0.283,0.551-0.707,0.729-1.396
					c0.073-0.292,0.085-0.555,0.096-0.764c0.003-0.069,0.003-0.14,0.013-0.201c0.041-0.19,0.086-0.375,0.131-0.557
					c0.123-0.488,0.262-1.043,0.285-1.688C51.083,28.503,51.048,28.088,51.018,27.723z M38.979,11.414l0.127-0.13
					c0.182,0.159,0.359,0.325,0.539,0.496L38.979,11.414z M24.766,12.688l-0.004-0.021c0.039-0.008,0.078-0.021,0.117-0.033
					L24.766,12.688z M39.846,18.392c-0.184,0.147-0.462,0.369-0.691,0.745c-0.149,0.246-0.24,0.494-0.313,0.694
					c-0.022,0.064-0.044,0.129-0.063,0.173c-0.055,0.107-0.104,0.212-0.151,0.314c-0.015,0.032-0.03,0.067-0.047,0.102
					c-0.093,0.092-0.179,0.195-0.255,0.312l-0.332,0.197c0,0-0.104,0.725-0.105,0.732l-0.095,0.028L37.539,22.4
					c-0.062,0.176-0.135,0.348-0.206,0.521c-0.224,0.537-0.478,1.146-0.556,1.87c-0.01,0.076-0.041,0.344-0.021,0.617
					c0.016,0.183-0.004,0.397-0.029,0.538l-0.145,0.111l-0.094,0.281c-0.297,0.316-0.525,0.724-0.581,1.178l-0.005,0.051
					c-0.016,0.177,0,0.336,0.031,0.475c-0.093,0.184-0.179,0.416-0.203,0.691c-0.022,0.246,0.015,0.463,0.066,0.64
					c-0.011,0.022-0.021,0.044-0.031,0.065c-0.195,0.156-0.496,0.459-0.602,0.941c-0.098,0.398-0.047,0.803,0.121,1.156
					c-0.014,0.02-0.025,0.039-0.038,0.059c-0.118,0.18-0.254,0.387-0.372,0.623c-0.287,0.305-0.448,0.628-0.559,0.848
					c-0.01,0.021-0.021,0.043-0.029,0.063c-0.092,0.063-0.198,0.149-0.312,0.267c-0.184,0.201-0.291,0.404-0.371,0.555
					c-0.016,0.027-0.029,0.058-0.037,0.07c-0.045,0.062-0.113,0.133-0.194,0.219c-0.019,0.018-0.035,0.035-0.054,0.055
					c-0.435,0.193-0.713,0.494-0.873,0.697c-0.112,0.04-0.245,0.099-0.393,0.186c-0.088,0.057-0.164,0.114-0.229,0.172
					c-0.115,0.029-0.247,0.074-0.381,0.146c-0.06,0.028-0.111,0.062-0.16,0.093c-0.127,0.033-0.27,0.086-0.408,0.17
					c-0.182,0.102-0.316,0.223-0.42,0.328c-0.038,0.014-0.078,0.027-0.114,0.04c-0.222,0.077-0.519,0.181-0.823,0.36
					c-0.287,0.045-0.542,0.113-0.764,0.172c-0.277,0.074-0.497,0.133-0.705,0.133c-0.047,0-0.097-0.003-0.148-0.01l-0.35-0.045
					l-0.313,0.107l-0.329-0.072l-0.315,0.143c-0.154,0.005-0.312,0.02-0.469,0.036c-0.082,0.008-0.164,0.02-0.26,0.021l-1.052-0.357
					l-0.093,0.142c-0.339-0.078-0.703-0.146-1.055-0.179c-0.306-0.141-0.603-0.213-0.841-0.27c-0.151-0.037-0.295-0.072-0.377-0.105
					c-0.034-0.02-0.064-0.04-0.097-0.061c-0.151-0.098-0.38-0.242-0.684-0.344c-0.118-0.039-0.387-0.207-0.563-0.318
					c-0.18-0.112-0.354-0.221-0.542-0.32c-0.134-0.068-0.258-0.112-0.368-0.145c-0.13-0.117-0.32-0.285-0.589-0.43
					c-0.624-0.329-1.257-1.117-1.692-1.659c-0.177-0.213-0.358-0.362-0.491-0.474c-0.049-0.042-0.103-0.082-0.149-0.133
					c-0.054-0.058-0.151-0.258-0.223-0.403c-0.107-0.22-0.23-0.47-0.399-0.722c-0.096-0.142-0.194-0.248-0.278-0.334
					c-0.021-0.047-0.051-0.118-0.073-0.174c-0.056-0.14-0.113-0.281-0.173-0.399c-0.071-0.151-0.147-0.304-0.224-0.454
					c-0.22-0.438-0.428-0.854-0.448-1.15l-0.022-0.314l-0.147-0.279c-0.249-0.471-0.423-1.472-0.466-2.677l-0.016-0.436
					l-0.026-0.039c0.006-0.086,0.009-0.183,0.003-0.289c-0.03-0.551-0.083-1.474,0.112-1.957l0.068-0.169l0.025-0.181
					c0.208-1.455,0.795-2.93,1.7-4.27c0.794-1.182,1.842-2.276,3.117-3.257c0.312-0.117,0.582-0.29,0.795-0.456
					c0.022-0.008,0.042-0.015,0.06-0.021l0.457-0.124l0.237-0.285c0.074-0.031,0.202-0.074,0.301-0.107
					c0.208-0.07,0.42-0.145,0.623-0.235l0.244-0.109l0.666,0.053l0.303-0.559c0.199-0.055,0.492-0.11,0.672-0.144
					c0.226-0.043,0.429-0.084,0.587-0.125l-0.205,0.1l4.842,0.706c0.126,0.033,0.337,0.089,0.593,0.089
					c0.346,0,0.674-0.101,0.948-0.292l0.882-0.611l0.162,0.128l0.346-0.066c0.064,0.021,0.131,0.037,0.199,0.05l0.166,0.029
					l0.166-0.007c0.213-0.009,0.413-0.058,0.596-0.139c0.031,0.018,0.062,0.036,0.094,0.055c0.14,0.085,0.314,0.188,0.509,0.269
					c0.119,0.052,0.228,0.081,0.323,0.107c0.104,0.118,0.253,0.256,0.46,0.395l0.094,0.04l0.438,0.155h0.045
					c0.07,0,0.141,0.145,0.209,0.195c0.478,0.342,0.928,0.709,1.4,0.956l0.157-0.287l0.979,0.863
					c0.221,0.194,0.434,0.501,0.658,0.826c0.168,0.241,0.351,0.504,0.563,0.762l0.045,0.594l0.501,0.199
					c0.01,0.021,0.02,0.043,0.029,0.064c0.023,0.052,0.05,0.105,0.076,0.16l-0.141,0.326C39.872,18.372,39.857,18.382,39.846,18.392
					z"/>
			</g>
			<path fill="#F9A737" d="M49.086,31.791c0.07-0.279,0.034-0.609,0.096-0.902c0.141-0.685,0.357-1.289,0.385-2
				c0.024-0.627-0.086-1.225-0.094-1.867c-0.007-0.479-0.05-0.635-0.086-0.953c-0.107-0.927-0.107-1.689-0.449-2.058
				c-0.256-0.62-0.48-1.392-0.766-1.899c-0.045-0.079-0.061-0.264-0.079-0.294c-0.741-1.278-1.7-1.868-2.532-3.178
				c-0.211-0.062-0.482-0.054-0.777-0.207c-0.133-0.068-0.289-0.276-0.412-0.312c-0.458-0.123-0.797,0.294-1.266-0.071
				c-0.098,0.013-0.082,0.109-0.129,0.159c-0.686,0.294-1.183,0.723-1.759,0.85c-0.184,0.428-0.575,0.52-0.784,0.86
				c-0.127,0.209-0.205,0.539-0.322,0.771c-0.139,0.268-0.228,0.521-0.391,0.747c-0.213,0.068-0.178,0.315-0.348,0.416
				c-0.046,0.322-0.176,0.586-0.238,0.899c-0.066,0.045-0.093,0.121-0.182,0.148c-0.239,0.676-0.604,1.316-0.688,2.078
				c-0.01,0.069-0.021,0.216-0.017,0.301c0.048,0.56-0.06,1.428-0.388,1.684c-0.032,0.096,0.039,0.1,0.007,0.195
				c-0.147,0.05-0.443,0.3-0.474,0.537c-0.006,0.082,0.158,0.256,0.16,0.445c0.002,0.285-0.312,0.482-0.33,0.729
				c-0.014,0.111,0.127,0.273,0.131,0.4c0.018,0.33-0.262,0.912-0.418,1.127c-0.119,0.174-0.283,0.185-0.315,0.336
				c-0.033,0.137,0.065,0.299,0.28,0.385c0.142,0.293,0,0.646-0.207,0.992c-0.205,0.347-0.473,0.679-0.569,1.004
				c-0.419,0.271-0.461,0.809-0.796,1.126c-0.068,0.062-0.186,0.102-0.248,0.168c-0.104,0.112-0.182,0.327-0.301,0.491
				c-0.206,0.283-0.445,0.467-0.615,0.707c-0.523,0.037-0.573,0.496-0.895,0.692c-0.121,0.07-0.285,0.063-0.418,0.144
				c-0.108,0.069-0.177,0.205-0.306,0.271c-0.129,0.064-0.305,0.051-0.426,0.114c-0.093,0.047-0.138,0.138-0.216,0.168
				c-0.104,0.039-0.197,0.005-0.299,0.065c-0.105,0.061-0.172,0.22-0.284,0.276c-0.407,0.222-0.905,0.265-1.257,0.595
				c-0.792,0.025-1.411,0.454-2.358,0.332c-0.225,0.077-0.395,0.129-0.638,0.074c-0.054,0.023-0.052,0.096-0.138,0.089
				c-0.479-0.085-1.008,0.144-1.505-0.024c-0.021,0.031-0.046,0.062-0.081,0.078c-0.683-0.223-1.526-0.431-2.108-0.433
				c-0.367-0.268-0.894-0.269-1.391-0.479c-0.233-0.096-0.422-0.276-0.646-0.352c-0.445-0.145-0.931-0.519-1.322-0.729
				c-0.118-0.062-0.271-0.065-0.388-0.127c-0.21-0.115-0.363-0.336-0.588-0.456c-0.882-0.466-1.611-1.361-2.146-2.025
				c-0.169-0.204-0.383-0.325-0.59-0.548c-0.342-0.371-0.486-0.895-0.766-1.309c-0.07-0.104-0.184-0.182-0.248-0.278
				c-0.174-0.25-0.246-0.537-0.387-0.823c-0.331-0.699-0.759-1.392-0.813-2.14c-0.448-0.851-0.599-2.235-0.638-3.323
				c-0.168-0.244-0.024-0.48-0.037-0.732c-0.044-0.779-0.097-1.823,0.219-2.604c0.246-1.728,0.946-3.424,1.939-4.895
				c0.994-1.479,2.269-2.733,3.678-3.783c0.295-0.04,0.625-0.31,0.802-0.498c0.083,0.047,0.224-0.031,0.345-0.063
				c0.312-0.374,0.892-0.446,1.396-0.673c0.07-0.232,0.437-0.199,0.598-0.397c0.117,0.078-0.091,0.123,0.074,0.136
				c0.247-0.458,1.508-0.563,2.047-0.707c-0.039,0.004-0.054-0.048-0.006-0.061c0.145,0.071,0.189-0.108,0.343-0.12
				c1.011-0.131,1.759-0.463,2.685-0.509c0.11,0.058,0.392,0.245,0.513,0.129c-0.16-0.041-0.368-0.056-0.339-0.2
				c0.269,0.079,0.634,0.063,0.837-0.019c0.343,0.044,0.499,0.153,0.823,0.114c0.073,0.019-0.039-0.164,0.119-0.125
				c0.456,0.187,0.728,0.129,1.125,0.326c0.162-0.095,0.672,0.032,0.793,0.16c0.156-0.005-0.107-0.165,0.02-0.154
				c0.393,0.099,0.768,0.191,1.068,0.429c0.109-0.021,0.203-0.075,0.352-0.029c0.098,0.036-0.085,0.109,0.073,0.139
				c0.163-0.007-0.041-0.174,0.034-0.252c0.207,0.047,0.203-0.036,0.334-0.064c0.223,0.204,0.476,0.147,0.733,0.234
				c0.267,0.089,0.505,0.29,0.753,0.394c0.211,0.092,0.354,0.056,0.567,0.206c0.176,0.119,0.258,0.312,0.452,0.441
				c0.113,0.054,0-0.141,0.146-0.039c0.688,0.464,1.329,0.982,1.902,1.281c-0.841-0.486-1.212-1.115-2.009-1.438
				c-0.021-0.183-0.348-0.147-0.348-0.365c-0.09,0.032,0.036,0.185-0.107,0.07c-0.045-0.043-0.045-0.085-0.131-0.128
				c0.188-0.069,0.041-0.166,0.043-0.297c-0.604-0.38-1.125-0.59-1.672-0.865c-0.119-0.016,0.029,0.116-0.099,0.084
				c-0.22-0.079-0.368-0.178-0.637-0.25c-0.024-0.144-0.173-0.27-0.019-0.373c0.756,0.34,1.879,0.669,2.734,1.215
				c0.26,0.164,0.445,0.445,0.7,0.396c-0.399-0.221-0.587-0.597-0.914-0.83c-0.427-0.298-0.997-0.405-1.422-0.669
				c-0.119-0.076-0.148-0.148-0.263-0.205c-0.09-0.045-0.281-0.038-0.381-0.089c-0.109-0.057-0.089-0.118-0.187-0.156
				c-0.203-0.072-0.392-0.05-0.61-0.14C32.027,9.33,31.699,9.09,31.271,8.99c-0.061-0.076,0.015-0.191,0.117-0.182
				c0.493,0.175,0.58,0.197,1.082,0.385c-0.051-0.035-0.074-0.074-0.052-0.12c0.149,0.071,0.19,0.128,0.322,0.104
				c-0.372-0.145-0.255-0.348-0.085-0.395c0.923,0.409,2.078,0.891,2.738,1.412c0.111-0.006,0.209-0.048,0.351,0.014
				c0.841,0.445,1.642,1.151,2.442,1.776c-0.746-0.911-1.799-1.579-2.994-2.199c-0.029-0.051,0.049-0.101-0.077-0.152
				c-0.54-0.219-1.128-0.542-1.546-0.7L33.198,8.33c-1.36-0.45-2.226-1.265-3.63-1.553c0.024-0.089-0.08-0.137-0.11-0.208
				c0.127-0.051,0.222-0.131,0.367-0.168c0.231,0.045,0.483,0.047,0.67,0.162c1.263,0.018,2.862,0.773,4.282,1.33
				c0.234-0.048,0.156-0.218,0.096-0.39c-0.641-0.414-1.352-0.495-2.031-0.945c-0.15-0.43,0.221-0.566,0.822-0.348
				c1.003,0.343,2.602,1.228,3.143,1.645c2.745,1.449,4.961,3.705,6.836,6.272c-0.922-1.528-2.138-2.66-3.193-3.845
				c-0.041,0.053-0.102,0.032-0.188-0.056c-1.111-1.097-2.531-2.127-3.771-2.71c-0.387-0.486-1.487-0.773-1.928-1.204
				c0.271-0.25,0.787-0.19,1.375,0.022c-0.568-0.274-1.057-0.628-1.541-0.855c-0.396-0.188-1.141-0.362-1.328-0.5
				c-0.043-0.035,0.076-0.066-0.021-0.104c0.169,0.064-0.31-0.088-0.348-0.091c-0.241-0.035-0.205-0.002-0.47-0.093
				c-0.347-0.117-0.338-0.121-0.539-0.258c-1.207-0.389-2.438-0.508-3.687-0.697c-0.128-0.02-0.395-0.036-0.415-0.04
				c-0.118-0.03-0.012-0.082-0.169-0.104c-0.089-0.013-0.054,0.062-0.186,0.045c-0.492-0.056-1.061-0.098-1.559-0.083
				c-1.242,0.029-2.722,0.122-3.721,0.339c-0.228,0.023,0.047-0.138-0.256-0.074c-1.744,0.283-3.56,0.835-5.272,1.653
				c-0.133,0.055-0.089-0.114-0.269-0.002c-0.246,0.098-0.12,0.201-0.332,0.303c-0.147,0.035-0.288,0.059-0.391,0.037
				c-1.979,0.974-3.736,2.495-5.231,4.182c-1.401,1.57-2.599,3.316-3.465,5.097c-0.688,1.404-1.083,2.839-1.532,4.146
				c-0.389,1.817-0.624,3.4-0.681,5.128c-0.039,1.242-0.037,2.621,0.169,3.649c0.032,0.178,0.132,0.379,0.163,0.586
				c0.049,0.312,0.001,0.645,0.062,0.954c0.161,0.843,0.496,1.657,0.746,2.464c0.281,0.905,0.591,1.765,0.965,2.615
				c0.215,0.479,0.522,0.889,0.776,1.34c0.168,0.301,0.274,0.654,0.463,0.961c0.52,0.863,1.219,1.623,1.785,2.383
				c0.759,1.011,1.574,2.062,2.638,2.812c1.007,1.014,2.432,2.037,3.648,2.665c0.849,0.765,2.011,1.058,3.161,1.554
				c0.123,0.053,0.189,0.129,0.312,0.187c0.871,0.409,1.862,0.661,2.816,0.827c0.954,0.173,1.872,0.257,2.643,0.406
				c0.595-0.105,1.081,0.096,1.631,0.139c0.592,0.046,1.138-0.07,1.703-0.108c0.186-0.015,0.358,0.032,0.547,0.024
				c0.577-0.031,1.123-0.201,1.742-0.328c0.918-0.19,1.971-0.176,2.96-0.668c0.831-0.145,2.05-0.496,2.851-1.053
				c1.568-0.521,2.84-1.644,4.192-2.623c0.457-0.332,0.954-0.562,1.272-1.062c0.541-0.295,0.971-0.876,1.457-1.411
				c0.481-0.527,1.017-1.06,1.479-1.654c0.667-0.85,1.216-2.056,1.865-2.627c0.779-0.031,0.193-1.113,0.628-1.836
				c0.296-0.369,0.452-0.246,0.753-0.344c0.24-0.352,0.309-0.742,0.376-1.141C48.534,32.65,48.926,32.404,49.086,31.791z
				 M31.561,10.247c-0.021,0.029-0.012,0.053,0.02,0.072C31.439,10.42,31.318,10.15,31.561,10.247z M31.667,10.225
				c0.349,0.115,0.883,0.196,1.082,0.411c0.065,0.031,0.013-0.183,0.136-0.167c0.114,0.133,0.26,0.267,0.504,0.391
				c-0.098,0.228-0.515-0.144-0.631,0.048c-0.178-0.104-0.265-0.159-0.396-0.09c-0.353-0.244-0.496-0.135-0.76-0.328
				C31.73,10.386,31.587,10.367,31.667,10.225z"/>
		</g>
	</g>
</g>
</svg>
