<?xml version="1.0" encoding="utf-8"?>
<!-- Generator: Adobe Illustrator 16.0.0, SVG Export Plug-In . SVG Version: 6.00 Build 0)  -->
<!DOCTYPE svg PUBLIC "-//W3C//DTD SVG 1.1//EN" "http://www.w3.org/Graphics/SVG/1.1/DTD/svg11.dtd">
<svg version="1.1" xmlns="http://www.w3.org/2000/svg" xmlns:xlink="http://www.w3.org/1999/xlink" x="0px" y="0px" width="60px"
	 height="58px" viewBox="0 0 60 58" enable-background="new 0 0 60 58" xml:space="preserve">
<g id="Pressed_states" display="none">
	<g id="buttons_pressed" display="inline">
	</g>
	<g id="buttons_pressed_on" display="inline">
	</g>
	<g id="buttons_pressed_copy" display="inline">
	</g>
	<g id="DrawingToolsButtonsTaped" display="inline">
	</g>
	<g display="inline">
		<g>
			<g>
				<path fill="#FFAA00" d="M56.876,8.608c0-2.966-2.507-5.367-5.6-5.367H8.716c-3.093,0-5.6,2.401-5.6,5.367v40.787
					c0,2.964,2.507,5.365,5.6,5.365h42.561c3.093,0,5.6-2.401,5.6-5.365V8.608z"/>
			</g>
			<defs>
				<filter id="Adobe_OpacityMaskFilter" filterUnits="userSpaceOnUse" x="3.116" y="3.241" width="53.76" height="51.52">
					
						<feColorMatrix  type="matrix" values="-1 0 0 0 1  0 -1 0 0 1  0 0 -1 0 1  0 0 0 1 0" color-interpolation-filters="sRGB" result="source"/>
				</filter>
			</defs>
			<mask maskUnits="userSpaceOnUse" x="3.116" y="3.241" width="53.76" height="51.52" id="SVGID_2_">
				<g filter="url(#Adobe_OpacityMaskFilter)">
					<image overflow="visible" width="58" height="56" xlink:href="A0744C.jpg"  transform="matrix(1 0 0 1 1.1064 1.1406)">
					</image>
				</g>
			</mask>
			<g opacity="0.31" mask="url(#SVGID_2_)">
				<path d="M56.876,8.608c0-2.966-2.507-5.367-5.6-5.367H8.716c-3.093,0-5.6,2.401-5.6,5.367v40.787c0,2.964,2.507,5.365,5.6,5.365
					h42.561c3.093,0,5.6-2.401,5.6-5.365V8.608z"/>
			</g>
		</g>
		<linearGradient id="SVGID_4_" gradientUnits="userSpaceOnUse" x1="29.9961" y1="56.1611" x2="29.9961" y2="2.075">
			<stop  offset="0" style="stop-color:#FFFFFF"/>
			<stop  offset="0.2309" style="stop-color:#FBFBFB"/>
			<stop  offset="0.4598" style="stop-color:#EFEFEF"/>
			<stop  offset="0.6879" style="stop-color:#DBDBDB"/>
			<stop  offset="0.9144" style="stop-color:#C0C0C0"/>
			<stop  offset="1" style="stop-color:#B3B3B3"/>
		</linearGradient>
		<path fill="url(#SVGID_4_)" d="M51.276,55.881H8.716c-3.705,0-6.72-2.909-6.72-6.485V8.608c0-3.578,3.015-6.487,6.72-6.487h42.561
			c3.705,0,6.72,2.909,6.72,6.487v40.787C57.996,52.972,54.981,55.881,51.276,55.881z M8.716,4.36c-2.47,0-4.479,1.906-4.479,4.248
			v40.787c0,2.34,2.01,4.245,4.479,4.245h42.561c2.47,0,4.479-1.905,4.479-4.245V8.608c0-2.342-2.01-4.248-4.479-4.248H8.716z"/>
		<path fill="#FFFFFF" d="M17.028,16.11c0.661-1.162,1.419-1.98,1.688-1.826l14.716,8.399c0.881,0.647,0.695,1.646,0.033,2.807l0,0
			c-0.665,1.163-1.486,1.831-2.354,1.446l-14.797-8.444C16.047,18.34,16.363,17.273,17.028,16.11L17.028,16.11z"/>
		<g>
			<g>
				<path fill="#FFFFFF" d="M46.419,27.302c0,0-0.314-2.668-9.368-8.071l-7.171-7.156c-0.111-0.11-0.51,0.106-0.891,0.489
					c-0.382,0.383-1.143,1.325-1.031,1.437l0.429,0.428l-2.018,2.057l7.462,4.294c1.311,0.593,1.941,2.053,1.941,3.541
					c0,2.323-1.884,4.207-4.207,4.207c-1.142,0-2.241-0.332-3.145-0.891l-8.535-4.545l-5.668,5.776l-0.465-0.464
					c-0.112-0.112-0.521,0.119-0.914,0.51c-0.393,0.396-0.621,0.803-0.509,0.915l16.133,16.101c0.112,0.111,0.521-0.117,0.914-0.51
					c0.394-0.394,0.621-0.804,0.51-0.915l-0.314-0.313L43.71,30.009c0.228,2.125-3.391,8.265,1.216,8.689
					c3.669,0.175,1.83-2.584,2.669-5.854C48.104,30.478,46.419,27.302,46.419,27.302z"/>
			</g>
		</g>
	</g>
	<g id="DrawingsShapesStrokesTaped" display="inline">
	</g>
</g>
<g id="Layer_17" display="none">
</g>
<g id="unpress_states">
	<g id="Buttons_copy">
	</g>
	<g id="Buttons_on">
	</g>
	<g id="Buttons">
	</g>
	<g id="DrawingToolsButtonsDefault">
		<g>
			<linearGradient id="SVGID_6_" gradientUnits="userSpaceOnUse" x1="29.9961" y1="3.8008" x2="29.9961" y2="55.5145">
				<stop  offset="0.3573" style="stop-color:#FFFFFF"/>
				<stop  offset="0.5178" style="stop-color:#FBFBFB"/>
				<stop  offset="0.6599" style="stop-color:#F1F1F1"/>
				<stop  offset="0.7949" style="stop-color:#DFDFDF"/>
				<stop  offset="0.9249" style="stop-color:#C5C5C5"/>
				<stop  offset="1" style="stop-color:#B3B3B3"/>
			</linearGradient>
			<path fill="url(#SVGID_6_)" d="M56.876,8.608c0-2.966-2.507-5.367-5.6-5.367H8.716c-3.093,0-5.6,2.401-5.6,5.367v40.787
				c0,2.964,2.507,5.365,5.6,5.365h42.561c3.093,0,5.6-2.401,5.6-5.365V8.608z"/>
			<linearGradient id="SVGID_8_" gradientUnits="userSpaceOnUse" x1="29.9961" y1="55.8809" x2="29.9961" y2="2.8623">
				<stop  offset="0" style="stop-color:#FFFFFF"/>
				<stop  offset="0.2309" style="stop-color:#FBFBFB"/>
				<stop  offset="0.4598" style="stop-color:#EFEFEF"/>
				<stop  offset="0.6879" style="stop-color:#DBDBDB"/>
				<stop  offset="0.9144" style="stop-color:#C0C0C0"/>
				<stop  offset="1" style="stop-color:#B3B3B3"/>
			</linearGradient>
			<path fill="url(#SVGID_8_)" d="M51.276,55.881H8.716c-3.705,0-6.72-2.909-6.72-6.485V8.608c0-3.578,3.015-6.487,6.72-6.487
				h42.561c3.705,0,6.72,2.909,6.72,6.487v40.787C57.996,52.972,54.981,55.881,51.276,55.881z M8.716,4.36
				c-2.47,0-4.479,1.906-4.479,4.248v40.787c0,2.34,2.01,4.245,4.479,4.245h42.561c2.47,0,4.479-1.905,4.479-4.245V8.608
				c0-2.342-2.01-4.248-4.479-4.248H8.716z"/>
			<g>
				<g>
					<path fill="#606060" d="M46.419,27.302c0,0-0.314-2.669-9.369-8.072l0.007,0.006l-7.177-7.161
						c-0.111-0.11-0.51,0.106-0.891,0.489c-0.382,0.383-1.143,1.325-1.031,1.437l0.429,0.428L14.218,28.867l-0.465-0.464
						c-0.112-0.112-0.521,0.119-0.914,0.51c-0.393,0.396-0.621,0.803-0.509,0.915l16.133,16.101c0.112,0.111,0.521-0.117,0.914-0.51
						c0.394-0.394,0.621-0.804,0.51-0.915l-0.314-0.313L43.71,30.009c0.228,2.125-3.391,8.265,1.216,8.689
						c3.669,0.175,1.83-2.584,2.669-5.854C48.104,30.478,46.419,27.302,46.419,27.302z M31.565,28.526
						c-2.323,0-4.206-1.884-4.206-4.207c0-2.322,1.883-4.206,4.206-4.206s4.207,1.884,4.207,4.206
						C35.772,26.643,33.889,28.526,31.565,28.526z"/>
				</g>
			</g>
			<path fill="#FFFFFF" stroke="#606060" stroke-width="1.12" stroke-miterlimit="10" d="M17.028,16.11
				c0.661-1.162,1.419-1.98,1.688-1.826l14.866,8.484c0.753,0.527,0.545,1.561-0.117,2.722l0,0
				c-0.665,1.163-1.729,1.741-2.434,1.401l-14.717-8.399C16.047,18.34,16.363,17.273,17.028,16.11L17.028,16.11z"/>
		</g>
	</g>
	<g id="DrawingsShapesStrokesDefault">
	</g>
</g>
<g id="Layer_21">
</g>
<g id="Layer_22">
</g>
<g id="Layer_23" display="none">
</g>
</svg>
