<?xml version="1.0" encoding="utf-8"?>
<!-- Generator: Adobe Illustrator 15.0.0, SVG Export Plug-In . SVG Version: 6.00 Build 0)  -->
<!DOCTYPE svg PUBLIC "-//W3C//DTD SVG 1.1//EN" "http://www.w3.org/Graphics/SVG/1.1/DTD/svg11.dtd">
<svg version="1.1" id="Layer_1" xmlns="http://www.w3.org/2000/svg" xmlns:xlink="http://www.w3.org/1999/xlink" x="0px" y="0px"
	 width="60px" height="58px" viewBox="0 0 60 58" enable-background="new 0 0 60 58" xml:space="preserve">
<g id="Pressed_states">
	<g>
		<path fill="#FFAA00" d="M56.876,8.608c0-2.966-2.507-5.367-5.601-5.367H8.716c-3.093,0-5.6,2.401-5.6,5.367v40.787
			c0,2.965,2.507,5.365,5.6,5.365h42.562c3.093,0,5.6-2.4,5.6-5.365L56.876,8.608L56.876,8.608z"/>
		<path fill-opacity="0.17" d="M51.277,4.36H8.716c-2.47,0-4.479,1.906-4.479,4.248v40.787c0,2.34,2.01,4.246,4.479,4.246h42.562
			c2.47,0,4.479-1.906,4.479-4.246V8.608C55.756,6.266,53.746,4.36,51.277,4.36z M52.756,49.395c0,0.676-0.677,1.246-1.479,1.246
			H8.716c-0.802,0-1.479-0.57-1.479-1.246V8.608c0-0.676,0.677-1.248,1.479-1.248h42.562c0.802,0,1.479,0.572,1.479,1.248V49.395z"
			/>
		
			<linearGradient id="SVGID_1_" gradientUnits="userSpaceOnUse" x1="29.9966" y1="2.8394" x2="29.9966" y2="56.9254" gradientTransform="matrix(1 0 0 -1 0 59)">
			<stop  offset="0" style="stop-color:#FFFFFF"/>
			<stop  offset="0.2309" style="stop-color:#FBFBFB"/>
			<stop  offset="0.4598" style="stop-color:#EFEFEF"/>
			<stop  offset="0.6879" style="stop-color:#DBDBDB"/>
			<stop  offset="0.9144" style="stop-color:#C0C0C0"/>
			<stop  offset="1" style="stop-color:#B3B3B3"/>
		</linearGradient>
		<path fill="url(#SVGID_1_)" d="M51.275,55.881H8.716c-3.705,0-6.72-2.908-6.72-6.484V8.608c0-3.578,3.015-6.487,6.72-6.487h42.562
			c3.705,0,6.72,2.909,6.72,6.487v40.787C57.996,52.973,54.98,55.881,51.275,55.881z M8.716,4.36c-2.47,0-4.479,1.906-4.479,4.248
			v40.787c0,2.34,2.01,4.246,4.479,4.246h42.562c2.47,0,4.479-1.906,4.479-4.246V8.608c0-2.342-2.01-4.248-4.479-4.248H8.716z"/>
		<path fill="#FFFFFF" d="M17.028,16.11c0.661-1.162,1.419-1.98,1.688-1.826l14.716,8.399c0.881,0.647,0.695,1.646,0.033,2.807l0,0
			c-0.665,1.163-1.486,1.831-2.354,1.446l-14.797-8.444C16.047,18.34,16.363,17.273,17.028,16.11L17.028,16.11z"/>
		<path fill="#FFFFFF" d="M46.419,27.302c0,0-0.313-2.668-9.368-8.071l-7.171-7.156c-0.111-0.11-0.51,0.106-0.891,0.489
			c-0.382,0.383-1.143,1.325-1.031,1.437l0.429,0.428l-2.018,2.057l7.462,4.294c1.312,0.593,1.94,2.053,1.94,3.541
			c0,2.323-1.883,4.207-4.207,4.207c-1.142,0-2.24-0.332-3.145-0.891l-8.535-4.545l-5.668,5.776l-0.465-0.464
			c-0.112-0.112-0.521,0.119-0.914,0.51c-0.393,0.396-0.621,0.803-0.509,0.915L28.462,45.93c0.112,0.111,0.521-0.117,0.914-0.51
			c0.394-0.395,0.621-0.804,0.51-0.915l-0.314-0.313L43.71,30.009c0.228,2.125-3.392,8.265,1.216,8.689
			c3.67,0.175,1.83-2.584,2.67-5.854C48.104,30.479,46.419,27.302,46.419,27.302z"/>
	</g>
</g>
</svg>
