<svg xmlns="http://www.w3.org/2000/svg" width="60" height="58" viewBox="0 0 60 58"><path fill="#FA0" d="M56.876 8.608c0-2.966-2.507-5.367-5.601-5.367H8.716c-3.093 0-5.6 2.401-5.6 5.367v40.787c0 2.965 2.507 5.365 5.6 5.365h42.562c3.093 0 5.6-2.4 5.6-5.365l-.002-40.787z"/><path fill-opacity=".17" d="M51.277 4.36H8.716c-2.47 0-4.479 1.906-4.479 4.248v40.787c0 2.34 2.01 4.246 4.479 4.246h42.562c2.47 0 4.479-1.906 4.479-4.246V8.608c-.001-2.342-2.011-4.248-4.48-4.248zm1.479 45.035c0 .676-.677 1.246-1.479 1.246H8.716c-.802 0-1.479-.57-1.479-1.246V8.608c0-.676.677-1.248 1.479-1.248h42.562c.802 0 1.479.572 1.479 1.248v40.787z"/><linearGradient id="a" gradientUnits="userSpaceOnUse" x1="29.997" y1="2.839" x2="29.997" y2="56.925" gradientTransform="matrix(1 0 0 -1 0 59)"><stop offset="0" stop-color="#fff"/><stop offset=".231" stop-color="#fbfbfb"/><stop offset=".46" stop-color="#efefef"/><stop offset=".688" stop-color="#dbdbdb"/><stop offset=".914" stop-color="silver"/><stop offset="1" stop-color="#b3b3b3"/></linearGradient><path fill="url(#a)" d="M51.275 55.881H8.716c-3.705 0-6.72-2.908-6.72-6.484V8.608c0-3.578 3.015-6.487 6.72-6.487h42.562c3.705 0 6.72 2.909 6.72 6.487v40.787c-.002 3.578-3.018 6.486-6.723 6.486zM8.716 4.36c-2.47 0-4.479 1.906-4.479 4.248v40.787c0 2.34 2.01 4.246 4.479 4.246h42.562c2.47 0 4.479-1.906 4.479-4.246V8.608c0-2.342-2.01-4.248-4.479-4.248H8.716z"/><path fill="#FFF" d="M17.028 16.11c.661-1.162 1.419-1.98 1.688-1.826l14.716 8.399c.881.647.695 1.646.033 2.807-.665 1.163-1.486 1.831-2.354 1.446l-14.797-8.444c-.267-.152.049-1.219.714-2.382z"/><path fill="#FFF" d="M46.419 27.302s-.313-2.668-9.368-8.071l-7.171-7.156c-.111-.11-.51.106-.891.489-.382.383-1.143 1.325-1.031 1.437l.429.428-2.018 2.057 7.462 4.294c1.312.593 1.94 2.053 1.94 3.541a4.207 4.207 0 0 1-4.207 4.207 6.023 6.023 0 0 1-3.145-.891l-8.535-4.545-5.668 5.776-.465-.464c-.112-.112-.521.119-.914.51-.393.396-.621.803-.509.915L28.462 45.93c.112.111.521-.117.914-.51.394-.395.621-.804.51-.915l-.314-.313L43.71 30.009c.228 2.125-3.392 8.265 1.216 8.689 3.67.175 1.83-2.584 2.67-5.854.508-2.365-1.177-5.542-1.177-5.542z"/></svg>