<svg xmlns="http://www.w3.org/2000/svg" viewBox="0 0 108 108"><path opacity=".2" d="M53.8 102.9c-6.9 0-11.8-1.7-11.8-1.7-1.5-.4-2.5-.7-3.4-1-1-.4-1.7-.5-2.6-.9l-.3.4s-2.2-1.1-2.2-1.2l-2-.6.1-.4c-1.6-1-3.2-2-4.7-3.2-.4-.2-.7-.3-1-.5-.5-.2-.9-.4-1.5-.7-1.7-1-3.6-2.3-6.5-5.5-2.2-2.3-3.3-3.8-4.1-4.9-.9-1.3-1.6-2.4-2.7-4.4V78l-.1-.3c-.4-1-.8-1.8-1.1-2.6l-1-2.7H9c-.6-1.8-1.2-3.6-1.7-5.4-.7-1.6-1.2-3.2-1.6-5.1-.6-3-.8-6.1-.5-9.5.4-3.7.8-6 1.1-8 .4-2.2 1-4.5 2.3-7.5.5-1.4 1-2.7 1.6-4l1.2-2.7.3.1c1.2-2 2.4-3.9 3.8-5.8 1.6-2 3.6-4.4 7.1-7.1.6-.6 1.3-1.2 2-1.8l.2-.2c4.8-3.5 10.6-6.2 16.4-7.7.5-.2 1-.3 1.4-.4l3-.8.1.3c.8-.2 1.7-.3 2.4-.3 1.2-.1 2.6-.2 4.1-.2h7.1v.1c.2 0 .4 0 .5.1.9.1 1.8.2 2.6.4l.1-.2 2.7.7c.4.1.9.2 1.3.4h.1c5.8 1.4 11.6 4.1 16.3 7.6l.1.1.2.2c.8.6 1.5 1.3 2 1.8 3.4 2.7 5.5 5.1 7 7.1 1.5 1.9 2.7 3.8 3.8 5.8l.2-.1 1.3 2.6c.6 1.3 1.1 2.7 1.6 4 1.3 3 1.9 5.4 2.3 7.4.4 2.1.8 4.4 1.1 7.9.3 3.6.1 6.7-.5 9.7-.4 1.9-.9 3.5-1.6 5.1-.5 1.8-1.1 3.7-1.7 5.4l.2.1-1 2.7c-.3.8-.7 1.7-1.1 2.6l-.2.2-.2.3c-1.2 2-1.9 3.1-2.7 4.3-.9 1.2-1.9 2.7-4.1 5-2.9 3.2-4.8 4.5-6.4 5.4-.7.4-1.1.6-1.6.8-.3.1-.6.3-1 .5-1.5 1.1-3.1 2.2-4.7 3.2l.1.4-2 .6-2.2 1.2-.3-.4c-1 .3-1.7.5-2.6.8-.9.3-1.9.6-3.4 1 .1 0-4.7 1.7-11.7 1.8"/><path fill="#FFF" d="M50.8 98.9c-6.9 0-11.8-1.7-11.8-1.7-1.5-.4-2.5-.7-3.4-1-1-.4-1.7-.5-2.6-.9l-.3.4s-2.2-1.1-2.2-1.2l-2-.6.1-.4c-1.6-1-3.2-2-4.7-3.2-.4-.2-.7-.3-1-.5-.5-.2-.9-.4-1.5-.7-1.7-1-3.6-2.3-6.5-5.5-2.2-2.3-3.3-3.8-4.1-4.9-.9-1.3-1.6-2.4-2.7-4.4V74l-.1-.3c-.4-1-.8-1.8-1.1-2.6l-1-2.7H6c-.6-1.8-1.2-3.6-1.7-5.4-.7-1.6-1.2-3.2-1.6-5.1-.6-3-.8-6.1-.5-9.5.4-3.7.8-6 1.1-8 .4-2.2 1-4.5 2.3-7.5.5-1.4 1-2.7 1.6-4l1.2-2.7.3.1c1.2-2 2.4-3.9 3.8-5.8 1.6-2 3.6-4.4 7.1-7.1.6-.6 1.3-1.2 2-1.8l.2-.2C26.5 7.7 32.3 5 38.1 3.6c.5-.2 1-.3 1.4-.4l3-.8.1.3c.8-.2 1.7-.3 2.4-.3 1.2-.1 2.6-.2 4.1-.2h7.1v.1c.2 0 .4 0 .5.1.9.1 1.8.2 2.6.4l.1-.2 2.7.7c.4.1.9.2 1.3.4h.1c5.8 1.4 11.6 4.1 16.3 7.6l.1.1.2.2c.8.6 1.5 1.3 2 1.8 3.4 2.7 5.5 5.1 7 7.1 1.5 1.9 2.7 3.8 3.8 5.8l.2-.1 1.3 2.6c.6 1.3 1.1 2.7 1.6 4 1.3 3 1.9 5.4 2.3 7.4.4 2.1.8 4.4 1.1 7.9.3 3.6.1 6.7-.5 9.7-.4 1.9-.9 3.5-1.6 5.1-.5 1.8-1.1 3.7-1.7 5.4l.2.1-1 2.7c-.3.8-.7 1.7-1.1 2.6l-.1.3-.2.3c-1.2 2-1.9 3.1-2.7 4.3-.9 1.2-1.9 2.7-4.1 5-2.9 3.2-4.8 4.5-6.4 5.4-.7.4-1.1.6-1.6.8-.3.1-.6.3-1 .5-1.5 1.1-3.1 2.2-4.7 3.2l.1.4-2 .6-2.2 1.2-.3-.4c-1 .3-1.7.5-2.6.8-.9.3-1.9.6-3.4 1 .1 0-4.7 1.7-11.7 1.8"/><path fill="#355E7C" d="M50.9 95.7c-1.9-.1-4.5-.3-4.5-.3h-.3c-2.7-.3-4.7-.7-6.1-1.1-1.4-.4-2.4-.7-3.2-1-1.1-.4-1.7-.6-2.8-.9l-1.5-.5.3-.8-.8.7c-2.2-1.2-4.4-2.5-6.4-4.1l-1.4-.7c-.4-.2-.8-.4-1.3-.6-1.5-.8-3.1-2-5.7-4.9-2.1-2.2-3-3.5-3.8-4.6-.8-1.2-1.5-2.2-2.6-4.1l-.1-.1-.1-.1c-.4-.9-.7-1.7-1-2.5l.3-.1c-1.1-2.5-2-5.4-2.8-8.1-.6-1.4-1.1-2.9-1.4-4.6-.5-2.7-.7-5.6-.5-8.7.4-3.5.7-5.7 1.1-7.7.4-2 .9-4.2 2.1-7 .4-1.3.9-2.6 1.5-3.9h.1c1.5-2.9 3-5.3 4.8-7.7 1.5-1.9 3.4-4.1 6.6-6.7.6-.6 1.3-1.2 2-1.8l.1-.1.1-.1c4.4-3.3 9.9-5.8 15.3-7.1.5-.2 1-.3 1.4-.4h.7c.3 0 .6 0 1-.1.9-.3 2-.5 3.3-.6 1.2-.1 2.5-.2 3.8-.2h4.3c1 0 2 0 2.9.1 1.2.1 2.4.3 3.4.7.2 0 1 .2 1 .2h.4-.5.7l1.2.3.3.1C68.1 8 73.6 10.5 78 13.7l.1.1.1.1c.7.6 1.4 1.2 2 1.8 3.2 2.5 5.2 4.8 6.6 6.6 1.9 2.5 3.3 4.8 4.8 7.7h.1c.6 1.3 1.1 2.6 1.5 3.9 1.2 2.8 1.7 5 2.1 6.9.4 2 .8 4.2 1.1 7.6.2 3.2.1 6.1-.5 8.8-.4 1.8-.8 3.2-1.5 4.7-.8 2.7-1.7 5.6-2.8 8.1l.2.1c-.3.8-.6 1.6-1 2.5l-.1.1-.1.1c-1.1 1.9-1.8 2.9-2.6 4.1-.8 1.1-1.7 2.5-3.8 4.6-2.6 2.9-4.2 4.1-5.6 4.9-.5.3-.9.5-1.3.7l-1.4.7c-2 1.5-4.1 2.9-6.4 4.1l-.5-.8.3.8-1.5.5c-1.1.3-1.7.5-2.8.9-.8.3-1.8.6-3.2 1-1.4.4-3.4.8-6.1 1.1h-.3c-.1 0-2.5.3-4.5.3"/><path fill="#FFF" d="M46.3 92.2c-2.5-.3-4.4-.7-5.7-1-1.3-.4-2.2-.7-3-.9-1-.4-1.7-.6-2.8-.9l-1.5-.5.1.1c-2.1-1.1-4-2.4-5.9-3.8l-.2-.1-.1-.1c-.7-.4-1.2-.6-1.6-.8-.4-.2-.7-.3-1.1-.5-1-.6-2.4-1.5-4.9-4.3l-.1-.1c-1.9-2-2.8-3.2-3.5-4.2-.7-1-1.3-1.9-2.3-3.6l.1-.1-1.2-2.7c-1-2.3-1.9-5.1-2.6-7.7v-.2l-.1-.2c-.6-1.2-.9-2.5-1.3-4-.5-2.4-.6-5-.4-7.9.3-3.3.7-5.5 1.1-7.3.4-1.8.8-3.8 1.9-6.3l.1-.1v-.1c.3-.9.6-1.8 1-2.7l.4-.7c1.4-2.8 2.8-4.9 4.5-7.3 1.3-1.7 3.1-3.8 6.1-6.1l.1-.1.1-.1c.5-.5 1.2-1.1 1.9-1.7 3.7-2.7 8.2-4.9 12.7-6.2l4.6-.8.2-.2h.1c.6-.2 1.6-.3 2.5-.4 1.1-.1 2.5-.2 3.6-.2h4.2c.8 0 1.8 0 2.6.1s1.6.2 2.2.3c.2.2.4.4.7.6l4.3.6c4.7 1.3 9.3 3.5 13 6.3.7.6 1.4 1.2 1.8 1.7l.1.1.1.1c3 2.3 4.8 4.4 6.1 6.1 1.8 2.3 3.1 4.5 4.5 7.3l.5 1.1.9 2.4v.1l.1.1c1.1 2.5 1.6 4.4 1.9 6.3.3 1.8.7 4 1.1 7.3.2 2.8.1 5.4-.4 7.9-.3 1.5-.7 2.8-1.3 4l-.1.2h.2c-.8 2.7-1.7 5.4-2.6 7.7l-1.2 2.7.1.1c-1 1.6-1.6 2.6-2.3 3.6-.7 1-1.6 2.2-3.5 4.2l-.1.1c-2.3 2.6-3.7 3.6-4.9 4.3-.4.2-.7.4-1.1.5-.4.2-.9.4-1.6.8l-.2.1-.2.1c-1.9 1.4-3.8 2.7-5.9 3.8l.1-.1-1.5.5c-1.1.3-1.8.6-2.9.9-.8.3-1.7.6-3 .9-1.3.3-3.1.8-5.7 1l-4.5.5-4.3-.5z"/><path fill="#355E7C" d="M29.5 76.4s-9.7-9.2-14 0c-.1.3-.2.5-.3.8.4.7.8 1.4 1.3 2.1 2.9 0 9.3-2.9 13-2.9M31.4 72.9S30.7 49.5 14 55.5C2.2 59.8 24.7 66.2 31.4 72.9M83.5 19.7c-6.2 3.8-7.6 15-14.3 19.4-.1.2-.3.5-.4.7-.2.2-.4.4-.6.5-.4.3-.7.4-.9.3 0 0-.7-.8-.1-1.2.1-.3.7-.3.8-.6 5.8-5.1 6.7-17 13.7-21 0 1 1.1 1.3 2.4 1.4l-.6.5zM91.1 32.4s-.1.3-.3.7c-.2.4-.5.9-.9 1.6-.4.6-.9 1.3-1.5 2s-1.2 1.4-1.9 2.1c-.7.7-1.4 1.4-2.1 2-.7.6-1.4 1.1-1.9 1.5-.6.4-1.1.8-1.4 1-.3.2-.5.4-.5.4-.2.2-2.2 2.3-2.3 2-.2-.2 1.1-1.1-2.3-3.8 1.9-1.9 5.6-4.3 8.6-6 1.3-.7 2.3-2 2.8-2.7.5-.7-.5-1.3-.2-1.9.1-1.2.5-3.3.7-3.6.2-.4 1.9 4.1 1.9 4 .2-.4.6-.6 1-.5s.5.7.3 1.2zM67.5 56.4c0 .1 0 .1 0 0 .1.1.1.1 0 0zM67.4 55l-.4.3h.8c-.1-.1-.2-.2-.4-.3zM68.5 51.9C67 52 66 48 63 49c3-2 5 0 5.8 2.8-.1 0-.2.1-.3.1zM73.7 46.9c-2.2-2-3.2-3-6.2-3 4-2 5 0 6.6 2.9-.1.1-.3.1-.4.1zM71.1 49c-1.2-1.4-4.2-1.4-5.2-3.4 3 0 4 1 6 3 0 0-1 0-.5.3-.1.1-.2.1-.3.1z"/><path fill="#355E7C" d="M78.5 44.7c-1.1-1.9-2.9-3.9-5.1-4.8-.3-.1-.6-.2-1-.3C68 38 65 41 63.2 43.9c-.2.2-.3.4-.5.5-2.6 2.7-5.3 5.7-5.3 5.7l-.3.6c-1.5.4-3 1-4.4 1.7-.7.4-1.4.8-2.1 1.3-.2.2-.5.3-.7.5-.3.7-.9 1.3-1.6 1.8-.2.2-.5.4-.7.6-2.3 2.3-3.5 4.9-4.6 7.3-.3.6-.5 1.2-.8 1.8-2 3.3-2 6.3-3.9 9.6-.4.5-.9.9-1.4 1.3-1.1.7-2.5.9-4.4.5-.2.2-.3.4-.4.7-.1.3-.1.6-.1 1 .6 1.2 1.3 2.1 2 2.9l.7.7C38 86 42 83 45.4 84.1c.4-.1.7-.1 1.1-.2 1.7-.4 3.3-1 5.1-1.1.3-.1.6-.2 1-.3 3.2-1 6.3-2.5 9-4.7.8-.6 1.6-1.3 2.3-2.1l1-1.1c.3-.4.7-.8 1-1.2 1.3-1.6 2.4-3.4 3.2-5.3.4-1 .8-2 1-3 .2-1 .3-2.1.2-3.2-.1-1.1-.4-2.1-.7-3.1L69 57s4.3-5.1 7.1-8.4c.1-.2.3-.3.4-.5.6-1.2 1.6-2.2 2.1-3 .1-.1.1-.3-.1-.4zm-11 17.1c-.2.9-.5 1.7-.7 2.5-.2.7-.4 1.3-.6 1.9-.7-.2-1.6-.4-2.6-.6.3-1.2.1-2.8-.1-3.8 0-.2-.4-.3-.5 0-.5 1.3-1.4 2.6-1.4 2.6l-.8-.8c-.4-.5-1.2 1.8-2.3 1.9h-.7c-1.8.2-2.9-.3-3.7-1-.2-.1-.3-.3-.4-.5.3-3-4.7-5-1.7-9.5.2-.2.4-.3.7-.4.2-.1.5-.3.7-.4 1.3-.8 2.6-1.4 4-1.9.3-.1.7-.2 1-.3.4 0 .6.2 1 .3.5.1 1.1 0 1.6.1.4.1.7.7 1.2.8.4.2 1 0 1.4.2.8.4 1.4 1.4 2.1 2 .4.3.9.2 1.2.5.3.3.6.7.8 1 .1.3.2.7.3 1 0 1.5-.2 3.1-.5 4.4zm.5-7.4l-.1-.1c-.4-.4-.5-1.1-.9-1.4-.8-.6-2-.8-2.8-1.2-.9-.5-1.8-.8-2.8-1.2-.3-.1-.7-.2-1-.3 0 0 1.4-2 3-4.2.1-.2.3-.4.4-.6C66 41 69 40 73.2 40.9c.3.1.6.3.8.4 1.6.9 2.8 2.5 4 3.7-2 1-2 3-3.8 3.4l-.6.6c-2.7 2.6-5.6 5.4-5.6 5.4z"/><path fill="#355E7C" d="M56.7 52s2.6-.7 1.8 0c-1.2 1.1-3.1.5-3.4 2.4-.2 1.2 1.2-1.5 4-1.3 1.7.1-.8 2-.9 3.4s2.5-3.2 3.7-2.5 1.2 1.6 1.2 3.5c0 2.1 1-.6 1-2.7s2.2 1.5 2.1 3.3 1.4-2.4.7-3.6-4.5-3.8-6.9-3.8-3.3 1.3-3.3 1.3z"/></svg>