<svg xmlns="http://www.w3.org/2000/svg" width="60" height="58" viewBox="0 0 60 58"><linearGradient id="d" gradientUnits="userSpaceOnUse" x1="29.996" y1="3.801" x2="29.996" y2="55.514"><stop offset=".357" stop-color="#fff"/><stop offset=".518" stop-color="#fbfbfb"/><stop offset=".66" stop-color="#f1f1f1"/><stop offset=".795" stop-color="#dfdfdf"/><stop offset=".925" stop-color="#c5c5c5"/><stop offset="1" stop-color="#b3b3b3"/></linearGradient><path fill="url(#d)" d="M56.876 8.608c0-2.966-2.507-5.367-5.6-5.367H8.716c-3.093 0-5.6 2.401-5.6 5.367v40.787c0 2.964 2.507 5.365 5.6 5.365h42.561c3.093 0 5.6-2.401 5.6-5.365V8.608z"/><linearGradient id="e" gradientUnits="userSpaceOnUse" x1="29.996" y1="55.881" x2="29.996" y2="2.862"><stop offset="0" stop-color="#fff"/><stop offset=".231" stop-color="#fbfbfb"/><stop offset=".46" stop-color="#efefef"/><stop offset=".688" stop-color="#dbdbdb"/><stop offset=".914" stop-color="silver"/><stop offset="1" stop-color="#b3b3b3"/></linearGradient><path fill="url(#e)" d="M51.276 55.881H8.716c-3.705 0-6.72-2.909-6.72-6.485V8.608c0-3.578 3.015-6.487 6.72-6.487h42.561c3.705 0 6.72 2.909 6.72 6.487v40.787c-.001 3.577-3.016 6.486-6.721 6.486zM8.716 4.36c-2.47 0-4.479 1.906-4.479 4.248v40.787c0 2.34 2.01 4.245 4.479 4.245h42.561c2.47 0 4.479-1.905 4.479-4.245V8.608c0-2.342-2.01-4.248-4.479-4.248H8.716z"/><path fill="#606060" d="M46.419 27.302s-.314-2.669-9.369-8.072l.007.006-7.177-7.161c-.111-.11-.51.106-.891.489-.382.383-1.143 1.325-1.031 1.437l.429.428-14.169 14.438-.465-.464c-.112-.112-.521.119-.914.51-.393.396-.621.803-.509.915l16.133 16.101c.112.111.521-.117.914-.51.394-.394.621-.804.51-.915l-.314-.313L43.71 30.009c.228 2.125-3.391 8.265 1.216 8.689 3.669.175 1.83-2.584 2.669-5.854.509-2.366-1.176-5.542-1.176-5.542zm-14.854 1.224a4.207 4.207 0 1 1 .001-8.413 4.207 4.207 0 0 1-.001 8.413z"/><path fill="#FFF" stroke="#606060" stroke-width="1.12" stroke-miterlimit="10" d="M17.028 16.11c.661-1.162 1.419-1.98 1.688-1.826l14.866 8.484c.753.527.545 1.561-.117 2.722-.665 1.163-1.729 1.741-2.434 1.401l-14.717-8.399c-.267-.152.049-1.219.714-2.382z"/></svg>