<svg xmlns="http://www.w3.org/2000/svg" width="58" height="54" viewBox="0 0 58 54"><path fill="#606060" d="M13.039 34.482c.042.035.054.094.054.16-.071-.015-.121-.105-.054-.16zM5.001 38.316c.048.069.154.299.01.295-.036-.132-.006-.196-.01-.295zM4.88 38.756c.069.01.042.203.073.287-.085.012-.106-.227-.073-.287zM6.336 39.664c.056.048.122.189.082.271-.069-.005-.049-.193-.082-.271zM11.813 40.2c.058.202.284.583.19.767.015-.272-.201-.518-.19-.767z"/><path fill="#333" d="M20.123 51.82c-.585-.994-1.049-2.008-1.481-3.002l-.331.111.871 1.573-2.461-.746-1.496 1.277c-.383-.421-.674-.941-.924-1.479l-.296-.438-.077-.118-.053-.131a2.108 2.108 0 0 1-.143-.561 2.142 2.142 0 0 1-.153-.233 3.064 3.064 0 0 1-.254-.613l-.002-.005a1.63 1.63 0 0 1-.53-.328l-.131-.12-.099-.147a1.631 1.631 0 0 1-.106-.185l-.326-.239-.008-.664-.101-.121-.435-.549.019-.095-.146-.077-.043-.845a1.057 1.057 0 0 0-.041-.149 6.105 6.105 0 0 1-.057-.196 1.412 1.412 0 0 1-.128-.216 2.485 2.485 0 0 1-.264-.795c-.286-.271-.588-.752-.49-1.53-.044-.132-.09-.261-.136-.392-.212-.603-.451-1.279-.53-2.162a1.715 1.715 0 0 1-.117-.465l-.024.002c-.074-.429-.05-.901-.025-1.404.013-.244.032-.635.017-.825l-.296-.55.245-.517-.018-.026.074-.588c.058-.445.176-.832.279-1.174.068-.221.152-.494.153-.611l.002-.354.187-.371c.035-.075.082-.177.146-.286.088-.377.262-.897.596-1.345a12.615 12.615 0 0 1 2.924-4.102c.29-.271.604-.539.911-.778.649-.511 1.331-.862 2.022-1.226 1.518-.809 3.173-1.168 4.782-1.168h.129c1.558 0 3.127.282 4.664 1.025l.093-.002.427.259c.495.328 1.007.656 1.526 1.031.725.534 1.136.839 1.542 1.184.159.136.276.268.362.375l.106.03.269.266c.356.355.698.729 1.028 1.09.484.53.986 1.077 1.336 1.327l.256.185.16.271c.148.25.44.496.75.76.148.127.295.251.431.377.108.101.204.203.295.305l.006.008c.083.036.177.084.274.147.234.155.414.329.539.461.138.026.296.071.463.155l.008.004c.121-.053.225-.084.309-.106.094-.059.186-.104.271-.137.075-.08.171-.171.289-.261l.071-.099-.162-.237.973-.723c.031-.08.07-.179.121-.285l.013-.408.224-.209.037-.25.295-.332c.064-.074.105-.189.189-.455.062-.199.141-.444.264-.707.024-.354.117-.648.184-.854l.005-.016a1.783 1.783 0 0 1-.013-.47c.022-.184.07-.341.125-.471.005-.053.015-.107.027-.165a1.54 1.54 0 0 1 .127-.38c0-.09.008-.189.027-.296.023-.139.003-.263.046-.368-.037-.263.05-.663.05-1.093v-.079c0-.079.061-.161.049-.25l.017-.042c-.045-.162-.118-.407-.11-.706.006-.153.045-.286.045-.396v-.014c0-.233-.123-.609-.076-1.054-.045-.257-.045-.503-.052-.722a1.702 1.702 0 0 1-.724-.914c-.13-.37-.118-.765.033-1.165a1.689 1.689 0 0 1-.338-.509 1.9 1.9 0 0 1-.14-.717 1.492 1.492 0 0 1-.229-.455c-.146-.457-.088-.94.087-1.359l-.011-.283.095-.147a1.813 1.813 0 0 0-.111-.354 3.066 3.066 0 0 1-.171-.593c-.145-.771-.008-1.464.102-2.022.026-.134.054-.268.074-.4l.105-.684.096-.06-.005-.661.272-.255c.051-.113.121-.242.219-.373.011-.03.021-.063.031-.095.031-.101.064-.202.104-.308.018-.051.027-.104.041-.158.044-.185.104-.438.227-.694.166-.354.392-.601.541-.764l.062-.067.166-.516.564-.281c.146-.072.354-.25.576-.438.147-.125.307-.262.486-.401.223-.308.506-.468.691-.545l.537-.224.207.074c.219-.107.526-.252.914-.277l.049-.026h.059c.273 0 .499.089.662.152.008-.002.016.008.023.008a3.33 3.33 0 0 1 .385-.041l.604-.029.457.396c.334.289.716.474 1.157.688.487.234 1.042.501 1.601.942.161.131.27.268.34.376.213.196.403.411.59.618.086.096.17.192.256.283.596.366.896.958 1.125 1.409.06.118.123.243.195.371.026.05.049.085.07.12.084.138.2.325.34.652.055.13.141.275.241.444.131.224.28.477.408.777.202.472.272.909.332 1.26.019.117.036.235.063.354l.021.042c.077.152.194.382.259.679.12.561.018 1.023-.07 1.32.098.329.166.736.084 1.204l-.098.555-.012.009a1.716 1.716 0 0 1-.162 1.839c-.002.187.011.456.021.654.018.307.033.624.02.953-.012.344-.049.668-.083.982-.023.215-.046.427-.06.636-.007.118-.007.235-.007.352-.002.339-.004.737-.108 1.159.022.466-.086.855-.158 1.115-.02.069-.041.139-.055.21-.064.347-.104.718-.146 1.11-.082.771-.174 1.635-.501 2.5-.089.863-.445 1.723-.725 2.279-.129.67-.408 1.205-.637 1.646a5.847 5.847 0 0 0-.259.537c-.049.13-.089.259-.129.387-.106.332-.228.709-.444 1.101-.09.163-.191.292-.261.374-.042.089-.077.175-.112.26-.132.309-.293.689-.572 1.078a4.836 4.836 0 0 1-.383.46 2.525 2.525 0 0 0-.181.213l-.097.315-.213.229a15.27 15.27 0 0 0-.648.805c-.232.299-.479.617-.751.938-.776.921-1.553 1.608-2.373 2.103a2.236 2.236 0 0 1-.345.168l-.406.268c-.879.584-1.869 1.242-3.124 1.443a10.793 10.793 0 0 1-3.653.634c-.563 0-1.111-.043-1.631-.127-.781-.023-1.598-.188-2.431-.484a13.285 13.285 0 0 1-2.011-.946 33.57 33.57 0 0 0-.504-.276c-.681-.37-1.384-.754-2.013-1.246a4.326 4.326 0 0 1-.53-.506c-.048-.053-.092-.105-.143-.148-.104-.088-.213-.164-.319-.24-.229-.164-.49-.35-.743-.604a36.056 36.056 0 0 1-1.359-1.455l-.076-.084a7.373 7.373 0 0 0-.509-.49c-.239-.217-.487-.441-.724-.711a2.477 2.477 0 0 1-.308-.453 1.766 1.766 0 0 1-.175-.139c-.313-.279-.588-.588-.855-.887a9.175 9.175 0 0 0-.528-.562 9.249 9.249 0 0 0-.187-.172 3.734 3.734 0 0 0-.201.295l-.147.246c-.082.136-.165.273-.256.419l-.073 1.021-.455.003c-.063.238-.116.49-.16.746a1.603 1.603 0 0 1-.15.498c-.02.306.184.636.204.91l.318.039v1.075c0 .126-.24.249-.271.367.021.233-.035.483.027.769.059.266.069.567.114.891l.023.367-.017.008c.002.007-.003.013-.001.02l.24.479-.077.217.055.29-.022.027.017.071c.031.156.05.317.067.485.01.096.025.24.041.285l-.611.293c.068.201.143.449.169.731.145.318.284.658.422 1.009l.249-.119.453 1.771c.107.423.331.868.59 1.384.194.385.395.783.576 1.231l-2.683 1.326z" opacity=".25"/><path fill="#FFF" d="M16.856 48.436c-.584-.996-1.049-2.008-1.481-3.002l-.331.11.872 1.573-2.462-.746-1.496 1.277c-.383-.42-.674-.941-.924-1.479l-.296-.438-.076-.119-.054-.129a2.114 2.114 0 0 1-.143-.562 2.225 2.225 0 0 1-.152-.232c-.134-.234-.203-.453-.255-.613l-.002-.006a1.635 1.635 0 0 1-.53-.326l-.131-.121-.099-.148a1.619 1.619 0 0 1-.106-.184l-.326-.24-.008-.662-.1-.123-.436-.551.02-.094-.146-.078-.044-.844c0-.02-.021-.086-.04-.149-.017-.058-.037-.123-.057-.196a1.509 1.509 0 0 1-.128-.217 2.428 2.428 0 0 1-.263-.794c-.287-.272-.588-.751-.491-1.53-.043-.133-.09-.262-.136-.392-.212-.603-.45-1.278-.53-2.162a1.73 1.73 0 0 1-.117-.466l-.024.002c-.073-.428-.05-.9-.024-1.402.012-.246.031-.637.017-.826l-.297-.549.244-.518-.019-.025.075-.588c.057-.447.175-.834.278-1.175.067-.221.151-.495.152-.612l.002-.354.187-.371c.036-.076.083-.176.146-.285.088-.379.262-.899.598-1.346a12.571 12.571 0 0 1 2.175-3.34c.227-.251.466-.495.748-.762.29-.271.604-.539.911-.778.648-.511 1.33-.956 2.021-1.32 1.518-.808 3.173-1.244 4.782-1.261l.13-.002c1.558 0 3.126.377 4.663 1.12l.094.045.426.283c.496.329 1.008.669 1.526 1.043.725.534 1.136.845 1.542 1.189.159.136.276.271.362.378l.107.031.268.267c.357.355.699.729 1.029 1.091.484.53.985 1.078 1.335 1.328l.258.184.16.271c.147.249.439.497.748.759.149.127.295.251.432.376a6.398 6.398 0 0 1 .302.314c.081.036.177.084.272.147.235.156.413.328.541.461.137.025.295.07.463.154l.006.004c.121-.053.226-.084.309-.104.094-.06.186-.104.271-.138.074-.079.17-.172.289-.26.021-.033.045-.065.07-.1l-.162-.236.973-.723c.031-.081.069-.18.121-.287l.013-.408.223-.209.038-.25.295-.332c.064-.074.105-.189.189-.455.062-.199.141-.444.264-.707a3.397 3.397 0 0 1 .188-.87 1.827 1.827 0 0 1-.013-.47c.022-.184.071-.341.125-.471.007-.053.017-.107.027-.164.028-.145.075-.273.127-.381.001-.09.009-.189.028-.295.023-.14.137-.264.18-.369-.037-.262.183-.663.183-1.093v-.079c0-.078-.073-.161-.083-.25l-.051-.042c-.044-.162-.129-.407-.122-.706.005-.152.021-.286.048-.396-.001-.005-.006-.009-.007-.014-.058-.233-.149-.608-.101-1.054a4.94 4.94 0 0 1-.065-.721 1.712 1.712 0 0 1-.729-.915 1.657 1.657 0 0 1 .031-1.165 1.616 1.616 0 0 1-.341-.509 1.943 1.943 0 0 1-.141-.717 1.47 1.47 0 0 1-.229-.455c-.146-.456-.088-.94.088-1.358l-.012-.283.094-.148a1.884 1.884 0 0 0-.111-.354 3.029 3.029 0 0 1-.17-.593c-.146-.77-.008-1.464.102-2.021.027-.135.055-.268.074-.4l.105-.685.096-.06-.008-.659.273-.256c.051-.113.12-.242.221-.373l.029-.095c.032-.101.064-.202.104-.308.018-.051.027-.104.041-.158.043-.184.104-.438.226-.693.166-.355.392-.602.541-.765l.063-.067.166-.516.564-.281c.145-.072.354-.25.576-.438.146-.125.308-.261.486-.401.223-.308.506-.467.69-.545l.541-.224.205.074c.22-.106.526-.059.915-.084l.049.167h.059c.273 0 .498-.104.662-.041.008-.001.016-.088.021-.088.138-.023.268-.084.385-.09l.604-.053.457.385c.334.288.717.467 1.158.679.487.235 1.041.498 1.601.939.161.131.269.267.339.374.214.197.404.41.591.619.085.095.17.191.257.281.594.367.895.958 1.123 1.41.061.117.123.242.195.371.027.049.05.084.07.119.084.138.201.326.341.652.055.13.142.275.241.445.131.223.281.477.408.777.2.471.272.908.33 1.26.021.117.037.234.063.354l.021.043c.078.151.195.381.26.678a2.628 2.628 0 0 1-.07 1.32 2.6 2.6 0 0 1 .084 1.204l-.098.555-.012.009a1.712 1.712 0 0 1-.162 1.84c-.002.186.012.455.021.653.018.308.033.624.02.954-.013.343-.048.668-.082.981-.023.216-.048.427-.06.636-.007.119-.007.236-.009.352 0 .339-.002.738-.107 1.159.021.466-.086.855-.158 1.116-.02.068-.039.138-.054.209-.065.348-.104.719-.147 1.11-.082.771-.174 1.636-.5 2.5-.09.864-.446 1.723-.725 2.281-.129.668-.408 1.205-.638 1.646a5.602 5.602 0 0 0-.259.536c-.047.13-.088.259-.129.386-.105.333-.227.71-.443 1.101-.09.166-.191.293-.26.375-.043.09-.078.174-.114.26-.131.309-.293.69-.571 1.078a4.687 4.687 0 0 1-.383.459c-.066.074-.159.176-.182.213l-.096.315-.214.229c-.196.219-.416.503-.649.804-.231.3-.479.618-.75.938-.776.922-1.553 1.609-2.373 2.104a2.335 2.335 0 0 1-.346.168c-.141.091-.272.18-.404.268-.881.584-1.871 1.242-3.125 1.443a10.805 10.805 0 0 1-3.654.634c-.562 0-1.109-.043-1.63-.127-.78-.023-1.599-.188-2.431-.484a13.332 13.332 0 0 1-2.011-.946 29.28 29.28 0 0 0-.504-.276c-.68-.371-1.384-.755-2.013-1.246a4.25 4.25 0 0 1-.53-.507c-.048-.052-.092-.104-.142-.147-.105-.088-.214-.164-.32-.24a5.709 5.709 0 0 1-.743-.604 36.74 36.74 0 0 1-1.359-1.455l-.074-.087c-.142-.157-.32-.318-.509-.489-.239-.218-.487-.441-.723-.712a2.373 2.373 0 0 1-.308-.451 1.803 1.803 0 0 1-.176-.139c-.313-.279-.588-.588-.855-.888a8.905 8.905 0 0 0-.528-.563 13.53 13.53 0 0 0-.187-.172l-.01.014c-.08.107-.136.195-.19.283l-.148.244c-.081.137-.165.274-.256.42l-.073 1.021-.454.009c-.062.238-.116.49-.16.747a1.596 1.596 0 0 1-.149.497 6.703 6.703 0 0 0-.017.912l.097.039.002 1.074a1.593 1.593 0 0 1-.052.367c.021.233.076.483.138.768.058.268.123.568.168.893l.051.366-.003.009.006.019.244.479-.075.217.056.291-.021.026.017.072c.031.155.051.317.068.485.01.097.024.24.04.285l-.61.293c.067.201.144.449.169.731.144.317.284.659.421 1.009l.249-.119.453 1.771c.107.423.331.868.591 1.384.193.385.394.783.576 1.232l-2.686 1.324z"/><path fill="#606060" d="M48.639 11.286c-.043-.204-.203-.401-.255-.612-.122-.493-.129-.969-.333-1.448-.18-.423-.463-.784-.648-1.22-.139-.324-.223-.417-.338-.625-.342-.604-.51-1.146-.91-1.295-.377-.357-.737-.846-1.094-1.131-.055-.044-.104-.174-.125-.191-.908-.719-1.891-.875-2.81-1.67-.202.011-.454.096-.745.058-.129-.017-.295-.141-.412-.134-.437.027-.713.461-1.18.291-.09.037-.066.112-.105.166-.609.428-1.033.916-1.558 1.178-.131.402-.487.586-.646.924-.1.209-.131.5-.215.726-.094.257-.146.493-.265.724-.192.117-.124.313-.267.441.004.28-.071.533-.073.811-.056.057-.067.128-.146.176-.098.627-.307 1.27-.183 1.928.011.059.038.184.065.252.197.445.375 1.189.162 1.521.004.091.072.067.076.157-.119.097-.305.417-.238.624.022.072.244.148.319.303.112.232-.084.521.001.732.041.096.231.168.293.267.16.259.188.846.16 1.091-.02.195-.152.283-.104.42.041.125.209.203.438.164.555.322.245 1.342.475 1.92-.172.436.129.85.082 1.269-.011.083-.074.181-.078.267-.004.143.084.337.106.523.04.318.001.592.052.857-.341.362-.039.691-.104 1.023-.024.123-.14.227-.164.364-.021.115.045.243.013.368-.031.125-.152.235-.177.355-.021.089.022.172-.001.244-.031.093-.113.137-.127.238-.012.109.07.242.057.352-.059.402-.3.771-.209 1.189-.394.563-.332 1.213-.845 1.792-.028.19-.056.331-.198.465 0 .047.062.082.023.136-.262.273-.256.732-.559.957a.204.204 0 0 1 .041.094c-.41.312-.789.688-.908 1.015-.276.048-.373.334-.582.466-.1.062-.229.037-.297.105-.143.14-.369.132-.5.197-.039.021-.066.111-.11.133-.082.037-.161-.043-.228.003-.295.176-.57-.005-.922-.181-.105-.053-.253-.021-.414-.08-.271-.101-.445-.428-.744-.625-.074-.051-.183-.063-.256-.111-.193-.126-.32-.322-.513-.501-.469-.435-1.078-.847-1.448-1.469-.752-.536-1.635-1.666-2.551-2.576-.316-.094-.412-.391-.649-.596a27.92 27.92 0 0 0-1.451-1.117c-.613-.443-1.246-.854-1.819-1.236-1.288-.623-2.698-.99-4.125-.969-1.426.015-2.834.415-4.098 1.088-.634.334-1.235.732-1.799 1.176a11.868 11.868 0 0 0-1.473 1.368 11.003 11.003 0 0 0-1.994 3.127c-.283.28-.444.852-.478 1.182-.097.036-.171.24-.245.387-.004.615-.354 1.261-.443 1.968.157.211-.06.597.05.877-.121.094-.069-.162-.154.019.267.492-.009 1.926.102 2.565.001-.045.054-.053.061.003-.09.153.088.227.084.396.062 1.146.485 1.904.729 2.801-.034.121-.139.449.006.535-.005-.166-.043-.375.104-.381-.011.279.112.629.257.789.071.33.025.515.189.787.012.072.136-.099.162.055.018.473.194.674.216 1.094.162.088.316.549.283.711.091.115.075-.172.137-.07.136.353.282.668.286 1.023.087.062.187.092.246.22.036.087-.139.013-.057.136.112.104.104-.138.212-.136.099.163.159.106.265.171-.005.27.209.387.326.592.121.209.155.478.271.681.099.175.224.221.295.432.058.17.007.349.083.535.06.091.081-.104.139.035.273.646.563 1.284.933 1.688-.517-.645-.489-1.272-.924-1.854.091-.143-.184-.266-.047-.424-.089-.021-.086.149-.126-.002-.007-.051.019-.082-.019-.153.185.04.136-.099.223-.188-.198-.553-.411-.97-.563-1.457-.063-.08-.068.088-.126-.006-.082-.18-.103-.33-.209-.539.096-.1.11-.264.282-.227.175.666.676 1.484.966 2.24.087.229.06.511.287.58-.179-.323-.077-.67-.16-.974-.107-.393-.42-.75-.498-1.145-.021-.111.018-.171-.013-.269-.022-.076-.146-.181-.166-.268-.021-.096.04-.119.011-.197-.06-.16-.19-.26-.237-.443-.076-.309-.045-.638-.163-.965.037-.076.173-.078.214-.007.09.399.114.466.232.866.001-.049.02-.083.07-.094.024.127 0 .182.092.246-.087-.297.145-.328.276-.256.157.748.535 1.609.655 2.231.082.045.177.062.238.16.298.642.498 1.409.845 2.086-.15-.867-.56-1.668-.939-2.597.015-.045.103-.041.055-.131-.212-.377-.336-.858-.456-1.168.084-.177.173-.35.269-.518-.379-.973-.035-1.827-.21-2.77.091-.012.104-.09.161-.129.087.062.192.095.271.17.035.151.113.299.078.447.42.728.513 1.883.958 2.81.179.075.26-.052.358-.169-.056-.484-.376-.853-.322-1.387.3-.263.583-.141.701.225.191.604.486 1.671.577 2.083.8 1.726 1.445 3.524 2.441 5.222-.408-1.006-.987-1.857-1.23-2.809-.06.027-.101.006-.122-.066-.324-.902-.688-1.891-1.054-2.645.097-.396-.343-.961-.226-1.355.352-.01.579.217.766.529-.126-.34-.111-.695-.171-.988-.049-.24-.254-.625-.212-.764.011-.033.092.006.081-.051.019.098-.062-.166-.071-.186-.068-.119-.088-.091-.112-.243-.031-.196-.025-.194.025-.334-.095-.678-.313-1.303-.327-1.959-.003-.067-.024-.202-.021-.214.014-.062.079-.02.08-.1.001-.047-.067-.019-.067-.086 0-.252.005-.534-.019-.776-.062-.606.021-1.294.038-1.737.028-.098.122.038.13-.094.126-.752.321-1.45.562-2.018.026-.038.137.041.142-.027.05-.068-.092-.104-.057-.168a.323.323 0 0 1 .185-.04c.18-.272.321-.524.474-.771.076-.121.155-.242.243-.361.078-.109.214-.26.257-.311.168-.201.411-.345.663-.406.189-.053.433-.137.582.035a.742.742 0 0 1 .355.121c.061.039.085.055.17.125.111.094.269.235.413.371.432.403.894 1.012 1.356 1.426.08.071.217.121.302.217.129.143.183.356.313.508.353.402.827.751 1.218 1.186.438.486.879.979 1.382 1.482.284.285.642.482.965.754.214.18.392.436.633.623.677.529 1.521.947 2.33 1.398.539.305 1.13.606 1.776.84.649.231 1.365.393 2.07.4a8.96 8.96 0 0 0 2.48.07 9.428 9.428 0 0 0 2.291-.543c1.186-.145 2.152-.913 3.158-1.557.105-.069.201-.08.312-.146.786-.473 1.452-1.135 2-1.785.551-.651.994-1.29 1.43-1.776.148-.484.513-.73.771-1.092.279-.388.4-.818.604-1.216.063-.131.18-.221.25-.35.219-.396.311-.83.479-1.283.252-.673.763-1.303.856-2.129.299-.561.67-1.426.688-2.148.488-1.124.428-2.359.654-3.549.076-.403.269-.764.152-1.188.189-.416.121-.935.15-1.455.029-.514.121-1.053.143-1.595.031-.776-.168-1.718.1-2.328.65-.34-.401-.744-.355-1.366.09-.345.283-.332.506-.512.055-.311-.057-.578-.164-.854.003-.331.257-.638.162-1.086zM10.665 41.171c-.036.001-.05.021-.05.052-.16-.045-.001-.275.05-.052zm.076.063c.093.309.343.705.304.957.017.061.149-.101.214-.015-.033.151-.042.322.026.55-.234.086-.227-.404-.442-.363-.031-.18-.044-.271-.177-.316-.021-.381-.189-.422-.179-.717.156.036.093-.076.254-.096z"/></svg>