<svg xmlns="http://www.w3.org/2000/svg" width="58" height="54" viewBox="0 0 58 54"><path fill="#333" d="M20.123 51.82c-.585-.994-1.049-2.008-1.481-3.002l-.331.111.871 1.573-2.461-.746-1.496 1.277c-.383-.421-.674-.941-.924-1.479l-.296-.438-.077-.118-.053-.131a2.108 2.108 0 0 1-.143-.561 2.142 2.142 0 0 1-.153-.233 3.064 3.064 0 0 1-.254-.613l-.002-.005a1.63 1.63 0 0 1-.53-.328l-.131-.12-.099-.147a1.631 1.631 0 0 1-.106-.185l-.326-.239-.008-.664-.101-.121-.435-.549.019-.095-.146-.077-.043-.845a1.057 1.057 0 0 0-.041-.149 6.105 6.105 0 0 1-.057-.196 1.412 1.412 0 0 1-.128-.216 2.485 2.485 0 0 1-.264-.795c-.286-.271-.588-.752-.49-1.53-.044-.132-.09-.261-.136-.392-.212-.603-.451-1.279-.53-2.162a1.715 1.715 0 0 1-.117-.465l-.024.002c-.074-.429-.05-.901-.025-1.404.013-.244.032-.635.017-.825l-.296-.55.245-.517-.018-.026.074-.588c.058-.445.176-.832.279-1.174.068-.221.152-.494.153-.611l.002-.354.187-.371c.035-.075.082-.177.146-.286.088-.377.262-.897.596-1.345a12.615 12.615 0 0 1 2.924-4.102c.29-.271.604-.539.911-.778.649-.511 1.331-.862 2.022-1.226 1.518-.809 3.173-1.168 4.782-1.168h.129c1.558 0 3.127.282 4.664 1.025l.093-.002.427.259c.495.328 1.007.656 1.526 1.031.725.534 1.136.839 1.542 1.184.159.136.276.268.362.375l.106.03.269.266c.356.355.698.729 1.028 1.09.484.53.986 1.077 1.336 1.327l.256.185.16.271c.148.25.44.496.75.76.148.127.295.251.431.377.108.101.204.203.295.305l.006.008c.083.036.177.084.274.147.234.155.414.329.539.461.138.026.296.071.463.155l.008.004c.121-.053.225-.084.309-.106.094-.059.186-.104.271-.137.075-.08.171-.171.289-.261l.071-.099-.162-.237.973-.723c.031-.08.07-.179.121-.285l.013-.408.224-.209.037-.25.295-.332c.064-.074.105-.189.189-.455.062-.199.141-.444.264-.707.024-.354.117-.648.184-.854l.005-.016a1.783 1.783 0 0 1-.013-.47c.022-.184.07-.341.125-.471.005-.053.015-.107.027-.165a1.54 1.54 0 0 1 .127-.38c0-.09.008-.189.027-.296.023-.139.003-.263.046-.368-.037-.263.05-.663.05-1.093v-.079c0-.079.061-.161.049-.25l.017-.042c-.045-.162-.118-.407-.11-.706.006-.153.045-.286.045-.396v-.014c0-.233-.123-.609-.076-1.054-.045-.257-.045-.503-.052-.722a1.702 1.702 0 0 1-.724-.914c-.13-.37-.118-.765.033-1.165a1.689 1.689 0 0 1-.338-.509 1.9 1.9 0 0 1-.14-.717 1.492 1.492 0 0 1-.229-.455c-.146-.457-.088-.94.087-1.359l-.011-.283.095-.147a1.813 1.813 0 0 0-.111-.354 3.066 3.066 0 0 1-.171-.593c-.145-.771-.008-1.464.102-2.022.026-.134.054-.268.074-.4l.105-.684.096-.06-.005-.661.272-.255c.051-.113.121-.242.219-.373.011-.03.021-.063.031-.095.031-.101.064-.202.104-.308.018-.051.027-.104.041-.158.044-.185.104-.438.227-.694.166-.354.392-.601.541-.764l.062-.067.166-.516.564-.281c.146-.072.354-.25.576-.438.147-.125.307-.262.486-.401.223-.308.506-.468.691-.545l.537-.224.207.074c.219-.107.526-.252.914-.277l.049-.026h.059c.273 0 .499.089.662.152.008-.002.016.008.023.008a3.33 3.33 0 0 1 .385-.041l.604-.029.457.396c.334.289.716.474 1.157.688.487.234 1.042.501 1.601.942.161.131.27.268.34.376.213.196.403.411.59.618.086.096.17.192.256.283.596.366.896.958 1.125 1.409.06.118.123.243.195.371.026.05.049.085.07.12.084.138.2.325.34.652.055.13.141.275.241.444.131.224.28.477.408.777.202.472.272.909.332 1.26.019.117.036.235.063.354l.021.042c.077.152.194.382.259.679.12.561.018 1.023-.07 1.32.098.329.166.736.084 1.204l-.098.555-.012.009a1.716 1.716 0 0 1-.162 1.839c-.002.187.011.456.021.654.018.307.033.624.02.953-.012.344-.049.668-.083.982-.023.215-.046.427-.06.636-.007.118-.007.235-.007.352-.002.339-.004.737-.108 1.159.022.466-.086.855-.158 1.115-.02.069-.041.139-.055.21-.064.347-.104.718-.146 1.11-.082.771-.174 1.635-.501 2.5-.089.863-.445 1.723-.725 2.279-.129.67-.408 1.205-.637 1.646a5.847 5.847 0 0 0-.259.537c-.049.13-.089.259-.129.387-.106.332-.228.709-.444 1.101-.09.163-.191.292-.261.374-.042.089-.077.175-.112.26-.132.309-.293.689-.572 1.078a4.836 4.836 0 0 1-.383.46 2.525 2.525 0 0 0-.181.213l-.097.315-.213.229a15.27 15.27 0 0 0-.648.805c-.232.299-.479.617-.751.938-.776.921-1.553 1.608-2.373 2.103a2.236 2.236 0 0 1-.345.168l-.406.268c-.879.584-1.869 1.242-3.124 1.443a10.793 10.793 0 0 1-3.653.634c-.563 0-1.111-.043-1.631-.127-.781-.023-1.598-.188-2.431-.484a13.285 13.285 0 0 1-2.011-.946 33.57 33.57 0 0 0-.504-.276c-.681-.37-1.384-.754-2.013-1.246a4.326 4.326 0 0 1-.53-.506c-.048-.053-.092-.105-.143-.148-.104-.088-.213-.164-.319-.24-.229-.164-.49-.35-.743-.604a36.056 36.056 0 0 1-1.359-1.455l-.076-.084a7.373 7.373 0 0 0-.509-.49c-.239-.217-.487-.441-.724-.711a2.477 2.477 0 0 1-.308-.453 1.766 1.766 0 0 1-.175-.139c-.313-.279-.588-.588-.855-.887a9.175 9.175 0 0 0-.528-.562 9.249 9.249 0 0 0-.187-.172 3.734 3.734 0 0 0-.201.295l-.147.246c-.082.136-.165.273-.256.419l-.073 1.021-.455.003c-.063.238-.116.49-.16.746a1.603 1.603 0 0 1-.15.498c-.02.306.184.636.204.91l.318.039v1.075c0 .126-.24.249-.271.367.021.233-.035.483.027.769.059.266.069.567.114.891l.023.367-.017.008c.002.007-.003.013-.001.02l.24.479-.077.217.055.29-.022.027.017.071c.031.156.05.317.067.485.01.096.025.24.041.285l-.611.293c.068.201.143.449.169.731.145.318.284.658.422 1.009l.249-.119.453 1.771c.107.423.331.868.59 1.384.194.385.395.783.576 1.231l-2.683 1.326z" opacity=".25"/><path fill="#FFF" d="M16.654 48.333c-.585-.995-1.049-2.008-1.481-3.002l-.331.11.871 1.574-2.461-.746-1.496 1.276c-.383-.421-.674-.94-.924-1.479l-.296-.438-.077-.118-.053-.131a2.108 2.108 0 0 1-.143-.561 2.142 2.142 0 0 1-.153-.233c-.133-.233-.203-.453-.254-.612l-.002-.006a1.613 1.613 0 0 1-.53-.328l-.131-.119-.099-.148a1.71 1.71 0 0 1-.106-.184l-.326-.24-.008-.663-.101-.122-.435-.549.019-.094-.146-.078-.043-.844a1.021 1.021 0 0 0-.041-.149 5.532 5.532 0 0 1-.057-.197 1.412 1.412 0 0 1-.128-.216 2.48 2.48 0 0 1-.264-.794c-.286-.272-.588-.752-.49-1.531-.044-.132-.09-.261-.136-.392-.212-.603-.451-1.278-.53-2.161a1.73 1.73 0 0 1-.117-.466l-.024.002c-.074-.428-.05-.901-.025-1.403.013-.245.032-.636.017-.826l-.296-.549.245-.517-.019-.026.074-.588c.058-.446.176-.833.279-1.175.067-.221.151-.494.152-.611l.002-.354.187-.371c.035-.076.082-.178.146-.287.088-.377.262-.897.597-1.344a12.55 12.55 0 0 1 2.176-3.34 13.205 13.205 0 0 1 1.659-1.54c.648-.511 1.33-1.118 2.021-1.481 1.518-.809 3.173-1.424 4.782-1.424h.129c1.558 0 3.127.538 4.664 1.281l.093.125.427.324c.495.328 1.008.688 1.526 1.063.725.535 1.136.855 1.542 1.2.159.136.276.275.362.383l.106.034.269.268c.357.355.699.73 1.029 1.092.484.529.985 1.078 1.335 1.328l.256.184.16.271c.148.249.44.496.75.759.148.127.295.251.43.377.109.101.205.204.296.306l.006.006c.083.037.177.086.274.148.233.156.412.329.539.461.137.026.295.071.463.155l.008.004c.121-.053.225-.084.308-.106.095-.059.187-.104.271-.137.076-.08.172-.171.289-.26l.072-.1-.162-.237.973-.723c.031-.08.07-.179.121-.286l.013-.408.224-.209.037-.25.295-.332c.064-.074.105-.189.189-.455a5.29 5.29 0 0 1 .264-.707c.023-.354.117-.648.184-.854l.004-.016a1.787 1.787 0 0 1-.012-.47c.022-.184.07-.341.125-.471a1.613 1.613 0 0 1 .153-.545c.001-.09.009-.189.028-.296.023-.139.238-.263.281-.368-.037-.263-.717-.663.283-1.093v-.079c0-.079-.174-.161-.186-.25l-.102-.042c-.045-.162-.154-.407-.146-.706.005-.153.007-.286.035-.396 0-.005-.014-.009-.014-.014-.057-.233-.152-.609-.104-1.054a4.95 4.95 0 0 1-.066-.722 1.708 1.708 0 0 1-.73-.914c-.129-.37-.12-.765.031-1.165a1.658 1.658 0 0 1-.342-.509 1.9 1.9 0 0 1-.14-.717 1.492 1.492 0 0 1-.229-.455c-.146-.457-.088-.94.086-1.359l-.01-.283.094-.147a1.953 1.953 0 0 0-.11-.354 3.066 3.066 0 0 1-.171-.593c-.145-.771-.008-1.464.102-2.022.026-.134.055-.268.074-.4l.105-.684.096-.06-.006-.661.273-.255c.051-.113.12-.242.219-.373.012-.03.021-.063.031-.095.031-.101.064-.202.104-.308.018-.051.027-.104.041-.158.044-.185.104-.438.226-.694.166-.354.392-.601.541-.764l.063-.067.166-.516.563-.281c.146-.072.354-.25.577-.438.146-.125.307-.262.486-.401.223-.308.506-.468.69-.545l.538-.224.206.074c.22-.107.527-.008.915-.033l.049.218h.059c.272 0 .498-.155.662-.092.008-.002.016-.113.021-.115.141-.021.27-.095.387-.101l.604-.06.457.381c.334.289.716.465 1.157.678.487.234 1.041.498 1.601.939.161.131.269.266.339.374.214.196.404.409.592.618.084.096.17.19.256.281.594.366.895.958 1.123 1.409.061.118.123.243.195.371.027.05.051.085.071.12.084.138.2.325.34.652.055.13.142.275.241.444.131.224.279.477.408.777.201.472.271.909.33 1.26.02.117.037.235.063.354l.021.042c.078.152.195.382.26.679a2.628 2.628 0 0 1-.07 1.32c.098.329.165.736.083 1.204l-.097.557-.012.009c.15.298.254.681.159 1.139-.034.176-.12.438-.321.7-.002.187.012.456.021.654.018.307.033.624.02.953-.013.344-.049.668-.082.982-.023.215-.047.427-.061.636-.007.118-.007.235-.007.352-.002.339-.004.737-.108 1.159.022.466-.086.855-.158 1.115-.02.069-.041.139-.055.21-.064.347-.105.718-.146 1.11-.082.771-.174 1.635-.5 2.5-.09.864-.446 1.723-.725 2.28-.129.669-.408 1.204-.638 1.646a5.563 5.563 0 0 0-.258.537c-.05.131-.089.26-.13.387-.105.332-.227.709-.443 1.101a2.24 2.24 0 0 1-.261.374c-.042.089-.077.175-.113.26-.131.309-.293.69-.571 1.078a4.836 4.836 0 0 1-.383.46 2.36 2.36 0 0 0-.181.214l-.097.314-.215.229c-.195.219-.416.504-.647.805-.232.3-.479.617-.751.938-.776.921-1.553 1.609-2.373 2.103a2.194 2.194 0 0 1-.346.168c-.141.092-.272.18-.405.268-.88.584-1.87 1.243-3.124 1.444-.799.286-1.659.483-2.504.571a10.512 10.512 0 0 1-2.78-.064 7.994 7.994 0 0 1-2.431-.485 13.393 13.393 0 0 1-2.011-.945 23.74 23.74 0 0 0-.504-.276c-.681-.371-1.384-.755-2.013-1.247a4.252 4.252 0 0 1-.53-.506c-.048-.053-.092-.105-.143-.148-.104-.088-.213-.164-.319-.24-.229-.164-.489-.35-.743-.604a36.056 36.056 0 0 1-1.359-1.455l-.076-.084c-.143-.158-.32-.318-.509-.49-.239-.217-.487-.44-.724-.711a2.443 2.443 0 0 1-.308-.453 1.766 1.766 0 0 1-.175-.139c-.313-.279-.588-.588-.855-.886a8.938 8.938 0 0 0-.528-.563 13.53 13.53 0 0 0-.187-.172 3.542 3.542 0 0 0-.201.295l-.147.246c-.082.137-.165.274-.256.419l-.073 1.021-.454.009c-.063.238-.116.49-.16.747a1.604 1.604 0 0 1-.149.497c-.021.306-.083.636-.062.91l.053.039v1.076c0 .125.025.248-.006.366.021.233.098.484.159.769.059.267-.06.568-.015.892l-.139.367v.008s.2.013.202.019l.341.479-.025.218.081.29-.009.027c.006.022.017.048.023.071.031.156.054.317.07.485.01.097.027.241.042.286l-.611.292c.068.201.144.449.169.731.145.318.285.658.422 1.009l.249-.119.453 1.771c.107.424.331.869.59 1.383.194.387.395.785.576 1.232l-2.679 1.32z"/><path fill="#F9A737" d="M48.438 11.185c-.045-.204-.203-.401-.256-.612-.121-.493-.129-.969-.332-1.448-.181-.425-.463-.785-.65-1.222-.14-.324-.222-.416-.339-.624-.34-.604-.51-1.146-.91-1.295-.376-.357-.736-.846-1.092-1.131-.057-.044-.104-.175-.127-.192-.907-.718-1.891-.875-2.809-1.669-.201.011-.455.096-.746.058-.129-.018-.294-.141-.41-.135-.438.028-.715.461-1.182.292-.089.037-.064.112-.105.165-.608.429-1.032.917-1.557 1.178-.131.403-.486.586-.646.924-.097.209-.129.501-.213.726-.094.257-.146.493-.265.723-.192.118-.124.313-.267.442.005.28-.071.533-.073.81-.056.057-.067.129-.146.177-.099.626-.307 1.27-.183 1.927.011.06.038.185.066.253.196.445.374 1.189.161 1.521.004.091.072.067.076.157-.121.097-.306.416-.237.624.022.072.243.148.319.303.111.231-.086.521 0 .731.041.097.231.168.293.268.16.258.188.846.16 1.091-.02.194-.152.283-.104.42.042.124.209.203.438.164.555.322.244 1.342.475 1.919-.172.437.129.85.082 1.27-.012.083-.075.181-.077.267-.005.142.083.337.106.523.039.318 0 .592.051.857-.342.362-.039.691-.104 1.022-.024.123-.142.228-.164.365-.021.115.044.243.013.368s-.152.235-.178.354c-.02.09.023.173 0 .244-.031.094-.113.137-.127.239-.012.108.071.242.057.352-.06.401-.299.771-.209 1.189-.394.562-.332 1.213-.845 1.792-.028.19-.055.33-.198.465 0 .047.062.082.023.136-.262.273-.256.732-.559.957.021.03.039.062.041.093-.41.313-.789.688-.907 1.016-.277.046-.373.332-.584.466-.099.062-.228.037-.296.104-.143.141-.369.133-.5.197-.039.021-.066.112-.11.133-.082.037-.161-.043-.228.002-.295.178-.571-.004-.922-.179-.106-.054-.252-.021-.414-.081-.271-.1-.446-.428-.744-.625-.075-.05-.184-.062-.258-.111-.19-.125-.318-.321-.512-.5-.468-.436-1.077-.847-1.448-1.47-.751-.536-1.634-1.666-2.55-2.576-.317-.094-.412-.392-.65-.596-.376-.319-.78-.624-1.45-1.117-.614-.444-1.246-.854-1.819-1.236-1.288-.623-2.698-.99-4.125-.97-1.427.016-2.834.416-4.098 1.088-.634.335-1.235.733-1.799 1.176-.281.22-.56.459-.805.688a10.96 10.96 0 0 0-.668.68 10.98 10.98 0 0 0-1.994 3.127c-.284.28-.444.851-.478 1.181-.097.037-.171.241-.245.388-.004.614-.354 1.26-.443 1.967.154.213-.063.6.047.879-.122.095-.069-.162-.155.019.267.493-.009 1.927.103 2.565.001-.045.054-.054.06.004-.089.152.089.226.084.396.063 1.146.485 1.904.73 2.802-.035.12-.14.449.006.535-.005-.167-.043-.376.103-.382-.01.28.113.629.258.789.07.33.025.515.189.788.012.072.135-.1.161.055.018.475.193.676.216 1.096.161.088.316.549.282.711.092.115.076-.172.138-.069.135.353.282.668.286 1.022.086.062.187.092.245.221.036.087-.138.013-.056.135.112.104.103-.137.211-.135.1.162.16.105.266.171-.005.269.208.386.325.591.122.21.155.479.271.682.1.174.225.221.296.43.058.172.007.351.083.535.06.092.081-.104.139.035.273.646.563 1.285.932 1.69-.516-.646-.488-1.274-.923-1.854.091-.144-.185-.266-.047-.425-.089-.019-.087.15-.127 0-.007-.053.019-.083-.018-.153.184.039.135-.1.223-.188-.199-.554-.411-.97-.563-1.458-.063-.08-.068.089-.126-.006-.082-.18-.102-.329-.208-.539.096-.1.11-.264.282-.227.175.666.676 1.484.966 2.239.087.229.06.513.286.58-.179-.321-.077-.669-.159-.972-.107-.393-.421-.75-.498-1.145-.022-.111.017-.172-.013-.27-.022-.075-.146-.18-.166-.268-.021-.096.04-.119.01-.196-.059-.16-.19-.261-.236-.444-.077-.309-.045-.637-.163-.965.037-.075.173-.078.214-.006.09.398.114.465.232.865.001-.049.02-.082.069-.094.025.127.001.182.093.247-.087-.298.145-.329.276-.257.157.748.535 1.61.654 2.232.083.045.177.061.238.158.298.644.499 1.41.846 2.088-.151-.867-.561-1.668-.94-2.598.016-.045.104-.041.055-.13-.212-.378-.335-.858-.455-1.168.083-.177.173-.351.269-.519-.38-.974-.036-1.826-.21-2.769.09-.013.104-.091.161-.131.087.063.191.097.271.17.034.152.113.3.077.447.42.729.514 1.884.959 2.812.178.073.26-.053.357-.17-.055-.484-.375-.852-.321-1.388.3-.263.583-.14.701.226.191.604.486 1.672.577 2.084.8 1.726 1.445 3.524 2.44 5.221-.408-1.006-.986-1.856-1.23-2.81-.059.028-.1.007-.121-.065-.325-.902-.688-1.892-1.054-2.646.096-.396-.343-.959-.226-1.354.352-.01.578.217.766.529-.126-.341-.111-.695-.171-.988-.05-.24-.255-.625-.212-.764.011-.033.092.006.081-.051.019.098-.062-.167-.071-.186-.068-.118-.088-.09-.112-.242-.031-.197-.025-.195.024-.334-.094-.68-.313-1.303-.327-1.96-.002-.068-.023-.202-.021-.214.014-.062.079-.019.081-.1.001-.046-.067-.018-.067-.085 0-.253.005-.534-.019-.776-.062-.608.021-1.295.037-1.738.029-.098.122.039.131-.094.125-.752.32-1.45.561-2.017.026-.04.138.04.143-.028.049-.067-.093-.103-.058-.168a.32.32 0 0 1 .186-.039c.18-.273.321-.525.473-.771.076-.122.155-.243.244-.361.078-.109.214-.259.257-.31.168-.203.411-.347.662-.406.19-.053.433-.137.583.034.133.006.25.057.355.121.061.04.084.054.169.124.112.095.269.235.414.373.432.403.894 1.01 1.356 1.425.08.071.217.121.302.216.129.144.182.358.313.509.354.403.828.752 1.219 1.186.438.486.879.98 1.382 1.482.283.285.642.483.964.754.215.181.393.436.634.623.677.529 1.521.946 2.33 1.399.539.304 1.13.606 1.777.84.648.231 1.365.392 2.068.4a9.337 9.337 0 0 0 4.772-.474c1.187-.144 2.151-.912 3.158-1.556.106-.069.202-.081.313-.147.785-.473 1.451-1.135 1.998-1.783.551-.652.995-1.292 1.43-1.776.148-.485.513-.731.772-1.092.279-.39.4-.819.603-1.217.064-.13.181-.222.25-.351.221-.394.311-.83.479-1.281.252-.674.761-1.303.854-2.129.301-.561.67-1.426.688-2.149.488-1.123.429-2.358.653-3.549.076-.402.27-.764.154-1.187.188-.417.119-.935.149-1.455.029-.515.121-1.053.142-1.595.033-.776-.166-1.718.101-2.328.651-.34-.401-.744-.354-1.366.088-.345.282-.332.504-.512.056-.312-.056-.579-.162-.854.005-.338.261-.643.166-1.091zM10.462 41.068c-.036.002-.051.021-.05.052-.16-.045-.001-.272.05-.052zm.077.064c.093.31.343.706.304.959.017.06.148-.102.214-.015-.033.15-.042.322.025.548-.234.087-.227-.404-.442-.362-.03-.181-.044-.27-.176-.316-.021-.381-.189-.422-.179-.717.156.037.091-.079.254-.097z"/></svg>