<?xml version="1.0" encoding="utf-8"?>
<!-- Generator: Adobe Illustrator 15.0.0, SVG Export Plug-In . SVG Version: 6.00 Build 0)  -->
<!DOCTYPE svg PUBLIC "-//W3C//DTD SVG 1.1//EN" "http://www.w3.org/Graphics/SVG/1.1/DTD/svg11.dtd">
<svg version="1.1" id="Layer_1" xmlns="http://www.w3.org/2000/svg" xmlns:xlink="http://www.w3.org/1999/xlink" x="0px" y="0px"
	 width="58px" height="54px" viewBox="0 0 58 54" enable-background="new 0 0 58 54" xml:space="preserve">
<g id="unpress_states">
	<g id="Buttons_copy">
	</g>
	<g id="Buttons_on">
	</g>
	<g id="Buttons">
	</g>
	<g id="DrawingToolsButtonsDefault">
	</g>
	<g id="DrawingsShapesStrokesDefault">
		<g>
			<path fill="#606060" d="M13.039,34.482c0.042,0.035,0.054,0.094,0.054,0.16C13.022,34.627,12.972,34.537,13.039,34.482z"/>
			<path fill="#606060" d="M5.001,38.316c0.048,0.069,0.154,0.299,0.01,0.295C4.975,38.479,5.005,38.415,5.001,38.316z"/>
			<path fill="#606060" d="M4.88,38.756c0.069,0.01,0.042,0.203,0.073,0.287C4.868,39.055,4.847,38.816,4.88,38.756z"/>
			<path fill="#606060" d="M6.336,39.664c0.056,0.048,0.122,0.189,0.082,0.271C6.349,39.93,6.369,39.742,6.336,39.664z"/>
			<path fill="#606060" d="M11.813,40.2c0.058,0.202,0.284,0.583,0.19,0.767C12.018,40.695,11.802,40.449,11.813,40.2z"/>
			<g opacity="0.25">
				<path fill="#333333" d="M20.123,51.82c-0.585-0.994-1.049-2.008-1.481-3.002l-0.331,0.111l0.871,1.573l-2.461-0.746
					l-1.496,1.277c-0.383-0.421-0.674-0.941-0.924-1.479l-0.296-0.438l-0.077-0.118l-0.053-0.131
					c-0.087-0.212-0.125-0.406-0.143-0.561c-0.05-0.066-0.103-0.145-0.153-0.233c-0.133-0.234-0.203-0.453-0.254-0.613
					c-0.001-0.002-0.001-0.004-0.002-0.005c-0.193-0.072-0.373-0.184-0.53-0.328l-0.131-0.12l-0.099-0.147
					c-0.04-0.061-0.075-0.121-0.106-0.185l-0.326-0.239l-0.008-0.664l-0.101-0.121l-0.435-0.549l0.019-0.095L11.46,44.93
					l-0.043-0.845c-0.001-0.021-0.021-0.086-0.041-0.149c-0.018-0.058-0.037-0.123-0.057-0.196c-0.049-0.067-0.091-0.14-0.128-0.216
					c-0.165-0.309-0.23-0.584-0.264-0.795c-0.286-0.271-0.588-0.752-0.49-1.53c-0.044-0.132-0.09-0.261-0.136-0.392
					c-0.212-0.603-0.451-1.279-0.53-2.162c-0.065-0.162-0.102-0.318-0.117-0.465L9.63,38.182c-0.074-0.429-0.05-0.901-0.025-1.404
					c0.013-0.244,0.032-0.635,0.017-0.825l-0.296-0.55l0.245-0.517l-0.018-0.026l0.074-0.588c0.058-0.445,0.176-0.832,0.279-1.174
					c0.068-0.221,0.152-0.494,0.153-0.611l0.002-0.354l0.187-0.371c0.035-0.075,0.082-0.177,0.146-0.286
					c0.088-0.377,0.262-0.897,0.596-1.345c0.534-1.207,1.283-2.356,2.176-3.34c0.226-0.251,0.466-0.495,0.748-0.762
					c0.29-0.271,0.604-0.539,0.911-0.778c0.649-0.511,1.331-0.862,2.022-1.226c1.518-0.809,3.173-1.168,4.782-1.168h0.129
					c1.558,0,3.127,0.282,4.664,1.025l0.093-0.002l0.427,0.259c0.495,0.328,1.007,0.656,1.526,1.031
					c0.725,0.534,1.136,0.839,1.542,1.184c0.159,0.136,0.276,0.268,0.362,0.375l0.106,0.03l0.269,0.266
					c0.356,0.355,0.698,0.729,1.028,1.09c0.484,0.53,0.986,1.077,1.336,1.327l0.256,0.185l0.16,0.271
					c0.148,0.25,0.44,0.496,0.75,0.76c0.148,0.127,0.295,0.251,0.431,0.377c0.108,0.101,0.204,0.203,0.295,0.305
					c0.002,0.003,0.004,0.005,0.006,0.008c0.083,0.036,0.177,0.084,0.274,0.147c0.234,0.155,0.414,0.329,0.539,0.461
					c0.138,0.026,0.296,0.071,0.463,0.155l0.008,0.004c0.121-0.053,0.225-0.084,0.309-0.106c0.094-0.059,0.186-0.104,0.271-0.137
					c0.075-0.08,0.171-0.171,0.289-0.261c0.022-0.031,0.047-0.064,0.071-0.099l-0.162-0.237l0.973-0.723
					c0.031-0.08,0.07-0.179,0.121-0.285l0.013-0.408l0.224-0.209l0.037-0.25l0.295-0.332c0.064-0.074,0.105-0.189,0.189-0.455
					c0.062-0.199,0.141-0.444,0.264-0.707c0.024-0.354,0.117-0.648,0.184-0.854c0.002-0.006,0.003-0.011,0.005-0.016
					c-0.021-0.132-0.032-0.291-0.013-0.47c0.022-0.184,0.07-0.341,0.125-0.471c0.005-0.053,0.015-0.107,0.027-0.165
					c0.027-0.144,0.075-0.271,0.127-0.38c0-0.09,0.008-0.189,0.027-0.296c0.023-0.139,0.003-0.263,0.046-0.368
					c-0.037-0.263,0.05-0.663,0.05-1.093c0-0.027,0-0.054,0-0.079c0-0.079,0.061-0.161,0.049-0.25l0.017-0.042
					c-0.045-0.162-0.118-0.407-0.11-0.706c0.006-0.153,0.045-0.286,0.045-0.396v-0.014c0-0.233-0.123-0.609-0.076-1.054
					c-0.045-0.257-0.045-0.503-0.052-0.722c-0.338-0.208-0.592-0.524-0.724-0.914c-0.13-0.37-0.118-0.765,0.033-1.165
					c-0.123-0.128-0.246-0.294-0.338-0.509c-0.107-0.265-0.14-0.51-0.14-0.717c-0.091-0.124-0.174-0.273-0.229-0.455
					c-0.146-0.457-0.088-0.94,0.087-1.359l-0.011-0.283l0.095-0.147c-0.021-0.104-0.06-0.239-0.111-0.354
					c-0.099-0.236-0.147-0.471-0.171-0.593c-0.145-0.771-0.008-1.464,0.102-2.022c0.026-0.134,0.054-0.268,0.074-0.4l0.105-0.684
					l0.096-0.06l-0.005-0.661l0.272-0.255c0.051-0.113,0.121-0.242,0.219-0.373c0.011-0.03,0.021-0.063,0.031-0.095
					c0.031-0.101,0.064-0.202,0.104-0.308c0.018-0.051,0.027-0.104,0.041-0.158c0.044-0.185,0.104-0.438,0.227-0.694
					c0.166-0.354,0.392-0.601,0.541-0.764c0.021-0.022,0.041-0.045,0.062-0.067l0.166-0.516l0.564-0.281
					c0.146-0.072,0.354-0.25,0.576-0.438c0.147-0.125,0.307-0.262,0.486-0.401c0.223-0.308,0.506-0.468,0.691-0.545l0.537-0.224
					l0.207,0.074c0.219-0.107,0.526-0.252,0.914-0.277l0.049-0.026h0.059c0.273,0,0.499,0.089,0.662,0.152
					c0.008-0.002,0.016,0.008,0.023,0.008c0.137-0.023,0.266-0.035,0.385-0.041l0.604-0.029l0.457,0.396
					c0.334,0.289,0.716,0.474,1.157,0.688c0.487,0.234,1.042,0.501,1.601,0.942c0.161,0.131,0.27,0.268,0.34,0.376
					c0.213,0.196,0.403,0.411,0.59,0.618c0.086,0.096,0.17,0.192,0.256,0.283c0.596,0.366,0.896,0.958,1.125,1.409
					c0.06,0.118,0.123,0.243,0.195,0.371c0.026,0.05,0.049,0.085,0.07,0.12c0.084,0.138,0.2,0.325,0.34,0.652
					c0.055,0.13,0.141,0.275,0.241,0.444c0.131,0.224,0.28,0.477,0.408,0.777c0.202,0.472,0.272,0.909,0.332,1.26
					c0.019,0.117,0.036,0.235,0.063,0.354l0.021,0.042c0.077,0.152,0.194,0.382,0.259,0.679c0.12,0.561,0.018,1.023-0.07,1.32
					c0.098,0.329,0.166,0.736,0.084,1.204l-0.098,0.555l-0.012,0.009c0.15,0.298,0.253,0.681,0.16,1.139
					c-0.035,0.176-0.121,0.438-0.322,0.7c-0.002,0.187,0.011,0.456,0.021,0.654c0.018,0.307,0.033,0.624,0.02,0.953
					c-0.012,0.344-0.049,0.668-0.083,0.982c-0.023,0.215-0.046,0.427-0.06,0.636c-0.007,0.118-0.007,0.235-0.007,0.352
					c-0.002,0.339-0.004,0.737-0.108,1.159c0.022,0.466-0.086,0.855-0.158,1.115c-0.02,0.069-0.041,0.139-0.055,0.21
					c-0.064,0.347-0.104,0.718-0.146,1.11c-0.082,0.771-0.174,1.635-0.501,2.5c-0.089,0.863-0.445,1.723-0.725,2.279
					c-0.129,0.67-0.408,1.205-0.637,1.646c-0.104,0.199-0.201,0.387-0.259,0.537c-0.049,0.13-0.089,0.259-0.129,0.387
					c-0.106,0.332-0.228,0.709-0.444,1.101c-0.09,0.163-0.191,0.292-0.261,0.374c-0.042,0.089-0.077,0.175-0.112,0.26
					c-0.132,0.309-0.293,0.689-0.572,1.078c-0.135,0.188-0.271,0.338-0.383,0.46c-0.066,0.073-0.158,0.175-0.181,0.213l-0.097,0.315
					l-0.213,0.229c-0.195,0.219-0.416,0.503-0.648,0.805c-0.232,0.299-0.479,0.617-0.751,0.938
					c-0.776,0.921-1.553,1.608-2.373,2.103c-0.144,0.086-0.265,0.137-0.345,0.168c-0.141,0.092-0.273,0.18-0.406,0.268
					c-0.879,0.584-1.869,1.242-3.124,1.443c-0.798,0.287-1.659,0.484-2.504,0.572c-0.369,0.041-0.759,0.062-1.149,0.062
					c-0.563,0-1.111-0.043-1.631-0.127c-0.781-0.023-1.598-0.188-2.431-0.484c-0.826-0.297-1.543-0.682-2.011-0.946
					c-0.165-0.092-0.334-0.185-0.504-0.276c-0.681-0.37-1.384-0.754-2.013-1.246c-0.227-0.178-0.395-0.359-0.53-0.506
					c-0.048-0.053-0.092-0.105-0.143-0.148c-0.104-0.088-0.213-0.164-0.319-0.24c-0.229-0.164-0.49-0.35-0.743-0.604
					c-0.501-0.501-0.938-0.986-1.359-1.455l-0.076-0.084c-0.143-0.158-0.32-0.319-0.509-0.49c-0.239-0.217-0.487-0.441-0.724-0.711
					c-0.142-0.163-0.239-0.326-0.308-0.453c-0.056-0.039-0.114-0.084-0.175-0.139c-0.313-0.279-0.588-0.588-0.855-0.887
					c-0.193-0.217-0.376-0.42-0.528-0.562c-0.063-0.059-0.126-0.118-0.187-0.172c-0.004,0.004-0.007,0.008-0.01,0.013
					c-0.08,0.107-0.137,0.195-0.191,0.282l-0.147,0.246c-0.082,0.136-0.165,0.273-0.256,0.419l-0.073,1.021L20.55,36.65
					c-0.063,0.238-0.116,0.49-0.16,0.746c-0.024,0.179-0.075,0.346-0.15,0.498c-0.02,0.306,0.184,0.636,0.204,0.91l0.318,0.039
					v1.075c0,0.126-0.24,0.249-0.271,0.367c0.021,0.233-0.035,0.483,0.027,0.769c0.059,0.266,0.069,0.567,0.114,0.891l0.023,0.367
					l-0.017,0.008c0.002,0.007-0.003,0.013-0.001,0.02l0.24,0.479L20.8,43.036l0.055,0.29l-0.022,0.027
					c0.006,0.022,0.011,0.047,0.017,0.071c0.031,0.156,0.05,0.317,0.067,0.485c0.01,0.096,0.025,0.24,0.041,0.285l-0.611,0.293
					c0.068,0.201,0.143,0.449,0.169,0.731c0.145,0.318,0.284,0.658,0.422,1.009l0.249-0.119l0.453,1.771
					c0.107,0.423,0.331,0.868,0.59,1.384c0.194,0.385,0.395,0.783,0.576,1.231L20.123,51.82z"/>
			</g>
			<g>
				<path fill="#FFFFFF" d="M16.856,48.436c-0.584-0.996-1.049-2.008-1.481-3.002l-0.331,0.11l0.872,1.573l-2.462-0.746
					l-1.496,1.277c-0.383-0.42-0.674-0.941-0.924-1.479l-0.296-0.438l-0.076-0.119l-0.054-0.129
					c-0.087-0.213-0.125-0.406-0.143-0.562c-0.05-0.066-0.102-0.145-0.152-0.232c-0.134-0.234-0.203-0.453-0.255-0.613
					c0,0-0.001-0.004-0.002-0.006c-0.192-0.071-0.373-0.183-0.53-0.326l-0.131-0.121l-0.099-0.148
					c-0.04-0.06-0.075-0.121-0.106-0.184l-0.326-0.24l-0.008-0.662l-0.1-0.123L8.32,41.715l0.02-0.094l-0.146-0.078L8.15,40.699
					c0-0.02-0.021-0.086-0.04-0.149c-0.017-0.058-0.037-0.123-0.057-0.196c-0.048-0.067-0.091-0.141-0.128-0.217
					c-0.165-0.307-0.23-0.582-0.263-0.794c-0.287-0.272-0.588-0.751-0.491-1.53c-0.043-0.133-0.09-0.262-0.136-0.392
					c-0.212-0.603-0.45-1.278-0.53-2.162c-0.065-0.163-0.102-0.319-0.117-0.466l-0.024,0.002c-0.073-0.428-0.05-0.9-0.024-1.402
					c0.012-0.246,0.031-0.637,0.017-0.826L6.06,32.018L6.304,31.5l-0.019-0.025l0.075-0.588c0.057-0.447,0.175-0.834,0.278-1.175
					c0.067-0.221,0.151-0.495,0.152-0.612l0.002-0.354l0.187-0.371c0.036-0.076,0.083-0.176,0.146-0.285
					c0.088-0.379,0.262-0.899,0.598-1.346c0.533-1.207,1.282-2.357,2.175-3.34c0.227-0.251,0.466-0.495,0.748-0.762
					c0.29-0.271,0.604-0.539,0.911-0.778c0.648-0.511,1.33-0.956,2.021-1.32c1.518-0.808,3.173-1.244,4.782-1.261l0.13-0.002
					c1.558,0,3.126,0.377,4.663,1.12l0.094,0.045l0.426,0.283c0.496,0.329,1.008,0.669,1.526,1.043
					c0.725,0.534,1.136,0.845,1.542,1.189c0.159,0.136,0.276,0.271,0.362,0.378l0.107,0.031l0.268,0.267
					c0.357,0.355,0.699,0.729,1.029,1.091c0.484,0.53,0.985,1.078,1.335,1.328L30.1,26.24l0.16,0.271
					c0.147,0.249,0.439,0.497,0.748,0.759c0.149,0.127,0.295,0.251,0.432,0.376c0.107,0.103,0.203,0.205,0.295,0.306
					c0.002,0.003,0.004,0.006,0.007,0.008c0.081,0.036,0.177,0.084,0.272,0.147c0.235,0.156,0.413,0.328,0.541,0.461
					c0.137,0.025,0.295,0.07,0.463,0.154l0.006,0.004c0.121-0.053,0.226-0.084,0.309-0.104c0.094-0.06,0.186-0.104,0.271-0.138
					c0.074-0.079,0.17-0.172,0.289-0.26c0.021-0.033,0.045-0.065,0.07-0.1l-0.162-0.236l0.973-0.723
					c0.031-0.081,0.069-0.18,0.121-0.287l0.013-0.408l0.223-0.209l0.038-0.25l0.295-0.332c0.064-0.074,0.105-0.189,0.189-0.455
					c0.062-0.199,0.141-0.444,0.264-0.707c0.023-0.354,0.117-0.648,0.184-0.854c0.002-0.005,0.004-0.011,0.004-0.016
					c-0.021-0.132-0.031-0.291-0.013-0.47c0.022-0.184,0.071-0.341,0.125-0.471c0.007-0.053,0.017-0.107,0.027-0.164
					c0.028-0.145,0.075-0.273,0.127-0.381c0.001-0.09,0.009-0.189,0.028-0.295c0.023-0.14,0.137-0.264,0.18-0.369
					c-0.037-0.262,0.183-0.663,0.183-1.093c0-0.026,0-0.054,0-0.079c0-0.078-0.073-0.161-0.083-0.25l-0.051-0.042
					c-0.044-0.162-0.129-0.407-0.122-0.706c0.005-0.152,0.021-0.286,0.048-0.396c-0.001-0.005-0.006-0.009-0.007-0.014
					c-0.058-0.233-0.149-0.608-0.101-1.054c-0.045-0.257-0.059-0.503-0.065-0.721c-0.338-0.209-0.598-0.525-0.729-0.915
					c-0.131-0.37-0.121-0.765,0.031-1.165c-0.125-0.127-0.25-0.293-0.341-0.509c-0.106-0.265-0.14-0.51-0.141-0.717
					c-0.091-0.124-0.175-0.273-0.229-0.455c-0.146-0.456-0.088-0.94,0.088-1.358l-0.012-0.283l0.094-0.148
					c-0.021-0.104-0.061-0.239-0.111-0.354c-0.098-0.235-0.147-0.471-0.17-0.593c-0.146-0.77-0.008-1.464,0.102-2.021
					c0.027-0.135,0.055-0.268,0.074-0.4l0.105-0.685l0.096-0.06L35.23,6.82l0.273-0.256c0.051-0.113,0.12-0.242,0.221-0.373
					c0.01-0.03,0.02-0.063,0.029-0.095c0.032-0.101,0.064-0.202,0.104-0.308c0.018-0.051,0.027-0.104,0.041-0.158
					c0.043-0.184,0.104-0.438,0.226-0.693c0.166-0.355,0.392-0.602,0.541-0.765c0.021-0.022,0.042-0.044,0.063-0.067l0.166-0.516
					l0.564-0.281c0.145-0.072,0.354-0.25,0.576-0.438c0.146-0.125,0.308-0.261,0.486-0.401c0.223-0.308,0.506-0.467,0.69-0.545
					L39.751,1.7l0.205,0.074c0.22-0.106,0.526-0.059,0.915-0.084l0.049,0.167h0.059c0.273,0,0.498-0.104,0.662-0.041
					c0.008-0.001,0.016-0.088,0.021-0.088c0.138-0.023,0.268-0.084,0.385-0.09l0.604-0.053l0.457,0.385
					c0.334,0.288,0.717,0.467,1.158,0.679c0.487,0.235,1.041,0.498,1.601,0.939c0.161,0.131,0.269,0.267,0.339,0.374
					c0.214,0.197,0.404,0.41,0.591,0.619c0.085,0.095,0.17,0.191,0.257,0.281c0.594,0.367,0.895,0.958,1.123,1.41
					c0.061,0.117,0.123,0.242,0.195,0.371c0.027,0.049,0.05,0.084,0.07,0.119c0.084,0.138,0.201,0.326,0.341,0.652
					c0.055,0.13,0.142,0.275,0.241,0.445c0.131,0.223,0.281,0.477,0.408,0.777c0.2,0.471,0.272,0.908,0.33,1.26
					c0.021,0.117,0.037,0.234,0.063,0.354l0.021,0.043c0.078,0.151,0.195,0.381,0.26,0.678c0.119,0.561,0.018,1.023-0.07,1.32
					c0.098,0.329,0.165,0.736,0.084,1.204l-0.098,0.555l-0.012,0.009c0.15,0.299,0.254,0.682,0.16,1.139
					c-0.036,0.176-0.121,0.439-0.322,0.701c-0.002,0.186,0.012,0.455,0.021,0.653c0.018,0.308,0.033,0.624,0.02,0.954
					c-0.013,0.343-0.048,0.668-0.082,0.981c-0.023,0.216-0.048,0.427-0.06,0.636c-0.007,0.119-0.007,0.236-0.009,0.352
					c0,0.339-0.002,0.738-0.107,1.159c0.021,0.466-0.086,0.855-0.158,1.116c-0.02,0.068-0.039,0.138-0.054,0.209
					c-0.065,0.348-0.104,0.719-0.147,1.11c-0.082,0.771-0.174,1.636-0.5,2.5c-0.09,0.864-0.446,1.723-0.725,2.281
					c-0.129,0.668-0.408,1.205-0.638,1.646c-0.104,0.198-0.201,0.385-0.259,0.536c-0.047,0.13-0.088,0.259-0.129,0.386
					c-0.105,0.333-0.227,0.71-0.443,1.101c-0.09,0.166-0.191,0.293-0.26,0.375c-0.043,0.09-0.078,0.174-0.114,0.26
					c-0.131,0.309-0.293,0.69-0.571,1.078c-0.135,0.188-0.271,0.338-0.383,0.459c-0.066,0.074-0.159,0.176-0.182,0.213l-0.096,0.315
					l-0.214,0.229c-0.196,0.219-0.416,0.503-0.649,0.804c-0.231,0.3-0.479,0.618-0.75,0.938c-0.776,0.922-1.553,1.609-2.373,2.104
					c-0.144,0.085-0.266,0.137-0.346,0.168c-0.141,0.091-0.272,0.18-0.404,0.268c-0.881,0.584-1.871,1.242-3.125,1.443
					c-0.799,0.287-1.659,0.484-2.504,0.572c-0.369,0.041-0.76,0.062-1.15,0.062c-0.562,0-1.109-0.043-1.63-0.127
					c-0.78-0.023-1.599-0.188-2.431-0.484c-0.825-0.297-1.543-0.682-2.011-0.946c-0.164-0.092-0.334-0.185-0.504-0.276
					c-0.68-0.371-1.384-0.755-2.013-1.246c-0.226-0.177-0.395-0.359-0.53-0.507c-0.048-0.052-0.092-0.104-0.142-0.147
					c-0.105-0.088-0.214-0.164-0.32-0.24c-0.229-0.164-0.488-0.35-0.743-0.604c-0.501-0.502-0.938-0.986-1.359-1.455L21.7,34.688
					c-0.142-0.157-0.32-0.318-0.509-0.489c-0.239-0.218-0.487-0.441-0.723-0.712c-0.143-0.162-0.24-0.325-0.308-0.451
					c-0.057-0.039-0.115-0.085-0.176-0.139c-0.313-0.279-0.588-0.588-0.855-0.888c-0.192-0.217-0.375-0.42-0.528-0.563
					c-0.063-0.059-0.126-0.117-0.187-0.172c-0.003,0.004-0.007,0.01-0.01,0.014c-0.08,0.107-0.136,0.195-0.19,0.283l-0.148,0.244
					c-0.081,0.137-0.165,0.274-0.256,0.42l-0.073,1.021l-0.454,0.009c-0.062,0.238-0.116,0.49-0.16,0.747
					c-0.023,0.179-0.075,0.345-0.149,0.497c-0.021,0.307-0.038,0.637-0.017,0.912l0.097,0.039l0.002,1.074
					c-0.003,0.126-0.021,0.249-0.052,0.367c0.021,0.233,0.076,0.483,0.138,0.768c0.058,0.268,0.123,0.568,0.168,0.893l0.051,0.366
					l-0.003,0.009c0.002,0.006,0.004,0.013,0.006,0.019l0.244,0.479l-0.075,0.217l0.056,0.291l-0.021,0.026
					c0.006,0.023,0.012,0.048,0.017,0.072c0.031,0.155,0.051,0.317,0.068,0.485c0.01,0.097,0.024,0.24,0.04,0.285l-0.61,0.293
					c0.067,0.201,0.144,0.449,0.169,0.731c0.144,0.317,0.284,0.659,0.421,1.009l0.249-0.119l0.453,1.771
					c0.107,0.423,0.331,0.868,0.591,1.384c0.193,0.385,0.394,0.783,0.576,1.232L16.856,48.436z"/>
			</g>
			<path fill="#606060" d="M48.639,11.286c-0.043-0.204-0.203-0.401-0.255-0.612c-0.122-0.493-0.129-0.969-0.333-1.448
				c-0.18-0.423-0.463-0.784-0.648-1.22c-0.139-0.324-0.223-0.417-0.338-0.625c-0.342-0.604-0.51-1.146-0.91-1.295
				c-0.377-0.357-0.737-0.846-1.094-1.131c-0.055-0.044-0.104-0.174-0.125-0.191c-0.908-0.719-1.891-0.875-2.81-1.67
				c-0.202,0.011-0.454,0.096-0.745,0.058c-0.129-0.017-0.295-0.141-0.412-0.134c-0.437,0.027-0.713,0.461-1.18,0.291
				c-0.09,0.037-0.066,0.112-0.105,0.166c-0.609,0.428-1.033,0.916-1.558,1.178c-0.131,0.402-0.487,0.586-0.646,0.924
				c-0.1,0.209-0.131,0.5-0.215,0.726c-0.094,0.257-0.146,0.493-0.265,0.724c-0.192,0.117-0.124,0.313-0.267,0.441
				c0.004,0.28-0.071,0.533-0.073,0.811c-0.056,0.057-0.067,0.128-0.146,0.176c-0.098,0.627-0.307,1.27-0.183,1.928
				c0.011,0.059,0.038,0.184,0.065,0.252c0.197,0.445,0.375,1.189,0.162,1.521c0.004,0.091,0.072,0.067,0.076,0.157
				c-0.119,0.097-0.305,0.417-0.238,0.624c0.022,0.072,0.244,0.148,0.319,0.303c0.112,0.232-0.084,0.521,0.001,0.732
				c0.041,0.096,0.231,0.168,0.293,0.267c0.16,0.259,0.188,0.846,0.16,1.091c-0.02,0.195-0.152,0.283-0.104,0.42
				c0.041,0.125,0.209,0.203,0.438,0.164c0.555,0.322,0.245,1.342,0.475,1.92c-0.172,0.436,0.129,0.85,0.082,1.269
				c-0.011,0.083-0.074,0.181-0.078,0.267c-0.004,0.143,0.084,0.337,0.106,0.523c0.04,0.318,0.001,0.592,0.052,0.857
				c-0.341,0.362-0.039,0.691-0.104,1.023c-0.024,0.123-0.14,0.227-0.164,0.364c-0.021,0.115,0.045,0.243,0.013,0.368
				c-0.031,0.125-0.152,0.235-0.177,0.355c-0.021,0.089,0.022,0.172-0.001,0.244c-0.031,0.093-0.113,0.137-0.127,0.238
				c-0.012,0.109,0.07,0.242,0.057,0.352c-0.059,0.402-0.3,0.771-0.209,1.189c-0.394,0.563-0.332,1.213-0.845,1.792
				c-0.028,0.19-0.056,0.331-0.198,0.465c0,0.047,0.062,0.082,0.023,0.136c-0.262,0.273-0.256,0.732-0.559,0.957
				c0.021,0.031,0.039,0.063,0.041,0.094c-0.41,0.312-0.789,0.688-0.908,1.015c-0.276,0.048-0.373,0.334-0.582,0.466
				c-0.1,0.062-0.229,0.037-0.297,0.105c-0.143,0.14-0.369,0.132-0.5,0.197c-0.039,0.021-0.066,0.111-0.11,0.133
				c-0.082,0.037-0.161-0.043-0.228,0.003c-0.295,0.176-0.57-0.005-0.922-0.181c-0.105-0.053-0.253-0.021-0.414-0.08
				c-0.271-0.101-0.445-0.428-0.744-0.625c-0.074-0.051-0.183-0.063-0.256-0.111c-0.193-0.126-0.32-0.322-0.513-0.501
				c-0.469-0.435-1.078-0.847-1.448-1.469c-0.752-0.536-1.635-1.666-2.551-2.576c-0.316-0.094-0.412-0.391-0.649-0.596
				c-0.377-0.318-0.781-0.623-1.451-1.117c-0.613-0.443-1.246-0.854-1.819-1.236c-1.288-0.623-2.698-0.99-4.125-0.969
				c-1.426,0.015-2.834,0.415-4.098,1.088c-0.634,0.334-1.235,0.732-1.799,1.176c-0.28,0.219-0.56,0.459-0.805,0.688
				c-0.238,0.225-0.454,0.443-0.668,0.68c-0.851,0.936-1.531,2.019-1.994,3.127c-0.283,0.28-0.444,0.852-0.478,1.182
				c-0.097,0.036-0.171,0.24-0.245,0.387c-0.004,0.615-0.354,1.261-0.443,1.968C8,31.292,7.783,31.678,7.893,31.958
				c-0.121,0.094-0.069-0.162-0.154,0.019c0.267,0.492-0.009,1.926,0.102,2.565c0.001-0.045,0.054-0.053,0.061,0.003
				c-0.09,0.153,0.088,0.227,0.084,0.396c0.062,1.146,0.485,1.904,0.729,2.801c-0.034,0.121-0.139,0.449,0.006,0.535
				c-0.005-0.166-0.043-0.375,0.104-0.381c-0.011,0.279,0.112,0.629,0.257,0.789c0.071,0.33,0.025,0.515,0.189,0.787
				c0.012,0.072,0.136-0.099,0.162,0.055C9.451,40,9.627,40.201,9.649,40.621c0.162,0.088,0.316,0.549,0.283,0.711
				c0.091,0.115,0.075-0.172,0.137-0.07c0.136,0.353,0.282,0.668,0.286,1.023c0.087,0.062,0.187,0.092,0.246,0.22
				c0.036,0.087-0.139,0.013-0.057,0.136c0.112,0.104,0.104-0.138,0.212-0.136c0.099,0.163,0.159,0.106,0.265,0.171
				c-0.005,0.27,0.209,0.387,0.326,0.592c0.121,0.209,0.155,0.478,0.271,0.681c0.099,0.175,0.224,0.221,0.295,0.432
				c0.058,0.17,0.007,0.349,0.083,0.535c0.06,0.091,0.081-0.104,0.139,0.035c0.273,0.646,0.563,1.284,0.933,1.688
				c-0.517-0.645-0.489-1.272-0.924-1.854c0.091-0.143-0.184-0.266-0.047-0.424c-0.089-0.021-0.086,0.149-0.126-0.002
				c-0.007-0.051,0.019-0.082-0.019-0.153c0.185,0.04,0.136-0.099,0.223-0.188c-0.198-0.553-0.411-0.97-0.563-1.457
				c-0.063-0.08-0.068,0.088-0.126-0.006c-0.082-0.18-0.103-0.33-0.209-0.539c0.096-0.1,0.11-0.264,0.282-0.227
				c0.175,0.666,0.676,1.484,0.966,2.24c0.087,0.229,0.06,0.511,0.287,0.58c-0.179-0.323-0.077-0.67-0.16-0.974
				c-0.107-0.393-0.42-0.75-0.498-1.145c-0.021-0.111,0.018-0.171-0.013-0.269c-0.022-0.076-0.146-0.181-0.166-0.268
				c-0.021-0.096,0.04-0.119,0.011-0.197c-0.06-0.16-0.19-0.26-0.237-0.443c-0.076-0.309-0.045-0.638-0.163-0.965
				c0.037-0.076,0.173-0.078,0.214-0.007c0.09,0.399,0.114,0.466,0.232,0.866c0.001-0.049,0.02-0.083,0.07-0.094
				c0.024,0.127,0,0.182,0.092,0.246c-0.087-0.297,0.145-0.328,0.276-0.256c0.157,0.748,0.535,1.609,0.655,2.231
				c0.082,0.045,0.177,0.062,0.238,0.16c0.298,0.642,0.498,1.409,0.845,2.086c-0.15-0.867-0.56-1.668-0.939-2.597
				c0.015-0.045,0.103-0.041,0.055-0.131c-0.212-0.377-0.336-0.858-0.456-1.168c0.084-0.177,0.173-0.35,0.269-0.518
				c-0.379-0.973-0.035-1.827-0.21-2.77c0.091-0.012,0.104-0.09,0.161-0.129c0.087,0.062,0.192,0.095,0.271,0.17
				c0.035,0.151,0.113,0.299,0.078,0.447c0.42,0.728,0.513,1.883,0.958,2.81c0.179,0.075,0.26-0.052,0.358-0.169
				c-0.056-0.484-0.376-0.853-0.322-1.387c0.3-0.263,0.583-0.141,0.701,0.225c0.191,0.604,0.486,1.671,0.577,2.083
				c0.8,1.726,1.445,3.524,2.441,5.222c-0.408-1.006-0.987-1.857-1.23-2.809c-0.06,0.027-0.101,0.006-0.122-0.066
				c-0.324-0.902-0.688-1.891-1.054-2.645c0.097-0.396-0.343-0.961-0.226-1.355c0.352-0.01,0.579,0.217,0.766,0.529
				c-0.126-0.34-0.111-0.695-0.171-0.988c-0.049-0.24-0.254-0.625-0.212-0.764c0.011-0.033,0.092,0.006,0.081-0.051
				c0.019,0.098-0.062-0.166-0.071-0.186c-0.068-0.119-0.088-0.091-0.112-0.243c-0.031-0.196-0.025-0.194,0.025-0.334
				c-0.095-0.678-0.313-1.303-0.327-1.959c-0.003-0.067-0.024-0.202-0.021-0.214c0.014-0.062,0.079-0.02,0.08-0.1
				c0.001-0.047-0.067-0.019-0.067-0.086c0-0.252,0.005-0.534-0.019-0.776c-0.062-0.606,0.021-1.294,0.038-1.737
				c0.028-0.098,0.122,0.038,0.13-0.094c0.126-0.752,0.321-1.45,0.562-2.018c0.026-0.038,0.137,0.041,0.142-0.027
				c0.05-0.068-0.092-0.104-0.057-0.168c0.053-0.027,0.111-0.047,0.185-0.04c0.18-0.272,0.321-0.524,0.474-0.771
				c0.076-0.121,0.155-0.242,0.243-0.361c0.078-0.109,0.214-0.26,0.257-0.311c0.168-0.201,0.411-0.345,0.663-0.406
				c0.189-0.053,0.433-0.137,0.582,0.035c0.133,0.006,0.251,0.057,0.355,0.121c0.061,0.039,0.085,0.055,0.17,0.125
				c0.111,0.094,0.269,0.235,0.413,0.371c0.432,0.403,0.894,1.012,1.356,1.426c0.08,0.071,0.217,0.121,0.302,0.217
				c0.129,0.143,0.183,0.356,0.313,0.508c0.353,0.402,0.827,0.751,1.218,1.186c0.438,0.486,0.879,0.979,1.382,1.482
				c0.284,0.285,0.642,0.482,0.965,0.754c0.214,0.18,0.392,0.436,0.633,0.623c0.677,0.529,1.521,0.947,2.33,1.398
				c0.539,0.305,1.13,0.606,1.776,0.84c0.649,0.231,1.365,0.393,2.07,0.4c0.762,0.135,1.644,0.163,2.48,0.07
				c0.824-0.087,1.627-0.292,2.291-0.543c1.186-0.145,2.152-0.913,3.158-1.557c0.105-0.069,0.201-0.08,0.312-0.146
				c0.786-0.473,1.452-1.135,2-1.785c0.551-0.651,0.994-1.29,1.43-1.776c0.148-0.484,0.513-0.73,0.771-1.092
				c0.279-0.388,0.4-0.818,0.604-1.216c0.063-0.131,0.18-0.221,0.25-0.35c0.219-0.396,0.311-0.83,0.479-1.283
				c0.252-0.673,0.763-1.303,0.856-2.129c0.299-0.561,0.67-1.426,0.688-2.148c0.488-1.124,0.428-2.359,0.654-3.549
				c0.076-0.403,0.269-0.764,0.152-1.188c0.189-0.416,0.121-0.935,0.15-1.455c0.029-0.514,0.121-1.053,0.143-1.595
				c0.031-0.776-0.168-1.718,0.1-2.328c0.65-0.34-0.401-0.744-0.355-1.366c0.09-0.345,0.283-0.332,0.506-0.512
				c0.055-0.311-0.057-0.578-0.164-0.854C48.48,12.041,48.734,11.734,48.639,11.286z M10.665,41.171
				c-0.036,0.001-0.05,0.021-0.05,0.052C10.455,41.178,10.614,40.948,10.665,41.171z M10.741,41.234
				c0.093,0.309,0.343,0.705,0.304,0.957c0.017,0.061,0.149-0.101,0.214-0.015c-0.033,0.151-0.042,0.322,0.026,0.55
				c-0.234,0.086-0.227-0.404-0.442-0.363c-0.031-0.18-0.044-0.271-0.177-0.316c-0.021-0.381-0.189-0.422-0.179-0.717
				C10.643,41.366,10.58,41.254,10.741,41.234z"/>
		</g>
	</g>
</g>
</svg>
