<?xml version="1.0" encoding="utf-8"?>
<!-- Generator: Adobe Illustrator 15.0.0, SVG Export Plug-In . SVG Version: 6.00 Build 0)  -->
<!DOCTYPE svg PUBLIC "-//W3C//DTD SVG 1.1//EN" "http://www.w3.org/Graphics/SVG/1.1/DTD/svg11.dtd">
<svg version="1.1" id="Layer_1" xmlns="http://www.w3.org/2000/svg" xmlns:xlink="http://www.w3.org/1999/xlink" x="0px" y="0px"
	 width="58px" height="54px" viewBox="0 0 58 54" enable-background="new 0 0 58 54" xml:space="preserve">
<g id="Pressed_states">
	<g id="buttons_pressed">
	</g>
	<g id="buttons_pressed_on">
	</g>
	<g id="buttons_pressed_copy">
	</g>
	<g id="DrawingToolsButtonsTaped">
	</g>
	<g id="DrawingsShapesStrokesTaped">
		<g>
			<g opacity="0.25">
				<path fill="#333333" d="M20.123,51.82c-0.585-0.994-1.049-2.008-1.481-3.002l-0.331,0.111l0.871,1.573l-2.461-0.746
					l-1.496,1.277c-0.383-0.421-0.674-0.941-0.924-1.479l-0.296-0.438l-0.077-0.118l-0.053-0.131
					c-0.087-0.212-0.125-0.406-0.143-0.561c-0.05-0.066-0.103-0.145-0.153-0.233c-0.133-0.234-0.203-0.453-0.254-0.613
					c-0.001-0.002-0.001-0.004-0.002-0.005c-0.193-0.072-0.373-0.184-0.53-0.328l-0.131-0.12l-0.099-0.147
					c-0.04-0.061-0.075-0.121-0.106-0.185l-0.326-0.239l-0.008-0.664l-0.101-0.121l-0.435-0.549l0.019-0.095L11.46,44.93
					l-0.043-0.845c-0.001-0.021-0.021-0.086-0.041-0.149c-0.018-0.058-0.037-0.123-0.057-0.196c-0.049-0.067-0.091-0.14-0.128-0.216
					c-0.165-0.309-0.23-0.584-0.264-0.795c-0.286-0.271-0.588-0.752-0.49-1.53c-0.044-0.132-0.09-0.261-0.136-0.392
					c-0.212-0.603-0.451-1.279-0.53-2.162c-0.065-0.162-0.102-0.318-0.117-0.465L9.63,38.182c-0.074-0.429-0.05-0.901-0.025-1.404
					c0.013-0.244,0.032-0.635,0.017-0.825l-0.296-0.55l0.245-0.517l-0.018-0.026l0.074-0.588c0.058-0.445,0.176-0.832,0.279-1.174
					c0.068-0.221,0.152-0.494,0.153-0.611l0.002-0.354l0.187-0.371c0.035-0.075,0.082-0.177,0.146-0.286
					c0.088-0.377,0.262-0.897,0.596-1.345c0.534-1.207,1.283-2.356,2.176-3.34c0.226-0.251,0.466-0.495,0.748-0.762
					c0.29-0.271,0.604-0.539,0.911-0.778c0.649-0.511,1.331-0.862,2.022-1.226c1.518-0.809,3.173-1.168,4.782-1.168h0.129
					c1.558,0,3.127,0.282,4.664,1.025l0.093-0.002l0.427,0.259c0.495,0.328,1.007,0.656,1.526,1.031
					c0.725,0.534,1.136,0.839,1.542,1.184c0.159,0.136,0.276,0.268,0.362,0.375l0.106,0.03l0.269,0.266
					c0.356,0.355,0.698,0.729,1.028,1.09c0.484,0.53,0.986,1.077,1.336,1.327l0.256,0.185l0.16,0.271
					c0.148,0.25,0.44,0.496,0.75,0.76c0.148,0.127,0.295,0.251,0.431,0.377c0.108,0.101,0.204,0.203,0.295,0.305
					c0.002,0.003,0.004,0.005,0.006,0.008c0.083,0.036,0.177,0.084,0.274,0.147c0.234,0.155,0.414,0.329,0.539,0.461
					c0.138,0.026,0.296,0.071,0.463,0.155l0.008,0.004c0.121-0.053,0.225-0.084,0.309-0.106c0.094-0.059,0.186-0.104,0.271-0.137
					c0.075-0.08,0.171-0.171,0.289-0.261c0.022-0.031,0.047-0.064,0.071-0.099l-0.162-0.237l0.973-0.723
					c0.031-0.08,0.07-0.179,0.121-0.285l0.013-0.408l0.224-0.209l0.037-0.25l0.295-0.332c0.064-0.074,0.105-0.189,0.189-0.455
					c0.062-0.199,0.141-0.444,0.264-0.707c0.024-0.354,0.117-0.648,0.184-0.854c0.002-0.006,0.003-0.011,0.005-0.016
					c-0.021-0.132-0.032-0.291-0.013-0.47c0.022-0.184,0.07-0.341,0.125-0.471c0.005-0.053,0.015-0.107,0.027-0.165
					c0.027-0.144,0.075-0.271,0.127-0.38c0-0.09,0.008-0.189,0.027-0.296c0.023-0.139,0.003-0.263,0.046-0.368
					c-0.037-0.263,0.05-0.663,0.05-1.093c0-0.027,0-0.054,0-0.079c0-0.079,0.061-0.161,0.049-0.25l0.017-0.042
					c-0.045-0.162-0.118-0.407-0.11-0.706c0.006-0.153,0.045-0.286,0.045-0.396v-0.014c0-0.233-0.123-0.609-0.076-1.054
					c-0.045-0.257-0.045-0.503-0.052-0.722c-0.338-0.208-0.592-0.524-0.724-0.914c-0.13-0.37-0.118-0.765,0.033-1.165
					c-0.123-0.128-0.246-0.294-0.338-0.509c-0.107-0.265-0.14-0.51-0.14-0.717c-0.091-0.124-0.174-0.273-0.229-0.455
					c-0.146-0.457-0.088-0.94,0.087-1.359l-0.011-0.283l0.095-0.147c-0.021-0.104-0.06-0.239-0.111-0.354
					c-0.099-0.236-0.147-0.471-0.171-0.593c-0.145-0.771-0.008-1.464,0.102-2.022c0.026-0.134,0.054-0.268,0.074-0.4l0.105-0.684
					l0.096-0.06l-0.005-0.661l0.272-0.255c0.051-0.113,0.121-0.242,0.219-0.373c0.011-0.03,0.021-0.063,0.031-0.095
					c0.031-0.101,0.064-0.202,0.104-0.308c0.018-0.051,0.027-0.104,0.041-0.158c0.044-0.185,0.104-0.438,0.227-0.694
					c0.166-0.354,0.392-0.601,0.541-0.764c0.021-0.022,0.041-0.045,0.062-0.067l0.166-0.516l0.564-0.281
					c0.146-0.072,0.354-0.25,0.576-0.438c0.147-0.125,0.307-0.262,0.486-0.401c0.223-0.308,0.506-0.468,0.691-0.545l0.537-0.224
					l0.207,0.074c0.219-0.107,0.526-0.252,0.914-0.277l0.049-0.026h0.059c0.273,0,0.499,0.089,0.662,0.152
					c0.008-0.002,0.016,0.008,0.023,0.008c0.137-0.023,0.266-0.035,0.385-0.041l0.604-0.029l0.457,0.396
					c0.334,0.289,0.716,0.474,1.157,0.688c0.487,0.234,1.042,0.501,1.601,0.942c0.161,0.131,0.27,0.268,0.34,0.376
					c0.213,0.196,0.403,0.411,0.59,0.618c0.086,0.096,0.17,0.192,0.256,0.283c0.596,0.366,0.896,0.958,1.125,1.409
					c0.06,0.118,0.123,0.243,0.195,0.371c0.026,0.05,0.049,0.085,0.07,0.12c0.084,0.138,0.2,0.325,0.34,0.652
					c0.055,0.13,0.141,0.275,0.241,0.444c0.131,0.224,0.28,0.477,0.408,0.777c0.202,0.472,0.272,0.909,0.332,1.26
					c0.019,0.117,0.036,0.235,0.063,0.354l0.021,0.042c0.077,0.152,0.194,0.382,0.259,0.679c0.12,0.561,0.018,1.023-0.07,1.32
					c0.098,0.329,0.166,0.736,0.084,1.204l-0.098,0.555l-0.012,0.009c0.15,0.298,0.253,0.681,0.16,1.139
					c-0.035,0.176-0.121,0.438-0.322,0.7c-0.002,0.187,0.011,0.456,0.021,0.654c0.018,0.307,0.033,0.624,0.02,0.953
					c-0.012,0.344-0.049,0.668-0.083,0.982c-0.023,0.215-0.046,0.427-0.06,0.636c-0.007,0.118-0.007,0.235-0.007,0.352
					c-0.002,0.339-0.004,0.737-0.108,1.159c0.022,0.466-0.086,0.855-0.158,1.115c-0.02,0.069-0.041,0.139-0.055,0.21
					c-0.064,0.347-0.104,0.718-0.146,1.11c-0.082,0.771-0.174,1.635-0.501,2.5c-0.089,0.863-0.445,1.723-0.725,2.279
					c-0.129,0.67-0.408,1.205-0.637,1.646c-0.104,0.199-0.201,0.387-0.259,0.537c-0.049,0.13-0.089,0.259-0.129,0.387
					c-0.106,0.332-0.228,0.709-0.444,1.101c-0.09,0.163-0.191,0.292-0.261,0.374c-0.042,0.089-0.077,0.175-0.112,0.26
					c-0.132,0.309-0.293,0.689-0.572,1.078c-0.135,0.188-0.271,0.338-0.383,0.46c-0.066,0.073-0.158,0.175-0.181,0.213l-0.097,0.315
					l-0.213,0.229c-0.195,0.219-0.416,0.503-0.648,0.805c-0.232,0.299-0.479,0.617-0.751,0.938
					c-0.776,0.921-1.553,1.608-2.373,2.103c-0.144,0.086-0.265,0.137-0.345,0.168c-0.141,0.092-0.273,0.18-0.406,0.268
					c-0.879,0.584-1.869,1.242-3.124,1.443c-0.798,0.287-1.659,0.484-2.504,0.572c-0.369,0.041-0.759,0.062-1.149,0.062
					c-0.563,0-1.111-0.043-1.631-0.127c-0.781-0.023-1.598-0.188-2.431-0.484c-0.826-0.297-1.543-0.682-2.011-0.946
					c-0.165-0.092-0.334-0.185-0.504-0.276c-0.681-0.37-1.384-0.754-2.013-1.246c-0.227-0.178-0.395-0.359-0.53-0.506
					c-0.048-0.053-0.092-0.105-0.143-0.148c-0.104-0.088-0.213-0.164-0.319-0.24c-0.229-0.164-0.49-0.35-0.743-0.604
					c-0.501-0.501-0.938-0.986-1.359-1.455l-0.076-0.084c-0.143-0.158-0.32-0.319-0.509-0.49c-0.239-0.217-0.487-0.441-0.724-0.711
					c-0.142-0.163-0.239-0.326-0.308-0.453c-0.056-0.039-0.114-0.084-0.175-0.139c-0.313-0.279-0.588-0.588-0.855-0.887
					c-0.193-0.217-0.376-0.42-0.528-0.562c-0.063-0.059-0.126-0.118-0.187-0.172c-0.004,0.004-0.007,0.008-0.01,0.013
					c-0.08,0.107-0.137,0.195-0.191,0.282l-0.147,0.246c-0.082,0.136-0.165,0.273-0.256,0.419l-0.073,1.021L20.55,36.65
					c-0.063,0.238-0.116,0.49-0.16,0.746c-0.024,0.179-0.075,0.346-0.15,0.498c-0.02,0.306,0.184,0.636,0.204,0.91l0.318,0.039
					v1.075c0,0.126-0.24,0.249-0.271,0.367c0.021,0.233-0.035,0.483,0.027,0.769c0.059,0.266,0.069,0.567,0.114,0.891l0.023,0.367
					l-0.017,0.008c0.002,0.007-0.003,0.013-0.001,0.02l0.24,0.479L20.8,43.036l0.055,0.29l-0.022,0.027
					c0.006,0.022,0.011,0.047,0.017,0.071c0.031,0.156,0.05,0.317,0.067,0.485c0.01,0.096,0.025,0.24,0.041,0.285l-0.611,0.293
					c0.068,0.201,0.143,0.449,0.169,0.731c0.145,0.318,0.284,0.658,0.422,1.009l0.249-0.119l0.453,1.771
					c0.107,0.423,0.331,0.868,0.59,1.384c0.194,0.385,0.395,0.783,0.576,1.231L20.123,51.82z"/>
			</g>
			<g>
				<path fill="#FFFFFF" d="M16.654,48.333c-0.585-0.995-1.049-2.008-1.481-3.002l-0.331,0.11l0.871,1.574l-2.461-0.746
					l-1.496,1.276c-0.383-0.421-0.674-0.94-0.924-1.479l-0.296-0.438l-0.077-0.118l-0.053-0.131
					c-0.087-0.212-0.125-0.406-0.143-0.561c-0.05-0.066-0.103-0.145-0.153-0.233c-0.133-0.233-0.203-0.453-0.254-0.612
					c-0.001-0.003-0.001-0.005-0.002-0.006c-0.193-0.072-0.373-0.183-0.53-0.328L9.193,43.52l-0.099-0.148
					c-0.04-0.061-0.075-0.121-0.106-0.184l-0.326-0.24l-0.008-0.663l-0.101-0.122l-0.435-0.549l0.019-0.094l-0.146-0.078
					l-0.043-0.844c-0.001-0.021-0.021-0.087-0.041-0.149c-0.018-0.058-0.037-0.123-0.057-0.197c-0.049-0.067-0.091-0.14-0.128-0.216
					c-0.165-0.309-0.23-0.583-0.264-0.794c-0.286-0.272-0.588-0.752-0.49-1.531c-0.044-0.132-0.09-0.261-0.136-0.392
					c-0.212-0.603-0.451-1.278-0.53-2.161c-0.065-0.163-0.102-0.319-0.117-0.466l-0.024,0.002c-0.074-0.428-0.05-0.901-0.025-1.403
					c0.013-0.245,0.032-0.636,0.017-0.826l-0.296-0.549l0.245-0.517l-0.019-0.026l0.074-0.588c0.058-0.446,0.176-0.833,0.279-1.175
					c0.067-0.221,0.151-0.494,0.152-0.611l0.002-0.354l0.187-0.371c0.035-0.076,0.082-0.178,0.146-0.287
					c0.088-0.377,0.262-0.897,0.597-1.344c0.533-1.207,1.282-2.357,2.176-3.34c0.226-0.251,0.466-0.495,0.748-0.762
					c0.29-0.271,0.604-0.539,0.911-0.778c0.648-0.511,1.33-1.118,2.021-1.481c1.518-0.809,3.173-1.424,4.782-1.424h0.129
					c1.558,0,3.127,0.538,4.664,1.281l0.093,0.125l0.427,0.324c0.495,0.328,1.008,0.688,1.526,1.063
					c0.725,0.535,1.136,0.855,1.542,1.2c0.159,0.136,0.276,0.275,0.362,0.383l0.106,0.034l0.269,0.268
					c0.357,0.355,0.699,0.73,1.029,1.092c0.484,0.529,0.985,1.078,1.335,1.328l0.256,0.184l0.16,0.271
					c0.148,0.249,0.44,0.496,0.75,0.759c0.148,0.127,0.295,0.251,0.43,0.377c0.109,0.101,0.205,0.204,0.296,0.306
					c0.002,0.002,0.004,0.004,0.006,0.006c0.083,0.037,0.177,0.086,0.274,0.148c0.233,0.156,0.412,0.329,0.539,0.461
					c0.137,0.026,0.295,0.071,0.463,0.155l0.008,0.004c0.121-0.053,0.225-0.084,0.308-0.106c0.095-0.059,0.187-0.104,0.271-0.137
					c0.076-0.08,0.172-0.171,0.289-0.26c0.023-0.032,0.047-0.064,0.072-0.1L33.6,27.787l0.973-0.723
					c0.031-0.08,0.07-0.179,0.121-0.286l0.013-0.408l0.224-0.209l0.037-0.25l0.295-0.332c0.064-0.074,0.105-0.189,0.189-0.455
					c0.062-0.199,0.14-0.444,0.264-0.707c0.023-0.354,0.117-0.648,0.184-0.854c0.002-0.006,0.002-0.011,0.004-0.016
					c-0.021-0.132-0.031-0.291-0.012-0.47c0.022-0.184,0.07-0.341,0.125-0.471c0.006-0.053,0.014-0.107,0.026-0.165
					c0.028-0.144,0.076-0.272,0.127-0.38c0.001-0.09,0.009-0.189,0.028-0.296c0.023-0.139,0.238-0.263,0.281-0.368
					c-0.037-0.263-0.717-0.663,0.283-1.093c0-0.027,0-0.054,0-0.079c0-0.079-0.174-0.161-0.186-0.25l-0.102-0.042
					c-0.045-0.162-0.154-0.407-0.146-0.706c0.005-0.153,0.007-0.286,0.035-0.396c0-0.005-0.014-0.009-0.014-0.014
					c-0.057-0.233-0.152-0.609-0.104-1.054c-0.046-0.257-0.059-0.503-0.066-0.722c-0.338-0.208-0.599-0.524-0.73-0.914
					c-0.129-0.37-0.12-0.765,0.031-1.165c-0.125-0.128-0.25-0.294-0.342-0.509c-0.107-0.265-0.14-0.51-0.14-0.717
					c-0.091-0.124-0.174-0.273-0.229-0.455c-0.146-0.457-0.088-0.94,0.086-1.359l-0.01-0.283l0.094-0.147
					c-0.021-0.104-0.061-0.239-0.11-0.354c-0.099-0.236-0.147-0.471-0.171-0.593c-0.145-0.771-0.008-1.464,0.102-2.022
					c0.026-0.134,0.055-0.268,0.074-0.4l0.105-0.684l0.096-0.06l-0.006-0.661l0.273-0.255c0.051-0.113,0.12-0.242,0.219-0.373
					c0.012-0.03,0.021-0.063,0.031-0.095c0.031-0.101,0.064-0.202,0.104-0.308c0.018-0.051,0.027-0.104,0.041-0.158
					c0.044-0.185,0.104-0.438,0.226-0.694c0.166-0.354,0.392-0.601,0.541-0.764c0.021-0.022,0.042-0.045,0.063-0.067l0.166-0.516
					l0.563-0.281c0.146-0.072,0.354-0.25,0.577-0.438c0.146-0.125,0.307-0.262,0.486-0.401c0.223-0.308,0.506-0.468,0.69-0.545
					l0.538-0.224l0.206,0.074c0.22-0.107,0.527-0.008,0.915-0.033l0.049,0.218h0.059c0.272,0,0.498-0.155,0.662-0.092
					c0.008-0.002,0.016-0.113,0.021-0.115C41.6,1.63,41.729,1.556,41.846,1.55l0.604-0.06l0.457,0.381
					c0.334,0.289,0.716,0.465,1.157,0.678c0.487,0.234,1.041,0.498,1.601,0.939c0.161,0.131,0.269,0.266,0.339,0.374
					c0.214,0.196,0.404,0.409,0.592,0.618c0.084,0.096,0.17,0.19,0.256,0.281c0.594,0.366,0.895,0.958,1.123,1.409
					c0.061,0.118,0.123,0.243,0.195,0.371c0.027,0.05,0.051,0.085,0.071,0.12c0.084,0.138,0.2,0.325,0.34,0.652
					c0.055,0.13,0.142,0.275,0.241,0.444c0.131,0.224,0.279,0.477,0.408,0.777c0.201,0.472,0.271,0.909,0.33,1.26
					c0.02,0.117,0.037,0.235,0.063,0.354l0.021,0.042c0.078,0.152,0.195,0.382,0.26,0.679c0.119,0.561,0.018,1.023-0.07,1.32
					c0.098,0.329,0.165,0.736,0.083,1.204L49.82,13.95l-0.012,0.009c0.15,0.298,0.254,0.681,0.159,1.139
					c-0.034,0.176-0.12,0.438-0.321,0.7c-0.002,0.187,0.012,0.456,0.021,0.654c0.018,0.307,0.033,0.624,0.02,0.953
					c-0.013,0.344-0.049,0.668-0.082,0.982c-0.023,0.215-0.047,0.427-0.061,0.636c-0.007,0.118-0.007,0.235-0.007,0.352
					c-0.002,0.339-0.004,0.737-0.108,1.159c0.022,0.466-0.086,0.855-0.158,1.115c-0.02,0.069-0.041,0.139-0.055,0.21
					c-0.064,0.347-0.105,0.718-0.146,1.11c-0.082,0.771-0.174,1.635-0.5,2.5c-0.09,0.864-0.446,1.723-0.725,2.28
					c-0.129,0.669-0.408,1.204-0.638,1.646c-0.104,0.199-0.201,0.387-0.258,0.537c-0.05,0.131-0.089,0.26-0.13,0.387
					c-0.105,0.332-0.227,0.709-0.443,1.101c-0.09,0.164-0.191,0.292-0.261,0.374c-0.042,0.089-0.077,0.175-0.113,0.26
					c-0.131,0.309-0.293,0.69-0.571,1.078c-0.135,0.188-0.271,0.338-0.383,0.46c-0.066,0.073-0.158,0.175-0.181,0.214l-0.097,0.314
					l-0.215,0.229c-0.195,0.219-0.416,0.504-0.647,0.805c-0.232,0.3-0.479,0.617-0.751,0.938c-0.776,0.921-1.553,1.609-2.373,2.103
					c-0.143,0.086-0.266,0.137-0.346,0.168c-0.141,0.092-0.272,0.18-0.405,0.268c-0.88,0.584-1.87,1.243-3.124,1.444
					c-0.799,0.286-1.659,0.483-2.504,0.571c-0.369,0.041-0.76,0.063-1.15,0.063c-0.562,0-1.109-0.043-1.63-0.127
					c-0.78-0.024-1.599-0.188-2.431-0.485c-0.826-0.297-1.543-0.682-2.011-0.945c-0.164-0.092-0.334-0.186-0.504-0.276
					c-0.681-0.371-1.384-0.755-2.013-1.247c-0.227-0.177-0.395-0.359-0.53-0.506c-0.048-0.053-0.092-0.105-0.143-0.148
					c-0.104-0.088-0.213-0.164-0.319-0.24c-0.229-0.164-0.489-0.35-0.743-0.604c-0.501-0.501-0.938-0.986-1.359-1.455l-0.076-0.084
					c-0.143-0.158-0.32-0.318-0.509-0.49c-0.239-0.217-0.487-0.44-0.724-0.711c-0.142-0.162-0.239-0.326-0.308-0.453
					c-0.056-0.039-0.114-0.084-0.175-0.139c-0.313-0.279-0.588-0.588-0.855-0.886c-0.193-0.218-0.376-0.421-0.528-0.563
					c-0.063-0.059-0.126-0.117-0.187-0.172c-0.004,0.004-0.007,0.008-0.01,0.014c-0.08,0.106-0.137,0.194-0.191,0.281l-0.147,0.246
					c-0.082,0.137-0.165,0.274-0.256,0.419l-0.073,1.021l-0.454,0.009c-0.063,0.238-0.116,0.49-0.16,0.747
					c-0.023,0.178-0.075,0.345-0.149,0.497c-0.021,0.306-0.083,0.636-0.062,0.91l0.053,0.039v1.076c0,0.125,0.025,0.248-0.006,0.366
					c0.021,0.233,0.098,0.484,0.159,0.769c0.059,0.267-0.06,0.568-0.015,0.892l-0.139,0.367v0.008c0,0,0.2,0.013,0.202,0.019
					l0.341,0.479l-0.025,0.218l0.081,0.29l-0.009,0.027c0.006,0.022,0.017,0.048,0.023,0.071c0.031,0.156,0.054,0.317,0.07,0.485
					c0.01,0.097,0.027,0.241,0.042,0.286l-0.611,0.292c0.068,0.201,0.144,0.449,0.169,0.731c0.145,0.318,0.285,0.658,0.422,1.009
					l0.249-0.119l0.453,1.771c0.107,0.424,0.331,0.869,0.59,1.383c0.194,0.387,0.395,0.785,0.576,1.232L16.654,48.333z"/>
			</g>
			<path fill="#F9A737" d="M48.438,11.185c-0.045-0.204-0.203-0.401-0.256-0.612c-0.121-0.493-0.129-0.969-0.332-1.448
				C47.669,8.7,47.387,8.34,47.2,7.903c-0.14-0.324-0.222-0.416-0.339-0.624c-0.34-0.604-0.51-1.146-0.91-1.295
				c-0.376-0.357-0.736-0.846-1.092-1.131c-0.057-0.044-0.104-0.175-0.127-0.192c-0.907-0.718-1.891-0.875-2.809-1.669
				c-0.201,0.011-0.455,0.096-0.746,0.058c-0.129-0.018-0.294-0.141-0.41-0.135c-0.438,0.028-0.715,0.461-1.182,0.292
				c-0.089,0.037-0.064,0.112-0.105,0.165c-0.608,0.429-1.032,0.917-1.557,1.178c-0.131,0.403-0.486,0.586-0.646,0.924
				C37.18,5.683,37.148,5.975,37.064,6.2c-0.094,0.257-0.146,0.493-0.265,0.723c-0.192,0.118-0.124,0.313-0.267,0.442
				c0.005,0.28-0.071,0.533-0.073,0.81c-0.056,0.057-0.067,0.129-0.146,0.177c-0.099,0.626-0.307,1.27-0.183,1.927
				c0.011,0.06,0.038,0.185,0.066,0.253c0.196,0.445,0.374,1.189,0.161,1.521c0.004,0.091,0.072,0.067,0.076,0.157
				c-0.121,0.097-0.306,0.416-0.237,0.624c0.022,0.072,0.243,0.148,0.319,0.303c0.111,0.231-0.086,0.521,0,0.731
				c0.041,0.097,0.231,0.168,0.293,0.268c0.16,0.258,0.188,0.846,0.16,1.091c-0.02,0.194-0.152,0.283-0.104,0.42
				c0.042,0.124,0.209,0.203,0.438,0.164c0.555,0.322,0.244,1.342,0.475,1.919c-0.172,0.437,0.129,0.85,0.082,1.27
				c-0.012,0.083-0.075,0.181-0.077,0.267c-0.005,0.142,0.083,0.337,0.106,0.523c0.039,0.318,0,0.592,0.051,0.857
				c-0.342,0.362-0.039,0.691-0.104,1.022c-0.024,0.123-0.142,0.228-0.164,0.365c-0.021,0.115,0.044,0.243,0.013,0.368
				s-0.152,0.235-0.178,0.354c-0.02,0.09,0.023,0.173,0,0.244c-0.031,0.094-0.113,0.137-0.127,0.239
				c-0.012,0.108,0.071,0.242,0.057,0.352c-0.06,0.401-0.299,0.771-0.209,1.189c-0.394,0.562-0.332,1.213-0.845,1.792
				c-0.028,0.19-0.055,0.33-0.198,0.465c0,0.047,0.062,0.082,0.023,0.136c-0.262,0.273-0.256,0.732-0.559,0.957
				c0.021,0.03,0.039,0.062,0.041,0.093c-0.41,0.313-0.789,0.688-0.907,1.016c-0.277,0.046-0.373,0.332-0.584,0.466
				c-0.099,0.062-0.228,0.037-0.296,0.104c-0.143,0.141-0.369,0.133-0.5,0.197c-0.039,0.021-0.066,0.112-0.11,0.133
				c-0.082,0.037-0.161-0.043-0.228,0.002c-0.295,0.178-0.571-0.004-0.922-0.179c-0.106-0.054-0.252-0.021-0.414-0.081
				c-0.271-0.1-0.446-0.428-0.744-0.625c-0.075-0.05-0.184-0.062-0.258-0.111c-0.19-0.125-0.318-0.321-0.512-0.5
				c-0.468-0.436-1.077-0.847-1.448-1.47c-0.751-0.536-1.634-1.666-2.55-2.576c-0.317-0.094-0.412-0.392-0.65-0.596
				c-0.376-0.319-0.78-0.624-1.45-1.117c-0.614-0.444-1.246-0.854-1.819-1.236c-1.288-0.623-2.698-0.99-4.125-0.97
				c-1.427,0.016-2.834,0.416-4.098,1.088c-0.634,0.335-1.235,0.733-1.799,1.176c-0.281,0.22-0.56,0.459-0.805,0.688
				c-0.238,0.224-0.455,0.442-0.668,0.68c-0.852,0.936-1.531,2.019-1.994,3.127c-0.284,0.28-0.444,0.851-0.478,1.181
				c-0.097,0.037-0.171,0.241-0.245,0.388c-0.004,0.614-0.354,1.26-0.443,1.967c0.154,0.213-0.063,0.6,0.047,0.879
				c-0.122,0.095-0.069-0.162-0.155,0.019c0.267,0.493-0.009,1.927,0.103,2.565c0.001-0.045,0.054-0.054,0.06,0.004
				c-0.089,0.152,0.089,0.226,0.084,0.396c0.063,1.146,0.485,1.904,0.73,2.802c-0.035,0.12-0.14,0.449,0.006,0.535
				c-0.005-0.167-0.043-0.376,0.103-0.382c-0.01,0.28,0.113,0.629,0.258,0.789c0.07,0.33,0.025,0.515,0.189,0.788
				c0.012,0.072,0.135-0.1,0.161,0.055c0.018,0.475,0.193,0.676,0.216,1.096c0.161,0.088,0.316,0.549,0.282,0.711
				c0.092,0.115,0.076-0.172,0.138-0.069c0.135,0.353,0.282,0.668,0.286,1.022c0.086,0.062,0.187,0.092,0.245,0.221
				c0.036,0.087-0.138,0.013-0.056,0.135c0.112,0.104,0.103-0.137,0.211-0.135c0.1,0.162,0.16,0.105,0.266,0.171
				c-0.005,0.269,0.208,0.386,0.325,0.591c0.122,0.21,0.155,0.479,0.271,0.682c0.1,0.174,0.225,0.221,0.296,0.43
				c0.058,0.172,0.007,0.351,0.083,0.535c0.06,0.092,0.081-0.104,0.139,0.035c0.273,0.646,0.563,1.285,0.932,1.69
				c-0.516-0.646-0.488-1.274-0.923-1.854c0.091-0.144-0.185-0.266-0.047-0.425c-0.089-0.019-0.087,0.15-0.127,0
				c-0.007-0.053,0.019-0.083-0.018-0.153c0.184,0.039,0.135-0.1,0.223-0.188c-0.199-0.554-0.411-0.97-0.563-1.458
				c-0.063-0.08-0.068,0.089-0.126-0.006c-0.082-0.18-0.102-0.329-0.208-0.539c0.096-0.1,0.11-0.264,0.282-0.227
				c0.175,0.666,0.676,1.484,0.966,2.239c0.087,0.229,0.06,0.513,0.286,0.58c-0.179-0.321-0.077-0.669-0.159-0.972
				c-0.107-0.393-0.421-0.75-0.498-1.145c-0.022-0.111,0.017-0.172-0.013-0.27c-0.022-0.075-0.146-0.18-0.166-0.268
				c-0.021-0.096,0.04-0.119,0.01-0.196c-0.059-0.16-0.19-0.261-0.236-0.444c-0.077-0.309-0.045-0.637-0.163-0.965
				c0.037-0.075,0.173-0.078,0.214-0.006c0.09,0.398,0.114,0.465,0.232,0.865c0.001-0.049,0.02-0.082,0.069-0.094
				c0.025,0.127,0.001,0.182,0.093,0.247c-0.087-0.298,0.145-0.329,0.276-0.257c0.157,0.748,0.535,1.61,0.654,2.232
				c0.083,0.045,0.177,0.061,0.238,0.158c0.298,0.644,0.499,1.41,0.846,2.088c-0.151-0.867-0.561-1.668-0.94-2.598
				c0.016-0.045,0.104-0.041,0.055-0.13c-0.212-0.378-0.335-0.858-0.455-1.168c0.083-0.177,0.173-0.351,0.269-0.519
				c-0.38-0.974-0.036-1.826-0.21-2.769c0.09-0.013,0.104-0.091,0.161-0.131c0.087,0.063,0.191,0.097,0.271,0.17
				c0.034,0.152,0.113,0.3,0.077,0.447c0.42,0.729,0.514,1.884,0.959,2.812c0.178,0.073,0.26-0.053,0.357-0.17
				c-0.055-0.484-0.375-0.852-0.321-1.388c0.3-0.263,0.583-0.14,0.701,0.226c0.191,0.604,0.486,1.672,0.577,2.084
				c0.8,1.726,1.445,3.524,2.44,5.221c-0.408-1.006-0.986-1.856-1.23-2.81c-0.059,0.028-0.1,0.007-0.121-0.065
				c-0.325-0.902-0.688-1.892-1.054-2.646c0.096-0.396-0.343-0.959-0.226-1.354c0.352-0.01,0.578,0.217,0.766,0.529
				c-0.126-0.341-0.111-0.695-0.171-0.988c-0.05-0.24-0.255-0.625-0.212-0.764c0.011-0.033,0.092,0.006,0.081-0.051
				c0.019,0.098-0.062-0.167-0.071-0.186c-0.068-0.118-0.088-0.09-0.112-0.242c-0.031-0.197-0.025-0.195,0.024-0.334
				c-0.094-0.68-0.313-1.303-0.327-1.96c-0.002-0.068-0.023-0.202-0.021-0.214c0.014-0.062,0.079-0.019,0.081-0.1
				c0.001-0.046-0.067-0.018-0.067-0.085c0-0.253,0.005-0.534-0.019-0.776c-0.062-0.608,0.021-1.295,0.037-1.738
				c0.029-0.098,0.122,0.039,0.131-0.094c0.125-0.752,0.32-1.45,0.561-2.017c0.026-0.04,0.138,0.04,0.143-0.028
				c0.049-0.067-0.093-0.103-0.058-0.168c0.054-0.027,0.112-0.047,0.186-0.039c0.18-0.273,0.321-0.525,0.473-0.771
				c0.076-0.122,0.155-0.243,0.244-0.361c0.078-0.109,0.214-0.259,0.257-0.31c0.168-0.203,0.411-0.347,0.662-0.406
				c0.19-0.053,0.433-0.137,0.583,0.034c0.133,0.006,0.25,0.057,0.355,0.121c0.061,0.04,0.084,0.054,0.169,0.124
				c0.112,0.095,0.269,0.235,0.414,0.373c0.432,0.403,0.894,1.01,1.356,1.425c0.08,0.071,0.217,0.121,0.302,0.216
				c0.129,0.144,0.182,0.358,0.313,0.509c0.354,0.403,0.828,0.752,1.219,1.186c0.438,0.486,0.879,0.98,1.382,1.482
				c0.283,0.285,0.642,0.483,0.964,0.754c0.215,0.181,0.393,0.436,0.634,0.623c0.677,0.529,1.521,0.946,2.33,1.399
				c0.539,0.304,1.13,0.606,1.777,0.84c0.648,0.231,1.365,0.392,2.068,0.4c0.763,0.134,1.645,0.163,2.481,0.069
				c0.824-0.086,1.627-0.291,2.291-0.543c1.187-0.144,2.151-0.912,3.158-1.556c0.106-0.069,0.202-0.081,0.313-0.147
				c0.785-0.473,1.451-1.135,1.998-1.783c0.551-0.652,0.995-1.292,1.43-1.776c0.148-0.485,0.513-0.731,0.772-1.092
				c0.279-0.39,0.4-0.819,0.603-1.217c0.064-0.13,0.181-0.222,0.25-0.351c0.221-0.394,0.311-0.83,0.479-1.281
				c0.252-0.674,0.761-1.303,0.854-2.129c0.301-0.561,0.67-1.426,0.688-2.149c0.488-1.123,0.429-2.358,0.653-3.549
				c0.076-0.402,0.27-0.764,0.154-1.187c0.188-0.417,0.119-0.935,0.149-1.455c0.029-0.515,0.121-1.053,0.142-1.595
				c0.033-0.776-0.166-1.718,0.101-2.328c0.651-0.34-0.401-0.744-0.354-1.366c0.088-0.345,0.282-0.332,0.504-0.512
				c0.056-0.312-0.056-0.579-0.162-0.854C48.277,11.938,48.533,11.633,48.438,11.185z M10.462,41.068
				c-0.036,0.002-0.051,0.021-0.05,0.052C10.252,41.075,10.411,40.848,10.462,41.068z M10.539,41.132
				c0.093,0.31,0.343,0.706,0.304,0.959c0.017,0.06,0.148-0.102,0.214-0.015c-0.033,0.15-0.042,0.322,0.025,0.548
				c-0.234,0.087-0.227-0.404-0.442-0.362c-0.03-0.181-0.044-0.27-0.176-0.316c-0.021-0.381-0.189-0.422-0.179-0.717
				C10.441,41.266,10.376,41.15,10.539,41.132z"/>
		</g>
	</g>
</g>
</svg>
