<?xml version="1.0" encoding="utf-8"?>
<!-- Generator: Adobe Illustrator 15.0.0, SVG Export Plug-In . SVG Version: 6.00 Build 0)  -->
<!DOCTYPE svg PUBLIC "-//W3C//DTD SVG 1.1//EN" "http://www.w3.org/Graphics/SVG/1.1/DTD/svg11.dtd">
<svg version="1.1" id="Layer_1" xmlns="http://www.w3.org/2000/svg" xmlns:xlink="http://www.w3.org/1999/xlink" x="0px" y="0px"
	 width="78px" height="44px" viewBox="0 0 78 44" enable-background="new 0 0 78 44" xml:space="preserve">
<g>
	<path fill="#F9A737" d="M57.223,33.928c-0.074,0.021-0.103,0.004-0.119-0.02l-0.153,0.104L57.223,33.928z"/>
	<path fill="#F9A737" d="M68.631,22.328l0.014-0.021c-0.037,0.006-0.08,0.016-0.109,0C68.562,22.363,68.562,22.363,68.631,22.328z"
		/>
	<path fill="#F9A737" d="M66.527,25.541c-0.068,0.029-0.139,0.053-0.207,0.068C66.346,25.633,66.427,25.598,66.527,25.541z"/>
	<path fill="#F9A737" d="M59.406,33.016c-0.188,0.055-0.383,0.104-0.583,0.152C58.918,33.215,59.154,33.186,59.406,33.016z"/>
	<path fill="#F9A737" d="M66.998,25.266c-0.131,0.064-0.32,0.193-0.471,0.275C66.688,25.477,66.846,25.381,66.998,25.266z"/>
	<path fill="#F9A737" d="M70.762,17.084c-0.033,0.068-0.063,0.141-0.09,0.219c0.021,0.006,0.034,0.021,0.061,0.021L70.762,17.084z"
		/>
	<path fill="#F9A737" d="M76.954,13.295c-0.218-0.486-0.323-0.535-0.369-0.436C76.675,12.922,76.792,13.045,76.954,13.295z"/>
	<path fill="#F9A737" d="M68.746,5.025c0.081,0.021,0.163,0.037,0.238,0.047C68.823,5.02,68.707,4.996,68.746,5.025z"/>
	<path fill="#F9A737" d="M73.131,9.732c-0.02,0.037-0.021,0.08-0.015,0.129C73.165,9.869,73.178,9.834,73.131,9.732z"/>
	<path fill="#F9A737" d="M10.997,20.414l0.217-0.074C11.157,20.33,11.08,20.361,10.997,20.414z"/>
	<path fill="#F9A737" d="M6.169,29.184l-0.003,0.074L6.169,29.184z"/>
	<path fill="#F9A737" d="M5.362,29.426v-0.168C5.362,29.33,5.362,29.395,5.362,29.426z"/>
	<path fill="#F9A737" d="M71.253,16.832c-0.162-0.18-0.278-0.605-0.481-0.574c0.022,0.275,0.017,0.549-0.01,0.826
		C70.9,16.793,71.098,16.604,71.253,16.832z"/>
	<path fill="#F9A737" d="M33.388,2.406c-0.493,0.131-0.734,0.223-0.849,0.293l0.876-0.291L33.388,2.406z"/>
	<polygon fill="#F9A737" points="22.871,7.566 22.905,7.531 22.843,7.568 	"/>
	<path fill="#F9A737" d="M34.235,2.012c0.051-0.043,0.109-0.086,0.135-0.135C34.182,1.928,34.18,1.971,34.235,2.012z"/>
	<path fill="#F9A737" d="M55.312,35.652c-0.058,0.041-0.104,0.076-0.179,0.121C55.217,35.729,55.27,35.689,55.312,35.652z"/>
	<path fill="#F9A737" d="M23.684,7.551l-0.813,0.016l-0.263,0.266C22.563,8.092,23.365,7.746,23.684,7.551z"/>
	<path fill="#F9A737" d="M34.235,2.012c-0.177,0.143-0.468,0.271-0.82,0.396l0.445,0.055C34.862,2.221,34.366,2.117,34.235,2.012z"
		/>
	<path fill="#F9A737" d="M76.473,14.586c0.006-0.311,0.204,0.045,0.346,0.254c0.139,0.195,0.252,0.334,0.182-0.137
		c-0.207-0.375-0.434-0.734-0.676-1.072c0.228,0.137,0.186-0.582,0.262-0.771c-0.249-0.166-0.221,0.254-0.273,0.559
		c-0.057,0.309-0.164,0.482-0.613-0.066c-0.292-0.221-0.682-1.129-0.918-1.576c0.503,1.004-0.273,0.113-0.616-0.16
		c-0.246-0.639-0.985-1.395-1.047-1.754C72.99,9.84,72.604,9.51,72.372,9.254l0.05-0.104c-0.646-0.445,0.126,0.254-0.104,0.209
		c-0.432-0.346-0.957-1.088-1.719-1.578c0.754,0.488,1.442,0.846,2.025,1.207c-1.172-1.273,0.607-0.262,1.107-0.135
		c-1.151-0.924-1.721-1.074-2.744-1.563c-1.014-0.938,0.543-0.645,0.869-0.441c-1.164-0.637-2.485-0.934-3.121-1.109
		c1.013,0.027,0.941-0.172,1.861-0.049c-0.771-0.742-1.113-0.551-1.615-0.619c0.271,0.086,0.672,0.266,0.721,0.391
		c-1.051-0.59-1.169,0.123-1.831,0.133c-0.687-0.531-2.159-1.164-1.929-1.496l-0.133,0.402C64.854,4.277,65.4,4.131,65.3,3.949
		c-0.438,0.17-0.141,0.676-1.721,0.33c0.426-0.602-1.374-0.43-1.183-1.014c-0.754-0.137-1.16,0.131-1.914-0.088
		c-0.793-0.514,1.34-0.604,1.789-0.375c1.086,0.24-0.209,0.242,0.227,0.34c0.357,0.021,0.716,0.049,1.076,0.082
		c-0.538-0.289-1.643-0.699-1.44-0.943c-1.092-0.109,0.787,0.479-0.409,0.379l-0.664-0.303c-1.188-0.063,0.146,0.506-1.365,0.318
		c1.054-0.135-1.62-0.268-1.469-0.686c-0.069,0.277-0.744,0.203-1.447,0.133c-0.703-0.072-1.438-0.139-1.61,0.078l0.778,0.195
		l-0.152-0.268c0.861,0.063,1.6-0.01,2.479,0.209c-0.727,0.115,0.172,0.502-0.658,0.58c-1.551,0.158-0.369-0.35-0.582-0.373
		l-1.238,0.182l0.791,0.318c-0.943,0.002-2.214-0.078-3.498-0.162c-1.893-0.396,0.248-0.313-1.111-0.668
		c-0.617,0.113-0.469,0.254-1.336,0.209c0.467,0.162,0.836-0.068,1.162-0.039c0.411,0.363-1.558,0.152-1.467,0.498
		c-0.354-0.133-0.289-0.277-0.009-0.426c-1.459,0.145-2.851,0.152-3.425-0.258l-0.602,0.475c-2.499,0.02,1.678-0.518-0.438-0.646
		c-0.872,0.02-1.727,0.117-2.086,0.33l0.75-0.057c-0.551,0.291-0.49,0.451-1.381,0.705c-0.649,0.029-0.34-0.299-1.088,0.033
		c-1.996,0.014-0.695-0.584-0.425-1.025c-1.485-0.037,0.632-0.922-0.332-0.611l0.279,0.063C41.102,1.72,40.623,1.98,40.15,2.245
		c1.476,0.277,0.498-0.523,1.121-0.121l0.846-0.07c-0.234,0.27-2.192,0.365-2.324,0.676c-0.038-0.139,0.118-0.506,0.991-0.646
		l-0.603-0.459c-0.518,0.021-0.797,0.43-1.113,0.234C38.254,1.64,40.092,1.13,38.203,1.3c-2.02,0.24-1.769,0.879-3.125,1.066
		c0.163,0.09,0.492,0.006,0.913-0.061c-0.398,0.266,0.394,0.258-0.308,0.541c-0.487-0.271-1.889,0.055-2.952,0.326
		c0.232-0.262-0.501-0.281-0.192-0.475c-0.533,0.18-1.018,0.369-1.207,0.588c2.23-0.305-2.014,0.85-0.242,0.756
		c-1.675,0.438-2.086,0.225-3.179,0.359c0.032-0.131,1.863-0.801,0.33-0.502c-1.59,0.895,0.457,0.41-0.722,1.26l1.1-0.203
		c0.267,0.398-1.795,0.684-2.032,0.879C25.9,5.943,27.45,5.41,26.716,5.324c-1.007,0.227-1.396,0.678-2.069,0.738
		c0.495-0.514,0.152-0.26,0.746-0.77c-2.28,0.828-0.007-0.396-1.822,0.063c-0.533,0.268-0.084,0.385-0.996,0.668
		c0.643,0.115,0.612,0.234,2.051-0.285c-0.33,0.641-1.927,0.592-2.806,1.281c0.807-0.289,0.284-0.012,1.116-0.424
		c0.268,0.336,0.603,0.273-0.03,0.937c0.868-0.461,1.111-1.033,2.481-1.398c0.502,0.26-1.513,0.893-1.33,1.414
		c-0.551,0.498-2.193,0.92-2.981,1.051c-1.111,0.846-2.607,1.578-3.3,2.49c-0.947,0.299-2.849,1.873-4.452,2.764
		c-0.372-0.061-1.967,1.143-1.179,0.277c-0.094,0.148-1.318,1.088-0.86,1.029c0.081-0.156,0.26-0.207,0.521-0.408l-0.064,0.416
		c-0.798,0.416-1.347,1.324-2.112,1.725c-0.376-0.014,1.148-1.127,0.525-0.99c-0.188,0.434-0.898,1.207-1.635,1.988
		c-0.741,0.775-1.502,1.568-1.932,1.902c-0.524,0.494-0.864,0.32-1.095,0.529c-0.255,0.324-0.502,0.656-0.74,0.996
		c-0.186,0.045-0.313-0.023-0.575,0.078c-0.433,0.467-0.56,0.902-0.703,1.271c-0.53,0.66-0.734,0.789-0.802,0.608
		c-0.063-0.176,0.032-0.645,0.16-1.091c0.206-0.26,0.418-0.51,0.635-0.754c0.252-0.686,0.936-1.438,0.302-1.174
		c-0.269,0.418-0.14,0.492-0.178,0.678l-0.488,0.363c-0.103,0.283-0.352,0.777-0.519,1.209c-0.169,0.434-0.257,0.799-0.101,0.781
		c-0.732,0.969-1.023,2.367-1.472,3.404c0.348-0.701,0.223,0.264,0.48,0.09c0.123-0.416,0.269-0.818,0.431-1.211
		c-0.131,0.492-0.233,1.113-0.313,1.727c-0.08,0.617-0.138,1.227-0.24,1.717c-0.161-0.125-0.223-0.176-0.391,0.342
		c0.117-0.362,0.183,0.113,0.284,0.47c0.106,0.36,0.207,0.592,0.312-0.171c-0.107-0.551-0.128-1.084-0.005-1.786
		c0.425-0.406,0.294,0.694,0.508,1.301c0.034,0.377,0.101,0.933,0.238,1.5c0.135,0.567,0.347,1.146,0.566,1.592
		c0.061,0.308,0.022,0.539,0.05,0.813c0.028,0.271,0.128,0.592,0.503,1.002c-0.181-0.689,0.101-0.453,0.487-0.086
		c0.387,0.373,0.933,0.844,1.176,0.852c0.494,0.846,1.246,0.914,1.622,1.619c-0.189-0.074-0.56-0.354-0.92-0.648
		c-0.364-0.293-0.714-0.604-0.94-0.666c-0.116,0.06-0.192,0.232-0.374,0.254c-0.178,0.017-0.485-0.108-0.989-0.746
		c0.487,0.845,0.739,1.011,0.894,1.076c0.163,0.06,0.261,0.008,0.589,0.285c-0.154-0.146-0.303-0.299-0.45-0.453
		c0.266,0.152,0.062-0.383,0.429,0.033c0.679,0.826,1.108,1.289,1.454,1.729c0.353,0.432,0.636,0.825,1.169,1.36
		c-0.174-0.332,0.479-0.117,0.777,0.039c1.099,0.887-0.293,0.467,0.288,1.223c0.551,0.033,1.389,0.498,1.174,0.191
		c0.508,0.23,0.202,0.203,0.537,0.434c0.417-0.053,0.842-0.006,1.553,0.267c-0.103,0.078-0.265,0.205-0.927-0.127
		c0.729,0.396,0.891,0.854,0.473,0.931c-0.411-0.207-0.819-0.425-1.222-0.65c-0.685-0.004,1.144,0.604,1.007,0.807
		c-0.595-0.162-0.959-0.496-1.346-0.59c0.249,0.42,1.476,0.633,2.141,0.826c1.027,0.398,0.564,0.521,0.534,0.668
		c0.967,0.074,0.479-0.205-0.01-0.49c-0.492-0.291-0.983-0.592-0.102-0.504c0.715-0.082,2.252,0.42,3.373,0.602
		c-0.859-0.576,0.224-0.455,1.367-0.354c-1.46-0.318-0.286-0.469-2.04-0.648l0.039-0.287c0.714,0.189,1.541,0.504,2.268,0.646
		c-0.166,0.049-0.01,0.145-0.258,0.145c0.732,0.103,1.466,0.183,2.199,0.246l-0.25,0.154c1.341,0.242,2.992,0.617,3.813,0.564
		c-0.659-0.021-1.198-0.355-0.508-0.379c0.405-0.092,1.13-0.183,1.741-0.123c0.304,0.356,2.647,0.403,1.158,0.701
		c1.916-0.136,1.212-0.201,3.028-0.425l-1.217,0.101c-0.15-0.265,0.848-0.707-0.305-0.873c1.351-0.176,0.488-0.627,2.277-0.73
		c0.733,0.133-0.197,0.549-1.214,0.631c0.511,0.014,0.981,0.146,1.503-0.055c0.396,0.205-0.952,0.418-0.9,0.5
		c0.937-0.01-0.021-0.141,0.857-0.242c1.525-0.371,1.006,0.406,2.474,0.119c-0.322,0.039-0.902-0.01-0.522-0.16
		c1.979-0.141,1.08-0.342,2.495-0.611c0.846,0.293,0.539,0.75,1.851,0.679l-0.727,0.084c0.531,0.135,1.12,0.143,1.646,0.063
		c2.669-0.717,4.764-1.715,7.393-2.66l-0.945,0.324c-0.356-0.049,0.771-0.348,0.719-0.484l0.646,0.019
		c0.097-0.308-1.418,0.072-1.12-0.276c0.09,0.014,0.287-0.025,0.396-0.076l-0.574,0.051C44.4,38.738,45.256,38,46.307,38.17
		c-2.414,0.705-0.152,0.9-2.529,1.645c1.256-0.42,0.3,0.234,0.459,0.32c0.693-0.109,0.281-0.289,1.062-0.395
		c0.036,0.203-1.562,0.787-0.797,0.75c0.01-0.322,0.701-0.434,0.977-0.729c0.58-0.065,0.035,0.197,0.309,0.228
		c0.309-0.096,0.456-0.275,0.745-0.313l-0.161,0.242c1.637-0.178,0.398-0.406,2.186-0.854c-0.025-0.26-0.545-0.035-1.266,0.228
		c-0.521-0.422,2.084-1.26,1.746-1.806c1.596-0.623-0.355,0.369,1.078,0.058c0.89,0.104-0.893,0.731-1.174,1.097l1.533-0.246
		c-0.33,0.635-1.293,0.776-1.424,1.282c1.107-0.325,0.941-0.397,1.991-0.94c-1.903,0.254,0.675-0.553-0.497-0.66
		c0.857-0.164,0.639,0.025,1.822-0.406c-0.717,0.377,0.109,0.391-0.891,0.758c1.6-0.617,1.129-0.555,2.707-1.213
		c0.359-0.518-1.761,0.215,0.039-0.773c0.406-0.17,0.377-0.016,0.137,0.082c1.396-0.432-0.438-0.282,0.334-0.799
		c0.563-0.283,0.824-0.25,0.619-0.07c0.791-0.555,0.217-0.557,0.758-0.883l-0.276,0.078c0.2-0.203-0.66-0.352,0.548-0.928
		c0.885-0.412,0.69-0.107,0.762-0.012c0.637-0.438,1.201-0.607,1.722-0.74c-0.078-0.037-0.058-0.123,0.146-0.232
		c1.088-0.703,0.795-0.092,1.244-0.276c1.691-0.761-0.502-0.437,1.248-1.479c-0.693,0.373-1.396,0.729-2.109,1.07
		c0.008-0.195-0.068-0.443-0.514-0.201c0.079,0.248-0.562,0.834-1.292,1.148c-0.327-0.16,1.736-1.25,0.413-0.934
		c0.443-0.169,0.982-0.546,1.505-0.802c-0.356,0.565,1.657-0.864,0.952-0.062l2.325-1.403c0.596-0.375,1.163-0.754,2.024-1.537
		c-0.045,0.276-0.97,1.572-2.097,2.113l-0.18-0.097c-1.187,1.006,1.118-0.475,1.046-0.082c0.661-0.731,1.548-1.291,2.475-1.899
		c0.928-0.606,1.897-1.271,2.661-2.146c-0.403,0.168-0.142-0.22-0.19-0.404c-0.625,0.668-0.471,0.604-1.105,0.91
		c-0.054-0.252,0.402-0.558,0.498-0.871c0.002-0.34-0.493,0.469-0.824,0.582c0.547-0.672,0.461-0.646,0.678-1.14
		c0.467-0.188,0.502-0.065,0.91-0.174c0.743-0.748,0.954-1.176,1.139-1.549c0.177-0.377,0.328-0.703,0.811-1.346
		c-0.543,0.712,0.45-0.207-0.173,0.555l0.331-0.434c-0.232,0.686-0.766,1.52-1.198,2.184c-0.428,0.664-0.739,1.176-0.438,1.289
		c0.815-0.937,1.154-1.813,1.97-3.007l0.058,0.113c0.602-0.86-0.127-0.065-0.074-0.33c0.234-0.537,0.537-0.778,0.797-1.014
		c0.256-0.23,0.468-0.453,0.439-0.898c-0.188,0.34-0.39,0.674-0.607,0.998c0.213-0.885-0.162,0.207-0.399-0.172
		c0.251-0.734,0.669-1.654,0.903-2.652c0.244-0.992,0.272-2.055-0.028-2.906c-0.129,0.535-0.118,0.66-0.146,1.322
		c-0.514-0.318-0.449-0.523-0.896-0.246c-0.008,0.227-0.033,0.459-0.072,0.693l-0.484-0.053c0.016-0.18,0.056-0.348,0.107-0.5
		c-0.15-0.049-0.119-0.277-0.113-0.5c0.012-0.221,0-0.439-0.147-0.434c0.042,0.16,0.075,0.32,0.099,0.486
		c-0.236,0.252-0.236-0.32-0.397-0.613c-0.122,0.186-0.075,0.408-0.017,0.697c0.062,0.287,0.133,0.652,0.075,1.033
		c0.194-0.045,0.38,0.865,0.575,0.062c0.2,0.037,0.209,0.568,0.1,0.92c-0.045-0.191-0.713,0.479-0.613-0.32
		c0.006,0.389-0.031,0.479-0.076,0.564c-0.051,0.088-0.104,0.176-0.244,0.619c-0.033-0.088-0.195,0.277-0.432,0.633
		c-0.233,0.354-0.537,0.688-0.683,0.525c-0.034,0.361,0.563,0.324-0.151,1.332c0.43-0.053,1.238-1.189,0.976-0.238
		c0.063-0.207,0.122-0.41,0.172-0.615c0.558-0.662,0.149,0.369,0.812-0.549c-0.164,0.277-0.387,0.951-0.652,0.965
		c0.341,0.043,0.172,0.451-0.076,0.887c-0.244,0.434-0.568,0.883-0.413,1.051c-0.319,0.096-0.562,0.357-0.995,0.9
		c-0.062-0.182-0.435-0.018-0.162-0.482c0.332-0.289,0.484-0.568,0.892-0.848c-0.628-0.184-1.257,1.193-2.196,1.889
		c0.148-0.074,0.225-0.063,0.055,0.219c-0.563,0.425-1.834,1.341-1.679,0.826c-0.89,0.773-1.836,1.508-2.821,2.205
		c-0.096-0.109,0.393-0.34,0.545-0.506c-0.553,0.383-1.115,0.75-1.689,1.107c-0.503,0.088,0.479-0.533,0.538-0.805
		c-0.399,0.268-0.806,0.53-1.216,0.789l0.072-0.271c-0.229,0.301-1.654,1.203-2.166,1.121c-1.36,0.834-1.049,1.401-3.16,2.094
		c-0.057-0.313,1.078-0.629,1.438-1.043c-0.424,0.099-1.505,0.856-1.832,0.676c-1.354,0.81-0.985,1.238-1.579,1.824
		c-1.201,0.517-0.232-0.19-0.314-0.252c-0.359,0.129-0.736,0.896-1.219,0.631c-0.506,0.437-0.75,0.815,0.168,0.576
		c-0.651,0.25-1.537,0.729-1.66,0.918c0.383-0.623-0.817,0.094-1.016-0.24c-1.025,0.277-3.287,0.849-4.121,1.576l0.15-0.562
		l-1.18,0.373c-0.969-0.062,0.973-0.58,1.554-0.78c-1.619,0.397-2.694,0.698-4.161,1.041c0.452,0.01,0.221,0.166,0.458,0.27
		c-0.462,0.316-1.194,0.32-1.711,0.486c-0.151-0.095-0.108-0.215,0.296-0.336l-1.004,0.266c0.021-0.321-0.471-0.219,0.489-0.62
		l-0.917,0.276c-1.048,0.112,0.001-0.258,0.232-0.408c-0.546,0.086-1.091,0.168-1.637,0.242c-0.558,0.267,0.38,0.219-0.736,0.485
		c-1.552-0.03-3.465,0.313-5.195,0.363l1.239,0.18c-1.048,0.021-0.796,0.492-1.103,0.734c-0.974,0.033-2.281,0.127-3.106,0.025
		c0.926-0.275,0.52-0.619-0.344-0.809c-1.937-0.002-1.458,0.521-2.549,0.69c0.853-0.601-1.351-0.239-1.147-0.576
		c-2.441-0.073-4.912-0.112-7.326-0.631c0.026,0.101,0.706,0.33,0.262,0.334c-0.918-0.086-1.276-0.44-1.365-0.586
		c-1.136-0.228-1.816-0.246-2.235-0.19c0.494,0.098,0.514,0.19,0.374,0.326C13.557,37,14,36.717,12.891,36.604
		c-0.146-0.401,1.178,0.271,1.19-0.08c-0.931-0.35-1.542-0.457-2.256-0.606c-0.057-0.256,0.611,0.226,0.198-0.153
		c-1.43-0.474-2.989-1.246-3.79-1.865c-0.007-0.127-0.006-0.256-0.006-0.381c-0.454-0.423-0.734-0.687-0.998-0.828
		c-0.095-0.32,0.101-0.156,0.313,0.057c-0.476-0.611-1.046-1.307-1.193-1.705c0.176,0.008,0.165,0.379,0.342,0.434
		c-0.152-0.418-0.41-0.854-0.563-1.317c-0.157-0.457-0.2-0.931,0-1.228c0.04,0.084,0.043,0.174,0.042,0.256
		c0.064-1.344,0.322-2.748,1.295-4.385c0.607-0.643,0.621-0.811,0.586-1.012c-0.026-0.195-0.102-0.424,0.499-1.119
		c0.29,0.232,0.687-0.229,1.14-0.795c0.448-0.568,0.965-1.242,1.309-1.459l-0.26,0.092c0.485-0.857,1.685-1.486,2.333-1.717
		c1.156-0.842,2.952-2.035,4.073-3.023l-0.171,0.281c0.941-0.783,1.721-0.939,2.709-1.674c-0.005,0.064-0.365,0.355,0.076,0.186
		c5.29-2.451,10.903-4.828,16.73-5.979c5.555-1.09,11.931-1.697,18.148-1.252c3.1,0.223,6.157,0.707,8.938,1.549
		c2.77,0.838,5.277,2.061,6.965,3.68c-0.002,0.008,1.318,0.234,2.695,0.885c0.688,0.314,1.385,0.729,1.953,1.025
		C75.759,14.76,76.227,14.912,76.473,14.586z"/>
	<path fill="#F9A737" d="M54.359,36.521L54.2,36.57C54.264,36.557,54.312,36.541,54.359,36.521z"/>
	<path fill="#F9A737" d="M27.545,41.689c0.129,0.004,0.259-0.006,0.388-0.015C27.805,41.67,27.678,41.674,27.545,41.689z"/>
	<path fill="#F9A737" d="M4.979,36.014c0.127,0.123,0.257,0.24,0.388,0.355C5.204,36.213,5.083,36.102,4.979,36.014z"/>
	<path fill="#F9A737" d="M21.911,8.115c-0.262-0.117,0.522-0.863-0.348-0.697c-1.408,0.588-1.614,0.924-1.835,1.244
		c-0.217,0.33-0.449,0.641-1.854,1.309c0.508-0.164,1.017-0.32,1.525-0.471c-0.239-0.305,0.677-0.973,1.783-1.48l0.448,0.107
		c-0.159,0.154-0.336,0.303-0.523,0.447C21.538,8.424,21.373,8.258,21.911,8.115z"/>
	<path fill="#F9A737" d="M20.999,8.609l0.076-0.012c0.008-0.008,0.021-0.016,0.032-0.023L20.999,8.609z"/>
</g>
</svg>
