<svg xmlns="http://www.w3.org/2000/svg" width="78" height="44" viewBox="0 0 78 44"><g fill="#F9A737"><path d="M57.223 33.928c-.074.021-.103.004-.119-.02l-.153.104.272-.084zM68.631 22.328l.014-.021c-.037.006-.08.016-.109 0 .026.056.026.056.095.021zM66.527 25.541a1.192 1.192 0 0 1-.207.068c.026.024.107-.011.207-.068zM59.406 33.016c-.188.055-.383.104-.583.152.095.047.331.018.583-.152zM66.998 25.266c-.131.064-.32.193-.471.275.161-.064.319-.16.471-.275zM70.762 17.084a2 2 0 0 0-.09.219c.021.006.034.021.061.021l.029-.24zM76.954 13.295c-.218-.486-.323-.535-.369-.436.09.063.207.186.369.436zM68.746 5.025c.081.021.163.037.238.047-.161-.052-.277-.076-.238-.047zM73.131 9.732a.211.211 0 0 0-.015.129c.049.008.062-.027.015-.129zM10.997 20.414l.217-.074c-.057-.01-.134.021-.217.074zM6.169 29.184l-.003.074.003-.074zM5.362 29.426v-.168.168zM71.253 16.832c-.162-.18-.278-.605-.481-.574.022.275.017.549-.01.826.138-.291.336-.48.491-.252zM33.388 2.406c-.493.131-.734.223-.849.293l.876-.291-.027-.002zM22.871 7.566l.034-.035-.062.037zM34.235 2.012c.051-.043.109-.086.135-.135-.188.051-.19.094-.135.135zM55.312 35.652c-.058.041-.104.076-.179.121a.866.866 0 0 0 .179-.121zM23.684 7.551l-.813.016-.263.266c-.045.259.757-.087 1.076-.282zM34.235 2.012c-.177.143-.468.271-.82.396l.445.055c1.002-.242.506-.346.375-.451z"/><path d="M76.473 14.586c.006-.311.204.045.346.254.139.195.252.334.182-.137a10.86 10.86 0 0 0-.676-1.072c.228.137.186-.582.262-.771-.249-.166-.221.254-.273.559-.057.309-.164.482-.613-.066-.292-.221-.682-1.129-.918-1.576.503 1.004-.273.113-.616-.16-.246-.639-.985-1.395-1.047-1.754-.13-.023-.516-.353-.748-.609l.05-.104c-.646-.445.126.254-.104.209-.432-.346-.957-1.088-1.719-1.578.754.488 1.442.846 2.025 1.207-1.172-1.273.607-.262 1.107-.135-1.151-.924-1.721-1.074-2.744-1.563-1.014-.938.543-.645.869-.441-1.164-.637-2.485-.934-3.121-1.109 1.013.027.941-.172 1.861-.049-.771-.742-1.113-.551-1.615-.619.271.086.672.266.721.391-1.051-.59-1.169.123-1.831.133-.687-.531-2.159-1.164-1.929-1.496l-.133.402c-.955-.225-.409-.371-.509-.553-.438.17-.141.676-1.721.33.426-.602-1.374-.43-1.183-1.014-.754-.137-1.16.131-1.914-.088-.793-.514 1.34-.604 1.789-.375 1.086.24-.209.242.227.34.357.021.716.049 1.076.082-.538-.289-1.643-.699-1.44-.943-1.092-.109.787.479-.409.379l-.664-.303c-1.188-.063.146.506-1.365.318 1.054-.135-1.62-.268-1.469-.686-.069.277-.744.203-1.447.133-.703-.072-1.438-.139-1.61.078l.778.195-.152-.268c.861.063 1.6-.01 2.479.209-.727.115.172.502-.658.58-1.551.158-.369-.35-.582-.373l-1.238.182.791.318c-.943.002-2.214-.078-3.498-.162-1.893-.396.248-.313-1.111-.668-.617.113-.469.254-1.336.209.467.162.836-.068 1.162-.039.411.363-1.558.152-1.467.498-.354-.133-.289-.277-.009-.426-1.459.145-2.851.152-3.425-.258l-.602.475c-2.499.02 1.678-.518-.438-.646-.872.02-1.727.117-2.086.33l.75-.057c-.551.291-.49.451-1.381.705-.649.029-.34-.299-1.088.033-1.996.014-.695-.584-.425-1.025-1.485-.037.632-.922-.332-.611l.279.063c-.479.256-.958.516-1.431.781 1.476.277.498-.523 1.121-.121l.846-.07c-.234.27-2.192.365-2.324.676-.038-.139.118-.506.991-.646l-.603-.459c-.518.021-.797.43-1.113.234-.814-.219 1.024-.729-.865-.559-2.02.24-1.769.879-3.125 1.066.163.09.492.006.913-.061-.398.266.394.258-.308.541-.487-.271-1.889.055-2.952.326.232-.262-.501-.281-.192-.475-.533.18-1.018.369-1.207.588 2.23-.305-2.014.85-.242.756-1.675.438-2.086.225-3.179.359.032-.131 1.863-.801.33-.502-1.59.895.457.41-.722 1.26l1.1-.203c.267.398-1.795.684-2.032.879-.687.109.863-.424.129-.51-1.007.227-1.396.678-2.069.738.495-.514.152-.26.746-.77-2.28.828-.007-.396-1.822.063-.533.268-.084.385-.996.668.643.115.612.234 2.051-.285-.33.641-1.927.592-2.806 1.281.807-.289.284-.012 1.116-.424.268.336.603.273-.03.937.868-.461 1.111-1.033 2.481-1.398.502.26-1.513.893-1.33 1.414-.551.498-2.193.92-2.981 1.051-1.111.846-2.607 1.578-3.3 2.49-.947.299-2.849 1.873-4.452 2.764-.372-.061-1.967 1.143-1.179.277-.094.148-1.318 1.088-.86 1.029.081-.156.26-.207.521-.408l-.064.416c-.798.416-1.347 1.324-2.112 1.725-.376-.014 1.148-1.127.525-.99-.188.434-.898 1.207-1.635 1.988-.741.775-1.502 1.568-1.932 1.902-.524.494-.864.32-1.095.529-.255.324-.502.656-.74.996-.186.045-.313-.023-.575.078-.433.467-.56.902-.703 1.271-.53.66-.734.789-.802.608-.063-.176.032-.645.16-1.091.206-.26.418-.51.635-.754.252-.686.936-1.438.302-1.174-.269.418-.14.492-.178.678l-.488.363c-.103.283-.352.777-.519 1.209-.169.434-.257.799-.101.781-.732.969-1.023 2.367-1.472 3.404.348-.701.223.264.48.09.123-.416.269-.818.431-1.211-.131.492-.233 1.113-.313 1.727-.08.617-.138 1.227-.24 1.717-.161-.125-.223-.176-.391.342.117-.362.183.113.284.47.106.36.207.592.312-.171a4.64 4.64 0 0 1-.005-1.786c.425-.406.294.694.508 1.301.034.377.101.933.238 1.5.135.567.347 1.146.566 1.592.061.308.022.539.05.813.028.271.128.592.503 1.002-.181-.689.101-.453.487-.086.387.373.933.844 1.176.852.494.846 1.246.914 1.622 1.619-.189-.074-.56-.354-.92-.648-.364-.293-.714-.604-.94-.666-.116.06-.192.232-.374.254-.178.017-.485-.108-.989-.746.487.845.739 1.011.894 1.076.163.06.261.008.589.285a12.818 12.818 0 0 1-.45-.453c.266.152.062-.383.429.033.679.826 1.108 1.289 1.454 1.729.353.432.636.825 1.169 1.36-.174-.332.479-.117.777.039 1.099.887-.293.467.288 1.223.551.033 1.389.498 1.174.191.508.23.202.203.537.434.417-.053.842-.006 1.553.267-.103.078-.265.205-.927-.127.729.396.891.854.473.931a32.504 32.504 0 0 1-1.222-.65c-.685-.004 1.144.604 1.007.807-.595-.162-.959-.496-1.346-.59.249.42 1.476.633 2.141.826 1.027.398.564.521.534.668.967.074.479-.205-.01-.49-.492-.291-.983-.592-.102-.504.715-.082 2.252.42 3.373.602-.859-.576.224-.455 1.367-.354-1.46-.318-.286-.469-2.04-.648l.039-.287c.714.189 1.541.504 2.268.646-.166.049-.01.145-.258.145.732.103 1.466.183 2.199.246l-.25.154c1.341.242 2.992.617 3.813.564-.659-.021-1.198-.355-.508-.379.405-.092 1.13-.183 1.741-.123.304.356 2.647.403 1.158.701 1.916-.136 1.212-.201 3.028-.425l-1.217.101c-.15-.265.848-.707-.305-.873 1.351-.176.488-.627 2.277-.73.733.133-.197.549-1.214.631.511.014.981.146 1.503-.055.396.205-.952.418-.9.5.937-.01-.021-.141.857-.242 1.525-.371 1.006.406 2.474.119-.322.039-.902-.01-.522-.16 1.979-.141 1.08-.342 2.495-.611.846.293.539.75 1.851.679l-.727.084c.531.135 1.12.143 1.646.063 2.669-.717 4.764-1.715 7.393-2.66l-.945.324c-.356-.049.771-.348.719-.484l.646.019c.097-.308-1.418.072-1.12-.276a.908.908 0 0 0 .396-.076l-.574.051c1.278-.218 2.134-.956 3.185-.786-2.414.705-.152.9-2.529 1.645 1.256-.42.3.234.459.32.693-.109.281-.289 1.062-.395.036.203-1.562.787-.797.75.01-.322.701-.434.977-.729.58-.065.035.197.309.228.309-.096.456-.275.745-.313l-.161.242c1.637-.178.398-.406 2.186-.854-.025-.26-.545-.035-1.266.228-.521-.422 2.084-1.26 1.746-1.806 1.596-.623-.355.369 1.078.058.89.104-.893.731-1.174 1.097l1.533-.246c-.33.635-1.293.776-1.424 1.282 1.107-.325.941-.397 1.991-.94-1.903.254.675-.553-.497-.66.857-.164.639.025 1.822-.406-.717.377.109.391-.891.758 1.6-.617 1.129-.555 2.707-1.213.359-.518-1.761.215.039-.773.406-.17.377-.016.137.082 1.396-.432-.438-.282.334-.799.563-.283.824-.25.619-.07.791-.555.217-.557.758-.883l-.276.078c.2-.203-.66-.352.548-.928.885-.412.69-.107.762-.012.637-.438 1.201-.607 1.722-.74-.078-.037-.058-.123.146-.232 1.088-.703.795-.092 1.244-.276 1.691-.761-.502-.437 1.248-1.479-.693.373-1.396.729-2.109 1.07.008-.195-.068-.443-.514-.201.079.248-.562.834-1.292 1.148-.327-.16 1.736-1.25.413-.934.443-.169.982-.546 1.505-.802-.356.565 1.657-.864.952-.062L62.744 30a12.868 12.868 0 0 0 2.024-1.537c-.045.276-.97 1.572-2.097 2.113l-.18-.097c-1.187 1.006 1.118-.475 1.046-.082.661-.731 1.548-1.291 2.475-1.899.928-.606 1.897-1.271 2.661-2.146-.403.168-.142-.22-.19-.404-.625.668-.471.604-1.105.91-.054-.252.402-.558.498-.871.002-.34-.493.469-.824.582.547-.672.461-.646.678-1.14.467-.188.502-.065.91-.174.743-.748.954-1.176 1.139-1.549.177-.377.328-.703.811-1.346-.543.712.45-.207-.173.555l.331-.434c-.232.686-.766 1.52-1.198 2.184-.428.664-.739 1.176-.438 1.289.815-.937 1.154-1.813 1.97-3.007l.058.113c.602-.86-.127-.065-.074-.33.234-.537.537-.778.797-1.014.256-.23.468-.453.439-.898-.188.34-.39.674-.607.998.213-.885-.162.207-.399-.172.251-.734.669-1.654.903-2.652.244-.992.272-2.055-.028-2.906-.129.535-.118.66-.146 1.322-.514-.318-.449-.523-.896-.246a5.379 5.379 0 0 1-.072.693l-.484-.053a2.18 2.18 0 0 1 .107-.5c-.15-.049-.119-.277-.113-.5.012-.221 0-.439-.147-.434.042.16.075.32.099.486-.236.252-.236-.32-.397-.613-.122.186-.075.408-.017.697.062.287.133.652.075 1.033.194-.045.38.865.575.062.2.037.209.568.1.92-.045-.191-.713.479-.613-.32.006.389-.031.479-.076.564-.051.088-.104.176-.244.619-.033-.088-.195.277-.432.633-.233.354-.537.688-.683.525-.034.361.563.324-.151 1.332.43-.053 1.238-1.189.976-.238.063-.207.122-.41.172-.615.558-.662.149.369.812-.549-.164.277-.387.951-.652.965.341.043.172.451-.076.887-.244.434-.568.883-.413 1.051-.319.096-.562.357-.995.9-.062-.182-.435-.018-.162-.482.332-.289.484-.568.892-.848-.628-.184-1.257 1.193-2.196 1.889.148-.074.225-.063.055.219-.563.425-1.834 1.341-1.679.826a36.119 36.119 0 0 1-2.821 2.205c-.096-.109.393-.34.545-.506-.553.383-1.115.75-1.689 1.107-.503.088.479-.533.538-.805-.399.268-.806.53-1.216.789l.072-.271c-.229.301-1.654 1.203-2.166 1.121-1.36.834-1.049 1.401-3.16 2.094-.057-.313 1.078-.629 1.438-1.043-.424.099-1.505.856-1.832.676-1.354.81-.985 1.238-1.579 1.824-1.201.517-.232-.19-.314-.252-.359.129-.736.896-1.219.631-.506.437-.75.815.168.576-.651.25-1.537.729-1.66.918.383-.623-.817.094-1.016-.24-1.025.277-3.287.849-4.121 1.576l.15-.562-1.18.373c-.969-.062.973-.58 1.554-.78-1.619.397-2.694.698-4.161 1.041.452.01.221.166.458.27-.462.316-1.194.32-1.711.486-.151-.095-.108-.215.296-.336l-1.004.266c.021-.321-.471-.219.489-.62l-.917.276c-1.048.112.001-.258.232-.408-.546.086-1.091.168-1.637.242-.558.267.38.219-.736.485-1.552-.03-3.465.313-5.195.363l1.239.18c-1.048.021-.796.492-1.103.734-.974.033-2.281.127-3.106.025.926-.275.52-.619-.344-.809-1.937-.002-1.458.521-2.549.69.853-.601-1.351-.239-1.147-.576-2.441-.073-4.912-.112-7.326-.631.026.101.706.33.262.334-.918-.086-1.276-.44-1.365-.586-1.136-.228-1.816-.246-2.235-.19.494.098.514.19.374.326-1.139-.304-.696-.587-1.805-.7-.146-.401 1.178.271 1.19-.08-.931-.35-1.542-.457-2.256-.606-.057-.256.611.226.198-.153-1.43-.474-2.989-1.246-3.79-1.865-.007-.127-.006-.256-.006-.381-.454-.423-.734-.687-.998-.828-.095-.32.101-.156.313.057-.476-.611-1.046-1.307-1.193-1.705.176.008.165.379.342.434-.152-.418-.41-.854-.563-1.317-.157-.457-.2-.931 0-1.228.04.084.043.174.042.256.064-1.344.322-2.748 1.295-4.385.607-.643.621-.811.586-1.012-.026-.195-.102-.424.499-1.119.29.232.687-.229 1.14-.795.448-.568.965-1.242 1.309-1.459l-.26.092c.485-.857 1.685-1.486 2.333-1.717 1.156-.842 2.952-2.035 4.073-3.023l-.171.281c.941-.783 1.721-.939 2.709-1.674-.005.064-.365.355.076.186 5.29-2.451 10.903-4.828 16.73-5.979 5.555-1.09 11.931-1.697 18.148-1.252 3.1.223 6.157.707 8.938 1.549 2.77.838 5.277 2.061 6.965 3.68-.002.008 1.318.234 2.695.885.688.314 1.385.729 1.953 1.025.571.289 1.039.441 1.285.115z"/><path d="M54.359 36.521l-.159.049a.788.788 0 0 0 .159-.049zM27.545 41.689c.129.004.259-.006.388-.015-.128-.004-.255 0-.388.015zM4.979 36.014c.127.123.257.24.388.355a8.77 8.77 0 0 0-.388-.355zM21.911 8.115c-.262-.117.522-.863-.348-.697-1.408.588-1.614.924-1.835 1.244-.217.33-.449.641-1.854 1.309.508-.164 1.017-.32 1.525-.471-.239-.305.677-.973 1.783-1.48l.448.107a6.12 6.12 0 0 1-.523.447c.431-.15.266-.316.804-.459z"/><path d="M20.999 8.609l.076-.012c.008-.008.021-.016.032-.023l-.108.035z"/></g></svg>