<?xml version="1.0" encoding="utf-8"?>
<!-- Generator: Adobe Illustrator 15.0.0, SVG Export Plug-In . SVG Version: 6.00 Build 0)  -->
<!DOCTYPE svg PUBLIC "-//W3C//DTD SVG 1.1//EN" "http://www.w3.org/Graphics/SVG/1.1/DTD/svg11.dtd">
<svg version="1.1" id="Layer_1" xmlns="http://www.w3.org/2000/svg" xmlns:xlink="http://www.w3.org/1999/xlink" x="0px" y="0px"
	 width="58px" height="54px" viewBox="0 0 58 54" enable-background="new 0 0 58 54" xml:space="preserve">
<g id="unpress_states">
	<g id="Buttons_copy">
	</g>
	<g id="Buttons_on">
	</g>
	<g id="Buttons">
	</g>
	<g id="DrawingToolsButtonsDefault">
	</g>
	<g id="DrawingsShapesStrokesDefault">
		<g>
			<g opacity="0.25">
				<g>
					<path fill="#333333" d="M54.525,32.52c-0.018-0.043-0.041-0.09-0.049-0.109c-0.002-0.057,0.035-0.229,0.06-0.342
						c0.065-0.308,0.149-0.689,0.112-1.142c-0.03-0.37-0.158-0.655-0.244-0.845l-0.014-0.034c-0.043-0.384-0.012-1.274,0.051-1.78
						c0.004-0.031,0.011-0.055,0.037-0.14c0.064-0.207,0.174-0.553,0.129-1.025c-0.056-0.552-0.301-1.023-0.666-1.346
						c-0.026-0.333-0.018-0.827-0.012-1.158c0.01-0.576,0.021-1.168-0.049-1.721c0.086-0.644,0.014-1.229-0.046-1.711
						c-0.036-0.287-0.069-0.559-0.063-0.736l0.015-0.082c0.024-0.144,0.06-0.34,0.058-0.57c-0.003-0.281-0.047-0.544-0.09-0.798
						c-0.02-0.12-0.042-0.246-0.054-0.368c-0.024-0.245-0.035-0.478-0.046-0.699c-0.014-0.253-0.025-0.511-0.055-0.775
						c0.006-0.031,0.01-0.062,0.016-0.093l0.039-0.292c0.022-0.214,0.037-0.421,0.043-0.625c0.012-0.337,0-0.686-0.031-1.097
						c-0.016-0.188-0.033-0.372-0.053-0.555c-0.037-0.385-0.07-0.716-0.066-1.059c0.002-0.169,0.021-0.344,0.04-0.523
						c0.029-0.28,0.062-0.599,0.062-0.948c0-0.28-0.024-0.525-0.047-0.741c-0.021-0.189-0.037-0.354-0.033-0.519
						c0.002-0.187,0.022-0.389,0.043-0.591c0.027-0.297,0.059-0.604,0.057-0.915c0-0.227-0.02-0.416-0.037-0.594
						c-0.007-0.071-0.018-0.139-0.018-0.215c0.004-0.115,0.017-0.221,0.027-0.325c0.022-0.213,0.051-0.479,0.041-0.8
						c-0.012-0.309-0.059-0.562-0.096-0.765c-0.023-0.134-0.044-0.239-0.046-0.312l-0.045-1.794L52.007,4.4
						c-0.188,0.004-0.375,0.003-0.563,0.003l-1.196-0.009c-0.791,0-1.64,0.01-2.517,0.125c-0.555-0.039-1.145-0.072-1.84-0.072
						c-0.562,0-1.125-0.02-1.697-0.007l-0.08-0.059c-0.547,0.013-1.104-0.098-1.682-0.098h-0.187c-0.315,0-0.64,0.114-0.97,0.104
						L41.04,4.502l-0.086-0.007l-0.492-0.051l-0.187,0.027c-0.248,0.036-0.396,0.057-0.529,0.057c-0.061,0-0.125-0.004-0.195-0.014
						l-0.271-0.038l-0.268,0.062c-0.043,0.01-0.084,0.021-0.123,0.033c-0.062-0.002-0.127-0.003-0.191-0.003
						c-0.352,0-0.682,0.028-1.002,0.056c-0.271,0.023-0.528,0.046-0.762,0.046c-0.104,0-0.205-0.005-0.309-0.017L35.84,4.558
						l-0.099,0.111c-0.472-0.034-0.957-0.053-1.421-0.053c-0.473,0-1.131,0.02-1.74,0.105c-0.221-0.028-0.456-0.043-0.712-0.043
						c-0.334,0-0.662,0.023-0.979,0.046c-0.277,0.02-0.562,0.041-0.859,0.042c-0.141,0-0.278-0.013-0.416-0.023
						c-0.212-0.017-0.422-0.031-0.628-0.031c-0.108,0-0.217,0.004-0.326,0.013c-0.214,0.018-0.448,0.021-0.689,0.021
						c-0.202,0-0.408-0.003-0.611-0.006c-0.215-0.004-0.428-0.007-0.632-0.007c-0.217,0-0.424,0.004-0.619,0.014
						c-0.239,0.013-0.439,0.058-0.587,0.09c-0.039,0.009-0.078,0.019-0.098,0.022l-0.067,0.002c-0.103,0-0.208-0.008-0.313-0.015
						c-0.172-0.011-0.345-0.021-0.52-0.021c-0.141,0-0.281,0.006-0.422,0.021c-0.56,0.058-1.197,0.084-2.007,0.084l-0.396-0.002
						l-1.273-0.021l-1.299-0.015c-0.509,0-0.963,0.036-1.401,0.071c-0.292,0.023-0.595,0.048-0.931,0.063
						c-0.195,0.008-0.395,0.011-0.595,0.011c-0.506,0-1.026-0.021-1.548-0.04c-0.563-0.021-1.126-0.043-1.676-0.043
						c-0.174,0-0.346,0.003-0.56,0.008c-0.107,0-0.209-0.009-0.309-0.017c-0.167-0.012-0.33-0.022-0.494-0.022
						c-0.051,0-0.253,0.006-0.304,0.006c-0.306,0-0.646-0.031-1.005-0.063c-0.434-0.039-0.881-0.08-1.375-0.08H7.42l0.008,1.509
						C7.433,7.18,7.457,8.019,7.48,8.822c0.041,1.476,0.077,2.75-0.009,3.969l-0.008,0.107l0.008,0.107
						c0.043,0.58,0.077,1.314,0.102,2.168l0.039,2.178l0.022,3.204l0.079,0.194c-0.001,0.055-0.009,0.109-0.014,0.165
						c-0.016,0.172-0.034,0.386-0.021,0.634c0.017,0.327,0.04,0.678,0.065,1.04c0.068,1.004,0.146,2.142,0.063,3.036l-0.01,0.108
						l0.005,0.108c0.138,2.688,0.181,5.489,0.224,8.198l0.092,4.726l0.17,5.649c-0.108,0.805-0.053,1.741,0.02,2.347
						C8.27,46.98,8.259,47.2,8.25,47.415c-0.004,0.077-0.008,0.153-0.013,0.226l-0.016,0.211l0.043,0.205
						c0.089,0.426,0.074,1.174,0.063,1.778l-0.03,1.492l1.64,0.022c0.312,0.006,0.63-0.01,0.957-0.01c0.213,0,0.43-0.056,0.65-0.056
						h0.228l0.235-0.045c0.076-0.019,0.31,0.021,0.464,0.02c0.104-0.001,0.218-0.004,0.336-0.009
						c0.078,0.023,0.162,0.044,0.252,0.061l0.359,0.062l0.348-0.108c0.305-0.097,1.019-0.154,2.124-0.17
						c0.324-0.005,0.655-0.007,0.975-0.008c0.697-0.004,1.355-0.007,1.854-0.043l-0.001-0.032c0.024,0.001,0.049,0.001,0.073,0.001
						c0.3,0,0.535-0.063,0.676-0.103l0.021-0.007c1.049-0.026,1.927-0.178,2.701-0.311c0.229-0.039,0.45-0.074,0.671-0.109
						l-0.022,0.051l1.228,0.656c0.33,0.176,0.694,0.213,0.941,0.213c1,0,1.582-0.678,1.671-1.373
						c0.031-0.012,0.064-0.016,0.096-0.027c0.056,0,0.104-0.004,0.156-0.006l0.412,1.43c0.048-0.004,0.102-0.004,0.154-0.005
						c0.365-0.005,0.916-0.014,1.398-0.394l1.618-1.27l0.424,0.102l0.274-0.074h0.039c0.118,0,0.237-0.071,0.364-0.098l0.125-0.084
						l0.119-0.037c0.235-0.092,0.44-0.217,0.604-0.392c0.076-0.018,0.143-0.006,0.201-0.021c0.051-0.014,0.102,0.029,0.156,0.021
						c0.08-0.011,0.223,0.109,0.283,0.109h0.223c0.181,0,0.396-0.124,0.615-0.15c0.235-0.028,0.414-0.198,0.533-0.229
						c0.024-0.008,0.051-0.016,0.049-0.021c0.043,0.005,0.082,0.015,0.123,0.022c0.174,0.033,0.41,0.08,0.709,0.08l0.166-0.004
						l0.088-0.014c0.146-0.021,0.287-0.062,0.418-0.117c1.01-0.035,2.021-0.091,2.855-0.281l-0.104-0.502l0.856,0.014
						c0.154,0.039,0.328,0.061,0.522,0.061c0.139,0,0.365-0.002,0.617-0.061c0.188-0.02,0.398-0.027,0.662-0.027
						c0.203,0,0.405,0.004,0.608,0.01c0.226,0.004,0.449,0.01,0.672,0.01c0.416,0,0.763-0.018,1.084-0.057l0.496,0.203l0.433-0.251
						c0.112,0.003,0.234,0.011,0.355,0.017c0.191,0.012,0.383,0.021,0.555,0.021c0.217,0,0.396-0.015,0.566-0.046l1.52-0.278
						c0.225,0.059,0.865,0.229,0.865,0.229l0.362-0.455l2.14-0.395l-0.986-0.422c0.02-0.019,0.039-0.031,0.058-0.05
						c0.241-0.249,0.413-0.534,0.563-0.786c0.051-0.088,0.102-0.177,0.154-0.25c0.102-0.139,0.194-0.281,0.285-0.421
						c0.037-0.058,0.072-0.112,0.107-0.164c0.129-0.097,0.256-0.221,0.379-0.377l0.312-0.124l0.208-0.697
						c0.054-0.182,0.119-0.34,0.183-0.498c0.002-0.002,0.002-0.004,0.002-0.004l0.137-0.02l0.322-0.843
						c0.059-0.15,0.117-0.302,0.179-0.454c0.362-0.911,0.771-1.944,0.919-3.309c0.031-0.299,0.047-0.537,0.045-0.707
						c-0.009-1.246,0.109-2.152,0.195-2.4l0.125-0.219l0.037-0.289c0.009-0.055,0.014-0.109,0.017-0.16
						c0.239-0.473,0.388-1.04,0.378-1.549C54.707,32.977,54.598,32.701,54.525,32.52z M42.302,44.736l-0.14,0.037l-0.042-0.241
						l0.104-0.079C42.254,44.541,42.277,44.643,42.302,44.736z M30.551,46.079c-0.041,0.042-0.08,0.087-0.115,0.134l-0.109-0.453
						c0.24-0.004,0.484-0.011,0.727-0.021c-0.007,0.003-0.014,0.006-0.021,0.009c-0.146,0.004-0.316,0.014-0.517,0.038
						L30.551,46.079z M32.27,41.45c-0.088,0-0.179,0.001-0.269,0.002l-0.058-0.672l-0.109,0.002c-0.27,0-0.548-0.027-0.842-0.058
						c-0.258-0.024-0.508-0.05-0.744-0.059c-0.041-0.002-0.083-0.003-0.127-0.003l-0.003-0.034l-1.128-0.036l-0.105-0.036
						l-0.314,0.039l-0.141,0.008c-0.164,0.006-0.313,0.021-0.348,0.025c-0.078,0.014-0.137,0.023-0.189,0.035
						c-0.052-0.002-0.094-0.004-0.127-0.005l-0.248-0.084l-0.214-0.011c-0.306-0.014-0.608-0.019-0.91-0.019
						c-0.327,0-0.653,0.003-0.979,0.009c-0.309,0.006-0.616,0.006-0.925,0.006c-0.319,0-0.64-0.017-0.962-0.035l-0.12-0.022
						c-0.143-0.05-0.296-0.122-0.458-0.134l-0.063-0.085h-0.053c-0.109,0-0.238,0.092-0.377,0.125
						c-0.396-0.021-0.804,0.043-1.195,0.043c0,0-0.144,0.001-0.288,0.002l0.104-0.729l-1.321,0.049l-0.076-2.588
						c-0.029-1.31-0.039-2.621-0.049-3.904c-0.005-0.735-0.011-1.463-0.02-2.174c-0.007-0.547-0.027-1.086-0.047-1.614
						c-0.035-0.95-0.069-1.849-0.018-2.678l0.004-0.087l-0.006-0.087c-0.081-1.497-0.094-2.823-0.104-4.227l-0.013-0.897
						c-0.004-0.452-0.009-0.922-0.002-1.386c0.012-0.814,0.001-1.657-0.046-2.378c-0.009-0.131-0.077-0.272-0.104-0.419
						c0.045-0.134-0.01-0.294-0.01-0.477c0,0,0-0.012,0-0.019l0.494,0.023l1.094,0.043c0.229,0.007,0.457,0.011,0.687,0.011
						c0.497,0,0.944-0.02,1.361-0.062c0.789,0.041,1.687,0.063,2.606,0.063c0.626,0,1.251-0.01,1.818-0.029
						c0.389,0.068,0.802,0.102,1.28,0.102c0.34,0,0.685-0.017,1.035-0.035c0.313-0.016,0.633-0.032,0.959-0.032
						c0.084,0,0.17,0.002,0.256,0.004c0.109,0.027,0.225,0.05,0.361,0.063c0.45,0.042,0.938,0.062,1.489,0.062
						c0.601,0,1.188-0.023,1.757-0.047c0.505-0.02,0.995-0.039,1.456-0.039c0.354,0,0.646,0.012,0.894,0.037l0.273,0.027
						l0.266-0.071c0.023-0.007,0.059-0.014,0.121-0.014c0.111,0,0.26,0.021,0.43,0.046c0.193,0.027,0.389,0.055,0.586,0.067
						c0.127,0.008,0.252,0.012,0.375,0.012c0.308,0,0.594-0.022,0.847-0.043c0.181-0.015,0.358-0.029,0.537-0.032l0.053,0.009
						c0.14,0.025,0.28,0.047,0.442,0.055l-0.006,0.104c-0.008,0.131-0.025,0.259-0.043,0.385c-0.049,0.366-0.106,0.805-0.041,1.311
						c-0.08,0.485-0.07,0.96-0.062,1.39c0.005,0.189,0.011,0.383,0.005,0.578c-0.01,0.347-0.041,0.716-0.074,1.106
						c-0.027,0.339-0.057,0.68-0.073,1.021c-0.017,0.319-0.017,0.659-0.017,1.003c0,0.433-0.002,0.99-0.057,1.351
						c-0.373,0.434-0.63,1.141-0.154,2.231l-0.24,0.186l-0.131,0.5c-0.14,0.536-0.111,1.021-0.062,1.412
						c-0.008,0.016-0.014,0.032-0.021,0.049c-0.129,0.309-0.324,0.773-0.328,1.422c-0.002,0.279,0.045,0.526,0.08,0.707
						c0.012,0.057,0.024,0.113,0.028,0.152c0.001,0.229-0.017,0.449-0.032,0.667c-0.029,0.408-0.062,0.87-0.018,1.39
						c0.029,0.334,0.082,0.633,0.134,0.922c0.05,0.281,0.097,0.546,0.108,0.791c0.021,0.387,0.059,0.617,0.088,0.802
						c0.01,0.065,0.021,0.132,0.029,0.209c0.027,0.226,0.043,0.44,0.059,0.64c0.046,0.62,0.094,1.258,0.422,1.828
						c0.061,0.211,0.115,0.453,0.17,0.688c0.071,0.311,0.145,0.628,0.238,0.932c0,0,0.001,0.008,0.001,0.012l-0.813,0.092
						c-0.533,0.043-0.89,0.221-1.137,0.434c-0.154-0.01-0.305-0.021-0.447-0.032l-0.781-0.078l1.197-0.51l-4.514-0.979
						c-0.163-0.037-0.335,0.015-0.525,0.015c-0.02,0-0.039,0-0.058,0L33.023,39.3l-0.654,0.484
						c-0.032,0.011-0.062,0.022-0.094,0.034l0.011,0.035l-0.113,0.096c0.039-0.033,0.078-0.062,0.115-0.088l0.452,1.564
						C32.578,41.434,32.418,41.45,32.27,41.45z M38.361,46.073l0.537-0.449c-0.391,0.431-0.4,0.985-0.4,1.022
						c0.001,0.062,0.016,0.136,0.025,0.207L38.361,46.073z"/>
				</g>
			</g>
			<g>
				<path fill="#FFFFFF" d="M51.727,29.621c-0.017-0.043-0.039-0.09-0.047-0.11c-0.002-0.057,0.034-0.228,0.059-0.341
					c0.066-0.307,0.148-0.689,0.111-1.143c-0.029-0.37-0.158-0.654-0.242-0.844l-0.016-0.034c-0.043-0.384-0.011-1.274,0.053-1.78
					c0.004-0.031,0.01-0.055,0.037-0.139c0.064-0.207,0.174-0.553,0.127-1.026c-0.055-0.552-0.301-1.023-0.664-1.345
					c-0.027-0.334-0.019-0.828-0.013-1.159c0.011-0.575,0.021-1.167-0.049-1.721c0.086-0.644,0.015-1.228-0.046-1.71
					c-0.036-0.288-0.069-0.56-0.062-0.736l0.014-0.082c0.025-0.145,0.06-0.341,0.058-0.571c-0.003-0.28-0.047-0.544-0.089-0.798
					c-0.02-0.12-0.042-0.246-0.055-0.368c-0.023-0.245-0.034-0.478-0.045-0.699c-0.014-0.253-0.025-0.511-0.053-0.775
					c0.004-0.03,0.01-0.062,0.014-0.093l0.039-0.292c0.023-0.214,0.037-0.421,0.043-0.624c0.012-0.338,0-0.687-0.031-1.098
					c-0.016-0.188-0.033-0.372-0.051-0.555c-0.039-0.385-0.071-0.716-0.067-1.059c0.001-0.169,0.022-0.344,0.04-0.523
					c0.029-0.279,0.061-0.598,0.061-0.947c0-0.281-0.024-0.525-0.047-0.742c-0.02-0.189-0.037-0.354-0.033-0.519
					c0.002-0.187,0.022-0.389,0.043-0.591c0.028-0.297,0.059-0.604,0.057-0.915c0-0.227-0.02-0.415-0.037-0.594
					c-0.007-0.071-0.018-0.138-0.018-0.214c0.002-0.116,0.016-0.221,0.027-0.326c0.022-0.213,0.051-0.479,0.04-0.8
					c-0.011-0.308-0.058-0.562-0.095-0.765c-0.023-0.133-0.044-0.238-0.046-0.311l-0.046-1.795L49.21,1.502
					c-0.188,0.003-0.375,0.002-0.563,0.002L47.45,1.496c-0.791,0-1.64,0.009-2.517,0.124c-0.555-0.039-1.145-0.072-1.84-0.072
					c-0.561,0-1.126-0.019-1.697-0.007l-0.08-0.059c-0.547,0.013-1.104-0.098-1.682-0.098h-0.188c-0.315,0-0.639,0.115-0.969,0.104
					l-0.236,0.113l-0.086-0.006l-0.492-0.051L37.479,1.57c-0.25,0.036-0.396,0.058-0.529,0.058c-0.061,0-0.125-0.005-0.196-0.015
					l-0.271-0.038l-0.27,0.065c-0.043,0.01-0.084,0.021-0.123,0.033c-0.062-0.002-0.128-0.003-0.191-0.003
					c-0.353,0-0.683,0.028-1.002,0.056c-0.271,0.023-0.528,0.046-0.762,0.046c-0.103,0-0.205-0.004-0.308-0.017l-0.784-0.096
					l-0.1,0.112c-0.469-0.035-0.957-0.054-1.42-0.054c-0.473,0-1.131,0.02-1.74,0.105c-0.221-0.028-0.456-0.042-0.712-0.042
					c-0.333,0-0.662,0.022-0.98,0.045c-0.276,0.02-0.561,0.041-0.858,0.043c-0.141,0-0.279-0.014-0.417-0.023
					c-0.212-0.018-0.422-0.032-0.627-0.032c-0.109,0-0.217,0.004-0.327,0.013c-0.213,0.018-0.448,0.021-0.689,0.021
					c-0.202,0-0.408-0.003-0.611-0.006c-0.215-0.004-0.428-0.007-0.632-0.007c-0.217,0-0.424,0.004-0.619,0.014
					c-0.239,0.013-0.439,0.058-0.586,0.09c-0.04,0.009-0.078,0.019-0.098,0.022L22.56,1.962c-0.103,0-0.208-0.008-0.314-0.014
					c-0.172-0.012-0.345-0.021-0.519-0.021c-0.141,0-0.281,0.006-0.422,0.021c-0.56,0.057-1.197,0.084-2.006,0.084L18.902,2.03
					L17.625,2.01l-1.299-0.016c-0.509,0-0.962,0.037-1.401,0.072c-0.292,0.023-0.595,0.047-0.931,0.062
					c-0.195,0.008-0.394,0.011-0.595,0.011c-0.506,0-1.026-0.02-1.548-0.039c-0.562-0.021-1.125-0.043-1.676-0.043
					c-0.173,0-0.346,0.002-0.56,0.007c-0.107,0-0.209-0.009-0.309-0.017c-0.167-0.012-0.33-0.022-0.494-0.022
					c-0.051,0-0.253,0.006-0.304,0.006C8.205,2.03,7.865,2,7.505,1.967c-0.434-0.039-0.881-0.08-1.375-0.08H4.623L4.63,3.396
					c0.005,0.886,0.029,1.726,0.052,2.528C4.724,7.4,4.759,8.674,4.673,9.893L4.666,10l0.008,0.107
					c0.042,0.58,0.077,1.314,0.101,2.168l0.04,2.178l0.022,3.205l0.079,0.193c-0.001,0.055-0.009,0.109-0.014,0.165
					c-0.015,0.172-0.034,0.386-0.021,0.634c0.017,0.328,0.041,0.678,0.065,1.041c0.069,1.004,0.146,2.141,0.063,3.035l-0.01,0.108
					l0.005,0.108c0.137,2.688,0.181,5.49,0.223,8.199l0.092,4.725l0.17,5.65c-0.108,0.805-0.053,1.74,0.02,2.346
					c-0.036,0.22-0.047,0.438-0.057,0.654c-0.004,0.076-0.007,0.152-0.013,0.226l-0.016,0.211l0.043,0.205
					c0.089,0.426,0.074,1.174,0.063,1.778l-0.03,1.492l1.64,0.023c0.311,0.006,0.629-0.01,0.957-0.01
					c0.213,0,0.43-0.058,0.651-0.058h0.227l0.235-0.045c0.076-0.019,0.31,0.022,0.464,0.021c0.105-0.002,0.218-0.004,0.336-0.008
					c0.078,0.022,0.162,0.043,0.251,0.059l0.359,0.062l0.348-0.108c0.305-0.097,1.019-0.154,2.124-0.171
					c0.325-0.004,0.655-0.006,0.975-0.008c0.697-0.004,1.355-0.006,1.853-0.043l-0.001-0.031c0.024,0,0.049,0,0.073,0
					c0.3,0,0.535-0.063,0.676-0.103l0.021-0.005c1.049-0.027,1.927-0.178,2.701-0.311c0.229-0.039,0.45-0.076,0.671-0.11
					l-0.022,0.05l1.228,0.656c0.33,0.176,0.694,0.213,0.941,0.213c1,0,1.582-0.677,1.671-1.373c0.031-0.01,0.065-0.015,0.096-0.027
					c0.056,0,0.104-0.004,0.156-0.006l0.412,1.43c0.048-0.004,0.102-0.004,0.154-0.004c0.365-0.006,0.916-0.015,1.398-0.393
					l1.619-1.27l0.423,0.102l0.275-0.076h0.039c0.118,0,0.237-0.07,0.364-0.096l0.125-0.084l0.119-0.039
					c0.236-0.092,0.442-0.217,0.605-0.391c0.075-0.019,0.144-0.006,0.2-0.021c0.051-0.014,0.101,0.029,0.156,0.021
					c0.08-0.012,0.224,0.108,0.285,0.108h0.221c0.181,0,0.396-0.123,0.617-0.149c0.234-0.029,0.414-0.197,0.531-0.23
					c0.025-0.006,0.051-0.015,0.049-0.02c0.043,0.005,0.084,0.015,0.125,0.022c0.172,0.033,0.409,0.079,0.707,0.079l0.168-0.003
					l0.086-0.015c0.147-0.021,0.289-0.062,0.418-0.117c1.01-0.035,2.022-0.09,2.856-0.281l-0.104-0.501l0.858,0.013
					c0.154,0.039,0.328,0.062,0.522,0.062c0.139,0,0.365-0.002,0.617-0.062c0.188-0.019,0.398-0.027,0.662-0.027
					c0.202,0,0.405,0.006,0.608,0.01c0.226,0.006,0.448,0.01,0.672,0.01c0.416,0,0.763-0.018,1.083-0.056l0.496,0.204l0.432-0.252
					c0.113,0.002,0.235,0.01,0.356,0.018c0.192,0.01,0.383,0.02,0.554,0.02c0.217,0,0.396-0.014,0.567-0.045l1.519-0.279
					c0.225,0.06,0.866,0.229,0.866,0.229l0.362-0.453l2.14-0.396l-0.985-0.422c0.019-0.019,0.037-0.031,0.055-0.05
					c0.242-0.25,0.414-0.534,0.563-0.786c0.052-0.089,0.103-0.177,0.155-0.25c0.102-0.14,0.193-0.281,0.285-0.421
					c0.037-0.059,0.074-0.112,0.107-0.164c0.129-0.098,0.256-0.221,0.379-0.377l0.313-0.125l0.208-0.697
					c0.055-0.182,0.119-0.339,0.182-0.497c0.002-0.002,0.002-0.004,0.002-0.004l0.135-0.021l0.324-0.842
					c0.058-0.15,0.117-0.303,0.178-0.455c0.361-0.91,0.771-1.943,0.918-3.308c0.031-0.3,0.047-0.538,0.045-0.708
					c-0.01-1.245,0.109-2.152,0.195-2.4l0.125-0.219l0.037-0.287c0.008-0.057,0.012-0.111,0.016-0.162
					c0.238-0.471,0.387-1.039,0.378-1.549C51.909,30.078,51.799,29.803,51.727,29.621z M39.504,41.839l-0.141,0.036l-0.041-0.24
					l0.104-0.08C39.457,41.643,39.479,41.744,39.504,41.839z M27.753,43.182c-0.041,0.041-0.08,0.086-0.116,0.133l-0.109-0.453
					c0.242-0.004,0.484-0.01,0.727-0.021c-0.007,0.003-0.014,0.007-0.021,0.009c-0.146,0.006-0.316,0.016-0.516,0.039L27.753,43.182
					z M29.472,38.552c-0.089,0-0.179,0.001-0.269,0.003l-0.056-0.673l-0.111,0.002c-0.27,0-0.548-0.026-0.842-0.057
					c-0.258-0.025-0.507-0.05-0.744-0.06c-0.041,0-0.083-0.002-0.127-0.002l-0.003-0.033l-1.127-0.037l-0.105-0.037l-0.315,0.041
					l-0.141,0.006c-0.164,0.007-0.313,0.021-0.348,0.025c-0.078,0.014-0.137,0.024-0.189,0.037
					c-0.052-0.002-0.093-0.004-0.127-0.007l-0.248-0.084l-0.214-0.01c-0.305-0.015-0.608-0.019-0.91-0.019
					c-0.327,0-0.653,0.002-0.979,0.009c-0.308,0.005-0.616,0.005-0.925,0.005c-0.319,0-0.64-0.016-0.962-0.034l-0.12-0.022
					c-0.143-0.049-0.296-0.121-0.458-0.133l-0.063-0.087h-0.053c-0.109,0-0.238,0.093-0.377,0.125
					c-0.396-0.02-0.804,0.044-1.195,0.044c0,0-0.144,0.002-0.288,0.002l0.104-0.729l-1.321,0.048l-0.077-2.587
					c-0.029-1.31-0.039-2.621-0.049-3.905c-0.005-0.734-0.011-1.462-0.02-2.173c-0.007-0.547-0.027-1.086-0.047-1.615
					c-0.035-0.95-0.069-1.848-0.018-2.678l0.004-0.086l-0.006-0.088c-0.081-1.497-0.094-2.822-0.104-4.227l-0.013-0.897
					c-0.004-0.452-0.009-0.922-0.002-1.386c0.012-0.814,0.001-1.656-0.046-2.378c-0.009-0.131-0.077-0.272-0.104-0.419
					c0.045-0.134-0.01-0.294-0.01-0.477v-0.018l0.494,0.022l1.094,0.044c0.229,0.006,0.458,0.01,0.687,0.01
					c0.497,0,0.944-0.02,1.361-0.061c0.789,0.041,1.687,0.063,2.606,0.063c0.626,0,1.251-0.011,1.818-0.03
					c0.389,0.069,0.802,0.102,1.281,0.102c0.339,0,0.684-0.017,1.035-0.034c0.313-0.016,0.633-0.033,0.959-0.033
					c0.084,0,0.169,0.002,0.256,0.004c0.109,0.027,0.224,0.051,0.362,0.064c0.45,0.041,0.937,0.062,1.489,0.062
					c0.6,0,1.188-0.023,1.757-0.046c0.505-0.021,0.995-0.04,1.456-0.04c0.354,0,0.646,0.012,0.894,0.037l0.273,0.027l0.266-0.071
					c0.023-0.006,0.059-0.014,0.121-0.014c0.111,0,0.26,0.021,0.43,0.046c0.193,0.028,0.389,0.055,0.586,0.067
					c0.127,0.008,0.252,0.012,0.375,0.012c0.308,0,0.594-0.022,0.847-0.043c0.18-0.014,0.358-0.029,0.538-0.032l0.052,0.009
					c0.14,0.025,0.28,0.047,0.442,0.055l-0.006,0.105c-0.008,0.131-0.025,0.258-0.043,0.384c-0.047,0.366-0.106,0.806-0.041,1.312
					c-0.08,0.484-0.07,0.959-0.062,1.389c0.005,0.189,0.011,0.383,0.004,0.578c-0.009,0.348-0.04,0.717-0.073,1.107
					c-0.027,0.338-0.057,0.68-0.074,1.021c-0.016,0.318-0.017,0.658-0.017,1.002c0,0.434,0,0.99-0.055,1.352
					c-0.374,0.433-0.63,1.14-0.155,2.23l-0.24,0.185l-0.131,0.5c-0.14,0.537-0.111,1.022-0.062,1.413
					c-0.008,0.016-0.014,0.032-0.021,0.049c-0.13,0.309-0.324,0.772-0.328,1.422c0,0.279,0.045,0.526,0.08,0.706
					c0.012,0.059,0.024,0.114,0.028,0.152c0.001,0.229-0.017,0.449-0.032,0.668c-0.029,0.408-0.062,0.869-0.018,1.39
					c0.029,0.333,0.083,0.632,0.134,0.922c0.049,0.28,0.097,0.545,0.108,0.79c0.021,0.387,0.059,0.617,0.088,0.803
					c0.01,0.065,0.021,0.131,0.029,0.209c0.027,0.227,0.043,0.439,0.059,0.64c0.046,0.62,0.094,1.259,0.422,1.829
					c0.061,0.211,0.115,0.453,0.17,0.688c0.07,0.311,0.145,0.627,0.238,0.932v0.011l-0.812,0.092
					c-0.533,0.045-0.89,0.221-1.136,0.435c-0.155-0.011-0.306-0.021-0.449-0.033l-0.78-0.076l1.197-0.512l-4.514-0.979
					c-0.163-0.037-0.335,0.014-0.526,0.014c-0.019,0-0.038,0-0.057,0L30.227,36.4l-0.654,0.483
					c-0.032,0.013-0.063,0.022-0.094,0.035l0.011,0.035l-0.113,0.096c0.04-0.032,0.079-0.063,0.115-0.088l0.452,1.563
					C29.779,38.535,29.621,38.552,29.472,38.552z M35.564,43.176l0.537-0.449c-0.392,0.43-0.401,0.985-0.401,1.023
					c0.001,0.061,0.015,0.135,0.026,0.205L35.564,43.176z"/>
			</g>
			<path fill="#606060" d="M38.141,28.219c-0.002,0.271,0.107,0.566,0.107,0.85c0.001,0.662-0.115,1.259-0.057,1.927
				c0.054,0.59,0.213,1.147,0.248,1.762c0.024,0.457,0.069,0.604,0.107,0.911c0.109,0.893,0.053,1.624,0.363,2.009
				c0.205,0.625,0.324,1.41,0.514,1.957c0.03,0.086,0.016,0.271,0.026,0.304c0.478,1.394,1.257,2.246,1.599,3.885
				c0.178,0.144,0.434,0.238,0.653,0.518c0.099,0.125,0.163,0.407,0.264,0.498c0.374,0.333,0.851,0.04,1.132,0.663
				c0.094,0.034,0.118-0.079,0.182-0.11c0.746,0.019,1.373-0.229,1.951-0.076c0.342-0.428,0.736-0.334,1.06-0.666
				c0.2-0.205,0.39-0.608,0.582-0.873c0.219-0.301,0.39-0.62,0.61-0.871c0.227,0.003,0.269-0.383,0.457-0.459
				c0.141-0.469,0.332-0.823,0.468-1.301c0.075-0.045,0.12-0.158,0.213-0.17c0.383-1,0.856-2.012,1.005-3.383
				c0.014-0.123,0.039-0.387,0.037-0.54c-0.008-1.017,0.07-2.583,0.372-3.114c0.024-0.185-0.05-0.182-0.025-0.363
				c0.144-0.116,0.414-0.655,0.405-1.124c-0.002-0.162-0.195-0.443-0.229-0.798c-0.052-0.524,0.209-1.022,0.17-1.498
				c-0.019-0.217-0.192-0.447-0.231-0.675c-0.103-0.592-0.03-1.793,0.03-2.289c0.048-0.393,0.189-0.539,0.16-0.836
				c-0.025-0.268-0.183-0.471-0.414-0.444c-0.508-0.771-0.114-2.753-0.336-3.938c0.182-0.871-0.121-1.703-0.086-2.537
				c0.006-0.167,0.068-0.366,0.066-0.538c-0.003-0.285-0.102-0.666-0.137-1.033c-0.062-0.628-0.049-1.178-0.127-1.694
				c0.019-0.034,0.035-0.127,0.049-0.219l0.035-0.261c0.019-0.172,0.029-0.34,0.035-0.504c0.011-0.326-0.004-0.635-0.027-0.932
				c-0.047-0.597-0.13-1.143-0.124-1.748c0.005-0.455,0.101-0.939,0.101-1.455c0-0.434-0.088-0.807-0.08-1.281
				c0.006-0.471,0.102-1.023,0.1-1.48c-0.001-0.342-0.061-0.566-0.053-0.847c0.008-0.37,0.08-0.661,0.066-1.038
				c-0.014-0.397-0.128-0.699-0.142-1.092l-0.007-0.305c-1.407,0.023-2.832-0.068-4.254,0.139c-1.193-0.094-2.396-0.065-3.631-0.039
				c-0.619,0.011-1.25,0.024-1.908,0.021c-0.33-0.002-0.668-0.007-1.016-0.018l-0.263-0.01L38,3.09l-0.307-0.032
				c-0.412,0.061-0.715,0.104-1.146,0.044c-0.096,0.022-0.095,0.095-0.246,0.088c-0.861-0.089-1.768,0.162-2.656,0.055
				c-0.031,0.035-0.066,0.066-0.125,0.088c-1.225-0.145-2.775-0.164-3.738,0.01c-0.746-0.15-1.614,0.021-2.534,0.027
				c-0.433,0.002-0.858-0.08-1.264-0.048c-0.793,0.065-1.832-0.015-2.594,0.025c-0.227,0.013-0.448,0.098-0.67,0.111
				c-0.403,0.025-0.834-0.062-1.264-0.017c-0.828,0.084-1.717,0.098-2.582,0.09L17.608,3.51l-1.281-0.016
				c-0.776,0-1.424,0.098-2.271,0.133c-1.39,0.057-2.936-0.104-4.355-0.064c-0.354,0.01-0.661,0.287-0.98,0.3
				C7.896,3.894,7.036,4.059,6.137,4.059H6.13c0.014,2,0.18,4.287,0.04,6.275c0.049,0.678,0.083,1.307,0.104,2.082l0.04,2.111
				l0.021,2.875c0.164,0.405,0.023,0.777,0.043,1.194c0.065,1.289,0.25,2.931,0.124,4.281c0.145,2.838,0.185,5.732,0.231,8.624
				l0.085,4.321l0.174,5.783c-0.124,0.746-0.045,1.795,0.04,2.334c-0.078,0.185-0.073,0.586-0.097,0.912
				c0.118,0.564,0.109,1.312,0.093,2.119c0.533,0.012,1.086,0.025,1.668,0.006c0.507-0.193,1.221-0.047,1.837-0.194
				c0.152,0.106-0.358,0.092-0.017,0.149c0.561-0.176,1.536-0.223,2.553-0.238c1.014-0.016,2.079,0.002,2.742-0.047
				c-0.092,0-0.105-0.053,0.009-0.06c0.307,0.089,0.48-0.087,0.811-0.083c1.584-0.039,2.716-0.387,4.068-0.516
				c0.169,0.05,0.623,0.201,0.78,0.07c-0.244-0.021-0.555-0.012-0.534-0.156c0.406,0.047,0.941-0.02,1.213-0.135
				c0.502-0.015,0.759,0.063,1.208-0.043c0.11,0.002-0.107-0.152,0.128-0.148c0.704,0.076,1.058-0.053,1.687,0.021
				c0.184-0.139,0.924-0.179,1.152-0.104c0.206-0.062-0.227-0.116-0.052-0.151c0.571-0.044,1.103-0.102,1.629-0.009
				c0.13-0.063,0.217-0.151,0.432-0.174c0.145-0.011-0.041,0.137,0.176,0.092c0.203-0.078-0.158-0.137-0.108-0.24
				c0.286-0.05,0.229-0.122,0.373-0.204c0.398,0.082,0.671-0.088,1.033-0.138c0.373-0.053,0.787-0.001,1.146-0.045
				c0.309-0.037,0.441-0.142,0.792-0.14c0.284,0.002,0.522,0.109,0.839,0.101c0.168-0.022-0.111-0.11,0.127-0.117
				c1.106-0.036,2.213-0.071,3.029-0.26c-1.254,0.233-2.168-0.017-3.268,0.194c-0.166-0.135-0.494,0.084-0.658-0.098
				c-0.074,0.077,0.18,0.131-0.066,0.119c-0.082-0.011-0.113-0.045-0.238-0.033c0.155-0.16-0.078-0.16-0.168-0.272
				c-0.935,0.01-1.666,0.084-2.477,0.088c-0.149,0.037,0.104,0.092-0.066,0.119c-0.308,0.026-0.543,0.004-0.907,0.048
				c-0.109-0.119-0.354-0.178-0.223-0.333c1.091,0.011,2.574-0.224,3.872-0.248c0.395-0.008,0.801,0.113,1.029-0.077
				c-0.583,0.059-1.053-0.15-1.559-0.171c-0.655-0.022-1.355,0.164-1.997,0.123c-0.181-0.011-0.255-0.065-0.418-0.063
				c-0.127,0-0.344,0.088-0.487,0.084c-0.156-0.008-0.165-0.071-0.298-0.064c-0.274,0.014-0.485,0.113-0.789,0.109
				c-0.508-0.006-1.007-0.119-1.564-0.082c-0.102-0.053-0.057-0.187,0.072-0.209c0.66,0.008,0.773,0,1.447-0.01
				c-0.075-0.015-0.121-0.041-0.115-0.093c0.208,0.011,0.281,0.047,0.424-0.024c-0.501,0.006-0.456-0.226-0.284-0.334
				c1.245,0.041,2.772-0.064,3.797,0.021c0.113-0.062,0.186-0.148,0.371-0.175c1.154-0.075,2.446,0.001,3.682-0.071
				c-1.409-0.178-2.883-0.072-4.521,0c-0.062-0.029-0.012-0.111-0.175-0.092c-0.699,0.084-1.513,0.062-2.055,0.092
				c-0.242-0.129-0.476-0.262-0.703-0.398c-1.718,0.108-2.974-0.422-4.619-0.422c0.008-0.092-0.121-0.119-0.171-0.184
				c0.133-0.074,0.221-0.171,0.374-0.234c0.27-0.006,0.546-0.055,0.784,0.01c1.386-0.268,3.354-0.075,5.078-0.231
				c0.21-0.147,0.045-0.264-0.1-0.391c-0.831-0.087-1.59,0.122-2.469-0.063c-0.314-0.354,0.016-0.601,0.696-0.619
				c1.126-0.033,3.067,0.002,3.795,0.051c3.304-0.211,6.58-0.123,9.966-0.287c-1.882-0.068-3.621,0.119-5.306-0.012
				c0.006,0.064-0.056,0.096-0.187,0.088c-1.657-0.037-3.495-0.031-4.948,0.084c-0.609-0.217-1.786,0.037-2.402-0.183
				c0.154-0.342,0.66-0.497,1.297-0.584c-0.65,0.021-1.257-0.092-1.802-0.112c-0.448-0.019-1.221,0.084-1.448,0.01
				c-0.055-0.019,0.05-0.088-0.055-0.09c0.183,0.006-0.327,0.02-0.364,0.024c-0.245,0.039-0.199,0.063-0.485,0.054
				c-0.371-0.015-0.364-0.02-0.597-0.099c-1.28-0.056-2.522,0.051-3.798-0.021l-0.422-0.006c-0.121-0.021-0.018-0.08-0.177-0.093
				c-0.09-0.006-0.05,0.066-0.184,0.06c-0.497-0.029-1.066-0.06-1.564-0.051c-0.312,0.004-0.637,0.002-0.966-0.004l-0.496-0.009
				l-0.23-0.006l-0.065-0.006c-0.174-0.019-0.332-0.034-0.468-0.027c-0.051-0.021,0.06-0.125-0.016-0.123
				c-0.284-0.053-0.549-0.097-0.81-0.129l0.034-0.385c0.011-0.039,0.143-0.109,0.123-0.138c0.022-0.064-0.123,0.045-0.114-0.012
				c0.039-0.057,0.084-0.109,0.155-0.164c0.055-0.234,0.053-0.418,0.03-0.621l-0.092-3.11c-0.047-2.064-0.044-4.136-0.069-6.095
				c-0.019-1.546-0.146-3.021-0.061-4.403c-0.101-1.855-0.094-3.457-0.111-5.192c-0.011-1.251,0.058-2.628-0.011-3.679
				c-0.012-0.182-0.081-0.396-0.082-0.608c0-0.079,0.006-0.159,0.016-0.239c0.01-0.021,0.022-0.041,0.035-0.061
				c0.025-0.038,0.052-0.074,0.052-0.111c0.003-0.196-0.122-0.46-0.116-0.685c0.007-0.244,0.027-0.192,0.038-0.692h0.001
				c0.136,0,0.182-0.087,0.32-0.094c0.092-0.006,0.241,0.078,0.33,0.076c0.246-0.006,0.485-0.136,0.76-0.108l0.146,0.018
				l0.487,0.022l0.98,0.04c0.655,0.019,1.313,0.016,1.966-0.058c1.443,0.08,3.198,0.085,4.58,0.031
				c1.121,0.239,2.287-0.006,3.556,0.049c0.134,0.005,0.223,0.052,0.357,0.064c1.919,0.178,4.05-0.143,5.607,0.014
				c0.583-0.156,1.083,0.017,1.625,0.053c0.586,0.039,1.128-0.064,1.691-0.068c0.186,0,0.354,0.061,0.539,0.067l0.136,0.003
				c0.017,0,0.032-0.002,0.05-0.006c0.034-0.006,0.068-0.018,0.104-0.029c0.072-0.024,0.151-0.055,0.232-0.064
				c0.123-0.014,0.225,0.043,0.321,0.084c0.1,0.041,0.192,0.066,0.379-0.014c0.06,0.057,0.122,0.119,0.209,0.146
				c-0.026,0.14-0.022,0.24,0.046,0.291c-0.113,0.262-0.104,0.404-0.079,0.568c0.013,0.08,0.029,0.164,0.036,0.25
				c0.003,0.045,0.004,0.088,0.001,0.133l-0.008,0.066l-0.015,0.266c-0.035,0.557-0.194,1.063-0.053,1.625
				c-0.16,0.582-0.066,1.277-0.086,1.986c-0.02,0.7-0.113,1.43-0.148,2.162c-0.053,1.043,0.076,2.34-0.252,3.121
				c-0.684,0.356,0.32,1.049,0.185,1.879c-0.138,0.441-0.33,0.384-0.578,0.572c-0.103,0.395-0.04,0.764,0.015,1.146
				C38.452,27.299,38.143,27.623,38.141,28.219z M26.373,44.746c-0.012,0.034,0.011,0.053,0.058,0.061
				C26.3,44.951,26.017,44.74,26.373,44.746z M26.497,44.688c0.501-0.013,1.206-0.147,1.57-0.039c0.098,0-0.088-0.17,0.071-0.209
				c0.214,0.074,0.467,0.131,0.837,0.131c0.023,0.25-0.708,0.103-0.741,0.32c-0.282-0.021-0.42-0.031-0.547,0.082
				c-0.579-0.082-0.708,0.07-1.145-0.016C26.658,44.814,26.463,44.85,26.497,44.688z"/>
		</g>
	</g>
</g>
</svg>
