<svg xmlns="http://www.w3.org/2000/svg" width="58" height="54" viewBox="0 0 58 54"><path fill="#333" d="M54.525 32.52c-.018-.043-.041-.09-.049-.109a2.34 2.34 0 0 1 .06-.342c.065-.308.149-.689.112-1.142a2.461 2.461 0 0 0-.244-.845l-.014-.034c-.043-.384-.012-1.274.051-1.78a.853.853 0 0 1 .037-.14c.064-.207.174-.553.129-1.025a2.055 2.055 0 0 0-.666-1.346 13.986 13.986 0 0 1-.012-1.158c.01-.576.021-1.168-.049-1.721.086-.644.014-1.229-.046-1.711-.036-.287-.069-.559-.063-.736l.015-.082c.024-.144.06-.34.058-.57a5.032 5.032 0 0 0-.09-.798c-.02-.12-.042-.246-.054-.368-.024-.245-.035-.478-.046-.699-.014-.253-.025-.511-.055-.775l.016-.093.039-.292c.022-.214.037-.421.043-.625a9.8 9.8 0 0 0-.031-1.097 23.246 23.246 0 0 0-.053-.555c-.037-.385-.07-.716-.066-1.059.002-.169.021-.344.04-.523.029-.28.062-.599.062-.948 0-.28-.024-.525-.047-.741a3.847 3.847 0 0 1-.033-.519c.002-.187.022-.389.043-.591.027-.297.059-.604.057-.915 0-.227-.02-.416-.037-.594-.007-.071-.018-.139-.018-.215.004-.115.017-.221.027-.325.022-.213.051-.479.041-.8-.012-.309-.059-.562-.096-.765-.023-.134-.044-.239-.046-.312l-.045-1.794-1.488.024c-.188.004-.375.003-.563.003l-1.196-.009c-.791 0-1.64.01-2.517.125a25.359 25.359 0 0 0-1.84-.072c-.562 0-1.125-.02-1.697-.007l-.08-.059c-.547.013-1.104-.098-1.682-.098h-.187c-.315 0-.64.114-.97.104l-.235.115-.086-.007-.492-.051-.187.027a3.913 3.913 0 0 1-.529.057c-.061 0-.125-.004-.195-.014l-.271-.038-.268.062c-.043.01-.084.021-.123.033a5.988 5.988 0 0 0-.191-.003c-.352 0-.682.028-1.002.056-.271.023-.528.046-.762.046-.104 0-.205-.005-.309-.017l-.785-.095-.099.111a20.02 20.02 0 0 0-1.421-.053c-.473 0-1.131.02-1.74.105a5.64 5.64 0 0 0-.712-.043c-.334 0-.662.023-.979.046-.277.02-.562.041-.859.042-.141 0-.278-.013-.416-.023a7.902 7.902 0 0 0-.628-.031c-.108 0-.217.004-.326.013a8.415 8.415 0 0 1-.689.021c-.202 0-.408-.003-.611-.006a34.332 34.332 0 0 0-.632-.007c-.217 0-.424.004-.619.014-.239.013-.439.058-.587.09-.039.009-.078.019-.098.022l-.067.002c-.103 0-.208-.008-.313-.015a8.126 8.126 0 0 0-.52-.021c-.141 0-.281.006-.422.021-.56.058-1.197.084-2.007.084l-.396-.002-1.273-.021-1.299-.015a17 17 0 0 0-1.401.071c-.292.023-.595.048-.931.063-.195.008-.395.011-.595.011-.506 0-1.026-.021-1.548-.04-.563-.021-1.126-.043-1.676-.043-.174 0-.346.003-.56.008-.107 0-.209-.009-.309-.017a6.878 6.878 0 0 0-.494-.022c-.051 0-.253.006-.304.006-.306 0-.646-.031-1.005-.063-.434-.039-.881-.08-1.375-.08H7.42l.008 1.509c.005.885.029 1.724.052 2.527.041 1.476.077 2.75-.009 3.969l-.008.107.008.107c.043.58.077 1.314.102 2.168l.039 2.178.022 3.204.079.194c-.001.055-.009.109-.014.165a4.23 4.23 0 0 0-.021.634c.017.327.04.678.065 1.04.068 1.004.146 2.142.063 3.036l-.01.108.005.108c.138 2.688.181 5.489.224 8.198l.092 4.726.17 5.649c-.108.805-.053 1.741.02 2.347-.037.22-.048.44-.057.655l-.013.226-.016.211.043.205c.089.426.074 1.174.063 1.778l-.03 1.492 1.64.022c.312.006.63-.01.957-.01.213 0 .43-.056.65-.056h.228l.235-.045c.076-.019.31.021.464.02.104-.001.218-.004.336-.009.078.023.162.044.252.061l.359.062.348-.108c.305-.097 1.019-.154 2.124-.17.324-.005.655-.007.975-.008.697-.004 1.355-.007 1.854-.043l-.001-.032.073.001c.3 0 .535-.063.676-.103l.021-.007c1.049-.026 1.927-.178 2.701-.311.229-.039.45-.074.671-.109l-.022.051 1.228.656c.33.176.694.213.941.213 1 0 1.582-.678 1.671-1.373.031-.012.064-.016.096-.027.056 0 .104-.004.156-.006l.412 1.43c.048-.004.102-.004.154-.005.365-.005.916-.014 1.398-.394l1.618-1.27.424.102.274-.074h.039c.118 0 .237-.071.364-.098l.125-.084.119-.037c.235-.092.44-.217.604-.392.076-.018.143-.006.201-.021.051-.014.102.029.156.021.08-.011.223.109.283.109h.223c.181 0 .396-.124.615-.15.235-.028.414-.198.533-.229.024-.008.051-.016.049-.021.043.005.082.015.123.022.174.033.41.08.709.08l.166-.004.088-.014c.146-.021.287-.062.418-.117 1.01-.035 2.021-.091 2.855-.281l-.104-.502.856.014c.154.039.328.061.522.061.139 0 .365-.002.617-.061.188-.02.398-.027.662-.027.203 0 .405.004.608.01.226.004.449.01.672.01.416 0 .763-.018 1.084-.057l.496.203.433-.251c.112.003.234.011.355.017.191.012.383.021.555.021.217 0 .396-.015.566-.046l1.52-.278.865.229.362-.455 2.14-.395-.986-.422c.02-.019.039-.031.058-.05.241-.249.413-.534.563-.786.051-.088.102-.177.154-.25.102-.139.194-.281.285-.421l.107-.164c.129-.097.256-.221.379-.377l.312-.124.208-.697c.054-.182.119-.34.183-.498l.002-.004.137-.02.322-.843c.059-.15.117-.302.179-.454.362-.911.771-1.944.919-3.309.031-.299.047-.537.045-.707-.009-1.246.109-2.152.195-2.4l.125-.219.037-.289c.009-.055.014-.109.017-.16.239-.473.388-1.04.378-1.549a2.096 2.096 0 0 0-.183-.799zM42.302 44.736l-.14.037-.042-.241.104-.079c.03.088.053.19.078.283zm-11.751 1.343c-.041.042-.08.087-.115.134l-.109-.453c.24-.004.484-.011.727-.021l-.021.009a5.594 5.594 0 0 0-.517.038l.035.293zm1.719-4.629l-.269.002-.058-.672-.109.002c-.27 0-.548-.027-.842-.058-.258-.024-.508-.05-.744-.059a2.598 2.598 0 0 0-.127-.003l-.003-.034-1.128-.036-.105-.036-.314.039-.141.008a5.17 5.17 0 0 0-.348.025c-.078.014-.137.023-.189.035l-.127-.005-.248-.084-.214-.011a19.85 19.85 0 0 0-.91-.019c-.327 0-.653.003-.979.009-.309.006-.616.006-.925.006-.319 0-.64-.017-.962-.035l-.12-.022c-.143-.05-.296-.122-.458-.134l-.063-.085h-.053c-.109 0-.238.092-.377.125-.396-.021-.804.043-1.195.043l-.288.002.104-.729-1.321.049-.076-2.588c-.029-1.31-.039-2.621-.049-3.904-.005-.735-.011-1.463-.02-2.174a64.147 64.147 0 0 0-.047-1.614c-.035-.95-.069-1.849-.018-2.678l.004-.087-.006-.087c-.081-1.497-.094-2.823-.104-4.227l-.013-.897c-.004-.452-.009-.922-.002-1.386.012-.814.001-1.657-.046-2.378-.009-.131-.077-.272-.104-.419.045-.134-.01-.294-.01-.477v-.019l.494.023 1.094.043c.229.007.457.011.687.011.497 0 .944-.02 1.361-.062a55.24 55.24 0 0 0 4.424.034c.389.068.802.102 1.28.102.34 0 .685-.017 1.035-.035.313-.016.633-.032.959-.032.084 0 .17.002.256.004.109.027.225.05.361.063.45.042.938.062 1.489.062.601 0 1.188-.023 1.757-.047.505-.02.995-.039 1.456-.039.354 0 .646.012.894.037l.273.027.266-.071a.411.411 0 0 1 .121-.014c.111 0 .26.021.43.046.193.027.389.055.586.067.127.008.252.012.375.012.308 0 .594-.022.847-.043.181-.015.358-.029.537-.032l.053.009c.14.025.28.047.442.055l-.006.104a4.769 4.769 0 0 1-.043.385c-.049.366-.106.805-.041 1.311-.08.485-.07.96-.062 1.39.005.189.011.383.005.578-.01.347-.041.716-.074 1.106-.027.339-.057.68-.073 1.021-.017.319-.017.659-.017 1.003 0 .433-.002.99-.057 1.351-.373.434-.63 1.141-.154 2.231l-.24.186-.131.5c-.14.536-.111 1.021-.062 1.412-.008.016-.014.032-.021.049-.129.309-.324.773-.328 1.422-.002.279.045.526.08.707.012.057.024.113.028.152.001.229-.017.449-.032.667-.029.408-.062.87-.018 1.39.029.334.082.633.134.922.05.281.097.546.108.791.021.387.059.617.088.802.01.065.021.132.029.209.027.226.043.44.059.64.046.62.094 1.258.422 1.828.061.211.115.453.17.688a13.386 13.386 0 0 0 .239.944l-.813.092c-.533.043-.89.221-1.137.434-.154-.01-.305-.021-.447-.032l-.781-.078 1.197-.51-4.514-.979c-.163-.037-.335.015-.525.015h-.058l-.645-.489-.654.484a3.542 3.542 0 0 0-.094.034l.011.035-.113.096c.039-.033.078-.062.115-.088l.452 1.564c-.162.009-.322.025-.47.025zm6.091 4.623l.537-.449c-.391.431-.4.985-.4 1.022.001.062.016.136.025.207l-.162-.78z" opacity=".25"/><path fill="#FFF" d="M51.727 29.621c-.017-.043-.039-.09-.047-.11a2.304 2.304 0 0 1 .059-.341c.066-.307.148-.689.111-1.143-.029-.37-.158-.654-.242-.844l-.016-.034c-.043-.384-.011-1.274.053-1.78a.733.733 0 0 1 .037-.139c.064-.207.174-.553.127-1.026a2.053 2.053 0 0 0-.664-1.345 13.591 13.591 0 0 1-.013-1.159c.011-.575.021-1.167-.049-1.721.086-.644.015-1.228-.046-1.71-.036-.288-.069-.56-.062-.736l.014-.082c.025-.145.06-.341.058-.571-.003-.28-.047-.544-.089-.798-.02-.12-.042-.246-.055-.368-.023-.245-.034-.478-.045-.699-.014-.253-.025-.511-.053-.775l.014-.093.039-.292a8.05 8.05 0 0 0 .043-.624 9.81 9.81 0 0 0-.031-1.098 42.276 42.276 0 0 0-.051-.555 9.32 9.32 0 0 1-.067-1.059c.001-.169.022-.344.04-.523.029-.279.061-.598.061-.947 0-.281-.024-.525-.047-.742a4.018 4.018 0 0 1-.033-.519c.002-.187.022-.389.043-.591.028-.297.059-.604.057-.915 0-.227-.02-.415-.037-.594-.007-.071-.018-.138-.018-.214.002-.116.016-.221.027-.326.022-.213.051-.479.04-.8-.011-.308-.058-.562-.095-.765-.023-.133-.044-.238-.046-.311l-.046-1.795-1.488.025c-.188.003-.375.002-.563.002l-1.197-.008c-.791 0-1.64.009-2.517.124a25.359 25.359 0 0 0-1.84-.072c-.561 0-1.126-.019-1.697-.007l-.08-.059c-.547.013-1.104-.098-1.682-.098h-.188c-.315 0-.639.115-.969.104l-.236.113-.086-.006-.492-.051-.184.026c-.25.036-.396.058-.529.058-.061 0-.125-.005-.196-.015l-.271-.038-.27.065c-.043.01-.084.021-.123.033a6.035 6.035 0 0 0-.191-.003c-.353 0-.683.028-1.002.056-.271.023-.528.046-.762.046-.103 0-.205-.004-.308-.017l-.784-.096-.1.112a19.378 19.378 0 0 0-1.42-.054c-.473 0-1.131.02-1.74.105a5.649 5.649 0 0 0-.712-.042c-.333 0-.662.022-.98.045-.276.02-.561.041-.858.043-.141 0-.279-.014-.417-.023a7.46 7.46 0 0 0-.627-.032c-.109 0-.217.004-.327.013a8.4 8.4 0 0 1-.689.021c-.202 0-.408-.003-.611-.006a34.332 34.332 0 0 0-.632-.007c-.217 0-.424.004-.619.014-.239.013-.439.058-.586.09-.04.009-.078.019-.098.022l-.067.002c-.103 0-.208-.008-.314-.014a7.453 7.453 0 0 0-.519-.021c-.141 0-.281.006-.422.021a19.79 19.79 0 0 1-2.006.084l-.397-.002-1.277-.02-1.299-.016c-.509 0-.962.037-1.401.072-.292.023-.595.047-.931.062-.195.008-.394.011-.595.011-.506 0-1.026-.02-1.548-.039-.562-.021-1.125-.043-1.676-.043-.173 0-.346.002-.56.007-.107 0-.209-.009-.309-.017a6.878 6.878 0 0 0-.494-.022c-.051 0-.253.006-.304.006a11.878 11.878 0 0 1-1.003-.064c-.434-.039-.881-.08-1.375-.08H4.623l.007 1.509c.005.886.029 1.726.052 2.528.042 1.476.077 2.75-.009 3.969L4.666 10l.008.107c.042.58.077 1.314.101 2.168l.04 2.178.022 3.205.079.193c-.001.055-.009.109-.014.165-.015.172-.034.386-.021.634.017.328.041.678.065 1.041.069 1.004.146 2.141.063 3.035l-.01.108.005.108c.137 2.688.181 5.49.223 8.199l.092 4.725.17 5.65c-.108.805-.053 1.74.02 2.346-.036.22-.047.438-.057.654-.004.076-.007.152-.013.226l-.016.211.043.205c.089.426.074 1.174.063 1.778l-.03 1.492 1.64.023c.311.006.629-.01.957-.01.213 0 .43-.058.651-.058h.227l.235-.045c.076-.019.31.022.464.021.105-.002.218-.004.336-.008.078.022.162.043.251.059l.359.062.348-.108c.305-.097 1.019-.154 2.124-.171.325-.004.655-.006.975-.008.697-.004 1.355-.006 1.853-.043l-.001-.031h.073c.3 0 .535-.063.676-.103l.021-.005c1.049-.027 1.927-.178 2.701-.311.229-.039.45-.076.671-.11l-.022.05 1.228.656c.33.176.694.213.941.213 1 0 1.582-.677 1.671-1.373.031-.01.065-.015.096-.027.056 0 .104-.004.156-.006l.412 1.43c.048-.004.102-.004.154-.004.365-.006.916-.015 1.398-.393l1.619-1.27.423.102.275-.076h.039c.118 0 .237-.07.364-.096l.125-.084.119-.039c.236-.092.442-.217.605-.391.075-.019.144-.006.2-.021.051-.014.101.029.156.021.08-.012.224.108.285.108h.221c.181 0 .396-.123.617-.149.234-.029.414-.197.531-.23.025-.006.051-.015.049-.02.043.005.084.015.125.022.172.033.409.079.707.079l.168-.003.086-.015c.147-.021.289-.062.418-.117 1.01-.035 2.022-.09 2.856-.281l-.104-.501.858.013c.154.039.328.062.522.062.139 0 .365-.002.617-.062.188-.019.398-.027.662-.027.202 0 .405.006.608.01.226.006.448.01.672.01.416 0 .763-.018 1.083-.056l.496.204.432-.252c.113.002.235.01.356.018.192.01.383.02.554.02.217 0 .396-.014.567-.045l1.519-.279.866.229.362-.453 2.14-.396-.985-.422c.019-.019.037-.031.055-.05.242-.25.414-.534.563-.786.052-.089.103-.177.155-.25.102-.14.193-.281.285-.421.037-.059.074-.112.107-.164.129-.098.256-.221.379-.377l.313-.125.208-.697c.055-.182.119-.339.182-.497l.002-.004.135-.021.324-.842c.058-.15.117-.303.178-.455.361-.91.771-1.943.918-3.308.031-.3.047-.538.045-.708-.01-1.245.109-2.152.195-2.4l.125-.219.037-.287c.008-.057.012-.111.016-.162.238-.471.387-1.039.378-1.549.002-.341-.108-.616-.18-.798zM39.504 41.839l-.141.036-.041-.24.104-.08c.031.088.053.189.078.284zm-11.751 1.343c-.041.041-.08.086-.116.133l-.109-.453c.242-.004.484-.01.727-.021l-.021.009a6.887 6.887 0 0 0-.516.039l.035.293zm1.719-4.63l-.269.003-.056-.673-.111.002c-.27 0-.548-.026-.842-.057-.258-.025-.507-.05-.744-.06l-.127-.002-.003-.033-1.127-.037-.105-.037-.315.041-.141.006a5.994 5.994 0 0 0-.348.025c-.078.014-.137.024-.189.037a2.681 2.681 0 0 1-.127-.007l-.248-.084-.214-.01a18.494 18.494 0 0 0-.91-.019c-.327 0-.653.002-.979.009-.308.005-.616.005-.925.005-.319 0-.64-.016-.962-.034l-.12-.022c-.143-.049-.296-.121-.458-.133l-.063-.087h-.053c-.109 0-.238.093-.377.125-.396-.02-.804.044-1.195.044l-.288.002.104-.729-1.321.048-.077-2.587c-.029-1.31-.039-2.621-.049-3.905-.005-.734-.011-1.462-.02-2.173a64.367 64.367 0 0 0-.047-1.615c-.035-.95-.069-1.848-.018-2.678l.004-.086-.006-.088c-.081-1.497-.094-2.822-.104-4.227l-.013-.897c-.004-.452-.009-.922-.002-1.386.012-.814.001-1.656-.046-2.378-.009-.131-.077-.272-.104-.419.045-.134-.01-.294-.01-.477v-.018l.494.022 1.094.044c.229.006.458.01.687.01.497 0 .944-.02 1.361-.061a55.152 55.152 0 0 0 4.424.033c.389.069.802.102 1.281.102.339 0 .684-.017 1.035-.034.313-.016.633-.033.959-.033.084 0 .169.002.256.004.109.027.224.051.362.064.45.041.937.062 1.489.062.6 0 1.188-.023 1.757-.046.505-.021.995-.04 1.456-.04.354 0 .646.012.894.037l.273.027.266-.071a.45.45 0 0 1 .121-.014c.111 0 .26.021.43.046a5.965 5.965 0 0 0 .961.079c.308 0 .594-.022.847-.043.18-.014.358-.029.538-.032l.052.009c.14.025.28.047.442.055l-.006.105a4.744 4.744 0 0 1-.043.384c-.047.366-.106.806-.041 1.312-.08.484-.07.959-.062 1.389.005.189.011.383.004.578-.009.348-.04.717-.073 1.107-.027.338-.057.68-.074 1.021a20.36 20.36 0 0 0-.017 1.002c0 .434 0 .99-.055 1.352-.374.433-.63 1.14-.155 2.23l-.24.185-.131.5c-.14.537-.111 1.022-.062 1.413-.008.016-.014.032-.021.049-.13.309-.324.772-.328 1.422 0 .279.045.526.08.706.012.059.024.114.028.152.001.229-.017.449-.032.668-.029.408-.062.869-.018 1.39.029.333.083.632.134.922.049.28.097.545.108.79.021.387.059.617.088.803.01.065.021.131.029.209.027.227.043.439.059.64.046.62.094 1.259.422 1.829.061.211.115.453.17.688.07.311.145.627.238.932v.011l-.812.092c-.533.045-.89.221-1.136.435-.155-.011-.306-.021-.449-.033l-.78-.076 1.197-.512-4.514-.979c-.163-.037-.335.014-.526.014h-.057l-.644-.491-.654.483c-.032.013-.063.022-.094.035l.011.035-.113.096c.04-.032.079-.063.115-.088l.452 1.563c-.165.011-.323.028-.472.028zm6.092 4.624l.537-.449c-.392.43-.401.985-.401 1.023.001.061.015.135.026.205l-.162-.779z"/><path fill="#606060" d="M38.141 28.219c-.002.271.107.566.107.85.001.662-.115 1.259-.057 1.927.054.59.213 1.147.248 1.762.024.457.069.604.107.911.109.893.053 1.624.363 2.009.205.625.324 1.41.514 1.957.03.086.016.271.026.304.478 1.394 1.257 2.246 1.599 3.885.178.144.434.238.653.518.099.125.163.407.264.498.374.333.851.04 1.132.663.094.034.118-.079.182-.11.746.019 1.373-.229 1.951-.076.342-.428.736-.334 1.06-.666.2-.205.39-.608.582-.873.219-.301.39-.62.61-.871.227.003.269-.383.457-.459.141-.469.332-.823.468-1.301.075-.045.12-.158.213-.17.383-1 .856-2.012 1.005-3.383.014-.123.039-.387.037-.54-.008-1.017.07-2.583.372-3.114.024-.185-.05-.182-.025-.363.144-.116.414-.655.405-1.124-.002-.162-.195-.443-.229-.798-.052-.524.209-1.022.17-1.498-.019-.217-.192-.447-.231-.675-.103-.592-.03-1.793.03-2.289.048-.393.189-.539.16-.836-.025-.268-.183-.471-.414-.444-.508-.771-.114-2.753-.336-3.938.182-.871-.121-1.703-.086-2.537.006-.167.068-.366.066-.538-.003-.285-.102-.666-.137-1.033-.062-.628-.049-1.178-.127-1.694a.927.927 0 0 0 .049-.219l.035-.261c.019-.172.029-.34.035-.504a8.323 8.323 0 0 0-.027-.932c-.047-.597-.13-1.143-.124-1.748.005-.455.101-.939.101-1.455 0-.434-.088-.807-.08-1.281.006-.471.102-1.023.1-1.48-.001-.342-.061-.566-.053-.847.008-.37.08-.661.066-1.038-.014-.397-.128-.699-.142-1.092l-.007-.305c-1.407.023-2.832-.068-4.254.139-1.193-.094-2.396-.065-3.631-.039-.619.011-1.25.024-1.908.021a39.65 39.65 0 0 1-1.016-.018l-.263-.01L38 3.09l-.307-.032c-.412.061-.715.104-1.146.044-.096.022-.095.095-.246.088-.861-.089-1.768.162-2.656.055a.295.295 0 0 1-.125.088c-1.225-.145-2.775-.164-3.738.01-.746-.15-1.614.021-2.534.027-.433.002-.858-.08-1.264-.048-.793.065-1.832-.015-2.594.025-.227.013-.448.098-.67.111-.403.025-.834-.062-1.264-.017-.828.084-1.717.098-2.582.09l-1.266-.021-1.281-.016c-.776 0-1.424.098-2.271.133-1.39.057-2.936-.104-4.355-.064-.354.01-.661.287-.98.3-.825.031-1.685.196-2.584.196H6.13c.014 2 .18 4.287.04 6.275.049.678.083 1.307.104 2.082l.04 2.111.021 2.875c.164.405.023.777.043 1.194.065 1.289.25 2.931.124 4.281.145 2.838.185 5.732.231 8.624l.085 4.321.174 5.783c-.124.746-.045 1.795.04 2.334-.078.185-.073.586-.097.912.118.564.109 1.312.093 2.119.533.012 1.086.025 1.668.006.507-.193 1.221-.047 1.837-.194.152.106-.358.092-.017.149.561-.176 1.536-.223 2.553-.238 1.014-.016 2.079.002 2.742-.047-.092 0-.105-.053.009-.06.307.089.48-.087.811-.083 1.584-.039 2.716-.387 4.068-.516.169.05.623.201.78.07-.244-.021-.555-.012-.534-.156.406.047.941-.02 1.213-.135.502-.015.759.063 1.208-.043.11.002-.107-.152.128-.148.704.076 1.058-.053 1.687.021.184-.139.924-.179 1.152-.104.206-.062-.227-.116-.052-.151.571-.044 1.103-.102 1.629-.009.13-.063.217-.151.432-.174.145-.011-.041.137.176.092.203-.078-.158-.137-.108-.24.286-.05.229-.122.373-.204.398.082.671-.088 1.033-.138.373-.053.787-.001 1.146-.045.309-.037.441-.142.792-.14.284.002.522.109.839.101.168-.022-.111-.11.127-.117 1.106-.036 2.213-.071 3.029-.26-1.254.233-2.168-.017-3.268.194-.166-.135-.494.084-.658-.098-.074.077.18.131-.066.119-.082-.011-.113-.045-.238-.033.155-.16-.078-.16-.168-.272-.935.01-1.666.084-2.477.088-.149.037.104.092-.066.119-.308.026-.543.004-.907.048-.109-.119-.354-.178-.223-.333 1.091.011 2.574-.224 3.872-.248.395-.008.801.113 1.029-.077-.583.059-1.053-.15-1.559-.171-.655-.022-1.355.164-1.997.123-.181-.011-.255-.065-.418-.063-.127 0-.344.088-.487.084-.156-.008-.165-.071-.298-.064-.274.014-.485.113-.789.109-.508-.006-1.007-.119-1.564-.082-.102-.053-.057-.187.072-.209.66.008.773 0 1.447-.01-.075-.015-.121-.041-.115-.093.208.011.281.047.424-.024-.501.006-.456-.226-.284-.334 1.245.041 2.772-.064 3.797.021.113-.062.186-.148.371-.175 1.154-.075 2.446.001 3.682-.071-1.409-.178-2.883-.072-4.521 0-.062-.029-.012-.111-.175-.092-.699.084-1.513.062-2.055.092a16.137 16.137 0 0 1-.703-.398c-1.718.108-2.974-.422-4.619-.422.008-.092-.121-.119-.171-.184.133-.074.221-.171.374-.234.27-.006.546-.055.784.01 1.386-.268 3.354-.075 5.078-.231.21-.147.045-.264-.1-.391-.831-.087-1.59.122-2.469-.063-.314-.354.016-.601.696-.619 1.126-.033 3.067.002 3.795.051 3.304-.211 6.58-.123 9.966-.287-1.882-.068-3.621.119-5.306-.012.006.064-.056.096-.187.088-1.657-.037-3.495-.031-4.948.084-.609-.217-1.786.037-2.402-.183.154-.342.66-.497 1.297-.584-.65.021-1.257-.092-1.802-.112-.448-.019-1.221.084-1.448.01-.055-.019.05-.088-.055-.09.183.006-.327.02-.364.024-.245.039-.199.063-.485.054-.371-.015-.364-.02-.597-.099-1.28-.056-2.522.051-3.798-.021l-.422-.006c-.121-.021-.018-.08-.177-.093-.09-.006-.05.066-.184.06a21.48 21.48 0 0 0-1.564-.051c-.312.004-.637.002-.966-.004l-.496-.009-.23-.006-.065-.006a3.074 3.074 0 0 0-.468-.027c-.051-.021.06-.125-.016-.123a13.093 13.093 0 0 0-.81-.129l.034-.385c.011-.039.143-.109.123-.138.022-.064-.123.045-.114-.012a.69.69 0 0 1 .155-.164c.055-.234.053-.418.03-.621l-.092-3.11c-.047-2.064-.044-4.136-.069-6.095-.019-1.546-.146-3.021-.061-4.403-.101-1.855-.094-3.457-.111-5.192-.011-1.251.058-2.628-.011-3.679-.012-.182-.081-.396-.082-.608 0-.079.006-.159.016-.239a.532.532 0 0 1 .035-.061c.025-.038.052-.074.052-.111.003-.196-.122-.46-.116-.685.007-.244.027-.192.038-.692h.001c.136 0 .182-.087.32-.094.092-.006.241.078.33.076.246-.006.485-.136.76-.108l.146.018.487.022.98.04a13.88 13.88 0 0 0 1.966-.058c1.443.08 3.198.085 4.58.031 1.121.239 2.287-.006 3.556.049.134.005.223.052.357.064 1.919.178 4.05-.143 5.607.014.583-.156 1.083.017 1.625.053.586.039 1.128-.064 1.691-.068.186 0 .354.061.539.067l.136.003a.22.22 0 0 0 .05-.006c.034-.006.068-.018.104-.029.072-.024.151-.055.232-.064.123-.014.225.043.321.084.1.041.192.066.379-.014.06.057.122.119.209.146-.026.14-.022.24.046.291-.113.262-.104.404-.079.568.013.08.029.164.036.25a.984.984 0 0 1 .001.133l-.008.066-.015.266c-.035.557-.194 1.063-.053 1.625-.16.582-.066 1.277-.086 1.986-.02.7-.113 1.43-.148 2.162-.053 1.043.076 2.34-.252 3.121-.684.356.32 1.049.185 1.879-.138.441-.33.384-.578.572-.103.395-.04.764.015 1.146-.063.451-.372.775-.374 1.371zM26.373 44.746c-.012.034.011.053.058.061-.131.144-.414-.067-.058-.061zm.124-.058c.501-.013 1.206-.147 1.57-.039.098 0-.088-.17.071-.209.214.074.467.131.837.131.023.25-.708.103-.741.32-.282-.021-.42-.031-.547.082-.579-.082-.708.07-1.145-.016.116-.143-.079-.107-.045-.269z"/></svg>