<svg xmlns="http://www.w3.org/2000/svg" width="58" height="54" viewBox="0 0 58 54"><path fill="#333" d="M54.525 32.52c-.018-.043-.041-.09-.049-.109a2.34 2.34 0 0 1 .06-.342c.065-.308.149-.689.112-1.142a2.461 2.461 0 0 0-.244-.845l-.014-.034c-.043-.384-.012-1.274.051-1.78a.853.853 0 0 1 .037-.14c.064-.207.174-.553.129-1.025a2.055 2.055 0 0 0-.666-1.346 13.986 13.986 0 0 1-.012-1.158c.01-.576.021-1.168-.049-1.721.086-.644.014-1.229-.046-1.711-.036-.287-.069-.559-.063-.736l.015-.082c.024-.144.06-.34.058-.57a5.032 5.032 0 0 0-.09-.798c-.02-.12-.042-.246-.054-.368-.024-.245-.035-.478-.046-.699-.014-.253-.025-.511-.055-.775l.016-.093.039-.292c.022-.214.037-.421.043-.625a9.8 9.8 0 0 0-.031-1.097 23.246 23.246 0 0 0-.053-.555c-.037-.385-.07-.716-.066-1.059.002-.169.021-.344.04-.523.029-.28.062-.599.062-.948 0-.28-.024-.525-.047-.741a3.847 3.847 0 0 1-.033-.519c.002-.187.022-.389.043-.591.027-.297.059-.604.057-.915 0-.227-.02-.416-.037-.594-.007-.071-.018-.139-.018-.215.004-.115.017-.221.027-.325.022-.213.051-.479.041-.8-.012-.309-.059-.562-.096-.765-.023-.134-.044-.239-.046-.312l-.045-1.794-1.488.024c-.188.004-.375.003-.563.003l-1.196-.009c-.791 0-1.64.01-2.517.125a25.359 25.359 0 0 0-1.84-.072c-.562 0-1.125-.02-1.697-.007l-.08-.059c-.547.013-1.104-.098-1.682-.098h-.187c-.315 0-.64.114-.97.104l-.235.115-.086-.007-.492-.051-.187.027a3.913 3.913 0 0 1-.529.057c-.061 0-.125-.004-.195-.014l-.271-.038-.268.062c-.043.01-.084.021-.123.033a5.988 5.988 0 0 0-.191-.003c-.352 0-.682.028-1.002.056-.271.023-.528.046-.762.046-.104 0-.205-.005-.309-.017l-.785-.095-.099.111a20.02 20.02 0 0 0-1.421-.053c-.473 0-1.131.02-1.74.105a5.64 5.64 0 0 0-.712-.043c-.334 0-.662.023-.979.046-.277.02-.562.041-.859.042-.141 0-.278-.013-.416-.023a7.902 7.902 0 0 0-.628-.031c-.108 0-.217.004-.326.013a8.415 8.415 0 0 1-.689.021c-.202 0-.408-.003-.611-.006a34.332 34.332 0 0 0-.632-.007c-.217 0-.424.004-.619.014-.239.013-.439.058-.587.09-.039.009-.078.019-.098.022l-.067.002c-.103 0-.208-.008-.313-.015a8.126 8.126 0 0 0-.52-.021c-.141 0-.281.006-.422.021-.56.058-1.197.084-2.007.084l-.396-.002-1.273-.021-1.299-.015a17 17 0 0 0-1.401.071c-.292.023-.595.048-.931.063-.195.008-.395.011-.595.011-.506 0-1.026-.021-1.548-.04-.563-.021-1.126-.043-1.676-.043-.174 0-.346.003-.56.008-.107 0-.209-.009-.309-.017a6.878 6.878 0 0 0-.494-.022c-.051 0-.253.006-.304.006-.306 0-.646-.031-1.005-.063-.434-.039-.881-.08-1.375-.08H7.42l.008 1.509c.005.885.029 1.724.052 2.527.041 1.476.077 2.75-.009 3.969l-.008.107.008.107c.043.58.077 1.314.102 2.168l.039 2.178.022 3.204.079.194c-.001.055-.009.109-.014.165a4.23 4.23 0 0 0-.021.634c.017.327.04.678.065 1.04.068 1.004.146 2.142.063 3.036l-.01.108.005.108c.138 2.688.181 5.489.224 8.198l.092 4.726.17 5.649c-.108.805-.053 1.741.02 2.347-.037.22-.048.44-.057.655l-.013.226-.016.211.043.205c.089.426.074 1.174.063 1.778l-.03 1.492 1.64.022c.312.006.63-.01.957-.01.213 0 .43-.056.65-.056h.228l.235-.045c.076-.019.31.021.464.02.104-.001.218-.004.336-.009.078.023.162.044.252.061l.359.062.348-.108c.305-.097 1.019-.154 2.124-.17.324-.005.655-.007.975-.008.697-.004 1.355-.007 1.854-.043l-.001-.032.073.001c.3 0 .535-.063.676-.103l.021-.007c1.049-.026 1.927-.178 2.701-.311.229-.039.45-.074.671-.109l-.022.051 1.228.656c.33.176.694.213.941.213 1 0 1.582-.678 1.671-1.373.031-.012.064-.016.096-.027.056 0 .104-.004.156-.006l.412 1.43c.048-.004.102-.004.154-.005.365-.005.916-.014 1.398-.394l1.618-1.27.424.102.274-.074h.039c.118 0 .237-.071.364-.098l.125-.084.119-.037c.235-.092.44-.217.604-.392.076-.018.143-.006.201-.021.051-.014.102.029.156.021.08-.011.223.109.283.109h.223c.181 0 .396-.124.615-.15.235-.028.414-.198.533-.229.024-.008.051-.016.049-.021.043.005.082.015.123.022.174.033.41.08.709.08l.166-.004.088-.014c.146-.021.287-.062.418-.117 1.01-.035 2.021-.091 2.855-.281l-.104-.502.856.014c.154.039.328.061.522.061.139 0 .365-.002.617-.061.188-.02.398-.027.662-.027.203 0 .405.004.608.01.226.004.449.01.672.01.416 0 .763-.018 1.084-.057l.496.203.433-.251c.112.003.234.011.355.017.191.012.383.021.555.021.217 0 .396-.015.566-.046l1.52-.278.865.229.362-.455 2.14-.395-.986-.422c.02-.019.039-.031.058-.05.241-.249.413-.534.563-.786.051-.088.102-.177.154-.25.102-.139.194-.281.285-.421l.107-.164c.129-.097.256-.221.379-.377l.312-.124.208-.697c.054-.182.119-.34.183-.498l.002-.004.137-.02.322-.843c.059-.15.117-.302.179-.454.362-.911.771-1.944.919-3.309.031-.299.047-.537.045-.707-.009-1.246.109-2.152.195-2.4l.125-.219.037-.289c.009-.055.014-.109.017-.16.239-.473.388-1.04.378-1.549a2.096 2.096 0 0 0-.183-.799zM42.302 44.736l-.14.037-.042-.241.104-.079c.03.088.053.19.078.283zm-11.751 1.343c-.041.042-.08.087-.115.134l-.109-.453c.24-.004.484-.011.727-.021l-.021.009a5.594 5.594 0 0 0-.517.038l.035.293zm1.719-4.629l-.269.002-.058-.672-.109.002c-.27 0-.548-.027-.842-.058-.258-.024-.508-.05-.744-.059a2.598 2.598 0 0 0-.127-.003l-.003-.034-1.128-.036-.105-.036-.314.039-.141.008a5.17 5.17 0 0 0-.348.025c-.078.014-.137.023-.189.035l-.127-.005-.248-.084-.214-.011a19.85 19.85 0 0 0-.91-.019c-.327 0-.653.003-.979.009-.309.006-.616.006-.925.006-.319 0-.64-.017-.962-.035l-.12-.022c-.143-.05-.296-.122-.458-.134l-.063-.085h-.053c-.109 0-.238.092-.377.125-.396-.021-.804.043-1.195.043l-.288.002.104-.729-1.321.049-.076-2.588c-.029-1.31-.039-2.621-.049-3.904-.005-.735-.011-1.463-.02-2.174a64.147 64.147 0 0 0-.047-1.614c-.035-.95-.069-1.849-.018-2.678l.004-.087-.006-.087c-.081-1.497-.094-2.823-.104-4.227l-.013-.897c-.004-.452-.009-.922-.002-1.386.012-.814.001-1.657-.046-2.378-.009-.131-.077-.272-.104-.419.045-.134-.01-.294-.01-.477v-.019l.494.023 1.094.043c.229.007.457.011.687.011.497 0 .944-.02 1.361-.062a55.24 55.24 0 0 0 4.424.034c.389.068.802.102 1.28.102.34 0 .685-.017 1.035-.035.313-.016.633-.032.959-.032.084 0 .17.002.256.004.109.027.225.05.361.063.45.042.938.062 1.489.062.601 0 1.188-.023 1.757-.047.505-.02.995-.039 1.456-.039.354 0 .646.012.894.037l.273.027.266-.071a.411.411 0 0 1 .121-.014c.111 0 .26.021.43.046.193.027.389.055.586.067.127.008.252.012.375.012.308 0 .594-.022.847-.043.181-.015.358-.029.537-.032l.053.009c.14.025.28.047.442.055l-.006.104a4.769 4.769 0 0 1-.043.385c-.049.366-.106.805-.041 1.311-.08.485-.07.96-.062 1.39.005.189.011.383.005.578-.01.347-.041.716-.074 1.106-.027.339-.057.68-.073 1.021-.017.319-.017.659-.017 1.003 0 .433-.002.99-.057 1.351-.373.434-.63 1.141-.154 2.231l-.24.186-.131.5c-.14.536-.111 1.021-.062 1.412-.008.016-.014.032-.021.049-.129.309-.324.773-.328 1.422-.002.279.045.526.08.707.012.057.024.113.028.152.001.229-.017.449-.032.667-.029.408-.062.87-.018 1.39.029.334.082.633.134.922.05.281.097.546.108.791.021.387.059.617.088.802.01.065.021.132.029.209.027.226.043.44.059.64.046.62.094 1.258.422 1.828.061.211.115.453.17.688a13.386 13.386 0 0 0 .239.944l-.813.092c-.533.043-.89.221-1.137.434-.154-.01-.305-.021-.447-.032l-.781-.078 1.197-.51-4.514-.979c-.163-.037-.335.015-.525.015h-.058l-.645-.489-.654.484a3.542 3.542 0 0 0-.094.034l.011.035-.113.096c.039-.033.078-.062.115-.088l.452 1.564c-.162.009-.322.025-.47.025zm6.091 4.623l.537-.449c-.391.431-.4.985-.4 1.022.001.062.016.136.025.207l-.162-.78z" opacity=".25"/><path fill="#FFF" d="M51.525 29.52c-.018-.043-.041-.09-.049-.109a2.34 2.34 0 0 1 .06-.342c.065-.308.149-.689.112-1.142a2.454 2.454 0 0 0-.244-.845l-.014-.034c-.043-.384-.012-1.274.051-1.78a.828.828 0 0 1 .037-.14c.064-.207.174-.553.129-1.025a2.055 2.055 0 0 0-.666-1.346 13.986 13.986 0 0 1-.012-1.158c.01-.576.021-1.168-.049-1.721.086-.644.014-1.229-.046-1.711-.036-.287-.069-.559-.063-.736l.015-.082c.024-.144.06-.34.058-.57a5.032 5.032 0 0 0-.09-.798c-.02-.12-.042-.246-.054-.368-.024-.245-.035-.478-.046-.699-.014-.253-.025-.511-.055-.775l.016-.093.039-.292c.022-.214.037-.421.043-.625a9.8 9.8 0 0 0-.031-1.097 23.246 23.246 0 0 0-.053-.555c-.037-.385-.07-.716-.066-1.059.002-.169.021-.344.04-.523.029-.28.062-.599.062-.948 0-.28-.024-.525-.047-.741a3.847 3.847 0 0 1-.033-.519c0-.187.021-.389.041-.591.029-.297.06-.604.058-.915 0-.227-.019-.416-.037-.594-.007-.071-.019-.139-.017-.215.003-.115.016-.221.027-.325.021-.213.051-.479.039-.8-.011-.309-.058-.562-.095-.765-.024-.134-.044-.239-.046-.312l-.045-1.794-1.488.024c-.188.004-.375.003-.562.003l-1.197-.009c-.791 0-1.641.01-2.518.125a25.3 25.3 0 0 0-1.838-.072c-.562 0-1.127-.02-1.699-.007l-.078-.059c-.549.013-1.104-.098-1.682-.098h-.188c-.316 0-.641.114-.969.104l-.235.115-.086-.007-.492-.051-.187.027a3.913 3.913 0 0 1-.529.057c-.061 0-.125-.004-.195-.014l-.271-.038-.268.062c-.043.01-.084.021-.123.033a5.988 5.988 0 0 0-.191-.003c-.352 0-.682.028-1.002.056-.271.023-.528.046-.762.046-.104 0-.205-.005-.309-.017l-.785-.095-.099.111a20.02 20.02 0 0 0-1.421-.053c-.473 0-1.131.02-1.74.105a5.64 5.64 0 0 0-.712-.043c-.334 0-.662.023-.98.046-.276.02-.561.041-.858.042-.141 0-.279-.013-.417-.023a7.902 7.902 0 0 0-.628-.031c-.108 0-.217.004-.326.013a8.415 8.415 0 0 1-.689.021c-.202 0-.408-.003-.611-.006a34.332 34.332 0 0 0-.632-.007c-.217 0-.424.004-.619.014-.239.013-.439.058-.587.09-.039.009-.078.019-.098.022l-.067.002c-.103 0-.208-.008-.313-.015a8.126 8.126 0 0 0-.52-.021c-.141 0-.281.006-.422.021-.56.058-1.197.084-2.007.084l-.396-.002-1.273-.021-1.299-.015a17 17 0 0 0-1.401.071c-.292.023-.595.048-.931.063-.195.008-.395.011-.595.011-.506 0-1.026-.021-1.548-.04-.563-.021-1.126-.043-1.676-.043-.174 0-.346.003-.56.008-.107 0-.209-.009-.309-.017a6.878 6.878 0 0 0-.494-.022c-.051 0-.253.006-.304.006-.306 0-.646-.031-1.005-.063-.434-.039-.881-.08-1.375-.08H4.42l.008 1.509c.005.885.029 1.724.052 2.527.041 1.476.077 2.75-.009 3.969l-.008.107.008.107c.043.58.077 1.314.102 2.168l.039 2.178.022 3.204.079.194c-.001.055-.009.109-.014.165a4.23 4.23 0 0 0-.021.634c.017.327.04.678.065 1.04.068 1.004.146 2.142.063 3.036l-.01.108.005.108c.138 2.688.181 5.489.224 8.198l.092 4.726.17 5.649c-.108.805-.053 1.741.02 2.347-.037.22-.048.44-.057.655l-.013.226-.016.211.043.205c.089.426.074 1.174.063 1.778l-.03 1.492 1.64.022c.312.006.63-.01.957-.01.213 0 .43-.056.65-.056h.228l.235-.045c.076-.019.31.021.464.02.104-.001.218-.004.336-.009.078.023.162.044.252.061l.359.062.348-.108c.305-.097 1.019-.154 2.124-.17.324-.005.655-.007.975-.008.697-.004 1.355-.007 1.854-.043l-.001-.032.073.001c.3 0 .535-.063.676-.103l.021-.007c1.049-.026 1.927-.178 2.701-.311.229-.039.45-.074.671-.109l-.022.051 1.228.656c.33.176.694.213.941.213 1 0 1.582-.678 1.671-1.373.031-.012.064-.016.096-.027.056 0 .104-.004.156-.006l.412 1.43c.048-.004.102-.004.154-.005.365-.005.916-.014 1.398-.394l1.618-1.27.423.102.275-.074h.039c.118 0 .237-.071.364-.098l.125-.084.119-.037a1.6 1.6 0 0 0 .604-.392c.076-.018.143-.006.201-.021.051-.014.102.029.156.021.08-.011.223.109.283.109h.223c.181 0 .396-.124.615-.15.235-.028.414-.198.533-.229.024-.008.051-.016.049-.021.043.005.082.015.123.022.174.033.41.08.709.08l.166-.004.088-.014c.146-.021.287-.062.418-.117 1.01-.035 2.021-.091 2.855-.281l-.104-.502.856.014c.154.039.328.061.522.061.139 0 .365-.002.617-.061.188-.02.398-.027.662-.027.203 0 .405.004.608.01.226.004.449.01.672.01.416 0 .763-.018 1.084-.057l.496.203.433-.251c.112.003.234.011.355.017.191.012.383.021.555.021.217 0 .396-.015.566-.046l1.52-.278.865.229.362-.455 2.14-.395-.986-.422c.02-.019.039-.031.058-.05.241-.249.413-.534.563-.786.051-.088.102-.177.154-.25.102-.139.194-.281.285-.421l.107-.164c.129-.097.256-.221.379-.377l.312-.124.208-.697c.054-.182.119-.34.183-.498l.002-.004.137-.02.322-.843c.059-.15.117-.302.179-.454.362-.911.771-1.944.919-3.309.031-.299.047-.537.045-.707-.009-1.246.109-2.152.195-2.4l.125-.219.037-.289c.009-.055.014-.109.017-.16.239-.473.388-1.04.378-1.549a2.096 2.096 0 0 0-.183-.799zM39.302 41.736l-.14.037-.042-.241.104-.079c.03.088.053.19.078.283zm-11.751 1.343c-.041.042-.08.087-.116.134l-.109-.453c.241-.004.484-.011.727-.021l-.021.009a5.551 5.551 0 0 0-.516.038l.035.293zm1.719-4.629l-.269.002-.057-.672-.11.002c-.27 0-.548-.027-.842-.058-.258-.024-.507-.05-.744-.059a2.598 2.598 0 0 0-.127-.003l-.003-.034-1.128-.036-.105-.036-.314.039-.141.008a5.17 5.17 0 0 0-.348.025c-.078.014-.137.023-.189.035l-.127-.005-.248-.084-.214-.011a19.85 19.85 0 0 0-.91-.019c-.327 0-.653.003-.979.009-.309.006-.616.006-.925.006-.319 0-.64-.017-.962-.035l-.12-.022c-.143-.05-.296-.122-.458-.134l-.063-.085h-.053c-.109 0-.238.092-.377.125-.396-.021-.804.043-1.195.043l-.288.002.104-.729-1.321.049-.076-2.588c-.029-1.31-.039-2.621-.049-3.904-.005-.735-.011-1.463-.02-2.174a64.286 64.286 0 0 0-.047-1.614c-.035-.95-.069-1.848-.018-2.678l.004-.087-.006-.087c-.081-1.497-.094-2.823-.104-4.227l-.013-.897c-.004-.452-.009-.922-.002-1.386.012-.814.001-1.657-.046-2.378-.009-.131-.077-.272-.104-.419.045-.134-.01-.294-.01-.477v-.019l.494.023 1.094.043c.229.007.457.011.687.011.497 0 .944-.02 1.361-.062a55.24 55.24 0 0 0 4.424.034c.389.068.802.102 1.28.102.34 0 .685-.017 1.035-.035.313-.016.633-.032.959-.032.084 0 .169.002.256.004.109.027.224.05.361.063.45.042.937.062 1.489.062.601 0 1.188-.023 1.757-.047.505-.02.995-.039 1.456-.039.354 0 .646.012.894.037l.273.027.266-.071a.411.411 0 0 1 .121-.014c.111 0 .26.021.43.046.193.027.389.055.586.067.127.008.252.012.375.012.308 0 .594-.022.847-.043.181-.015.358-.029.537-.032l.053.009c.14.025.28.047.442.055l-.006.104a4.769 4.769 0 0 1-.043.385c-.049.366-.106.805-.041 1.311-.08.485-.07.96-.062 1.39.005.189.011.383.005.578-.01.347-.041.716-.074 1.106-.027.339-.057.68-.073 1.021-.017.319-.017.659-.017 1.003 0 .433-.002.99-.057 1.351-.373.434-.63 1.141-.154 2.231l-.24.185-.131.5c-.14.537-.111 1.021-.062 1.413-.008.016-.014.032-.021.049-.129.308-.324.773-.328 1.421-.002.279.045.526.08.707.012.057.024.113.028.152.001.229-.017.449-.032.667-.029.408-.062.87-.018 1.39.029.334.082.633.134.922.05.281.097.546.108.791.021.387.059.617.088.802.01.065.021.132.029.209.027.226.043.44.059.64.046.62.094 1.258.422 1.828.061.211.115.453.17.688a13.386 13.386 0 0 0 .239.943l-.813.093c-.533.043-.89.221-1.137.434-.154-.01-.305-.021-.447-.032l-.781-.078 1.197-.51-4.514-.979c-.163-.037-.335.015-.525.015h-.058l-.645-.488-.654.484a2.601 2.601 0 0 0-.094.034l.011.035-.113.096c.039-.033.078-.062.115-.088l.452 1.564c-.162.009-.322.025-.47.025zm6.091 4.623l.537-.449c-.391.431-.4.985-.4 1.022.001.062.016.136.025.207l-.162-.78z"/><path fill="#F9A737" d="M37.938 28.116c-.002.27.108.565.108.85.001.663-.114 1.259-.056 1.927.053.59.213 1.147.246 1.763.025.456.07.604.107.911.109.893.055 1.623.363 2.009.204.625.324 1.409.514 1.957.03.086.016.27.026.304.478 1.393 1.257 2.245 1.599 3.884.178.145.434.239.653.519.099.123.163.406.265.496.373.334.85.041 1.131.664.094.035.119-.08.183-.109.745.018 1.374-.229 1.95-.076.343-.428.738-.335 1.061-.666.2-.206.391-.609.582-.873.219-.302.389-.621.611-.872.226.003.268-.383.455-.458.141-.469.332-.824.469-1.301.074-.046.12-.159.213-.17.383-1.001.857-2.012 1.005-3.383.015-.123.039-.387.037-.54-.007-1.019.071-2.584.372-3.115.023-.185-.05-.181-.025-.362.145-.117.414-.656.405-1.125-.003-.162-.194-.442-.229-.797-.051-.525.209-1.023.17-1.498-.018-.218-.19-.447-.229-.676-.104-.592-.03-1.793.03-2.289.048-.393.189-.539.16-.836-.025-.269-.182-.471-.413-.444-.509-.771-.115-2.753-.339-3.938.184-.871-.118-1.703-.086-2.537.008-.167.07-.367.067-.539-.003-.285-.101-.666-.137-1.032-.062-.628-.048-1.179-.127-1.694.019-.034.034-.127.049-.219l.034-.262a6.84 6.84 0 0 0 .036-.503 8.588 8.588 0 0 0-.028-.933c-.048-.596-.131-1.142-.124-1.748.005-.454.103-.938.101-1.454 0-.435-.086-.807-.08-1.281.007-.471.103-1.023.101-1.481-.001-.341-.06-.565-.054-.846.009-.37.08-.661.068-1.039-.016-.396-.13-.699-.143-1.091l-.008-.306c-1.406.024-2.832-.067-4.254.14-1.193-.094-2.396-.065-3.631-.039-.619.014-1.25.026-1.908.023-.33-.002-.668-.007-1.016-.019L37.96 3l-.162-.013-.306-.031c-.412.061-.715.104-1.146.044-.098.022-.097.095-.246.087-.861-.088-1.77.163-2.656.055a.297.297 0 0 1-.127.089c-1.225-.145-2.774-.164-3.737.01-.746-.15-1.614.021-2.534.026-.433.002-.858-.08-1.264-.047-.793.064-1.831-.015-2.594.025-.228.012-.448.098-.67.111-.403.025-.835-.062-1.265-.018-.828.085-1.717.099-2.581.09l-1.266-.021-1.281-.015c-.776 0-1.425.098-2.271.132-1.391.058-2.936-.103-4.355-.063-.354.01-.661-.162-.979-.149-.826.031-1.687-.253-2.585-.253h-.007c.014 2.5.18 4.736.039 6.725.05.678.083 1.531.104 2.307l.04 2.224.021 2.931c.164.406.023.806.044 1.223.064 1.289.25 2.945.123 4.295.145 2.838.186 5.74.231 8.632l.085 4.323.174 5.786c-.124.744-.045 1.795.04 2.334-.078.184-.073.587-.097.914.118.564.109 1.311.093 2.118.532.012 1.086.026 1.668.007.507-.192 1.221-.047 1.837-.194.151.106-.358.092-.017.15.561-.177 1.536-.225 2.553-.238 1.014-.016 2.079.002 2.741-.047-.092-.001-.105-.054.01-.06.307.088.48-.089.811-.083 1.584-.039 2.716-.389 4.067-.516.17.049.623.199.78.069-.244-.021-.555-.011-.534-.157.406.049.941-.018 1.213-.134.502-.014.759.063 1.208-.044.11.002-.106-.152.129-.148.703.078 1.058-.051 1.687.022.184-.138.924-.179 1.151-.104.206-.06-.227-.114-.052-.149.571-.044 1.103-.103 1.629-.009.13-.065.217-.153.432-.174.145-.011-.041.136.176.092.202-.078-.158-.139-.108-.241.286-.049.229-.122.373-.205.398.082.671-.086 1.032-.138.373-.051.787 0 1.147-.043.31-.038.441-.143.792-.141.284.002.521.109.84.102.166-.024-.113-.111.125-.118 1.106-.035 2.213-.071 3.029-.259-1.254.234-2.168-.016-3.268.195-.166-.136-.492.084-.657-.1-.074.078.18.132-.065.12-.082-.011-.113-.045-.24-.034.156-.16-.076-.16-.166-.271-.937.01-1.667.084-2.478.088-.149.037.104.091-.066.119-.309.025-.544.002-.907.047-.109-.118-.354-.178-.223-.332 1.091.011 2.574-.225 3.873-.25.394-.008.801.115 1.027-.075-.582.059-1.053-.151-1.559-.171-.655-.024-1.355.164-1.997.123-.181-.012-.255-.065-.418-.065-.128 0-.345.091-.487.084-.156-.006-.165-.069-.299-.063-.273.014-.484.113-.788.109-.509-.007-1.007-.119-1.564-.08-.102-.055-.057-.188.072-.209.66.006.772 0 1.447-.012-.075-.014-.121-.041-.115-.092.208.009.281.046.424-.024-.502.007-.456-.227-.284-.334 1.245.04 2.772-.065 3.797.021.113-.063.187-.148.371-.175 1.153-.075 2.445 0 3.683-.071-1.41-.179-2.884-.072-4.522 0-.062-.029-.013-.111-.176-.093-.698.084-1.513.062-2.055.093-.242-.13-.477-.263-.703-.399-1.719.109-2.975-.421-4.619-.422.008-.092-.121-.117-.171-.183.133-.074.221-.171.374-.235.27-.005.546-.054.783.012 1.387-.269 3.354-.078 5.078-.232.21-.149.045-.264-.1-.393-.831-.086-1.59.123-2.469-.062-.314-.354.016-.602.696-.621 1.126-.033 3.067.002 3.795.051 3.304-.21 6.58-.123 9.966-.287-1.882-.066-3.621.12-5.306-.011.006.065-.056.095-.187.087-1.657-.035-3.495-.031-4.948.085-.61-.217-1.786.037-2.402-.183.153-.342.66-.496 1.297-.583-.65.021-1.257-.093-1.803-.113-.447-.019-1.221.085-1.447.011-.055-.019.05-.088-.055-.092.183.006-.327.02-.364.025-.245.039-.199.063-.485.054-.37-.015-.363-.019-.597-.099-1.28-.055-2.522.052-3.798-.021l-.422-.005c-.121-.021-.018-.081-.177-.093-.09-.007-.05.065-.184.058-.497-.027-1.066-.059-1.564-.051-.312.005-.638.003-.967-.002l-.495-.01-.23-.006-.065-.006a3.196 3.196 0 0 0-.468-.026c-.052-.021.06-.125-.017-.123a13.002 13.002 0 0 0-.81-.13l.034-.385c.011-.039.143-.109.123-.138.022-.063-.123.045-.114-.012a.726.726 0 0 1 .154-.164c.056-.233.053-.417.03-.621l-.092-3.11c-.048-2.063-.045-4.135-.069-6.095-.02-1.546-.146-3.021-.062-4.404-.101-1.854-.094-3.456-.11-5.191-.012-1.251.058-2.628-.011-3.679-.012-.182-.081-.396-.082-.608 0-.08.006-.16.016-.239a.459.459 0 0 1 .035-.061c.025-.038.052-.074.052-.111.004-.196-.121-.659-.115-.884.007-.244.027-.392.038-.892h.001c.136 0 .182.112.32.105.092-.006.241.178.33.176.246-.006.485-.086.76-.059l.146.043.487.034.979.046c.655.02 1.313.019 1.967-.054a52.37 52.37 0 0 0 4.58.032c1.12.239 2.287-.006 3.556.049.134.006.223.053.357.066 1.918.178 4.049-.143 5.607.014.583-.156 1.083.017 1.625.052.586.039 1.128-.064 1.692-.067.185-.001.353.06.539.067l.135.003a.229.229 0 0 0 .051-.006c.033-.006.068-.018.104-.029.071-.024.15-.055.232-.064.122-.015.225.043.321.084.1.041.19.066.379-.014.06.057.122.119.209.146-.026.14-.022.24.047.291-.112.261-.104.403-.079.568.014.08.028.163.035.25a.842.842 0 0 1 .002.133l-.008.066-.016.266c-.035.557-.193 1.063-.053 1.625-.16.582-.066 1.276-.086 1.985-.02.701-.113 1.431-.148 2.162-.053 1.044.076 2.341-.252 3.122-.684.356.32 1.048.186 1.879-.139.441-.33.384-.578.572-.104.394-.04.764.016 1.146-.06.448-.369.772-.372 1.367zM26.17 44.645c-.013.035.011.054.058.061-.13.144-.413-.067-.058-.061zm.124-.06c.502-.012 1.206-.147 1.57-.039.098.001-.088-.17.071-.209.214.074.467.131.837.132.023.249-.709.102-.741.32-.282-.021-.421-.032-.547.082-.579-.083-.708.07-1.146-.016.118-.142-.077-.108-.044-.27z"/></svg>