<?xml version="1.0" encoding="utf-8"?>
<!-- Generator: Adobe Illustrator 15.0.0, SVG Export Plug-In . SVG Version: 6.00 Build 0)  -->
<!DOCTYPE svg PUBLIC "-//W3C//DTD SVG 1.1//EN" "http://www.w3.org/Graphics/SVG/1.1/DTD/svg11.dtd">
<svg version="1.1" id="Layer_1" xmlns="http://www.w3.org/2000/svg" xmlns:xlink="http://www.w3.org/1999/xlink" x="0px" y="0px"
	 width="58px" height="54px" viewBox="0 0 58 54" enable-background="new 0 0 58 54" xml:space="preserve">
<g id="Pressed_states">
	<g id="buttons_pressed">
	</g>
	<g id="buttons_pressed_on">
	</g>
	<g id="buttons_pressed_copy">
	</g>
	<g id="DrawingToolsButtonsTaped">
	</g>
	<g id="DrawingsShapesStrokesTaped">
		<g>
			<g opacity="0.25">
				<g>
					<path fill="#333333" d="M54.525,32.52c-0.018-0.043-0.041-0.09-0.049-0.109c-0.002-0.057,0.035-0.229,0.06-0.342
						c0.065-0.308,0.149-0.689,0.112-1.142c-0.03-0.37-0.158-0.655-0.244-0.845l-0.014-0.034c-0.043-0.384-0.012-1.274,0.051-1.78
						c0.004-0.031,0.011-0.055,0.037-0.14c0.064-0.207,0.174-0.553,0.129-1.025c-0.056-0.552-0.301-1.023-0.666-1.346
						c-0.026-0.333-0.018-0.827-0.012-1.158c0.01-0.576,0.021-1.168-0.049-1.721c0.086-0.644,0.014-1.229-0.046-1.711
						c-0.036-0.287-0.069-0.559-0.063-0.736l0.015-0.082c0.024-0.144,0.06-0.34,0.058-0.57c-0.003-0.281-0.047-0.544-0.09-0.798
						c-0.02-0.12-0.042-0.246-0.054-0.368c-0.024-0.245-0.035-0.478-0.046-0.699c-0.014-0.253-0.025-0.511-0.055-0.775
						c0.006-0.031,0.01-0.062,0.016-0.093l0.039-0.292c0.022-0.214,0.037-0.421,0.043-0.625c0.012-0.337,0-0.686-0.031-1.097
						c-0.016-0.188-0.033-0.372-0.053-0.555c-0.037-0.385-0.07-0.716-0.066-1.059c0.002-0.169,0.021-0.344,0.04-0.523
						c0.029-0.28,0.062-0.599,0.062-0.948c0-0.28-0.024-0.525-0.047-0.741c-0.021-0.189-0.037-0.354-0.033-0.519
						c0.002-0.187,0.022-0.389,0.043-0.591c0.027-0.297,0.059-0.604,0.057-0.915c0-0.227-0.02-0.416-0.037-0.594
						c-0.007-0.071-0.018-0.139-0.018-0.215c0.004-0.115,0.017-0.221,0.027-0.325c0.022-0.213,0.051-0.479,0.041-0.8
						c-0.012-0.309-0.059-0.562-0.096-0.765c-0.023-0.134-0.044-0.239-0.046-0.312l-0.045-1.794L52.007,4.4
						c-0.188,0.004-0.375,0.003-0.563,0.003l-1.196-0.009c-0.791,0-1.64,0.01-2.517,0.125c-0.555-0.039-1.145-0.072-1.84-0.072
						c-0.562,0-1.125-0.02-1.697-0.007l-0.08-0.059c-0.547,0.013-1.104-0.098-1.682-0.098h-0.187c-0.315,0-0.64,0.114-0.97,0.104
						L41.04,4.502l-0.086-0.007l-0.492-0.051l-0.187,0.027c-0.248,0.036-0.396,0.057-0.529,0.057c-0.061,0-0.125-0.004-0.195-0.014
						l-0.271-0.038l-0.268,0.062c-0.043,0.01-0.084,0.021-0.123,0.033c-0.062-0.002-0.127-0.003-0.191-0.003
						c-0.352,0-0.682,0.028-1.002,0.056c-0.271,0.023-0.528,0.046-0.762,0.046c-0.104,0-0.205-0.005-0.309-0.017L35.84,4.558
						l-0.099,0.111c-0.472-0.034-0.957-0.053-1.421-0.053c-0.473,0-1.131,0.02-1.74,0.105c-0.221-0.028-0.456-0.043-0.712-0.043
						c-0.334,0-0.662,0.023-0.979,0.046c-0.277,0.02-0.562,0.041-0.859,0.042c-0.141,0-0.278-0.013-0.416-0.023
						c-0.212-0.017-0.422-0.031-0.628-0.031c-0.108,0-0.217,0.004-0.326,0.013c-0.214,0.018-0.448,0.021-0.689,0.021
						c-0.202,0-0.408-0.003-0.611-0.006c-0.215-0.004-0.428-0.007-0.632-0.007c-0.217,0-0.424,0.004-0.619,0.014
						c-0.239,0.013-0.439,0.058-0.587,0.09c-0.039,0.009-0.078,0.019-0.098,0.022l-0.067,0.002c-0.103,0-0.208-0.008-0.313-0.015
						c-0.172-0.011-0.345-0.021-0.52-0.021c-0.141,0-0.281,0.006-0.422,0.021c-0.56,0.058-1.197,0.084-2.007,0.084l-0.396-0.002
						l-1.273-0.021l-1.299-0.015c-0.509,0-0.963,0.036-1.401,0.071c-0.292,0.023-0.595,0.048-0.931,0.063
						c-0.195,0.008-0.395,0.011-0.595,0.011c-0.506,0-1.026-0.021-1.548-0.04c-0.563-0.021-1.126-0.043-1.676-0.043
						c-0.174,0-0.346,0.003-0.56,0.008c-0.107,0-0.209-0.009-0.309-0.017c-0.167-0.012-0.33-0.022-0.494-0.022
						c-0.051,0-0.253,0.006-0.304,0.006c-0.306,0-0.646-0.031-1.005-0.063c-0.434-0.039-0.881-0.08-1.375-0.08H7.42l0.008,1.509
						C7.433,7.18,7.457,8.019,7.48,8.822c0.041,1.476,0.077,2.75-0.009,3.969l-0.008,0.107l0.008,0.107
						c0.043,0.58,0.077,1.314,0.102,2.168l0.039,2.178l0.022,3.204l0.079,0.194c-0.001,0.055-0.009,0.109-0.014,0.165
						c-0.016,0.172-0.034,0.386-0.021,0.634c0.017,0.327,0.04,0.678,0.065,1.04c0.068,1.004,0.146,2.142,0.063,3.036l-0.01,0.108
						l0.005,0.108c0.138,2.688,0.181,5.489,0.224,8.198l0.092,4.726l0.17,5.649c-0.108,0.805-0.053,1.741,0.02,2.347
						C8.27,46.98,8.259,47.2,8.25,47.415c-0.004,0.077-0.008,0.153-0.013,0.226l-0.016,0.211l0.043,0.205
						c0.089,0.426,0.074,1.174,0.063,1.778l-0.03,1.492l1.64,0.022c0.312,0.006,0.63-0.01,0.957-0.01c0.213,0,0.43-0.056,0.65-0.056
						h0.228l0.235-0.045c0.076-0.019,0.31,0.021,0.464,0.02c0.104-0.001,0.218-0.004,0.336-0.009
						c0.078,0.023,0.162,0.044,0.252,0.061l0.359,0.062l0.348-0.108c0.305-0.097,1.019-0.154,2.124-0.17
						c0.324-0.005,0.655-0.007,0.975-0.008c0.697-0.004,1.355-0.007,1.854-0.043l-0.001-0.032c0.024,0.001,0.049,0.001,0.073,0.001
						c0.3,0,0.535-0.063,0.676-0.103l0.021-0.007c1.049-0.026,1.927-0.178,2.701-0.311c0.229-0.039,0.45-0.074,0.671-0.109
						l-0.022,0.051l1.228,0.656c0.33,0.176,0.694,0.213,0.941,0.213c1,0,1.582-0.678,1.671-1.373
						c0.031-0.012,0.064-0.016,0.096-0.027c0.056,0,0.104-0.004,0.156-0.006l0.412,1.43c0.048-0.004,0.102-0.004,0.154-0.005
						c0.365-0.005,0.916-0.014,1.398-0.394l1.618-1.27l0.424,0.102l0.274-0.074h0.039c0.118,0,0.237-0.071,0.364-0.098l0.125-0.084
						l0.119-0.037c0.235-0.092,0.44-0.217,0.604-0.392c0.076-0.018,0.143-0.006,0.201-0.021c0.051-0.014,0.102,0.029,0.156,0.021
						c0.08-0.011,0.223,0.109,0.283,0.109h0.223c0.181,0,0.396-0.124,0.615-0.15c0.235-0.028,0.414-0.198,0.533-0.229
						c0.024-0.008,0.051-0.016,0.049-0.021c0.043,0.005,0.082,0.015,0.123,0.022c0.174,0.033,0.41,0.08,0.709,0.08l0.166-0.004
						l0.088-0.014c0.146-0.021,0.287-0.062,0.418-0.117c1.01-0.035,2.021-0.091,2.855-0.281l-0.104-0.502l0.856,0.014
						c0.154,0.039,0.328,0.061,0.522,0.061c0.139,0,0.365-0.002,0.617-0.061c0.188-0.02,0.398-0.027,0.662-0.027
						c0.203,0,0.405,0.004,0.608,0.01c0.226,0.004,0.449,0.01,0.672,0.01c0.416,0,0.763-0.018,1.084-0.057l0.496,0.203l0.433-0.251
						c0.112,0.003,0.234,0.011,0.355,0.017c0.191,0.012,0.383,0.021,0.555,0.021c0.217,0,0.396-0.015,0.566-0.046l1.52-0.278
						c0.225,0.059,0.865,0.229,0.865,0.229l0.362-0.455l2.14-0.395l-0.986-0.422c0.02-0.019,0.039-0.031,0.058-0.05
						c0.241-0.249,0.413-0.534,0.563-0.786c0.051-0.088,0.102-0.177,0.154-0.25c0.102-0.139,0.194-0.281,0.285-0.421
						c0.037-0.058,0.072-0.112,0.107-0.164c0.129-0.097,0.256-0.221,0.379-0.377l0.312-0.124l0.208-0.697
						c0.054-0.182,0.119-0.34,0.183-0.498c0.002-0.002,0.002-0.004,0.002-0.004l0.137-0.02l0.322-0.843
						c0.059-0.15,0.117-0.302,0.179-0.454c0.362-0.911,0.771-1.944,0.919-3.309c0.031-0.299,0.047-0.537,0.045-0.707
						c-0.009-1.246,0.109-2.152,0.195-2.4l0.125-0.219l0.037-0.289c0.009-0.055,0.014-0.109,0.017-0.16
						c0.239-0.473,0.388-1.04,0.378-1.549C54.707,32.977,54.598,32.701,54.525,32.52z M42.302,44.736l-0.14,0.037l-0.042-0.241
						l0.104-0.079C42.254,44.541,42.277,44.643,42.302,44.736z M30.551,46.079c-0.041,0.042-0.08,0.087-0.115,0.134l-0.109-0.453
						c0.24-0.004,0.484-0.011,0.727-0.021c-0.007,0.003-0.014,0.006-0.021,0.009c-0.146,0.004-0.316,0.014-0.517,0.038
						L30.551,46.079z M32.27,41.45c-0.088,0-0.179,0.001-0.269,0.002l-0.058-0.672l-0.109,0.002c-0.27,0-0.548-0.027-0.842-0.058
						c-0.258-0.024-0.508-0.05-0.744-0.059c-0.041-0.002-0.083-0.003-0.127-0.003l-0.003-0.034l-1.128-0.036l-0.105-0.036
						l-0.314,0.039l-0.141,0.008c-0.164,0.006-0.313,0.021-0.348,0.025c-0.078,0.014-0.137,0.023-0.189,0.035
						c-0.052-0.002-0.094-0.004-0.127-0.005l-0.248-0.084l-0.214-0.011c-0.306-0.014-0.608-0.019-0.91-0.019
						c-0.327,0-0.653,0.003-0.979,0.009c-0.309,0.006-0.616,0.006-0.925,0.006c-0.319,0-0.64-0.017-0.962-0.035l-0.12-0.022
						c-0.143-0.05-0.296-0.122-0.458-0.134l-0.063-0.085h-0.053c-0.109,0-0.238,0.092-0.377,0.125
						c-0.396-0.021-0.804,0.043-1.195,0.043c0,0-0.144,0.001-0.288,0.002l0.104-0.729l-1.321,0.049l-0.076-2.588
						c-0.029-1.31-0.039-2.621-0.049-3.904c-0.005-0.735-0.011-1.463-0.02-2.174c-0.007-0.547-0.027-1.086-0.047-1.614
						c-0.035-0.95-0.069-1.849-0.018-2.678l0.004-0.087l-0.006-0.087c-0.081-1.497-0.094-2.823-0.104-4.227l-0.013-0.897
						c-0.004-0.452-0.009-0.922-0.002-1.386c0.012-0.814,0.001-1.657-0.046-2.378c-0.009-0.131-0.077-0.272-0.104-0.419
						c0.045-0.134-0.01-0.294-0.01-0.477c0,0,0-0.012,0-0.019l0.494,0.023l1.094,0.043c0.229,0.007,0.457,0.011,0.687,0.011
						c0.497,0,0.944-0.02,1.361-0.062c0.789,0.041,1.687,0.063,2.606,0.063c0.626,0,1.251-0.01,1.818-0.029
						c0.389,0.068,0.802,0.102,1.28,0.102c0.34,0,0.685-0.017,1.035-0.035c0.313-0.016,0.633-0.032,0.959-0.032
						c0.084,0,0.17,0.002,0.256,0.004c0.109,0.027,0.225,0.05,0.361,0.063c0.45,0.042,0.938,0.062,1.489,0.062
						c0.601,0,1.188-0.023,1.757-0.047c0.505-0.02,0.995-0.039,1.456-0.039c0.354,0,0.646,0.012,0.894,0.037l0.273,0.027
						l0.266-0.071c0.023-0.007,0.059-0.014,0.121-0.014c0.111,0,0.26,0.021,0.43,0.046c0.193,0.027,0.389,0.055,0.586,0.067
						c0.127,0.008,0.252,0.012,0.375,0.012c0.308,0,0.594-0.022,0.847-0.043c0.181-0.015,0.358-0.029,0.537-0.032l0.053,0.009
						c0.14,0.025,0.28,0.047,0.442,0.055l-0.006,0.104c-0.008,0.131-0.025,0.259-0.043,0.385c-0.049,0.366-0.106,0.805-0.041,1.311
						c-0.08,0.485-0.07,0.96-0.062,1.39c0.005,0.189,0.011,0.383,0.005,0.578c-0.01,0.347-0.041,0.716-0.074,1.106
						c-0.027,0.339-0.057,0.68-0.073,1.021c-0.017,0.319-0.017,0.659-0.017,1.003c0,0.433-0.002,0.99-0.057,1.351
						c-0.373,0.434-0.63,1.141-0.154,2.231l-0.24,0.186l-0.131,0.5c-0.14,0.536-0.111,1.021-0.062,1.412
						c-0.008,0.016-0.014,0.032-0.021,0.049c-0.129,0.309-0.324,0.773-0.328,1.422c-0.002,0.279,0.045,0.526,0.08,0.707
						c0.012,0.057,0.024,0.113,0.028,0.152c0.001,0.229-0.017,0.449-0.032,0.667c-0.029,0.408-0.062,0.87-0.018,1.39
						c0.029,0.334,0.082,0.633,0.134,0.922c0.05,0.281,0.097,0.546,0.108,0.791c0.021,0.387,0.059,0.617,0.088,0.802
						c0.01,0.065,0.021,0.132,0.029,0.209c0.027,0.226,0.043,0.44,0.059,0.64c0.046,0.62,0.094,1.258,0.422,1.828
						c0.061,0.211,0.115,0.453,0.17,0.688c0.071,0.311,0.145,0.628,0.238,0.932c0,0,0.001,0.008,0.001,0.012l-0.813,0.092
						c-0.533,0.043-0.89,0.221-1.137,0.434c-0.154-0.01-0.305-0.021-0.447-0.032l-0.781-0.078l1.197-0.51l-4.514-0.979
						c-0.163-0.037-0.335,0.015-0.525,0.015c-0.02,0-0.039,0-0.058,0L33.023,39.3l-0.654,0.484
						c-0.032,0.011-0.062,0.022-0.094,0.034l0.011,0.035l-0.113,0.096c0.039-0.033,0.078-0.062,0.115-0.088l0.452,1.564
						C32.578,41.434,32.418,41.45,32.27,41.45z M38.361,46.073l0.537-0.449c-0.391,0.431-0.4,0.985-0.4,1.022
						c0.001,0.062,0.016,0.136,0.025,0.207L38.361,46.073z"/>
				</g>
			</g>
			<g>
				<path fill="#FFFFFF" d="M51.525,29.52c-0.018-0.043-0.041-0.09-0.049-0.109c-0.002-0.057,0.035-0.229,0.06-0.342
					c0.065-0.308,0.149-0.689,0.112-1.142c-0.03-0.37-0.158-0.656-0.244-0.845l-0.014-0.034c-0.043-0.384-0.012-1.274,0.051-1.78
					c0.004-0.032,0.011-0.055,0.037-0.14c0.064-0.207,0.174-0.553,0.129-1.025c-0.056-0.552-0.301-1.023-0.666-1.346
					c-0.026-0.333-0.018-0.827-0.012-1.158c0.01-0.576,0.021-1.168-0.049-1.721c0.086-0.644,0.014-1.229-0.046-1.711
					c-0.036-0.287-0.069-0.559-0.063-0.736l0.015-0.082c0.024-0.144,0.06-0.34,0.058-0.57c-0.003-0.281-0.047-0.544-0.09-0.798
					c-0.02-0.12-0.042-0.246-0.054-0.368c-0.024-0.245-0.035-0.478-0.046-0.699c-0.014-0.253-0.025-0.511-0.055-0.775
					c0.006-0.031,0.01-0.062,0.016-0.093l0.039-0.292c0.022-0.214,0.037-0.421,0.043-0.625c0.012-0.337,0-0.686-0.031-1.097
					c-0.016-0.188-0.033-0.372-0.053-0.555c-0.037-0.385-0.07-0.716-0.066-1.059c0.002-0.169,0.021-0.344,0.04-0.523
					c0.029-0.28,0.062-0.599,0.062-0.948c0-0.28-0.024-0.525-0.047-0.741c-0.021-0.189-0.037-0.354-0.033-0.519
					c0-0.187,0.021-0.389,0.041-0.591c0.029-0.297,0.06-0.604,0.058-0.915c0-0.227-0.019-0.416-0.037-0.594
					c-0.007-0.071-0.019-0.139-0.017-0.215c0.003-0.115,0.016-0.221,0.027-0.325c0.021-0.213,0.051-0.479,0.039-0.8
					c-0.011-0.309-0.058-0.562-0.095-0.765c-0.024-0.134-0.044-0.239-0.046-0.312l-0.045-1.794L49.006,1.4
					c-0.188,0.004-0.375,0.003-0.562,0.003l-1.197-0.009c-0.791,0-1.641,0.01-2.518,0.125c-0.554-0.039-1.144-0.072-1.838-0.072
					c-0.562,0-1.127-0.02-1.699-0.007l-0.078-0.059c-0.549,0.013-1.104-0.098-1.682-0.098h-0.188c-0.316,0-0.641,0.114-0.969,0.104
					L38.04,1.502l-0.086-0.007l-0.492-0.051l-0.187,0.027c-0.248,0.036-0.396,0.057-0.529,0.057c-0.061,0-0.125-0.004-0.195-0.014
					l-0.271-0.038l-0.268,0.062c-0.043,0.01-0.084,0.021-0.123,0.033c-0.062-0.002-0.127-0.003-0.191-0.003
					c-0.352,0-0.682,0.028-1.002,0.056c-0.271,0.023-0.528,0.046-0.762,0.046c-0.104,0-0.205-0.005-0.309-0.017L32.84,1.558
					l-0.099,0.111c-0.472-0.034-0.957-0.053-1.421-0.053c-0.473,0-1.131,0.02-1.74,0.105c-0.221-0.028-0.456-0.043-0.712-0.043
					c-0.334,0-0.662,0.023-0.98,0.046c-0.276,0.02-0.561,0.041-0.858,0.042c-0.141,0-0.279-0.013-0.417-0.023
					c-0.212-0.017-0.422-0.031-0.628-0.031c-0.108,0-0.217,0.004-0.326,0.013c-0.214,0.018-0.448,0.021-0.689,0.021
					c-0.202,0-0.408-0.003-0.611-0.006c-0.215-0.004-0.428-0.007-0.632-0.007c-0.217,0-0.424,0.004-0.619,0.014
					c-0.239,0.013-0.439,0.058-0.587,0.09c-0.039,0.009-0.078,0.019-0.098,0.022l-0.067,0.002c-0.103,0-0.208-0.008-0.313-0.015
					c-0.172-0.011-0.345-0.021-0.52-0.021c-0.141,0-0.281,0.006-0.422,0.021c-0.56,0.058-1.197,0.084-2.007,0.084l-0.396-0.002
					l-1.273-0.021l-1.299-0.015c-0.509,0-0.963,0.036-1.401,0.071c-0.292,0.023-0.595,0.048-0.931,0.063
					c-0.195,0.008-0.395,0.011-0.595,0.011c-0.506,0-1.026-0.021-1.548-0.04c-0.563-0.021-1.126-0.043-1.676-0.043
					c-0.174,0-0.346,0.003-0.56,0.008c-0.107,0-0.209-0.009-0.309-0.017c-0.167-0.012-0.33-0.022-0.494-0.022
					c-0.051,0-0.253,0.006-0.304,0.006c-0.306,0-0.646-0.031-1.005-0.063c-0.434-0.039-0.881-0.08-1.375-0.08H4.42l0.008,1.509
					C4.433,4.18,4.457,5.019,4.48,5.822c0.041,1.476,0.077,2.75-0.009,3.969L4.463,9.898l0.008,0.107
					c0.043,0.58,0.077,1.314,0.102,2.168l0.039,2.178l0.022,3.204l0.079,0.194c-0.001,0.055-0.009,0.109-0.014,0.165
					c-0.016,0.172-0.034,0.386-0.021,0.634c0.017,0.327,0.04,0.678,0.065,1.04c0.068,1.004,0.146,2.142,0.063,3.036l-0.01,0.108
					l0.005,0.108c0.138,2.688,0.181,5.489,0.224,8.198l0.092,4.726l0.17,5.649c-0.108,0.805-0.053,1.741,0.02,2.347
					C5.27,43.98,5.259,44.2,5.25,44.415c-0.004,0.077-0.008,0.153-0.013,0.226l-0.016,0.211l0.043,0.205
					c0.089,0.426,0.074,1.174,0.063,1.778l-0.03,1.492l1.64,0.022c0.312,0.006,0.63-0.01,0.957-0.01c0.213,0,0.43-0.056,0.65-0.056
					h0.228l0.235-0.045c0.076-0.019,0.31,0.021,0.464,0.02c0.104-0.001,0.218-0.004,0.336-0.009
					c0.078,0.023,0.162,0.044,0.252,0.061l0.359,0.062l0.348-0.108c0.305-0.097,1.019-0.154,2.124-0.17
					c0.324-0.005,0.655-0.007,0.975-0.008c0.697-0.004,1.355-0.007,1.854-0.043l-0.001-0.032c0.024,0.001,0.049,0.001,0.073,0.001
					c0.3,0,0.535-0.063,0.676-0.103l0.021-0.007c1.049-0.026,1.927-0.178,2.701-0.311c0.229-0.039,0.45-0.074,0.671-0.109
					l-0.022,0.051l1.228,0.656c0.33,0.176,0.694,0.213,0.941,0.213c1,0,1.582-0.678,1.671-1.373
					c0.031-0.012,0.064-0.016,0.096-0.027c0.056,0,0.104-0.004,0.156-0.006l0.412,1.43c0.048-0.004,0.102-0.004,0.154-0.005
					c0.365-0.005,0.916-0.014,1.398-0.394l1.618-1.27l0.423,0.102l0.275-0.074h0.039c0.118,0,0.237-0.071,0.364-0.098l0.125-0.084
					l0.119-0.037c0.236-0.092,0.441-0.217,0.604-0.392c0.076-0.018,0.143-0.006,0.201-0.021c0.051-0.014,0.102,0.029,0.156,0.021
					c0.08-0.011,0.223,0.109,0.283,0.109h0.223c0.181,0,0.396-0.124,0.615-0.15c0.235-0.028,0.414-0.198,0.533-0.229
					c0.024-0.008,0.051-0.016,0.049-0.021c0.043,0.005,0.082,0.015,0.123,0.022c0.174,0.033,0.41,0.08,0.709,0.08l0.166-0.004
					l0.088-0.014c0.146-0.021,0.287-0.062,0.418-0.117c1.01-0.035,2.021-0.091,2.855-0.281l-0.104-0.502l0.856,0.014
					c0.154,0.039,0.328,0.061,0.522,0.061c0.139,0,0.365-0.002,0.617-0.061c0.188-0.02,0.398-0.027,0.662-0.027
					c0.203,0,0.405,0.004,0.608,0.01c0.226,0.004,0.449,0.01,0.672,0.01c0.416,0,0.763-0.018,1.084-0.057l0.496,0.203l0.433-0.251
					c0.112,0.003,0.234,0.011,0.355,0.017c0.191,0.012,0.383,0.021,0.555,0.021c0.217,0,0.396-0.015,0.566-0.046l1.52-0.278
					c0.225,0.059,0.865,0.229,0.865,0.229l0.362-0.455l2.14-0.395l-0.986-0.422c0.02-0.019,0.039-0.031,0.058-0.05
					c0.241-0.249,0.413-0.534,0.563-0.786c0.051-0.088,0.102-0.177,0.154-0.25c0.102-0.139,0.194-0.281,0.285-0.421
					c0.037-0.058,0.072-0.112,0.107-0.164c0.129-0.097,0.256-0.221,0.379-0.377l0.312-0.124l0.208-0.697
					c0.054-0.182,0.119-0.34,0.183-0.498c0.002-0.002,0.002-0.004,0.002-0.004l0.137-0.02l0.322-0.843
					c0.059-0.15,0.117-0.302,0.179-0.454c0.362-0.911,0.771-1.944,0.919-3.309c0.031-0.299,0.047-0.537,0.045-0.707
					c-0.009-1.246,0.109-2.152,0.195-2.4l0.125-0.219l0.037-0.289c0.009-0.055,0.014-0.109,0.017-0.16
					c0.239-0.473,0.388-1.04,0.378-1.549C51.707,29.977,51.598,29.701,51.525,29.52z M39.302,41.736l-0.14,0.037l-0.042-0.241
					l0.104-0.079C39.254,41.541,39.277,41.643,39.302,41.736z M27.551,43.079c-0.041,0.042-0.08,0.087-0.116,0.134l-0.109-0.453
					c0.241-0.004,0.484-0.011,0.727-0.021c-0.007,0.003-0.014,0.006-0.021,0.009c-0.146,0.004-0.316,0.014-0.516,0.038
					L27.551,43.079z M29.27,38.45c-0.089,0-0.179,0.001-0.269,0.002l-0.057-0.672l-0.11,0.002c-0.27,0-0.548-0.027-0.842-0.058
					c-0.258-0.024-0.507-0.05-0.744-0.059c-0.041-0.002-0.083-0.003-0.127-0.003l-0.003-0.034l-1.128-0.036l-0.105-0.036
					l-0.314,0.039l-0.141,0.008c-0.164,0.006-0.313,0.021-0.348,0.025c-0.078,0.014-0.137,0.023-0.189,0.035
					c-0.052-0.002-0.094-0.004-0.127-0.005l-0.248-0.084l-0.214-0.011c-0.306-0.014-0.608-0.019-0.91-0.019
					c-0.327,0-0.653,0.003-0.979,0.009c-0.309,0.006-0.616,0.006-0.925,0.006c-0.319,0-0.64-0.017-0.962-0.035l-0.12-0.022
					c-0.143-0.05-0.296-0.122-0.458-0.134l-0.063-0.085h-0.053c-0.109,0-0.238,0.092-0.377,0.125
					c-0.396-0.021-0.804,0.043-1.195,0.043c0,0-0.144,0.001-0.288,0.002l0.104-0.729l-1.321,0.049l-0.076-2.588
					c-0.029-1.31-0.039-2.621-0.049-3.904c-0.005-0.735-0.011-1.463-0.02-2.174c-0.007-0.547-0.027-1.085-0.047-1.614
					c-0.035-0.95-0.069-1.848-0.018-2.678l0.004-0.087l-0.006-0.087c-0.081-1.497-0.094-2.823-0.104-4.227l-0.013-0.897
					c-0.004-0.452-0.009-0.922-0.002-1.386c0.012-0.814,0.001-1.657-0.046-2.378c-0.009-0.131-0.077-0.272-0.104-0.419
					c0.045-0.134-0.01-0.294-0.01-0.477c0,0,0-0.012,0-0.019l0.494,0.023l1.094,0.043c0.229,0.007,0.457,0.011,0.687,0.011
					c0.497,0,0.944-0.02,1.361-0.062c0.789,0.041,1.687,0.063,2.606,0.063c0.626,0,1.251-0.01,1.818-0.029
					c0.389,0.068,0.802,0.102,1.28,0.102c0.34,0,0.685-0.017,1.035-0.035c0.313-0.016,0.633-0.032,0.959-0.032
					c0.084,0,0.169,0.002,0.256,0.004c0.109,0.027,0.224,0.05,0.361,0.063c0.45,0.042,0.937,0.062,1.489,0.062
					c0.601,0,1.188-0.023,1.757-0.047c0.505-0.02,0.995-0.039,1.456-0.039c0.354,0,0.646,0.012,0.894,0.037l0.273,0.027l0.266-0.071
					c0.023-0.007,0.059-0.014,0.121-0.014c0.111,0,0.26,0.021,0.43,0.046c0.193,0.027,0.389,0.055,0.586,0.067
					c0.127,0.008,0.252,0.012,0.375,0.012c0.308,0,0.594-0.022,0.847-0.043c0.181-0.015,0.358-0.029,0.537-0.032l0.053,0.009
					c0.14,0.025,0.28,0.047,0.442,0.055l-0.006,0.104c-0.008,0.131-0.025,0.259-0.043,0.385c-0.049,0.366-0.106,0.805-0.041,1.311
					c-0.08,0.485-0.07,0.96-0.062,1.39c0.005,0.189,0.011,0.383,0.005,0.578c-0.01,0.347-0.041,0.716-0.074,1.106
					c-0.027,0.339-0.057,0.68-0.073,1.021c-0.017,0.319-0.017,0.659-0.017,1.003c0,0.433-0.002,0.99-0.057,1.351
					c-0.373,0.434-0.63,1.141-0.154,2.231l-0.24,0.185l-0.131,0.5c-0.14,0.537-0.111,1.021-0.062,1.413
					c-0.008,0.016-0.014,0.032-0.021,0.049c-0.129,0.308-0.324,0.773-0.328,1.421c-0.002,0.279,0.045,0.526,0.08,0.707
					c0.012,0.057,0.024,0.113,0.028,0.152c0.001,0.229-0.017,0.449-0.032,0.667c-0.029,0.408-0.062,0.87-0.018,1.39
					c0.029,0.334,0.082,0.633,0.134,0.922c0.05,0.281,0.097,0.546,0.108,0.791c0.021,0.387,0.059,0.617,0.088,0.802
					c0.01,0.065,0.021,0.132,0.029,0.209c0.027,0.226,0.043,0.44,0.059,0.64c0.046,0.62,0.094,1.258,0.422,1.828
					c0.061,0.211,0.115,0.453,0.17,0.688c0.071,0.311,0.145,0.628,0.238,0.932c0,0,0.001,0.008,0.001,0.011l-0.813,0.093
					c-0.533,0.043-0.89,0.221-1.137,0.434c-0.154-0.01-0.305-0.021-0.447-0.032l-0.781-0.078l1.197-0.51l-4.514-0.979
					c-0.163-0.037-0.335,0.015-0.525,0.015c-0.02,0-0.039,0-0.058,0L30.023,36.3l-0.654,0.484c-0.032,0.011-0.063,0.022-0.094,0.034
					l0.011,0.035l-0.113,0.096c0.039-0.033,0.078-0.062,0.115-0.088l0.452,1.564C29.578,38.434,29.418,38.45,29.27,38.45z
					 M35.361,43.073l0.537-0.449c-0.391,0.431-0.4,0.985-0.4,1.022c0.001,0.062,0.016,0.136,0.025,0.207L35.361,43.073z"/>
			</g>
			<path fill="#F9A737" d="M37.938,28.116c-0.002,0.27,0.108,0.565,0.108,0.85c0.001,0.663-0.114,1.259-0.056,1.927
				c0.053,0.59,0.213,1.147,0.246,1.763c0.025,0.456,0.07,0.604,0.107,0.911c0.109,0.893,0.055,1.623,0.363,2.009
				c0.204,0.625,0.324,1.409,0.514,1.957c0.03,0.086,0.016,0.27,0.026,0.304c0.478,1.393,1.257,2.245,1.599,3.884
				c0.178,0.145,0.434,0.239,0.653,0.519c0.099,0.123,0.163,0.406,0.265,0.496c0.373,0.334,0.85,0.041,1.131,0.664
				c0.094,0.035,0.119-0.08,0.183-0.109c0.745,0.018,1.374-0.229,1.95-0.076c0.343-0.428,0.738-0.335,1.061-0.666
				c0.2-0.206,0.391-0.609,0.582-0.873c0.219-0.302,0.389-0.621,0.611-0.872c0.226,0.003,0.268-0.383,0.455-0.458
				c0.141-0.469,0.332-0.824,0.469-1.301c0.074-0.046,0.12-0.159,0.213-0.17c0.383-1.001,0.857-2.012,1.005-3.383
				c0.015-0.123,0.039-0.387,0.037-0.54c-0.007-1.019,0.071-2.584,0.372-3.115c0.023-0.185-0.05-0.181-0.025-0.362
				c0.145-0.117,0.414-0.656,0.405-1.125c-0.003-0.162-0.194-0.442-0.229-0.797c-0.051-0.525,0.209-1.023,0.17-1.498
				c-0.018-0.218-0.19-0.447-0.229-0.676c-0.104-0.592-0.03-1.793,0.03-2.289c0.048-0.393,0.189-0.539,0.16-0.836
				c-0.025-0.269-0.182-0.471-0.413-0.444c-0.509-0.771-0.115-2.753-0.339-3.938c0.184-0.871-0.118-1.703-0.086-2.537
				c0.008-0.167,0.07-0.367,0.067-0.539c-0.003-0.285-0.101-0.666-0.137-1.032c-0.062-0.628-0.048-1.179-0.127-1.694
				c0.019-0.034,0.034-0.127,0.049-0.219l0.034-0.262c0.02-0.172,0.029-0.339,0.036-0.503c0.01-0.326-0.005-0.635-0.028-0.933
				c-0.048-0.596-0.131-1.142-0.124-1.748c0.005-0.454,0.103-0.938,0.101-1.454c0-0.435-0.086-0.807-0.08-1.281
				c0.007-0.471,0.103-1.023,0.101-1.481c-0.001-0.341-0.06-0.565-0.054-0.846c0.009-0.37,0.08-0.661,0.068-1.039
				c-0.016-0.396-0.13-0.699-0.143-1.091l-0.008-0.306c-1.406,0.024-2.832-0.067-4.254,0.14c-1.193-0.094-2.396-0.065-3.631-0.039
				c-0.619,0.014-1.25,0.026-1.908,0.023c-0.33-0.002-0.668-0.007-1.016-0.019L37.96,3l-0.162-0.013l-0.306-0.031
				C37.08,3.017,36.777,3.06,36.346,3c-0.098,0.022-0.097,0.095-0.246,0.087c-0.861-0.088-1.77,0.163-2.656,0.055
				c-0.031,0.035-0.067,0.067-0.127,0.089c-1.225-0.145-2.774-0.164-3.737,0.01c-0.746-0.15-1.614,0.021-2.534,0.026
				c-0.433,0.002-0.858-0.08-1.264-0.047c-0.793,0.064-1.831-0.015-2.594,0.025c-0.228,0.012-0.448,0.098-0.67,0.111
				c-0.403,0.025-0.835-0.062-1.265-0.018c-0.828,0.085-1.717,0.099-2.581,0.09l-1.266-0.021l-1.281-0.015
				c-0.776,0-1.425,0.098-2.271,0.132c-1.391,0.058-2.936-0.103-4.355-0.063c-0.354,0.01-0.661-0.162-0.979-0.149
				C7.694,3.343,6.833,3.059,5.935,3.059H5.928c0.014,2.5,0.18,4.736,0.039,6.725c0.05,0.678,0.083,1.531,0.104,2.307l0.04,2.224
				l0.021,2.931c0.164,0.406,0.023,0.806,0.044,1.223c0.064,1.289,0.25,2.945,0.123,4.295c0.145,2.838,0.186,5.74,0.231,8.632
				l0.085,4.323l0.174,5.786c-0.124,0.744-0.045,1.795,0.04,2.334c-0.078,0.184-0.073,0.587-0.097,0.914
				c0.118,0.564,0.109,1.311,0.093,2.118c0.532,0.012,1.086,0.026,1.668,0.007C9,46.686,9.714,46.831,10.33,46.684
				c0.151,0.106-0.358,0.092-0.017,0.15c0.561-0.177,1.536-0.225,2.553-0.238c1.014-0.016,2.079,0.002,2.741-0.047
				c-0.092-0.001-0.105-0.054,0.01-0.06c0.307,0.088,0.48-0.089,0.811-0.083c1.584-0.039,2.716-0.389,4.067-0.516
				c0.17,0.049,0.623,0.199,0.78,0.069c-0.244-0.021-0.555-0.011-0.534-0.157c0.406,0.049,0.941-0.018,1.213-0.134
				c0.502-0.014,0.759,0.063,1.208-0.044c0.11,0.002-0.106-0.152,0.129-0.148c0.703,0.078,1.058-0.051,1.687,0.022
				c0.184-0.138,0.924-0.179,1.151-0.104c0.206-0.06-0.227-0.114-0.052-0.149c0.571-0.044,1.103-0.103,1.629-0.009
				c0.13-0.065,0.217-0.153,0.432-0.174c0.145-0.011-0.041,0.136,0.176,0.092c0.202-0.078-0.158-0.139-0.108-0.241
				c0.286-0.049,0.229-0.122,0.373-0.205c0.398,0.082,0.671-0.086,1.032-0.138c0.373-0.051,0.787,0,1.147-0.043
				c0.31-0.038,0.441-0.143,0.792-0.141c0.284,0.002,0.521,0.109,0.84,0.102c0.166-0.024-0.113-0.111,0.125-0.118
				c1.106-0.035,2.213-0.071,3.029-0.259c-1.254,0.234-2.168-0.016-3.268,0.195c-0.166-0.136-0.492,0.084-0.657-0.1
				c-0.074,0.078,0.18,0.132-0.065,0.12c-0.082-0.011-0.113-0.045-0.24-0.034c0.156-0.16-0.076-0.16-0.166-0.271
				c-0.937,0.01-1.667,0.084-2.478,0.088c-0.149,0.037,0.104,0.091-0.066,0.119c-0.309,0.025-0.544,0.002-0.907,0.047
				c-0.109-0.118-0.354-0.178-0.223-0.332c1.091,0.011,2.574-0.225,3.873-0.25c0.394-0.008,0.801,0.115,1.027-0.075
				c-0.582,0.059-1.053-0.151-1.559-0.171c-0.655-0.024-1.355,0.164-1.997,0.123c-0.181-0.012-0.255-0.065-0.418-0.065
				c-0.128,0-0.345,0.091-0.487,0.084c-0.156-0.006-0.165-0.069-0.299-0.063c-0.273,0.014-0.484,0.113-0.788,0.109
				c-0.509-0.007-1.007-0.119-1.564-0.08c-0.102-0.055-0.057-0.188,0.072-0.209c0.66,0.006,0.772,0,1.447-0.012
				c-0.075-0.014-0.121-0.041-0.115-0.092c0.208,0.009,0.281,0.046,0.424-0.024c-0.502,0.007-0.456-0.227-0.284-0.334
				c1.245,0.04,2.772-0.065,3.797,0.021c0.113-0.063,0.187-0.148,0.371-0.175c1.153-0.075,2.445,0,3.683-0.071
				c-1.41-0.179-2.884-0.072-4.522,0c-0.062-0.029-0.013-0.111-0.176-0.093c-0.698,0.084-1.513,0.062-2.055,0.093
				c-0.242-0.13-0.477-0.263-0.703-0.399c-1.719,0.109-2.975-0.421-4.619-0.422c0.008-0.092-0.121-0.117-0.171-0.183
				c0.133-0.074,0.221-0.171,0.374-0.235c0.27-0.005,0.546-0.054,0.783,0.012c1.387-0.269,3.354-0.078,5.078-0.232
				c0.21-0.149,0.045-0.264-0.1-0.393c-0.831-0.086-1.59,0.123-2.469-0.062c-0.314-0.354,0.016-0.602,0.696-0.621
				c1.126-0.033,3.067,0.002,3.795,0.051c3.304-0.21,6.58-0.123,9.966-0.287c-1.882-0.066-3.621,0.12-5.306-0.011
				c0.006,0.065-0.056,0.095-0.187,0.087c-1.657-0.035-3.495-0.031-4.948,0.085c-0.61-0.217-1.786,0.037-2.402-0.183
				c0.153-0.342,0.66-0.496,1.297-0.583c-0.65,0.021-1.257-0.093-1.803-0.113c-0.447-0.019-1.221,0.085-1.447,0.011
				c-0.055-0.019,0.05-0.088-0.055-0.092c0.183,0.006-0.327,0.02-0.364,0.025c-0.245,0.039-0.199,0.063-0.485,0.054
				c-0.37-0.015-0.363-0.019-0.597-0.099c-1.28-0.055-2.522,0.052-3.798-0.021l-0.422-0.005c-0.121-0.021-0.018-0.081-0.177-0.093
				c-0.09-0.007-0.05,0.065-0.184,0.058c-0.497-0.027-1.066-0.059-1.564-0.051c-0.312,0.005-0.638,0.003-0.967-0.002l-0.495-0.01
				l-0.23-0.006l-0.065-0.006c-0.174-0.018-0.332-0.033-0.468-0.026c-0.052-0.021,0.06-0.125-0.017-0.123
				c-0.283-0.054-0.549-0.097-0.81-0.13l0.034-0.385c0.011-0.039,0.143-0.109,0.123-0.138c0.022-0.063-0.123,0.045-0.114-0.012
				c0.039-0.056,0.084-0.109,0.154-0.164c0.056-0.233,0.053-0.417,0.03-0.621l-0.092-3.11c-0.048-2.063-0.045-4.135-0.069-6.095
				c-0.02-1.546-0.146-3.021-0.062-4.404c-0.101-1.854-0.094-3.456-0.11-5.191c-0.012-1.251,0.058-2.628-0.011-3.679
				c-0.012-0.182-0.081-0.396-0.082-0.608c0-0.08,0.006-0.16,0.016-0.239c0.01-0.022,0.022-0.041,0.035-0.061
				c0.025-0.038,0.052-0.074,0.052-0.111c0.004-0.196-0.121-0.659-0.115-0.884c0.007-0.244,0.027-0.392,0.038-0.892h0.001
				c0.136,0,0.182,0.112,0.32,0.105c0.092-0.006,0.241,0.178,0.33,0.176c0.246-0.006,0.485-0.086,0.76-0.059l0.146,0.043
				l0.487,0.034l0.979,0.046c0.655,0.02,1.313,0.019,1.967-0.054c1.443,0.08,3.198,0.086,4.58,0.032
				c1.12,0.239,2.287-0.006,3.556,0.049c0.134,0.006,0.223,0.053,0.357,0.066c1.918,0.178,4.049-0.143,5.607,0.014
				c0.583-0.156,1.083,0.017,1.625,0.052c0.586,0.039,1.128-0.064,1.692-0.067c0.185-0.001,0.353,0.06,0.539,0.067l0.135,0.003
				c0.017,0,0.033-0.002,0.051-0.006c0.033-0.006,0.068-0.018,0.104-0.029c0.071-0.024,0.15-0.055,0.232-0.064
				c0.122-0.015,0.225,0.043,0.321,0.084c0.1,0.041,0.19,0.066,0.379-0.014c0.06,0.057,0.122,0.119,0.209,0.146
				c-0.026,0.14-0.022,0.24,0.047,0.291c-0.112,0.261-0.104,0.403-0.079,0.568c0.014,0.08,0.028,0.163,0.035,0.25
				c0.004,0.044,0.005,0.088,0.002,0.133l-0.008,0.066l-0.016,0.266c-0.035,0.557-0.193,1.063-0.053,1.625
				c-0.16,0.582-0.066,1.276-0.086,1.985c-0.02,0.701-0.113,1.431-0.148,2.162c-0.053,1.044,0.076,2.341-0.252,3.122
				c-0.684,0.356,0.32,1.048,0.186,1.879c-0.139,0.441-0.33,0.384-0.578,0.572c-0.104,0.394-0.04,0.764,0.016,1.146
				C38.25,27.197,37.941,27.521,37.938,28.116z M26.17,44.645c-0.013,0.035,0.011,0.054,0.058,0.061
				C26.098,44.85,25.815,44.639,26.17,44.645z M26.294,44.585c0.502-0.012,1.206-0.147,1.57-0.039
				c0.098,0.001-0.088-0.17,0.071-0.209c0.214,0.074,0.467,0.131,0.837,0.132c0.023,0.249-0.709,0.102-0.741,0.32
				c-0.282-0.021-0.421-0.032-0.547,0.082c-0.579-0.083-0.708,0.07-1.146-0.016C26.456,44.713,26.261,44.747,26.294,44.585z"/>
		</g>
	</g>
</g>
</svg>
