<svg xmlns="http://www.w3.org/2000/svg" width="60" height="58" viewBox="0 0 60 58"><linearGradient id="d" gradientUnits="userSpaceOnUse" x1="29.997" y1="3.803" x2="29.997" y2="55.517"><stop offset=".357" stop-color="#fff"/><stop offset=".518" stop-color="#fbfbfb"/><stop offset=".66" stop-color="#f1f1f1"/><stop offset=".795" stop-color="#dfdfdf"/><stop offset=".925" stop-color="#c5c5c5"/><stop offset="1" stop-color="#b3b3b3"/></linearGradient><path fill="url(#d)" d="M56.876 8.61c0-2.965-2.507-5.367-5.6-5.367H8.716c-3.093 0-5.6 2.402-5.6 5.367v40.785c0 2.965 2.507 5.367 5.6 5.367h42.561c3.093 0 5.6-2.402 5.6-5.367V8.61z"/><linearGradient id="e" gradientUnits="userSpaceOnUse" x1="29.997" y1="55.883" x2="29.997" y2="2.864"><stop offset="0" stop-color="#fff"/><stop offset=".231" stop-color="#fbfbfb"/><stop offset=".46" stop-color="#efefef"/><stop offset=".688" stop-color="#dbdbdb"/><stop offset=".914" stop-color="silver"/><stop offset="1" stop-color="#b3b3b3"/></linearGradient><path fill="url(#e)" d="M57.997 49.397c0 3.582-3.009 6.485-6.72 6.485H8.716c-3.711 0-6.72-2.903-6.72-6.485V8.608c0-3.582 3.009-6.485 6.72-6.485h42.561c3.711 0 6.72 2.903 6.72 6.485v40.789zM55.756 8.61c0-2.347-2.006-4.248-4.479-4.248H8.716c-2.474 0-4.479 1.901-4.479 4.248v40.785c0 2.347 2.006 4.247 4.479 4.247h42.561c2.474 0 4.479-1.9 4.479-4.247V8.61z"/><path fill="#606060" d="M25.049 28.368l1.874-.958s4.126-2.318-.741-3.935l-7.327-2.434s-.679-.246-1.56.224c-.897.372-1.096 1.109-1.096 1.109s-2.228 6.737-2.432 7.328c-.708 2.127.019 4.296 2.71 2.946.471-.236 1.162-.575 1.577-.779 1.729 8.658 10.657 15.1 22.131 9.302.021-.705.015-4.325.015-5.125-14.793 4.312-15.116-7.578-15.151-7.678z"/><path fill="#606060" d="M41.972 35.495c-.333 0-.542-.085-.55-.09l-6.454-2.477c-1.377-.528-2.093-1.152-2.127-1.852-.055-1.084 1.545-1.903 1.614-1.937l1.641-.746c-.071-1.887-.901-7.899-8.47-7.899-1.38 0-2.934.206-4.612.613l-.167.04.026-.578c.05-1.09.164-3.636.207-4.185l.005-.077.07-.032c2.454-1.101 4.857-1.66 7.144-1.66 3.25 0 6.174 1.126 8.458 3.254 2.085 1.943 3.493 4.626 3.978 7.571.381-.165.913-.396 1.29-.563.488-.217.926-.328 1.305-.328.503 0 .906.198 1.162.57.411.598.416 1.621.012 2.671-.205.515-2.456 6.398-2.479 6.458-.007.021-.234.711-1.102 1.024a2.207 2.207 0 0 1-.951.223z"/></svg>