<?xml version="1.0" encoding="utf-8"?>
<!-- Generator: Adobe Illustrator 15.0.0, SVG Export Plug-In . SVG Version: 6.00 Build 0)  -->
<!DOCTYPE svg PUBLIC "-//W3C//DTD SVG 1.1//EN" "http://www.w3.org/Graphics/SVG/1.1/DTD/svg11.dtd">
<svg version="1.1" id="Layer_2" xmlns="http://www.w3.org/2000/svg" xmlns:xlink="http://www.w3.org/1999/xlink" x="0px" y="0px"
	 width="60px" height="58px" viewBox="0 0 60 58" enable-background="new 0 0 60 58" xml:space="preserve">
<g>
	<g>
		<g>
			<path fill="#FFAA00" d="M57.598,8.61c0-2.966-2.508-5.367-5.601-5.367H9.437c-3.093,0-5.6,2.401-5.6,5.367v40.787
				c0,2.965,2.507,5.365,5.6,5.365h42.561c3.093,0,5.6-2.4,5.6-5.365V8.61L57.598,8.61z"/>
		</g>
		<defs>
			<filter id="Adobe_OpacityMaskFilter" filterUnits="userSpaceOnUse" x="3.837" y="3.243" width="53.761" height="51.519">
				<feColorMatrix  type="matrix" values="1 0 0 0 0  0 1 0 0 0  0 0 1 0 0  0 0 0 1 0"/>
			</filter>
		</defs>
		<mask maskUnits="userSpaceOnUse" x="3.837" y="3.243" width="53.761" height="51.519" id="SVGID_2_">
			<g filter="url(#Adobe_OpacityMaskFilter)">
			</g>
		</mask>
		<g opacity="0.31" mask="url(#SVGID_2_)">
			<path d="M57.598,8.61c0-2.966-2.508-5.367-5.601-5.367H9.437c-3.093,0-5.6,2.401-5.6,5.367v40.787c0,2.965,2.507,5.365,5.6,5.365
				h42.561c3.093,0,5.6-2.4,5.6-5.365V8.61L57.598,8.61z"/>
		</g>
	</g>
	<path fill-opacity="0.17" d="M51.277,4.36H8.716c-2.47,0-4.479,1.906-4.479,4.248v40.787c0,2.34,2.01,4.246,4.479,4.246h42.562
		c2.47,0,4.479-1.906,4.479-4.246V8.608C55.756,6.266,53.746,4.36,51.277,4.36z M52.756,49.395c0,0.676-0.677,1.246-1.479,1.246
		H8.716c-0.802,0-1.479-0.57-1.479-1.246V8.608c0-0.676,0.677-1.248,1.479-1.248h42.562c0.802,0,1.479,0.572,1.479,1.248V49.395z"/>
	
		<linearGradient id="SVGID_1_" gradientUnits="userSpaceOnUse" x1="29.9966" y1="3.1187" x2="29.9966" y2="56.1362" gradientTransform="matrix(1 0 0 -1 0 59)">
		<stop  offset="0" style="stop-color:#FFFFFF"/>
		<stop  offset="0.2309" style="stop-color:#FBFBFB"/>
		<stop  offset="0.4598" style="stop-color:#EFEFEF"/>
		<stop  offset="0.6879" style="stop-color:#DBDBDB"/>
		<stop  offset="0.9144" style="stop-color:#C0C0C0"/>
		<stop  offset="1" style="stop-color:#B3B3B3"/>
	</linearGradient>
	<path fill="url(#SVGID_1_)" d="M57.997,49.396c0,3.582-3.009,6.485-6.72,6.485H8.716c-3.711,0-6.72-2.903-6.72-6.485V8.608
		c0-3.582,3.009-6.485,6.72-6.485h42.562c3.711,0,6.72,2.903,6.72,6.485V49.396z M55.756,8.61c0-2.347-2.006-4.248-4.479-4.248
		H8.716c-2.474,0-4.479,1.901-4.479,4.248v40.785c0,2.348,2.006,4.248,4.479,4.248h42.562c2.474,0,4.479-1.9,4.479-4.248V8.61z"/>
	<path fill="#FFFFFF" d="M25.61,28.368l1.873-0.958c0,0,4.126-2.318-0.74-3.935c-0.593-0.196-7.327-2.434-7.327-2.434
		s-0.678-0.246-1.56,0.224c-0.897,0.372-1.096,1.109-1.096,1.109s-2.229,6.737-2.433,7.328c-0.708,2.127,0.019,4.296,2.71,2.946
		c0.472-0.236,1.163-0.575,1.577-0.779c1.729,8.658,10.658,15.1,22.131,9.302c0.022-0.705,0.017-4.325,0.017-5.125
		C25.967,40.357,25.645,28.468,25.61,28.368z"/>
	<path fill="#FFFFFF" d="M42.532,35.495c-0.332,0-0.541-0.085-0.55-0.09l-6.455-2.478c-1.377-0.527-2.094-1.152-2.127-1.852
		c-0.055-1.084,1.545-1.903,1.615-1.937l1.641-0.746c-0.071-1.887-0.901-7.899-8.47-7.899c-1.38,0-2.933,0.206-4.612,0.613
		l-0.167,0.04l0.026-0.578c0.049-1.09,0.164-3.636,0.207-4.185l0.005-0.077l0.07-0.032c2.453-1.101,4.857-1.66,7.143-1.66
		c3.25,0,6.175,1.126,8.459,3.254c2.084,1.943,3.494,4.626,3.978,7.571c0.382-0.165,0.913-0.396,1.289-0.563
		c0.487-0.217,0.927-0.328,1.306-0.328c0.502,0,0.905,0.198,1.161,0.57c0.411,0.598,0.416,1.621,0.013,2.671
		c-0.205,0.515-2.455,6.397-2.479,6.458c-0.006,0.021-0.233,0.711-1.101,1.023C43.175,35.419,42.854,35.495,42.532,35.495z"/>
</g>
</svg>
