<svg xmlns="http://www.w3.org/2000/svg" width="60" height="58" viewBox="0 0 60 58"><path fill="#FA0" d="M57.598 8.61c0-2.966-2.508-5.367-5.601-5.367H9.437c-3.093 0-5.6 2.401-5.6 5.367v40.787c0 2.965 2.507 5.365 5.6 5.365h42.561c3.093 0 5.6-2.4 5.6-5.365V8.61z"/><defs><filter id="a" filterUnits="userSpaceOnUse" x="3.837" y="3.243" width="53.761" height="51.519"><feColorMatrix values="1 0 0 0 0 0 1 0 0 0 0 0 1 0 0 0 0 0 1 0"/></filter></defs><g opacity=".31" mask="url(#b)"><path d="M57.598 8.61c0-2.966-2.508-5.367-5.601-5.367H9.437c-3.093 0-5.6 2.401-5.6 5.367v40.787c0 2.965 2.507 5.365 5.6 5.365h42.561c3.093 0 5.6-2.4 5.6-5.365V8.61z"/></g><path fill-opacity=".17" d="M51.277 4.36H8.716c-2.47 0-4.479 1.906-4.479 4.248v40.787c0 2.34 2.01 4.246 4.479 4.246h42.562c2.47 0 4.479-1.906 4.479-4.246V8.608c-.001-2.342-2.011-4.248-4.48-4.248zm1.479 45.035c0 .676-.677 1.246-1.479 1.246H8.716c-.802 0-1.479-.57-1.479-1.246V8.608c0-.676.677-1.248 1.479-1.248h42.562c.802 0 1.479.572 1.479 1.248v40.787z"/><linearGradient id="c" gradientUnits="userSpaceOnUse" x1="29.997" y1="3.119" x2="29.997" y2="56.136" gradientTransform="matrix(1 0 0 -1 0 59)"><stop offset="0" stop-color="#fff"/><stop offset=".231" stop-color="#fbfbfb"/><stop offset=".46" stop-color="#efefef"/><stop offset=".688" stop-color="#dbdbdb"/><stop offset=".914" stop-color="silver"/><stop offset="1" stop-color="#b3b3b3"/></linearGradient><path fill="url(#c)" d="M57.997 49.396c0 3.582-3.009 6.485-6.72 6.485H8.716c-3.711 0-6.72-2.903-6.72-6.485V8.608c0-3.582 3.009-6.485 6.72-6.485h42.562c3.711 0 6.72 2.903 6.72 6.485v40.788zM55.756 8.61c0-2.347-2.006-4.248-4.479-4.248H8.716c-2.474 0-4.479 1.901-4.479 4.248v40.785c0 2.348 2.006 4.248 4.479 4.248h42.562c2.474 0 4.479-1.9 4.479-4.248V8.61z"/><path fill="#FFF" d="M25.61 28.368l1.873-.958s4.126-2.318-.74-3.935l-7.327-2.434s-.678-.246-1.56.224c-.897.372-1.096 1.109-1.096 1.109s-2.229 6.737-2.433 7.328c-.708 2.127.019 4.296 2.71 2.946.472-.236 1.163-.575 1.577-.779 1.729 8.658 10.658 15.1 22.131 9.302.022-.705.017-4.325.017-5.125-14.795 4.311-15.117-7.578-15.152-7.678z"/><path fill="#FFF" d="M42.532 35.495c-.332 0-.541-.085-.55-.09l-6.455-2.478c-1.377-.527-2.094-1.152-2.127-1.852-.055-1.084 1.545-1.903 1.615-1.937l1.641-.746c-.071-1.887-.901-7.899-8.47-7.899-1.38 0-2.933.206-4.612.613l-.167.04.026-.578c.049-1.09.164-3.636.207-4.185l.005-.077.07-.032c2.453-1.101 4.857-1.66 7.143-1.66 3.25 0 6.175 1.126 8.459 3.254 2.084 1.943 3.494 4.626 3.978 7.571.382-.165.913-.396 1.289-.563.487-.217.927-.328 1.306-.328.502 0 .905.198 1.161.57.411.598.416 1.621.013 2.671-.205.515-2.455 6.397-2.479 6.458-.006.021-.233.711-1.101 1.023-.309.149-.63.225-.952.225z"/></svg>