<svg xmlns="http://www.w3.org/2000/svg" width="60" height="58" viewBox="0 0 60 58"><path fill="#FA0" d="M56.881 8.607c0-2.966-2.507-5.367-5.6-5.367H8.721c-3.093 0-5.6 2.401-5.6 5.367v40.786c0 2.965 2.507 5.366 5.6 5.366h42.561c3.093 0 5.6-2.401 5.6-5.366l-.001-40.786z"/><defs><filter id="a" filterUnits="userSpaceOnUse" x="3.121" y="3.24" width="53.761" height="51.519"><feColorMatrix values="1 0 0 0 0 0 1 0 0 0 0 0 1 0 0 0 0 0 1 0"/></filter></defs><g opacity=".31" mask="url(#b)"><path d="M56.881 8.607c0-2.966-2.507-5.367-5.6-5.367H8.721c-3.093 0-5.6 2.401-5.6 5.367v40.786c0 2.965 2.507 5.366 5.6 5.366h42.561c3.093 0 5.6-2.401 5.6-5.366l-.001-40.786z"/></g><path fill-opacity=".17" d="M51.277 4.36H8.716c-2.47 0-4.479 1.906-4.479 4.248v40.787c0 2.34 2.01 4.246 4.479 4.246h42.562c2.47 0 4.479-1.906 4.479-4.246V8.608c-.001-2.342-2.011-4.248-4.48-4.248zm1.479 45.035c0 .676-.677 1.246-1.479 1.246H8.716c-.802 0-1.479-.57-1.479-1.246V8.608c0-.676.677-1.248 1.479-1.248h42.562c.802 0 1.479.572 1.479 1.248v40.787z"/><linearGradient id="c" gradientUnits="userSpaceOnUse" x1="30.002" y1="3.121" x2="30.002" y2="56.138" gradientTransform="matrix(1 0 0 -1 0 59)"><stop offset="0" stop-color="#fff"/><stop offset=".231" stop-color="#fbfbfb"/><stop offset=".46" stop-color="#efefef"/><stop offset=".688" stop-color="#dbdbdb"/><stop offset=".914" stop-color="silver"/><stop offset="1" stop-color="#b3b3b3"/></linearGradient><path fill="url(#c)" d="M51.281 55.88H8.721c-3.705 0-6.72-2.909-6.72-6.485V8.607c0-3.578 3.015-6.487 6.72-6.487h42.561c3.704 0 6.72 2.909 6.72 6.487v40.786c-.001 3.578-3.016 6.487-6.721 6.487zM8.721 4.36c-2.47 0-4.479 1.905-4.479 4.247v40.786c0 2.342 2.01 4.246 4.479 4.246h42.561c2.47 0 4.479-1.904 4.479-4.246V8.607c0-2.342-2.011-4.247-4.479-4.247H8.721z"/><g><path fill="#FFF" d="M42.934 35.495c-.764-1.552-2.259-2.42-3.449-2.988-.573-.272-3.219-1.348-3.74-1.683-.866-.551-3.182-2.091-3.182-2.091-.256-.171-.567-.197-.691-.059s-.352.034-.506-.233c0 0-2.68-4.634-5.646-7.204-4.554-3.943-12.354-2.535-12.354-2.535-.303.055-.344.243-.091.419L29.58 30.392c.254.176.347.445.207.602-.14.156-.061.443.175.642 0 0 1.104.927 1.971 2.04.529.682.844 1.237 1.18 1.924.193.426.296.894.268 1.056-.193 1.138.204 2.825.809 4.03 1.303 2.602 4.955 3.369 7.097 2.297 2.134-1.075 3.097-4.549 1.647-7.488zm-14.435-7.221c-.688.343-1.521.075-1.858-.598-.337-.674-.054-1.501.635-1.847.689-.343 1.523-.078 1.861.595.336.675.051 1.502-.638 1.85zm12.228 12.812c-1.486.775-3.898.247-4.83-1.609-.932-1.857-.633-4.777.863-5.529 1.5-.748 4.199.513 5.131 2.371s.493 3.906-1.164 4.767z"/></g><g><path fill="#FFF" d="M48.05 21.694c-1.252-2.543-4.491-3.094-7.028-1.766-1.174.613-1.873 1.642-2.545 2.526-.232.311-.418.69-1.3 1.139-1.003.521-1.459.685-2.472.902-1.37.292-1.391.294-1.391.294-.307.029-.563.25-.571.49-.009.24-.267.425-.574.411l-20.072-.904c-.308-.014-.449.201-.315.479 0 0 2.216 4.565 11.972 4.731 3.783.064 8.371-1.703 8.371-1.703.287-.11.52-.085.514.058-.005.143.242.282.549.311 0 0 1.91.179 2.937.259.619.047 2.81.264 4.244.361 1.538.103 3.603-.143 5.108-.932 2.537-1.328 3.671-4.423 2.573-6.656zm-19.412 6.858c-.845.42-1.865.092-2.279-.732-.414-.827-.065-1.842.778-2.266.846-.421 1.868-.096 2.283.729.412.827.062 1.842-.782 2.269zm16.428-1.838c-1.815.949-4.735.789-5.553-.748-.818-1.535.562-4.018 2.377-4.968 1.813-.947 3.948-.472 4.766 1.064.821 1.539.224 3.703-1.59 4.652z"/></g></svg>