<svg xmlns="http://www.w3.org/2000/svg" width="60" height="58" viewBox="0 0 60 58"><linearGradient id="d" gradientUnits="userSpaceOnUse" x1="30.001" y1="3.8" x2="30.001" y2="55.514"><stop offset=".357" stop-color="#fff"/><stop offset=".518" stop-color="#fbfbfb"/><stop offset=".66" stop-color="#f1f1f1"/><stop offset=".795" stop-color="#dfdfdf"/><stop offset=".925" stop-color="#c5c5c5"/><stop offset="1" stop-color="#b3b3b3"/></linearGradient><path fill="url(#d)" d="M56.881 8.606c0-2.964-2.507-5.366-5.6-5.366H8.721c-3.093 0-5.6 2.402-5.6 5.366v40.788c0 2.964 2.507 5.365 5.6 5.365h42.561c3.093 0 5.6-2.401 5.6-5.365V8.606z"/><linearGradient id="e" gradientUnits="userSpaceOnUse" x1="30.001" y1="55.88" x2="30.001" y2="2.861"><stop offset="0" stop-color="#fff"/><stop offset=".231" stop-color="#fbfbfb"/><stop offset=".46" stop-color="#efefef"/><stop offset=".688" stop-color="#dbdbdb"/><stop offset=".914" stop-color="silver"/><stop offset="1" stop-color="#b3b3b3"/></linearGradient><path fill="url(#e)" d="M51.281 55.88H8.721c-3.705 0-6.72-2.909-6.72-6.485V8.606c0-3.577 3.015-6.486 6.72-6.486h42.561c3.705 0 6.72 2.909 6.72 6.486v40.788c-.001 3.577-3.016 6.486-6.721 6.486zM8.721 4.36c-2.47 0-4.479 1.905-4.479 4.246v40.788c0 2.34 2.01 4.246 4.479 4.246h42.561c2.47 0 4.479-1.906 4.479-4.246V8.606c0-2.341-2.01-4.246-4.479-4.246H8.721z"/><path fill="#606060" d="M43.362 35.492c-.764-1.549-2.259-2.419-3.451-2.985-.573-.275-3.218-1.35-3.74-1.683-.866-.553-3.18-2.092-3.18-2.092-.256-.17-.568-.196-.693-.059-.125.139-.353.033-.507-.232 0 0-2.68-4.635-5.646-7.205-4.554-3.943-12.354-2.534-12.354-2.534-.303.055-.344.243-.091.419l16.305 11.271c.254.175.347.445.207.601s-.061.444.175.642c0 0 1.105.927 1.971 2.04.529.681.844 1.236 1.18 1.925.194.425.295.893.268 1.055-.195 1.138.204 2.826.809 4.029 1.302 2.602 4.954 3.371 7.095 2.297 2.14-1.073 3.102-4.548 1.652-7.489zm-14.434-7.219c-.689.342-1.521.075-1.858-.597-.337-.674-.054-1.501.634-1.847.69-.343 1.523-.078 1.862.596.335.675.049 1.501-.638 1.848zm12.226 12.813c-1.486.774-3.899.247-4.83-1.609-.932-1.859-.634-4.777.864-5.53 1.499-.751 4.199.512 5.13 2.371.932 1.859.494 3.905-1.164 4.768z"/><path fill="#606060" d="M48.479 21.693c-1.252-2.541-4.492-3.093-7.029-1.767-1.174.614-1.872 1.643-2.546 2.528-.232.309-.417.689-1.299 1.138-1.002.522-1.458.685-2.471.901-1.37.293-1.391.295-1.391.295-.307.029-.564.249-.572.489s-.267.425-.574.411l-20.071-.903c-.308-.014-.45.201-.315.479 0 0 2.217 4.567 11.972 4.733 3.784.063 8.371-1.705 8.371-1.705.287-.11.519-.084.514.059s.242.283.549.312c0 0 1.911.178 2.937.256.619.048 2.809.265 4.244.363 1.537.103 3.601-.142 5.108-.932 2.536-1.329 3.671-4.424 2.573-6.657zM29.065 28.55c-.845.422-1.865.094-2.279-.731-.413-.826-.065-1.842.778-2.266.847-.42 1.868-.096 2.284.73.412.827.062 1.842-.783 2.267zm16.429-1.838c-1.814.952-4.735.79-5.553-.746-.818-1.538.563-4.019 2.378-4.968 1.814-.949 3.949-.473 4.766 1.063.819 1.539.224 3.702-1.591 4.651z"/></svg>