<?xml version="1.0" encoding="utf-8"?>
<!-- Generator: Adobe Illustrator 16.0.0, SVG Export Plug-In . SVG Version: 6.00 Build 0)  -->
<!DOCTYPE svg PUBLIC "-//W3C//DTD SVG 1.1//EN" "http://www.w3.org/Graphics/SVG/1.1/DTD/svg11.dtd">
<svg version="1.1" xmlns="http://www.w3.org/2000/svg" xmlns:xlink="http://www.w3.org/1999/xlink" x="0px" y="0px" width="60px"
	 height="58px" viewBox="0 0 60 58" enable-background="new 0 0 60 58" xml:space="preserve">
<g id="Pressed_states" display="none">
	<g id="buttons_pressed" display="inline">
	</g>
	<g id="buttons_pressed_on" display="inline">
	</g>
	<g id="buttons_pressed_copy" display="inline">
	</g>
	<g id="DrawingToolsButtonsTaped" display="inline">
		<g>
			<g>
				<g>
					<path fill="#FFAA00" d="M56.881,8.607c0-2.966-2.507-5.367-5.6-5.367H8.721c-3.093,0-5.6,2.401-5.6,5.367v40.786
						c0,2.965,2.507,5.366,5.6,5.366h42.561c3.093,0,5.6-2.401,5.6-5.366V8.607z"/>
				</g>
				<defs>
					<filter id="Adobe_OpacityMaskFilter" filterUnits="userSpaceOnUse" x="3.121" y="3.24" width="53.76" height="51.52">
						
							<feColorMatrix  type="matrix" values="-1 0 0 0 1  0 -1 0 0 1  0 0 -1 0 1  0 0 0 1 0" color-interpolation-filters="sRGB" result="source"/>
					</filter>
				</defs>
				<mask maskUnits="userSpaceOnUse" x="3.121" y="3.24" width="53.76" height="51.52" id="SVGID_2_">
					<g filter="url(#Adobe_OpacityMaskFilter)">
						<image overflow="visible" width="59" height="56" xlink:href="E61503B6.jpg"  transform="matrix(1 0 0 1 0.8613 1)">
						</image>
					</g>
				</mask>
				<g opacity="0.31" mask="url(#SVGID_2_)">
					<path d="M56.881,8.607c0-2.966-2.507-5.367-5.6-5.367H8.721c-3.093,0-5.6,2.401-5.6,5.367v40.786
						c0,2.965,2.507,5.366,5.6,5.366h42.561c3.093,0,5.6-2.401,5.6-5.366V8.607z"/>
				</g>
			</g>
			<linearGradient id="SVGID_4_" gradientUnits="userSpaceOnUse" x1="30.001" y1="55.8799" x2="30.001" y2="2.8614">
				<stop  offset="0" style="stop-color:#FFFFFF"/>
				<stop  offset="0.2309" style="stop-color:#FBFBFB"/>
				<stop  offset="0.4598" style="stop-color:#EFEFEF"/>
				<stop  offset="0.6879" style="stop-color:#DBDBDB"/>
				<stop  offset="0.9144" style="stop-color:#C0C0C0"/>
				<stop  offset="1" style="stop-color:#B3B3B3"/>
			</linearGradient>
			<path fill="url(#SVGID_4_)" d="M51.281,55.88H8.721c-3.705,0-6.72-2.909-6.72-6.486V8.607c0-3.578,3.015-6.487,6.72-6.487h42.561
				c3.705,0,6.72,2.909,6.72,6.487v40.786C58.001,52.971,54.986,55.88,51.281,55.88z M8.721,4.36c-2.47,0-4.479,1.905-4.479,4.247
				v40.786c0,2.342,2.01,4.246,4.479,4.246h42.561c2.47,0,4.479-1.904,4.479-4.246V8.607c0-2.342-2.01-4.247-4.479-4.247H8.721z"/>
			<g>
				<path fill="#FFFFFF" d="M42.934,35.495c-0.764-1.551-2.259-2.42-3.45-2.988c-0.573-0.273-3.218-1.348-3.74-1.683
					c-0.866-0.551-3.181-2.091-3.181-2.091c-0.256-0.171-0.568-0.197-0.692-0.059s-0.352,0.034-0.506-0.233
					c0,0-2.68-4.634-5.646-7.204c-4.554-3.943-12.354-2.535-12.354-2.535c-0.303,0.055-0.344,0.243-0.091,0.419l16.305,11.272
					c0.254,0.175,0.347,0.445,0.207,0.601s-0.061,0.444,0.175,0.642c0,0,1.104,0.926,1.971,2.04
					c0.529,0.681,0.844,1.237,1.179,1.924c0.194,0.426,0.296,0.893,0.268,1.055c-0.194,1.138,0.204,2.826,0.809,4.03
					c1.302,2.602,4.954,3.37,7.096,2.297C43.421,41.908,44.384,38.434,42.934,35.495z M28.499,28.274
					c-0.688,0.343-1.521,0.075-1.858-0.598c-0.337-0.674-0.054-1.501,0.635-1.847c0.689-0.343,1.523-0.078,1.861,0.595
					C29.473,27.099,29.188,27.926,28.499,28.274z M40.727,41.086c-1.487,0.775-3.899,0.247-4.83-1.61
					c-0.932-1.857-0.634-4.777,0.863-5.529c1.5-0.748,4.199,0.513,5.131,2.372C42.822,38.177,42.384,40.224,40.727,41.086z"/>
			</g>
			<g>
				<g>
					<path fill="#FFFFFF" d="M48.05,21.694c-1.252-2.543-4.492-3.094-7.028-1.766c-1.175,0.613-1.873,1.642-2.546,2.526
						c-0.232,0.311-0.418,0.69-1.299,1.139c-1.003,0.521-1.459,0.685-2.472,0.902c-1.37,0.292-1.39,0.294-1.39,0.294
						c-0.307,0.029-0.564,0.25-0.572,0.49s-0.267,0.425-0.574,0.411l-20.072-0.904c-0.308-0.014-0.449,0.201-0.315,0.479
						c0,0,2.216,4.565,11.972,4.731c3.783,0.064,8.371-1.703,8.371-1.703c0.287-0.11,0.519-0.085,0.514,0.058
						s0.242,0.282,0.549,0.311c0,0,1.91,0.179,2.936,0.259c0.619,0.047,2.809,0.264,4.244,0.361
						c1.538,0.103,3.602-0.143,5.109-0.932C48.014,27.022,49.148,23.927,48.05,21.694z M28.638,28.552
						c-0.845,0.42-1.865,0.092-2.279-0.732c-0.414-0.827-0.065-1.842,0.778-2.266c0.846-0.421,1.868-0.096,2.283,0.729
						C29.832,27.11,29.482,28.125,28.638,28.552z M45.066,26.714c-1.815,0.949-4.735,0.789-5.553-0.748
						c-0.818-1.535,0.563-4.018,2.378-4.968c1.813-0.947,3.948-0.472,4.765,1.064C47.476,23.601,46.88,25.765,45.066,26.714z"/>
				</g>
			</g>
		</g>
	</g>
	<g id="DrawingsShapesStrokesTaped" display="inline">
	</g>
</g>
<g id="Layer_17" display="none">
</g>
<g id="unpress_states">
	<g id="Buttons_copy">
	</g>
	<g id="Buttons_on">
	</g>
	<g id="Buttons">
	</g>
	<g id="DrawingToolsButtonsDefault">
		<g>
			<linearGradient id="SVGID_6_" gradientUnits="userSpaceOnUse" x1="30.001" y1="3.7998" x2="30.001" y2="55.5136">
				<stop  offset="0.3573" style="stop-color:#FFFFFF"/>
				<stop  offset="0.5178" style="stop-color:#FBFBFB"/>
				<stop  offset="0.6599" style="stop-color:#F1F1F1"/>
				<stop  offset="0.7949" style="stop-color:#DFDFDF"/>
				<stop  offset="0.9249" style="stop-color:#C5C5C5"/>
				<stop  offset="1" style="stop-color:#B3B3B3"/>
			</linearGradient>
			<path fill="url(#SVGID_6_)" d="M56.881,8.606c0-2.964-2.507-5.366-5.6-5.366H8.721c-3.093,0-5.6,2.402-5.6,5.366v40.788
				c0,2.964,2.507,5.365,5.6,5.365h42.561c3.093,0,5.6-2.401,5.6-5.365V8.606z"/>
			<linearGradient id="SVGID_8_" gradientUnits="userSpaceOnUse" x1="30.001" y1="55.8799" x2="30.001" y2="2.8614">
				<stop  offset="0" style="stop-color:#FFFFFF"/>
				<stop  offset="0.2309" style="stop-color:#FBFBFB"/>
				<stop  offset="0.4598" style="stop-color:#EFEFEF"/>
				<stop  offset="0.6879" style="stop-color:#DBDBDB"/>
				<stop  offset="0.9144" style="stop-color:#C0C0C0"/>
				<stop  offset="1" style="stop-color:#B3B3B3"/>
			</linearGradient>
			<path fill="url(#SVGID_8_)" d="M51.281,55.88H8.721c-3.705,0-6.72-2.909-6.72-6.485V8.606c0-3.577,3.015-6.486,6.72-6.486h42.561
				c3.705,0,6.72,2.909,6.72,6.486v40.788C58.001,52.971,54.986,55.88,51.281,55.88z M8.721,4.36c-2.47,0-4.479,1.905-4.479,4.246
				v40.788c0,2.34,2.01,4.246,4.479,4.246h42.561c2.47,0,4.479-1.906,4.479-4.246V8.606c0-2.341-2.01-4.246-4.479-4.246H8.721z"/>
			<g>
				<path fill="#606060" d="M43.362,35.492c-0.764-1.549-2.259-2.419-3.451-2.985c-0.573-0.275-3.218-1.35-3.74-1.683
					c-0.866-0.553-3.18-2.092-3.18-2.092c-0.256-0.17-0.568-0.196-0.693-0.059c-0.125,0.139-0.353,0.033-0.507-0.232
					c0,0-2.68-4.635-5.646-7.205c-4.554-3.943-12.354-2.534-12.354-2.534c-0.303,0.055-0.344,0.243-0.091,0.419l16.305,11.271
					c0.254,0.175,0.347,0.445,0.207,0.601s-0.061,0.444,0.175,0.642c0,0,1.105,0.927,1.971,2.04c0.529,0.681,0.844,1.236,1.18,1.925
					c0.194,0.425,0.295,0.893,0.268,1.055c-0.195,1.138,0.204,2.826,0.809,4.029c1.302,2.602,4.954,3.371,7.095,2.297
					C43.85,41.908,44.812,38.433,43.362,35.492z M28.928,28.273c-0.689,0.342-1.521,0.075-1.858-0.597
					c-0.337-0.674-0.054-1.501,0.634-1.847c0.69-0.343,1.523-0.078,1.862,0.596C29.901,27.1,29.615,27.926,28.928,28.273z
					 M41.154,41.086c-1.486,0.774-3.899,0.247-4.83-1.609c-0.932-1.859-0.634-4.777,0.864-5.53c1.499-0.751,4.199,0.512,5.13,2.371
					C43.25,38.177,42.812,40.223,41.154,41.086z"/>
			</g>
			<g>
				<g>
					<path fill="#606060" d="M48.479,21.693c-1.252-2.541-4.492-3.093-7.029-1.767c-1.174,0.614-1.872,1.643-2.546,2.528
						c-0.232,0.309-0.417,0.689-1.299,1.138c-1.002,0.522-1.458,0.685-2.471,0.901c-1.37,0.293-1.391,0.295-1.391,0.295
						c-0.307,0.029-0.564,0.249-0.572,0.489s-0.267,0.425-0.574,0.411l-20.071-0.903c-0.308-0.014-0.45,0.201-0.315,0.479
						c0,0,2.217,4.567,11.972,4.733c3.784,0.063,8.371-1.705,8.371-1.705c0.287-0.11,0.519-0.084,0.514,0.059
						s0.242,0.283,0.549,0.312c0,0,1.911,0.178,2.937,0.256c0.619,0.048,2.809,0.265,4.244,0.363
						c1.537,0.103,3.601-0.142,5.108-0.932C48.442,27.021,49.577,23.926,48.479,21.693z M29.065,28.55
						c-0.845,0.422-1.865,0.094-2.279-0.731c-0.413-0.826-0.065-1.842,0.778-2.266c0.847-0.42,1.868-0.096,2.284,0.73
						C30.26,27.11,29.91,28.125,29.065,28.55z M45.494,26.712c-1.814,0.952-4.735,0.79-5.553-0.746
						c-0.818-1.538,0.563-4.019,2.378-4.968c1.814-0.949,3.949-0.473,4.766,1.063C47.904,23.6,47.309,25.763,45.494,26.712z"/>
				</g>
			</g>
		</g>
	</g>
	<g id="DrawingsShapesStrokesDefault">
	</g>
</g>
<g id="Layer_21">
</g>
<g id="Layer_22">
</g>
<g id="Layer_23" display="none">
</g>
</svg>
