<?xml version="1.0" encoding="utf-8"?>
<!-- Generator: Adobe Illustrator 15.0.0, SVG Export Plug-In . SVG Version: 6.00 Build 0)  -->
<!DOCTYPE svg PUBLIC "-//W3C//DTD SVG 1.1//EN" "http://www.w3.org/Graphics/SVG/1.1/DTD/svg11.dtd">
<svg version="1.1" id="Layer_2" xmlns="http://www.w3.org/2000/svg" xmlns:xlink="http://www.w3.org/1999/xlink" x="0px" y="0px"
	 width="60px" height="58px" viewBox="0 0 60 58" enable-background="new 0 0 60 58" xml:space="preserve">
<g>
	<g>
		<g>
			<path fill="#FFAA00" d="M56.881,8.607c0-2.966-2.507-5.367-5.6-5.367H8.721c-3.093,0-5.6,2.401-5.6,5.367v40.786
				c0,2.965,2.507,5.366,5.6,5.366h42.561c3.093,0,5.6-2.401,5.6-5.366L56.881,8.607L56.881,8.607z"/>
		</g>
		<defs>
			<filter id="Adobe_OpacityMaskFilter" filterUnits="userSpaceOnUse" x="3.121" y="3.24" width="53.761" height="51.519">
				<feColorMatrix  type="matrix" values="1 0 0 0 0  0 1 0 0 0  0 0 1 0 0  0 0 0 1 0"/>
			</filter>
		</defs>
		<mask maskUnits="userSpaceOnUse" x="3.121" y="3.24" width="53.761" height="51.519" id="SVGID_2_">
			<g filter="url(#Adobe_OpacityMaskFilter)">
			</g>
		</mask>
		<g opacity="0.31" mask="url(#SVGID_2_)">
			<path d="M56.881,8.607c0-2.966-2.507-5.367-5.6-5.367H8.721c-3.093,0-5.6,2.401-5.6,5.367v40.786c0,2.965,2.507,5.366,5.6,5.366
				h42.561c3.093,0,5.6-2.401,5.6-5.366L56.881,8.607L56.881,8.607z"/>
		</g>
	</g>
	<path fill-opacity="0.17" d="M51.277,4.36H8.716c-2.47,0-4.479,1.906-4.479,4.248v40.787c0,2.34,2.01,4.246,4.479,4.246h42.562
		c2.47,0,4.479-1.906,4.479-4.246V8.608C55.756,6.266,53.746,4.36,51.277,4.36z M52.756,49.395c0,0.676-0.677,1.246-1.479,1.246
		H8.716c-0.802,0-1.479-0.57-1.479-1.246V8.608c0-0.676,0.677-1.248,1.479-1.248h42.562c0.802,0,1.479,0.572,1.479,1.248V49.395z"/>
	
		<linearGradient id="SVGID_1_" gradientUnits="userSpaceOnUse" x1="30.0015" y1="3.1206" x2="30.0015" y2="56.1381" gradientTransform="matrix(1 0 0 -1 0 59)">
		<stop  offset="0" style="stop-color:#FFFFFF"/>
		<stop  offset="0.2309" style="stop-color:#FBFBFB"/>
		<stop  offset="0.4598" style="stop-color:#EFEFEF"/>
		<stop  offset="0.6879" style="stop-color:#DBDBDB"/>
		<stop  offset="0.9144" style="stop-color:#C0C0C0"/>
		<stop  offset="1" style="stop-color:#B3B3B3"/>
	</linearGradient>
	<path fill="url(#SVGID_1_)" d="M51.281,55.88H8.721c-3.705,0-6.72-2.909-6.72-6.485V8.607c0-3.578,3.015-6.487,6.72-6.487h42.561
		c3.704,0,6.72,2.909,6.72,6.487v40.786C58.001,52.971,54.986,55.88,51.281,55.88z M8.721,4.36c-2.47,0-4.479,1.905-4.479,4.247
		v40.786c0,2.342,2.01,4.246,4.479,4.246h42.561c2.47,0,4.479-1.904,4.479-4.246V8.607c0-2.342-2.011-4.247-4.479-4.247H8.721z"/>
	<g>
		<path fill="#FFFFFF" d="M42.934,35.495c-0.764-1.552-2.259-2.42-3.449-2.988c-0.573-0.272-3.219-1.348-3.74-1.683
			c-0.866-0.551-3.182-2.091-3.182-2.091c-0.256-0.171-0.567-0.197-0.691-0.059c-0.124,0.138-0.352,0.034-0.506-0.233
			c0,0-2.68-4.634-5.646-7.204c-4.554-3.943-12.354-2.535-12.354-2.535c-0.303,0.055-0.344,0.243-0.091,0.419l16.305,11.271
			c0.254,0.176,0.347,0.445,0.207,0.602c-0.14,0.156-0.061,0.443,0.175,0.642c0,0,1.104,0.927,1.971,2.04
			c0.529,0.682,0.844,1.237,1.18,1.924c0.193,0.426,0.296,0.894,0.268,1.056c-0.193,1.138,0.204,2.825,0.809,4.03
			c1.303,2.602,4.955,3.369,7.097,2.297C43.421,41.908,44.384,38.434,42.934,35.495z M28.499,28.274
			c-0.688,0.343-1.521,0.075-1.858-0.598c-0.337-0.674-0.054-1.501,0.635-1.847c0.689-0.343,1.523-0.078,1.861,0.595
			C29.473,27.099,29.188,27.926,28.499,28.274z M40.727,41.086c-1.486,0.775-3.898,0.247-4.83-1.609
			c-0.932-1.857-0.633-4.777,0.863-5.529c1.5-0.748,4.199,0.513,5.131,2.371S42.384,40.225,40.727,41.086z"/>
	</g>
	<g>
		<g>
			<path fill="#FFFFFF" d="M48.05,21.694c-1.252-2.543-4.491-3.094-7.028-1.766c-1.174,0.613-1.873,1.642-2.545,2.526
				c-0.232,0.311-0.418,0.69-1.3,1.139c-1.003,0.521-1.459,0.685-2.472,0.902c-1.37,0.292-1.391,0.294-1.391,0.294
				c-0.307,0.029-0.563,0.25-0.571,0.49c-0.009,0.24-0.267,0.425-0.574,0.411l-20.072-0.904c-0.308-0.014-0.449,0.201-0.315,0.479
				c0,0,2.216,4.565,11.972,4.731c3.783,0.064,8.371-1.703,8.371-1.703c0.287-0.11,0.52-0.085,0.514,0.058
				c-0.005,0.143,0.242,0.282,0.549,0.311c0,0,1.91,0.179,2.937,0.259c0.619,0.047,2.81,0.264,4.244,0.361
				c1.538,0.103,3.603-0.143,5.108-0.932C48.014,27.022,49.148,23.927,48.05,21.694z M28.638,28.552
				c-0.845,0.42-1.865,0.092-2.279-0.732c-0.414-0.827-0.065-1.842,0.778-2.266c0.846-0.421,1.868-0.096,2.283,0.729
				C29.832,27.11,29.482,28.125,28.638,28.552z M45.066,26.714c-1.815,0.949-4.735,0.789-5.553-0.748
				c-0.818-1.535,0.562-4.018,2.377-4.968c1.813-0.947,3.948-0.472,4.766,1.064C47.477,23.601,46.88,25.765,45.066,26.714z"/>
		</g>
	</g>
</g>
</svg>
