<?xml version="1.0" encoding="utf-8"?>
<!-- Generator: Adobe Illustrator 16.0.0, SVG Export Plug-In . SVG Version: 6.00 Build 0)  -->
<!DOCTYPE svg PUBLIC "-//W3C//DTD SVG 1.1//EN" "http://www.w3.org/Graphics/SVG/1.1/DTD/svg11.dtd">
<svg version="1.1" xmlns="http://www.w3.org/2000/svg" xmlns:xlink="http://www.w3.org/1999/xlink" x="0px" y="0px" width="60px"
	 height="58px" viewBox="0 0 60 58" enable-background="new 0 0 60 58" xml:space="preserve">
<g id="Pressed_states" display="none">
	<g id="buttons_pressed" display="inline">
	</g>
	<g id="buttons_pressed_on" display="inline">
	</g>
	<g id="buttons_pressed_copy" display="inline">
	</g>
	<g id="DrawingToolsButtonsTaped" display="inline">
		<g>
			<g>
				<g>
					<path fill="#FFAA00" d="M57.48,8.609c0-2.966-2.507-5.367-5.6-5.367H9.32c-3.093,0-5.6,2.401-5.6,5.367v40.787
						c0,2.964,2.507,5.365,5.6,5.365h42.561c3.093,0,5.6-2.401,5.6-5.365V8.609z"/>
				</g>
				<defs>
					<filter id="Adobe_OpacityMaskFilter" filterUnits="userSpaceOnUse" x="3.721" y="3.242" width="53.76" height="51.52">
						
							<feColorMatrix  type="matrix" values="-1 0 0 0 1  0 -1 0 0 1  0 0 -1 0 1  0 0 0 1 0" color-interpolation-filters="sRGB" result="source"/>
					</filter>
				</defs>
				<mask maskUnits="userSpaceOnUse" x="3.721" y="3.242" width="53.76" height="51.52" id="SVGID_2_">
					<g filter="url(#Adobe_OpacityMaskFilter)">
						<image overflow="visible" width="59" height="57" xlink:href="BAAEC897.jpg"  transform="matrix(1 0 0 1 0.999 0.332)">
						</image>
					</g>
				</mask>
				<g opacity="0.31" mask="url(#SVGID_2_)">
					<path d="M57.48,8.609c0-2.966-2.507-5.367-5.6-5.367H9.32c-3.093,0-5.6,2.401-5.6,5.367v40.787c0,2.964,2.507,5.365,5.6,5.365
						h42.561c3.093,0,5.6-2.401,5.6-5.365V8.609z"/>
				</g>
			</g>
			<linearGradient id="SVGID_4_" gradientUnits="userSpaceOnUse" x1="29.999" y1="55.8818" x2="29.999" y2="2.8633">
				<stop  offset="0" style="stop-color:#FFFFFF"/>
				<stop  offset="0.2309" style="stop-color:#FBFBFB"/>
				<stop  offset="0.4598" style="stop-color:#EFEFEF"/>
				<stop  offset="0.6879" style="stop-color:#DBDBDB"/>
				<stop  offset="0.9144" style="stop-color:#C0C0C0"/>
				<stop  offset="1" style="stop-color:#B3B3B3"/>
			</linearGradient>
			<path fill="url(#SVGID_4_)" d="M57.999,49.396c0,3.582-3.009,6.485-6.72,6.485H8.719c-3.711,0-6.72-2.903-6.72-6.485V8.607
				c0-3.582,3.009-6.485,6.72-6.485h42.561c3.711,0,6.72,2.903,6.72,6.485V49.396z M55.759,8.609c0-2.347-2.006-4.247-4.479-4.247
				H8.719c-2.474,0-4.479,1.9-4.479,4.247v40.785c0,2.347,2.006,4.247,4.479,4.247h42.561c2.474,0,4.479-1.9,4.479-4.247V8.609z"/>
			<path fill="#FFFFFF" d="M44.502,35.212c-1.185-1.245-11.896-11.996-11.896-11.996l2.1-2.133c0,0,4.427-4.864-2.699-4.864
				c-0.87,0-10.731,0-10.731,0s-1.003-0.03-1.959,0.978c-1.021,0.882-0.958,1.942-0.958,1.942s0.011,9.861,0,10.73
				c0,3.115,1.907,5.658,4.865,2.699c0.784-0.784,2.132-2.099,2.132-2.099s10.782,10.68,11.999,11.896c1.216,1.218,2.766,0,2.766,0
				l2.082-2.022l0.002,0.003l0.086-0.088l0.195-0.191l-0.006-0.007l2.023-2.08C44.502,37.979,45.884,36.667,44.502,35.212z"/>
		</g>
	</g>
	<g id="DrawingsShapesStrokesTaped" display="inline">
	</g>
</g>
<g id="Layer_17" display="none">
</g>
<g id="unpress_states">
	<g id="Buttons_copy">
	</g>
	<g id="Buttons_on">
	</g>
	<g id="Buttons">
	</g>
	<g id="DrawingToolsButtonsDefault">
		<g>
			<linearGradient id="SVGID_6_" gradientUnits="userSpaceOnUse" x1="29.999" y1="3.8018" x2="29.999" y2="55.5155">
				<stop  offset="0.3573" style="stop-color:#FFFFFF"/>
				<stop  offset="0.5178" style="stop-color:#FBFBFB"/>
				<stop  offset="0.6599" style="stop-color:#F1F1F1"/>
				<stop  offset="0.7949" style="stop-color:#DFDFDF"/>
				<stop  offset="0.9249" style="stop-color:#C5C5C5"/>
				<stop  offset="1" style="stop-color:#B3B3B3"/>
			</linearGradient>
			<path fill="url(#SVGID_6_)" d="M56.879,8.609c0-2.965-2.507-5.367-5.6-5.367H8.719c-3.093,0-5.6,2.402-5.6,5.367v40.785
				c0,2.965,2.507,5.367,5.6,5.367h42.561c3.093,0,5.6-2.402,5.6-5.367V8.609z"/>
			<linearGradient id="SVGID_8_" gradientUnits="userSpaceOnUse" x1="29.999" y1="55.8818" x2="29.999" y2="2.8633">
				<stop  offset="0" style="stop-color:#FFFFFF"/>
				<stop  offset="0.2309" style="stop-color:#FBFBFB"/>
				<stop  offset="0.4598" style="stop-color:#EFEFEF"/>
				<stop  offset="0.6879" style="stop-color:#DBDBDB"/>
				<stop  offset="0.9144" style="stop-color:#C0C0C0"/>
				<stop  offset="1" style="stop-color:#B3B3B3"/>
			</linearGradient>
			<path fill="url(#SVGID_8_)" d="M57.999,49.396c0,3.582-3.009,6.485-6.72,6.485H8.719c-3.711,0-6.72-2.903-6.72-6.485V8.607
				c0-3.582,3.009-6.485,6.72-6.485h42.561c3.711,0,6.72,2.903,6.72,6.485V49.396z M55.759,8.609c0-2.347-2.006-4.247-4.479-4.247
				H8.719c-2.474,0-4.479,1.9-4.479,4.247v40.785c0,2.347,2.006,4.247,4.479,4.247h42.561c2.474,0,4.479-1.9,4.479-4.247V8.609z"/>
			<path fill="#606060" d="M44.332,35.332c-1.209-1.272-12.148-12.25-12.148-12.25l2.144-2.178c0,0,4.521-4.97-2.756-4.97
				c-0.888,0-10.958,0-10.958,0s-1.024-0.029-2.001,0.999c-1.042,0.901-0.978,1.984-0.978,1.984s0.01,10.07,0,10.958
				c0,3.182,1.947,5.778,4.968,2.756c0.801-0.8,2.179-2.144,2.179-2.144s11.01,10.907,12.251,12.148c1.243,1.243,2.825,0,2.825,0
				l2.125-2.065l0.003,0.003l0.087-0.09l0.2-0.195l-0.006-0.006l2.066-2.125C44.332,38.158,45.744,36.818,44.332,35.332z"/>
		</g>
	</g>
	<g id="DrawingsShapesStrokesDefault">
	</g>
</g>
<g id="Layer_21">
</g>
<g id="Layer_22">
</g>
<g id="Layer_23" display="none">
</g>
</svg>
