<svg xmlns="http://www.w3.org/2000/svg" width="60" height="58" viewBox="0 0 60 58"><path fill="#FA0" d="M57.48 8.609c0-2.966-2.508-5.367-5.601-5.367H9.32c-3.093 0-5.6 2.401-5.6 5.367v40.788c0 2.963 2.507 5.364 5.6 5.364h42.561c3.094 0 5.6-2.401 5.6-5.364V8.609h-.001z"/><defs><filter id="a" filterUnits="userSpaceOnUse" x="3.72" y="3.242" width="53.76" height="51.519"><feColorMatrix values="1 0 0 0 0 0 1 0 0 0 0 0 1 0 0 0 0 0 1 0"/></filter></defs><g opacity=".31" mask="url(#b)"><path d="M57.48 8.609c0-2.966-2.508-5.367-5.601-5.367H9.32c-3.093 0-5.6 2.401-5.6 5.367v40.788c0 2.963 2.507 5.364 5.6 5.364h42.561c3.094 0 5.6-2.401 5.6-5.364V8.609h-.001z"/></g><path fill-opacity=".17" d="M51.277 4.36H8.716c-2.47 0-4.479 1.906-4.479 4.248v40.787c0 2.34 2.01 4.246 4.479 4.246h42.562c2.47 0 4.479-1.906 4.479-4.246V8.608c-.001-2.342-2.011-4.248-4.48-4.248zm1.479 45.035c0 .676-.677 1.246-1.479 1.246H8.716c-.802 0-1.479-.57-1.479-1.246V8.608c0-.676.677-1.248 1.479-1.248h42.562c.802 0 1.479.572 1.479 1.248v40.787z"/><linearGradient id="c" gradientUnits="userSpaceOnUse" x1="30" y1="3.12" x2="30" y2="56.138" gradientTransform="matrix(1 0 0 -1 0 59)"><stop offset="0" stop-color="#fff"/><stop offset=".231" stop-color="#fbfbfb"/><stop offset=".46" stop-color="#efefef"/><stop offset=".688" stop-color="#dbdbdb"/><stop offset=".914" stop-color="silver"/><stop offset="1" stop-color="#b3b3b3"/></linearGradient><path fill="url(#c)" d="M57.999 49.396c0 3.582-3.009 6.484-6.72 6.484H8.719c-3.711 0-6.72-2.902-6.72-6.484V8.607c0-3.582 3.009-6.485 6.72-6.485h42.56C54.991 2.122 58 5.025 58 8.607l-.001 40.789zm-2.24-40.787c0-2.347-2.006-4.247-4.479-4.247H8.719c-2.474 0-4.479 1.9-4.479 4.247v40.786c0 2.347 2.006 4.246 4.479 4.246h42.56c2.475 0 4.479-1.899 4.479-4.246V8.609z"/><path fill="#FFF" d="M44.502 35.212c-1.186-1.245-11.896-11.996-11.896-11.996l2.101-2.133s4.427-4.864-2.699-4.864H21.277s-1.003-.03-1.959.979c-1.021.882-.958 1.942-.958 1.942s.011 9.861 0 10.73c0 3.115 1.907 5.658 4.865 2.699.784-.784 2.132-2.1 2.132-2.1s10.783 10.68 12 11.896c1.215 1.218 2.766 0 2.766 0l2.082-2.022.002.003.086-.088.195-.191-.006-.006 2.022-2.08c-.002-.002 1.38-1.314-.002-2.769z"/></svg>