<svg xmlns="http://www.w3.org/2000/svg" width="60" height="58" viewBox="0 0 60 58"><linearGradient id="d" gradientUnits="userSpaceOnUse" x1="29.999" y1="3.802" x2="29.999" y2="55.516"><stop offset=".357" stop-color="#fff"/><stop offset=".518" stop-color="#fbfbfb"/><stop offset=".66" stop-color="#f1f1f1"/><stop offset=".795" stop-color="#dfdfdf"/><stop offset=".925" stop-color="#c5c5c5"/><stop offset="1" stop-color="#b3b3b3"/></linearGradient><path fill="url(#d)" d="M56.879 8.609c0-2.965-2.507-5.367-5.6-5.367H8.719c-3.093 0-5.6 2.402-5.6 5.367v40.785c0 2.965 2.507 5.367 5.6 5.367H51.28c3.093 0 5.6-2.402 5.6-5.367V8.609z"/><linearGradient id="e" gradientUnits="userSpaceOnUse" x1="29.999" y1="55.882" x2="29.999" y2="2.863"><stop offset="0" stop-color="#fff"/><stop offset=".231" stop-color="#fbfbfb"/><stop offset=".46" stop-color="#efefef"/><stop offset=".688" stop-color="#dbdbdb"/><stop offset=".914" stop-color="silver"/><stop offset="1" stop-color="#b3b3b3"/></linearGradient><path fill="url(#e)" d="M57.999 49.396c0 3.582-3.009 6.485-6.72 6.485H8.719c-3.711 0-6.72-2.903-6.72-6.485V8.607c0-3.582 3.009-6.485 6.72-6.485H51.28c3.711 0 6.72 2.903 6.72 6.485v40.789zm-2.24-40.787c0-2.347-2.006-4.247-4.479-4.247H8.719c-2.474 0-4.479 1.9-4.479 4.247v40.785c0 2.347 2.006 4.247 4.479 4.247H51.28c2.474 0 4.479-1.9 4.479-4.247V8.609z"/><path fill="#606060" d="M44.332 35.332c-1.209-1.272-12.148-12.25-12.148-12.25l2.144-2.178s4.521-4.97-2.756-4.97H20.614s-1.024-.029-2.001.999c-1.042.901-.978 1.984-.978 1.984s.01 10.07 0 10.958c0 3.182 1.947 5.778 4.968 2.756.801-.8 2.179-2.144 2.179-2.144s11.01 10.907 12.251 12.148c1.243 1.243 2.825 0 2.825 0l2.125-2.065.003.003.087-.09.2-.195-.006-.006 2.066-2.125c-.001.001 1.411-1.339-.001-2.825z"/></svg>