<?xml version="1.0" encoding="utf-8"?>
<!-- Generator: Adobe Illustrator 15.0.0, SVG Export Plug-In . SVG Version: 6.00 Build 0)  -->
<!DOCTYPE svg PUBLIC "-//W3C//DTD SVG 1.1//EN" "http://www.w3.org/Graphics/SVG/1.1/DTD/svg11.dtd">
<svg version="1.1" id="Layer_2" xmlns="http://www.w3.org/2000/svg" xmlns:xlink="http://www.w3.org/1999/xlink" x="0px" y="0px"
	 width="60px" height="58px" viewBox="0 0 60 58" enable-background="new 0 0 60 58" xml:space="preserve">
<g>
	<g>
		<g>
			<path fill="#FFAA00" d="M57.48,8.609c0-2.966-2.508-5.367-5.601-5.367H9.32c-3.093,0-5.6,2.401-5.6,5.367v40.788
				c0,2.963,2.507,5.364,5.6,5.364h42.561c3.094,0,5.6-2.401,5.6-5.364V8.609L57.48,8.609z"/>
		</g>
		<defs>
			<filter id="Adobe_OpacityMaskFilter" filterUnits="userSpaceOnUse" x="3.72" y="3.242" width="53.76" height="51.519">
				<feColorMatrix  type="matrix" values="1 0 0 0 0  0 1 0 0 0  0 0 1 0 0  0 0 0 1 0"/>
			</filter>
		</defs>
		<mask maskUnits="userSpaceOnUse" x="3.72" y="3.242" width="53.76" height="51.519" id="SVGID_2_">
			<g filter="url(#Adobe_OpacityMaskFilter)">
			</g>
		</mask>
		<g opacity="0.31" mask="url(#SVGID_2_)">
			<path d="M57.48,8.609c0-2.966-2.508-5.367-5.601-5.367H9.32c-3.093,0-5.6,2.401-5.6,5.367v40.788c0,2.963,2.507,5.364,5.6,5.364
				h42.561c3.094,0,5.6-2.401,5.6-5.364V8.609L57.48,8.609z"/>
		</g>
	</g>
	<path fill-opacity="0.17" d="M51.277,4.36H8.716c-2.47,0-4.479,1.906-4.479,4.248v40.787c0,2.34,2.01,4.246,4.479,4.246h42.562
		c2.47,0,4.479-1.906,4.479-4.246V8.608C55.756,6.266,53.746,4.36,51.277,4.36z M52.756,49.395c0,0.676-0.677,1.246-1.479,1.246
		H8.716c-0.802,0-1.479-0.57-1.479-1.246V8.608c0-0.676,0.677-1.248,1.479-1.248h42.562c0.802,0,1.479,0.572,1.479,1.248V49.395z"/>
	
		<linearGradient id="SVGID_1_" gradientUnits="userSpaceOnUse" x1="29.9995" y1="3.1196" x2="29.9995" y2="56.1381" gradientTransform="matrix(1 0 0 -1 0 59)">
		<stop  offset="0" style="stop-color:#FFFFFF"/>
		<stop  offset="0.2309" style="stop-color:#FBFBFB"/>
		<stop  offset="0.4598" style="stop-color:#EFEFEF"/>
		<stop  offset="0.6879" style="stop-color:#DBDBDB"/>
		<stop  offset="0.9144" style="stop-color:#C0C0C0"/>
		<stop  offset="1" style="stop-color:#B3B3B3"/>
	</linearGradient>
	<path fill="url(#SVGID_1_)" d="M57.999,49.396c0,3.582-3.009,6.484-6.72,6.484H8.719c-3.711,0-6.72-2.902-6.72-6.484V8.607
		c0-3.582,3.009-6.485,6.72-6.485h42.56C54.991,2.122,58,5.025,58,8.607L57.999,49.396L57.999,49.396z M55.759,8.609
		c0-2.347-2.006-4.247-4.479-4.247H8.719c-2.474,0-4.479,1.9-4.479,4.247v40.786c0,2.347,2.006,4.246,4.479,4.246h42.56
		c2.475,0,4.479-1.899,4.479-4.246V8.609z"/>
	<path fill="#FFFFFF" d="M44.502,35.212c-1.186-1.245-11.896-11.996-11.896-11.996l2.101-2.133c0,0,4.427-4.864-2.699-4.864
		c-0.87,0-10.731,0-10.731,0s-1.003-0.03-1.959,0.979c-1.021,0.882-0.958,1.942-0.958,1.942s0.011,9.861,0,10.73
		c0,3.115,1.907,5.658,4.865,2.699c0.784-0.784,2.132-2.1,2.132-2.1s10.783,10.68,12,11.896c1.215,1.218,2.766,0,2.766,0
		l2.082-2.022l0.002,0.003l0.086-0.088l0.195-0.191l-0.006-0.006l2.022-2.08C44.502,37.979,45.884,36.667,44.502,35.212z"/>
</g>
</svg>
