<svg xmlns="http://www.w3.org/2000/svg" width="60" height="58" viewBox="0 0 60 58"><linearGradient id="d" gradientUnits="userSpaceOnUse" x1="30" y1="3.797" x2="30" y2="55.513"><stop offset=".357" stop-color="#fff"/><stop offset=".518" stop-color="#fbfbfb"/><stop offset=".66" stop-color="#f1f1f1"/><stop offset=".795" stop-color="#dfdfdf"/><stop offset=".925" stop-color="#c5c5c5"/><stop offset="1" stop-color="#b3b3b3"/></linearGradient><path fill="url(#d)" d="M56.88 8.604c0-2.963-2.507-5.367-5.6-5.367H8.72c-3.093 0-5.6 2.404-5.6 5.367v40.787c0 2.965 2.507 5.367 5.6 5.367h42.56c3.093 0 5.6-2.402 5.6-5.367V8.604z"/><linearGradient id="e" gradientUnits="userSpaceOnUse" x1="30" y1="55.878" x2="30" y2="2.859"><stop offset="0" stop-color="#fff"/><stop offset=".231" stop-color="#fbfbfb"/><stop offset=".46" stop-color="#efefef"/><stop offset=".688" stop-color="#dbdbdb"/><stop offset=".914" stop-color="silver"/><stop offset="1" stop-color="#b3b3b3"/></linearGradient><path fill="url(#e)" d="M51.28 55.878H8.72C5.015 55.878 2 52.97 2 49.392V8.604c0-3.576 3.015-6.486 6.72-6.486h42.56c3.706 0 6.72 2.91 6.72 6.486v40.787c0 3.579-3.014 6.487-6.72 6.487zM8.72 4.358c-2.47 0-4.48 1.904-4.48 4.246v40.787c0 2.342 2.01 4.246 4.48 4.246h42.56c2.47 0 4.479-1.904 4.479-4.246V8.604c0-2.342-2.01-4.246-4.479-4.246H8.72z"/><path fill="#606060" stroke="#606060" stroke-width=".56" stroke-miterlimit="10" d="M46.52 18.62c0-2.395-1.811-2.781-2.783-2.781H17.943c-.973 0-2.783.633-2.783 2.781v21.875c0 2.102 1.811 2.783 2.783 2.783h25.794c.972 0 2.783-.535 2.783-2.783V18.62z"/><circle fill="none" stroke="#FFF" stroke-width="3.36" stroke-miterlimit="10" cx="31.192" cy="28.692" r="8.354"/><path fill="#606060" stroke="#606060" stroke-width=".56" stroke-miterlimit="10" d="M44.84 14.737c0-.938-1.072-1.699-2.395-1.699h-3.89c-1.322 0-2.676.762-2.676 1.699v2.762c0 .938 1.354 1.699 2.676 1.699h3.89c1.322 0 2.395-.762 2.395-1.699v-2.762z"/><circle fill="#FFF" cx="28.322" cy="26.64" r="2.893"/></svg>