<?xml version="1.0" encoding="utf-8"?>
<!-- Generator: Adobe Illustrator 15.0.0, SVG Export Plug-In . SVG Version: 6.00 Build 0)  -->
<!DOCTYPE svg PUBLIC "-//W3C//DTD SVG 1.1//EN" "http://www.w3.org/Graphics/SVG/1.1/DTD/svg11.dtd">
<svg version="1.1" id="Layer_2" xmlns="http://www.w3.org/2000/svg" xmlns:xlink="http://www.w3.org/1999/xlink" x="0px" y="0px"
	 width="60px" height="58px" viewBox="0 0 60 58" enable-background="new 0 0 60 58" xml:space="preserve">
<g>
	<g>
		<g>
			<path fill="#FFAA00" d="M56.88,8.604c0-2.965-2.507-5.365-5.601-5.365H8.72c-3.093,0-5.6,2.4-5.6,5.365v40.789
				c0,2.963,2.507,5.365,5.6,5.365h42.559c3.094,0,5.601-2.402,5.601-5.365V8.604z"/>
		</g>
		<defs>
			<filter id="Adobe_OpacityMaskFilter" filterUnits="userSpaceOnUse" x="3.12" y="3.239" width="53.76" height="51.519">
				<feColorMatrix  type="matrix" values="1 0 0 0 0  0 1 0 0 0  0 0 1 0 0  0 0 0 1 0"/>
			</filter>
		</defs>
		<mask maskUnits="userSpaceOnUse" x="3.12" y="3.239" width="53.76" height="51.519" id="SVGID_2_">
			<g filter="url(#Adobe_OpacityMaskFilter)">
			</g>
		</mask>
		<g opacity="0.31" mask="url(#SVGID_2_)">
			<path d="M56.88,8.604c0-2.965-2.507-5.365-5.601-5.365H8.72c-3.093,0-5.6,2.4-5.6,5.365v40.789c0,2.963,2.507,5.365,5.6,5.365
				h42.559c3.094,0,5.601-2.402,5.601-5.365V8.604z"/>
		</g>
	</g>
	<path fill-opacity="0.17" d="M51.277,4.36H8.716c-2.47,0-4.479,1.906-4.479,4.248v40.787c0,2.34,2.01,4.246,4.479,4.246h42.562
		c2.47,0,4.479-1.906,4.479-4.246V8.608C55.756,6.266,53.746,4.36,51.277,4.36z M52.756,49.395c0,0.676-0.677,1.246-1.479,1.246
		H8.716c-0.802,0-1.479-0.57-1.479-1.246V8.608c0-0.676,0.677-1.248,1.479-1.248h42.562c0.802,0,1.479,0.572,1.479,1.248V49.395z"/>
	
		<linearGradient id="SVGID_1_" gradientUnits="userSpaceOnUse" x1="30" y1="3.1226" x2="30" y2="56.1401" gradientTransform="matrix(1 0 0 -1 0 59)">
		<stop  offset="0" style="stop-color:#FFFFFF"/>
		<stop  offset="0.2309" style="stop-color:#FBFBFB"/>
		<stop  offset="0.4598" style="stop-color:#EFEFEF"/>
		<stop  offset="0.6879" style="stop-color:#DBDBDB"/>
		<stop  offset="0.9144" style="stop-color:#C0C0C0"/>
		<stop  offset="1" style="stop-color:#B3B3B3"/>
	</linearGradient>
	<path fill="url(#SVGID_1_)" d="M51.279,55.878H8.72C5.015,55.878,2,52.97,2,49.395V8.604c0-3.576,3.015-6.486,6.72-6.486h42.559
		c3.707,0,6.721,2.91,6.721,6.486v40.789C58,52.97,54.986,55.878,51.279,55.878z M8.72,4.358c-2.47,0-4.48,1.906-4.48,4.246v40.789
		c0,2.34,2.01,4.244,4.48,4.244h42.559c2.471,0,4.479-1.904,4.479-4.244V8.604c0-2.34-2.01-4.246-4.479-4.246H8.72z"/>
	<path fill="#FFFFFF" d="M14.925,10.229l2.361,4.5c0,0,0.756,1.59,2.615,1.279c1.86-0.313,5.165-0.863,5.165-0.863l-4.488,2.652
		c0,0-1.685,0.693-1.38,2.752c0.3,2.057,0.675,4.6,0.675,4.6s-1.305-2.295-2.231-3.98c-0.926-1.686-2.81-1.467-2.81-1.467
		l-5.1,0.529c0,0,2.939-1.51,4.523-2.342c1.58-0.828,1.362-2.797,1.362-2.797L14.925,10.229z"/>
	<path fill="none" d="M31.191,19.218c-5.533,0-10.034,4.5-10.034,10.035c0,5.531,4.5,10.033,10.034,10.033
		c5.533,0,10.033-4.502,10.033-10.033C41.227,23.718,36.725,19.218,31.191,19.218z M31.191,35.927c-3.68,0-6.674-2.993-6.674-6.674
		c0-0.289,0.024-0.572,0.061-0.852c-0.169-0.367-0.269-0.771-0.269-1.201c0-1.412,1.016-2.588,2.356-2.84
		c1.191-1.102,2.778-1.781,4.524-1.781c3.681,0,6.674,2.992,6.674,6.674C37.866,32.934,34.872,35.927,31.191,35.927z"/>
	<path fill="#FFFFFF" stroke="#FFFFFF" stroke-width="0.56" stroke-miterlimit="10" d="M31.191,22.579
		c-1.748,0-3.334,0.68-4.525,1.781c0.174-0.031,0.353-0.055,0.536-0.055c1.597,0,2.893,1.299,2.893,2.895
		c0,1.598-1.296,2.893-2.893,2.893c-1.167,0-2.167-0.695-2.624-1.691c-0.036,0.279-0.061,0.563-0.061,0.852
		c0,3.68,2.994,6.674,6.674,6.674c3.68,0,6.674-2.994,6.674-6.674C37.866,25.571,34.872,22.579,31.191,22.579z"/>
	<path fill="#FFFFFF" stroke="#FFFFFF" stroke-width="0.56" stroke-miterlimit="10" d="M44.84,16.571v-1.273
		c0-0.938-1.072-1.699-2.395-1.699h-3.891c-1.322,0-2.676,0.762-2.676,1.699V16.4H17.943c-0.973,0-2.783,0.631-2.783,2.779v21.877
		c0,2.1,1.811,2.782,2.783,2.782h25.793c0.973,0,2.783-0.537,2.783-2.782V19.179C46.52,17.552,45.684,16.851,44.84,16.571z
		 M31.191,39.286c-5.533,0-10.034-4.502-10.034-10.033c0-5.535,4.5-10.035,10.034-10.035c5.533,0,10.033,4.5,10.033,10.035
		C41.227,34.784,36.725,39.286,31.191,39.286z"/>
</g>
</svg>
