<svg xmlns="http://www.w3.org/2000/svg" width="60" height="58" viewBox="0 0 60 58"><path fill="#FA0" d="M56.88 8.604c0-2.965-2.507-5.365-5.601-5.365H8.72c-3.093 0-5.6 2.4-5.6 5.365v40.789c0 2.963 2.507 5.365 5.6 5.365h42.559c3.094 0 5.601-2.402 5.601-5.365V8.604z"/><defs><filter id="a" filterUnits="userSpaceOnUse" x="3.12" y="3.239" width="53.76" height="51.519"><feColorMatrix values="1 0 0 0 0 0 1 0 0 0 0 0 1 0 0 0 0 0 1 0"/></filter></defs><g opacity=".31" mask="url(#b)"><path d="M56.88 8.604c0-2.965-2.507-5.365-5.601-5.365H8.72c-3.093 0-5.6 2.4-5.6 5.365v40.789c0 2.963 2.507 5.365 5.6 5.365h42.559c3.094 0 5.601-2.402 5.601-5.365V8.604z"/></g><path fill-opacity=".17" d="M51.277 4.36H8.716c-2.47 0-4.479 1.906-4.479 4.248v40.787c0 2.34 2.01 4.246 4.479 4.246h42.562c2.47 0 4.479-1.906 4.479-4.246V8.608c-.001-2.342-2.011-4.248-4.48-4.248zm1.479 45.035c0 .676-.677 1.246-1.479 1.246H8.716c-.802 0-1.479-.57-1.479-1.246V8.608c0-.676.677-1.248 1.479-1.248h42.562c.802 0 1.479.572 1.479 1.248v40.787z"/><linearGradient id="c" gradientUnits="userSpaceOnUse" x1="30" y1="3.123" x2="30" y2="56.14" gradientTransform="matrix(1 0 0 -1 0 59)"><stop offset="0" stop-color="#fff"/><stop offset=".231" stop-color="#fbfbfb"/><stop offset=".46" stop-color="#efefef"/><stop offset=".688" stop-color="#dbdbdb"/><stop offset=".914" stop-color="silver"/><stop offset="1" stop-color="#b3b3b3"/></linearGradient><path fill="url(#c)" d="M51.279 55.878H8.72C5.015 55.878 2 52.97 2 49.395V8.604c0-3.576 3.015-6.486 6.72-6.486h42.559c3.707 0 6.721 2.91 6.721 6.486v40.789c0 3.577-3.014 6.485-6.721 6.485zM8.72 4.358c-2.47 0-4.48 1.906-4.48 4.246v40.789c0 2.34 2.01 4.244 4.48 4.244h42.559c2.471 0 4.479-1.904 4.479-4.244V8.604c0-2.34-2.01-4.246-4.479-4.246H8.72z"/><path fill="#FFF" d="M14.925 10.229l2.361 4.5s.756 1.59 2.615 1.279c1.86-.313 5.165-.863 5.165-.863l-4.488 2.652s-1.685.693-1.38 2.752c.3 2.057.675 4.6.675 4.6s-1.305-2.295-2.231-3.98c-.926-1.686-2.81-1.467-2.81-1.467l-5.1.529s2.939-1.51 4.523-2.342c1.58-.828 1.362-2.797 1.362-2.797l-.692-4.863z"/><path fill="none" d="M31.191 19.218c-5.533 0-10.034 4.5-10.034 10.035 0 5.531 4.5 10.033 10.034 10.033 5.533 0 10.033-4.502 10.033-10.033.003-5.535-4.499-10.035-10.033-10.035zm0 16.709a6.681 6.681 0 0 1-6.674-6.674c0-.289.024-.572.061-.852a2.859 2.859 0 0 1-.269-1.201 2.894 2.894 0 0 1 2.356-2.84 6.641 6.641 0 0 1 4.524-1.781 6.68 6.68 0 0 1 6.674 6.674c.003 3.681-2.991 6.674-6.672 6.674z"/><path fill="#FFF" stroke="#FFF" stroke-width=".56" stroke-miterlimit="10" d="M31.191 22.579c-1.748 0-3.334.68-4.525 1.781.174-.031.353-.055.536-.055a2.893 2.893 0 1 1 0 5.788 2.887 2.887 0 0 1-2.624-1.691 6.648 6.648 0 0 0-.061.852 6.682 6.682 0 0 0 6.674 6.674 6.682 6.682 0 0 0 6.674-6.674 6.68 6.68 0 0 0-6.674-6.675z"/><path fill="#FFF" stroke="#FFF" stroke-width=".56" stroke-miterlimit="10" d="M44.84 16.571v-1.273c0-.938-1.072-1.699-2.395-1.699h-3.891c-1.322 0-2.676.762-2.676 1.699V16.4H17.943c-.973 0-2.783.631-2.783 2.779v21.877c0 2.1 1.811 2.782 2.783 2.782h25.793c.973 0 2.783-.537 2.783-2.782V19.179c.001-1.627-.835-2.328-1.679-2.608zM31.191 39.286c-5.533 0-10.034-4.502-10.034-10.033 0-5.535 4.5-10.035 10.034-10.035 5.533 0 10.033 4.5 10.033 10.035.003 5.531-4.499 10.033-10.033 10.033z"/></svg>