<?xml version="1.0" encoding="utf-8"?>
<!-- Generator: Adobe Illustrator 16.0.0, SVG Export Plug-In . SVG Version: 6.00 Build 0)  -->
<!DOCTYPE svg PUBLIC "-//W3C//DTD SVG 1.1//EN" "http://www.w3.org/Graphics/SVG/1.1/DTD/svg11.dtd">
<svg version="1.1" xmlns="http://www.w3.org/2000/svg" xmlns:xlink="http://www.w3.org/1999/xlink" x="0px" y="0px" width="60px"
	 height="58px" viewBox="0 0 60 58" enable-background="new 0 0 60 58" xml:space="preserve">
<g id="Pressed_states" display="none">
	<g id="buttons_pressed" display="inline">
	</g>
	<g id="buttons_pressed_on" display="inline">
	</g>
	<g id="buttons_pressed_copy" display="inline">
	</g>
	<g id="DrawingToolsButtonsTaped" display="inline">
		<g>
			<g>
				<g>
					<path fill="#FFAA00" d="M56.88,8.604c0-2.965-2.507-5.365-5.6-5.365H8.72c-3.093,0-5.6,2.4-5.6,5.365v40.789
						c0,2.963,2.507,5.365,5.6,5.365h42.56c3.093,0,5.6-2.402,5.6-5.365V8.604z"/>
				</g>
				<defs>
					<filter id="Adobe_OpacityMaskFilter" filterUnits="userSpaceOnUse" x="3.12" y="3.239" width="53.76" height="51.52">
						
							<feColorMatrix  type="matrix" values="-1 0 0 0 1  0 -1 0 0 1  0 0 -1 0 1  0 0 0 1 0" color-interpolation-filters="sRGB" result="source"/>
					</filter>
				</defs>
				<mask maskUnits="userSpaceOnUse" x="3.12" y="3.239" width="53.76" height="51.52" id="SVGID_2_">
					<g filter="url(#Adobe_OpacityMaskFilter)">
						<image overflow="visible" width="58" height="57" xlink:href="A0235801.jpg"  transform="matrix(1 0 0 1 1 0.6885)">
						</image>
					</g>
				</mask>
				<g opacity="0.31" mask="url(#SVGID_2_)">
					<path d="M56.88,8.604c0-2.965-2.507-5.365-5.6-5.365H8.72c-3.093,0-5.6,2.4-5.6,5.365v40.789c0,2.963,2.507,5.365,5.6,5.365
						h42.56c3.093,0,5.6-2.402,5.6-5.365V8.604z"/>
				</g>
			</g>
			<linearGradient id="SVGID_4_" gradientUnits="userSpaceOnUse" x1="30" y1="55.8779" x2="30" y2="2.8594">
				<stop  offset="0" style="stop-color:#FFFFFF"/>
				<stop  offset="0.2309" style="stop-color:#FBFBFB"/>
				<stop  offset="0.4598" style="stop-color:#EFEFEF"/>
				<stop  offset="0.6879" style="stop-color:#DBDBDB"/>
				<stop  offset="0.9144" style="stop-color:#C0C0C0"/>
				<stop  offset="1" style="stop-color:#B3B3B3"/>
			</linearGradient>
			<path fill="url(#SVGID_4_)" d="M51.28,55.878H8.72C5.015,55.878,2,52.97,2,49.394V8.604c0-3.576,3.015-6.486,6.72-6.486h42.56
				c3.706,0,6.72,2.91,6.72,6.486v40.789C58,52.97,54.986,55.878,51.28,55.878z M8.72,4.358c-2.47,0-4.48,1.906-4.48,4.246v40.789
				c0,2.34,2.01,4.244,4.48,4.244h42.56c2.47,0,4.479-1.904,4.479-4.244V8.604c0-2.34-2.01-4.246-4.479-4.246H8.72z"/>
			<path fill="#FFFFFF" d="M14.925,10.229l2.361,4.5c0,0,0.756,1.59,2.615,1.279c1.86-0.313,5.165-0.863,5.165-0.863l-4.488,2.652
				c0,0-1.685,0.693-1.38,2.752c0.3,2.057,0.675,4.6,0.675,4.6s-1.305-2.295-2.231-3.98c-0.926-1.686-2.81-1.467-2.81-1.467
				l-5.1,0.529c0,0,2.939-1.51,4.523-2.342c1.58-0.828,1.362-2.797,1.362-2.797L14.925,10.229z"/>
			<path fill="none" d="M31.191,19.218c-5.533,0-10.034,4.5-10.034,10.035c0,5.531,4.5,10.033,10.034,10.033
				s10.034-4.502,10.034-10.033C41.226,23.718,36.725,19.218,31.191,19.218z M31.191,35.927c-3.68,0-6.674-2.994-6.674-6.674
				c0-0.289,0.024-0.572,0.061-0.852c-0.169-0.367-0.269-0.771-0.269-1.201c0-1.412,1.016-2.588,2.356-2.84
				c1.191-1.102,2.778-1.781,4.525-1.781c3.68,0,6.674,2.992,6.674,6.674C37.866,32.933,34.872,35.927,31.191,35.927z"/>
			<path fill="#FFFFFF" stroke="#FFFFFF" stroke-width="0.56" stroke-miterlimit="10" d="M31.191,22.579
				c-1.747,0-3.334,0.68-4.525,1.781c0.174-0.031,0.353-0.055,0.536-0.055c1.597,0,2.893,1.299,2.893,2.895
				c0,1.598-1.296,2.893-2.893,2.893c-1.167,0-2.167-0.695-2.624-1.691c-0.036,0.279-0.061,0.563-0.061,0.852
				c0,3.68,2.994,6.674,6.674,6.674s6.674-2.994,6.674-6.674C37.866,25.571,34.872,22.579,31.191,22.579z"/>
			<path fill="#FFFFFF" stroke="#FFFFFF" stroke-width="0.56" stroke-miterlimit="10" d="M44.84,16.571v-1.273
				c0-0.938-1.072-1.699-2.395-1.699h-3.89c-1.322,0-2.676,0.762-2.676,1.699v1.102H17.943c-0.973,0-2.783,0.631-2.783,2.779v21.877
				c0,2.1,1.811,2.783,2.783,2.783h25.794c0.972,0,2.783-0.537,2.783-2.783V19.179C46.52,17.552,45.683,16.851,44.84,16.571z
				 M31.191,39.286c-5.533,0-10.034-4.502-10.034-10.033c0-5.535,4.5-10.035,10.034-10.035s10.034,4.5,10.034,10.035
				C41.226,34.784,36.725,39.286,31.191,39.286z"/>
		</g>
	</g>
	<g id="DrawingsShapesStrokesTaped" display="inline">
	</g>
</g>
<g id="Layer_17" display="none">
</g>
<g id="unpress_states">
	<g id="Buttons_copy">
	</g>
	<g id="Buttons_on">
	</g>
	<g id="Buttons">
	</g>
	<g id="DrawingToolsButtonsDefault">
		<g>
			<linearGradient id="SVGID_6_" gradientUnits="userSpaceOnUse" x1="30" y1="3.7969" x2="30" y2="55.5126">
				<stop  offset="0.3573" style="stop-color:#FFFFFF"/>
				<stop  offset="0.5178" style="stop-color:#FBFBFB"/>
				<stop  offset="0.6599" style="stop-color:#F1F1F1"/>
				<stop  offset="0.7949" style="stop-color:#DFDFDF"/>
				<stop  offset="0.9249" style="stop-color:#C5C5C5"/>
				<stop  offset="1" style="stop-color:#B3B3B3"/>
			</linearGradient>
			<path fill="url(#SVGID_6_)" d="M56.88,8.604c0-2.963-2.507-5.367-5.6-5.367H8.72c-3.093,0-5.6,2.404-5.6,5.367v40.787
				c0,2.965,2.507,5.367,5.6,5.367h42.56c3.093,0,5.6-2.402,5.6-5.367V8.604z"/>
			<linearGradient id="SVGID_8_" gradientUnits="userSpaceOnUse" x1="30" y1="55.8779" x2="30" y2="2.8594">
				<stop  offset="0" style="stop-color:#FFFFFF"/>
				<stop  offset="0.2309" style="stop-color:#FBFBFB"/>
				<stop  offset="0.4598" style="stop-color:#EFEFEF"/>
				<stop  offset="0.6879" style="stop-color:#DBDBDB"/>
				<stop  offset="0.9144" style="stop-color:#C0C0C0"/>
				<stop  offset="1" style="stop-color:#B3B3B3"/>
			</linearGradient>
			<path fill="url(#SVGID_8_)" d="M51.28,55.878H8.72C5.015,55.878,2,52.97,2,49.392V8.604c0-3.576,3.015-6.486,6.72-6.486h42.56
				c3.706,0,6.72,2.91,6.72,6.486v40.787C58,52.97,54.986,55.878,51.28,55.878z M8.72,4.358c-2.47,0-4.48,1.904-4.48,4.246v40.787
				c0,2.342,2.01,4.246,4.48,4.246h42.56c2.47,0,4.479-1.904,4.479-4.246V8.604c0-2.342-2.01-4.246-4.479-4.246H8.72z"/>
			<path fill="#606060" stroke="#606060" stroke-width="0.56" stroke-miterlimit="10" d="M46.52,18.62
				c0-2.395-1.811-2.781-2.783-2.781H17.943c-0.973,0-2.783,0.633-2.783,2.781v21.875c0,2.102,1.811,2.783,2.783,2.783h25.794
				c0.972,0,2.783-0.535,2.783-2.783V18.62z"/>
			<circle fill="none" stroke="#FFFFFF" stroke-width="3.36" stroke-miterlimit="10" cx="31.192" cy="28.692" r="8.354"/>
			<path fill="#606060" stroke="#606060" stroke-width="0.56" stroke-miterlimit="10" d="M44.84,14.737
				c0-0.938-1.072-1.699-2.395-1.699h-3.89c-1.322,0-2.676,0.762-2.676,1.699v2.762c0,0.938,1.354,1.699,2.676,1.699h3.89
				c1.322,0,2.395-0.762,2.395-1.699V14.737z"/>
			<circle fill="#FFFFFF" cx="28.322" cy="26.64" r="2.893"/>
		</g>
	</g>
	<g id="DrawingsShapesStrokesDefault">
	</g>
</g>
<g id="Layer_21">
</g>
<g id="Layer_22">
</g>
<g id="Layer_23" display="none">
</g>
</svg>
