<?xml version="1.0" encoding="utf-8"?>
<!-- Generator: Adobe Illustrator 15.0.0, SVG Export Plug-In . SVG Version: 6.00 Build 0)  -->
<!DOCTYPE svg PUBLIC "-//W3C//DTD SVG 1.1//EN" "http://www.w3.org/Graphics/SVG/1.1/DTD/svg11.dtd">
<svg version="1.1" id="Layer_1" xmlns="http://www.w3.org/2000/svg" xmlns:xlink="http://www.w3.org/1999/xlink" x="0px" y="0px"
	 width="50px" height="54px" viewBox="0 0 50 54" enable-background="new 0 0 50 54" xml:space="preserve">
<g>
	<ellipse fill="#662D91" cx="39.18" cy="48.967" rx="3.947" ry="3.994"/>
	<ellipse fill="#662D91" cx="45.621" cy="42.977" rx="1.842" ry="1.863"/>
	<path fill="#662D91" d="M4.506,16.305c-1.399,0.271-2.287,1.789-1.984,3.393c0.282,1.488,1.491,2.523,2.782,2.449
		c0.213-2.078,0.812-3.854,1.431-5.094C6.141,16.451,5.327,16.145,4.506,16.305z"/>
	<path fill="#662D91" d="M38.382,0.783c-3.76-0.615-5.825,7.77-15.601,8.057C14.906,9.072,10.36,2.957,5.7,7.062
		c-2.656,2.34,7.494,7.244,3.799,17.027c-1.379,3.652-6.737,5.24-5.802,9.154c0.232,0.969,0.484,3.209,0.295,3.478
		c-0.596,0.846-0.949,1.881-0.949,3.004c0,2.838,0.598,5.202,3.295,5.799c2.102,0.467,4.397-1.269,5.308-2.24
		c0.208,0.133-0.031,1.795-0.031,2.625c0,2.262,0.149,7.615,3,7.615c7.734,0,4.347-8.08,9.381-6.652
		c7.99,1.719,5.82-5.852,11.604-10.719c4.039-3.4,9.969-6.797,10.183-12.525C46.072,15.84,43.484,1.621,38.382,0.783z"/>
</g>
</svg>
