<?xml version="1.0" encoding="utf-8"?>
<!-- Generator: Adobe Illustrator 15.0.0, SVG Export Plug-In . SVG Version: 6.00 Build 0)  -->
<!DOCTYPE svg PUBLIC "-//W3C//DTD SVG 1.1//EN" "http://www.w3.org/Graphics/SVG/1.1/DTD/svg11.dtd">
<svg version="1.1" id="Layer_1" xmlns="http://www.w3.org/2000/svg" xmlns:xlink="http://www.w3.org/1999/xlink" x="0px" y="0px"
	 width="50px" height="54px" viewBox="0 0 50 54" enable-background="new 0 0 50 54" xml:space="preserve">
<g>
	<linearGradient id="SVGID_1_" gradientUnits="userSpaceOnUse" x1="24.1865" y1="28.5527" x2="33.2803" y2="-2.4658">
		<stop  offset="0" style="stop-color:#E6E6E6;stop-opacity:0"/>
		<stop  offset="0.1607" style="stop-color:#E2E2E2;stop-opacity:0.1607"/>
		<stop  offset="0.3106" style="stop-color:#D7D7D7;stop-opacity:0.3106"/>
		<stop  offset="0.4563" style="stop-color:#C4C4C4;stop-opacity:0.4563"/>
		<stop  offset="0.5995" style="stop-color:#AAAAAA;stop-opacity:0.5995"/>
		<stop  offset="0.7407" style="stop-color:#878787;stop-opacity:0.7407"/>
		<stop  offset="0.8786" style="stop-color:#5E5E5E;stop-opacity:0.8786"/>
		<stop  offset="1" style="stop-color:#333333"/>
	</linearGradient>
	<path fill="url(#SVGID_1_)" d="M14.634,24.932c2.592-0.498,5.297-0.77,8.083-0.77c5.906,0,11.459,1.189,16.303,3.279
		c-0.068-6.248-0.3-14.613-4.933-15.998c-2.146-0.641-6.176,3.971-8.54,3.971c-4.565,0-7.117-1.5-11.251-0.303
		C11.595,15.893,14.986,21.668,14.634,24.932z"/>
	<linearGradient id="SVGID_2_" gradientUnits="userSpaceOnUse" x1="38.9688" y1="47.8984" x2="40.3564" y2="53.8717">
		<stop  offset="0" style="stop-color:#E6E6E6;stop-opacity:0"/>
		<stop  offset="0.1607" style="stop-color:#E2E2E2;stop-opacity:0.1607"/>
		<stop  offset="0.3106" style="stop-color:#D7D7D7;stop-opacity:0.3106"/>
		<stop  offset="0.4563" style="stop-color:#C4C4C4;stop-opacity:0.4563"/>
		<stop  offset="0.5995" style="stop-color:#AAAAAA;stop-opacity:0.5995"/>
		<stop  offset="0.7407" style="stop-color:#878787;stop-opacity:0.7407"/>
		<stop  offset="0.8786" style="stop-color:#5E5E5E;stop-opacity:0.8786"/>
		<stop  offset="1" style="stop-color:#333333"/>
	</linearGradient>
	<path fill="url(#SVGID_2_)" d="M39.188,51.34c-1.798,0-3.283-1.34-3.543-3.086c-0.026,0.178-0.045,0.359-0.045,0.545
		c0,2.004,1.606,3.629,3.588,3.629s3.586-1.625,3.586-3.629c0-0.186-0.017-0.367-0.044-0.545C42.471,50,40.985,51.34,39.188,51.34z"
		/>
	
		<linearGradient id="SVGID_3_" gradientUnits="userSpaceOnUse" x1="-917.1895" y1="-192.231" x2="-915.7972" y2="-186.2377" gradientTransform="matrix(0.9106 0.4133 -0.4133 0.9106 763.6905 593.8885)">
		<stop  offset="0" style="stop-color:#E6E6E6;stop-opacity:0"/>
		<stop  offset="0.1607" style="stop-color:#E2E2E2;stop-opacity:0.1607"/>
		<stop  offset="0.3106" style="stop-color:#D7D7D7;stop-opacity:0.3106"/>
		<stop  offset="0.4563" style="stop-color:#C4C4C4;stop-opacity:0.4563"/>
		<stop  offset="0.5995" style="stop-color:#AAAAAA;stop-opacity:0.5995"/>
		<stop  offset="0.7407" style="stop-color:#878787;stop-opacity:0.7407"/>
		<stop  offset="0.8786" style="stop-color:#5E5E5E;stop-opacity:0.8786"/>
		<stop  offset="1" style="stop-color:#333333"/>
	</linearGradient>
	<path fill="url(#SVGID_3_)" d="M6.731,43.008c-1.637-0.752-2.441-2.592-1.965-4.291c-0.098,0.152-0.188,0.309-0.264,0.477
		c-0.819,1.826-0.021,3.977,1.785,4.805c1.803,0.828,3.93,0.021,4.749-1.805c0.076-0.168,0.133-0.34,0.182-0.514
		C10.267,43.16,8.368,43.758,6.731,43.008z"/>
	<path fill="#ED00F4" d="M5.304,25.146"/>
</g>
</svg>
