<svg xmlns="http://www.w3.org/2000/svg" width="50" height="54" viewBox="0 0 50 54"><linearGradient id="a" gradientUnits="userSpaceOnUse" x1="24.186" y1="28.553" x2="33.28" y2="-2.466"><stop offset="0" stop-color="#e6e6e6" stop-opacity="0"/><stop offset=".161" stop-color="#e2e2e2" stop-opacity=".161"/><stop offset=".311" stop-color="#d7d7d7" stop-opacity=".311"/><stop offset=".456" stop-color="#c4c4c4" stop-opacity=".456"/><stop offset=".6" stop-color="#aaa" stop-opacity=".6"/><stop offset=".741" stop-color="#878787" stop-opacity=".741"/><stop offset=".879" stop-color="#5e5e5e" stop-opacity=".879"/><stop offset="1" stop-color="#333"/></linearGradient><path fill="url(#a)" d="M14.634 24.932a42.83 42.83 0 0 1 8.083-.77c5.906 0 11.459 1.189 16.303 3.279-.068-6.248-.3-14.613-4.933-15.998-2.146-.641-6.176 3.971-8.54 3.971-4.565 0-7.117-1.5-11.251-.303-2.701.782.69 6.557.338 9.821z"/><linearGradient id="b" gradientUnits="userSpaceOnUse" x1="38.969" y1="47.898" x2="40.356" y2="53.872"><stop offset="0" stop-color="#e6e6e6" stop-opacity="0"/><stop offset=".161" stop-color="#e2e2e2" stop-opacity=".161"/><stop offset=".311" stop-color="#d7d7d7" stop-opacity=".311"/><stop offset=".456" stop-color="#c4c4c4" stop-opacity=".456"/><stop offset=".6" stop-color="#aaa" stop-opacity=".6"/><stop offset=".741" stop-color="#878787" stop-opacity=".741"/><stop offset=".879" stop-color="#5e5e5e" stop-opacity=".879"/><stop offset="1" stop-color="#333"/></linearGradient><path fill="url(#b)" d="M39.188 51.34c-1.798 0-3.283-1.34-3.543-3.086a3.756 3.756 0 0 0-.045.545c0 2.004 1.606 3.629 3.588 3.629s3.586-1.625 3.586-3.629c0-.186-.017-.367-.044-.545-.259 1.746-1.745 3.086-3.542 3.086z"/><linearGradient id="c" gradientUnits="userSpaceOnUse" x1="-917.189" y1="-192.231" x2="-915.797" y2="-186.238" gradientTransform="rotate(24.412 -990.89 2062.124)"><stop offset="0" stop-color="#e6e6e6" stop-opacity="0"/><stop offset=".161" stop-color="#e2e2e2" stop-opacity=".161"/><stop offset=".311" stop-color="#d7d7d7" stop-opacity=".311"/><stop offset=".456" stop-color="#c4c4c4" stop-opacity=".456"/><stop offset=".6" stop-color="#aaa" stop-opacity=".6"/><stop offset=".741" stop-color="#878787" stop-opacity=".741"/><stop offset=".879" stop-color="#5e5e5e" stop-opacity=".879"/><stop offset="1" stop-color="#333"/></linearGradient><path fill="url(#c)" d="M6.731 43.008c-1.637-.752-2.441-2.592-1.965-4.291a3.675 3.675 0 0 0-.264.477c-.819 1.826-.021 3.977 1.785 4.805 1.803.828 3.93.021 4.749-1.805.076-.168.133-.34.182-.514a3.566 3.566 0 0 1-4.487 1.328z"/></svg>