<svg xmlns="http://www.w3.org/2000/svg" width="50" height="54" viewBox="0 0 50 54"><g fill="#662D91"><ellipse cx="39.18" cy="48.967" rx="3.947" ry="3.994"/><ellipse cx="45.621" cy="42.977" rx="1.842" ry="1.863"/><path d="M4.506 16.305c-1.399.271-2.287 1.789-1.984 3.393.282 1.488 1.491 2.523 2.782 2.449.213-2.078.812-3.854 1.431-5.094-.594-.602-1.408-.908-2.229-.748z"/><path d="M38.382.783c-3.76-.615-5.825 7.77-15.601 8.057C14.906 9.072 10.36 2.957 5.7 7.062c-2.656 2.34 7.494 7.244 3.799 17.027-1.379 3.652-6.737 5.24-5.802 9.154.232.969.484 3.209.295 3.478a5.196 5.196 0 0 0-.949 3.004c0 2.838.598 5.202 3.295 5.799 2.102.467 4.397-1.269 5.308-2.24.208.133-.031 1.795-.031 2.625 0 2.262.149 7.615 3 7.615 7.734 0 4.347-8.08 9.381-6.652 7.99 1.719 5.82-5.852 11.604-10.719 4.039-3.4 9.969-6.797 10.183-12.525.289-7.788-2.299-22.007-7.401-22.845z"/></g></svg>