<?xml version="1.0" encoding="utf-8"?>
<!-- Generator: Adobe Illustrator 16.0.0, SVG Export Plug-In . SVG Version: 6.00 Build 0)  -->
<!DOCTYPE svg PUBLIC "-//W3C//DTD SVG 1.1//EN" "http://www.w3.org/Graphics/SVG/1.1/DTD/svg11.dtd">
<svg version="1.1" xmlns="http://www.w3.org/2000/svg" xmlns:xlink="http://www.w3.org/1999/xlink" x="0px" y="0px" width="60px"
	 height="58px" viewBox="0 0 60 58" enable-background="new 0 0 60 58" xml:space="preserve">
<g id="Pressed_states" display="none">
	<g id="buttons_pressed" display="inline">
	</g>
	<g id="buttons_pressed_on" display="inline">
	</g>
	<g id="buttons_pressed_copy" display="inline">
	</g>
	<g id="DrawingToolsButtonsTaped" display="inline">
		<g>
			<g>
				<g>
					<path fill="#FFAA00" d="M57.597,8.611c0-2.967-2.507-5.367-5.6-5.367H9.437c-3.093,0-5.6,2.4-5.6,5.367v40.787
						c0,2.963,2.507,5.365,5.6,5.365h42.561c3.093,0,5.6-2.402,5.6-5.365V8.611z"/>
				</g>
				<defs>
					<filter id="Adobe_OpacityMaskFilter" filterUnits="userSpaceOnUse" x="3.837" y="3.244" width="53.76" height="51.52">
						
							<feColorMatrix  type="matrix" values="-1 0 0 0 1  0 -1 0 0 1  0 0 -1 0 1  0 0 0 1 0" color-interpolation-filters="sRGB" result="source"/>
					</filter>
				</defs>
				<mask maskUnits="userSpaceOnUse" x="3.837" y="3.244" width="53.76" height="51.52" id="SVGID_2_">
					<g filter="url(#Adobe_OpacityMaskFilter)">
						<image overflow="visible" width="59" height="56" xlink:href="E8D9C570.jpg"  transform="matrix(1 0 0 1 1.1563 0.9434)">
						</image>
					</g>
				</mask>
				<g opacity="0.31" mask="url(#SVGID_2_)">
					<path d="M57.597,8.611c0-2.967-2.507-5.367-5.6-5.367H9.437c-3.093,0-5.6,2.4-5.6,5.367v40.787c0,2.963,2.507,5.365,5.6,5.365
						h42.561c3.093,0,5.6-2.402,5.6-5.365V8.611z"/>
				</g>
			</g>
			<linearGradient id="SVGID_4_" gradientUnits="userSpaceOnUse" x1="29.9961" y1="55.8828" x2="29.9961" y2="2.8643">
				<stop  offset="0" style="stop-color:#FFFFFF"/>
				<stop  offset="0.2309" style="stop-color:#FBFBFB"/>
				<stop  offset="0.4598" style="stop-color:#EFEFEF"/>
				<stop  offset="0.6879" style="stop-color:#DBDBDB"/>
				<stop  offset="0.9144" style="stop-color:#C0C0C0"/>
				<stop  offset="1" style="stop-color:#B3B3B3"/>
			</linearGradient>
			<path fill="url(#SVGID_4_)" d="M57.996,49.398c0,3.582-3.009,6.484-6.72,6.484H8.716c-3.711,0-6.72-2.902-6.72-6.484V8.609
				c0-3.582,3.009-6.486,6.72-6.486h42.561c3.711,0,6.72,2.904,6.72,6.486V49.398z M55.756,8.611c0-2.348-2.006-4.248-4.479-4.248
				H8.716c-2.474,0-4.479,1.9-4.479,4.248v40.785c0,2.346,2.006,4.246,4.479,4.246h42.561c2.474,0,4.479-1.9,4.479-4.246V8.611z"/>
			<path fill="#FFFFFF" d="M46.161,43.555H16.35l-0.536-3.184h30.673L46.161,43.555z M16.823,42.994h28.832l0.211-2.063H16.476
				L16.823,42.994z"/>
			<polygon fill="#FFFFFF" points="15.388,36.959 15.969,41.602 46.536,41.602 46.905,36.959 			"/>
			<polygon fill="#FFAA00" points="16.832,38.467 17.227,40.65 45.464,40.65 45.726,38.467 			"/>
			<ellipse fill="#FFFFFF" cx="31.245" cy="32.203" rx="4.915" ry="2.697"/>
			<path fill="#FFFFFF" d="M37.444,17.852c0-3.74-2.793-6.773-6.238-6.773s-6.239,3.033-6.239,6.773
				c0,2.238,1.001,4.223,2.542,5.455h-0.001c0,0,1.739,1.326,1.739,3.314c0,0,0.038,1.365-0.905,2.703
				c-0.002,0.002-0.003,0.004-0.003,0.004c-0.048,0.068-0.098,0.139-0.15,0.207c-0.027,0.035-0.045,0.066-0.057,0.096
				c-0.242,0.396-0.381,0.842-0.381,1.318c0,1.602,1.548,2.471,3.454,2.471c1.908,0,3.456-0.869,3.456-2.471
				c0-0.449-0.125-0.871-0.34-1.25c-0.014-0.049-0.042-0.102-0.097-0.164c-0.008-0.008-0.013-0.016-0.02-0.023
				c-0.068-0.1-0.144-0.195-0.225-0.287c-0.879-1.23-0.815-2.604-0.815-2.604c0-1.988,1.739-3.314,1.739-3.314l0,0
				C36.444,22.074,37.444,20.09,37.444,17.852z"/>
			<ellipse fill="#FFAA00" cx="31.206" cy="14.117" rx="2.786" ry="1.273"/>
			
				<linearGradient id="SVGID_6_" gradientUnits="userSpaceOnUse" x1="7979.4912" y1="-1692.4658" x2="7975.3149" y2="-1691.8727" gradientTransform="matrix(-0.1682 0.9858 -0.9858 -0.1682 -295.5786 -8118.1055)">
				<stop  offset="0" style="stop-color:#FFFFFF;stop-opacity:0.78"/>
				<stop  offset="0.3995" style="stop-color:#FFFFFF;stop-opacity:0.01"/>
			</linearGradient>
			<path fill="url(#SVGID_6_)" d="M32.484,30.801c0,0-0.126,0.479,0.457,0.988c-0.606,0.615-3.269,0.789-4.064-0.291
				c-0.794-1.082,0.073-0.432,0.073-0.432S31.078,31.883,32.484,30.801z"/>
			<path fill="#FFFFFF" d="M31.205,32.939c-1.899,0-3.443-0.91-3.443-2.523c0-0.467,0.127-0.914,0.378-1.33
				c0.02-0.043,0.044-0.084,0.075-0.125c0.048-0.059,0.092-0.121,0.137-0.184c0.838-1.189,0.814-2.406,0.813-2.418
				c0-1.752-1.538-2.945-1.552-2.959l-0.477-0.361h0.063c-1.293-1.238-2.053-3.037-2.053-4.918c0-3.617,2.718-6.561,6.06-6.561
				c3.341,0,6.059,2.943,6.059,6.561c0,1.881-0.76,3.68-2.053,4.918h0.06L34.799,23.4c-0.016,0.014-1.553,1.211-1.553,2.953
				c0,0.023-0.044,1.24,0.724,2.318c0.081,0.094,0.151,0.184,0.213,0.275l0.007,0.006c0.063,0.072,0.104,0.141,0.127,0.211
				c0.222,0.395,0.335,0.816,0.335,1.252C34.651,32.029,33.105,32.939,31.205,32.939z M28.256,23.443
				c0.508,0.516,1.313,1.549,1.313,2.91c0.001,0.049,0.025,1.357-0.887,2.654c-0.051,0.07-0.099,0.139-0.151,0.205
				c-0.015,0.02-0.021,0.035-0.025,0.045l-0.014,0.025c-0.218,0.357-0.328,0.738-0.328,1.133c0,1.389,1.365,2.117,3.041,2.117
				c1.678,0,3.043-0.729,3.043-2.117c0-0.371-0.1-0.732-0.294-1.072l-0.021-0.051c0-0.006-0.008-0.027-0.047-0.072l-0.032-0.041
				c-0.057-0.082-0.12-0.164-0.195-0.248l-0.013-0.018c-0.855-1.197-0.807-2.514-0.805-2.57c0-1.354,0.806-2.385,1.313-2.9h-0.052
				l0.448-0.359c1.445-1.156,2.31-3.012,2.31-4.963c0-3.395-2.536-6.156-5.654-6.156c-3.117,0-5.655,2.762-5.655,6.156
				c0,1.951,0.864,3.807,2.311,4.963l0.45,0.359H28.256z"/>
			<path fill="#FFFFFF" d="M44.155,29.021c0,0-0.142-0.285-0.814-0.285c-0.229,0-4.851,0.02-7.182,0.02
				c3.171,2.207,2.925,7.436-4.88,7.436c-8.575,0-7.685-5.902-4.553-7.42c-3.692,0-7.757,0.004-7.757,0.004
				s-0.604-0.174-0.832,0.381c-0.227,0.555-2.649,7.688-2.649,7.688h31.435L44.155,29.021z"/>
		</g>
		<g>
			<g>
				<g>
					<path fill="#FFAA00" d="M57.597,8.611c0-2.967-2.507-5.367-5.6-5.367H9.437c-3.093,0-5.6,2.4-5.6,5.367v40.787
						c0,2.963,2.507,5.365,5.6,5.365h42.561c3.093,0,5.6-2.402,5.6-5.365V8.611z"/>
				</g>
				<defs>
					<filter id="Adobe_OpacityMaskFilter_1_" filterUnits="userSpaceOnUse" x="3.837" y="3.244" width="53.76" height="51.52">
						
							<feColorMatrix  type="matrix" values="-1 0 0 0 1  0 -1 0 0 1  0 0 -1 0 1  0 0 0 1 0" color-interpolation-filters="sRGB" result="source"/>
					</filter>
				</defs>
				<mask maskUnits="userSpaceOnUse" x="3.837" y="3.244" width="53.76" height="51.52" id="SVGID_8_">
					<g filter="url(#Adobe_OpacityMaskFilter_1_)">
						<image overflow="visible" width="59" height="56" xlink:href="E8D9C571.jpg"  transform="matrix(1 0 0 1 1.1563 0.9434)">
						</image>
					</g>
				</mask>
				<g opacity="0.31" mask="url(#SVGID_8_)">
					<path d="M57.597,8.611c0-2.967-2.507-5.367-5.6-5.367H9.437c-3.093,0-5.6,2.4-5.6,5.367v40.787c0,2.963,2.507,5.365,5.6,5.365
						h42.561c3.093,0,5.6-2.402,5.6-5.365V8.611z"/>
				</g>
			</g>
			<linearGradient id="SVGID_10_" gradientUnits="userSpaceOnUse" x1="29.9961" y1="55.8828" x2="29.9961" y2="2.8643">
				<stop  offset="0" style="stop-color:#FFFFFF"/>
				<stop  offset="0.2309" style="stop-color:#FBFBFB"/>
				<stop  offset="0.4598" style="stop-color:#EFEFEF"/>
				<stop  offset="0.6879" style="stop-color:#DBDBDB"/>
				<stop  offset="0.9144" style="stop-color:#C0C0C0"/>
				<stop  offset="1" style="stop-color:#B3B3B3"/>
			</linearGradient>
			<path fill="url(#SVGID_10_)" d="M57.996,49.398c0,3.582-3.009,6.484-6.72,6.484H8.716c-3.711,0-6.72-2.902-6.72-6.484V8.609
				c0-3.582,3.009-6.486,6.72-6.486h42.561c3.711,0,6.72,2.904,6.72,6.486V49.398z M55.756,8.611c0-2.348-2.006-4.248-4.479-4.248
				H8.716c-2.474,0-4.479,1.9-4.479,4.248v40.785c0,2.346,2.006,4.246,4.479,4.246h42.561c2.474,0,4.479-1.9,4.479-4.246V8.611z"/>
			<path fill="#FFFFFF" d="M46.161,43.555H16.35l-0.536-3.184h30.673L46.161,43.555z M16.823,42.994h28.832l0.211-2.063H16.476
				L16.823,42.994z"/>
			<polygon fill="#FFFFFF" points="15.388,36.959 15.969,41.602 46.536,41.602 46.905,36.959 			"/>
			<polygon fill="#FFAA00" points="16.832,38.467 17.227,40.65 45.464,40.65 45.726,38.467 			"/>
			<ellipse fill="#FFFFFF" cx="31.245" cy="32.203" rx="4.915" ry="2.697"/>
			<path fill="#FFFFFF" d="M37.444,17.852c0-3.74-2.793-6.773-6.238-6.773s-6.239,3.033-6.239,6.773
				c0,2.238,1.001,4.223,2.542,5.455h-0.001c0,0,1.739,1.326,1.739,3.314c0,0,0.038,1.365-0.905,2.703
				c-0.002,0.002-0.003,0.004-0.003,0.004c-0.048,0.068-0.098,0.139-0.15,0.207c-0.027,0.035-0.045,0.066-0.057,0.096
				c-0.242,0.396-0.381,0.842-0.381,1.318c0,1.602,1.548,2.471,3.454,2.471c1.908,0,3.456-0.869,3.456-2.471
				c0-0.449-0.125-0.871-0.34-1.25c-0.014-0.049-0.042-0.102-0.097-0.164c-0.008-0.008-0.013-0.016-0.02-0.023
				c-0.068-0.1-0.144-0.195-0.225-0.287c-0.879-1.23-0.815-2.604-0.815-2.604c0-1.988,1.739-3.314,1.739-3.314l0,0
				C36.444,22.074,37.444,20.09,37.444,17.852z"/>
			<ellipse fill="#FFAA00" cx="31.206" cy="14.117" rx="2.786" ry="1.273"/>
			
				<linearGradient id="SVGID_12_" gradientUnits="userSpaceOnUse" x1="7979.4912" y1="-1692.4658" x2="7975.3149" y2="-1691.8727" gradientTransform="matrix(-0.1682 0.9858 -0.9858 -0.1682 -295.5786 -8118.1055)">
				<stop  offset="0" style="stop-color:#FFFFFF;stop-opacity:0.78"/>
				<stop  offset="0.3995" style="stop-color:#FFFFFF;stop-opacity:0.01"/>
			</linearGradient>
			<path fill="url(#SVGID_12_)" d="M32.484,30.801c0,0-0.126,0.479,0.457,0.988c-0.606,0.615-3.269,0.789-4.064-0.291
				c-0.794-1.082,0.073-0.432,0.073-0.432S31.078,31.883,32.484,30.801z"/>
			<path fill="#FFFFFF" d="M31.205,32.939c-1.899,0-3.443-0.91-3.443-2.523c0-0.467,0.127-0.914,0.378-1.33
				c0.02-0.043,0.044-0.084,0.075-0.125c0.048-0.059,0.092-0.121,0.137-0.184c0.838-1.189,0.814-2.406,0.813-2.418
				c0-1.752-1.538-2.945-1.552-2.959l-0.477-0.361h0.063c-1.293-1.238-2.053-3.037-2.053-4.918c0-3.617,2.718-6.561,6.06-6.561
				c3.341,0,6.059,2.943,6.059,6.561c0,1.881-0.76,3.68-2.053,4.918h0.06L34.799,23.4c-0.016,0.014-1.553,1.211-1.553,2.953
				c0,0.023-0.044,1.24,0.724,2.318c0.081,0.094,0.151,0.184,0.213,0.275l0.007,0.006c0.063,0.072,0.104,0.141,0.127,0.211
				c0.222,0.395,0.335,0.816,0.335,1.252C34.651,32.029,33.105,32.939,31.205,32.939z M28.256,23.443
				c0.508,0.516,1.313,1.549,1.313,2.91c0.001,0.049,0.025,1.357-0.887,2.654c-0.051,0.07-0.099,0.139-0.151,0.205
				c-0.015,0.02-0.021,0.035-0.025,0.045l-0.014,0.025c-0.218,0.357-0.328,0.738-0.328,1.133c0,1.389,1.365,2.117,3.041,2.117
				c1.678,0,3.043-0.729,3.043-2.117c0-0.371-0.1-0.732-0.294-1.072l-0.021-0.051c0-0.006-0.008-0.027-0.047-0.072l-0.032-0.041
				c-0.057-0.082-0.12-0.164-0.195-0.248l-0.013-0.018c-0.855-1.197-0.807-2.514-0.805-2.57c0-1.354,0.806-2.385,1.313-2.9h-0.052
				l0.448-0.359c1.445-1.156,2.31-3.012,2.31-4.963c0-3.395-2.536-6.156-5.654-6.156c-3.117,0-5.655,2.762-5.655,6.156
				c0,1.951,0.864,3.807,2.311,4.963l0.45,0.359H28.256z"/>
			<path fill="#FFFFFF" d="M44.155,29.021c0,0-0.142-0.285-0.814-0.285c-0.229,0-4.851,0.02-7.182,0.02
				c3.171,2.207,2.925,7.436-4.88,7.436c-8.575,0-7.685-5.902-4.553-7.42c-3.692,0-7.757,0.004-7.757,0.004
				s-0.604-0.174-0.832,0.381c-0.227,0.555-2.649,7.688-2.649,7.688h31.435L44.155,29.021z"/>
		</g>
	</g>
	<g id="DrawingsShapesStrokesTaped" display="inline">
	</g>
</g>
<g id="Layer_17" display="none">
</g>
<g id="unpress_states">
	<g id="Buttons_copy">
	</g>
	<g id="Buttons_on">
	</g>
	<g id="Buttons">
	</g>
	<g id="DrawingToolsButtonsDefault">
		<g>
			<linearGradient id="SVGID_13_" gradientUnits="userSpaceOnUse" x1="29.9961" y1="3.8037" x2="29.9961" y2="55.5175">
				<stop  offset="0.3573" style="stop-color:#FFFFFF"/>
				<stop  offset="0.5178" style="stop-color:#FBFBFB"/>
				<stop  offset="0.6599" style="stop-color:#F1F1F1"/>
				<stop  offset="0.7949" style="stop-color:#DFDFDF"/>
				<stop  offset="0.9249" style="stop-color:#C5C5C5"/>
				<stop  offset="1" style="stop-color:#B3B3B3"/>
			</linearGradient>
			<path fill="url(#SVGID_13_)" d="M56.876,8.611c0-2.965-2.507-5.367-5.6-5.367H8.716c-3.093,0-5.6,2.402-5.6,5.367v40.785
				c0,2.965,2.507,5.367,5.6,5.367h42.561c3.093,0,5.6-2.402,5.6-5.367V8.611z"/>
			<linearGradient id="SVGID_14_" gradientUnits="userSpaceOnUse" x1="29.9961" y1="55.8828" x2="29.9961" y2="2.8643">
				<stop  offset="0" style="stop-color:#FFFFFF"/>
				<stop  offset="0.2309" style="stop-color:#FBFBFB"/>
				<stop  offset="0.4598" style="stop-color:#EFEFEF"/>
				<stop  offset="0.6879" style="stop-color:#DBDBDB"/>
				<stop  offset="0.9144" style="stop-color:#C0C0C0"/>
				<stop  offset="1" style="stop-color:#B3B3B3"/>
			</linearGradient>
			<path fill="url(#SVGID_14_)" d="M57.996,49.398c0,3.582-3.009,6.484-6.72,6.484H8.716c-3.711,0-6.72-2.902-6.72-6.484V8.609
				c0-3.582,3.009-6.486,6.72-6.486h42.561c3.711,0,6.72,2.904,6.72,6.486V49.398z M55.756,8.611c0-2.348-2.006-4.248-4.479-4.248
				H8.716c-2.474,0-4.479,1.9-4.479,4.248v40.785c0,2.346,2.006,4.246,4.479,4.246h42.561c2.474,0,4.479-1.9,4.479-4.246V8.611z"/>
			<polygon fill="none" stroke="#606060" stroke-width="0.56" stroke-miterlimit="10" points="45.348,43.275 16.026,43.275 
				15.585,40.65 45.617,40.65 			"/>
			<polygon fill="#606060" points="14.828,36.959 15.409,41.602 45.976,41.602 46.346,36.959 			"/>
			<path fill="#92675C" d="M18.41,28.775c0,0-0.604-0.117-0.832,0.438c-0.227,0.557-2.649,7.746-2.649,7.746h31.435l-2.769-7.881
				c0,0-0.141-0.313-0.813-0.313C42.175,28.766,18.41,28.775,18.41,28.775z"/>
			<path fill="#606060" d="M18.41,28.775c0,0-0.604-0.117-0.832,0.438c-0.227,0.557-2.649,7.746-2.649,7.746h31.435l-2.769-7.881
				c0,0-0.141-0.313-0.813-0.313C42.175,28.766,18.41,28.775,18.41,28.775z"/>
			<polygon fill="#FFFFFF" points="16.271,38.467 16.667,40.65 44.904,40.65 45.165,38.467 			"/>
			<ellipse fill="#FFFFFF" cx="30.685" cy="32.203" rx="4.915" ry="2.697"/>
			<path fill="#606060" stroke="#606060" stroke-width="0.56" stroke-miterlimit="10" d="M36.885,17.852
				c0-3.74-2.794-6.773-6.239-6.773s-6.238,3.033-6.238,6.773c0,2.238,1.001,4.223,2.542,5.455h-0.001c0,0,1.738,1.326,1.738,3.314
				c0,0,0.039,1.365-0.905,2.703c-0.001,0.002-0.002,0.004-0.002,0.004c-0.048,0.068-0.099,0.139-0.151,0.207
				c-0.027,0.035-0.045,0.066-0.057,0.096c-0.241,0.396-0.381,0.842-0.381,1.318c0,1.602,1.548,2.471,3.454,2.471
				c1.909,0,3.456-0.869,3.456-2.471c0-0.449-0.124-0.871-0.34-1.25c-0.013-0.049-0.041-0.102-0.096-0.164
				c-0.008-0.008-0.014-0.016-0.021-0.023c-0.067-0.1-0.143-0.195-0.224-0.287c-0.88-1.23-0.816-2.604-0.816-2.604
				c0-1.988,1.739-3.314,1.739-3.314l0,0C35.884,22.074,36.885,20.09,36.885,17.852z"/>
			<ellipse fill="#FFFFFF" cx="30.646" cy="14.117" rx="2.786" ry="1.273"/>
			
				<linearGradient id="SVGID_15_" gradientUnits="userSpaceOnUse" x1="7979.5859" y1="-1691.915" x2="7975.4097" y2="-1691.3219" gradientTransform="matrix(-0.1682 0.9858 -0.9858 -0.1682 -295.5786 -8118.1055)">
				<stop  offset="0" style="stop-color:#FFFFFF;stop-opacity:0.78"/>
				<stop  offset="0.3995" style="stop-color:#FFFFFF;stop-opacity:0.01"/>
			</linearGradient>
			<path fill="url(#SVGID_15_)" d="M31.925,30.801c0,0-0.126,0.479,0.457,0.988c-0.607,0.615-3.27,0.789-4.064-0.291
				c-0.794-1.082,0.073-0.432,0.073-0.432S30.518,31.883,31.925,30.801z"/>
			<path fill="none" d="M30.645,32.939c-1.898,0-3.442-0.91-3.442-2.523c0-0.467,0.126-0.914,0.378-1.33
				c0.019-0.043,0.044-0.084,0.074-0.125c0.048-0.059,0.092-0.121,0.137-0.184c0.838-1.189,0.815-2.406,0.813-2.418
				c0-1.752-1.537-2.945-1.552-2.959l-0.476-0.361h0.063c-1.293-1.238-2.053-3.037-2.053-4.918c0-3.617,2.718-6.561,6.059-6.561
				c3.342,0,6.059,2.943,6.059,6.561c0,1.881-0.759,3.68-2.052,4.918h0.059L34.239,23.4c-0.016,0.014-1.554,1.211-1.554,2.953
				c0,0.023-0.044,1.24,0.725,2.318c0.081,0.094,0.15,0.184,0.213,0.275l0.007,0.006c0.063,0.072,0.104,0.141,0.127,0.211
				c0.222,0.395,0.334,0.816,0.334,1.252C34.091,32.029,32.546,32.939,30.645,32.939z M27.696,23.443
				c0.507,0.516,1.313,1.549,1.313,2.91c0.001,0.049,0.025,1.357-0.887,2.654c-0.051,0.07-0.099,0.139-0.151,0.205
				c-0.016,0.02-0.021,0.035-0.026,0.045l-0.013,0.025c-0.218,0.357-0.328,0.738-0.328,1.133c0,1.389,1.364,2.117,3.04,2.117
				c1.678,0,3.043-0.729,3.043-2.117c0-0.371-0.1-0.732-0.293-1.072l-0.021-0.051c0-0.006-0.008-0.027-0.047-0.072l-0.032-0.041
				c-0.057-0.082-0.12-0.164-0.195-0.248l-0.014-0.018c-0.855-1.197-0.806-2.514-0.804-2.57c0-1.354,0.805-2.385,1.313-2.9h-0.053
				l0.448-0.359c1.446-1.156,2.311-3.012,2.311-4.963c0-3.395-2.536-6.156-5.655-6.156c-3.117,0-5.654,2.762-5.654,6.156
				c0,1.951,0.864,3.807,2.31,4.963l0.451,0.359H27.696z"/>
		</g>
	</g>
	<g id="DrawingsShapesStrokesDefault">
	</g>
</g>
<g id="Layer_21">
</g>
<g id="Layer_22">
</g>
<g id="Layer_23" display="none">
</g>
</svg>
