<?xml version="1.0" encoding="utf-8"?>
<!-- Generator: Adobe Illustrator 15.0.0, SVG Export Plug-In . SVG Version: 6.00 Build 0)  -->
<!DOCTYPE svg PUBLIC "-//W3C//DTD SVG 1.1//EN" "http://www.w3.org/Graphics/SVG/1.1/DTD/svg11.dtd">
<svg version="1.1" id="Layer_2" xmlns="http://www.w3.org/2000/svg" xmlns:xlink="http://www.w3.org/1999/xlink" x="0px" y="0px"
	 width="60px" height="58px" viewBox="0 0 60 58" enable-background="new 0 0 60 58" xml:space="preserve">
<g>
	<g>
		<path fill="#FFAA00" d="M57.598,8.611c0-2.967-2.508-5.367-5.601-5.367H9.437c-3.093,0-5.6,2.4-5.6,5.367v40.788
			c0,2.963,2.507,5.365,5.6,5.365h42.561c3.093,0,5.6-2.402,5.6-5.365V8.611L57.598,8.611z"/>
	</g>
	<path fill-opacity="0.17" d="M51.277,4.36H8.716c-2.47,0-4.479,1.906-4.479,4.248v40.787c0,2.34,2.01,4.246,4.479,4.246h42.562
		c2.47,0,4.479-1.906,4.479-4.246V8.608C55.756,6.266,53.746,4.36,51.277,4.36z M52.756,49.395c0,0.676-0.677,1.246-1.479,1.246
		H8.716c-0.802,0-1.479-0.57-1.479-1.246V8.608c0-0.676,0.677-1.248,1.479-1.248h42.562c0.802,0,1.479,0.572,1.479,1.248V49.395z"/>
	
		<linearGradient id="SVGID_1_" gradientUnits="userSpaceOnUse" x1="29.9966" y1="3.1187" x2="29.9966" y2="56.1362" gradientTransform="matrix(1 0 0 -1 0 59)">
		<stop  offset="0" style="stop-color:#FFFFFF"/>
		<stop  offset="0.2309" style="stop-color:#FBFBFB"/>
		<stop  offset="0.4598" style="stop-color:#EFEFEF"/>
		<stop  offset="0.6879" style="stop-color:#DBDBDB"/>
		<stop  offset="0.9144" style="stop-color:#C0C0C0"/>
		<stop  offset="1" style="stop-color:#B3B3B3"/>
	</linearGradient>
	<path fill="url(#SVGID_1_)" d="M57.996,49.398c0,3.582-3.01,6.483-6.721,6.483H8.716c-3.711,0-6.72-2.901-6.72-6.483V8.609
		c0-3.582,3.009-6.486,6.72-6.486h42.562c3.711,0,6.72,2.904,6.72,6.486L57.996,49.398L57.996,49.398z M55.756,8.611
		c0-2.348-2.006-4.248-4.479-4.248H8.716c-2.474,0-4.479,1.9-4.479,4.248v40.786c0,2.346,2.006,4.246,4.479,4.246h42.562
		c2.474,0,4.479-1.9,4.479-4.246V8.611z"/>
	<path fill="#FFFFFF" d="M46.161,43.555H16.35l-0.536-3.184h30.672L46.161,43.555z M16.823,42.994h28.831l0.212-2.062h-29.39
		L16.823,42.994z"/>
	<polygon fill="#FFFFFF" points="15.388,36.959 15.969,41.602 46.536,41.602 46.904,36.959 	"/>
	<polygon fill="#FFAA00" points="16.832,38.467 17.227,40.65 45.464,40.65 45.727,38.467 	"/>
	<ellipse fill="#FFFFFF" cx="31.245" cy="32.203" rx="4.915" ry="2.697"/>
	<path fill="#FFFFFF" d="M37.443,17.852c0-3.74-2.793-6.773-6.237-6.773c-3.445,0-6.239,3.033-6.239,6.773
		c0,2.238,1.001,4.223,2.542,5.455h-0.001c0,0,1.739,1.326,1.739,3.314c0,0,0.038,1.365-0.905,2.703
		c-0.002,0.002-0.003,0.004-0.003,0.004c-0.048,0.068-0.098,0.139-0.15,0.207c-0.027,0.035-0.045,0.066-0.057,0.096
		c-0.242,0.396-0.381,0.842-0.381,1.318c0,1.602,1.548,2.471,3.454,2.471c1.908,0,3.456-0.869,3.456-2.471
		c0-0.449-0.125-0.871-0.341-1.25c-0.014-0.049-0.041-0.102-0.096-0.164c-0.009-0.008-0.014-0.016-0.021-0.023
		c-0.067-0.1-0.144-0.195-0.226-0.287c-0.879-1.23-0.814-2.604-0.814-2.604c0-1.988,1.738-3.314,1.738-3.314l0,0
		C36.443,22.074,37.443,20.09,37.443,17.852z"/>
	<ellipse fill="#FFAA00" cx="31.206" cy="14.117" rx="2.786" ry="1.273"/>
	
		<linearGradient id="SVGID_2_" gradientUnits="userSpaceOnUse" x1="7825.0693" y1="2434.7451" x2="7820.8931" y2="2434.1521" gradientTransform="matrix(-0.1682 0.9858 0.9858 0.1682 -1053.2916 -8090.7266)">
		<stop  offset="0" style="stop-color:#FFFFFF;stop-opacity:0.78"/>
		<stop  offset="0.3995" style="stop-color:#FFFFFF;stop-opacity:0.01"/>
	</linearGradient>
	<path fill="url(#SVGID_2_)" d="M32.484,30.801c0,0-0.127,0.479,0.457,0.988c-0.606,0.615-3.27,0.789-4.064-0.291
		c-0.794-1.082,0.073-0.432,0.073-0.432S31.078,31.883,32.484,30.801z"/>
	<path fill="#FFFFFF" d="M31.205,32.939c-1.899,0-3.443-0.91-3.443-2.523c0-0.467,0.127-0.914,0.378-1.33
		c0.02-0.043,0.044-0.084,0.075-0.125c0.048-0.059,0.092-0.121,0.137-0.184c0.838-1.189,0.814-2.406,0.813-2.418
		c0-1.752-1.538-2.945-1.552-2.959l-0.477-0.361h0.063c-1.293-1.238-2.053-3.037-2.053-4.918c0-3.617,2.718-6.561,6.06-6.561
		c3.341,0,6.06,2.943,6.06,6.561c0,1.881-0.761,3.68-2.054,4.918h0.06L34.799,23.4c-0.016,0.014-1.553,1.211-1.553,2.953
		c0,0.023-0.044,1.24,0.725,2.318c0.08,0.094,0.15,0.184,0.213,0.275l0.006,0.006c0.063,0.072,0.104,0.141,0.127,0.211
		c0.223,0.396,0.336,0.815,0.336,1.252C34.65,32.029,33.105,32.939,31.205,32.939z M28.256,23.443
		c0.508,0.516,1.313,1.549,1.313,2.91c0.001,0.049,0.025,1.357-0.887,2.654c-0.051,0.07-0.099,0.139-0.151,0.205
		c-0.015,0.02-0.021,0.035-0.025,0.045l-0.014,0.025c-0.218,0.356-0.328,0.737-0.328,1.133c0,1.39,1.365,2.117,3.041,2.117
		c1.678,0,3.043-0.729,3.043-2.117c0-0.371-0.1-0.731-0.294-1.072l-0.021-0.051c0-0.006-0.009-0.027-0.047-0.072l-0.033-0.041
		c-0.057-0.082-0.119-0.164-0.194-0.248l-0.013-0.018c-0.855-1.197-0.808-2.514-0.806-2.57c0-1.354,0.806-2.385,1.313-2.9h-0.053
		l0.448-0.359c1.445-1.156,2.31-3.012,2.31-4.963c0-3.395-2.535-6.156-5.653-6.156c-3.117,0-5.655,2.762-5.655,6.156
		c0,1.951,0.864,3.807,2.311,4.963l0.45,0.359H28.256z"/>
	<path fill="#FFFFFF" d="M44.154,29.021c0,0-0.141-0.285-0.813-0.285c-0.229,0-4.851,0.02-7.182,0.02
		c3.171,2.207,2.925,7.436-4.88,7.436c-8.575,0-7.685-5.901-4.553-7.419c-3.692,0-7.757,0.004-7.757,0.004s-0.604-0.174-0.832,0.381
		c-0.227,0.555-2.649,7.688-2.649,7.688h31.435L44.154,29.021z"/>
</g>
</svg>
