<svg xmlns="http://www.w3.org/2000/svg" width="60" height="58" viewBox="0 0 60 58"><path fill="#FA0" d="M57.598 8.611c0-2.967-2.508-5.367-5.601-5.367H9.437c-3.093 0-5.6 2.4-5.6 5.367v40.788c0 2.963 2.507 5.365 5.6 5.365h42.561c3.093 0 5.6-2.402 5.6-5.365V8.611z"/><path fill-opacity=".17" d="M51.277 4.36H8.716c-2.47 0-4.479 1.906-4.479 4.248v40.787c0 2.34 2.01 4.246 4.479 4.246h42.562c2.47 0 4.479-1.906 4.479-4.246V8.608c-.001-2.342-2.011-4.248-4.48-4.248zm1.479 45.035c0 .676-.677 1.246-1.479 1.246H8.716c-.802 0-1.479-.57-1.479-1.246V8.608c0-.676.677-1.248 1.479-1.248h42.562c.802 0 1.479.572 1.479 1.248v40.787z"/><linearGradient id="a" gradientUnits="userSpaceOnUse" x1="29.997" y1="3.119" x2="29.997" y2="56.136" gradientTransform="matrix(1 0 0 -1 0 59)"><stop offset="0" stop-color="#fff"/><stop offset=".231" stop-color="#fbfbfb"/><stop offset=".46" stop-color="#efefef"/><stop offset=".688" stop-color="#dbdbdb"/><stop offset=".914" stop-color="silver"/><stop offset="1" stop-color="#b3b3b3"/></linearGradient><path fill="url(#a)" d="M57.996 49.398c0 3.582-3.01 6.483-6.721 6.483H8.716c-3.711 0-6.72-2.901-6.72-6.483V8.609c0-3.582 3.009-6.486 6.72-6.486h42.562c3.711 0 6.72 2.904 6.72 6.486l-.002 40.789zm-2.24-40.787c0-2.348-2.006-4.248-4.479-4.248H8.716c-2.474 0-4.479 1.9-4.479 4.248v40.786c0 2.346 2.006 4.246 4.479 4.246h42.562c2.474 0 4.479-1.9 4.479-4.246V8.611z"/><path fill="#FFF" d="M46.161 43.555H16.35l-.536-3.184h30.672l-.325 3.184zm-29.338-.561h28.831l.212-2.062h-29.39l.347 2.062z"/><path fill="#FFF" d="M15.388 36.959l.581 4.643h30.567l.368-4.643z"/><path fill="#FA0" d="M16.832 38.467l.395 2.183h28.237l.263-2.183z"/><ellipse fill="#FFF" cx="31.245" cy="32.203" rx="4.915" ry="2.697"/><path fill="#FFF" d="M37.443 17.852c0-3.74-2.793-6.773-6.237-6.773-3.445 0-6.239 3.033-6.239 6.773 0 2.238 1.001 4.223 2.542 5.455h-.001s1.739 1.326 1.739 3.314c0 0 .038 1.365-.905 2.703a.017.017 0 0 0-.003.004c-.048.068-.098.139-.15.207a.401.401 0 0 0-.057.096 2.511 2.511 0 0 0-.381 1.318c0 1.602 1.548 2.471 3.454 2.471 1.908 0 3.456-.869 3.456-2.471a2.51 2.51 0 0 0-.341-1.25.417.417 0 0 0-.096-.164c-.009-.008-.014-.016-.021-.023a2.661 2.661 0 0 0-.226-.287c-.879-1.23-.814-2.604-.814-2.604 0-1.988 1.738-3.314 1.738-3.314 1.542-1.233 2.542-3.217 2.542-5.455z"/><ellipse fill="#FA0" cx="31.206" cy="14.117" rx="2.786" ry="1.273"/><linearGradient id="b" gradientUnits="userSpaceOnUse" x1="7825.069" y1="2434.745" x2="7820.893" y2="2434.152" gradientTransform="scale(-1 1) rotate(80.317 5320.456 -3421.09)"><stop offset="0" stop-color="#fff" stop-opacity=".78"/><stop offset=".4" stop-color="#fff" stop-opacity=".01"/></linearGradient><path fill="url(#b)" d="M32.484 30.801s-.127.479.457.988c-.606.615-3.27.789-4.064-.291-.794-1.082.073-.432.073-.432s2.128.817 3.534-.265z"/><path fill="#FFF" d="M31.205 32.939c-1.899 0-3.443-.91-3.443-2.523 0-.467.127-.914.378-1.33a.679.679 0 0 1 .075-.125c.048-.059.092-.121.137-.184.838-1.189.814-2.406.813-2.418 0-1.752-1.538-2.945-1.552-2.959l-.477-.361h.063c-1.293-1.238-2.053-3.037-2.053-4.918 0-3.617 2.718-6.561 6.06-6.561 3.341 0 6.06 2.943 6.06 6.561 0 1.881-.761 3.68-2.054 4.918h.06l-.473.361c-.016.014-1.553 1.211-1.553 2.953 0 .023-.044 1.24.725 2.318.08.094.15.184.213.275l.006.006a.612.612 0 0 1 .127.211c.223.396.336.815.336 1.252-.003 1.614-1.548 2.524-3.448 2.524zm-2.949-9.496c.508.516 1.313 1.549 1.313 2.91.001.049.025 1.357-.887 2.654-.051.07-.099.139-.151.205-.015.02-.021.035-.025.045l-.014.025a2.144 2.144 0 0 0-.328 1.133c0 1.39 1.365 2.117 3.041 2.117 1.678 0 3.043-.729 3.043-2.117 0-.371-.1-.731-.294-1.072l-.021-.051c0-.006-.009-.027-.047-.072l-.033-.041a2.553 2.553 0 0 0-.194-.248l-.013-.018a4.483 4.483 0 0 1-.806-2.57c0-1.354.806-2.385 1.313-2.9H34.1l.448-.359c1.445-1.156 2.31-3.012 2.31-4.963 0-3.395-2.535-6.156-5.653-6.156-3.117 0-5.655 2.762-5.655 6.156 0 1.951.864 3.807 2.311 4.963l.45.359h-.055z"/><path fill="#FFF" d="M44.154 29.021s-.141-.285-.813-.285c-.229 0-4.851.02-7.182.02 3.171 2.207 2.925 7.436-4.88 7.436-8.575 0-7.685-5.901-4.553-7.419-3.692 0-7.757.004-7.757.004s-.604-.174-.832.381c-.227.555-2.649 7.688-2.649 7.688h31.435l-2.769-7.825z"/></svg>