<svg xmlns="http://www.w3.org/2000/svg" width="60" height="58" viewBox="0 0 60 58"><linearGradient id="i" gradientUnits="userSpaceOnUse" x1="29.996" y1="3.804" x2="29.996" y2="55.517"><stop offset=".357" stop-color="#fff"/><stop offset=".518" stop-color="#fbfbfb"/><stop offset=".66" stop-color="#f1f1f1"/><stop offset=".795" stop-color="#dfdfdf"/><stop offset=".925" stop-color="#c5c5c5"/><stop offset="1" stop-color="#b3b3b3"/></linearGradient><path fill="url(#i)" d="M56.876 8.611c0-2.965-2.507-5.367-5.6-5.367H8.716c-3.093 0-5.6 2.402-5.6 5.367v40.785c0 2.965 2.507 5.367 5.6 5.367h42.561c3.093 0 5.6-2.402 5.6-5.367V8.611z"/><linearGradient id="j" gradientUnits="userSpaceOnUse" x1="29.996" y1="55.883" x2="29.996" y2="2.864"><stop offset="0" stop-color="#fff"/><stop offset=".231" stop-color="#fbfbfb"/><stop offset=".46" stop-color="#efefef"/><stop offset=".688" stop-color="#dbdbdb"/><stop offset=".914" stop-color="silver"/><stop offset="1" stop-color="#b3b3b3"/></linearGradient><path fill="url(#j)" d="M57.996 49.398c0 3.582-3.009 6.484-6.72 6.484H8.716c-3.711 0-6.72-2.902-6.72-6.484V8.609c0-3.582 3.009-6.486 6.72-6.486h42.561c3.711 0 6.72 2.904 6.72 6.486v40.789zm-2.24-40.787c0-2.348-2.006-4.248-4.479-4.248H8.716c-2.474 0-4.479 1.9-4.479 4.248v40.785c0 2.346 2.006 4.246 4.479 4.246h42.561c2.474 0 4.479-1.9 4.479-4.246V8.611z"/><path fill="none" stroke="#606060" stroke-width=".56" stroke-miterlimit="10" d="M45.348 43.275H16.026l-.441-2.625h30.032z"/><path fill="#606060" d="M14.828 36.959l.581 4.643h30.567l.37-4.643z"/><path fill="#92675C" d="M18.41 28.775s-.604-.117-.832.438c-.227.557-2.649 7.746-2.649 7.746h31.435l-2.769-7.881s-.141-.313-.813-.313l-24.372.01z"/><path fill="#606060" d="M18.41 28.775s-.604-.117-.832.438c-.227.557-2.649 7.746-2.649 7.746h31.435l-2.769-7.881s-.141-.313-.813-.313l-24.372.01z"/><path fill="#FFF" d="M16.271 38.467l.396 2.183h28.237l.261-2.183z"/><ellipse fill="#FFF" cx="30.685" cy="32.203" rx="4.915" ry="2.697"/><path fill="#606060" stroke="#606060" stroke-width=".56" stroke-miterlimit="10" d="M36.885 17.852c0-3.74-2.794-6.773-6.239-6.773s-6.238 3.033-6.238 6.773c0 2.238 1.001 4.223 2.542 5.455h-.001s1.738 1.326 1.738 3.314c0 0 .039 1.365-.905 2.703l-.002.004a6.772 6.772 0 0 1-.151.207.401.401 0 0 0-.057.096 2.52 2.52 0 0 0-.381 1.318c0 1.602 1.548 2.471 3.454 2.471 1.909 0 3.456-.869 3.456-2.471 0-.449-.124-.871-.34-1.25a.405.405 0 0 0-.096-.164l-.021-.023a2.771 2.771 0 0 0-.224-.287c-.88-1.23-.816-2.604-.816-2.604 0-1.988 1.739-3.314 1.739-3.314 1.541-1.233 2.542-3.217 2.542-5.455z"/><ellipse fill="#FFF" cx="30.646" cy="14.117" rx="2.786" ry="1.273"/><linearGradient id="k" gradientUnits="userSpaceOnUse" x1="7979.586" y1="-1691.915" x2="7975.41" y2="-1691.322" gradientTransform="scale(-1) rotate(-80.317 4957.839 3883.731)"><stop offset="0" stop-color="#fff" stop-opacity=".78"/><stop offset=".4" stop-color="#fff" stop-opacity=".01"/></linearGradient><path fill="url(#k)" d="M31.925 30.801s-.126.479.457.988c-.607.615-3.27.789-4.064-.291-.794-1.082.073-.432.073-.432s2.127.817 3.534-.265z"/><path fill="none" d="M30.645 32.939c-1.898 0-3.442-.91-3.442-2.523 0-.467.126-.914.378-1.33a.673.673 0 0 1 .074-.125c.048-.059.092-.121.137-.184.838-1.189.815-2.406.813-2.418 0-1.752-1.537-2.945-1.552-2.959l-.476-.361h.063c-1.293-1.238-2.053-3.037-2.053-4.918 0-3.617 2.718-6.561 6.059-6.561 3.342 0 6.059 2.943 6.059 6.561 0 1.881-.759 3.68-2.052 4.918h.059l-.473.361c-.016.014-1.554 1.211-1.554 2.953 0 .023-.044 1.24.725 2.318.081.094.15.184.213.275l.007.006a.612.612 0 0 1 .127.211c.222.395.334.816.334 1.252 0 1.614-1.545 2.524-3.446 2.524zm-2.949-9.496c.507.516 1.313 1.549 1.313 2.91.001.049.025 1.357-.887 2.654-.051.07-.099.139-.151.205-.016.02-.021.035-.026.045l-.013.025a2.15 2.15 0 0 0-.328 1.133c0 1.389 1.364 2.117 3.04 2.117 1.678 0 3.043-.729 3.043-2.117 0-.371-.1-.732-.293-1.072l-.021-.051c0-.006-.008-.027-.047-.072l-.032-.041a2.57 2.57 0 0 0-.195-.248l-.014-.018c-.855-1.197-.806-2.514-.804-2.57 0-1.354.805-2.385 1.313-2.9h-.053l.448-.359c1.446-1.156 2.311-3.012 2.311-4.963 0-3.395-2.536-6.156-5.655-6.156-3.117 0-5.654 2.762-5.654 6.156 0 1.951.864 3.807 2.31 4.963l.451.359h-.056z"/></svg>