<svg xmlns="http://www.w3.org/2000/svg" width="58" height="54" viewBox="0 0 58 54"><path fill="#333" d="M7.913 40.337c.28-.642.563-1.298.846-1.957.942-2.188 1.916-4.454 2.99-6.618l.161-.324.092-.063c.03-.136.077-.258.128-.363.092-.208.223-.388.382-.532.55-1.136 1.137-2.309 1.748-3.492.1-.208.221-.367.351-.49.122-.261.259-.537.399-.823.233-.474.474-.963.666-1.407.137-.314.302-.637.468-.951a1.54 1.54 0 0 1 .412-.771l.019-.036c.222-.412.411-.852.611-1.316.192-.448.392-.911.635-1.382l.11-.214.142-.133.021-.091c.008-.034.052-.173.109-.319l.032-.083.095-.331.093-.086.27-.541.05-.001c.038-.094.08-.186.126-.275.09-.176.196-.354.308-.538.129-.212.251-.413.329-.604l.604.204c.125-.291.268-.601.479-.883.229-.635.533-1.368.907-2.191l-.206-.076.844-1.473c.321-.562.588-1.201.871-1.878.251-.602.511-1.224.837-1.866l2.589 1.154a91.986 91.986 0 0 1-1.415 3.392l-.336.776.28.142.584-1.842.404 1.079-.047-.851.109-.072a2.9 2.9 0 0 0-.025-.314l-.099-.688.24-.249a1.83 1.83 0 0 1 .177-.428c.008-.042.017-.087.024-.131.025-.143.052-.287.086-.434.017-.066.024-.143.034-.219.033-.242.074-.543.192-.842.172-.434.438-.707.598-.87l.026-.027.191-.668.77-.212c.089-.024.304-.171.477-.287.144-.098.309-.21.495-.321a1.49 1.49 0 0 1 .854-.488l.57-.11.187.125c.162-.044.366-.084.603-.084.104 0 .208-.035.315-.019.307.048.539.237.697.237h.002c.156 0 .271.046.377.057l.541.08.363.416c.381.426.786.671 1.3.975.403.239.86.513 1.32.896.146.122.241.252.304.351.188.172.355.352.521.527.117.123.236.252.348.358.54.299.857.79 1.121 1.198.082.126.169.262.271.4.031.045.062.082.092.119.1.125.223.28.396.562.086.141.208.287.349.456.148.179.316.381.477.617.253.377.404.735.537 1.051.056.134.111.271.181.405.017.02.032.038.05.057.102.118.256.298.381.537.256.496.285.944.293 1.238.191.279.381.626.463 1.073l.096.511-.042.072c.265.225.544.559.626 1.055.025.154.04.392-.028.669.091.234.271.579.394.808.13.248.259.494.365.731.114.251.219.507.321.761.113.28.22.545.334.778.063.131.136.257.204.38.168.299.354.629.477 1.016.252.361.377.724.465.985.029.085.057.17.094.254.189.438.439.868.704 1.324.36.625.733 1.268 1.006 2.009.224.32.433.699.634 1.148.1.223.171.402.252.613.062.162.135.346.243.602.532.828.903 1.65 1.231 2.379.213.471.412.914.633 1.312.164.296.337.581.505.858.264.438.537.89.769 1.359.076.154.133.301.186.444.02.053.035.106.064.162.141.265.299.528.457.797.262.437.528.888.756 1.368.104.226.188.438.271.646.154.392.266.674.57 1.088l.095.129.063.146c.349.8.943 1.861 1.574 2.986l1.588 2.846-2.348.059c-.491.012-.996.021-1.514.021a34.6 34.6 0 0 1-2.03-.056 4.403 4.403 0 0 1-.388-.041c-.049-.008-.096-.018-.146-.019a18.334 18.334 0 0 0-.517-.008c-.465 0-.9.017-1.331.031l-.548.02c-.269.009-.536.015-.81.015-.646 0-1.207-.032-1.755-.1-.786.021-1.674.03-2.576.03-1.279 0-2.523-.021-3.605-.062-.42.031-.861.051-1.344.059l-.58.003-.428-.009-1.578-.076a5.52 5.52 0 0 0-.146-.002c-.302 0-.632.043-.981.068-.379.026-.771.076-1.179.076-.248 0-.452-.046-.614-.066-.076-.01-.148-.032-.222-.032a5.31 5.31 0 0 0-.438.032 6.607 6.607 0 0 1-.787.056l-2.297-.038c-.291 0-.584.023-.894.051-.354.028-.721.06-1.106.06a3.474 3.474 0 0 1-.667-.075l-.085-.018-.007.002a2.581 2.581 0 0 1-.391.064c-.293.023-.621.034-1.032.034-.161 0-.327-.002-.495-.004l-.758-.013-.857-.004-1.226.008c-1.967.01-3.824.02-6.007.098l-.056.002-.057-.003c-.44-.019-.899-.026-1.373-.026-.801 0-1.642.021-2.504.043-.756.019-1.528.037-2.306.043l-4.55.028 3.43-7.705zm14.034-3.459c.096-.015.237-.048.323-.067.099-.021.19-.043.271-.058l.131-.024.213-.002.182.013.15.014.122-.06.31-.006c.392-.008.81-.011 1.235-.012 1.093-.005 2.222-.009 3.013-.129l.204-.031.204.028c.192.026.41.039.665.039.325 0 .67-.04 1.035-.062.36-.021.724-.068 1.086-.068h.074c.178 0 .351.027.521.036.119.006.234.021.354.021.049 0 .1.005.148-.001l.041-.008c.108-.023.272-.057.465-.066.104-.006.203-.009.303-.009.3 0 .579.022.85.044.207.018.414.035.62.035.063 0 .127-.002.188-.007.13-.013.246-.031.357-.05.23-.037.493-.08.811-.081l.941.016.672.015-.025-.047c-.055-.1-.107-.205-.163-.312a7.477 7.477 0 0 0-.211-.398 2.35 2.35 0 0 1-.408-.479 2.08 2.08 0 0 1-.229-.52 2.14 2.14 0 0 1-.185-.283 2.687 2.687 0 0 1-.226-.602l-.004-.015c-.082-.101-.205-.248-.312-.451-.132-.248-.191-.472-.23-.62l-.006-.025a2.8 2.8 0 0 0-.121-.146c-.224-.27-.569-.686-.722-1.322a10.605 10.605 0 0 1-.269-.428c-.088-.145-.178-.295-.283-.448a2.811 2.811 0 0 0-.162-.208 3.728 3.728 0 0 1-.41-.58 2.447 2.447 0 0 1-.197-.512l-.004-.012a4.16 4.16 0 0 0-.272-.402c-.237-.322-.521-.711-.707-1.226-.265-.37-.472-.785-.673-1.188-.092-.182-.223-.442-.336-.635-.445-.097-.85-.366-1.121-.762s-.319-.774-.342-.957l-.008-.056a7.195 7.195 0 0 0-.514-1.077 2.04 2.04 0 0 1-.586-.568c-.238-.361-.323-.72-.385-.981-.008-.032-.014-.064-.021-.097a1.85 1.85 0 0 1-.545-.591c-.218-.394-.323-.898-.31-1.375l-.124-.359.027-.243a1.82 1.82 0 0 0-.062-.226l-.018.063c-.067.234-.161.437-.235.599-.034.074-.082.177-.093.215l-.016.145c.09.192.14.409.142.64l.001.139-.026.137c-.02.102-.047.198-.083.29l.034.308-.331.448a.972.972 0 0 0-.105.193c.008.094.008.188-.001.285l-.047.523-.177.173.078.247-.356.56a1.617 1.617 0 0 0-.143.315 5.632 5.632 0 0 1-.116.291c-.002.09-.012.179-.03.268-.073.42-.218.705-.327.918.115.506-.032 1.018-.44 1.526-.073.264-.135.534-.199.816-.133.581-.281 1.233-.569 1.964a1.742 1.742 0 0 1-.105.487l.023.009c-.094.31-.245.649-.406 1.012-.119.269-.332.746-.395.979l.113.535-.356.418.009.022-.193.513c-.119.313-.26.593-.384.839-.101.201-.254.506-.266.613l-.037.334-.21.341a2.533 2.533 0 0 1-.095.159 1.885 1.885 0 0 1-.281.667c-.061.21-.124.411-.189.61l.291-.045.195.075z" opacity=".25"/><path fill="#FFF" d="M4.913 37.337c.28-.642.563-1.298.846-1.957.942-2.188 1.916-4.454 2.99-6.618l.161-.324.092-.063c.03-.136.077-.258.128-.363.092-.208.223-.388.382-.532.55-1.136 1.137-2.309 1.748-3.492.1-.208.221-.367.351-.49.122-.261.259-.537.399-.823.233-.474.474-.963.666-1.407.137-.314.302-.637.468-.951a1.54 1.54 0 0 1 .412-.771l.019-.036c.222-.412.411-.852.611-1.316.192-.448.392-.911.635-1.382l.11-.214.142-.133.021-.091c.008-.034.052-.173.109-.319l.032-.083.095-.331.093-.086.27-.541.05-.001c.038-.094.08-.186.126-.275.09-.176.196-.354.308-.538.129-.212.251-.413.329-.604l.604.204c.125-.291.268-.601.479-.883.229-.635.533-1.368.907-2.191l-.206-.076.844-1.473c.321-.562.588-1.201.871-1.878.251-.602.511-1.224.837-1.866l2.589 1.154a91.986 91.986 0 0 1-1.415 3.392l-.336.776.28.142.584-1.842.404 1.079-.047-.851.109-.072a2.9 2.9 0 0 0-.025-.314l-.099-.688.24-.249a1.83 1.83 0 0 1 .177-.428c.008-.042.017-.087.024-.131.025-.143.052-.287.086-.434.017-.066.024-.143.034-.219.033-.242.074-.543.192-.842.172-.434.438-.707.598-.87l.026-.027.191-.668.77-.212c.089-.024.304-.171.477-.287.144-.098.309-.21.495-.321a1.49 1.49 0 0 1 .854-.488l.57-.11.187.125c.162-.044.366-.084.602-.084.104 0 .208-.035.316-.019.306.048.539.237.697.237h.002c.156 0 .271.046.377.057l.541.08.363.416c.381.426.786.671 1.3.975.403.239.86.513 1.32.896.146.122.241.252.304.351.188.172.355.352.521.527.117.123.236.252.348.358.54.299.857.79 1.121 1.198.082.126.169.262.271.4.031.045.062.082.092.119.1.125.223.28.396.562.086.141.208.287.349.456.148.179.316.381.477.617.253.377.404.735.537 1.051.056.134.111.271.181.405.017.02.032.038.05.057.102.118.256.298.381.537.256.496.285.944.293 1.238.191.279.381.626.463 1.073l.096.511-.042.072c.265.225.544.559.626 1.055.025.154.04.392-.028.669.091.234.271.579.394.808.13.248.259.494.365.731.114.251.219.507.321.761.113.28.22.545.334.778.063.131.136.257.204.38.168.299.354.629.477 1.016.252.361.377.724.465.985.029.085.057.17.094.254.189.438.439.868.704 1.324.36.624.733 1.268 1.006 2.009.224.321.433.699.634 1.149.1.222.171.402.252.613.062.162.135.346.243.602.532.828.903 1.65 1.231 2.379.213.471.412.914.633 1.312.164.296.337.581.505.858.264.438.537.89.769 1.359.076.154.133.301.186.444.02.053.035.106.064.162.141.265.299.528.457.797.262.437.528.888.756 1.368.104.226.188.438.271.646.154.392.266.674.57 1.088l.095.129.063.146c.349.8.943 1.861 1.574 2.986l1.588 2.846-2.348.059c-.491.012-.996.021-1.514.021a34.6 34.6 0 0 1-2.03-.056 4.403 4.403 0 0 1-.388-.041c-.049-.008-.096-.018-.146-.019a18.334 18.334 0 0 0-.517-.008c-.465 0-.9.017-1.331.031l-.548.02c-.269.009-.536.015-.81.015-.646 0-1.207-.032-1.755-.1-.786.021-1.674.03-2.576.03-1.279 0-2.523-.021-3.604-.062a23.49 23.49 0 0 1-1.345.059l-.58.003-.428-.009-1.578-.076a5.52 5.52 0 0 0-.146-.002c-.302 0-.632.043-.981.068-.379.026-.771.076-1.179.076-.248 0-.452-.046-.614-.066-.076-.01-.148-.032-.222-.032a5.31 5.31 0 0 0-.438.032 6.64 6.64 0 0 1-.788.056l-2.297-.038c-.291 0-.584.023-.894.051-.354.028-.721.06-1.106.06a3.474 3.474 0 0 1-.667-.075l-.085-.018-.007.002a2.581 2.581 0 0 1-.391.064c-.293.023-.621.034-1.032.034-.161 0-.327-.002-.495-.004l-.758-.013-.857-.004-1.226.008c-1.967.01-3.824.02-6.007.098l-.056.002-.057-.003c-.44-.019-.899-.026-1.373-.026-.801 0-1.642.021-2.504.043-.756.019-1.528.037-2.306.043l-4.55.028 3.431-7.706zm14.034-3.459c.096-.015.237-.048.323-.067.099-.021.19-.043.271-.058l.131-.024.213-.002.182.013.15.014.122-.06.31-.006c.392-.008.81-.011 1.235-.012 1.093-.005 2.222-.009 3.013-.129l.204-.031.204.028c.192.026.41.039.665.039.325 0 .67-.04 1.035-.062.36-.021.724-.068 1.086-.068h.074c.178 0 .35.027.52.036.119.006.235.021.354.021.049 0 .1.005.149-.001l.041-.008c.108-.023.272-.057.464-.066.104-.006.203-.009.303-.009.3 0 .579.022.85.044.207.018.414.035.62.035.063 0 .127-.002.188-.007.13-.013.246-.031.357-.05.23-.037.493-.08.811-.081l.941.016.672.015-.025-.047c-.055-.1-.107-.205-.163-.312a7.477 7.477 0 0 0-.211-.398 2.35 2.35 0 0 1-.408-.479 2.08 2.08 0 0 1-.229-.52 2.14 2.14 0 0 1-.185-.283 2.687 2.687 0 0 1-.226-.602l-.004-.015c-.082-.101-.205-.248-.312-.451-.132-.248-.191-.472-.23-.62l-.006-.025a2.8 2.8 0 0 0-.121-.146c-.224-.27-.569-.686-.722-1.322a10.605 10.605 0 0 1-.269-.428c-.088-.145-.178-.295-.283-.448a2.811 2.811 0 0 0-.162-.208c-.134-.165-.286-.352-.41-.581a2.422 2.422 0 0 1-.197-.511l-.004-.012c-.061-.112-.164-.253-.272-.402-.237-.322-.521-.711-.707-1.226-.265-.37-.472-.785-.673-1.188a11.991 11.991 0 0 0-.335-.635c-.446-.097-.85-.366-1.122-.762s-.319-.774-.342-.957l-.008-.056a7.098 7.098 0 0 0-.513-1.077 2.04 2.04 0 0 1-.586-.568c-.238-.361-.323-.72-.385-.981-.008-.032-.014-.064-.021-.097a1.85 1.85 0 0 1-.545-.591c-.218-.394-.323-.898-.31-1.375l-.124-.359.027-.243a1.82 1.82 0 0 0-.062-.226l-.018.063c-.067.234-.161.437-.235.599-.034.074-.082.177-.093.215l-.016.145c.09.192.14.409.142.64l.001.139-.026.137c-.02.102-.047.198-.083.29l.034.308-.331.448a.972.972 0 0 0-.105.193c.008.094.008.188-.001.285l-.047.523-.177.173.078.247-.356.56a1.617 1.617 0 0 0-.143.315 5.632 5.632 0 0 1-.116.291c-.002.09-.012.179-.03.268-.073.42-.218.705-.327.918.115.506-.032 1.018-.44 1.526-.073.264-.135.534-.199.816-.133.581-.281 1.233-.569 1.965a1.758 1.758 0 0 1-.105.487l.023.009c-.094.309-.245.649-.406 1.011-.119.269-.332.746-.395.979l.113.535-.356.418.009.022-.193.513c-.119.313-.26.593-.384.839-.101.201-.254.506-.266.613l-.037.334-.21.341a2.533 2.533 0 0 1-.095.159 1.885 1.885 0 0 1-.281.667c-.061.21-.124.411-.189.61l.291-.045.195.075z"/><path fill="#F9A737" d="M37.091 12.9c-.099-.188-.299-.347-.403-.545-.246-.462-.367-.928-.662-1.369-.262-.388-.601-.706-.854-1.12-.188-.308-.282-.392-.426-.588-.42-.574-.644-1.108-1.044-1.241-.4-.346-.79-.841-1.15-1.139-.057-.047-.111-.182-.133-.2-.912-.762-1.878-1.013-2.768-2.006-.2-.021-.45.025-.737-.072-.129-.043-.286-.212-.403-.23-.436-.067-.726.347-1.191.037-.091.018-.069.107-.111.156-.631.316-1.065.767-1.604.915-.128.449-.493.559-.642.933-.092.231-.102.597-.165.865-.074.308-.098.604-.192.879-.189.098-.082.385-.213.521.056.389.025.722.088 1.114-.047.065-.042.164-.115.212.047.869.022 1.783.403 2.805.034.092.11.287.168.394.381.706.892 1.834.836 2.338.047.139.107.104.154.242-.077.144-.104.64.075.964.062.111.326.223.485.454.236.345.202.807.409 1.12.095.145.325.229.441.369.305.368.686 1.238.817 1.612.104.294.039.459.173.653.121.176.326.248.511.127.708.314 1.109 1.871 1.73 2.6.168.688.728 1.136 1.007 1.732.056.119.077.286.142.405.107.197.329.42.495.66.283.411.474.801.729 1.126.043.689.547.945.783 1.418.088.178.099.393.201.588.088.165.245.287.336.473.09.184.108.414.202.588.069.129.173.205.224.314.066.145.054.264.143.405.094.149.271.255.365.405.168.271.316.594.464.865.032.055.082.098.214.122-.031.132.041.21.122.312.079.096.17.217.116.318.102.067.181.131.141.174.034.021.124.045.128.066-.048.088.364.36.296.449.053.027.1.055.137.078-.061.076-.049.179.063.336-.058.015-.077.05-.058.107-.348-.142-.278.021-.469.024-.086.003-.248-.075-.295-.044-.1.061-.365-.014-.486.023-.036.012-.034.093-.074.104-.075.024-.201-.058-.271-.017-.146.08-.349.094-.537.086l-.945-.017-.916-.016c-.354.001-.655.093-1.052.126-.655.054-1.338-.098-1.996-.061-.166.01-.326.064-.479.076-.395.03-.771-.023-1.188-.019-1.019.013-2.041.17-2.999.036-1.224.188-3.009.127-4.432.156a.874.874 0 0 1-.473.071l-.237-.022-.12-.008a.154.154 0 0 0-.043 0c-.323.062-.879.237-1.202.117-.717.111-1.489.157-2.262.193.359-.919.743-1.842 1.029-2.915a.359.359 0 0 0 .161-.222.542.542 0 0 0 .021-.137c-.003-.013.013-.07.022-.113l.024-.125c.095-.029.175-.217.26-.349.058-.584.485-1.155.733-1.813-.094-.238.207-.564.189-.863.139-.061.017.175.146.021-.116-.552.661-1.885.863-2.548-.021.044-.07.032-.051-.025.145-.117.025-.258.107-.426.483-1.153.553-2.102.884-3.123.099-.103.376-.369.315-.532-.098.167-.19.394-.31.321.174-.272.292-.683.28-.923.152-.366.304-.521.357-.886.037-.078-.166.018-.086-.15.296-.475.301-.779.57-1.201-.06-.187.147-.734.285-.869.016-.171-.173.117-.146-.021.149-.427.272-.832.524-1.173-.013-.119-.062-.216-.009-.378.039-.108.104.082.137-.09-.001-.177-.17.059-.243-.017.052-.225-.03-.214-.055-.349.2-.254.145-.516.22-.796.077-.288.257-.565.336-.841.069-.237.022-.373.14-.623.094-.204.265-.333.36-.563.033-.129-.133.036-.061-.137.33-.81.66-1.617.766-2.277-.207.992-.722 1.551-.897 2.423-.171.066-.09.387-.3.434.042.084.172-.077.081.095-.036.055-.076.063-.107.159-.087-.175-.163-.008-.289.014-.298.675-.472 1.229-.733 1.812-.017.123.112-.039.081.095-.078.231-.175.392-.255.671-.139.031-.269.184-.36.029.366-.779.648-1.937 1.051-2.879.122-.285.359-.531.271-.769-.141.441-.475.697-.656 1.053-.235.461-.301 1.038-.546 1.482-.069.125-.14.157-.192.274-.042.092-.036.282-.088.383-.056.109-.114.091-.152.189-.077.201-.061.392-.163.608-.171.363-.431.677-.58 1.092-.08.053-.18-.032-.157-.134.223-.471.253-.555.464-1.044-.036.05-.074.072-.117.048.076-.146.133-.185.118-.314-.159.362-.344.239-.381.074.441-.879.849-2.018 1.258-2.721-.018-.105-.067-.19-.029-.335.313-.857.8-1.755 1.142-2.672-.615.943-1.004 2.044-1.478 3.248-.045.034-.1-.034-.137.09-.155.535-.44 1.111-.592 1.513-.19.122-.381.239-.573.348-.467 1.277-1.333 1.972-1.872 3.153-.075-.042-.141.04-.212.051-.021-.124-.076-.226-.081-.36.084-.196.132-.414.266-.559.222-1.102 1.028-2.439 1.458-3.738-.061-.209-.213-.136-.37-.081-.346.563-.413 1.189-.86 1.748-.408.088-.512-.247-.308-.743a36.635 36.635 0 0 1 1.284-2.707c.897-2.454 2.042-4.773 3.006-7.269-.672 1.324-1.078 2.648-1.741 3.806.058.021.063.077.015.168-.572 1.176-1.169 2.498-1.544 3.588-.386.353-.551 1.297-.941 1.653-.243-.244-.212-.669-.078-1.16-.195.476-.49.866-.687 1.25-.161.314-.326.91-.464 1.044-.033.032-.059-.07-.096.004.064-.129-.091.242-.098.271-.046.191-.01.168-.112.369-.133.261-.135.254-.279.391-.465.898-.779 1.831-1.258 2.719l-.143.301c-.058.079-.075-.019-.137.091-.035.063.039.062-.011.154-.187.347-.398.743-.555 1.104-.392.903-.943 1.929-1.263 2.664-.093.154-.084-.101-.184.12a148.753 148.753 0 0 0-1.929 3.871c-.056.098-.132-.035-.184.121-.052.088-.041.135-.027.18.006.023.014.046.014.072.002.023-.004.055-.044.137-.118.171-.235.324-.343.399-1.375 2.771-2.578 5.697-3.81 8.521L3.67 43.603l2.347-.015c2.218-.019 4.389-.14 6.256-.058 2.665-.096 4.871-.09 7.288-.105l.875.004.757.012c.499.008.978.008 1.392-.024.144-.012.313-.077.48-.077.251-.001.505.096.756.098.679.002 1.374-.114 2.051-.109l2.234.036c.42.006.824-.087 1.241-.095.276-.004.565.072.853.07.805-.005 1.622-.13 2.384-.104l1.54.074.389.008.565-.002c.45-.008.897-.024 1.339-.06 1.984.074 4.428.079 6.28.028.858.113 1.659.111 2.45.088.793-.023 1.574-.068 2.479-.043.191.006.37.05.574.062 1.193.069 2.345.059 3.426.031-.809-1.453-1.62-2.845-2.081-3.904-.59-.802-.675-1.313-.985-1.974-.332-.709-.812-1.411-1.179-2.099-.12-.227-.157-.422-.271-.649-.346-.702-.817-1.394-1.24-2.155-.625-1.127-1.034-2.428-1.879-3.705-.283-.649-.348-.895-.535-1.309a5.291 5.291 0 0 0-.607-1.062c-.402-1.221-1.221-2.237-1.742-3.434-.176-.404-.229-.828-.555-1.157-.08-.477-.414-.921-.658-1.424-.242-.497-.434-1.048-.672-1.574-.341-.752-.927-1.6-.938-2.29.439-.55-.654-.589-.848-1.229-.047-.368.136-.413.272-.653-.06-.32-.247-.551-.435-.794-.105-.33.034-.693-.182-1.11zm-15.576 5.358c.025.022.049.013.071-.018.081.15-.192.271-.071.018zm-.01-.112c.152-.365.267-.924.479-1.143.033-.07-.176-.004-.156-.134a1.63 1.63 0 0 0 .386-.549c.223.08-.145.548.034.657-.11.195-.165.29-.107.426-.261.383-.171.535-.388.815-.086-.138-.12.014-.248-.072z"/></svg>