<svg xmlns="http://www.w3.org/2000/svg" width="58" height="54" viewBox="0 0 58 54"><path fill="#333" d="M7.913 40.337c.28-.642.563-1.298.846-1.957.942-2.188 1.916-4.454 2.99-6.618l.161-.324.092-.063c.03-.136.077-.258.128-.363.092-.208.223-.388.382-.532.55-1.136 1.137-2.309 1.748-3.492.1-.208.221-.367.351-.49.122-.261.259-.537.399-.823.233-.474.474-.963.666-1.407.137-.314.302-.637.468-.951a1.54 1.54 0 0 1 .412-.771l.019-.036c.222-.412.411-.852.611-1.316.192-.448.392-.911.635-1.382l.11-.214.142-.133.021-.091c.008-.034.052-.173.109-.319l.032-.083.095-.331.093-.086.27-.541.05-.001c.038-.094.08-.186.126-.275.09-.176.196-.354.308-.538.129-.212.251-.413.329-.604l.604.204c.125-.291.268-.601.479-.883.229-.635.533-1.368.907-2.191l-.206-.076.844-1.473c.321-.562.588-1.201.871-1.878.251-.602.511-1.224.837-1.866l2.589 1.154a91.986 91.986 0 0 1-1.415 3.392l-.336.776.28.142.584-1.842.404 1.079-.047-.851.109-.072a2.9 2.9 0 0 0-.025-.314l-.099-.688.24-.249a1.83 1.83 0 0 1 .177-.428c.008-.042.017-.087.024-.131.025-.143.052-.287.086-.434.017-.066.024-.143.034-.219.033-.242.074-.543.192-.842.172-.434.438-.707.598-.87l.026-.027.191-.668.77-.212c.089-.024.304-.171.477-.287.144-.098.309-.21.495-.321a1.49 1.49 0 0 1 .854-.488l.57-.11.187.125c.162-.044.366-.084.603-.084.104 0 .208-.035.315-.019.307.048.539.237.697.237h.002c.156 0 .271.046.377.057l.541.08.363.416c.381.426.786.671 1.3.975.403.239.86.513 1.32.896.146.122.241.252.304.351.188.172.355.352.521.527.117.123.236.252.348.358.54.299.857.79 1.121 1.198.082.126.169.262.271.4.031.045.062.082.092.119.1.125.223.28.396.562.086.141.208.287.349.456.148.179.316.381.477.617.253.377.404.735.537 1.051.056.134.111.271.181.405.017.02.032.038.05.057.102.118.256.298.381.537.256.496.285.944.293 1.238.191.279.381.626.463 1.073l.096.511-.042.072c.265.225.544.559.626 1.055.025.154.04.392-.028.669.091.234.271.579.394.808.13.248.259.494.365.731.114.251.219.507.321.761.113.28.22.545.334.778.063.131.136.257.204.38.168.299.354.629.477 1.016.252.361.377.724.465.985.029.085.057.17.094.254.189.438.439.868.704 1.324.36.625.733 1.268 1.006 2.009.224.32.433.699.634 1.148.1.223.171.402.252.613.062.162.135.346.243.602.532.828.903 1.65 1.231 2.379.213.471.412.914.633 1.312.164.296.337.581.505.858.264.438.537.89.769 1.359.076.154.133.301.186.444.02.053.035.106.064.162.141.265.299.528.457.797.262.437.528.888.756 1.368.104.226.188.438.271.646.154.392.266.674.57 1.088l.095.129.063.146c.349.8.943 1.861 1.574 2.986l1.588 2.846-2.348.059c-.491.012-.996.021-1.514.021a34.6 34.6 0 0 1-2.03-.056 4.403 4.403 0 0 1-.388-.041c-.049-.008-.096-.018-.146-.019a18.334 18.334 0 0 0-.517-.008c-.465 0-.9.017-1.331.031l-.548.02c-.269.009-.536.015-.81.015-.646 0-1.207-.032-1.755-.1-.786.021-1.674.03-2.576.03-1.279 0-2.523-.021-3.605-.062-.42.031-.861.051-1.344.059l-.58.003-.428-.009-1.578-.076a5.52 5.52 0 0 0-.146-.002c-.302 0-.632.043-.981.068-.379.026-.771.076-1.179.076-.248 0-.452-.046-.614-.066-.076-.01-.148-.032-.222-.032a5.31 5.31 0 0 0-.438.032 6.607 6.607 0 0 1-.787.056l-2.297-.038c-.291 0-.584.023-.894.051-.354.028-.721.06-1.106.06a3.474 3.474 0 0 1-.667-.075l-.085-.018-.007.002a2.581 2.581 0 0 1-.391.064c-.293.023-.621.034-1.032.034-.161 0-.327-.002-.495-.004l-.758-.013-.857-.004-1.226.008c-1.967.01-3.824.02-6.007.098l-.056.002-.057-.003c-.44-.019-.899-.026-1.373-.026-.801 0-1.642.021-2.504.043-.756.019-1.528.037-2.306.043l-4.55.028 3.43-7.705zm14.034-3.459c.096-.015.237-.048.323-.067.099-.021.19-.043.271-.058l.131-.024.213-.002.182.013.15.014.122-.06.31-.006c.392-.008.81-.011 1.235-.012 1.093-.005 2.222-.009 3.013-.129l.204-.031.204.028c.192.026.41.039.665.039.325 0 .67-.04 1.035-.062.36-.021.724-.068 1.086-.068h.074c.178 0 .351.027.521.036.119.006.234.021.354.021.049 0 .1.005.148-.001l.041-.008c.108-.023.272-.057.465-.066.104-.006.203-.009.303-.009.3 0 .579.022.85.044.207.018.414.035.62.035.063 0 .127-.002.188-.007.13-.013.246-.031.357-.05.23-.037.493-.08.811-.081l.941.016.672.015-.025-.047c-.055-.1-.107-.205-.163-.312a7.477 7.477 0 0 0-.211-.398 2.35 2.35 0 0 1-.408-.479 2.08 2.08 0 0 1-.229-.52 2.14 2.14 0 0 1-.185-.283 2.687 2.687 0 0 1-.226-.602l-.004-.015c-.082-.101-.205-.248-.312-.451-.132-.248-.191-.472-.23-.62l-.006-.025a2.8 2.8 0 0 0-.121-.146c-.224-.27-.569-.686-.722-1.322a10.605 10.605 0 0 1-.269-.428c-.088-.145-.178-.295-.283-.448a2.811 2.811 0 0 0-.162-.208 3.728 3.728 0 0 1-.41-.58 2.447 2.447 0 0 1-.197-.512l-.004-.012a4.16 4.16 0 0 0-.272-.402c-.237-.322-.521-.711-.707-1.226-.265-.37-.472-.785-.673-1.188-.092-.182-.223-.442-.336-.635-.445-.097-.85-.366-1.121-.762s-.319-.774-.342-.957l-.008-.056a7.195 7.195 0 0 0-.514-1.077 2.04 2.04 0 0 1-.586-.568c-.238-.361-.323-.72-.385-.981-.008-.032-.014-.064-.021-.097a1.85 1.85 0 0 1-.545-.591c-.218-.394-.323-.898-.31-1.375l-.124-.359.027-.243a1.82 1.82 0 0 0-.062-.226l-.018.063c-.067.234-.161.437-.235.599-.034.074-.082.177-.093.215l-.016.145c.09.192.14.409.142.64l.001.139-.026.137c-.02.102-.047.198-.083.29l.034.308-.331.448a.972.972 0 0 0-.105.193c.008.094.008.188-.001.285l-.047.523-.177.173.078.247-.356.56a1.617 1.617 0 0 0-.143.315 5.632 5.632 0 0 1-.116.291c-.002.09-.012.179-.03.268-.073.42-.218.705-.327.918.115.506-.032 1.018-.44 1.526-.073.264-.135.534-.199.816-.133.581-.281 1.233-.569 1.964a1.742 1.742 0 0 1-.105.487l.023.009c-.094.31-.245.649-.406 1.012-.119.269-.332.746-.395.979l.113.535-.356.418.009.022-.193.513c-.119.313-.26.593-.384.839-.101.201-.254.506-.266.613l-.037.334-.21.341a2.533 2.533 0 0 1-.095.159 1.885 1.885 0 0 1-.281.667c-.061.21-.124.411-.189.61l.291-.045.195.075z" opacity=".25"/><path fill="#FFF" d="M5.116 37.439c.28-.644.562-1.299.845-1.957.942-2.19 1.916-4.455 2.99-6.619l.161-.324.092-.064c.031-.136.077-.258.128-.363.092-.207.223-.387.382-.53a140.43 140.43 0 0 1 1.748-3.492c.1-.209.221-.368.351-.49.122-.262.259-.537.399-.824.233-.474.474-.963.666-1.407.137-.313.302-.637.468-.95a1.54 1.54 0 0 1 .413-.772l.019-.036c.222-.412.411-.852.611-1.316.192-.447.392-.91.635-1.381l.111-.215.141-.133a4.86 4.86 0 0 1 .021-.09 3.34 3.34 0 0 1 .109-.32l.032-.083.095-.331.092-.086.27-.541.05-.001a3.59 3.59 0 0 1 .126-.274c.09-.176.196-.355.308-.539.129-.212.251-.413.33-.604l.604.205c.125-.291.267-.601.478-.883.229-.635.533-1.367.907-2.191l-.204-.072.844-1.473c.321-.561.588-1.201.871-1.878.251-.602.511-1.224.837-1.866l2.589 1.154a91.986 91.986 0 0 1-1.415 3.392l-.336.776.279.139.583-1.842.404 1.078-.046-.851.109-.071a2.899 2.899 0 0 0-.025-.315l-.099-.688.241-.248c.045-.164.106-.307.177-.429l.024-.131c.025-.142.052-.286.086-.433.016-.066.024-.143.034-.22.033-.241.074-.542.192-.841.171-.434.438-.707.597-.871l.027-.027.191-.668.77-.212c.089-.024.304-.171.477-.287a9.32 9.32 0 0 1 .496-.321c.218-.251.512-.423.853-.488l.57-.109.187.124c.162-.044.366-.084.602-.084.103 0 .208-.035.316-.019.306.048.539.237.698.237h.001c.156 0 .271.046.377.058l.541.08.363.416c.381.425.786.67 1.3.975.402.238.859.512 1.32.896.146.122.24.252.304.351.187.172.354.352.521.527.117.123.237.252.349.359.54.298.856.789 1.121 1.197.081.126.169.262.27.4.033.045.063.082.093.119.099.125.223.28.396.563.086.14.208.286.349.455.148.179.316.381.477.617.253.377.404.735.537 1.051.056.135.111.271.181.406l.049.056c.103.118.257.298.382.538.256.496.285.943.293 1.237.191.28.381.626.463 1.073l.096.511-.043.073c.266.224.545.558.627 1.054.025.154.041.392-.028.669.089.234.271.579.392.809.131.248.26.494.367.73.113.251.217.508.32.762.113.279.221.545.334.777.062.131.135.257.204.38.168.3.354.63.478 1.017.252.361.375.723.465.984.027.085.056.17.092.254.191.438.441.869.705 1.324.361.624.733 1.268 1.006 2.01.223.32.432.699.633 1.148.1.222.171.402.252.613.062.162.134.346.243.602.532.828.903 1.65 1.231 2.379.213.471.412.914.633 1.311.164.297.336.582.504.859.265.438.537.889.769 1.359.076.154.132.3.185.445.021.053.035.104.064.162.143.264.301.528.458.795.261.438.529.889.755 1.369.105.227.19.437.271.646.154.392.267.675.57 1.089l.096.129.063.146c.349.801.944 1.86 1.574 2.985l1.587 2.847-2.347.058a57.12 57.12 0 0 1-1.513.021c-.733 0-1.397-.018-2.03-.055a4.045 4.045 0 0 1-.388-.042c-.049-.007-.097-.017-.146-.019a22.873 22.873 0 0 0-.517-.006c-.465 0-.9.016-1.332.03l-.547.019c-.269.009-.537.015-.81.015-.646 0-1.207-.032-1.754-.099-.787.021-1.674.031-2.577.031-1.279 0-2.523-.021-3.605-.062-.42.03-.861.05-1.344.057l-.58.005-.429-.011-1.577-.075c-.035 0-.091-.003-.146-.003-.301 0-.631.044-.98.068-.379.026-.771.077-1.178.077-.248 0-.452-.047-.615-.065-.074-.01-.148-.032-.221-.032a4.583 4.583 0 0 0-.438.032c-.232.025-.496.054-.789.054l-2.296-.037a10.3 10.3 0 0 0-.894.05c-.354.028-.72.06-1.106.06-.29-.002-.508-.044-.667-.074l-.085-.018-.007.002a2.691 2.691 0 0 1-.391.064c-.293.022-.621.035-1.032.035-.162 0-.328-.002-.495-.006l-.758-.012-.857-.003-1.225.006c-1.967.011-3.825.021-6.007.099l-.056.002-.057-.002a29.01 29.01 0 0 0-1.373-.027c-.801 0-1.641.021-2.504.043-.756.018-1.528.037-2.306.043l-4.549.029 3.427-7.709zm14.034-3.46c.095-.015.237-.047.323-.066.099-.021.191-.043.271-.057l.131-.025.212-.002.182.012.15.014.122-.059.31-.006c.391-.009.809-.012 1.235-.012 1.093-.004 2.222-.008 3.013-.129l.204-.031.205.027c.192.026.41.041.665.041.326 0 .67-.041 1.035-.063.36-.021.724-.067 1.086-.067h.074c.178 0 .35.027.52.036.119.007.236.021.354.021.049 0 .1.005.15 0l.041-.008c.108-.022.272-.057.465-.067.103-.006.201-.009.302-.009.3 0 .579.022.848.045.208.017.415.035.621.035.063 0 .127-.002.188-.008.129-.012.246-.031.356-.049.231-.037.494-.081.812-.082l.94.016.673.016-.025-.046c-.055-.101-.108-.206-.163-.313a7.895 7.895 0 0 0-.212-.398c-.1-.094-.266-.25-.407-.477a2.115 2.115 0 0 1-.229-.521 2.227 2.227 0 0 1-.185-.284c-.125-.23-.185-.454-.226-.602l-.004-.015c-.082-.099-.205-.247-.312-.45a2.789 2.789 0 0 1-.23-.621l-.006-.024a2.891 2.891 0 0 0-.121-.146c-.224-.271-.569-.687-.722-1.322a13.49 13.49 0 0 1-.269-.43 8.436 8.436 0 0 0-.282-.448c-.05-.072-.108-.141-.163-.208-.134-.165-.286-.352-.41-.581a2.344 2.344 0 0 1-.197-.51l-.004-.013c-.06-.112-.164-.253-.272-.401-.237-.323-.521-.712-.707-1.227-.264-.369-.472-.785-.673-1.188a12.76 12.76 0 0 0-.334-.636 1.849 1.849 0 0 1-1.123-.761c-.272-.396-.319-.775-.342-.957l-.008-.057a7.04 7.04 0 0 0-.513-1.076 2.04 2.04 0 0 1-.585-.568c-.239-.362-.324-.721-.385-.982-.008-.031-.014-.064-.021-.096a1.855 1.855 0 0 1-.545-.592c-.218-.394-.323-.898-.31-1.375l-.124-.359.027-.242a1.78 1.78 0 0 0-.062-.227l-.017.063a4.181 4.181 0 0 1-.236.599c-.034.075-.082.177-.093.216l-.016.145c.09.191.14.408.142.639l.001.139-.026.137c-.02.102-.047.199-.083.291l.034.307-.331.448c-.037.05-.071.115-.105.193.008.094.008.188 0 .286l-.047.523-.177.172.078.248-.356.559a1.603 1.603 0 0 0-.143.316 6.015 6.015 0 0 1-.116.291 1.42 1.42 0 0 1-.031.267 3.001 3.001 0 0 1-.327.918c.115.507-.032 1.019-.44 1.526-.074.264-.135.535-.2.816-.133.582-.281 1.234-.569 1.965a1.773 1.773 0 0 1-.105.488l.023.008a9.23 9.23 0 0 1-.406 1.011c-.12.269-.332.747-.395.981l.113.535-.356.418.009.021-.193.515a8.834 8.834 0 0 1-.383.838c-.101.2-.254.506-.266.612l-.037.334-.21.341a2.533 2.533 0 0 1-.095.159 1.866 1.866 0 0 1-.281.668c-.061.209-.124.412-.189.609l.291-.046.194.074z"/><path fill="#606060" d="M37.293 13.002c-.1-.188-.299-.347-.404-.545-.244-.461-.367-.928-.662-1.369-.262-.388-.601-.705-.854-1.12-.188-.308-.282-.392-.427-.587-.42-.575-.643-1.109-1.043-1.242-.4-.346-.789-.84-1.149-1.139-.058-.047-.112-.182-.133-.2-.912-.761-1.878-1.013-2.769-2.005-.199-.021-.45.024-.736-.072-.128-.043-.286-.213-.403-.23-.436-.068-.726.346-1.191.036-.091.018-.07.107-.111.157-.631.316-1.065.766-1.605.914-.128.449-.493.559-.641.933-.092.231-.102.597-.166.866-.073.307-.097.604-.191.878-.189.098-.083.386-.213.521.056.389.025.723.088 1.115-.046.064-.042.164-.115.211.047.869.022 1.783.403 2.805.034.092.11.287.168.394.381.706.892 1.835.836 2.339.047.139.107.104.155.241-.078.144-.105.64.075.964.062.111.326.223.485.454.236.345.202.807.409 1.12.095.145.325.229.442.369.304.369.685 1.238.817 1.612.104.294.039.46.172.653.121.176.326.248.511.127.708.314 1.108 1.871 1.731 2.6.168.688.727 1.136 1.006 1.732.056.119.076.286.142.405.106.198.329.421.495.661.283.41.475.801.73 1.125.043.689.547.945.783 1.418.088.178.098.394.201.588.088.166.245.287.335.474.091.183.11.414.203.588.069.129.173.205.224.313.066.145.053.265.143.406.094.148.271.254.365.405.168.271.317.593.463.864.033.057.082.1.215.123-.031.131.041.21.122.311.079.096.17.217.116.318.101.068.18.131.141.176.033.021.124.045.128.066-.048.088.364.358.295.447.052.028.101.057.136.079-.06.075-.049.179.064.335-.057.016-.077.051-.059.108-.348-.142-.277.021-.467.024-.086.002-.25-.076-.295-.045-.1.062-.365-.013-.486.024-.037.011-.035.093-.074.104-.075.024-.201-.058-.272-.017-.146.08-.348.093-.536.086l-.945-.021-.916-.016c-.354 0-.655.092-1.053.125-.654.055-1.336-.098-1.994-.061-.166.01-.328.066-.479.078-.395.029-.771-.025-1.188-.021-1.019.015-2.041.171-2.999.037-1.224.188-3.009.127-4.432.156a.865.865 0 0 1-.473.071l-.237-.022-.12-.008a.154.154 0 0 0-.043 0c-.323.062-.879.237-1.202.116-.717.111-1.489.158-2.262.193.359-.918.743-1.842 1.029-2.914a.36.36 0 0 0 .162-.223.621.621 0 0 0 .021-.136c-.003-.013.013-.07.022-.113l.024-.126c.095-.029.175-.217.26-.348.058-.584.486-1.156.733-1.813-.094-.237.207-.563.189-.862.139-.062.017.174.147.021-.116-.552.661-1.885.863-2.549-.021.044-.07.032-.051-.025.145-.117.026-.258.107-.426.483-1.152.553-2.102.884-3.123.099-.102.376-.369.315-.531-.098.166-.19.393-.31.32.174-.272.292-.682.281-.923.152-.366.303-.521.357-.886.038-.078-.166.018-.086-.15.296-.475.301-.779.57-1.201-.06-.187.147-.734.286-.869.015-.17-.173.117-.147-.021.149-.427.273-.832.525-1.172-.013-.119-.062-.217-.009-.379.039-.107.104.082.137-.09-.001-.177-.17.059-.243-.017.051-.225-.03-.214-.055-.349.201-.254.145-.516.22-.795.077-.289.257-.566.336-.842.069-.236.022-.373.139-.623.094-.203.265-.333.36-.563.033-.13-.133.035-.061-.138.331-.81.66-1.617.766-2.277-.208.992-.722 1.551-.898 2.423-.17.066-.089.387-.3.434.042.084.172-.076.081.096-.036.054-.076.063-.107.158-.087-.175-.163-.008-.289.014-.297.675-.472 1.229-.733 1.813-.017.122.113-.039.081.094-.078.232-.175.393-.255.671-.139.031-.269.185-.36.029.366-.779.648-1.937 1.05-2.878.122-.285.359-.531.271-.77-.14.441-.475.697-.656 1.053-.235.461-.301 1.039-.546 1.482-.069.125-.14.157-.192.275-.042.091-.036.281-.087.382-.056.11-.115.091-.153.189-.077.202-.061.392-.163.608-.171.363-.431.678-.58 1.092-.08.053-.179-.031-.157-.133.222-.471.252-.555.463-1.045-.036.05-.074.072-.117.048.076-.146.132-.185.118-.313-.159.361-.344.238-.381.073.442-.878.849-2.017 1.258-2.72-.018-.105-.067-.191-.03-.336.313-.857.8-1.755 1.142-2.672-.615.943-1.004 2.044-1.478 3.248-.045.034-.1-.034-.137.09-.155.535-.44 1.111-.591 1.513-.19.122-.381.239-.573.349-.467 1.277-1.333 1.971-1.872 3.152-.076-.041-.141.041-.212.051-.021-.123-.076-.225-.081-.36.084-.196.132-.413.266-.559.222-1.101 1.028-2.439 1.458-3.737-.061-.21-.213-.137-.37-.082-.346.563-.413 1.189-.86 1.748-.408.088-.512-.246-.308-.742a36.25 36.25 0 0 1 1.284-2.707c.897-2.455 2.042-4.773 3.006-7.27-.672 1.324-1.079 2.648-1.742 3.807.058.021.063.076.015.168-.572 1.176-1.169 2.498-1.544 3.587-.385.353-.551 1.298-.941 1.653-.243-.244-.212-.668-.078-1.16-.195.476-.49.867-.687 1.25-.161.314-.326.91-.464 1.045-.033.031-.059-.07-.096.004.064-.13-.09.242-.098.271-.046.191-.01.169-.112.369-.133.261-.135.254-.28.391-.464.898-.779 1.831-1.258 2.72l-.143.301c-.058.078-.075-.02-.137.09-.035.063.039.063-.011.154-.187.347-.398.744-.555 1.104-.391.903-.943 1.929-1.263 2.664-.093.154-.084-.1-.183.121a145.454 145.454 0 0 0-1.929 3.869c-.056.098-.132-.035-.183.121-.052.088-.041.136-.028.182.006.021.014.045.014.071.002.024-.004.054-.044.137-.118.17-.235.325-.343.399-1.375 2.771-2.578 5.697-3.81 8.521l-2.536 5.699 2.347-.015c2.218-.02 4.389-.141 6.256-.059 2.665-.096 4.871-.09 7.288-.104l.875.004.757.012c.499.009.978.009 1.392-.024.143-.013.313-.078.48-.078.251 0 .505.097.756.098.679.004 1.374-.114 2.051-.109l2.234.036c.42.007.824-.087 1.241-.094.276-.005.566.071.854.069.805-.004 1.623-.129 2.384-.104l1.54.075.388.008.565-.002c.451-.008.9-.024 1.34-.06 1.984.074 4.428.078 6.279.027.859.113 1.66.111 2.451.088.793-.022 1.573-.067 2.479-.043.191.006.37.051.574.063 1.193.069 2.345.06 3.426.03-.809-1.452-1.62-2.844-2.081-3.903-.59-.802-.675-1.313-.985-1.974-.332-.709-.812-1.411-1.179-2.1-.121-.225-.158-.42-.271-.648-.346-.702-.817-1.395-1.24-2.156-.625-1.126-1.034-2.428-1.879-3.704-.283-.649-.348-.896-.535-1.31-.172-.382-.374-.76-.608-1.061-.401-1.221-1.219-2.238-1.741-3.435-.176-.403-.229-.827-.556-1.157-.079-.477-.413-.92-.657-1.424-.242-.496-.433-1.047-.672-1.574-.341-.752-.926-1.6-.938-2.289.439-.551-.654-.59-.848-1.23-.047-.368.135-.412.273-.653-.059-.32-.248-.551-.434-.794-.109-.328.029-.69-.187-1.107zm-15.576 5.357c.026.022.049.014.071-.018.082.151-.192.271-.071.018zm-.01-.112c.153-.364.267-.923.479-1.142.033-.07-.176-.005-.157-.135a1.61 1.61 0 0 0 .386-.549c.222.08-.145.549.034.658-.11.194-.165.289-.107.425-.261.383-.171.535-.387.815-.085-.137-.12.015-.248-.072z"/></svg>