<?xml version="1.0" encoding="utf-8"?>
<!-- Generator: Adobe Illustrator 15.0.0, SVG Export Plug-In . SVG Version: 6.00 Build 0)  -->
<!DOCTYPE svg PUBLIC "-//W3C//DTD SVG 1.1//EN" "http://www.w3.org/Graphics/SVG/1.1/DTD/svg11.dtd">
<svg version="1.1" id="Layer_1" xmlns="http://www.w3.org/2000/svg" xmlns:xlink="http://www.w3.org/1999/xlink" x="0px" y="0px"
	 width="58px" height="54px" viewBox="0 0 58 54" enable-background="new 0 0 58 54" xml:space="preserve">
<g id="Pressed_states">
	<g id="buttons_pressed">
	</g>
	<g id="buttons_pressed_on">
	</g>
	<g id="buttons_pressed_copy">
	</g>
	<g id="DrawingToolsButtonsTaped">
	</g>
	<g id="DrawingsShapesStrokesTaped">
		<g>
			<g opacity="0.25">
				<g>
					<path fill="#333333" d="M7.913,40.337c0.28-0.642,0.563-1.298,0.846-1.957c0.942-2.188,1.916-4.454,2.99-6.618l0.161-0.324
						l0.092-0.063c0.03-0.136,0.077-0.258,0.128-0.363c0.092-0.208,0.223-0.388,0.382-0.532c0.55-1.136,1.137-2.309,1.748-3.492
						c0.1-0.208,0.221-0.367,0.351-0.49c0.122-0.261,0.259-0.537,0.399-0.823c0.233-0.474,0.474-0.963,0.666-1.407
						c0.137-0.314,0.302-0.637,0.468-0.951c0.03-0.151,0.085-0.3,0.163-0.438c0.07-0.125,0.153-0.236,0.249-0.333l0.019-0.036
						c0.222-0.412,0.411-0.852,0.611-1.316c0.192-0.448,0.392-0.911,0.635-1.382l0.11-0.214l0.142-0.133
						c0.006-0.027,0.013-0.058,0.021-0.091c0.008-0.034,0.052-0.173,0.109-0.319l0.032-0.083l0.095-0.331l0.093-0.086l0.27-0.541
						l0.05-0.001c0.038-0.094,0.08-0.186,0.126-0.275c0.09-0.176,0.196-0.354,0.308-0.538c0.129-0.212,0.251-0.413,0.329-0.604
						L20.11,16.8c0.125-0.291,0.268-0.601,0.479-0.883c0.229-0.635,0.533-1.368,0.907-2.191L21.29,13.65l0.844-1.473
						c0.321-0.562,0.588-1.201,0.871-1.878c0.251-0.602,0.511-1.224,0.837-1.866l2.589,1.154c-0.451,1.166-0.941,2.298-1.415,3.392
						c-0.114,0.262-0.226,0.52-0.336,0.776l0.28,0.142l0.584-1.842l0.404,1.079c-0.001-0.013-0.047-0.851-0.047-0.851l0.109-0.072
						c-0.004-0.102-0.009-0.205-0.025-0.314l-0.099-0.688l0.24-0.249c0.046-0.164,0.106-0.306,0.177-0.428
						c0.008-0.042,0.017-0.087,0.024-0.131c0.025-0.143,0.052-0.287,0.086-0.434c0.017-0.066,0.024-0.143,0.034-0.219
						c0.033-0.242,0.074-0.543,0.192-0.842c0.172-0.434,0.438-0.707,0.598-0.87c0.009-0.01,0.018-0.019,0.026-0.027l0.191-0.668
						l0.77-0.212c0.089-0.024,0.304-0.171,0.477-0.287c0.144-0.098,0.309-0.21,0.495-0.321c0.218-0.251,0.513-0.423,0.854-0.488
						l0.57-0.11l0.187,0.125c0.162-0.044,0.366-0.084,0.603-0.084c0.104,0,0.208-0.035,0.315-0.019
						c0.307,0.048,0.539,0.237,0.697,0.237h0.002c0.156,0,0.271,0.046,0.377,0.057l0.541,0.08l0.363,0.416
						c0.381,0.426,0.786,0.671,1.3,0.975c0.403,0.239,0.86,0.513,1.32,0.896c0.146,0.122,0.241,0.252,0.304,0.351
						c0.188,0.172,0.355,0.352,0.521,0.527c0.117,0.123,0.236,0.252,0.348,0.358c0.54,0.299,0.857,0.79,1.121,1.198
						c0.082,0.126,0.169,0.262,0.271,0.4c0.031,0.045,0.062,0.082,0.092,0.119c0.1,0.125,0.223,0.28,0.396,0.562
						c0.086,0.141,0.208,0.287,0.349,0.456c0.148,0.179,0.316,0.381,0.477,0.617c0.253,0.377,0.404,0.735,0.537,1.051
						c0.056,0.134,0.111,0.271,0.181,0.405c0.017,0.02,0.032,0.038,0.05,0.057c0.102,0.118,0.256,0.298,0.381,0.537
						c0.256,0.496,0.285,0.944,0.293,1.238c0.191,0.279,0.381,0.626,0.463,1.073l0.096,0.511l-0.042,0.072
						c0.265,0.225,0.544,0.559,0.626,1.055c0.025,0.154,0.04,0.392-0.028,0.669c0.091,0.234,0.271,0.579,0.394,0.808
						c0.13,0.248,0.259,0.494,0.365,0.731c0.114,0.251,0.219,0.507,0.321,0.761c0.113,0.28,0.22,0.545,0.334,0.778
						c0.063,0.131,0.136,0.257,0.204,0.38c0.168,0.299,0.354,0.629,0.477,1.016c0.252,0.361,0.377,0.724,0.465,0.985
						c0.029,0.085,0.057,0.17,0.094,0.254c0.189,0.438,0.439,0.868,0.704,1.324c0.36,0.625,0.733,1.268,1.006,2.009
						c0.224,0.32,0.433,0.699,0.634,1.148c0.1,0.223,0.171,0.402,0.252,0.613c0.062,0.162,0.135,0.346,0.243,0.602
						c0.532,0.828,0.903,1.65,1.231,2.379c0.213,0.471,0.412,0.914,0.633,1.312c0.164,0.296,0.337,0.581,0.505,0.858
						c0.264,0.438,0.537,0.89,0.769,1.359c0.076,0.154,0.133,0.301,0.186,0.444c0.02,0.053,0.035,0.106,0.064,0.162
						c0.141,0.265,0.299,0.528,0.457,0.797c0.262,0.437,0.528,0.888,0.756,1.368c0.104,0.226,0.188,0.438,0.271,0.646
						c0.154,0.392,0.266,0.674,0.57,1.088l0.095,0.129l0.063,0.146c0.349,0.8,0.943,1.861,1.574,2.986l1.588,2.846l-2.348,0.059
						c-0.491,0.012-0.996,0.021-1.514,0.021c-0.732,0-1.396-0.019-2.03-0.056c-0.138-0.008-0.265-0.023-0.388-0.041
						c-0.049-0.008-0.096-0.018-0.146-0.019c-0.177-0.005-0.349-0.008-0.517-0.008c-0.465,0-0.9,0.017-1.331,0.031l-0.548,0.02
						c-0.269,0.009-0.536,0.015-0.81,0.015c-0.646,0-1.207-0.032-1.755-0.1c-0.786,0.021-1.674,0.03-2.576,0.03
						c-1.279,0-2.523-0.021-3.605-0.062c-0.42,0.031-0.861,0.051-1.344,0.059l-0.58,0.003l-0.428-0.009l-1.578-0.076
						c-0.035-0.001-0.091-0.002-0.146-0.002c-0.302,0-0.632,0.043-0.981,0.068c-0.379,0.026-0.771,0.076-1.179,0.076l0,0
						c-0.248,0-0.452-0.046-0.614-0.066c-0.076-0.01-0.148-0.032-0.222-0.032c-0.147,0.003-0.293,0.017-0.438,0.032
						c-0.231,0.027-0.494,0.056-0.787,0.056l-2.297-0.038c-0.291,0-0.584,0.023-0.894,0.051c-0.354,0.028-0.721,0.06-1.106,0.06
						c-0.29-0.003-0.508-0.044-0.667-0.075c-0.028-0.005-0.057-0.012-0.085-0.018l-0.007,0.002
						c-0.137,0.031-0.269,0.056-0.391,0.064c-0.293,0.023-0.621,0.034-1.032,0.034c-0.161,0-0.327-0.002-0.495-0.004l-0.758-0.013
						l-0.857-0.004l-1.226,0.008c-1.967,0.01-3.824,0.02-6.007,0.098l-0.056,0.002l-0.057-0.003
						c-0.44-0.019-0.899-0.026-1.373-0.026c-0.801,0-1.642,0.021-2.504,0.043c-0.756,0.019-1.528,0.037-2.306,0.043l-4.55,0.028
						L7.913,40.337z M21.947,36.878c0.096-0.015,0.237-0.048,0.323-0.067c0.099-0.021,0.19-0.043,0.271-0.058l0.131-0.024
						l0.213-0.002l0.182,0.013l0.15,0.014l0.122-0.06l0.31-0.006c0.392-0.008,0.81-0.011,1.235-0.012
						c1.093-0.005,2.222-0.009,3.013-0.129l0.204-0.031l0.204,0.028c0.192,0.026,0.41,0.039,0.665,0.039
						c0.325,0,0.67-0.04,1.035-0.062c0.36-0.021,0.724-0.068,1.086-0.068h0.074c0.178,0,0.351,0.027,0.521,0.036
						c0.119,0.006,0.234,0.021,0.354,0.021c0.049,0,0.1,0.005,0.148-0.001l0.041-0.008c0.108-0.023,0.272-0.057,0.465-0.066
						c0.104-0.006,0.203-0.009,0.303-0.009c0.3,0,0.579,0.022,0.85,0.044c0.207,0.018,0.414,0.035,0.62,0.035
						c0.063,0,0.127-0.002,0.188-0.007c0.13-0.013,0.246-0.031,0.357-0.05c0.23-0.037,0.493-0.08,0.811-0.081l0.941,0.016
						l0.672,0.015l-0.025-0.047c-0.055-0.1-0.107-0.205-0.163-0.312c-0.067-0.135-0.138-0.271-0.211-0.398
						c-0.101-0.095-0.267-0.252-0.408-0.479c-0.124-0.199-0.19-0.387-0.229-0.52c-0.059-0.076-0.123-0.17-0.185-0.283
						c-0.125-0.232-0.187-0.455-0.226-0.602c-0.002-0.006-0.002-0.01-0.004-0.015c-0.082-0.101-0.205-0.248-0.312-0.451
						c-0.132-0.248-0.191-0.472-0.23-0.62l-0.006-0.025c-0.028-0.037-0.08-0.1-0.121-0.146c-0.224-0.27-0.569-0.686-0.722-1.322
						c-0.097-0.145-0.184-0.287-0.269-0.428c-0.088-0.145-0.178-0.295-0.283-0.448c-0.05-0.073-0.107-0.142-0.162-0.208
						c-0.134-0.164-0.286-0.352-0.41-0.58c-0.109-0.203-0.162-0.389-0.197-0.512l-0.004-0.012c-0.061-0.112-0.164-0.254-0.272-0.402
						c-0.237-0.322-0.521-0.711-0.707-1.226c-0.265-0.37-0.472-0.785-0.673-1.188c-0.092-0.182-0.223-0.442-0.336-0.635
						c-0.445-0.097-0.85-0.366-1.121-0.762s-0.319-0.774-0.342-0.957l-0.008-0.056c-0.113-0.313-0.367-0.846-0.514-1.077
						c-0.156-0.106-0.394-0.277-0.586-0.568c-0.238-0.361-0.323-0.72-0.385-0.981c-0.008-0.032-0.014-0.064-0.021-0.097
						c-0.146-0.109-0.377-0.288-0.545-0.591c-0.218-0.394-0.323-0.898-0.31-1.375c-0.007-0.02-0.124-0.359-0.124-0.359l0.027-0.243
						c-0.01-0.053-0.03-0.13-0.062-0.226c-0.006,0.021-0.012,0.041-0.018,0.063c-0.067,0.234-0.161,0.437-0.235,0.599
						c-0.034,0.074-0.082,0.177-0.093,0.215c-0.001,0.012-0.013,0.118-0.016,0.145c0.09,0.192,0.14,0.409,0.142,0.64l0.001,0.139
						l-0.026,0.137c-0.02,0.102-0.047,0.198-0.083,0.29l0.034,0.308l-0.331,0.448c-0.037,0.049-0.071,0.115-0.105,0.193
						c0.008,0.094,0.008,0.188-0.001,0.285l-0.047,0.523l-0.177,0.173l0.078,0.247l-0.356,0.56
						c-0.053,0.083-0.082,0.156-0.143,0.315c-0.032,0.086-0.069,0.183-0.116,0.291c-0.002,0.09-0.012,0.179-0.03,0.268
						c-0.073,0.42-0.218,0.705-0.327,0.918c0.115,0.506-0.032,1.018-0.44,1.526c-0.073,0.264-0.135,0.534-0.199,0.816
						c-0.133,0.581-0.281,1.233-0.569,1.964c-0.014,0.185-0.052,0.347-0.105,0.487l0.023,0.009c-0.094,0.31-0.245,0.649-0.406,1.012
						c-0.119,0.269-0.332,0.746-0.395,0.979l0.113,0.535l-0.356,0.418l0.009,0.022l-0.193,0.513
						c-0.119,0.313-0.26,0.593-0.384,0.839c-0.101,0.201-0.254,0.506-0.266,0.613l-0.037,0.334l-0.21,0.341
						c-0.025,0.045-0.057,0.101-0.095,0.159c-0.009,0.043-0.019,0.085-0.03,0.126c-0.056,0.196-0.141,0.379-0.251,0.541
						c-0.061,0.21-0.124,0.411-0.189,0.61l0.291-0.045L21.947,36.878z"/>
				</g>
			</g>
			<g>
				<path fill="#FFFFFF" d="M4.913,37.337c0.28-0.642,0.563-1.298,0.846-1.957c0.942-2.188,1.916-4.454,2.99-6.618l0.161-0.324
					l0.092-0.063c0.03-0.136,0.077-0.258,0.128-0.363c0.092-0.208,0.223-0.388,0.382-0.532c0.55-1.136,1.137-2.309,1.748-3.492
					c0.1-0.208,0.221-0.367,0.351-0.49c0.122-0.261,0.259-0.537,0.399-0.823c0.233-0.474,0.474-0.963,0.666-1.407
					c0.137-0.314,0.302-0.637,0.468-0.951c0.03-0.151,0.085-0.3,0.163-0.438c0.07-0.125,0.153-0.236,0.249-0.333l0.019-0.036
					c0.222-0.412,0.411-0.852,0.611-1.316c0.192-0.448,0.392-0.911,0.635-1.382l0.11-0.214l0.142-0.133
					c0.006-0.027,0.013-0.058,0.021-0.091c0.008-0.034,0.052-0.173,0.109-0.319l0.032-0.083l0.095-0.331l0.093-0.086l0.27-0.541
					l0.05-0.001c0.038-0.094,0.08-0.186,0.126-0.275c0.09-0.176,0.196-0.354,0.308-0.538c0.129-0.212,0.251-0.413,0.329-0.604
					L17.11,13.8c0.125-0.291,0.268-0.601,0.479-0.883c0.229-0.635,0.533-1.368,0.907-2.191L18.29,10.65l0.844-1.473
					c0.321-0.562,0.588-1.201,0.871-1.878c0.251-0.602,0.511-1.224,0.837-1.866l2.589,1.154c-0.451,1.166-0.941,2.298-1.415,3.392
					c-0.114,0.262-0.226,0.52-0.336,0.776l0.28,0.142l0.584-1.842l0.404,1.079c-0.001-0.013-0.047-0.851-0.047-0.851l0.109-0.072
					c-0.004-0.102-0.009-0.205-0.025-0.314l-0.099-0.688l0.24-0.249c0.046-0.164,0.106-0.306,0.177-0.428
					c0.008-0.042,0.017-0.087,0.024-0.131c0.025-0.143,0.052-0.287,0.086-0.434c0.017-0.066,0.024-0.143,0.034-0.219
					c0.033-0.242,0.074-0.543,0.192-0.842c0.172-0.434,0.438-0.707,0.598-0.87c0.009-0.01,0.018-0.019,0.026-0.027l0.191-0.668
					l0.77-0.212c0.089-0.024,0.304-0.171,0.477-0.287c0.144-0.098,0.309-0.21,0.495-0.321c0.218-0.251,0.513-0.423,0.854-0.488
					l0.57-0.11l0.187,0.125c0.162-0.044,0.366-0.084,0.602-0.084c0.104,0,0.208-0.035,0.316-0.019
					c0.306,0.048,0.539,0.237,0.697,0.237h0.002c0.156,0,0.271,0.046,0.377,0.057l0.541,0.08l0.363,0.416
					c0.381,0.426,0.786,0.671,1.3,0.975c0.403,0.239,0.86,0.513,1.32,0.896c0.146,0.122,0.241,0.252,0.304,0.351
					c0.188,0.172,0.355,0.352,0.521,0.527c0.117,0.123,0.236,0.252,0.348,0.358c0.54,0.299,0.857,0.79,1.121,1.198
					c0.082,0.126,0.169,0.262,0.271,0.4c0.031,0.045,0.062,0.082,0.092,0.119c0.1,0.125,0.223,0.28,0.396,0.562
					c0.086,0.141,0.208,0.287,0.349,0.456c0.148,0.179,0.316,0.381,0.477,0.617c0.253,0.377,0.404,0.735,0.537,1.051
					c0.056,0.134,0.111,0.271,0.181,0.405c0.017,0.02,0.032,0.038,0.05,0.057c0.102,0.118,0.256,0.298,0.381,0.537
					c0.256,0.496,0.285,0.944,0.293,1.238c0.191,0.279,0.381,0.626,0.463,1.073l0.096,0.511l-0.042,0.072
					c0.265,0.225,0.544,0.559,0.626,1.055c0.025,0.154,0.04,0.392-0.028,0.669c0.091,0.234,0.271,0.579,0.394,0.808
					c0.13,0.248,0.259,0.494,0.365,0.731c0.114,0.251,0.219,0.507,0.321,0.761c0.113,0.28,0.22,0.545,0.334,0.778
					c0.063,0.131,0.136,0.257,0.204,0.38c0.168,0.299,0.354,0.629,0.477,1.016c0.252,0.361,0.377,0.724,0.465,0.985
					c0.029,0.085,0.057,0.17,0.094,0.254c0.189,0.438,0.439,0.868,0.704,1.324c0.36,0.624,0.733,1.268,1.006,2.009
					c0.224,0.321,0.433,0.699,0.634,1.149c0.1,0.222,0.171,0.402,0.252,0.613c0.062,0.162,0.135,0.346,0.243,0.602
					c0.532,0.828,0.903,1.65,1.231,2.379c0.213,0.471,0.412,0.914,0.633,1.312c0.164,0.296,0.337,0.581,0.505,0.858
					c0.264,0.438,0.537,0.89,0.769,1.359c0.076,0.154,0.133,0.301,0.186,0.444c0.02,0.053,0.035,0.106,0.064,0.162
					c0.141,0.265,0.299,0.528,0.457,0.797c0.262,0.437,0.528,0.888,0.756,1.368c0.104,0.226,0.188,0.438,0.271,0.646
					c0.154,0.392,0.266,0.674,0.57,1.088l0.095,0.129l0.063,0.146c0.349,0.8,0.943,1.861,1.574,2.986l1.588,2.846l-2.348,0.059
					c-0.491,0.012-0.996,0.021-1.514,0.021c-0.732,0-1.396-0.019-2.03-0.056c-0.138-0.008-0.265-0.023-0.388-0.041
					c-0.049-0.008-0.096-0.018-0.146-0.019c-0.177-0.005-0.349-0.008-0.517-0.008c-0.465,0-0.9,0.017-1.331,0.031l-0.548,0.02
					c-0.269,0.009-0.536,0.015-0.81,0.015c-0.646,0-1.207-0.032-1.755-0.1c-0.786,0.021-1.674,0.03-2.576,0.03
					c-1.279,0-2.523-0.021-3.604-0.062c-0.421,0.031-0.862,0.051-1.345,0.059l-0.58,0.003l-0.428-0.009l-1.578-0.076
					c-0.035-0.001-0.091-0.002-0.146-0.002c-0.302,0-0.632,0.043-0.981,0.068c-0.379,0.026-0.771,0.076-1.179,0.076l0,0
					c-0.248,0-0.452-0.046-0.614-0.066c-0.076-0.01-0.148-0.032-0.222-0.032c-0.147,0.003-0.293,0.017-0.438,0.032
					c-0.232,0.027-0.495,0.056-0.788,0.056l-2.297-0.038c-0.291,0-0.584,0.023-0.894,0.051c-0.354,0.028-0.721,0.06-1.106,0.06
					c-0.29-0.003-0.508-0.044-0.667-0.075c-0.028-0.005-0.057-0.012-0.085-0.018l-0.007,0.002c-0.137,0.031-0.269,0.056-0.391,0.064
					c-0.293,0.023-0.621,0.034-1.032,0.034c-0.161,0-0.327-0.002-0.495-0.004l-0.758-0.013l-0.857-0.004l-1.226,0.008
					c-1.967,0.01-3.824,0.02-6.007,0.098l-0.056,0.002l-0.057-0.003c-0.44-0.019-0.899-0.026-1.373-0.026
					c-0.801,0-1.642,0.021-2.504,0.043c-0.756,0.019-1.528,0.037-2.306,0.043l-4.55,0.028L4.913,37.337z M18.947,33.878
					c0.096-0.015,0.237-0.048,0.323-0.067c0.099-0.021,0.19-0.043,0.271-0.058l0.131-0.024l0.213-0.002l0.182,0.013l0.15,0.014
					l0.122-0.06l0.31-0.006c0.392-0.008,0.81-0.011,1.235-0.012c1.093-0.005,2.222-0.009,3.013-0.129l0.204-0.031l0.204,0.028
					c0.192,0.026,0.41,0.039,0.665,0.039c0.325,0,0.67-0.04,1.035-0.062c0.36-0.021,0.724-0.068,1.086-0.068h0.074
					c0.178,0,0.35,0.027,0.52,0.036c0.119,0.006,0.235,0.021,0.354,0.021c0.049,0,0.1,0.005,0.149-0.001l0.041-0.008
					c0.108-0.023,0.272-0.057,0.464-0.066c0.104-0.006,0.203-0.009,0.303-0.009c0.3,0,0.579,0.022,0.85,0.044
					c0.207,0.018,0.414,0.035,0.62,0.035c0.063,0,0.127-0.002,0.188-0.007c0.13-0.013,0.246-0.031,0.357-0.05
					c0.23-0.037,0.493-0.08,0.811-0.081l0.941,0.016l0.672,0.015l-0.025-0.047c-0.055-0.1-0.107-0.205-0.163-0.312
					c-0.067-0.135-0.138-0.271-0.211-0.398c-0.101-0.095-0.267-0.252-0.408-0.479c-0.124-0.199-0.19-0.387-0.229-0.52
					c-0.059-0.076-0.123-0.17-0.185-0.283c-0.125-0.232-0.187-0.455-0.226-0.602c-0.002-0.006-0.002-0.01-0.004-0.015
					c-0.082-0.101-0.205-0.248-0.312-0.451c-0.132-0.248-0.191-0.472-0.23-0.62l-0.006-0.025c-0.028-0.037-0.08-0.1-0.121-0.146
					c-0.224-0.27-0.569-0.686-0.722-1.322c-0.097-0.145-0.184-0.287-0.269-0.428c-0.088-0.145-0.178-0.295-0.283-0.448
					c-0.05-0.073-0.107-0.142-0.162-0.208c-0.134-0.165-0.286-0.352-0.41-0.581c-0.109-0.202-0.162-0.388-0.197-0.511l-0.004-0.012
					c-0.061-0.112-0.164-0.253-0.272-0.402c-0.237-0.322-0.521-0.711-0.707-1.226c-0.265-0.37-0.472-0.785-0.673-1.188
					c-0.091-0.182-0.222-0.442-0.335-0.635c-0.446-0.097-0.85-0.366-1.122-0.762s-0.319-0.774-0.342-0.957l-0.008-0.056
					c-0.112-0.313-0.366-0.846-0.513-1.077c-0.156-0.106-0.394-0.277-0.586-0.568c-0.238-0.361-0.323-0.72-0.385-0.981
					c-0.008-0.032-0.014-0.064-0.021-0.097c-0.146-0.109-0.377-0.288-0.545-0.591c-0.218-0.394-0.323-0.898-0.31-1.375
					c-0.007-0.02-0.124-0.359-0.124-0.359l0.027-0.243c-0.01-0.053-0.03-0.13-0.062-0.226c-0.006,0.021-0.012,0.041-0.018,0.063
					c-0.067,0.234-0.161,0.437-0.235,0.599c-0.034,0.074-0.082,0.177-0.093,0.215c-0.001,0.012-0.013,0.118-0.016,0.145
					c0.09,0.192,0.14,0.409,0.142,0.64l0.001,0.139l-0.026,0.137c-0.02,0.102-0.047,0.198-0.083,0.29l0.034,0.308l-0.331,0.448
					c-0.037,0.049-0.071,0.115-0.105,0.193c0.008,0.094,0.008,0.188-0.001,0.285l-0.047,0.523l-0.177,0.173l0.078,0.247l-0.356,0.56
					c-0.053,0.083-0.082,0.156-0.143,0.315c-0.032,0.086-0.069,0.183-0.116,0.291c-0.002,0.09-0.012,0.179-0.03,0.268
					c-0.073,0.42-0.218,0.705-0.327,0.918c0.115,0.506-0.032,1.018-0.44,1.526c-0.073,0.264-0.135,0.534-0.199,0.816
					c-0.133,0.581-0.281,1.233-0.569,1.965c-0.014,0.184-0.052,0.346-0.105,0.487l0.023,0.009c-0.094,0.309-0.245,0.649-0.406,1.011
					c-0.119,0.269-0.332,0.746-0.395,0.979l0.113,0.535l-0.356,0.418l0.009,0.022l-0.193,0.513c-0.119,0.313-0.26,0.593-0.384,0.839
					c-0.101,0.201-0.254,0.506-0.266,0.613l-0.037,0.334l-0.21,0.341c-0.025,0.045-0.057,0.101-0.095,0.159
					c-0.009,0.043-0.019,0.085-0.03,0.126c-0.056,0.196-0.141,0.379-0.251,0.541c-0.061,0.21-0.124,0.411-0.189,0.61l0.291-0.045
					L18.947,33.878z"/>
			</g>
			<path fill="#F9A737" d="M37.091,12.9c-0.099-0.188-0.299-0.347-0.403-0.545c-0.246-0.462-0.367-0.928-0.662-1.369
				c-0.262-0.388-0.601-0.706-0.854-1.12c-0.188-0.308-0.282-0.392-0.426-0.588c-0.42-0.574-0.644-1.108-1.044-1.241
				c-0.4-0.346-0.79-0.841-1.15-1.139c-0.057-0.047-0.111-0.182-0.133-0.2c-0.912-0.762-1.878-1.013-2.768-2.006
				c-0.2-0.021-0.45,0.025-0.737-0.072c-0.129-0.043-0.286-0.212-0.403-0.23c-0.436-0.067-0.726,0.347-1.191,0.037
				c-0.091,0.018-0.069,0.107-0.111,0.156c-0.631,0.316-1.065,0.767-1.604,0.915c-0.128,0.449-0.493,0.559-0.642,0.933
				c-0.092,0.231-0.102,0.597-0.165,0.865C24.724,7.604,24.7,7.9,24.606,8.175c-0.189,0.098-0.082,0.385-0.213,0.521
				c0.056,0.389,0.025,0.722,0.088,1.114c-0.047,0.065-0.042,0.164-0.115,0.212c0.047,0.869,0.022,1.783,0.403,2.805
				c0.034,0.092,0.11,0.287,0.168,0.394c0.381,0.706,0.892,1.834,0.836,2.338c0.047,0.139,0.107,0.104,0.154,0.242
				c-0.077,0.144-0.104,0.64,0.075,0.964c0.062,0.111,0.326,0.223,0.485,0.454c0.236,0.345,0.202,0.807,0.409,1.12
				c0.095,0.145,0.325,0.229,0.441,0.369c0.305,0.368,0.686,1.238,0.817,1.612c0.104,0.294,0.039,0.459,0.173,0.653
				c0.121,0.176,0.326,0.248,0.511,0.127c0.708,0.314,1.109,1.871,1.73,2.6c0.168,0.688,0.728,1.136,1.007,1.732
				c0.056,0.119,0.077,0.286,0.142,0.405c0.107,0.197,0.329,0.42,0.495,0.66c0.283,0.411,0.474,0.801,0.729,1.126
				c0.043,0.689,0.547,0.945,0.783,1.418c0.088,0.178,0.099,0.393,0.201,0.588c0.088,0.165,0.245,0.287,0.336,0.473
				c0.09,0.184,0.108,0.414,0.202,0.588c0.069,0.129,0.173,0.205,0.224,0.314c0.066,0.145,0.054,0.264,0.143,0.405
				c0.094,0.149,0.271,0.255,0.365,0.405c0.168,0.271,0.316,0.594,0.464,0.865c0.032,0.055,0.082,0.098,0.214,0.122
				c-0.031,0.132,0.041,0.21,0.122,0.312c0.079,0.096,0.17,0.217,0.116,0.318c0.102,0.067,0.181,0.131,0.141,0.174
				c0.034,0.021,0.124,0.045,0.128,0.066c-0.048,0.088,0.364,0.36,0.296,0.449c0.053,0.027,0.1,0.055,0.137,0.078
				c-0.061,0.076-0.049,0.179,0.063,0.336c-0.058,0.015-0.077,0.05-0.058,0.107c-0.348-0.142-0.278,0.021-0.469,0.024
				c-0.086,0.003-0.248-0.075-0.295-0.044c-0.1,0.061-0.365-0.014-0.486,0.023c-0.036,0.012-0.034,0.093-0.074,0.104
				c-0.075,0.024-0.201-0.058-0.271-0.017c-0.146,0.08-0.349,0.094-0.537,0.086L33.741,34.8l-0.916-0.016
				c-0.354,0.001-0.655,0.093-1.052,0.126c-0.655,0.054-1.338-0.098-1.996-0.061c-0.166,0.01-0.326,0.064-0.479,0.076
				c-0.395,0.03-0.771-0.023-1.188-0.019c-1.019,0.013-2.041,0.17-2.999,0.036c-1.224,0.188-3.009,0.127-4.432,0.156
				c-0.159,0.077-0.315,0.084-0.473,0.071l-0.237-0.022l-0.12-0.008c-0.018-0.002-0.028-0.002-0.043,0
				c-0.323,0.062-0.879,0.237-1.202,0.117c-0.717,0.111-1.489,0.157-2.262,0.193c0.359-0.919,0.743-1.842,1.029-2.915
				c0.089-0.054,0.137-0.134,0.161-0.222c0.013-0.045,0.02-0.092,0.021-0.137c-0.003-0.013,0.013-0.07,0.022-0.113l0.024-0.125
				c0.095-0.029,0.175-0.217,0.26-0.349c0.058-0.584,0.485-1.155,0.733-1.813c-0.094-0.238,0.207-0.564,0.189-0.863
				c0.139-0.061,0.017,0.175,0.146,0.021c-0.116-0.552,0.661-1.885,0.863-2.548c-0.021,0.044-0.07,0.032-0.051-0.025
				c0.145-0.117,0.025-0.258,0.107-0.426c0.483-1.153,0.553-2.102,0.884-3.123c0.099-0.103,0.376-0.369,0.315-0.532
				c-0.098,0.167-0.19,0.394-0.31,0.321c0.174-0.272,0.292-0.683,0.28-0.923c0.152-0.366,0.304-0.521,0.357-0.886
				c0.037-0.078-0.166,0.018-0.086-0.15c0.296-0.475,0.301-0.779,0.57-1.201c-0.06-0.187,0.147-0.734,0.285-0.869
				c0.016-0.171-0.173,0.117-0.146-0.021c0.149-0.427,0.272-0.832,0.524-1.173c-0.013-0.119-0.062-0.216-0.009-0.378
				c0.039-0.108,0.104,0.082,0.137-0.09c-0.001-0.177-0.17,0.059-0.243-0.017c0.052-0.225-0.03-0.214-0.055-0.349
				c0.2-0.254,0.145-0.516,0.22-0.796c0.077-0.288,0.257-0.565,0.336-0.841c0.069-0.237,0.022-0.373,0.14-0.623
				c0.094-0.204,0.265-0.333,0.36-0.563c0.033-0.129-0.133,0.036-0.061-0.137c0.33-0.81,0.66-1.617,0.766-2.277
				c-0.207,0.992-0.722,1.551-0.897,2.423c-0.171,0.066-0.09,0.387-0.3,0.434c0.042,0.084,0.172-0.077,0.081,0.095
				c-0.036,0.055-0.076,0.063-0.107,0.159c-0.087-0.175-0.163-0.008-0.289,0.014c-0.298,0.675-0.472,1.229-0.733,1.812
				c-0.017,0.123,0.112-0.039,0.081,0.095c-0.078,0.231-0.175,0.392-0.255,0.671c-0.139,0.031-0.269,0.184-0.36,0.029
				c0.366-0.779,0.648-1.937,1.051-2.879c0.122-0.285,0.359-0.531,0.271-0.769c-0.141,0.441-0.475,0.697-0.656,1.053
				c-0.235,0.461-0.301,1.038-0.546,1.482c-0.069,0.125-0.14,0.157-0.192,0.274c-0.042,0.092-0.036,0.282-0.088,0.383
				c-0.056,0.109-0.114,0.091-0.152,0.189c-0.077,0.201-0.061,0.392-0.163,0.608c-0.171,0.363-0.431,0.677-0.58,1.092
				c-0.08,0.053-0.18-0.032-0.157-0.134c0.223-0.471,0.253-0.555,0.464-1.044c-0.036,0.05-0.074,0.072-0.117,0.048
				c0.076-0.146,0.133-0.185,0.118-0.314c-0.159,0.362-0.344,0.239-0.381,0.074c0.441-0.879,0.849-2.018,1.258-2.721
				c-0.018-0.105-0.067-0.19-0.029-0.335c0.313-0.857,0.8-1.755,1.142-2.672c-0.615,0.943-1.004,2.044-1.478,3.248
				c-0.045,0.034-0.1-0.034-0.137,0.09c-0.155,0.535-0.44,1.111-0.592,1.513c-0.19,0.122-0.381,0.239-0.573,0.348
				c-0.467,1.277-1.333,1.972-1.872,3.153c-0.075-0.042-0.141,0.04-0.212,0.051c-0.021-0.124-0.076-0.226-0.081-0.36
				c0.084-0.196,0.132-0.414,0.266-0.559c0.222-1.102,1.028-2.439,1.458-3.738c-0.061-0.209-0.213-0.136-0.37-0.081
				c-0.346,0.563-0.413,1.189-0.86,1.748c-0.408,0.088-0.512-0.247-0.308-0.743c0.34-0.821,1.004-2.202,1.284-2.707
				c0.897-2.454,2.042-4.773,3.006-7.269c-0.672,1.324-1.078,2.648-1.741,3.806c0.058,0.021,0.063,0.077,0.015,0.168
				c-0.572,1.176-1.169,2.498-1.544,3.588c-0.386,0.353-0.551,1.297-0.941,1.653c-0.243-0.244-0.212-0.669-0.078-1.16
				c-0.195,0.476-0.49,0.866-0.687,1.25c-0.161,0.314-0.326,0.91-0.464,1.044c-0.033,0.032-0.059-0.07-0.096,0.004
				c0.064-0.129-0.091,0.242-0.098,0.271c-0.046,0.191-0.01,0.168-0.112,0.369c-0.133,0.261-0.135,0.254-0.279,0.391
				c-0.465,0.898-0.779,1.831-1.258,2.719l-0.143,0.301c-0.058,0.079-0.075-0.019-0.137,0.091c-0.035,0.063,0.039,0.062-0.011,0.154
				c-0.187,0.347-0.398,0.743-0.555,1.104c-0.392,0.903-0.943,1.929-1.263,2.664c-0.093,0.154-0.084-0.101-0.184,0.12
				c-0.634,1.229-1.289,2.536-1.929,3.871c-0.056,0.098-0.132-0.035-0.184,0.121c-0.052,0.088-0.041,0.135-0.027,0.18
				c0.006,0.023,0.014,0.046,0.014,0.072c0.002,0.023-0.004,0.055-0.044,0.137c-0.118,0.171-0.235,0.324-0.343,0.399
				c-1.375,2.771-2.578,5.697-3.81,8.521l-2.536,5.698l2.347-0.015c2.218-0.019,4.389-0.14,6.256-0.058
				c2.665-0.096,4.871-0.09,7.288-0.105l0.875,0.004l0.757,0.012c0.499,0.008,0.978,0.008,1.392-0.024
				c0.144-0.012,0.313-0.077,0.48-0.077c0.251-0.001,0.505,0.096,0.756,0.098c0.679,0.002,1.374-0.114,2.051-0.109l2.234,0.036
				c0.42,0.006,0.824-0.087,1.241-0.095c0.276-0.004,0.565,0.072,0.853,0.07c0.805-0.005,1.622-0.13,2.384-0.104l1.54,0.074
				l0.389,0.008l0.565-0.002c0.45-0.008,0.897-0.024,1.339-0.06c1.984,0.074,4.428,0.079,6.28,0.028
				c0.858,0.113,1.659,0.111,2.45,0.088c0.793-0.023,1.574-0.068,2.479-0.043c0.191,0.006,0.37,0.05,0.574,0.062
				c1.193,0.069,2.345,0.059,3.426,0.031c-0.809-1.453-1.62-2.845-2.081-3.904c-0.59-0.802-0.675-1.313-0.985-1.974
				c-0.332-0.709-0.812-1.411-1.179-2.099c-0.12-0.227-0.157-0.422-0.271-0.649c-0.346-0.702-0.817-1.394-1.24-2.155
				c-0.625-1.127-1.034-2.428-1.879-3.705c-0.283-0.649-0.348-0.895-0.535-1.309c-0.171-0.383-0.374-0.761-0.607-1.062
				c-0.402-1.221-1.221-2.237-1.742-3.434c-0.176-0.404-0.229-0.828-0.555-1.157c-0.08-0.477-0.414-0.921-0.658-1.424
				c-0.242-0.497-0.434-1.048-0.672-1.574c-0.341-0.752-0.927-1.6-0.938-2.29c0.439-0.55-0.654-0.589-0.848-1.229
				c-0.047-0.368,0.136-0.413,0.272-0.653c-0.06-0.32-0.247-0.551-0.435-0.794C37.168,13.68,37.307,13.317,37.091,12.9z
				 M21.515,18.258c0.025,0.022,0.049,0.013,0.071-0.018C21.667,18.39,21.394,18.511,21.515,18.258z M21.505,18.146
				c0.152-0.365,0.267-0.924,0.479-1.143c0.033-0.07-0.176-0.004-0.156-0.134c0.134-0.124,0.265-0.284,0.386-0.549
				c0.223,0.08-0.145,0.548,0.034,0.657c-0.11,0.195-0.165,0.29-0.107,0.426c-0.261,0.383-0.171,0.535-0.388,0.815
				C21.667,18.08,21.633,18.232,21.505,18.146z"/>
		</g>
	</g>
</g>
</svg>
