<svg xmlns="http://www.w3.org/2000/svg" width="44.994" height="64.992" viewBox="0 0 44.994 64.992"><path fill="#355D7C" d="M26 30.317c-5.219 0-9.345-3.287-10.766-8.579L15 18.1l1.91 2.675c2.356 2.376 5.5 3.632 9.09 3.632s6.733-1.256 9.09-3.632L37 18.1l-.233 3.639C35.345 27.03 31.22 30.317 26 30.317z"/><path fill="#FFF" d="M26 25.406c-4.055 0-7.373-1.48-9.8-3.928 1.226 4.562 4.698 7.839 9.8 7.839 5.103 0 8.574-3.276 9.8-7.839-2.427 2.448-5.744 3.928-9.8 3.928z"/><path fill="#355D7C" d="M26 25.035c-4.135 0-7.769-1.461-10.51-4.225l-.187-.188-.069-.256a15.705 15.705 0 0 1-.525-4.086c0-6.73 3.904-10.288 11.291-10.288 7.388 0 11.291 3.558 11.291 10.289a15.79 15.79 0 0 1-.524 4.086l-.07.256-.187.188c-2.741 2.763-6.375 4.224-10.51 4.224z"/><path fill="#FFF" d="M26 24.035c4.056 0 7.373-1.481 9.8-3.929a14.7 14.7 0 0 0 .491-3.825c0-6.441-3.851-9.289-10.291-9.289-6.441 0-10.291 2.848-10.291 9.289a14.7 14.7 0 0 0 .491 3.825c2.427 2.448 5.745 3.929 9.8 3.929z"/><path fill="#355D7C" d="M22.757 45.992L19.68 28.244l1.697.731c1.426.614 2.979.925 4.623.925s3.196-.312 4.623-.925l1.696-.731-3.076 17.748h-6.486z"/><path fill="#FFF" d="M20.98 29.894l2.619 15.099h4.803l2.617-15.099C29.498 30.549 27.81 30.9 26 30.9s-3.498-.351-5.02-1.006z"/><path fill="#355D7C" d="M23 44.992h6v7h-6z"/><path fill="#FFF" d="M24 45.992h4v5h-4z"/><path fill="#355D7C" d="M22 58.992c-3.007 0-10-1.169-10-12 0-.881.012-1.797.023-2.729.066-5.059.149-11.352-1.975-13.504-.517-.523-1.167-.767-2.048-.767H7v-4h1c1.966 0 3.613.658 4.896 1.958 3.298 3.342 3.208 10.259 3.128 16.362-.012.918-.024 1.817-.024 2.68 0 7.091 3.207 8 6 8 .949 0 1.64-.186 1.896-.508.137-.227.219-1.254.108-2.4l-.043-.441.297-.33.298-.319H27.783l.189.758c.006.03.607 3.235-.921 5.192-1.062 1.359-2.761 2.048-5.051 2.048z"/><path fill="#FFF" d="M22 57.992c-3.361 0-9-1.43-9-11 0-.876.012-1.788.023-2.717.072-5.518.154-11.77-2.264-14.218-.706-.716-1.609-1.065-2.759-1.065v-2c1.689 0 3.096.559 4.184 1.66 3.006 3.045 2.918 9.741 2.84 15.649-.012.922-.024 1.824-.024 2.691 0 6.056 2.289 9 7 9 1.312 0 2.212-.299 2.679-.885.602-.76.295-3.352.321-3.115h2c.021.082.463 2.799-.737 4.336-.864 1.106-2.297 1.664-4.263 1.664z"/><g fill="#355D7C"><circle cx="25.5" cy="8.492" r=".5"/><circle cx="25.5" cy="10.492" r=".5"/><circle cx="25.5" cy="12.492" r=".5"/><circle cx="25.5" cy="14.492" r=".5"/><circle cx="25.5" cy="16.492" r=".5"/><circle cx="25.5" cy="18.492" r=".5"/><circle cx="25.5" cy="20.492" r=".5"/><circle cx="25.5" cy="22.492" r=".5"/><circle cx="23.5" cy="8.492" r=".5"/><circle cx="23.5" cy="10.492" r=".5"/><circle cx="23.5" cy="12.492" r=".5"/><circle cx="23.5" cy="14.492" r=".5"/><circle cx="23.5" cy="16.492" r=".5"/><circle cx="23.5" cy="18.492" r=".5"/><circle cx="23.5" cy="20.492" r=".5"/><circle cx="23.5" cy="22.492" r=".5"/><circle cx="21.5" cy="8.492" r=".5"/><circle cx="21.5" cy="10.492" r=".5"/><circle cx="21.5" cy="12.492" r=".5"/><circle cx="21.5" cy="14.492" r=".5"/><circle cx="21.5" cy="16.492" r=".5"/><circle cx="21.5" cy="18.492" r=".5"/><circle cx="21.5" cy="20.492" r=".5"/><circle cx="21.5" cy="22.492" r=".5"/><circle cx="19.5" cy="8.492" r=".5"/><circle cx="19.5" cy="10.492" r=".5"/><circle cx="19.5" cy="12.492" r=".5"/><circle cx="19.5" cy="14.492" r=".5"/><circle cx="19.5" cy="16.492" r=".5"/><circle cx="19.5" cy="18.492" r=".5"/><circle cx="19.5" cy="20.492" r=".5"/><circle cx="19.5" cy="22.492" r=".5"/><circle cx="17.5" cy="10.492" r=".5"/><circle cx="17.5" cy="12.492" r=".5"/><circle cx="17.5" cy="14.492" r=".5"/><circle cx="17.5" cy="16.492" r=".5"/><circle cx="17.5" cy="18.492" r=".5"/><circle cx="17.5" cy="20.492" r=".5"/><circle cx="27.5" cy="8.492" r=".5"/><circle cx="27.5" cy="10.492" r=".5"/><circle cx="27.5" cy="12.492" r=".5"/><circle cx="27.5" cy="14.492" r=".5"/><circle cx="27.5" cy="16.492" r=".5"/><circle cx="27.5" cy="18.492" r=".5"/><circle cx="27.5" cy="20.492" r=".5"/><circle cx="27.5" cy="22.492" r=".5"/><circle cx="29.5" cy="8.492" r=".5"/><circle cx="29.5" cy="10.492" r=".5"/><circle cx="29.5" cy="12.492" r=".5"/><circle cx="29.5" cy="14.492" r=".5"/><circle cx="29.5" cy="16.492" r=".5"/><circle cx="29.5" cy="18.492" r=".5"/><circle cx="29.5" cy="20.492" r=".5"/><circle cx="29.5" cy="22.492" r=".5"/><circle cx="31.5" cy="8.492" r=".5"/><circle cx="31.5" cy="10.492" r=".5"/><circle cx="31.5" cy="12.492" r=".5"/><circle cx="31.5" cy="14.492" r=".5"/><circle cx="31.5" cy="16.492" r=".5"/><circle cx="31.5" cy="18.492" r=".5"/><circle cx="31.5" cy="20.492" r=".5"/><circle cx="31.5" cy="22.492" r=".5"/><circle cx="33.5" cy="8.492" r=".5"/><circle cx="33.5" cy="10.492" r=".5"/><circle cx="33.5" cy="12.492" r=".5"/><circle cx="33.5" cy="14.492" r=".5"/><circle cx="33.5" cy="16.492" r=".5"/><circle cx="33.5" cy="18.492" r=".5"/><circle cx="33.5" cy="20.492" r=".5"/><circle cx="33.5" cy="22.492" r=".5"/><circle cx="35.5" cy="12.492" r=".5"/><circle cx="35.5" cy="14.492" r=".5"/><circle cx="35.5" cy="16.492" r=".5"/><circle cx="35.5" cy="18.492" r=".5"/><circle cx="35.5" cy="20.492" r=".5"/></g></svg>