<?xml version="1.0" encoding="utf-8"?>
<!-- Generator: Adobe Illustrator 15.0.0, SVG Export Plug-In . SVG Version: 6.00 Build 0)  -->
<!DOCTYPE svg PUBLIC "-//W3C//DTD SVG 1.1//EN" "http://www.w3.org/Graphics/SVG/1.1/DTD/svg11.dtd">
<svg version="1.1" id="Layer_1" xmlns="http://www.w3.org/2000/svg" xmlns:xlink="http://www.w3.org/1999/xlink" x="0px" y="0px"
	 width="44.994px" height="64.992px" viewBox="0 0 44.994 64.992" enable-background="new 0 0 44.994 64.992" xml:space="preserve">
<g>
	<g>
		<path fill="#355D7C" d="M26,30.317c-5.219,0-9.345-3.287-10.766-8.579L15,18.1l1.91,2.675c2.356,2.376,5.5,3.632,9.09,3.632
			s6.733-1.256,9.09-3.632L37,18.1l-0.233,3.639C35.345,27.03,31.22,30.317,26,30.317z"/>
		<path fill="#FFFFFF" d="M26,25.406c-4.055,0-7.373-1.48-9.8-3.928c1.226,4.562,4.698,7.839,9.8,7.839
			c5.103,0,8.574-3.276,9.8-7.839C33.373,23.926,30.056,25.406,26,25.406z"/>
		<path fill="#355D7C" d="M26,25.035c-4.135,0-7.769-1.461-10.51-4.225l-0.187-0.188l-0.069-0.256
			c-0.349-1.295-0.525-2.669-0.525-4.086c0-6.73,3.904-10.288,11.291-10.288c7.388,0,11.291,3.558,11.291,10.289
			c0,1.417-0.177,2.791-0.524,4.086l-0.07,0.256l-0.187,0.188C33.769,23.574,30.135,25.035,26,25.035z"/>
		<path fill="#FFFFFF" d="M26,24.035c4.056,0,7.373-1.481,9.8-3.929c0.323-1.198,0.491-2.484,0.491-3.825
			c0-6.441-3.851-9.289-10.291-9.289c-6.441,0-10.291,2.848-10.291,9.289c0,1.341,0.168,2.627,0.491,3.825
			C18.627,22.554,21.945,24.035,26,24.035z"/>
	</g>
	<g>
		<path fill="#355D7C" d="M22.757,45.992L19.68,28.244l1.697,0.731C22.803,29.589,24.356,29.9,26,29.9s3.196-0.312,4.623-0.925
			l1.696-0.731l-3.076,17.748H22.757z"/>
		<path fill="#FFFFFF" d="M20.98,29.894l2.619,15.099h4.803l2.617-15.099C29.498,30.549,27.81,30.9,26,30.9
			S22.502,30.549,20.98,29.894z"/>
	</g>
	<rect x="23" y="44.992" fill="#355D7C" width="6" height="7"/>
	<rect x="24" y="45.992" fill="#FFFFFF" width="4" height="5"/>
	<path fill="#355D7C" d="M22,58.992c-3.007,0-10-1.169-10-12c0-0.881,0.012-1.797,0.023-2.729
		c0.066-5.059,0.149-11.352-1.975-13.504C9.531,30.236,8.881,29.992,8,29.992H7v-4h1c1.966,0,3.613,0.658,4.896,1.958
		c3.298,3.342,3.208,10.259,3.128,16.362C16.012,45.23,16,46.129,16,46.992c0,7.091,3.207,8,6,8c0.949,0,1.64-0.186,1.896-0.508
		c0.137-0.227,0.219-1.254,0.108-2.4l-0.043-0.441l0.297-0.33l0.298-0.319h1.332h0.002h1.893l0.189,0.758
		c0.006,0.03,0.607,3.235-0.921,5.192C25.989,58.303,24.29,58.992,22,58.992z"/>
	<path fill="#FFFFFF" d="M22,57.992c-3.361,0-9-1.43-9-11c0-0.876,0.012-1.788,0.023-2.717c0.072-5.518,0.154-11.77-2.264-14.218
		C10.053,29.341,9.15,28.992,8,28.992v-2c1.689,0,3.096,0.559,4.184,1.66c3.006,3.045,2.918,9.741,2.84,15.649
		C15.012,45.223,15,46.125,15,46.992c0,6.056,2.289,9,7,9c1.312,0,2.212-0.299,2.679-0.885c0.602-0.76,0.295-3.352,0.321-3.115h2
		c0.021,0.082,0.463,2.799-0.737,4.336C25.399,57.434,23.966,57.992,22,57.992z"/>
	<g>
		<circle fill="#355D7C" cx="25.5" cy="8.492" r="0.5"/>
		<circle fill="#355D7C" cx="25.5" cy="10.492" r="0.5"/>
		<circle fill="#355D7C" cx="25.5" cy="12.492" r="0.5"/>
		<circle fill="#355D7C" cx="25.5" cy="14.492" r="0.5"/>
		<circle fill="#355D7C" cx="25.5" cy="16.492" r="0.5"/>
		<circle fill="#355D7C" cx="25.5" cy="18.492" r="0.5"/>
		<circle fill="#355D7C" cx="25.5" cy="20.492" r="0.5"/>
		<circle fill="#355D7C" cx="25.5" cy="22.492" r="0.5"/>
		<circle fill="#355D7C" cx="23.5" cy="8.492" r="0.5"/>
		<circle fill="#355D7C" cx="23.5" cy="10.492" r="0.5"/>
		<circle fill="#355D7C" cx="23.5" cy="12.492" r="0.5"/>
		<circle fill="#355D7C" cx="23.5" cy="14.492" r="0.5"/>
		<circle fill="#355D7C" cx="23.5" cy="16.492" r="0.5"/>
		<circle fill="#355D7C" cx="23.5" cy="18.492" r="0.5"/>
		<circle fill="#355D7C" cx="23.5" cy="20.492" r="0.5"/>
		<circle fill="#355D7C" cx="23.5" cy="22.492" r="0.5"/>
		<circle fill="#355D7C" cx="21.5" cy="8.492" r="0.5"/>
		<circle fill="#355D7C" cx="21.5" cy="10.492" r="0.5"/>
		<circle fill="#355D7C" cx="21.5" cy="12.492" r="0.5"/>
		<circle fill="#355D7C" cx="21.5" cy="14.492" r="0.5"/>
		<circle fill="#355D7C" cx="21.5" cy="16.492" r="0.5"/>
		<circle fill="#355D7C" cx="21.5" cy="18.492" r="0.5"/>
		<circle fill="#355D7C" cx="21.5" cy="20.492" r="0.5"/>
		<circle fill="#355D7C" cx="21.5" cy="22.492" r="0.5"/>
		<circle fill="#355D7C" cx="19.5" cy="8.492" r="0.5"/>
		<circle fill="#355D7C" cx="19.5" cy="10.492" r="0.5"/>
		<circle fill="#355D7C" cx="19.5" cy="12.492" r="0.5"/>
		<circle fill="#355D7C" cx="19.5" cy="14.492" r="0.5"/>
		<circle fill="#355D7C" cx="19.5" cy="16.492" r="0.5"/>
		<circle fill="#355D7C" cx="19.5" cy="18.492" r="0.5"/>
		<circle fill="#355D7C" cx="19.5" cy="20.492" r="0.5"/>
		<circle fill="#355D7C" cx="19.5" cy="22.492" r="0.5"/>
		<circle fill="#355D7C" cx="17.5" cy="10.492" r="0.5"/>
		<circle fill="#355D7C" cx="17.5" cy="12.492" r="0.5"/>
		<circle fill="#355D7C" cx="17.5" cy="14.492" r="0.5"/>
		<circle fill="#355D7C" cx="17.5" cy="16.492" r="0.5"/>
		<circle fill="#355D7C" cx="17.5" cy="18.492" r="0.5"/>
		<circle fill="#355D7C" cx="17.5" cy="20.492" r="0.5"/>
		<circle fill="#355D7C" cx="27.5" cy="8.492" r="0.5"/>
		<circle fill="#355D7C" cx="27.5" cy="10.492" r="0.5"/>
		<circle fill="#355D7C" cx="27.5" cy="12.492" r="0.5"/>
		<circle fill="#355D7C" cx="27.5" cy="14.492" r="0.5"/>
		<circle fill="#355D7C" cx="27.5" cy="16.492" r="0.5"/>
		<circle fill="#355D7C" cx="27.5" cy="18.492" r="0.5"/>
		<circle fill="#355D7C" cx="27.5" cy="20.492" r="0.5"/>
		<circle fill="#355D7C" cx="27.5" cy="22.492" r="0.5"/>
		<circle fill="#355D7C" cx="29.5" cy="8.492" r="0.5"/>
		<circle fill="#355D7C" cx="29.5" cy="10.492" r="0.5"/>
		<circle fill="#355D7C" cx="29.5" cy="12.492" r="0.5"/>
		<circle fill="#355D7C" cx="29.5" cy="14.492" r="0.5"/>
		<circle fill="#355D7C" cx="29.5" cy="16.492" r="0.5"/>
		<circle fill="#355D7C" cx="29.5" cy="18.492" r="0.5"/>
		<circle fill="#355D7C" cx="29.5" cy="20.492" r="0.5"/>
		<circle fill="#355D7C" cx="29.5" cy="22.492" r="0.5"/>
		<circle fill="#355D7C" cx="31.5" cy="8.492" r="0.5"/>
		<circle fill="#355D7C" cx="31.5" cy="10.492" r="0.5"/>
		<circle fill="#355D7C" cx="31.5" cy="12.492" r="0.5"/>
		<circle fill="#355D7C" cx="31.5" cy="14.492" r="0.5"/>
		<circle fill="#355D7C" cx="31.5" cy="16.492" r="0.5"/>
		<circle fill="#355D7C" cx="31.5" cy="18.492" r="0.5"/>
		<circle fill="#355D7C" cx="31.5" cy="20.492" r="0.5"/>
		<circle fill="#355D7C" cx="31.5" cy="22.492" r="0.5"/>
		<circle fill="#355D7C" cx="33.5" cy="8.492" r="0.5"/>
		<circle fill="#355D7C" cx="33.5" cy="10.492" r="0.5"/>
		<circle fill="#355D7C" cx="33.5" cy="12.492" r="0.5"/>
		<circle fill="#355D7C" cx="33.5" cy="14.492" r="0.5"/>
		<circle fill="#355D7C" cx="33.5" cy="16.492" r="0.5"/>
		<circle fill="#355D7C" cx="33.5" cy="18.492" r="0.5"/>
		<circle fill="#355D7C" cx="33.5" cy="20.492" r="0.5"/>
		<circle fill="#355D7C" cx="33.5" cy="22.492" r="0.5"/>
		<circle fill="#355D7C" cx="35.5" cy="12.492" r="0.5"/>
		<circle fill="#355D7C" cx="35.5" cy="14.492" r="0.5"/>
		<circle fill="#355D7C" cx="35.5" cy="16.492" r="0.5"/>
		<circle fill="#355D7C" cx="35.5" cy="18.492" r="0.5"/>
		<circle fill="#355D7C" cx="35.5" cy="20.492" r="0.5"/>
	</g>
</g>
</svg>
