<?xml version="1.0" encoding="utf-8"?>
<!-- Generator: Adobe Illustrator 15.0.0, SVG Export Plug-In . SVG Version: 6.00 Build 0)  -->
<!DOCTYPE svg PUBLIC "-//W3C//DTD SVG 1.1//EN" "http://www.w3.org/Graphics/SVG/1.1/DTD/svg11.dtd">
<svg version="1.1" id="Layer_1" xmlns="http://www.w3.org/2000/svg" xmlns:xlink="http://www.w3.org/1999/xlink" x="0px" y="0px"
	 width="44.994px" height="44.994px" viewBox="0 0 44.994 44.994" enable-background="new 0 0 44.994 44.994" xml:space="preserve">
<linearGradient id="SVGID_1_" gradientUnits="userSpaceOnUse" x1="23.0166" y1="43.709" x2="23.0166" y2="0.2646">
	<stop  offset="0" style="stop-color:#FFFFFF"/>
	<stop  offset="1" style="stop-color:#FFFFFF;stop-opacity:0"/>
</linearGradient>
<path fill="url(#SVGID_1_)" d="M8.443,43.492C6.448,43.492,5,41.872,5,39.64V4.353C5,2.12,6.448,0.5,8.443,0.5
	c0.716,0,1.44,0.209,2.154,0.62l28.364,17.644c1.316,0.761,2.071,1.938,2.071,3.232s-0.755,2.472-2.071,3.232L10.598,42.872
	C9.884,43.283,9.159,43.492,8.443,43.492z"/>
<path fill="#009245" d="M8.443,42.492C7.005,42.492,6,41.319,6,39.64V4.353C6,2.673,7.005,1.5,8.443,1.5
	c0.539,0,1.096,0.164,1.654,0.486L38.462,19.63c0.999,0.577,1.571,1.439,1.571,2.366s-0.572,1.789-1.571,2.366L10.098,42.006
	C9.539,42.328,8.982,42.492,8.443,42.492z"/>
<linearGradient id="SVGID_2_" gradientUnits="userSpaceOnUse" x1="23.0166" y1="3.2471" x2="23.0166" y2="43.4704">
	<stop  offset="0" style="stop-color:#8BC53F"/>
	<stop  offset="0.0916" style="stop-color:#87C43F"/>
	<stop  offset="0.1776" style="stop-color:#7CC140"/>
	<stop  offset="0.2614" style="stop-color:#69BC42"/>
	<stop  offset="0.3439" style="stop-color:#4EB544"/>
	<stop  offset="0.4253" style="stop-color:#2CAC47"/>
	<stop  offset="0.505" style="stop-color:#02A24B"/>
	<stop  offset="0.5091" style="stop-color:#00A14B"/>
	<stop  offset="1" style="stop-color:#8BC53F"/>
</linearGradient>
<path fill="url(#SVGID_2_)" d="M7,4.353c0-1.65,1.169-2.325,2.598-1.5l28.364,17.644c1.429,0.825,1.429,2.175,0,3L9.598,41.14
	C8.169,41.965,7,41.29,7,39.64V4.353z"/>
</svg>
