<svg xmlns="http://www.w3.org/2000/svg" width="45" height="45" viewBox="0 0 45 45"><linearGradient id="a" gradientUnits="userSpaceOnUse" x1="22.751" y1="44.209" x2="22.751" y2=".765"><stop offset="0" stop-color="#fff"/><stop offset="1" stop-color="#fff" stop-opacity="0"/></linearGradient><path fill="url(#a)" d="M8.193 43.992c-1.995 0-3.693-1.62-3.693-3.853V4.853C4.5 2.62 6.198 1 8.193 1c.716 0 1.565.209 2.279.62l28.427 17.644c1.316.761 2.103 1.938 2.103 3.232s-.739 2.472-2.056 3.232L10.465 43.372a4.726 4.726 0 0 1-2.272.62z"/><path fill="#B3B3B3" d="M8.193 42.992c-1.438 0-2.693-1.173-2.693-2.853V4.853C5.5 3.173 6.755 2 8.193 2a3.76 3.76 0 0 1 1.779.486L38.399 20.13c.999.577 1.603 1.439 1.603 2.366s-.557 1.789-1.556 2.366L9.965 42.506a3.738 3.738 0 0 1-1.772.486z"/><linearGradient id="b" gradientUnits="userSpaceOnUse" x1="22.72" y1="42.595" x2="22.72" y2="3.266"><stop offset="0" stop-color="#f3f0eb"/><stop offset="1" stop-color="#faf7f2"/></linearGradient><path fill="url(#b)" d="M6.5 4.853c0-1.65 1.419-2.325 2.848-1.5l28.489 17.644c1.429.825 1.491 2.175.062 3L9.316 41.64c-1.428.825-2.816.15-2.816-1.5V4.853z"/></svg>