<svg xmlns="http://www.w3.org/2000/svg" width="44.994" height="44.994" viewBox="0 0 44.994 44.994"><linearGradient id="a" gradientUnits="userSpaceOnUse" x1="23.017" y1="43.709" x2="23.017" y2=".265"><stop offset="0" stop-color="#fff"/><stop offset="1" stop-color="#fff" stop-opacity="0"/></linearGradient><path fill="url(#a)" d="M8.443 43.492C6.448 43.492 5 41.872 5 39.64V4.353C5 2.12 6.448.5 8.443.5c.716 0 1.44.209 2.154.62l28.364 17.644c1.316.761 2.071 1.938 2.071 3.232s-.755 2.472-2.071 3.232L10.598 42.872c-.714.411-1.439.62-2.155.62z"/><path fill="#009245" d="M8.443 42.492C7.005 42.492 6 41.319 6 39.64V4.353C6 2.673 7.005 1.5 8.443 1.5c.539 0 1.096.164 1.654.486L38.462 19.63c.999.577 1.571 1.439 1.571 2.366s-.572 1.789-1.571 2.366L10.098 42.006c-.559.322-1.116.486-1.655.486z"/><linearGradient id="b" gradientUnits="userSpaceOnUse" x1="23.017" y1="3.247" x2="23.017" y2="43.47"><stop offset="0" stop-color="#8bc53f"/><stop offset=".092" stop-color="#87c43f"/><stop offset=".178" stop-color="#7cc140"/><stop offset=".261" stop-color="#69bc42"/><stop offset=".344" stop-color="#4eb544"/><stop offset=".425" stop-color="#2cac47"/><stop offset=".505" stop-color="#02a24b"/><stop offset=".509" stop-color="#00a14b"/><stop offset="1" stop-color="#8bc53f"/></linearGradient><path fill="url(#b)" d="M7 4.353c0-1.65 1.169-2.325 2.598-1.5l28.364 17.644c1.429.825 1.429 2.175 0 3L9.598 41.14C8.169 41.965 7 41.29 7 39.64V4.353z"/></svg>