<?xml version="1.0" encoding="utf-8"?>
<!-- Generator: Adobe Illustrator 15.0.0, SVG Export Plug-In . SVG Version: 6.00 Build 0)  -->
<!DOCTYPE svg PUBLIC "-//W3C//DTD SVG 1.1//EN" "http://www.w3.org/Graphics/SVG/1.1/DTD/svg11.dtd">
<svg version="1.1" id="Layer_2" xmlns="http://www.w3.org/2000/svg" xmlns:xlink="http://www.w3.org/1999/xlink" x="0px" y="0px"
	 width="45px" height="45px" viewBox="0 0 45 45" enable-background="new 0 0 45 45" xml:space="preserve">
<linearGradient id="SVGID_1_" gradientUnits="userSpaceOnUse" x1="22.751" y1="44.209" x2="22.751" y2="0.7646">
	<stop  offset="0" style="stop-color:#FFFFFF"/>
	<stop  offset="1" style="stop-color:#FFFFFF;stop-opacity:0"/>
</linearGradient>
<path fill="url(#SVGID_1_)" d="M8.193,43.992c-1.995,0-3.693-1.62-3.693-3.853V4.853C4.5,2.62,6.198,1,8.193,1
	c0.716,0,1.565,0.209,2.279,0.62l28.427,17.644c1.316,0.761,2.103,1.938,2.103,3.232s-0.739,2.472-2.056,3.232L10.465,43.372
	C9.751,43.783,8.909,43.992,8.193,43.992z"/>
<path fill="#B3B3B3" d="M8.193,42.992c-1.438,0-2.693-1.173-2.693-2.853V4.853C5.5,3.173,6.755,2,8.193,2
	c0.539,0,1.221,0.164,1.779,0.486L38.399,20.13c0.999,0.577,1.603,1.439,1.603,2.366s-0.557,1.789-1.556,2.366L9.965,42.506
	C9.406,42.828,8.732,42.992,8.193,42.992z"/>
<linearGradient id="SVGID_2_" gradientUnits="userSpaceOnUse" x1="22.7197" y1="42.5947" x2="22.7197" y2="3.2662">
	<stop  offset="0" style="stop-color:#F3F0EB"/>
	<stop  offset="1" style="stop-color:#FAF7F2"/>
</linearGradient>
<path fill="url(#SVGID_2_)" d="M6.5,4.853c0-1.65,1.419-2.325,2.848-1.5l28.489,17.644c1.429,0.825,1.491,2.175,0.062,3L9.316,41.64
	C7.888,42.465,6.5,41.79,6.5,40.14V4.853z"/>
</svg>
