<?xml version="1.0" encoding="utf-8"?>
<!-- Generator: Adobe Illustrator 15.0.0, SVG Export Plug-In . SVG Version: 6.00 Build 0)  -->
<!DOCTYPE svg PUBLIC "-//W3C//DTD SVG 1.1//EN" "http://www.w3.org/Graphics/SVG/1.1/DTD/svg11.dtd">
<svg version="1.1" id="Layer_2" xmlns="http://www.w3.org/2000/svg" xmlns:xlink="http://www.w3.org/1999/xlink" x="0px" y="0px"
	 width="44.994px" height="44.994px" viewBox="0 0 44.994 44.994" enable-background="new 0 0 44.994 44.994" xml:space="preserve">
<linearGradient id="SVGID_1_" gradientUnits="userSpaceOnUse" x1="22.3828" y1="1.2964" x2="22.3828" y2="46.2202" gradientTransform="matrix(1 0 0 -1 0 45.9941)">
	<stop  offset="0" style="stop-color:#FFFFFF"/>
	<stop  offset="1" style="stop-color:#FFFFFF;stop-opacity:0"/>
</linearGradient>
<path fill="url(#SVGID_1_)" d="M22.383,44.366C10.206,44.366,0.3,34.459,0.3,22.282C0.3,10.106,10.206,0.2,22.383,0.2
	s22.083,9.906,22.083,22.082C44.466,34.459,34.56,44.366,22.383,44.366z"/>
<path fill="#B3B3B3" d="M22.383,43.366C10.758,43.366,1.3,33.908,1.3,22.282C1.3,10.658,10.758,1.2,22.383,1.2
	s21.083,9.458,21.083,21.082C43.466,33.908,34.008,43.366,22.383,43.366z"/>
<linearGradient id="SVGID_2_" gradientUnits="userSpaceOnUse" x1="22.3828" y1="3.6284" x2="22.3828" y2="43.8987" gradientTransform="matrix(1 0 0 -1 0 45.9941)">
	<stop  offset="0" style="stop-color:#F3F0EB"/>
	<stop  offset="1" style="stop-color:#FAF7F2"/>
</linearGradient>
<path fill="url(#SVGID_2_)" d="M22.383,42.366c-11.074,0-20.083-9.01-20.083-20.084C2.3,11.209,11.309,2.2,22.383,2.2
	c11.074,0,20.083,9.009,20.083,20.082C42.466,33.356,33.457,42.366,22.383,42.366z"/>
<path fill="#A0222B" d="M22.383,30.866c-4.732,0-8.583-3.852-8.583-8.584c0-4.731,3.851-8.582,8.583-8.582
	c4.732,0,8.583,3.851,8.583,8.582C30.966,27.017,27.115,30.866,22.383,30.866z"/>
<path fill="#FF0000" d="M22.383,29.866c-4.182,0-7.583-3.402-7.583-7.584c0-4.181,3.401-7.582,7.583-7.582
	c4.183,0,7.583,3.401,7.583,7.582C29.966,26.464,26.563,29.866,22.383,29.866z"/>
<linearGradient id="SVGID_3_" gradientUnits="userSpaceOnUse" x1="22.3828" y1="30.876" x2="22.3828" y2="21.4938" gradientTransform="matrix(1 0 0 -1 0 45.9941)">
	<stop  offset="0" style="stop-color:#FFFFFF"/>
	<stop  offset="1" style="stop-color:#FFFFFF;stop-opacity:0.17"/>
</linearGradient>
<path opacity="0.5" fill="url(#SVGID_3_)" enable-background="new    " d="M22.383,29.866c-4.182,0-7.583-3.402-7.583-7.584
	c0-4.181,3.401-7.582,7.583-7.582c4.183,0,7.583,3.401,7.583,7.582C29.966,26.464,26.563,29.866,22.383,29.866z"/>
</svg>
