<svg xmlns="http://www.w3.org/2000/svg" width="44.994" height="44.994" viewBox="0 0 44.994 44.994"><linearGradient id="a" gradientUnits="userSpaceOnUse" x1="22.383" y1="1.396" x2="22.383" y2="46.319" gradientTransform="matrix(1 0 0 -1 0 45.994)"><stop offset="0" stop-color="#fff"/><stop offset="1" stop-color="#fff" stop-opacity="0"/></linearGradient><path fill="url(#a)" d="M22.383 44.267C10.206 44.267.3 34.358.3 22.183.3 10.006 10.206.1 22.383.1s22.083 9.906 22.083 22.083c0 12.175-9.906 22.084-22.083 22.084z"/><path fill="#B3B3B3" d="M22.383 43.267C10.758 43.267 1.3 33.81 1.3 22.183 1.3 10.558 10.758 1.1 22.383 1.1s21.083 9.458 21.083 21.083c0 11.627-9.458 21.084-21.083 21.084z"/><linearGradient id="b" gradientUnits="userSpaceOnUse" x1="22.383" y1="3.728" x2="22.383" y2="43.056" gradientTransform="matrix(1 0 0 -1 0 45.994)"><stop offset="0" stop-color="#f3f0eb"/><stop offset="1" stop-color="#faf7f2"/></linearGradient><path fill="url(#b)" d="M22.383 42.267c-11.074 0-20.083-9.01-20.083-20.083C2.3 11.109 11.309 2.1 22.383 2.1c11.074 0 20.083 9.009 20.083 20.083 0 11.074-9.009 20.084-20.083 20.084z"/><path fill="#A0222B" d="M22.383 30.767c-4.732 0-8.583-3.851-8.583-8.583s3.851-8.583 8.583-8.583 8.583 3.851 8.583 8.583-3.851 8.583-8.583 8.583z"/><linearGradient id="c" gradientUnits="userSpaceOnUse" x1="22.383" y1="30.977" x2="22.383" y2="21.594" gradientTransform="matrix(1 0 0 -1 0 45.994)"><stop offset="0" stop-color="#fff"/><stop offset="1" stop-color="#fff" stop-opacity=".17"/></linearGradient><path opacity=".25" fill="url(#c)" d="M22.383 29.767c-4.182 0-7.583-3.401-7.583-7.583 0-4.181 3.401-7.583 7.583-7.583 4.183 0 7.583 3.401 7.583 7.583 0 4.18-3.403 7.583-7.583 7.583z"/></svg>