<?xml version="1.0" encoding="utf-8"?>
<!-- Generator: Adobe Illustrator 15.0.0, SVG Export Plug-In . SVG Version: 6.00 Build 0)  -->
<!DOCTYPE svg PUBLIC "-//W3C//DTD SVG 1.1//EN" "http://www.w3.org/Graphics/SVG/1.1/DTD/svg11.dtd">
<svg version="1.1" id="Layer_1" xmlns="http://www.w3.org/2000/svg" xmlns:xlink="http://www.w3.org/1999/xlink" x="0px" y="0px"
	 width="44.994px" height="44.994px" viewBox="0 0 44.994 44.994" enable-background="new 0 0 44.994 44.994" xml:space="preserve">
<g>
	
		<linearGradient id="SVGID_1_" gradientUnits="userSpaceOnUse" x1="22.3828" y1="1.396" x2="22.3828" y2="46.3193" gradientTransform="matrix(1 0 0 -1 0 45.9941)">
		<stop  offset="0" style="stop-color:#FFFFFF"/>
		<stop  offset="1" style="stop-color:#FFFFFF;stop-opacity:0"/>
	</linearGradient>
	<path fill="url(#SVGID_1_)" d="M22.383,44.267C10.206,44.267,0.3,34.358,0.3,22.183C0.3,10.006,10.206,0.1,22.383,0.1
		s22.083,9.906,22.083,22.083C44.466,34.358,34.56,44.267,22.383,44.267z"/>
	<path fill="#B3B3B3" d="M22.383,43.267C10.758,43.267,1.3,33.81,1.3,22.183C1.3,10.558,10.758,1.1,22.383,1.1
		s21.083,9.458,21.083,21.083C43.466,33.81,34.008,43.267,22.383,43.267z"/>
	
		<linearGradient id="SVGID_2_" gradientUnits="userSpaceOnUse" x1="22.3828" y1="3.728" x2="22.3828" y2="43.0557" gradientTransform="matrix(1 0 0 -1 0 45.9941)">
		<stop  offset="0" style="stop-color:#F3F0EB"/>
		<stop  offset="1" style="stop-color:#FAF7F2"/>
	</linearGradient>
	<path fill="url(#SVGID_2_)" d="M22.383,42.267c-11.074,0-20.083-9.01-20.083-20.083C2.3,11.109,11.309,2.1,22.383,2.1
		c11.074,0,20.083,9.009,20.083,20.083C42.466,33.257,33.457,42.267,22.383,42.267z"/>
	<path fill="#A0222B" d="M22.383,30.767c-4.732,0-8.583-3.851-8.583-8.583c0-4.732,3.851-8.583,8.583-8.583
		c4.732,0,8.583,3.851,8.583,8.583C30.966,26.916,27.115,30.767,22.383,30.767z"/>
	
		<linearGradient id="SVGID_3_" gradientUnits="userSpaceOnUse" x1="22.3828" y1="30.9766" x2="22.3828" y2="21.5941" gradientTransform="matrix(1 0 0 -1 0 45.9941)">
		<stop  offset="0" style="stop-color:#FFFFFF"/>
		<stop  offset="1" style="stop-color:#FFFFFF;stop-opacity:0.17"/>
	</linearGradient>
	<path opacity="0.25" fill="url(#SVGID_3_)" enable-background="new    " d="M22.383,29.767c-4.182,0-7.583-3.401-7.583-7.583
		c0-4.181,3.401-7.583,7.583-7.583c4.183,0,7.583,3.401,7.583,7.583C29.966,26.364,26.563,29.767,22.383,29.767z"/>
</g>
</svg>
