<svg xmlns="http://www.w3.org/2000/svg" width="44.994" height="44.994" viewBox="0 0 44.994 44.994"><linearGradient id="a" gradientUnits="userSpaceOnUse" x1="22.383" y1="1.296" x2="22.383" y2="46.22" gradientTransform="matrix(1 0 0 -1 0 45.994)"><stop offset="0" stop-color="#fff"/><stop offset="1" stop-color="#fff" stop-opacity="0"/></linearGradient><path fill="url(#a)" d="M22.383 44.366C10.206 44.366.3 34.459.3 22.282.3 10.106 10.206.2 22.383.2s22.083 9.906 22.083 22.082c0 12.177-9.906 22.084-22.083 22.084z"/><path fill="#B3B3B3" d="M22.383 43.366C10.758 43.366 1.3 33.908 1.3 22.282 1.3 10.658 10.758 1.2 22.383 1.2s21.083 9.458 21.083 21.082c0 11.626-9.458 21.084-21.083 21.084z"/><linearGradient id="b" gradientUnits="userSpaceOnUse" x1="22.383" y1="3.628" x2="22.383" y2="43.899" gradientTransform="matrix(1 0 0 -1 0 45.994)"><stop offset="0" stop-color="#f3f0eb"/><stop offset="1" stop-color="#faf7f2"/></linearGradient><path fill="url(#b)" d="M22.383 42.366c-11.074 0-20.083-9.01-20.083-20.084C2.3 11.209 11.309 2.2 22.383 2.2c11.074 0 20.083 9.009 20.083 20.082 0 11.074-9.009 20.084-20.083 20.084z"/><path fill="#A0222B" d="M22.383 30.866c-4.732 0-8.583-3.852-8.583-8.584 0-4.731 3.851-8.582 8.583-8.582s8.583 3.851 8.583 8.582c0 4.735-3.851 8.584-8.583 8.584z"/><path fill="#F00" d="M22.383 29.866c-4.182 0-7.583-3.402-7.583-7.584 0-4.181 3.401-7.582 7.583-7.582 4.183 0 7.583 3.401 7.583 7.582 0 4.182-3.403 7.584-7.583 7.584z"/><linearGradient id="c" gradientUnits="userSpaceOnUse" x1="22.383" y1="30.876" x2="22.383" y2="21.494" gradientTransform="matrix(1 0 0 -1 0 45.994)"><stop offset="0" stop-color="#fff"/><stop offset="1" stop-color="#fff" stop-opacity=".17"/></linearGradient><path opacity=".5" fill="url(#c)" d="M22.383 29.866c-4.182 0-7.583-3.402-7.583-7.584 0-4.181 3.401-7.582 7.583-7.582 4.183 0 7.583 3.401 7.583 7.582 0 4.182-3.403 7.584-7.583 7.584z"/></svg>