<svg xmlns="http://www.w3.org/2000/svg" width="45" height="45" viewBox="0 0 45 45"><linearGradient id="a" gradientUnits="userSpaceOnUse" x1="22.5" y1="44.5" x2="22.5" y2=".5"><stop offset="0" stop-color="#fff"/><stop offset="1" stop-color="#fff" stop-opacity="0"/></linearGradient><path fill="url(#a)" d="M5.5 44.5c-2.75 0-5-2.25-5-5v-34c0-2.75 2.25-5 5-5h34c2.75 0 5 2.25 5 5v34c0 2.75-2.25 5-5 5h-34z"/><path fill="#B3B3B3" d="M5.5 43.5c-2.2 0-4-1.8-4-4v-34c0-2.2 1.8-4 4-4h34c2.2 0 4 1.8 4 4v34c0 2.2-1.8 4-4 4h-34z"/><g><linearGradient id="b" gradientUnits="userSpaceOnUse" x1="22.5" y1="42.5" x2="22.5" y2="3.171"><stop offset="0" stop-color="#f3f0eb"/><stop offset="1" stop-color="#faf7f2"/></linearGradient><path fill="url(#b)" d="M5.5 42.5c-1.65 0-3-1.35-3-3v-34c0-1.65 1.35-3 3-3h34c1.65 0 3 1.35 3 3v34c0 1.65-1.35 3-3 3h-34z"/></g></svg>