<?xml version="1.0" encoding="utf-8"?>
<!-- Generator: Adobe Illustrator 15.0.0, SVG Export Plug-In . SVG Version: 6.00 Build 0)  -->
<!DOCTYPE svg PUBLIC "-//W3C//DTD SVG 1.1//EN" "http://www.w3.org/Graphics/SVG/1.1/DTD/svg11.dtd">
<svg version="1.1" id="Layer_1" xmlns="http://www.w3.org/2000/svg" xmlns:xlink="http://www.w3.org/1999/xlink" x="0px" y="0px"
	 width="45px" height="45px" viewBox="0 0 45 45" enable-background="new 0 0 45 45" xml:space="preserve">
<g>
	<linearGradient id="SVGID_1_" gradientUnits="userSpaceOnUse" x1="22.5" y1="44.5" x2="22.5" y2="0.5005">
		<stop  offset="0" style="stop-color:#FFFFFF"/>
		<stop  offset="1" style="stop-color:#FFFFFF;stop-opacity:0"/>
	</linearGradient>
	<path fill="url(#SVGID_1_)" d="M5.5,44.5c-2.75,0-5-2.25-5-5v-34c0-2.75,2.25-5,5-5h34c2.75,0,5,2.25,5,5v34c0,2.75-2.25,5-5,5H5.5
		z"/>
</g>
<g>
	<path fill="#B3B3B3" d="M5.5,43.5c-2.2,0-4-1.8-4-4v-34c0-2.2,1.8-4,4-4h34c2.2,0,4,1.8,4,4v34c0,2.2-1.8,4-4,4H5.5z"/>
</g>
<g>
	<linearGradient id="SVGID_2_" gradientUnits="userSpaceOnUse" x1="22.5" y1="42.5" x2="22.5" y2="3.171">
		<stop  offset="0" style="stop-color:#F3F0EB"/>
		<stop  offset="1" style="stop-color:#FAF7F2"/>
	</linearGradient>
	<path fill="url(#SVGID_2_)" d="M5.5,42.5c-1.65,0-3-1.35-3-3v-34c0-1.65,1.35-3,3-3h34c1.65,0,3,1.35,3,3v34c0,1.65-1.35,3-3,3H5.5
		z"/>
</g>
</svg>
