<?xml version="1.0" encoding="utf-8"?>
<!-- Generator: Adobe Illustrator 18.1.1, SVG Export Plug-In . SVG Version: 6.00 Build 0)  -->
<!DOCTYPE svg PUBLIC "-//W3C//DTD SVG 1.1//EN" "http://www.w3.org/Graphics/SVG/1.1/DTD/svg11.dtd">
<svg version="1.1" id="Layer_1" xmlns="http://www.w3.org/2000/svg" xmlns:xlink="http://www.w3.org/1999/xlink" x="0px" y="0px"
	 width="85px" height="90px" viewBox="0 0 85 90" enable-background="new 0 0 85 90" xml:space="preserve">
<g>
	<g opacity="0.5">
		<circle fill="#999999" cx="42.5" cy="47.5" r="42.5"/>
	</g>
	<g>
		<g>
			<circle fill="#FFFFFF" cx="42.5" cy="42.5" r="42.5"/>
		</g>
		<g>
			<path fill="#28A5DA" d="M20.8,67.3c-0.8,0-1.5-0.3-2.1-0.9C12.3,60,8.8,51.6,8.8,42.6C8.8,24,23.9,8.9,42.5,8.9
				S76.2,24,76.2,42.6c0,9-3.5,17.4-9.9,23.8c-1.2,1.2-3.1,1.2-4.3,0c-1.2-1.2-1.2-3.1,0-4.3c5.2-5.2,8.1-12.2,8.1-19.5
				c0-15.2-12.4-27.6-27.6-27.6S14.9,27.3,14.9,42.6c0,7.4,2.9,14.3,8.1,19.5c1.2,1.2,1.2,3.1,0,4.3C22.4,67,21.6,67.3,20.8,67.3z"
				/>
		</g>
		<g>
			
				<path fill="none" stroke="#28A5DA" stroke-width="23" stroke-linecap="round" stroke-linejoin="round" stroke-miterlimit="10" d="
				M42.5,42.6"/>
		</g>
		<g>
			<path fill="#28A5DA" d="M56.4,59.5c-0.8,0-1.5-0.3-2.1-0.9c-1.2-1.2-1.2-3.1,0-4.3c3.1-3.1,4.9-7.3,4.9-11.8
				c0-9.2-7.5-16.6-16.6-16.6s-16.6,7.5-16.6,16.6c0,4.4,1.7,8.6,4.9,11.8c1.2,1.2,1.2,3.1,0,4.3c-1.2,1.2-3.1,1.2-4.3,0
				c-4.3-4.3-6.6-10-6.6-16c0-12.5,10.2-22.7,22.7-22.7s22.7,10.2,22.7,22.7c0,6.1-2.4,11.8-6.6,16C57.9,59.2,57.2,59.5,56.4,59.5z"
				/>
		</g>
		<g>
			<path fill="#28A5DA" d="M42.5,53.9c-6.2,0-11.3-5.1-11.3-11.3s5.1-11.3,11.3-11.3c6.2,0,11.3,5.1,11.3,11.3S48.7,53.9,42.5,53.9z
				 M42.5,37.3c-2.9,0-5.3,2.4-5.3,5.3c0,2.9,2.4,5.3,5.3,5.3c2.9,0,5.3-2.4,5.3-5.3C47.8,39.7,45.4,37.3,42.5,37.3z"/>
		</g>
	</g>
</g>
</svg>
