<svg xmlns="http://www.w3.org/2000/svg" width="85" height="90" viewBox="0 0 85 90"><circle fill="#999" cx="42.5" cy="47.5" r="42.5" opacity=".5"/><circle fill="#FFF" cx="42.5" cy="42.5" r="42.5"/><path fill="#28A5DA" d="M20.8 67.3c-.8 0-1.5-.3-2.1-.9-6.4-6.4-9.9-14.8-9.9-23.8C8.8 24 23.9 8.9 42.5 8.9S76.2 24 76.2 42.6c0 9-3.5 17.4-9.9 23.8-1.2 1.2-3.1 1.2-4.3 0-1.2-1.2-1.2-3.1 0-4.3 5.2-5.2 8.1-12.2 8.1-19.5C70.1 27.4 57.7 15 42.5 15S14.9 27.3 14.9 42.6c0 7.4 2.9 14.3 8.1 19.5 1.2 1.2 1.2 3.1 0 4.3-.6.6-1.4.9-2.2.9z"/><path fill="#28A5DA" d="M56.4 59.5c-.8 0-1.5-.3-2.1-.9-1.2-1.2-1.2-3.1 0-4.3 3.1-3.1 4.9-7.3 4.9-11.8 0-9.2-7.5-16.6-16.6-16.6S26 33.4 26 42.5c0 4.4 1.7 8.6 4.9 11.8 1.2 1.2 1.2 3.1 0 4.3-1.2 1.2-3.1 1.2-4.3 0-4.3-4.3-6.6-10-6.6-16 0-12.5 10.2-22.7 22.7-22.7s22.7 10.2 22.7 22.7c0 6.1-2.4 11.8-6.6 16-.9.6-1.6.9-2.4.9z"/><path fill="#28A5DA" d="M42.5 53.9c-6.2 0-11.3-5.1-11.3-11.3s5.1-11.3 11.3-11.3c6.2 0 11.3 5.1 11.3 11.3s-5.1 11.3-11.3 11.3zm0-16.6c-2.9 0-5.3 2.4-5.3 5.3s2.4 5.3 5.3 5.3 5.3-2.4 5.3-5.3-2.4-5.3-5.3-5.3z"/></svg>