<svg xmlns="http://www.w3.org/2000/svg" width="45" height="30" viewBox="0 0 45 30"><path fill="#355E7C" d="M9.5 26.1c1.3-.5 8 .1 11-.3 2-.1 3.1-.3 1.6-.4 2.8 0 2.1.2 4.4.1l-.8.2c.8 0 1.6.1 2.6.1l1.1-.2c2.8.2 4.4-.2 7.4 0-2-.1.9-.1.7-.3.5.1 2.3.1 1.7.2H44.3v-.8c0-.3 0-.6.1-.7v-1c-.1-1.6 0-2.9.1-4.4l-.1-.2c-.1-1 0-2.8 0-3.6.1-2.6-.2-5.8-.3-8.5.1-1.6-.1-1.8-.2-2.1h-.2V4h.5c0 .2.1.3.1-.1H43.7v.3H1.3v.2c0-.1.1-.1.1-.1l.1-.2C1.1 4.4.8 5.6.5 7c0 1.1.1 2.1.2 2.9-.2 4.6.3 7 .2 11.8v4.4h8.6"/><path fill="#6A99C1" d="M2.1 7.3c.2-.9.3-1.5.4-1.5H42.2v.3h.3V6.4c0 .6.1 1.3.1 2 .1 1.9.2 3.8.2 5.6v.8c-.1.8-.1 1.8-.1 2.3v1.8l.1.1v.8c0 .6-.1 1.2-.1 1.9v1.4l.1.8v.1h-1c-.7 0-1.5.1-2.3 0-.3-.1-.6-.1-.9-.1-.3 0-.7 0-.9-.1l-.7.2h-.2c.2-.1.3-.1.4-.2h-.6c-.3 0-.5.1-.7.1-1 0-1.9 0-2.7.1-1.2.1-2.2.1-3.6 0h-.2l-1.2.2c-.6 0-1.2 0-1.7-.1v-.2h-1.9c-.5 0-1.1-.1-2.5-.1v.3c-.3 0-.8.1-1.6.1h-.2c-1.3.1-3.4.1-5.4.1-2.8-.1-4.6-.1-5.6.2H2.5v-2.8-1.3c0-1.7-.1-3.1-.2-4.4-.1-1.3-.1-2.4-.1-3.8 0-.7 0-1.4.1-2.2v-.1c-.1-.8-.1-1.5-.2-2.6"/><g><path fill="#FFF" d="M23 21.8l-8.5-13 16.1-.6z"/><path fill="#355E7C" d="M17.5 12.7l-.1-.2c.4.5.7 1.1 1.1 1.7-.7-1.3-1.5-2.8-2.4-3.5 0-.1-.1-.4-.3-.8-.1-.2-.2-.3-.2-.4v-.1s-.1-.1-.2-.1l.1.1-.1-.1h.5c.5 0 1-.1 1.5-.1 1 0 2 0 3-.1 1.2 0 4.3-.1 5.5-.1h.5-.6c.7-.1 1.4-.1 2-.2-.1 0-.1 0-.4-.1h.3c.3-.1 1-.1 1.3-.1h.8c-.1.1-.1.2-.2.3-.1.2-.2.3-.2.4-.1.1-.1.2-.1.2l-.3.6c0-.1-.3.5-.2.2-.2.5-.5 1-.7 1.5-.9 1.6-1.8 3.4-2.7 5.1-.3.6-.5 1.2-.9 1.9-.2.5-.6 1.3-.6 1.5-.3.6-.4.9-.7 1.4.1-.1-.3.6-.1.3.3-.3.2-.4.5-.7.9-1.5 1.8-3 2.6-4.5.5-1 1.2-2.1 1.7-3.2.6-1.2 1.3-2.4 1.8-3.4.1-.2.2-.4.4-.6.3-.6.7-1.2 1-1.9-.6 0-1.2.1-1.8.1-.4 0-.7 0-1.1.1h.1-1.7-.1c-.1-.1-3.6.3-3.8.3h-.2c-1.3 0-2.6-.1-3.7 0-.2 0-.5.1-.7.1h-.5c-.6-.1-.9 0-.6 0-.5 0-1 0-1.4.1-.3 0-.5 0-.8.1h-1.1c.1.1.1.2.3.6 0 .1.3.5.6.9.2.3.4.5.4.5v-.1c.3.5.4.8.7 1.2.8 1.2 1.7 2.5 2.4 3.7 0 0-.2-.2-.1-.3.4.7.8 1.4 1.2 2 .1.1.1.3.2.4.1.2.1.1.2.3.2.2.2.4.3.6 0 0 .1.1.1.2 0 0 .2.2.1.2l.1.1c.1.1.7.8.8.9.1.1.1.2.1.1l.1.2.1.2s0 .1 0 0c.1.1.1.2.2.3-.1-.3-.3-.6-.4-.8.1.1.2.3.3.4.1.1.2.4.3.7 0 0 .1 0 .1.2 0 .1.1.1.1.2-.1-.1-.1-.2-.2-.3 0 0 .1.3.2.4 0 0 .2.2.2.4-.1 0 0 .1.1.2l.1.1c.1 0-.2-.3-.1-.3 0 0 .1.2.2.3 0 0 0-.1 0 0 .1.1.2.2.2.3 0 0 0-.1-.1-.1.1.1-.6-.6-.5-.4 0-.1.6.6.5.6 0-.1.1 0 0-.1l-.1-.1c-.1-.1-.1-.2 0-.2.1.2-.5-.4-.4-.3v-.1c.1.1.2.2.2.3l.1.1c.1.1.1.2.1.1-.3-.4.4.2.1-.3.1.2-.1 0-.2-.2 0 0 0-.1-.1-.3l-.1-.1c0-.1-.1-.2-.1-.2-.1-.1-.1-.2-.2-.3-.1-.1 0 0-.1 0-.1-.1-.2-.4-.3-.5 0-.1-.1-.2 0-.1.1.2-.1 0 0 .2 0-.1.1.2.2.2 0-.1-.1-.2-.2-.4-.1-.1-.2-.3-.3-.5h.1l-.1-.2c-.1-.1-.1-.1-.1-.2 0 0-.6-.8-.6-.7-.1-.1-.1-.2-.2-.3 0 0 .8 1 .7.9 0-.1-.9-1.2-.9-1.3-.1-.1-.1-.2-.1-.1-.1-.1.1 0 0-.1v-.1c-.2-.2-.3-.5-.5-.7.1.1.1.1.3.2l.1.1c-.1-.1-.2-.3-.3-.4v-.1c0-.1 0-.1 0 0 0-.1-.4-.5-.5-.8l-.1-.1c-.1-.3-.2-.5-.4-.7-.1-.1-.1-.1-.1 0l-.1-.2c.2.1-.2-.4 0-.3 0-.1-.1-.2-.2-.3 0 0-.1 0-.2-.1-.1-.2-.1-.2-.2-.3 0-.1 0 0 .1 0-.2-.2-.1-.3-.3-.5-.1-.1-.3-.4-.3-.4l.3-.2"/></g></svg>