<?xml version="1.0" encoding="utf-8"?>
<!-- Generator: Adobe Illustrator 19.0.0, SVG Export Plug-In . SVG Version: 6.00 Build 0)  -->
<!DOCTYPE svg PUBLIC "-//W3C//DTD SVG 1.1//EN" "http://www.w3.org/Graphics/SVG/1.1/DTD/svg11.dtd">
<svg version="1.1" id="Layer_1" xmlns="http://www.w3.org/2000/svg" xmlns:xlink="http://www.w3.org/1999/xlink" x="0px" y="0px"
	 width="45px" height="30px" viewBox="0 0 45 30" enable-background="new 0 0 45 30" xml:space="preserve">
<g id="XMLID_5_">
	<g id="XMLID_11_">
		<path id="XMLID_4_" fill="#355E7C" d="M9.5,26.1c1.3-0.5,8,0.1,11-0.3c2-0.1,3.1-0.3,1.6-0.4c2.8,0,2.1,0.2,4.4,0.1l-0.8,0.2
			c0.8,0,1.6,0.1,2.6,0.1l1.1-0.2c2.8,0.2,4.4-0.2,7.4,0c-2-0.1,0.9-0.1,0.7-0.3c0.5,0.1,2.3,0.1,1.7,0.2c0.9,0,1.8,0,2.7,0l1.2,0
			c0.4,0,0.9,0,1.2,0c0-0.3,0-0.6,0-0.8c0-0.3,0-0.6,0.1-0.7L44.4,23c-0.1-1.6,0-2.9,0.1-4.4l-0.1-0.2c-0.1-1,0-2.8,0-3.6
			c0.1-2.6-0.2-5.8-0.3-8.5c0.1-1.6-0.1-1.8-0.2-2.1c0,0-0.2,0-0.2,0V4c0.5,0,0.4,0,0.5,0c0,0.2,0.1,0.3,0.1-0.1l-0.4,0l-0.2,0v0.3
			H8.9H8H1.3v0.2c0-0.1,0.1-0.1,0.1-0.1l0.1-0.2C1.1,4.4,0.8,5.6,0.5,7c0,1.1,0.1,2.1,0.2,2.9c-0.2,4.6,0.3,7,0.2,11.8l0,4.4l4.6,0
			C6.7,26.1,8,26.1,9.5,26.1"/>
		<path id="XMLID_3_" fill="#6A99C1" d="M2.1,7.3c0.2-0.9,0.3-1.5,0.4-1.5H8h0.9h33.3v0.3l0.3,0c0,0,0,0.2,0,0.2l0,0.1
			c0,0.6,0.1,1.3,0.1,2c0.1,1.9,0.2,3.8,0.2,5.6c0,0.3,0,0.5,0,0.8c-0.1,0.8-0.1,1.8-0.1,2.3c0,0.6,0,1.1,0,1.5l0,0.3l0.1,0.1
			c0,0.3,0,0.6,0,0.8c0,0.6-0.1,1.2-0.1,1.9c0,0.5,0,0.9,0,1.4l0.1,0.8c0,0,0,0,0,0.1l-1,0c-0.7,0-1.5,0.1-2.3,0
			c-0.3-0.1-0.6-0.1-0.9-0.1c-0.3,0-0.7,0-0.9-0.1L37,24c-0.1,0-0.1,0-0.2,0c0.2-0.1,0.3-0.1,0.4-0.2c-0.1,0-0.4,0-0.6,0
			c-0.3,0-0.5,0.1-0.7,0.1c-1,0-1.9,0-2.7,0.1c-1.2,0.1-2.2,0.1-3.6,0l-0.2,0l-1.2,0.2c-0.6,0-1.2,0-1.7-0.1l0-0.2
			c-1.1,0-1.4,0-1.9,0c-0.5,0-1.1-0.1-2.5-0.1l0,0.3c-0.3,0-0.8,0.1-1.6,0.1l-0.1,0l-0.1,0c-1.3,0.1-3.4,0.1-5.4,0.1
			c-2.8-0.1-4.6-0.1-5.6,0.2c-1.2,0-2.4,0-3.8,0l-3,0l0-2.8c0-0.4,0-0.8,0-1.3c0-1.7-0.1-3.1-0.2-4.4c-0.1-1.3-0.1-2.4-0.1-3.8
			c0-0.7,0-1.4,0.1-2.2l0-0.1l0,0C2.2,9.1,2.2,8.4,2.1,7.3"/>
	</g>
	<g id="XMLID_8_">
		<polygon id="XMLID_2_" fill="#FFFFFF" points="23,21.8 14.5,8.8 30.6,8.2 		"/>
		<path id="XMLID_1_" fill="#355E7C" d="M17.5,12.7l-0.1-0.2c0.4,0.5,0.7,1.1,1.1,1.7c-0.7-1.3-1.5-2.8-2.4-3.5
			c0-0.1-0.1-0.4-0.3-0.8c-0.1-0.2-0.2-0.3-0.2-0.4c0-0.1,0-0.1,0-0.1c0,0,0,0,0,0c0,0-0.1-0.1-0.2-0.1c0,0,0.1,0.1,0.1,0.1
			c0,0-0.1-0.1-0.1-0.1l0,0c0,0,0.1,0,0.1,0l0.1,0l0.3,0c0.5,0,1-0.1,1.5-0.1c1,0,2,0,3-0.1c1.2,0,4.3-0.1,5.5-0.1l0.5,0
			c-0.3,0-0.3,0-0.6,0c0.7-0.1,1.4-0.1,2-0.2c-0.1,0-0.1,0-0.4-0.1l0.3,0c0.3-0.1,1-0.1,1.3-0.1c-0.1,0,0.2,0,0.4,0c0,0,0,0-0.1,0
			c0.2,0,0.3,0,0.5,0c-0.1,0.1-0.1,0.2-0.2,0.3c-0.1,0.2-0.2,0.3-0.2,0.4c-0.1,0.1-0.1,0.2-0.1,0.2l-0.3,0.6c0-0.1-0.3,0.5-0.2,0.2
			c-0.2,0.5-0.5,1-0.7,1.5c-0.9,1.6-1.8,3.4-2.7,5.1l0,0c-0.3,0.6-0.5,1.2-0.9,1.9c-0.2,0.5-0.6,1.3-0.6,1.5
			c-0.3,0.6-0.4,0.9-0.7,1.4c0.1-0.1-0.3,0.6-0.1,0.3c0.3-0.3,0.2-0.4,0.5-0.7l0,0c0.9-1.5,1.8-3,2.6-4.5c0.5-1,1.2-2.1,1.7-3.2
			c0.6-1.2,1.3-2.4,1.8-3.4c0.1-0.2,0.2-0.4,0.4-0.6c0.3-0.6,0.7-1.2,1-1.9c-0.6,0-1.2,0.1-1.8,0.1c-0.4,0-0.7,0-1.1,0.1
			c0,0,0,0,0.1,0c-0.6,0-1.1,0-1.7,0c0,0-0.1,0-0.1,0c-0.1-0.1-3.6,0.3-3.8,0.3l-0.2,0c-1.3,0-2.6-0.1-3.7,0c-0.2,0-0.5,0.1-0.7,0.1
			c-0.2,0-0.2,0-0.5,0c-0.6-0.1-0.9,0-0.6,0c-0.5,0-1,0-1.4,0.1c-0.3,0-0.5,0-0.8,0.1c-0.3,0-0.4,0-0.6,0c-0.3,0-0.4,0-0.5,0
			c0.1,0.1,0.1,0.2,0.3,0.6c0,0.1,0.3,0.5,0.6,0.9c0.2,0.3,0.4,0.5,0.4,0.5l0-0.1c0.3,0.5,0.4,0.8,0.7,1.2c0.8,1.2,1.7,2.5,2.4,3.7
			c0,0-0.2-0.2-0.1-0.3c0.4,0.7,0.8,1.4,1.2,2c0.1,0.1,0.1,0.3,0.2,0.4c0.1,0.2,0.1,0.1,0.2,0.3l0,0c0.2,0.2,0.2,0.4,0.3,0.6
			c0,0,0.1,0.1,0.1,0.2c0,0,0.2,0.2,0.1,0.2h0c0,0,0.1,0.1,0.1,0.1c0.1,0.1,0.7,0.8,0.8,0.9l0,0c0.1,0.1,0.1,0.2,0.1,0.1l0.1,0.2
			l0,0l0.1,0.2c0,0,0,0.1,0,0c0.1,0.1,0.1,0.2,0.2,0.3c-0.1-0.3-0.3-0.6-0.4-0.8c0.1,0.1,0.2,0.3,0.3,0.4c0.1,0.1,0.2,0.4,0.3,0.7
			c0,0,0.1,0,0.1,0.2c0,0.1,0.1,0.1,0.1,0.2c-0.1-0.1-0.1-0.2-0.2-0.3c0,0,0.1,0.3,0.2,0.4c0,0,0.2,0.2,0.2,0.4
			c-0.1,0,0,0.1,0.1,0.2c0.1,0.1,0.1,0.1,0.1,0.1c0.1,0-0.2-0.3-0.1-0.3c0,0,0.1,0.2,0.2,0.3c0,0,0-0.1,0,0c0.1,0.1,0.2,0.2,0.2,0.3
			c0,0,0-0.1-0.1-0.1c0.1,0.1-0.6-0.6-0.5-0.4c0-0.1,0.6,0.6,0.5,0.6c0-0.1,0.1,0,0-0.1l-0.1-0.1c-0.1-0.1-0.1-0.2,0-0.2
			c0.1,0.2-0.5-0.4-0.4-0.3l0-0.1c0.1,0.1,0.2,0.2,0.2,0.3c0,0,0.1,0.1,0.1,0.1l0,0c0.1,0.1,0.1,0.2,0.1,0.1
			c-0.3-0.4,0.4,0.2,0.1-0.3c0.1,0.2-0.1,0-0.2-0.2c0,0,0-0.1-0.1-0.3c-0.1-0.1-0.1-0.1-0.1-0.1c0-0.1-0.1-0.2-0.1-0.2
			c-0.1-0.1-0.1-0.2-0.2-0.3c-0.1-0.1,0,0-0.1,0c-0.1-0.1-0.2-0.4-0.3-0.5c0-0.1-0.1-0.2,0-0.1c0.1,0.2-0.1,0,0,0.2
			c0-0.1,0.1,0.2,0.2,0.2c0-0.1-0.1-0.2-0.2-0.4l0,0c-0.1-0.1-0.2-0.3-0.3-0.5c0,0,0,0,0.1,0l-0.1-0.2c0,0,0,0,0,0
			c-0.1-0.1-0.1-0.1-0.1-0.2c0,0-0.6-0.8-0.6-0.7c-0.1-0.1-0.1-0.2-0.2-0.3c0,0,0.8,1,0.7,0.9c0-0.1-0.9-1.2-0.9-1.3
			c-0.1-0.1-0.1-0.2-0.1-0.1c-0.1-0.1,0.1,0,0-0.1c0,0,0,0,0,0l0-0.1c-0.2-0.2-0.3-0.5-0.5-0.7c0.1,0.1,0.1,0.1,0.3,0.2l0,0
			c0,0,0.1,0.1,0.1,0.1c-0.1-0.1-0.2-0.3-0.3-0.4c0,0,0-0.1,0-0.1c0,0,0,0,0,0c0-0.1,0-0.1,0,0c0,0,0,0,0,0c0-0.1-0.4-0.5-0.5-0.8
			c-0.1-0.1,0,0-0.1-0.1c-0.1-0.3-0.2-0.5-0.4-0.7c-0.1-0.1-0.1-0.1-0.1,0l-0.1-0.2c0.2,0.1-0.2-0.4,0-0.3c0-0.1-0.1-0.2-0.2-0.3
			c0,0-0.1,0-0.2-0.1c-0.1-0.2-0.1-0.2-0.2-0.3c0-0.1,0,0,0.1,0c-0.2-0.2-0.1-0.3-0.3-0.5c-0.1-0.1-0.3-0.4-0.3-0.4
			C17.5,12.7,17.5,12.7,17.5,12.7"/>
	</g>
</g>
</svg>
