<?xml version="1.0" encoding="utf-8"?>
<!-- Generator: Adobe Illustrator 19.0.0, SVG Export Plug-In . SVG Version: 6.00 Build 0)  -->
<!DOCTYPE svg PUBLIC "-//W3C//DTD SVG 1.1//EN" "http://www.w3.org/Graphics/SVG/1.1/DTD/svg11.dtd">
<svg version="1.1" id="Layer_1" xmlns="http://www.w3.org/2000/svg" xmlns:xlink="http://www.w3.org/1999/xlink" x="0px" y="0px"
	 width="30px" height="45px" viewBox="7.5 -7.5 30 45" enable-background="new 7.5 -7.5 30 45" xml:space="preserve">
<g id="XMLID_5_">
	<g id="XMLID_11_">
		<path id="XMLID_4_" fill="#355E7C" d="M11.4,2c0.5,1.3-0.1,8,0.3,11c0.1,2,0.3,3.1,0.4,1.6c0,2.8-0.2,2.1-0.1,4.4l-0.2-0.8
			c0,0.8-0.1,1.6-0.1,2.6l0.2,1.1c-0.2,2.8,0.2,4.4,0,7.4c0.1-2,0.1,0.9,0.3,0.7c-0.1,0.5-0.1,2.3-0.2,1.7c0,0.9,0,1.8,0,2.7v1.2
			c0,0.4,0,0.9,0,1.2c0.3,0,0.6,0,0.8,0c0.3,0,0.6,0,0.7,0.1l1,0c1.6-0.1,2.9,0,4.4,0.1l0.2-0.1c1-0.1,2.8,0,3.6,0
			c2.6,0.1,5.8-0.2,8.5-0.3c1.6,0.1,1.8-0.1,2.1-0.2v-0.2h0.2c0,0.5,0,0.4,0,0.5c-0.2,0-0.3,0.1,0.1,0.1v-0.4v-0.2h-0.3V1.4V0.5
			v-6.7h-0.2c0.1,0,0.1,0.1,0.1,0.1L33.4-6c-0.3-0.4-1.5-0.7-2.9-1c-1.1,0-2.1,0.1-2.9,0.2C23-7,20.6-6.5,15.8-6.6h-4.4V-2
			C11.4-0.8,11.4,0.5,11.4,2"/>
		<path id="XMLID_3_" fill="#6A99C1" d="M30.2-5.4c0.9,0.2,1.5,0.3,1.5,0.4v5.5v0.9v33.3h-0.3V35h-0.2h-0.1c-0.6,0-1.3,0.1-2,0.1
			c-1.9,0.1-3.8,0.2-5.6,0.2c-0.3,0-0.5,0-0.8,0c-0.8-0.1-1.8-0.1-2.3-0.1c-0.6,0-1.1,0-1.5,0h-0.3l-0.1,0.1c-0.3,0-0.6,0-0.8,0
			c-0.6,0-1.2-0.1-1.9-0.1c-0.5,0-0.9,0-1.4,0l-0.8,0.1c0,0,0,0-0.1,0v-1c0-0.7-0.1-1.5,0-2.3c0.1-0.3,0.1-0.6,0.1-0.9
			c0-0.3,0-0.7,0.1-0.9l-0.2-0.7c0-0.1,0-0.1,0-0.2c0.1,0.2,0.1,0.3,0.2,0.4c0-0.1,0-0.4,0-0.6c0-0.3-0.1-0.5-0.1-0.7
			c0-1,0-1.9-0.1-2.7c-0.1-1.2-0.1-2.2,0-3.6v-0.2l-0.2-1.2c0-0.6,0-1.2,0.1-1.7h0.2c0-1.1,0-1.4,0-1.9s0.1-1.1,0.1-2.5h-0.3
			c0-0.3-0.1-0.8-0.1-1.6v-0.1v-0.1c-0.1-1.3-0.1-3.4-0.1-5.4c0.1-2.8,0.1-4.6-0.2-5.6c0-1.2,0-2.4,0-3.8v-3h2.8c0.4,0,0.8,0,1.3,0
			c1.7,0,3.1-0.1,4.4-0.2c1.3-0.1,2.4-0.1,3.8-0.1c0.7,0,1.4,0,2.2,0.1h0.1l0,0C28.4-5.3,29.1-5.3,30.2-5.4"/>
	</g>
	<g id="XMLID_8_">
		<polygon id="XMLID_2_" fill="#FFFFFF" points="15.7,15.5 28.7,7 29.3,23.1 		"/>
		<path id="XMLID_1_" fill="#355E7C" d="M24.8,10L25,9.9c-0.5,0.4-1.1,0.7-1.7,1.1c1.3-0.7,2.8-1.5,3.5-2.4c0.1,0,0.4-0.1,0.8-0.3
			c0.2-0.1,0.3-0.2,0.4-0.2c0.1,0,0.1,0,0.1,0l0,0c0,0,0.1-0.1,0.1-0.2L28.1,8l0.1-0.1l0,0V8v0.1v0.3c0,0.5,0.1,1,0.1,1.5
			c0,1,0,2,0.1,3c0,1.2,0.1,4.3,0.1,5.5v0.5c0-0.3,0-0.3,0-0.6c0.1,0.7,0.1,1.4,0.2,2c0-0.1,0-0.1,0.1-0.4v0.3
			c0.1,0.3,0.1,1,0.1,1.3c0-0.1,0,0.2,0,0.4c0,0,0,0,0-0.1c0,0.2,0,0.3,0,0.5c-0.1-0.1-0.2-0.1-0.3-0.2c-0.2-0.1-0.3-0.2-0.4-0.2
			c-0.1-0.1-0.2-0.1-0.2-0.1l-0.6-0.3c0.1,0-0.5-0.3-0.2-0.2c-0.5-0.2-1-0.5-1.5-0.7c-1.6-0.9-3.4-1.8-5.1-2.7l0,0
			c-0.6-0.3-1.2-0.5-1.9-0.9c-0.5-0.2-1.3-0.6-1.5-0.6c-0.6-0.3-0.9-0.4-1.4-0.7c0.1,0.1-0.6-0.3-0.3-0.1c0.3,0.3,0.4,0.2,0.7,0.5
			l0,0c1.5,0.9,3,1.8,4.5,2.6c1,0.5,2.1,1.2,3.2,1.7c1.2,0.6,2.4,1.3,3.4,1.8c0.2,0.1,0.4,0.2,0.6,0.4c0.6,0.3,1.2,0.7,1.9,1
			c0-0.6-0.1-1.2-0.1-1.8c0-0.4,0-0.7-0.1-1.1c0,0,0,0,0,0.1c0-0.6,0-1.1,0-1.7V19c0.1-0.1-0.3-3.6-0.3-3.8V15c0-1.3,0.1-2.6,0-3.7
			c0-0.2-0.1-0.5-0.1-0.7s0-0.2,0-0.5c0.1-0.6,0-0.9,0-0.6c0-0.5,0-1-0.1-1.4c0-0.3,0-0.5-0.1-0.8c0-0.3,0-0.4,0-0.6
			c0-0.3,0-0.4,0-0.5c-0.1,0.1-0.2,0.1-0.6,0.3c-0.1,0-0.5,0.3-0.9,0.6C27.2,7.3,27,7.5,27,7.5h0.1c-0.5,0.3-0.8,0.4-1.2,0.7
			c-1.2,0.8-2.5,1.7-3.7,2.4c0,0,0.2-0.2,0.3-0.1c-0.7,0.4-1.4,0.8-2,1.2c-0.1,0.1-0.3,0.1-0.4,0.2C19.9,12,20,12,19.8,12.1l0,0
			c-0.2,0.2-0.4,0.2-0.6,0.3c0,0-0.1,0.1-0.2,0.1c0,0-0.2,0.2-0.2,0.1l0,0l-0.1,0.1c-0.1,0.1-0.8,0.7-0.9,0.8l0,0
			c-0.1,0.1-0.2,0.1-0.1,0.1l-0.2,0.1l0,0l-0.2,0.1c0,0-0.1,0,0,0c-0.1,0.1-0.2,0.1-0.3,0.2c0.3-0.1,0.6-0.3,0.8-0.4
			c-0.1,0.1-0.3,0.2-0.4,0.3c-0.1,0.1-0.4,0.2-0.7,0.3c0,0,0,0.1-0.2,0.1c-0.1,0-0.1,0.1-0.2,0.1c0.1-0.1,0.2-0.1,0.3-0.2
			c0,0-0.3,0.1-0.4,0.2c0,0-0.2,0.2-0.4,0.2c0-0.1-0.1,0-0.2,0.1s-0.1,0.1-0.1,0.1c0,0.1,0.3-0.2,0.3-0.1c0,0-0.2,0.1-0.3,0.2
			c0,0,0.1,0,0,0c-0.1,0.1-0.2,0.2-0.3,0.2c0,0,0.1,0,0.1-0.1c-0.1,0.1,0.6-0.6,0.4-0.5c0.1,0-0.6,0.6-0.6,0.5c0.1,0,0,0.1,0.1,0
			l0.1-0.1c0.1-0.1,0.2-0.1,0.2,0c-0.2,0.1,0.4-0.5,0.3-0.4h0.1c-0.1,0.1-0.2,0.2-0.3,0.2l-0.1,0.1l0,0c-0.1,0.1-0.2,0.1-0.1,0.1
			c0.4-0.3-0.2,0.4,0.3,0.1c-0.2,0.1,0-0.1,0.2-0.2c0,0,0.1,0,0.3-0.1c0.1-0.1,0.1-0.1,0.1-0.1c0.1,0,0.2-0.1,0.2-0.1
			c0.1-0.1,0.2-0.1,0.3-0.2c0.1-0.1,0,0,0-0.1c0.1-0.1,0.4-0.2,0.5-0.3c0.1,0,0.2-0.1,0.1,0c-0.2,0.1,0-0.1-0.2,0
			c0.1,0-0.2,0.1-0.2,0.2c0.1,0,0.2-0.1,0.4-0.2l0,0c0.1-0.1,0.3-0.2,0.5-0.3c0,0,0,0,0,0.1l0.2-0.1l0,0c0.1-0.1,0.1-0.1,0.2-0.1
			c0,0,0.8-0.6,0.7-0.6c0.1-0.1,0.2-0.1,0.3-0.2c0,0-1,0.8-0.9,0.7c0.1,0,1.2-0.9,1.3-0.9c0.1-0.1,0.2-0.1,0.1-0.1
			c0.1-0.1,0,0.1,0.1,0l0,0H20c0.2-0.2,0.5-0.3,0.7-0.5c-0.1,0.1-0.1,0.1-0.2,0.3l0,0l-0.1,0.1c0.1-0.1,0.3-0.2,0.4-0.3h0.1l0,0
			c0.1,0,0.1,0,0,0l0,0c0.1,0,0.5-0.4,0.8-0.5c0.1-0.1,0,0,0.1-0.1c0.3-0.1,0.5-0.2,0.7-0.4c0.1-0.1,0.1-0.1,0-0.1l0.2-0.1
			c-0.1,0.2,0.4-0.2,0.3,0c0.1,0,0.2-0.1,0.3-0.2c0,0,0-0.1,0.1-0.2c0.2-0.1,0.2-0.1,0.3-0.2c0.1,0,0,0,0,0.1
			c0.2-0.2,0.3-0.1,0.5-0.3c0.1-0.1,0.4-0.3,0.4-0.3C24.8,10,24.8,10,24.8,10"/>
	</g>
</g>
</svg>
