<svg xmlns="http://www.w3.org/2000/svg" width="30" height="45" viewBox="7.5 -7.5 30 45"><path fill="#355E7C" d="M33.6 28c-.5-1.3.1-8-.3-11-.1-2-.3-3.1-.4-1.6 0-2.8.2-2.1.1-4.4l.2.8c0-.8.1-1.6.1-2.6l-.2-1.1c.2-2.8-.2-4.4 0-7.4-.1 2-.1-.9-.3-.7.1-.5.1-2.3.2-1.7V-5.6v-1.2h-.8c-.3 0-.6 0-.7-.1h-1c-1.6.1-2.9 0-4.4-.1l-.2.1c-1 .1-2.8 0-3.6 0-2.6-.1-5.8.2-8.5.3-1.6-.1-1.8.1-2.1.2v.2h-.2v-.5c.2 0 .3-.1-.1-.1V-6.2h.3v42.4h.2c-.1 0-.1-.1-.1-.1l-.2-.1c.3.4 1.5.7 2.9 1 1.1 0 2.1-.1 2.9-.2 4.6.2 7-.3 11.8-.2h4.4V32v-4"/><path fill="#6A99C1" d="M14.8 35.4c-.9-.2-1.5-.3-1.5-.4V-4.7h.3V-5H13.9c.6 0 1.3-.1 2-.1 1.9-.1 3.8-.2 5.6-.2h.8c.8.1 1.8.1 2.3.1h1.8l.1-.1h.8c.6 0 1.2.1 1.9.1h1.4l.8-.1h.1v1c0 .7.1 1.5 0 2.3-.1.3-.1.6-.1.9 0 .3 0 .7-.1.9l.2.7v.2c-.1-.2-.1-.3-.2-.4v.6c0 .3.1.5.1.7 0 1 0 1.9.1 2.7.1 1.2.1 2.2 0 3.6v.2l.2 1.2c0 .6 0 1.2-.1 1.7h-.2v1.9c0 .5-.1 1.1-.1 2.5h.3c0 .3.1.8.1 1.6v.2c.1 1.3.1 3.4.1 5.4-.1 2.8-.1 4.6.2 5.6V35h-4.1c-1.7 0-3.1.1-4.4.2-1.3.1-2.4.1-3.8.1-.7 0-1.4 0-2.2-.1h-.1c-.8.1-1.5.1-2.6.2"/><g><path fill="#FFF" d="M29.3 14.5l-13 8.5-.6-16.1z"/><path fill="#355E7C" d="M20.2 20l-.2.1c.5-.4 1.1-.7 1.7-1.1-1.3.7-2.8 1.5-3.5 2.4-.1 0-.4.1-.8.3-.2.1-.3.2-.4.2h-.1s-.1.1-.1.2l.1-.1-.1.1v-.5c0-.5-.1-1-.1-1.5 0-1 0-2-.1-3 0-1.2-.1-4.3-.1-5.5v-.5.6c-.1-.7-.1-1.4-.2-2 0 .1 0 .1-.1.4v-.3c-.1-.3-.1-1-.1-1.3v-.4-.4c.1.1.2.1.3.2.2.1.3.2.4.2.1.1.2.1.2.1l.6.3c-.1 0 .5.3.2.2.5.2 1 .5 1.5.7 1.6.9 3.4 1.8 5.1 2.7.6.3 1.2.5 1.9.9.5.2 1.3.6 1.5.6.6.3.9.4 1.4.7-.1-.1.6.3.3.1-.3-.3-.4-.2-.7-.5-1.5-.9-3-1.8-4.5-2.6-1-.5-2.1-1.2-3.2-1.7-1.2-.6-2.4-1.3-3.4-1.8-.2-.1-.4-.2-.6-.4-.6-.3-1.2-.7-1.9-1 0 .6.1 1.2.1 1.8 0 .4 0 .7.1 1.1v-.1V11c-.1.1.3 3.6.3 3.8v.2c0 1.3-.1 2.6 0 3.7 0 .2.1.5.1.7v.5c-.1.6 0 .9 0 .6 0 .5 0 1 .1 1.4 0 .3 0 .5.1.8v1.1c.1-.1.2-.1.6-.3.1 0 .5-.3.9-.6.3-.2.5-.4.5-.4h-.1c.5-.3.8-.4 1.2-.7 1.2-.8 2.5-1.7 3.7-2.4 0 0-.2.2-.3.1.7-.4 1.4-.8 2-1.2.1-.1.3-.1.4-.2.2-.1.1-.1.3-.2.2-.2.4-.2.6-.3 0 0 .1-.1.2-.1 0 0 .2-.2.2-.1l.1-.1c.1-.1.8-.7.9-.8.1-.1.2-.1.1-.1l.2-.1.2-.1s.1 0 0 0c.1-.1.2-.1.3-.2-.3.1-.6.3-.8.4.1-.1.3-.2.4-.3.1-.1.4-.2.7-.3 0 0 0-.1.2-.1.1 0 .1-.1.2-.1-.1.1-.2.1-.3.2 0 0 .3-.1.4-.2 0 0 .2-.2.4-.2 0 .1.1 0 .2-.1l.1-.1c0-.1-.3.2-.3.1 0 0 .2-.1.3-.2 0 0-.1 0 0 0 .1-.1.2-.2.3-.2 0 0-.1 0-.1.1.1-.1-.6.6-.4.5-.1 0 .6-.6.6-.5-.1 0 0-.1-.1 0l-.1.1c-.1.1-.2.1-.2 0 .2-.1-.4.5-.3.4h-.1c.1-.1.2-.2.3-.2l.1-.1c.1-.1.2-.1.1-.1-.4.3.2-.4-.3-.1.2-.1 0 .1-.2.2 0 0-.1 0-.3.1l-.1.1c-.1 0-.2.1-.2.1-.1.1-.2.1-.3.2-.1.1 0 0 0 .1-.1.1-.4.2-.5.3-.1 0-.2.1-.1 0 .2-.1 0 .1.2 0-.1 0 .2-.1.2-.2-.1 0-.2.1-.4.2-.1.1-.3.2-.5.3v-.1l-.2.1c-.1.1-.1.1-.2.1 0 0-.8.6-.7.6-.1.1-.2.1-.3.2 0 0 1-.8.9-.7-.1 0-1.2.9-1.3.9-.1.1-.2.1-.1.1-.1.1 0-.1-.1 0H25c-.2.2-.5.3-.7.5.1-.1.1-.1.2-.3l.1-.1c-.1.1-.3.2-.4.3h-.1c-.1 0-.1 0 0 0-.1 0-.5.4-.8.5l-.1.1c-.3.1-.5.2-.7.4-.1.1-.1.1 0 .1l-.2.1c.1-.2-.4.2-.3 0-.1 0-.2.1-.3.2 0 0 0 .1-.1.2-.2.1-.2.1-.3.2-.1 0 0 0 0-.1-.2.2-.3.1-.5.3-.1.1-.4.3-.4.3l-.2-.3"/></g></svg>