<?xml version="1.0" encoding="utf-8"?>
<!-- Generator: Adobe Illustrator 19.0.0, SVG Export Plug-In . SVG Version: 6.00 Build 0)  -->
<!DOCTYPE svg PUBLIC "-//W3C//DTD SVG 1.1//EN" "http://www.w3.org/Graphics/SVG/1.1/DTD/svg11.dtd">
<svg version="1.1" id="Layer_1" xmlns="http://www.w3.org/2000/svg" xmlns:xlink="http://www.w3.org/1999/xlink" x="0px" y="0px"
	 width="30px" height="45px" viewBox="7.5 -7.5 30 45" enable-background="new 7.5 -7.5 30 45" xml:space="preserve">
<g id="XMLID_5_">
	<g id="XMLID_11_">
		<path id="XMLID_4_" fill="#355E7C" d="M33.6,28c-0.5-1.3,0.1-8-0.3-11c-0.1-2-0.3-3.1-0.4-1.6c0-2.8,0.2-2.1,0.1-4.4l0.2,0.8
			c0-0.8,0.1-1.6,0.1-2.6l-0.2-1.1c0.2-2.8-0.2-4.4,0-7.4C33,2.7,33-0.2,32.8,0c0.1-0.5,0.1-2.3,0.2-1.7c0-0.9,0-1.8,0-2.7v-1.2
			c0-0.4,0-0.9,0-1.2c-0.3,0-0.6,0-0.8,0c-0.3,0-0.6,0-0.7-0.1l-1,0c-1.6,0.1-2.9,0-4.4-0.1l-0.2,0.1c-1,0.1-2.8,0-3.6,0
			c-2.6-0.1-5.8,0.2-8.5,0.3c-1.6-0.1-1.8,0.1-2.1,0.2v0.2h-0.2c0-0.5,0-0.4,0-0.5c0.2,0,0.3-0.1-0.1-0.1v0.4v0.2h0.3v34.8v0.9v6.7
			h0.2c-0.1,0-0.1-0.1-0.1-0.1L11.6,36c0.3,0.4,1.5,0.7,2.9,1c1.1,0,2.1-0.1,2.9-0.2c4.6,0.2,7-0.3,11.8-0.2h4.4V32
			C33.6,30.8,33.6,29.5,33.6,28"/>
		<path id="XMLID_3_" fill="#6A99C1" d="M14.8,35.4c-0.9-0.2-1.5-0.3-1.5-0.4v-5.5v-0.9V-4.7h0.3V-5h0.2h0.1c0.6,0,1.3-0.1,2-0.1
			c1.9-0.1,3.8-0.2,5.6-0.2c0.3,0,0.5,0,0.8,0c0.8,0.1,1.8,0.1,2.3,0.1c0.6,0,1.1,0,1.5,0h0.3l0.1-0.1c0.3,0,0.6,0,0.8,0
			c0.6,0,1.2,0.1,1.9,0.1c0.5,0,0.9,0,1.4,0l0.8-0.1c0,0,0,0,0.1,0v1c0,0.7,0.1,1.5,0,2.3c-0.1,0.3-0.1,0.6-0.1,0.9
			c0,0.3,0,0.7-0.1,0.9l0.2,0.7c0,0.1,0,0.1,0,0.2c-0.1-0.2-0.1-0.3-0.2-0.4c0,0.1,0,0.4,0,0.6c0,0.3,0.1,0.5,0.1,0.7
			c0,1,0,1.9,0.1,2.7c0.1,1.2,0.1,2.2,0,3.6v0.2l0.2,1.2c0,0.6,0,1.2-0.1,1.7h-0.2c0,1.1,0,1.4,0,1.9s-0.1,1.1-0.1,2.5h0.3
			c0,0.3,0.1,0.8,0.1,1.6v0.1v0.1c0.1,1.3,0.1,3.4,0.1,5.4c-0.1,2.8-0.1,4.6,0.2,5.6c0,1.2,0,2.4,0,3.8v3h-2.8c-0.4,0-0.8,0-1.3,0
			c-1.7,0-3.1,0.1-4.4,0.2c-1.3,0.1-2.4,0.1-3.8,0.1c-0.7,0-1.4,0-2.2-0.1h-0.1l0,0C16.6,35.3,15.9,35.3,14.8,35.4"/>
	</g>
	<g id="XMLID_8_">
		<polygon id="XMLID_2_" fill="#FFFFFF" points="29.3,14.5 16.3,23 15.7,6.9 		"/>
		<path id="XMLID_1_" fill="#355E7C" d="M20.2,20L20,20.1c0.5-0.4,1.1-0.7,1.7-1.1c-1.3,0.7-2.8,1.5-3.5,2.4c-0.1,0-0.4,0.1-0.8,0.3
			c-0.2,0.1-0.3,0.2-0.4,0.2c-0.1,0-0.1,0-0.1,0l0,0c0,0-0.1,0.1-0.1,0.2l0.1-0.1l-0.1,0.1l0,0V22v-0.1v-0.3c0-0.5-0.1-1-0.1-1.5
			c0-1,0-2-0.1-3c0-1.2-0.1-4.3-0.1-5.5v-0.5c0,0.3,0,0.3,0,0.6c-0.1-0.7-0.1-1.4-0.2-2c0,0.1,0,0.1-0.1,0.4V9.8
			c-0.1-0.3-0.1-1-0.1-1.3c0,0.1,0-0.2,0-0.4c0,0,0,0,0,0.1c0-0.2,0-0.3,0-0.5c0.1,0.1,0.2,0.1,0.3,0.2c0.2,0.1,0.3,0.2,0.4,0.2
			C16.9,8.2,17,8.2,17,8.2l0.6,0.3c-0.1,0,0.5,0.3,0.2,0.2c0.5,0.2,1,0.5,1.5,0.7c1.6,0.9,3.4,1.8,5.1,2.7l0,0
			c0.6,0.3,1.2,0.5,1.9,0.9c0.5,0.2,1.3,0.6,1.5,0.6c0.6,0.3,0.9,0.4,1.4,0.7c-0.1-0.1,0.6,0.3,0.3,0.1c-0.3-0.3-0.4-0.2-0.7-0.5
			l0,0c-1.5-0.9-3-1.8-4.5-2.6c-1-0.5-2.1-1.2-3.2-1.7c-1.2-0.6-2.4-1.3-3.4-1.8c-0.2-0.1-0.4-0.2-0.6-0.4c-0.6-0.3-1.2-0.7-1.9-1
			c0,0.6,0.1,1.2,0.1,1.8c0,0.4,0,0.7,0.1,1.1c0,0,0,0,0-0.1c0,0.6,0,1.1,0,1.7V11c-0.1,0.1,0.3,3.6,0.3,3.8V15c0,1.3-0.1,2.6,0,3.7
			c0,0.2,0.1,0.5,0.1,0.7s0,0.2,0,0.5c-0.1,0.6,0,0.9,0,0.6c0,0.5,0,1,0.1,1.4c0,0.3,0,0.5,0.1,0.8c0,0.3,0,0.4,0,0.6
			c0,0.3,0,0.4,0,0.5c0.1-0.1,0.2-0.1,0.6-0.3c0.1,0,0.5-0.3,0.9-0.6c0.3-0.2,0.5-0.4,0.5-0.4h-0.1c0.5-0.3,0.8-0.4,1.2-0.7
			c1.2-0.8,2.5-1.7,3.7-2.4c0,0-0.2,0.2-0.3,0.1c0.7-0.4,1.4-0.8,2-1.2c0.1-0.1,0.3-0.1,0.4-0.2c0.2-0.1,0.1-0.1,0.3-0.2l0,0
			c0.2-0.2,0.4-0.2,0.6-0.3c0,0,0.1-0.1,0.2-0.1c0,0,0.2-0.2,0.2-0.1l0,0l0.1-0.1c0.1-0.1,0.8-0.7,0.9-0.8l0,0
			c0.1-0.1,0.2-0.1,0.1-0.1l0.2-0.1l0,0l0.2-0.1c0,0,0.1,0,0,0c0.1-0.1,0.2-0.1,0.3-0.2c-0.3,0.1-0.6,0.3-0.8,0.4
			c0.1-0.1,0.3-0.2,0.4-0.3c0.1-0.1,0.4-0.2,0.7-0.3c0,0,0-0.1,0.2-0.1c0.1,0,0.1-0.1,0.2-0.1c-0.1,0.1-0.2,0.1-0.3,0.2
			c0,0,0.3-0.1,0.4-0.2c0,0,0.2-0.2,0.4-0.2c0,0.1,0.1,0,0.2-0.1s0.1-0.1,0.1-0.1c0-0.1-0.3,0.2-0.3,0.1c0,0,0.2-0.1,0.3-0.2
			c0,0-0.1,0,0,0c0.1-0.1,0.2-0.2,0.3-0.2c0,0-0.1,0-0.1,0.1c0.1-0.1-0.6,0.6-0.4,0.5c-0.1,0,0.6-0.6,0.6-0.5c-0.1,0,0-0.1-0.1,0
			l-0.1,0.1c-0.1,0.1-0.2,0.1-0.2,0c0.2-0.1-0.4,0.5-0.3,0.4h-0.1c0.1-0.1,0.2-0.2,0.3-0.2l0.1-0.1l0,0c0.1-0.1,0.2-0.1,0.1-0.1
			c-0.4,0.3,0.2-0.4-0.3-0.1c0.2-0.1,0,0.1-0.2,0.2c0,0-0.1,0-0.3,0.1c-0.1,0.1-0.1,0.1-0.1,0.1c-0.1,0-0.2,0.1-0.2,0.1
			c-0.1,0.1-0.2,0.1-0.3,0.2c-0.1,0.1,0,0,0,0.1c-0.1,0.1-0.4,0.2-0.5,0.3c-0.1,0-0.2,0.1-0.1,0c0.2-0.1,0,0.1,0.2,0
			c-0.1,0,0.2-0.1,0.2-0.2c-0.1,0-0.2,0.1-0.4,0.2l0,0c-0.1,0.1-0.3,0.2-0.5,0.3c0,0,0,0,0-0.1l-0.2,0.1l0,0
			c-0.1,0.1-0.1,0.1-0.2,0.1c0,0-0.8,0.6-0.7,0.6c-0.1,0.1-0.2,0.1-0.3,0.2c0,0,1-0.8,0.9-0.7c-0.1,0-1.2,0.9-1.3,0.9
			c-0.1,0.1-0.2,0.1-0.1,0.1c-0.1,0.1,0-0.1-0.1,0l0,0H25c-0.2,0.2-0.5,0.3-0.7,0.5c0.1-0.1,0.1-0.1,0.2-0.3l0,0l0.1-0.1
			c-0.1,0.1-0.3,0.2-0.4,0.3h-0.1l0,0c-0.1,0-0.1,0,0,0l0,0c-0.1,0-0.5,0.4-0.8,0.5c-0.1,0.1,0,0-0.1,0.1c-0.3,0.1-0.5,0.2-0.7,0.4
			c-0.1,0.1-0.1,0.1,0,0.1l-0.2,0.1c0.1-0.2-0.4,0.2-0.3,0c-0.1,0-0.2,0.1-0.3,0.2c0,0,0,0.1-0.1,0.2c-0.2,0.1-0.2,0.1-0.3,0.2
			c-0.1,0,0,0,0-0.1c-0.2,0.2-0.3,0.1-0.5,0.3c-0.1,0.1-0.4,0.3-0.4,0.3C20.2,20,20.2,20,20.2,20"/>
	</g>
</g>
</svg>
