<?xml version="1.0" encoding="utf-8"?>
<!-- Generator: Adobe Illustrator 19.0.0, SVG Export Plug-In . SVG Version: 6.00 Build 0)  -->
<!DOCTYPE svg PUBLIC "-//W3C//DTD SVG 1.1//EN" "http://www.w3.org/Graphics/SVG/1.1/DTD/svg11.dtd">
<svg version="1.1" id="Layer_1" xmlns="http://www.w3.org/2000/svg" xmlns:xlink="http://www.w3.org/1999/xlink" x="0px" y="0px"
	 width="45px" height="30px" viewBox="0 0 45 30" enable-background="new 0 0 45 30" xml:space="preserve">
<g id="XMLID_5_">
	<g id="XMLID_11_">
		<path id="XMLID_4_" fill="#355E7C" d="M35.5,3.9c-1.3,0.5-8-0.1-11,0.3c-2,0.1-3.1,0.3-1.6,0.4c-2.8,0-2.1-0.2-4.4-0.1l0.8-0.2
			c-0.8,0-1.6-0.1-2.6-0.1l-1.1,0.2c-2.8-0.2-4.4,0.2-7.4,0c2,0.1-0.9,0.1-0.7,0.3C7,4.6,5.2,4.6,5.8,4.5c-0.9,0-1.8,0-2.7,0H1.9
			c-0.4,0-0.9,0-1.2,0c0,0.3,0,0.6,0,0.8c0,0.3,0,0.6-0.1,0.7l0,1c0.1,1.6,0,2.9-0.1,4.4l0.1,0.2c0.1,1,0,2.8,0,3.6
			c-0.1,2.6,0.2,5.8,0.3,8.5c-0.1,1.6,0.1,1.8,0.2,2.1h0.2V26c-0.5,0-0.4,0-0.5,0c0-0.2-0.1-0.3-0.1,0.1h0.4h0.2v-0.3l34.8,0H37h6.7
			v-0.2c0,0.1-0.1,0.1-0.1,0.1l-0.1,0.2c0.4-0.3,0.7-1.5,1-2.9c0-1.1-0.1-2.1-0.2-2.9c0.2-4.6-0.3-7-0.2-11.8V3.9h-4.6
			C38.3,3.9,37,3.9,35.5,3.9"/>
		<path id="XMLID_3_" fill="#6A99C1" d="M42.9,22.7c-0.2,0.9-0.3,1.5-0.4,1.5H37h-0.9H2.8v-0.3H2.5v-0.2v-0.1c0-0.6-0.1-1.3-0.1-2
			c-0.1-1.9-0.2-3.8-0.2-5.6c0-0.3,0-0.5,0-0.8c0.1-0.8,0.1-1.8,0.1-2.3c0-0.6,0-1.1,0-1.5v-0.3L2.2,11c0-0.3,0-0.6,0-0.8
			c0-0.6,0.1-1.2,0.1-1.9c0-0.5,0-0.9,0-1.4L2.2,6.1c0,0,0,0,0-0.1h1c0.7,0,1.5-0.1,2.3,0c0.3,0.1,0.6,0.1,0.9,0.1
			c0.3,0,0.7,0,0.9,0.1L8,6c0.1,0,0.1,0,0.2,0C8,6.1,7.9,6.1,7.8,6.2c0.1,0,0.4,0,0.6,0c0.3,0,0.5-0.1,0.7-0.1c1,0,1.9,0,2.7-0.1
			C13,5.9,14,5.9,15.4,6h0.2l1.2-0.2c0.6,0,1.2,0,1.7,0.1v0.2c1.1,0,1.4,0,1.9,0s1.1,0.1,2.5,0.1V5.9c0.3,0,0.8-0.1,1.6-0.1h0.1h0.1
			c1.3-0.1,3.4-0.1,5.4-0.1c2.8,0.1,4.6,0.1,5.6-0.2c1.2,0,2.4,0,3.8,0h3v2.8c0,0.4,0,0.8,0,1.3c0,1.7,0.1,3.1,0.2,4.4
			c0.1,1.3,0.1,2.4,0.1,3.8c0,0.7,0,1.4-0.1,2.2v0.1l0,0C42.8,20.9,42.8,21.6,42.9,22.7"/>
	</g>
	<g id="XMLID_8_">
		<polygon id="XMLID_2_" fill="#FFFFFF" points="22,8.2 30.5,21.2 14.4,21.8 		"/>
		<path id="XMLID_1_" fill="#355E7C" d="M27.5,17.3l0.1,0.2c-0.4-0.5-0.7-1.1-1.1-1.7c0.7,1.3,1.5,2.8,2.4,3.5
			c0,0.1,0.1,0.4,0.3,0.8c0.1,0.2,0.2,0.3,0.2,0.4c0,0.1,0,0.1,0,0.1l0,0c0,0,0.1,0.1,0.2,0.1l-0.1-0.1l0.1,0.1l0,0h-0.1h-0.1h-0.3
			c-0.5,0-1,0.1-1.5,0.1c-1,0-2,0-3,0.1c-1.2,0-4.3,0.1-5.5,0.1h-0.5c0.3,0,0.3,0,0.6,0c-0.7,0.1-1.4,0.1-2,0.2c0.1,0,0.1,0,0.4,0.1
			h-0.3c-0.3,0.1-1,0.1-1.3,0.1c0.1,0-0.2,0-0.4,0c0,0,0,0,0.1,0c-0.2,0-0.3,0-0.5,0c0.1-0.1,0.1-0.2,0.2-0.3
			c0.1-0.2,0.2-0.3,0.2-0.4c0.1-0.1,0.1-0.2,0.1-0.2l0.3-0.6c0,0.1,0.3-0.5,0.2-0.2c0.2-0.5,0.5-1,0.7-1.5c0.9-1.6,1.8-3.4,2.7-5.1
			l0,0c0.3-0.6,0.5-1.2,0.9-1.9c0.2-0.5,0.6-1.3,0.6-1.5c0.3-0.6,0.4-0.9,0.7-1.4c-0.1,0.1,0.3-0.6,0.1-0.3
			c-0.3,0.3-0.2,0.4-0.5,0.7l0,0c-0.9,1.5-1.8,3-2.6,4.5c-0.5,1-1.2,2.1-1.7,3.2c-0.6,1.2-1.3,2.4-1.8,3.4c-0.1,0.2-0.2,0.4-0.4,0.6
			c-0.3,0.6-0.7,1.2-1,1.9c0.6,0,1.2-0.1,1.8-0.1c0.4,0,0.7,0,1.1-0.1c0,0,0,0-0.1,0c0.6,0,1.1,0,1.7,0h0.1c0.1,0.1,3.6-0.3,3.8-0.3
			h0.2c1.3,0,2.6,0.1,3.7,0c0.2,0,0.5-0.1,0.7-0.1s0.2,0,0.5,0c0.6,0.1,0.9,0,0.6,0c0.5,0,1,0,1.4-0.1c0.3,0,0.5,0,0.8-0.1
			c0.3,0,0.4,0,0.6,0c0.3,0,0.4,0,0.5,0c-0.1-0.1-0.1-0.2-0.3-0.6c0-0.1-0.3-0.5-0.6-0.9c-0.2-0.3-0.4-0.5-0.4-0.5v0.1
			c-0.3-0.5-0.4-0.8-0.7-1.2c-0.8-1.2-1.7-2.5-2.4-3.7c0,0,0.2,0.2,0.1,0.3c-0.4-0.7-0.8-1.4-1.2-2c-0.1-0.1-0.1-0.3-0.2-0.4
			c-0.1-0.2-0.1-0.1-0.2-0.3l0,0c-0.2-0.2-0.2-0.4-0.3-0.6c0,0-0.1-0.1-0.1-0.2c0,0-0.2-0.2-0.1-0.2l0,0l-0.1-0.1
			c-0.1-0.1-0.7-0.8-0.8-0.9l0,0c-0.1-0.1-0.1-0.2-0.1-0.1L23.8,10l0,0l-0.1-0.2c0,0,0-0.1,0,0c-0.1-0.1-0.1-0.2-0.2-0.3
			c0.1,0.3,0.3,0.6,0.4,0.8c-0.1-0.1-0.2-0.3-0.3-0.4c-0.1-0.1-0.2-0.4-0.3-0.7c0,0-0.1,0-0.1-0.2c0-0.1-0.1-0.1-0.1-0.2
			c0.1,0.1,0.1,0.2,0.2,0.3c0,0-0.1-0.3-0.2-0.4c0,0-0.2-0.2-0.2-0.4c0.1,0,0-0.1-0.1-0.2S22.7,8,22.7,8c-0.1,0,0.2,0.3,0.1,0.3
			c0,0-0.1-0.2-0.2-0.3c0,0,0,0.1,0,0c-0.1-0.1-0.2-0.2-0.2-0.3c0,0,0,0.1,0.1,0.1c-0.1-0.1,0.6,0.6,0.5,0.4c0,0.1-0.6-0.6-0.5-0.6
			c0,0.1-0.1,0,0,0.1l0.1,0.1c0.1,0.1,0.1,0.2,0,0.2c-0.1-0.2,0.5,0.4,0.4,0.3v0.1c-0.1-0.1-0.2-0.2-0.2-0.3L22.7,8l0,0
			c-0.1-0.1-0.1-0.2-0.1-0.1c0.3,0.4-0.4-0.2-0.1,0.3c-0.1-0.2,0.1,0,0.2,0.2c0,0,0,0.1,0.1,0.3c0.1,0.1,0.1,0.1,0.1,0.1
			C22.9,8.9,23,9,23,9c0.1,0.1,0.1,0.2,0.2,0.3c0.1,0.1,0,0,0.1,0c0.1,0.1,0.2,0.4,0.3,0.5c0,0.1,0.1,0.2,0,0.1
			c-0.1-0.2,0.1,0,0-0.2c0,0.1-0.1-0.2-0.2-0.2c0,0.1,0.1,0.2,0.2,0.4l0,0c0.1,0.1,0.2,0.3,0.3,0.5c0,0,0,0-0.1,0l0.1,0.2l0,0
			c0.1,0.1,0.1,0.1,0.1,0.2c0,0,0.6,0.8,0.6,0.7c0.1,0.1,0.1,0.2,0.2,0.3c0,0-0.8-1-0.7-0.9c0,0.1,0.9,1.2,0.9,1.3
			c0.1,0.1,0.1,0.2,0.1,0.1c0.1,0.1-0.1,0,0,0.1l0,0v0.1c0.2,0.2,0.3,0.5,0.5,0.7c-0.1-0.1-0.1-0.1-0.3-0.2l0,0l-0.1-0.1
			c0.1,0.1,0.2,0.3,0.3,0.4v0.1l0,0c0,0.1,0,0.1,0,0l0,0c0,0.1,0.4,0.5,0.5,0.8c0.1,0.1,0,0,0.1,0.1c0.1,0.3,0.2,0.5,0.4,0.7
			c0.1,0.1,0.1,0.1,0.1,0l0.1,0.2c-0.2-0.1,0.2,0.4,0,0.3c0,0.1,0.1,0.2,0.2,0.3c0,0,0.1,0,0.2,0.1c0.1,0.2,0.1,0.2,0.2,0.3
			c0,0.1,0,0-0.1,0c0.2,0.2,0.1,0.3,0.3,0.5c0.1,0.1,0.3,0.4,0.3,0.4C27.5,17.3,27.5,17.3,27.5,17.3"/>
	</g>
</g>
</svg>
