<?xml version="1.0" encoding="utf-8"?>
<!-- Generator: Adobe Illustrator 15.0.0, SVG Export Plug-In . SVG Version: 6.00 Build 0)  -->
<!DOCTYPE svg PUBLIC "-//W3C//DTD SVG 1.1//EN" "http://www.w3.org/Graphics/SVG/1.1/DTD/svg11.dtd">
<svg version="1.1" id="Layer_1" xmlns="http://www.w3.org/2000/svg" xmlns:xlink="http://www.w3.org/1999/xlink" x="0px" y="0px"
	 width="45px" height="44px" viewBox="0 0 45 44" enable-background="new 0 0 45 44" xml:space="preserve">
<linearGradient id="SVGID_1_" gradientUnits="userSpaceOnUse" x1="22.5005" y1="44.4165" x2="22.5005" y2="-0.5083">
	<stop  offset="0" style="stop-color:#FFFFFF"/>
	<stop  offset="1" style="stop-color:#FFFFFF;stop-opacity:0"/>
</linearGradient>
<path fill="url(#SVGID_1_)" d="M22.5,44.083C10.323,44.083,0.417,34.176,0.417,22S10.323-0.083,22.5-0.083S44.583,9.823,44.583,22
	S34.677,44.083,22.5,44.083z"/>
<path fill="#A0222B" d="M22.5,43.083C10.875,43.083,1.417,33.625,1.417,22c0-11.625,9.458-21.083,21.083-21.083
	S43.583,10.375,43.583,22C43.583,33.625,34.125,43.083,22.5,43.083z"/>
<linearGradient id="SVGID_2_" gradientUnits="userSpaceOnUse" x1="22.4995" y1="-0.0132" x2="22.4995" y2="47.0954">
	<stop  offset="0" style="stop-color:#FF0000"/>
	<stop  offset="1" style="stop-color:#C1272D"/>
</linearGradient>
<path fill="url(#SVGID_2_)" d="M22.5,41.083C11.978,41.083,3.417,32.522,3.417,22S11.978,2.917,22.5,2.917S41.583,11.477,41.583,22
	S33.022,41.083,22.5,41.083z"/>
<polygon fill="#A0222B" points="33.396,16.426 27.74,10.77 22.083,16.427 16.426,10.77 10.77,16.426 16.427,22.083 10.77,27.741 
	16.426,33.397 22.083,27.74 27.74,33.397 33.396,27.741 27.739,22.083 "/>
<polygon fill="#FFFFFF" points="22.083,26.326 16.426,31.983 12.184,27.741 17.841,22.083 12.184,16.426 16.426,12.184 
	22.083,17.841 27.74,12.184 31.982,16.426 26.325,22.083 31.982,27.741 27.74,31.983 "/>
</svg>
