<svg xmlns="http://www.w3.org/2000/svg" width="45" height="44" viewBox="0 0 45 44"><linearGradient id="a" gradientUnits="userSpaceOnUse" x1="22.5" y1="44.416" x2="22.5" y2="-.508"><stop offset="0" stop-color="#fff"/><stop offset="1" stop-color="#fff" stop-opacity="0"/></linearGradient><path fill="url(#a)" d="M22.5 44.083C10.323 44.083.417 34.176.417 22S10.323-.083 22.5-.083 44.583 9.823 44.583 22 34.677 44.083 22.5 44.083z"/><path fill="#A0222B" d="M22.5 43.083C10.875 43.083 1.417 33.625 1.417 22 1.417 10.375 10.875.917 22.5.917S43.583 10.375 43.583 22c0 11.625-9.458 21.083-21.083 21.083z"/><linearGradient id="b" gradientUnits="userSpaceOnUse" x1="22.5" y1="-.013" x2="22.5" y2="47.095"><stop offset="0" stop-color="red"/><stop offset="1" stop-color="#c1272d"/></linearGradient><path fill="url(#b)" d="M22.5 41.083C11.978 41.083 3.417 32.522 3.417 22S11.978 2.917 22.5 2.917 41.583 11.477 41.583 22 33.022 41.083 22.5 41.083z"/><path fill="#A0222B" d="M33.396 16.426L27.74 10.77l-5.657 5.657-5.657-5.657-5.656 5.656 5.657 5.657-5.657 5.658 5.656 5.656 5.657-5.657 5.657 5.657 5.656-5.656-5.657-5.658z"/><path fill="#FFF" d="M22.083 26.326l-5.657 5.657-4.242-4.242 5.657-5.658-5.657-5.657 4.242-4.242 5.657 5.657 5.657-5.657 4.242 4.242-5.657 5.657 5.657 5.658-4.242 4.242z"/></svg>