<?xml version="1.0" encoding="utf-8"?>
<!-- Generator: Adobe Illustrator 15.0.0, SVG Export Plug-In . SVG Version: 6.00 Build 0)  -->
<!DOCTYPE svg PUBLIC "-//W3C//DTD SVG 1.1//EN" "http://www.w3.org/Graphics/SVG/1.1/DTD/svg11.dtd">
<svg version="1.1" id="Layer_1" xmlns="http://www.w3.org/2000/svg" xmlns:xlink="http://www.w3.org/1999/xlink" x="0px" y="0px"
	 width="52px" height="40px" viewBox="0 0 52 40" enable-background="new 0 0 52 40" xml:space="preserve">
<g id="Layer_2">
	<g>
		<path fill="#DFDCD7" d="M8,39c-3.3,0-6-2.7-6-6V12c0-3.3,2.7-6,6-6h36c3.3,0,6,2.7,6,6v21c0,3.3-2.7,6-6,6H8z"/>
		<path fill="#DFDCD7" d="M8,38c-2.757,0-5-2.243-5-5V12c0-2.757,2.243-5,5-5h36c2.757,0,5,2.243,5,5v21c0,2.757-2.243,5-5,5H8z"/>
		<path fill="#BCBBBB" d="M44,7H8c-2.75,0-5,2.25-5,5v1c0-2.75,2.25-5,5-5h36c2.75,0,5,2.25,5,5v-1C49,9.25,46.75,7,44,7z"/>
	</g>
</g>
<g>
	<polygon fill="#999999" points="37.5,14.5 17.5,14.5 11.417,22.938 17.5,31.5 37.5,31.5 	"/>
	<g>
		<path fill="#FFFFFF" d="M25.117,23.011l-2.818-4.006h3.094l1.294,2.327l1.271-2.327h2.928l-2.748,4.03l3.06,4.533H28.02
			l-1.463-2.555l-1.512,2.555h-3.022L25.117,23.011z"/>
	</g>
</g>
</svg>
