<svg xmlns="http://www.w3.org/2000/svg" width="52" height="40" viewBox="0 0 52 40"><path fill="#DFDCD7" d="M8 39c-3.3 0-6-2.7-6-6V7c0-3.3 2.7-6 6-6h36c3.3 0 6 2.7 6 6v26c0 3.3-2.7 6-6 6H8z"/><path fill="#FFF" d="M44 2H8C5.25 2 3 4.25 3 7v1c0-2.75 2.25-5 5-5h36c2.75 0 5 2.25 5 5V7c0-2.75-2.25-5-5-5z"/><linearGradient id="a" gradientUnits="userSpaceOnUse" x1="26" y1="-564" x2="26" y2="-531.771" gradientTransform="matrix(1 0 0 -1 0 -530)"><stop offset="0" stop-color="#f3f0eb"/><stop offset="1" stop-color="#faf7f2"/></linearGradient><path fill="url(#a)" d="M44 3H8C5.25 3 3 5.25 3 8v21c0 2.75 2.25 5 5 5h36c2.75 0 5-2.25 5-5V8c0-2.75-2.25-5-5-5z"/><linearGradient id="b" gradientUnits="userSpaceOnUse" x1="26" y1="-564.999" x2="26" y2="-532.77" gradientTransform="matrix(1 0 0 -1 0 -530)"><stop offset="0" stop-color="#f3f0eb"/><stop offset="1" stop-color="#faf7f2"/></linearGradient><path fill="url(#b)" d="M44 3H8C5.25 3 3 5.25 3 8v21c0 2.75 2.25 5 5 5h36c2.75 0 5-2.25 5-5V8c0-2.75-2.25-5-5-5z"/><path fill="#FFF" d="M8 34h36c2.75 0 5-2.25 5-5v-1c0 2.75-2.25 5-5 5H8c-2.75 0-5-2.25-5-5v1c0 2.75 2.25 5 5 5z"/><g><path fill="#999" d="M37.5 8.5h-20l-6.083 8.438L17.5 25.5h20z"/><path fill="#FFF" d="M25.117 17.011l-2.818-4.006h3.094l1.294 2.327 1.271-2.327h2.928l-2.748 4.03 3.06 4.533H28.02l-1.463-2.555-1.512 2.555h-3.022l3.094-4.557z"/></g></svg>