<?xml version="1.0" encoding="utf-8"?>
<!-- Generator: Adobe Illustrator 18.1.1, SVG Export Plug-In . SVG Version: 6.00 Build 0)  -->
<!DOCTYPE svg PUBLIC "-//W3C//DTD SVG 1.1//EN" "http://www.w3.org/Graphics/SVG/1.1/DTD/svg11.dtd">
<svg version="1.1" id="Layer_1" xmlns="http://www.w3.org/2000/svg" xmlns:xlink="http://www.w3.org/1999/xlink" x="0px" y="0px"
	 width="85px" height="68.9px" viewBox="0 0 85 68.9" enable-background="new 0 0 85 68.9" xml:space="preserve">
<g>
	<g opacity="0.5">
		<path fill="#999999" d="M69.4,61H15.6c-4.3,0-7.7-3.4-7.7-7.7V20.6c0-4.3,3.4-7.7,7.7-7.7h53.9c4.3,0,7.7,3.4,7.7,7.7v32.8
			C77.1,57.6,73.7,61,69.4,61z"/>
		<path fill="#999999" d="M71.1,68.9H13.9C6.3,68.9,0,62.6,0,55v-36C0,11.2,6.3,5,13.9,5h57.1C78.7,5,85,11.2,85,18.9v36
			C85,62.6,78.7,68.9,71.1,68.9z M15.7,53.1h53.5V20.7H15.7V53.1z"/>
	</g>
	<g>
		<g>
			<path fill="#FFFFFF" d="M69.4,56H15.6c-4.3,0-7.7-3.4-7.7-7.7V15.6c0-4.3,3.4-7.7,7.7-7.7h53.9c4.3,0,7.7,3.4,7.7,7.7v32.8
				C77.1,52.6,73.7,56,69.4,56z"/>
			<path fill="#FFFFFF" d="M71.1,63.9H13.9C6.3,63.9,0,57.7,0,50v-36C0,6.3,6.3,0,13.9,0h57.1C78.7,0,85,6.3,85,13.9v36
				C85,57.7,78.7,63.9,71.1,63.9z M15.7,48.2h53.5V15.7H15.7V48.2z"/>
		</g>
		<g>
			<path fill="#28A5DA" d="M27.9,32.6l-20,19.3c-0.2-0.5-0.1-1.1-0.1-1.7V13.6c0-0.4-0.1-0.9,0-1.3L27.9,32.6z"/>
			<path fill="#28A5DA" d="M73.4,8.5l-21.1,21c-5.5,5.5-14.4,5.5-19.9,0l-21.1-21c0.5-0.2,1.1-0.2,1.7-0.2h58.7
				C72.3,8.4,72.8,8.3,73.4,8.5z"/>
			<path fill="#28A5DA" d="M52.6,36l20.3,19.3c-0.4,0.1-0.8,0-1.2,0H13c-0.4,0-0.9,0.1-1.3,0L32,35.9c3.1,2,6.7,3,10.3,3
				C45.9,38.9,49.5,38,52.6,36z"/>
			<path fill="#28A5DA" d="M75.7,13.6v36.6c0,0.6,0.6,1.2,0.4,1.7L56.4,32.6l19.7-20.3C76.2,12.7,75.7,13.2,75.7,13.6z"/>
		</g>
		<g>
			<path fill="#FFFFFF" d="M56.7,32.6l20.1,19.3c-0.6,1.8-2.1,3.2-4,3.6L52.6,36c-3.1,1.9-6.7,2.9-10.3,2.9c-3.6,0-7.2-1-10.3-2.9
				L11.7,55.5c-1.9-0.4-3.4-1.8-3.9-3.6l20.1-19.3L7.6,12.3c0.4-1.9,1.8-3.3,3.6-3.9l21.1,21.1c5.5,5.5,14.4,5.5,19.9,0L73.4,8.4
				c1.8,0.6,3.2,2.1,3.6,3.9L56.7,32.6z"/>
		</g>
	</g>
</g>
</svg>
