<svg xmlns="http://www.w3.org/2000/svg" width="85" height="68.9" viewBox="0 0 85 68.9"><g opacity=".5" fill="#999"><path d="M69.4 61H15.6c-4.3 0-7.7-3.4-7.7-7.7V20.6c0-4.3 3.4-7.7 7.7-7.7h53.9c4.3 0 7.7 3.4 7.7 7.7v32.8c-.1 4.2-3.5 7.6-7.8 7.6z"/><path d="M71.1 68.9H13.9C6.3 68.9 0 62.6 0 55V19C0 11.2 6.3 5 13.9 5H71c7.7 0 14 6.2 14 13.9v36c0 7.7-6.3 14-13.9 14zM15.7 53.1h53.5V20.7H15.7v32.4z"/></g><g fill="#FFF"><path d="M69.4 56H15.6c-4.3 0-7.7-3.4-7.7-7.7V15.6c0-4.3 3.4-7.7 7.7-7.7h53.9c4.3 0 7.7 3.4 7.7 7.7v32.8c-.1 4.2-3.5 7.6-7.8 7.6z"/><path d="M71.1 63.9H13.9C6.3 63.9 0 57.7 0 50V14C0 6.3 6.3 0 13.9 0H71c7.7 0 14 6.3 14 13.9v36c0 7.8-6.3 14-13.9 14zM15.7 48.2h53.5V15.7H15.7v32.5z"/></g><g fill="#28A5DA"><path d="M27.9 32.6l-20 19.3c-.2-.5-.1-1.1-.1-1.7V13.6c0-.4-.1-.9 0-1.3l20.1 20.3zM73.4 8.5l-21.1 21c-5.5 5.5-14.4 5.5-19.9 0l-21.1-21c.5-.2 1.1-.2 1.7-.2h58.7c.6.1 1.1 0 1.7.2zM52.6 36l20.3 19.3c-.4.1-.8 0-1.2 0H13c-.4 0-.9.1-1.3 0L32 35.9c3.1 2 6.7 3 10.3 3 3.6 0 7.2-.9 10.3-2.9zM75.7 13.6v36.6c0 .6.6 1.2.4 1.7L56.4 32.6l19.7-20.3c.1.4-.4.9-.4 1.3z"/></g><path fill="#FFF" d="M56.7 32.6l20.1 19.3c-.6 1.8-2.1 3.2-4 3.6L52.6 36c-3.1 1.9-6.7 2.9-10.3 2.9-3.6 0-7.2-1-10.3-2.9L11.7 55.5c-1.9-.4-3.4-1.8-3.9-3.6l20.1-19.3L7.6 12.3C8 10.4 9.4 9 11.2 8.4l21.1 21.1c5.5 5.5 14.4 5.5 19.9 0L73.4 8.4c1.8.6 3.2 2.1 3.6 3.9L56.7 32.6z"/></svg>