<?xml version="1.0" encoding="utf-8"?>
<!-- Generator: Adobe Illustrator 15.0.0, SVG Export Plug-In . SVG Version: 6.00 Build 0)  -->
<!DOCTYPE svg PUBLIC "-//W3C//DTD SVG 1.1//EN" "http://www.w3.org/Graphics/SVG/1.1/DTD/svg11.dtd">
<svg version="1.1" id="Layer_1" xmlns="http://www.w3.org/2000/svg" xmlns:xlink="http://www.w3.org/1999/xlink" x="0px" y="0px"
	 width="230px" height="63px" viewBox="-0.5 0 230 63" enable-background="new -0.5 0 230 63" xml:space="preserve">

<g>
	<path opacity="0.3" fill="#333333" d="M185.683,58c-1.792,0-3.646-1.183-3.646-3.16V38.357h-1.192
		c-0.975,0-1.844-0.419-2.384-1.149c-0.543-0.736-0.688-1.697-0.399-2.638l3.771-12.277c0.441-1.435,1.829-2.552,3.347-2.759V17.31
		c0-2.287,1.578-3.31,3.143-3.31h6.286c1.564,0,3.143,1.023,3.143,3.31v2.19h17.568c1.701,0,3.355,1.211,3.85,2.816l3.771,12.227
		c0.292,0.947,0.145,1.916-0.404,2.66c-0.542,0.733-1.408,1.154-2.378,1.154h-1.192V54.84c0,1.978-1.854,3.16-3.646,3.16H185.683z"
		/>
	<g>
		<path fill="#966020" d="M185.707,17.97"/>
		<path fill="#FFFFFF" d="M182.683,55c-1.792,0-3.646-1.183-3.646-3.16V35.357h-1.192c-0.975,0-1.844-0.42-2.384-1.15
			c-0.543-0.735-0.688-1.696-0.399-2.637l3.771-12.277c0.441-1.435,1.829-2.552,3.347-2.759V14.31c0-2.287,1.578-3.31,3.143-3.31
			h6.286c1.564,0,3.143,1.023,3.143,3.31v2.19h17.568c1.701,0,3.355,1.211,3.85,2.816l3.771,12.227
			c0.291,0.947,0.144,1.916-0.405,2.66c-0.542,0.733-1.408,1.154-2.378,1.154h-1.191V51.84c0,1.978-1.854,3.16-3.646,3.16H182.683z"
			/>
		<path fill="#966020" d="M218.438,32.006l-3.772-12.228c-0.293-0.954-1.35-1.707-2.347-1.707h-17.54h-1.6V14.31
			c0-1.569-1.099-1.739-1.571-1.739h-6.286c-0.473,0-1.571,0.17-1.571,1.739v3.761h-1.067c-0.998,0-2.055,0.73-2.348,1.684
			l-3.772,12.276c-0.293,0.954,0.283,1.754,1.281,1.754h2.764c0,0,0,0.727,0,1.725v16.33c0,0.997,1.077,1.589,2.075,1.589h29.636
			c0.997,0,2.074-0.592,2.074-1.589V35.51c0-0.998,0-1.725,0-1.725h2.764C218.154,33.785,218.731,32.96,218.438,32.006z"/>
		<path fill="#F9A737" d="M192.393,14.31c0-0.315,0-0.953-0.785-0.953h-6.286c-0.785,0-0.785,0.638-0.785,0.953v9.739
			c0,0.316,0,0.308,0,0.308h7.856c0,0,0,0.009,0-0.308V14.31z"/>
		<path fill="#F9A737" d="M182.683,52.643c-0.61,0-1.29-0.33-1.29-0.803V33h-3.549c-0.222,0-0.396-0.068-0.487-0.193
			c-0.096-0.129-0.11-0.322-0.042-0.544l3.771-12.277c0.188-0.611,0.919-1.129,1.597-1.129h29.636c0.662,0,1.408,0.538,1.596,1.151
			l3.772,12.23c0.07,0.227,0.053,0.428-0.049,0.564C217.543,32.93,217.372,33,217.156,33h-3.549v18.84
			c0,0.473-0.68,0.803-1.289,0.803H182.683z"/>
		<path fill="#966020" d="M202.641,43.675c0-2.835-2.307-5.141-5.141-5.141s-5.141,2.306-5.141,5.141
			c0,0.193,0.013,0.384,0.033,0.571v9.183h10.215v-9.183C202.628,44.059,202.641,43.868,202.641,43.675z"/>
		<path fill="#FFFFFF" d="M193.179,52.643v-8.439l-0.005-0.043c-0.018-0.16-0.029-0.321-0.029-0.485
			c0-2.401,1.954-4.355,4.355-4.355s4.355,1.954,4.355,4.355c0,0.164-0.012,0.325-0.029,0.485l-0.005,0.086v8.396H193.179z"/>
	</g>
</g>
</svg>
