<svg xmlns="http://www.w3.org/2000/svg" width="236" height="63" viewBox="0.17 0 236 63"><path fill="#966020" d="M185.255 11h30v1h-30z"/><path opacity=".3" fill="#333" d="M184.896 61c-2.281 0-4.642-1.505-4.642-4.022V36h-1.517c-1.241 0-2.347-.533-3.034-1.463-.691-.937-.876-2.16-.509-3.357l4.801-15.625c.562-1.826 2.327-3.247 4.259-3.511V9.213c0-2.91 2.009-4.213 4-4.213h8c1.991 0 4 1.303 4 4.213V12h22.359c2.165 0 4.271 1.541 4.899 3.584l4.8 15.562c.371 1.204.184 2.438-.516 3.385-.689.934-1.792 1.469-3.026 1.469h-1.517v20.978c0 2.518-2.359 4.022-4.641 4.022h-37.716z"/><path fill="#FFF" d="M181.896 58c-2.281 0-4.642-1.505-4.642-4.022V33h-1.517c-1.241 0-2.347-.533-3.034-1.463-.691-.937-.876-2.16-.509-3.357l4.801-15.625c.562-1.826 2.327-3.247 4.259-3.511V6.213c0-2.91 2.009-4.213 4-4.213h8c1.991 0 4 1.303 4 4.213V9h22.359c2.165 0 4.271 1.541 4.899 3.584l4.8 15.562c.371 1.204.184 2.438-.516 3.385-.689.934-1.792 1.469-3.026 1.469h-1.517v20.978c0 2.518-2.359 4.022-4.641 4.022h-37.716z"/><path fill="#966020" d="M227.402 28.735l-4.801-15.563c-.373-1.214-1.718-2.172-2.987-2.172h-24.359V6.213c0-1.997-1.398-2.213-2-2.213h-8c-.602 0-2 .216-2 2.213V11h-1.358c-1.271 0-2.615.929-2.988 2.143l-4.801 15.625c-.373 1.214.36 2.232 1.631 2.232h3.517v22.977c0 1.27 1.371 2.022 2.642 2.022h37.718c1.27 0 2.641-.753 2.641-2.022V33.194 31h3.517c1.268 0 2.002-1.051 1.628-2.265z"/><path fill="#F9A737" d="M194.255 6.213c0-.401 0-1.213-1-1.213h-8c-1 0-1 .812-1 1.213v12.788h10V6.213z"/><path fill="#F9A737" d="M181.896 55c-.776 0-1.642-.42-1.642-1.022V30h-4.517c-.283 0-.504-.088-.621-.246-.121-.164-.141-.41-.054-.692l4.801-15.625c.239-.778 1.17-1.437 2.032-1.437h37.718c.843 0 1.792.685 2.031 1.465l4.801 15.565c.09.288.067.544-.062.719-.12.161-.338.251-.613.251h-4.517v23.978c0 .603-.864 1.022-1.641 1.022h-37.716z"/><path fill="#966020" d="M207.298 43.586c0-3.608-2.936-6.543-6.543-6.543s-6.543 2.935-6.543 6.543c0 .246.017.488.043.728V56h13V44.313a6.71 6.71 0 0 0 .043-.727z"/><path fill="#FFF" d="M195.255 55V44.259l-.006-.055a5.744 5.744 0 0 1-.037-.618c0-3.057 2.486-5.543 5.543-5.543s5.543 2.486 5.543 5.543c0 .209-.015.414-.037.618l-.006.109V55h-11z"/></svg>