<svg xmlns="http://www.w3.org/2000/svg" width="230" height="63" viewBox="0 0 230 63"><path fill="#FFF" d="M185.183 58c-1.792 0-3.647-1.183-3.647-3.16V38.357h-1.191c-.975 0-1.844-.419-2.384-1.149-.543-.736-.688-1.697-.399-2.638l3.771-12.277c.441-1.435 1.829-2.552 3.347-2.759V17.31c0-2.287 1.578-3.31 3.143-3.31h6.286c1.564 0 3.143 1.023 3.143 3.31v2.19h17.568c1.701 0 3.355 1.211 3.85 2.816l3.771 12.227c.292.947.145 1.916-.404 2.66-.542.733-1.408 1.154-2.378 1.154h-1.192V54.84c0 1.978-1.854 3.16-3.646 3.16h-29.638z"/><path fill="#966020" d="M220.938 35.006l-3.772-12.228c-.293-.954-1.35-1.707-2.347-1.707h-19.14V17.31c0-1.569-1.099-1.739-1.571-1.739h-6.286c-.473 0-1.571.17-1.571 1.739v3.761h-1.067c-.998 0-2.055.73-2.348 1.684l-3.772 12.276c-.293.954.283 1.755 1.281 1.755h2.764V54.84c0 .997 1.077 1.589 2.075 1.589h29.636c.997 0 2.074-.592 2.074-1.589V38.51v-1.724h2.764c.996 0 1.573-.826 1.28-1.78z"/><path fill="#F9A737" d="M194.893 17.31c0-.315 0-.953-.785-.953h-6.286c-.786 0-.786.638-.786.953v10.047h7.857V17.31z"/><path fill="#F9A737" d="M185.183 55.643c-.61 0-1.29-.33-1.29-.803V36h-3.549c-.223 0-.396-.068-.488-.193-.094-.129-.109-.322-.041-.544l3.771-12.277c.188-.611.92-1.129 1.597-1.129h29.636c.662 0 1.408.538 1.596 1.151l3.772 12.23c.07.227.053.428-.049.564-.095.128-.266.198-.482.198h-3.549v18.84c0 .473-.68.803-1.289.803h-29.635z"/><path fill="#966020" d="M205.141 46.675c0-2.835-2.307-5.141-5.141-5.141a5.147 5.147 0 0 0-5.108 5.712v9.183h10.215v-9.183a5.12 5.12 0 0 0 .034-.571z"/><path fill="#FFF" d="M195.679 55.643v-8.439l-.005-.043a4.325 4.325 0 0 1-.029-.485c0-2.401 1.954-4.355 4.355-4.355s4.355 1.954 4.355 4.355c0 .164-.012.325-.029.485l-.005.086v8.396h-8.642z"/></svg>