<?xml version="1.0" encoding="utf-8"?>
<!-- Generator: Adobe Illustrator 15.0.0, SVG Export Plug-In . SVG Version: 6.00 Build 0)  -->
<!DOCTYPE svg PUBLIC "-//W3C//DTD SVG 1.1//EN" "http://www.w3.org/Graphics/SVG/1.1/DTD/svg11.dtd">
<svg version="1.1" id="Layer_1" xmlns="http://www.w3.org/2000/svg" xmlns:xlink="http://www.w3.org/1999/xlink" x="0px" y="0px"
	 width="236px" height="63px" viewBox="0.17 0 236 63" enable-background="new 0.17 0 236 63" xml:space="preserve">

<g>
	<rect x="185.255" y="11" fill="#966020" width="30" height="1"/>
	<g>
		<path opacity="0.3" fill="#333333" d="M184.896,61c-2.281,0-4.642-1.505-4.642-4.022V36h-1.517c-1.241,0-2.347-0.533-3.034-1.463
			c-0.691-0.937-0.876-2.16-0.509-3.357l4.801-15.625c0.562-1.826,2.327-3.247,4.259-3.511V9.213c0-2.91,2.009-4.213,4-4.213h8
			c1.991,0,4,1.303,4,4.213V12h22.359c2.165,0,4.271,1.541,4.899,3.584l4.8,15.562c0.371,1.204,0.184,2.438-0.516,3.385
			c-0.689,0.934-1.792,1.469-3.026,1.469h-1.517v20.978c0,2.518-2.359,4.022-4.641,4.022H184.896z"/>
		<g>
			<path fill="#966020" d="M185.745,10.871"/>
			<path fill="#FFFFFF" d="M181.896,58c-2.281,0-4.642-1.505-4.642-4.022V33h-1.517c-1.241,0-2.347-0.533-3.034-1.463
				c-0.691-0.937-0.876-2.16-0.509-3.357l4.801-15.625c0.562-1.826,2.327-3.247,4.259-3.511V6.213c0-2.91,2.009-4.213,4-4.213h8
				c1.991,0,4,1.303,4,4.213V9h22.359c2.165,0,4.271,1.541,4.899,3.584l4.8,15.562c0.371,1.204,0.184,2.438-0.516,3.385
				c-0.689,0.934-1.792,1.469-3.026,1.469h-1.517v20.978c0,2.518-2.359,4.022-4.641,4.022H181.896z"/>
			<path fill="#966020" d="M227.402,28.735l-4.801-15.563c-0.373-1.214-1.718-2.172-2.987-2.172h-22.323h-2.036V6.213
				c0-1.997-1.398-2.213-2-2.213h-8c-0.602,0-2,0.216-2,2.213V11h-1.358c-1.271,0-2.615,0.929-2.988,2.143l-4.801,15.625
				c-0.373,1.214,0.36,2.232,1.631,2.232h3.517c0,0,0,0.924,0,2.194v20.783c0,1.27,1.371,2.022,2.642,2.022h37.718
				c1.27,0,2.641-0.753,2.641-2.022V33.194c0-1.271,0-2.194,0-2.194h3.517C227.042,31,227.776,29.949,227.402,28.735z"/>
			<path fill="#F9A737" d="M194.255,6.213c0-0.401,0-1.213-1-1.213h-8c-1,0-1,0.812-1,1.213v12.396c0,0.402,0,0.392,0,0.392h10
				c0,0,0,0.011,0-0.392V6.213z"/>
			<path fill="#F9A737" d="M181.896,55c-0.776,0-1.642-0.42-1.642-1.022V30h-4.517c-0.283,0-0.504-0.088-0.621-0.246
				c-0.121-0.164-0.141-0.41-0.054-0.692l4.801-15.625c0.239-0.778,1.17-1.437,2.032-1.437h37.718c0.843,0,1.792,0.685,2.031,1.465
				l4.801,15.565c0.09,0.288,0.067,0.544-0.062,0.719c-0.12,0.161-0.338,0.251-0.613,0.251h-4.517v23.978
				c0,0.603-0.864,1.022-1.641,1.022H181.896z"/>
			<path fill="#966020" d="M207.298,43.586c0-3.608-2.936-6.543-6.543-6.543s-6.543,2.935-6.543,6.543
				c0,0.246,0.017,0.488,0.043,0.728V56h13V44.313C207.281,44.074,207.298,43.832,207.298,43.586z"/>
			<path fill="#FFFFFF" d="M195.255,55V44.259l-0.006-0.055c-0.022-0.204-0.037-0.409-0.037-0.618c0-3.057,2.486-5.543,5.543-5.543
				s5.543,2.486,5.543,5.543c0,0.209-0.015,0.414-0.037,0.618l-0.006,0.109V55H195.255z"/>
		</g>
	</g>
</g>
</svg>
