<?xml version="1.0" encoding="utf-8"?>
<!-- Generator: Adobe Illustrator 15.0.0, SVG Export Plug-In . SVG Version: 6.00 Build 0)  -->
<!DOCTYPE svg PUBLIC "-//W3C//DTD SVG 1.1//EN" "http://www.w3.org/Graphics/SVG/1.1/DTD/svg11.dtd">
<svg version="1.1" id="Layer_2" xmlns="http://www.w3.org/2000/svg" xmlns:xlink="http://www.w3.org/1999/xlink" x="0px" y="0px"
	 width="230px" height="63px" viewBox="0 0 230 63" enable-background="new 0 0 230 63" xml:space="preserve">
<g>
	<path fill="#966020" d="M188.207,20.97"/>
	<path fill="#FFFFFF" d="M185.183,58c-1.792,0-3.647-1.183-3.647-3.16V38.357h-1.191c-0.975,0-1.844-0.419-2.384-1.149
		c-0.543-0.736-0.688-1.697-0.399-2.638l3.771-12.277c0.441-1.435,1.829-2.552,3.347-2.759V17.31c0-2.287,1.578-3.31,3.143-3.31
		h6.286c1.564,0,3.143,1.023,3.143,3.31v2.19h17.568c1.701,0,3.355,1.211,3.85,2.816l3.771,12.227
		c0.292,0.947,0.145,1.916-0.404,2.66c-0.542,0.733-1.408,1.154-2.378,1.154h-1.192V54.84c0,1.978-1.854,3.16-3.646,3.16H185.183z"
		/>
	<path fill="#966020" d="M220.938,35.006l-3.772-12.228c-0.293-0.954-1.35-1.707-2.347-1.707h-17.54h-1.6V17.31
		c0-1.569-1.099-1.739-1.571-1.739h-6.286c-0.473,0-1.571,0.17-1.571,1.739v3.761h-1.067c-0.998,0-2.055,0.73-2.348,1.684
		l-3.772,12.276c-0.293,0.954,0.283,1.755,1.281,1.755h2.764c0,0,0,0.726,0,1.724v16.33c0,0.997,1.077,1.589,2.075,1.589h29.636
		c0.997,0,2.074-0.592,2.074-1.589V38.51c0-0.998,0-1.724,0-1.724h2.764C220.654,36.786,221.231,35.96,220.938,35.006z"/>
	<path fill="#F9A737" d="M194.893,17.31c0-0.315,0-0.953-0.785-0.953h-6.286c-0.786,0-0.786,0.638-0.786,0.953v9.739
		c0,0.316,0,0.308,0,0.308h7.857c0,0,0,0.009,0-0.308V17.31z"/>
	<path fill="#F9A737" d="M185.183,55.643c-0.61,0-1.29-0.33-1.29-0.803V36h-3.549c-0.223,0-0.396-0.068-0.488-0.193
		c-0.094-0.129-0.109-0.322-0.041-0.544l3.771-12.277c0.188-0.611,0.92-1.129,1.597-1.129h29.636c0.662,0,1.408,0.538,1.596,1.151
		l3.772,12.23c0.07,0.227,0.053,0.428-0.049,0.564C220.043,35.93,219.872,36,219.656,36h-3.549v18.84
		c0,0.473-0.68,0.803-1.289,0.803H185.183z"/>
	<path fill="#966020" d="M205.141,46.675c0-2.835-2.307-5.141-5.141-5.141s-5.141,2.306-5.141,5.141
		c0,0.193,0.013,0.384,0.033,0.571v9.183h10.215v-9.183C205.128,47.059,205.141,46.868,205.141,46.675z"/>
	<path fill="#FFFFFF" d="M195.679,55.643v-8.439l-0.005-0.043c-0.018-0.16-0.029-0.321-0.029-0.485c0-2.401,1.954-4.355,4.355-4.355
		s4.355,1.954,4.355,4.355c0,0.164-0.012,0.325-0.029,0.485l-0.005,0.086v8.396H195.679z"/>
</g>
</svg>
