<?xml version="1.0" encoding="utf-8"?>
<!-- Generator: Adobe Illustrator 15.0.0, SVG Export Plug-In . SVG Version: 6.00 Build 0)  -->
<!DOCTYPE svg PUBLIC "-//W3C//DTD SVG 1.1//EN" "http://www.w3.org/Graphics/SVG/1.1/DTD/svg11.dtd">
<svg version="1.1" id="Layer_1" xmlns="http://www.w3.org/2000/svg" xmlns:xlink="http://www.w3.org/1999/xlink" x="0px" y="0px"
	 width="64px" height="64px" viewBox="0 0 64 64" enable-background="new 0 0 64 64" xml:space="preserve">
<g id="Buttons_x5F_Pressed">
	<g>
		<g>
			<path fill="#BCC0C4" d="M49.283,43.29c0.01-0.086,0.016-0.233,0.018-0.513l-0.023,0.453L49.283,43.29z"/>
			<path fill="#BCC0C4" d="M49.471,45.77c-0.068,0.525-0.033-1.18-0.098-0.812c0.042,0.254-0.039,1.351,0.055,0.825l-0.018,0.533
				L49.471,45.77z"/>
			<path fill="#BCC0C4" d="M49.471,45.77c0.006-0.047,0.014-0.104,0.021-0.191L49.471,45.77z"/>
			<path fill="#BCC0C4" d="M15.465,16.471c0.063,0,0.105,0.003,0.14,0.008c0.057-0.004,0.112-0.008,0.182-0.008H15.465z"/>
			<path fill="#BCC0C4" d="M50.048,43.111c0.011-0.109,0.015-0.237,0.011-0.398L50.048,43.111z"/>
			<path fill="#BCC0C4" d="M49.998,44.193c-0.042,1.059-0.24,0.807-0.297-0.027c-0.024,0.984,0.154,0.959,0.041,1.957l0.135-0.02
				l-0.059,0.561c0.045-0.166,0.1,0.336,0.168,0.057c-0.161,0.303,0.065-2.044-0.146-1.171c0.158-0.644,0.182-1.435,0.208-2.438
				c-0.032,0.322-0.118,0.48-0.185,0.754L49.998,44.193z"/>
			<path fill="#BCC0C4" d="M20.205,16.845l0.716-0.009C20.537,16.832,20.32,16.836,20.205,16.845z"/>
			<path fill="#BCC0C4" d="M18.355,16.554c0.78,0.062,0.158,0.126,1.07,0.132C19.143,16.66,19.129,16.57,18.355,16.554z"/>
			<path fill="#BCC0C4" d="M13.697,43.29c-0.029,0.188-0.074,0.138-0.08,0.718c0.027-0.242,0.058-0.443,0.091-0.646L13.697,43.29z"
				/>
			<path fill="#BCC0C4" d="M13.617,44.021l0.003,0.551c0.014,0.113,0.024,0.172,0.034,0.193
				C13.656,44.398,13.697,43.966,13.617,44.021z"/>
			<path fill="#BCC0C4" d="M13.689,43.23l0.008,0.06c0.014-0.086,0.023-0.233,0.025-0.513L13.689,43.23z"/>
			<path fill="#BCC0C4" d="M13.49,42.979c0.071-0.291-0.02-0.629-0.02-0.979C13.328,42.93,13.488,41.926,13.49,42.979z"/>
			<path fill="#BCC0C4" d="M18.724,47.204c0.483,0.06-0.739,0.259,1.021,0.179C19.732,47.312,19.261,47.236,18.724,47.204z"/>
			<path fill="#BCC0C4" d="M50.064,41.8l-0.019,0.425C50.066,42.15,50.074,41.939,50.064,41.8z"/>
			<path fill="#BCC0C4" d="M50.232,31.327c-0.016,0.062-0.027,0.127-0.039,0.214L50.232,31.327z"/>
			<polygon fill="#BCC0C4" points="50.18,28.949 50.176,28.987 50.251,29.01 			"/>
			<path fill="#BCC0C4" d="M50.465,19.129v-0.002l-0.09-0.079l-0.041,0.077c0.016-0.332,0.016-0.59,0.064-0.209
				c-0.02-0.275,0.062-0.355,0.045-0.407c-0.018-0.064,0.021-0.034,0.021-0.315v-0.01l-0.146-1.38l-0.034-0.321l-0.566-0.034
				l-1.092,0.024L47.8,16.5h-0.003l-0.07-0.003l0.069-0.005c-0.209-0.01-0.38-0.009-0.358-0.031c0.024,0.017,0.18,0.039,0.358,0.039
				H47.8l0.813-0.027c-0.356-0.023-0.438-0.059-0.572-0.094c-0.122-0.035-0.221-0.074-0.32-0.11
				c-0.201-0.072-0.408-0.136-0.816-0.153c-1.831-0.072-2.989-0.021-4.057,0.064l0.823,0.023c0.851,0.035,0.745,0.292,1.784,0.354
				c-1.039-0.062-0.934-0.318-1.784-0.354l-0.823-0.023c-1.002,0.081-11.93,0.184-13.251,0.249c1.323-0.071,12.25-0.188,13.251-0.27
				c-2.932-0.06-13.81,0.267-16.762,0.353c-0.2,0.049-0.436-0.012-0.714-0.012h-0.017l-0.423,0.031
				c0.134,0.012,0.22,0.016,0.271,0.029c-0.104-0.002-0.205-0.011-0.319-0.003l0.049,0.003l0.276-0.004
				c0.322,0.087-0.931,0.205,0.226,0.252c-0.132-0.033-0.2-0.049-0.14-0.074c0.456,0.032,1.104,0.072,1.305,0.121
				c-0.671,0.064-0.838-0.075-1.125-0.012c-0.416-0.018-0.854-0.032-1.054-0.062c-0.058,0.056-0.244,0.104-0.458,0.146
				c-0.319-0.062-1.403-0.062-1.744-0.115c-0.004,0.005-0.016,0.01-0.021,0.015L21.9,16.815l0.107,0.087l-0.134,0.033
				c-0.193-0.005-0.417-0.012-0.522-0.038c0.049,0.027,0.207,0.05,0.36,0.071c-0.083,0.017-0.169,0.032-0.251,0.048
				c-0.31-0.011-0.616-0.022-0.933-0.034c-0.034-0.019-0.079-0.039-0.146-0.061c0.064-0.026,0.039-0.05-0.249-0.066
				c0.016-0.004,0.035-0.008,0.072-0.011l-0.125,0.002l0.039,0.009l-0.213-0.01l0.146,0.115c-0.195-0.008-0.518-0.007-0.65-0.039
				c0.018,0.009,0.051,0.018,0.089,0.025c-0.015,0-0.028-0.001-0.043-0.002l-0.028,0.009c-0.222-0.011-0.443-0.021-0.663-0.042
				c0.046-0.019,0.093-0.215,0.136-0.229l0.115-0.184h-0.109c0.145,0,0.218,0.111-0.166,0.051l-1.04,0.184l0.7,0.163
				c0.039,0.01,0.083,0.043,0.123,0.054c-0.065,0.003-0.146,0.021-0.25,0.027l-0.408-0.006l-0.393-0.011v0.001l0.393,0.015
				c-0.082-0.021-0.108-0.048-0.146-0.074l0.129,0.002l-0.139-0.013c-0.086-0.059-0.22-0.115-0.928-0.131
				c0.193,0.006,0.322-0.001,0.576-0.013l-0.466-0.082l-0.151,0.012l-0.891-0.048l-0.066,0.027l0.899,0.025l-0.345,0.027
				c-1.034-0.004-0.445-0.192-0.726-0.232c-0.261,0.018-0.408,0.062-0.518,0.043c-0.156-0.023-0.148-0.01-0.552-0.03
				c-0.139,0.112-1.031,0.06-1.14,0.108c0.005,0.021,0.013,0.046,0.021,0.052l-0.063,0.872l-0.006-0.226
				c-0.029,0.139-0.047,0.317-0.058,0.521l-0.01,0.286l-0.003,0.191c-0.001,0.119,0.002,0.246,0.003,0.378l0.021,0.586
				c0.022,0.02,0.165,0.057,0.165,0.106v0.009c0-0.003,0-0.005,0-0.008c0,0.005,0,0.014,0,0.019c0,0.001,0,0.003,0,0.004
				c0,0.07-0.105,0.129-0.104,0.182l-0.073,0.373c0.015-0.068-0.008-0.133-0.006-0.217c-0.002,0.084-0.021,0.148-0.035,0.218
				l0.021,0.178c-0.005,0.036-0.014,0.071-0.019,0.117c0.013,0.011,0.02,0.03,0.028,0.05l-0.023,0.144
				c0.029,0.023,0.047,0.078,0.061,0.147l0.005,0.111c-0.001,0.1-0.001,0.191,0.009,0.246l0.01,0.254l-0.045,0.37l-0.007-0.138
				c-0.128,0.376-0.05,0.992-0.081,1.698c0.055,2.567-0.008,7.304,0.136,9.108c-0.022,0.131-0.048,0.204-0.077,0.16l0.091,0.117
				c-0.066,0.193-0.083,0.697-0.101,1.144c-0.013,0.02-0.025,0.024-0.039,0.007l0.037,0.047c-0.019,0.469,0.086,0.854,0.002,0.703
				c0.05,0.252,0.081,0.211,0.103,0.032c-0.041,0.711,0.183,1.644,0.054,1.41c0.137,0.684-0.357-0.582-0.314-1.289
				c0.037,0.09,0.063,0.211,0.062,0.344c0.042-0.403,0.211-0.894,0.157-1.122c0.006-0.16,0.016-0.288,0.026-0.404
				c0.009,0.051,0.014,0.104,0.014,0.162c0.019-0.183,0.03-0.379,0.032-0.56c0.004-0.021,0.006-0.043,0.009-0.062
				c0.005,0.062,0.011,0.134,0.017,0.195l-0.057,0.854c0.021,0.302-0.113,0.657-0.092,1.029c-0.04,0.341,0.334,0.573,0.353,0.771
				c-0.024,0.243-0.049,0.563-0.109,0.416c0.064,0.961,0.083,0.295,0.15-0.108c0.042,0.262,0.089,0.548,0.07,1.081l-0.018,0.308
				c-0.019-0.149-0.034-0.247-0.048-0.308c0.004-0.115,0.012-0.238,0.012-0.352c-0.141,0.021-0.338,0.44-0.332,0.917
				c-0.018,0.101-0.041,0.147-0.074,0.066c0.032,0.475,0.057,0.562,0.08,0.485c-0.001,0.136-0.004,0.263-0.014,0.377
				c-0.006,0.071-0.015,0.137-0.025,0.191c-0.014,0.072-0.03,0.137-0.055,0.182l-0.008-0.129l-0.09,0.526
				c0.064,0.188,0.107,0.021,0.141-0.272l0.198,1.026c-0.05,0.331-0.036,0.269-0.012,0.275c-0.013,0.186-0.038,0.339-0.088,0.432
				l-0.009-0.139l-0.098,0.573c0.105,0.312,0.158-0.254,0.201-0.862c0.02,0.021,0.043,0.104,0.044,0.483
				c0.063-0.258-0.204-0.556-0.21-0.861c0.02-0.282-0.05-0.528-0.025-0.661c0.021,0.298,0.166,0.713,0.166,0.953v0.005l-0.032,0.701
				c0.048,0.421,0.108,1.638,0.199,1.477c-0.007-0.029,0.008-0.072-0.001-0.146c0.009,0.074,0.027,0.117,0.035,0.146
				c0.021,0.1-0.09-0.009-0.078-0.169l-0.123-0.003v0.395v-0.336v0.69c0,0.078-0.025,0.154-0.037,0.229l0.037,0.261v0.387v0.011
				c0,0.17,0.092,0.851,0.05,0.748c-0.001,0.075-0.058,0.149-0.053,0.215c0.028-0.095,0.003-0.187,0.003-0.276
				c0,0.021,0,0.043,0,0.062c0,0.04,0.008-0.043,0.01-0.166c0-0.006-0.01-0.012-0.01-0.017v0.623c0,0.099,0.108,0.192,0.094,0.282
				c-0.045,0.31-0.014,0.668-0.049,1.119c0.058-0.099,0.094,0.146,0.086,0.476c0.27,0.006,0.617-0.218,0.877-0.229
				c-0.238-0.062-0.432-0.354-0.66-0.354h1.475c0.281,1,0.555,0.383,0.772,0.432c-0.023-0.002-0.046,0.115-0.069,0.113
				c0.443,0.053-0.678,0.296,0.936,0.225c-0.006-0.045-0.214-0.062-0.502-0.098c0.002-0.016,0.014-0.016,0.039-0.027
				c1.113-0.056,2.295-0.082,3.506-0.107c0.298,0.076,0.561,0.138,0.689,0.16l0.031,0.004c-0.014-0.014-0.021-0.025-0.018-0.039
				c0.625,0.104,1.256,0.186,2.043,0.152l1.695-0.021c0.5,0.064,1.026,0.104,1.643,0.078c1.754-0.006,14.056-0.092,15.392-0.066
				l-0.064,0.026c0.428-0.028,0.823-0.04,1.2-0.044l0.047,0.029c0.994,0.059,1.644,0.064,2.423,0.084
				c0.036-0.027,0.059-0.057,0.072-0.084c0.484-0.004,0.975-0.025,1.505-0.088l0.229,0.144c1.084,0.063,1.9,0.071,2.752,0.091
				c0.215-0.165-0.143-0.373-0.143-0.58v-0.342c0,0.002-0.061,0.006-0.031,0.009c0.018-0.196-0.033-0.417-0.027-0.726
				c0.005-0.35-0.016-0.764,0.011-1.283l-0.009,0.951l0.059,0.338v-1.102c0,0.016-0.105,0.031-0.104,0.039
				c0-0.123-0.051-0.385-0.049-0.502c0.002,0.117-0.023,0.234-0.023,0.234h-0.014c-0.004,0,0.188,0.277,0.188,0.268v0.215
				c0-0.309-0.017-0.596-0.007-0.943c-0.008-0.041-0.065-0.059-0.074-0.059c0.009,0-0.013,0.018-0.005,0.059l0.002,0.086
				l-0.021-0.131c0.012-0.407,0.004-0.9,0.041-1.613l-0.109,0.982l0.113,0.045c-0.021,0.188,0.061,0.377,0.061,0.602v-0.217
				c0-0.148-0.081-0.292-0.062-0.43l0.047-0.071c-0.012,0.101,0.018,0.136,0.018,0.235v-0.957c0,0.002,0.008-0.002,0.014-0.015
				l-0.014-0.147c0-0.043,0-0.084,0-0.123V41.84c0-0.076-0.107-0.142-0.105-0.195l-0.051-0.021
				c-0.006,0.146-0.035,0.385-0.028,0.786l0.084,0.147c0.017,0.099,0.103-0.01,0.103-0.17v-0.003v0.394l-0.037-0.908
				c0.01-0.012-0.021,0.021-0.007,0.129L49.371,41.7l0.003-0.382c0.077-0.084,0.112,0.75,0.036,1.186
				c0.061,0.901,0.054-1.203,0.087-0.158c0.06-1.753-0.067-0.222-0.101-1.562c0.176,0.809,0.213,1.874,0.492,2.444
				c-0.029-1.117,0.125-0.508,0.178-1.428l0.033-0.847l-0.269,1.09c-0.011-0.403-0.001-0.731,0.019-1.021
				c-0.002-0.006-0.004-0.013-0.008-0.02l0.049-0.484c0.008-0.352,0.021-0.733-0.017-0.727c0.043-0.027,0.026,0.366,0.021,0.727
				c0.062-0.594,0.144-1.103,0.108-2.009l-0.021-0.045c-0.022,0.572-0.063,1.058-0.162,1.474c-0.004,0.013-0.006,0.018-0.008,0.029
				c0.104-0.423,0.146-0.918,0.168-1.503c-0.027-0.054-0.051-0.069-0.071-0.062c0.021-0.008,0.045,0.009,0.073,0.062l0.021-0.731
				c-0.026,0.296-0.106,0.439-0.169,0.688l0.021,0.051l0,0v0.002c-0.062,0.133-0.103,0.336-0.223-0.399
				c0.004-0.447,0.021-0.677,0.049-0.795c0.047,0.214,0.103,0.407,0.178,0.561l-0.004-0.254c0.174-0.271,0.103-0.301,0.324-1.203
				c-0.047-0.297-0.101,0.068-0.162,0.443c0.008-0.088,0.01-0.207,0.004-0.296l-0.017,0.402c-0.044,0.262-0.094,0.565-0.146,0.565
				c-0.002,0-0.004,0-0.006,0c0.021-1,0.125-0.24,0.164-0.927l0.032-0.799l-0.049,0.188l0.004-0.11L49.9,36.286
				c-0.004-1.052,0.123-1.211,0.213-0.873c-0.039-1.606,0.205-1.013,0.076-2.255c-0.062,0.429-0.178,0.724-0.194,1.148l0.007-0.562
				l-0.029,0.124l-0.008-0.354c-0.016-0.037-0.029-0.062-0.042-0.076c0.058-0.5,0.261,0.354,0.22-1.328
				c-0.008,0.563-0.08,0.151-0.135,0.019l0.025-0.164l0.093-0.403c-0.01-0.063-0.021-0.095-0.028-0.101
				c0.057-0.555,0.09-1.051,0.213-0.917c0.016,0.475-0.033,0.599-0.076,0.783c0.022-0.066,0.052-0.079,0.078-0.082
				c0.067-1.371-0.174-1.067-0.152-1.899c0.008-0.066,0.013-0.141,0.011-0.242l0.009-0.116l-0.013-0.005
				c-0.004-0.103-0.015-0.226-0.028-0.383L50.1,28.799c0.049-0.688,0.061-3.777,0.067-4.334l0.007-0.041
				c0.021-0.063,0.047-0.073,0.072-0.077c0.029-0.584-0.004-0.834-0.045-1.013c0.014-0.246,0.029-0.495,0.059-0.754l-0.141-0.254
				l0.004-0.051l-0.038-0.01l-0.006-0.012c0.157-0.236,0.267-0.946,0.343-1.656L50.465,19.129z M49.298,41.193l-0.005,0.024
				l-0.025-0.032l0.041-0.242l-0.013,0.231L49.298,41.193z M24.167,17.252c0.161,0.088,0.301,0.151,0.976,0.219H25.14
				C24.467,17.403,24.327,17.34,24.167,17.252z M25.493,17.135c0.231,0.018,0.222,0.052,0.164,0.093
				c-0.279-0.017-0.321-0.039-0.183-0.079C25.463,17.142,25.472,17.138,25.493,17.135z M27.842,17.212
				c0.205,0.017,0.273,0.04,0.238,0.073C27.752,17.274,27.771,17.246,27.842,17.212z M27.384,16.703
				c-0.011,0.016,0.023,0.031,0.136,0.044C27.402,16.734,27.369,16.719,27.384,16.703z M27.75,16.713
				c-0.001,0.018,0.067,0.034,0.176,0.061c-0.002,0-0.002,0-0.003,0C27.816,16.747,27.748,16.73,27.75,16.713z M13.665,16.768
				c0.001,0,0.002,0.001,0.003,0.001c-0.001,0.001-0.002,0.002-0.003,0.003C13.665,16.771,13.665,16.769,13.665,16.768z M27.33,17.5
				h-0.204C27.202,17.5,27.269,17.5,27.33,17.5z M49.396,38.325c0.006-0.06,0.01-0.099,0.014-0.13c0,0,0,0,0,0.002
				C49.406,38.229,49.402,38.268,49.396,38.325c0,0.106,0.002,0.202,0.002,0.29c0,0.002,0,0.006,0,0.008
				C49.398,38.533,49.396,38.438,49.396,38.325z M28.431,16.49c0.048-0.004,0.097-0.007,0.142-0.015
				C28.526,16.482,28.479,16.488,28.431,16.49z M27.738,16.568c-0.006-0.022-0.096-0.045-0.349-0.066L27.49,16.5
				C27.691,16.521,27.753,16.545,27.738,16.568z M26.852,17.275c0.383-0.025,0.638-0.043,0.632-0.084
				c0.04,0.002,0.071,0.004,0.106,0.006l-0.137,0.07l-0.154,0.001c-0.076,0.022-0.044,0.04,0.047,0.056l-0.482-0.027l-0.225-0.115
				c-0.383,0.018-0.638,0.03-0.633,0.06c-0.031-0.001-0.056-0.094-0.085-0.095l0.116-0.176h0.096c0.021,0,0.043,0.004,0.051,0.005
				c-0.008-0.002-0.021-0.005-0.031-0.005h0.039c0.076,0,0.044,0.035-0.047,0.014l0.482,0.085
				C26.703,17.117,26.761,17.215,26.852,17.275z M25.416,17.131c-0.251,0-0.527,0.002-0.779,0l-0.326-0.08
				c0.318,0.006,0.615,0.031,0.896,0.055L25.1,17.123C25.233,17.123,25.334,17.126,25.416,17.131z M24.268,17.123
				c-0.059-0.002-0.111-0.006-0.16-0.009c0.002-0.001,0.007-0.003,0.01-0.004L24.268,17.123z M14.594,16.749
				c-0.02,0.007-0.043,0.013-0.061,0.02l-0.009-0.001c0.015-0.006,0.034-0.013,0.054-0.019c0.033-0.012,0.049-0.023-0.011-0.033
				l0.038,0.001C14.65,16.727,14.626,16.737,14.594,16.749z M13.512,17.207c-0.004,0.098-0.008,0.204-0.012,0.33
				c0.02,0.109,0.034,0.15,0.047,0.142c-0.013,0.011-0.027-0.031-0.047-0.142l-0.002,0.072c-0.002-0.051-0.006-0.099-0.006-0.154
				c0-0.01,0-0.021-0.001-0.031c0-0.094,0.003-0.199,0.009-0.311C13.504,17.146,13.507,17.178,13.512,17.207z M13.715,41.177
				l0.016-0.22l0.003-0.014l-0.017,0.231l0.002,0.019v0.004L13.715,41.177z M47.604,16.399c-0.045,0.006-0.078,0.012-0.104,0.017
				c-0.359,0.028-0.214,0.043-0.48,0.101C47.309,16.455,47.1,16.434,47.604,16.399z M27.425,16.493
				c0.01,0.001,0.019,0.002,0.028,0.003c-0.037,0.002-0.068-0.002-0.107,0l-0.021-0.002C27.361,16.492,27.39,16.495,27.425,16.493z
				 M23.277,17.041c-0.411,0.004-0.79,0-1.152-0.007c0.117-0.046,0.326-0.091,1.002-0.154
				C23.346,16.934,23.422,16.986,23.277,17.041z M17.469,16.871c-0.041-0.008-0.111-0.018-0.216-0.03l0,0
				c0.105,0.013,0.177,0.022,0.218,0.03H17.469z M15.848,16.799L15.848,16.799c-0.183-0.01-0.338-0.023-0.424-0.047l0,0
				C15.51,16.775,15.665,16.789,15.848,16.799z M13.498,17.094c-0.005,0.029-0.008,0.057-0.013,0.085
				c-0.003-0.093-0.005-0.195-0.009-0.314C13.479,16.951,13.488,17.021,13.498,17.094z M13.656,35.285
				c0.005,0.078,0.01,0.156,0.015,0.232c-0.004,0.004-0.008,0.006-0.011,0.017c-0.003,0.001-0.005,0.005-0.008,0.009
				C13.65,35.477,13.654,35.385,13.656,35.285z M49.246,44.038c0-0.002,0-0.005-0.001-0.006v-0.011
				C49.245,44.014,49.246,44.021,49.246,44.038z M49.32,40.712l-0.064,0.37l-0.043-0.321c0-0.292,0.032-0.599,0.032-0.901v0.111
				h0.032c0.012,0,0.037-0.314,0.043-0.445c0.007,0.035,0.021,0.041,0.031,0.068c-0.006-0.055-0.004-0.109-0.01-0.156
				c0.01-0.002,0.021,0,0.029,0.021C49.359,39.875,49.343,40.303,49.32,40.712z M49.797,40.965c0.004,0,0.008-0.002,0.01,0
				c-0.004,0.005-0.008,0.014-0.012,0.028L49.797,40.965z M49.838,39.367c-0.009-0.001-0.018-0.008-0.027-0.02
				C49.82,39.359,49.829,39.366,49.838,39.367z M49.784,37.625l-0.038-0.477c0.021-0.015,0.044-0.014,0.062-0.029l0.006,0.018
				l0.014,0.277c0.002,0.001,0.004-0.001,0.006,0L49.83,37.6L49.784,37.625z M49.771,32.701l-0.026-0.446
				c0.026-0.008,0.05-0.007,0.065-0.067v0.065l-0.006,0.396C49.795,32.666,49.785,32.682,49.771,32.701z"/>
			<g>
				<rect x="14.465" y="17.5" fill="#FFFFFF" width="35" height="29"/>
				<g>
					<g>
						<g>
							<path fill="#FFFFFF" d="M48.027,40.965l-0.008,0.064l-0.004,0.227c0.088,0.262,0.063,0.788,0.039,1.48
								c0.025,0,0.055-0.062,0.066,0.186c-0.057,1.1,0,0.549,0.055,1.344c0-0.244-0.007-0.552,0.021-0.673l0.027,1.526
								c0.053-0.21,0.108-0.383,0.15-0.127c0.104-0.155,0.23,0.349,0.343,0.538c0.015-0.273,0.028-0.491,0.044-0.593
								c0.045,0.035,0.063,0.297,0.071,0.617c0.013-0.023,0.021-0.053,0.033-0.101c-0.013,0.048-0.021,0.075-0.033,0.101
								l0.002,0.666c0.015-0.123,0.026-0.246,0.048-0.187v-0.917c0.012-0.029,0.02,0,0.025,0.056l-0.025-0.235l-0.025,0.182
								c-0.021,0.062-0.034-0.061-0.049-0.182c-0.008-0.244,0.015-0.309,0.026-0.43l-0.048-0.488
								c-0.082-0.185-0.049,1.285-0.122,0.488l0.021-0.242c-0.021-0.367-0.021-0.855-0.076-1.102
								c0.097-0.367-0.073-1.039,0.057-1.102c0.062-1.404-0.041-3.238,0.096-4.646c-0.089-0.244-0.259-0.244-0.367-0.854
								c0.015-0.121,0.026-0.307,0.049-0.244l-0.049-0.428c0,0.244,0.008,0.551-0.026,0.672c-0.04-0.672-0.074,0.307-0.122,0.246
								l-0.048-0.918L48.18,36l-0.156,4.921L48.027,40.965z"/>
							<path fill="#FFFFFF" d="M44.23,17.086l0.02,0.102c-4.294,0.079-9.043,0.093-14.063,0.076l-16.259-0.11l-0.073,10.798
								l-0.016,10.162l-0.381-0.423l0.186,4.219l0.086,2.158l0.087,2.832l2.149-0.063l1.452-0.067l2.771-0.15l-1.682-0.066
								c1.54-0.211,5.478-0.346,7.906-0.298l-0.24,0.101c-3.327,0.056,0.226,0.03-1.122,0.304l-0.578,0.051l0.339,0.048l0.579-0.05
								c-0.065,0.058-0.016,0.131-0.562,0.151L25.6,46.87c1.659,0.271,1.662,0.503,1.455,0.805c0.435-0.036-0.019-0.334,1.831-0.235
								l-0.241,0.1l2.024-0.178l0.902,0.131c0.722-0.062,1.188-0.131,1.928-0.092l0.226-0.198c3.312,0.073,7.488-0.158,10.852-0.011
								c0.736-0.193,2.541,0.062,4.42-0.101l-0.809-0.215c-2.026-0.289-6.771-0.138-10.051-0.24l0.129-0.114
								c0.688-0.032,1.188-0.127,2.039-0.071l0.225-0.2c-1.438-0.703-5.915,0.15-7.104,0.048c-2.526-0.194,1.651-0.428,0.445-0.399
								c2.776-0.269-2.32-0.498-3.497-0.73c-1.635-0.232-4.248-0.291-6.993-0.289l-7.449,0.07c-0.058,0.023-0.133,0.048-0.222,0.066
								c-0.023-0.059-0.044-0.143-0.062-0.244c-0.002-0.021-0.005-0.002-0.007-0.062l-0.006-0.172l-0.012-0.347l-0.02-0.695
								L15.56,40.63c-0.01-1.937,0.012-3.923,0.045-5.886c0.066-3.925,0.179-7.76,0.174-10.93c0.017-0.864-0.027-1.87-0.087-2.919
								l-0.097-1.593l-0.089-0.571c0.121-0.021,0.263-0.037,0.406-0.044l0.473-0.005l0.571,0.01
								c0.738,0.024,1.374,0.095,1.846,0.238l5.999,0.126l-0.128,0.114c5.838,0.037,12.28-0.238,17.729-0.323
								c2.38-0.025,3.101-0.32,4.182,0l0.592,0.023l0.299,0.009l0.09,0.008c0.086,0.009,0.166,0.015,0.248,0.017l0.037,1.976
								l0.103,3.202c0.077,2.128,0.161,4.22,0.179,6.144c0.104-0.017,0.209,0.625,0.266-0.228c-0.127-2.362,0.129-5.082,0.404-5.165
								l-0.025,0.884l0.226-1.578l-0.088-1.013c0.067-0.259,0.122-0.375,0.165-0.393c0.049-0.863,0.135-1.669,0.229-2.484
								c0.047-0.434,0.096-0.757,0.146-1.294l0.136-1.822l-0.042-0.003l-1.403,0.044l-1.268,0.013
								C46.098,17.184,45.232,17.154,44.23,17.086z"/>
						</g>
					</g>
				</g>
			</g>
			<path fill="#BCC0C4" d="M50.016,37.367l-0.012,0.367C50.016,37.634,50.02,37.516,50.016,37.367z"/>
			<path fill="#BCC0C4" d="M49.949,41.045c-0.062,0.115-0.062-0.188-0.055-0.525l-0.045,0.504
				C49.879,41.098,49.912,41.195,49.949,41.045z"/>
			<path fill="#BCC0C4" d="M16.654,16.605c0.716,0.057,0.145,0.115,0.982,0.122C17.377,16.703,17.365,16.621,16.654,16.605z"/>
			<polygon fill="#BCC0C4" points="13.615,44.021 13.617,44.021 13.617,44.008 			"/>
			<polygon fill="#BCC0C4" points="50.125,22.241 50.123,22.275 50.191,22.296 			"/>
		</g>
		<path fill="#BCC0C4" d="M53.025,18.116"/>
	</g>
	<path fill="#F5F2F7" d="M15.465,19.271h32V44.5h-32V19.271z"/>
	<g>
		<g>
			<g>
				<path fill="#FFFFFF" d="M48.494,9.5l0.124,1.403c0.005,0.049,0.01,0.116,0.017,0.161l0.024,0.17l-0.011,0.168
					c-0.013,0.185-0.025,0.374-0.047,0.566l0.133,0.244l-0.071,0.501c-0.029,0.201-0.044,0.414-0.062,0.639
					c-0.018,0.209-0.031,0.406-0.054,0.6l0.127,2.81l-0.05,0.003l0.023,0.982l-0.021,0.321l0.54,0.034l1.082-0.011l0.064,0.005
					c0.174,0.014,0.301,0.028,0.461,0.069c0.158,0.045,0.262,0.078,0.379,0.12c0.191,0.068,0.425,0.134,0.834,0.151
					c0.58,0.022,1.138,0.034,1.656,0.034c0.953,0,1.782-0.044,2.256-0.087l1.561-0.149v0.157l1-0.01v5.497l-1.748,0.02
					c-0.189,0-0.333-0.007-0.506-0.018c-0.594,0.045-1.532,0.09-2.581,0.09c-0.588,0-1.21-0.013-1.866-0.039
					c-0.736-0.03-1.408-0.14-2.06-0.335l-0.683,0.006l-6.229-0.393l0.354-5.567l-0.016-0.58c-0.08-0.401-0.111-0.775-0.131-1.064
					l-0.258-3.862l0.31-0.031l0.082-0.749c-0.002-0.035-0.009-0.226-0.009-0.226l-0.09-1.63H48.494z"/>
			</g>
			<g>
				<path fill="#BCC0C4" d="M56.465,19.891v-0.013c-1,0.046-1.619,0.093-2.643,0.093c-0.527,0-1.198-0.012-1.805-0.036
					c-0.595-0.023-1.018-0.128-1.32-0.237c-0.086-0.03-0.184-0.055-0.264-0.078c-0.043-0.011-0.082-0.017-0.22-0.027l-1.077,0.01
					l-2.097-0.132l0.108-1.752l-0.029-1.193l-0.01-0.027c-0.071-0.226-0.1-0.451-0.118-0.764l0.124-0.245l-0.008-0.13
					c-0.02,0.064-0.03,0.127-0.039,0.187c0.008-0.048,0.011-0.115,0.014-0.188l0.025-0.002l-0.063-1.45l0.015-0.114
					c0.021-0.188,0.032-0.375,0.047-0.552c0.021-0.261,0.039-0.507,0.071-0.74l-0.118-0.217l0.051-0.476
					c0.02-0.169,0.031-0.123,0.043-0.284c-0.012-0.074-0.021-0.022-0.027-0.022h-2.501c0.006,0,0.007-0.008,0.017,0.085
					c-0.004,0.052-0.01,0-0.016,0.053l-0.139,1.214l0.129,0.205c-0.002,0.014-0.004,0.015-0.004,0.029
					c-0.01,0.126-0.021,0.251-0.032,0.381l-0.241,0.021l0.16,2.411c0.021,0.312,0.053,0.644,0.131,0.988l0.021,0.784l-0.264,4.136
					l4.678,0.295l0.871-0.008c0.407,0.138,1.022,0.303,1.896,0.338c0.634,0.025,1.245,0.038,1.815,0.038
					c1.086,0,2.053-0.049,2.599-0.095c0.171,0.015,0.526,0.022,0.721,0.022c0.113,0,0.498-0.001,0.498-0.003v-2.5
					c0,0.002-0.211,0.003-0.321,0.003C56.907,19.898,56.465,19.896,56.465,19.891z"/>
			</g>
			<g>
				<path fill="#FFFFFF" d="M21.236,9.5c0,0-0.102,1.781-0.104,1.816l0.082,0.769l0.309,0.041l-0.256,3.867
					c-0.02,0.289-0.052,0.666-0.132,1.067l-0.015,0.582l0.354,5.568l-6.23,0.393l-0.685-0.005c-0.65,0.195-1.328,0.305-2.062,0.335
					c-0.658,0.026-1.29,0.039-1.878,0.039c-1.049,0-2.007-0.045-2.601-0.09C7.846,23.893,7.664,23.9,7.474,23.9l-1.911-0.02
					l-0.1-1.483v-4.014l1,0.01v-0.145l1.73,0.137c0.473,0.043,1.424,0.087,2.378,0.087c0.519,0,1.1-0.012,1.681-0.034
					c0.408-0.018,0.652-0.083,0.844-0.151c0.119-0.042,0.227-0.075,0.337-0.107c0.21-0.054,0.338-0.068,0.514-0.082l0.063-0.005
					l1.084,0.011l0.541-0.034l-0.021-0.453l0.025-1.114h-0.022l0.025-0.796l-0.01,0.048l0.084-1.833
					c-0.021-0.197-0.036-0.375-0.051-0.561c-0.019-0.248-0.033-0.453-0.063-0.654L15.53,12.21l0.134-0.24
					c-0.021-0.192-0.036-0.378-0.048-0.562l-0.01-0.163l0.024-0.16c0.007-0.045,0.012-0.131,0.017-0.18L15.775,9.5H21.236z"/>
			</g>
			<g>
				<path fill="#BCC0C4" d="M8.022,22.376c0.546,0.046,1.513,0.095,2.598,0.095c0.571,0,1.183-0.013,1.816-0.038
					c0.874-0.035,1.488-0.2,1.897-0.338l0.87,0.008l4.679-0.295l-0.264-4.137l0.021-0.784c0.078-0.344,0.11-0.677,0.131-0.988
					l0.16-2.413l-0.241-0.024c-0.014-0.13-0.023-0.262-0.032-0.388c-0.001-0.014-0.002-0.028-0.003-0.042l0.128-0.231l-0.139-1.267
					c-0.006-0.054-0.011,0.104-0.016,0.052c0.009-0.094,0.011-0.085,0.017-0.085h-2.5c-0.008,0-0.017-0.052-0.028,0.022
					c0.011,0.161,0.023,0.22,0.042,0.389l0.053,0.423l-0.121,0.19c0.034,0.233,0.053,0.466,0.072,0.727
					c0.014,0.177,0.027,0.358,0.048,0.545l0.013,0.111l-0.065,1.448l0.027,0.001c0.003,0.073,0.007,0.14,0.012,0.188
					c-0.007-0.06-0.021-0.123-0.04-0.187l-0.006,0.13l0.125,0.245c-0.021,0.313-0.047,0.538-0.119,0.764l-0.008,0.027l-0.031,1.193
					l0.111,1.752l-2.092,0.132l-1.073-0.01c-0.136,0.011-0.164,0.017-0.208,0.027c-0.08,0.023-0.154,0.048-0.24,0.078
					c-0.305,0.109-0.686,0.214-1.278,0.237c-0.605,0.024-1.033,0.036-1.561,0.036c-1.023,0-2.312-0.047-2.312-0.093v0.013
					c0,0.005-0.443,0.008-0.677,0.008c-0.112,0-0.323-0.001-0.323-0.003v2.5c0,0.002,0.055,0.003,0.167,0.003
					C7.826,22.398,7.852,22.391,8.022,22.376z"/>
			</g>
			<g>
				<path fill="#FFFFFF" d="M53.648,40.079c1.049,0,2.006,0.045,2.601,0.09c0.173-0.012,0.354-0.019,0.544-0.019l1.742,0.021
					l-0.07,1.481v4.016l-1-0.01v0.145l-1.561-0.137c-0.473-0.044-1.34-0.087-2.295-0.087c-0.52,0-1.058,0.012-1.637,0.035
					c-0.408,0.016-0.635,0.081-0.824,0.149c-0.117,0.043-0.215,0.075-0.325,0.106c-0.21,0.054-0.332,0.067-0.507,0.082l-0.063,0.004
					l-1.082-0.011l-0.539,0.033l0.021,0.321l-0.023,0.982l0.021,0.002l-0.022,0.926l0.009,0.021l-0.084,1.863
					c0.021,0.196,0.036,0.393,0.051,0.577c0.021,0.248,0.033,0.461,0.062,0.662l0.072,0.501l-0.135,0.242
					c0.021,0.191,0.037,0.38,0.049,0.562l0.01,0.161l-0.023,0.161c-0.008,0.045-0.013,0.105-0.018,0.155L48.494,54.5h-5.463
					c0,0,0.103-1.756,0.104-1.791l-0.082-0.758l-0.309-0.033l0.257-3.863c0.019-0.289,0.051-0.664,0.131-1.064l0.017-0.581
					l-0.354-5.567l6.229-0.393l0.687,0.006c0.649-0.195,1.328-0.307,2.062-0.335C52.43,40.092,53.061,40.079,53.648,40.079z"/>
			</g>
			<g>
				<path fill="#BCC0C4" d="M44.498,48.15l-0.16,2.414l0.241,0.022c0.013,0.13,0.022,0.263,0.032,0.39
					c0,0.014,0.002,0.026,0.004,0.041l-0.129,0.23l0.139,1.268c0.006,0.055,0.012-0.13,0.016-0.076
					c-0.01,0.094-0.011,0.061-0.017,0.061h2.501c0.007,0,0.016,0.078,0.027,0.003c-0.012-0.161-0.023-0.208-0.043-0.378
					l-0.051-0.415l0.118-0.188c-0.032-0.23-0.053-0.465-0.071-0.726c-0.015-0.177-0.026-0.356-0.047-0.546l-0.015-0.206l0.063-1.545
					h-0.025c-0.003,0-0.006-0.045-0.014-0.092c0.009,0.059,0.021,0.171,0.039,0.233l0.008-0.104l-0.124-0.231
					c0.021-0.312,0.047-0.533,0.118-0.76l0.009-0.023l0.03-1.19l-0.111-1.751l2.092-0.131l1.074,0.01
					c0.136-0.01,0.164-0.018,0.208-0.025c0.08-0.023,0.153-0.05,0.239-0.078c0.306-0.109,0.686-0.213,1.277-0.237
					c0.605-0.024,1.363-0.036,1.891-0.036c1.023,0,1.645,0.047,2.645,0.093V44.16c0-0.005,0.441-0.008,0.678-0.008
					c0.111,0,0.322,0.002,0.322,0.002v-2.5c0,0-0.385-0.002-0.498-0.002c-0.191,0-0.463,0.008-0.634,0.021
					c-0.546-0.046-1.556-0.095-2.642-0.095c-0.57,0-1.205,0.013-1.84,0.038c-0.873,0.034-1.498,0.198-1.908,0.338l-0.875-0.009
					l-4.682,0.296l0.262,4.137l-0.021,0.784C44.552,47.507,44.52,47.839,44.498,48.15z"/>
			</g>
			<g>
				<path fill="#FFFFFF" d="M10.62,40.079c0.588,0,1.22,0.013,1.876,0.039c0.735,0.03,1.413,0.14,2.063,0.335l0.685-0.006
					l6.23,0.393l-0.354,5.567l0.015,0.579c0.08,0.402,0.112,0.774,0.131,1.063l0.257,3.862l-0.309,0.029l-0.082,0.75
					c0.002,0.035,0.009,0.201,0.009,0.201l0.095,1.604h-5.461L15.65,53.12c-0.005-0.05-0.01-0.103-0.017-0.147l-0.024-0.164
					l0.01-0.164c0.012-0.185,0.027-0.373,0.048-0.563l-0.134-0.243l0.072-0.501c0.029-0.201,0.044-0.414,0.062-0.639
					c0.016-0.209,0.03-0.404,0.052-0.601l-0.127-2.811l0.05-0.003l-0.025-0.982l0.021-0.321l-0.54-0.032l-1.083,0.01l-0.063-0.004
					c-0.176-0.015-0.301-0.028-0.463-0.069c-0.158-0.044-0.26-0.076-0.377-0.119c-0.193-0.068-0.426-0.136-0.835-0.149
					c-0.58-0.023-1.138-0.035-1.656-0.035c-0.954,0-1.952,0.043-2.425,0.087l-1.73,0.148V45.66l-1,0.01v-5.497l1.917-0.021
					c0.19,0,0.419,0.007,0.591,0.019C8.566,40.124,9.571,40.079,10.62,40.079z"/>
			</g>
			<g>
				<path fill="#BCC0C4" d="M8.465,44.159v0.013c0-0.046,1.288-0.093,2.312-0.093c0.527,0,1.033,0.012,1.639,0.036
					c0.593,0.023,0.935,0.128,1.239,0.236c0.086,0.029,0.141,0.056,0.221,0.078c0.044,0.012,0.063,0.019,0.198,0.026l1.068-0.011
					l2.089,0.133l-0.112,1.752l0.031,1.191l0.007,0.026c0.072,0.228,0.099,0.452,0.119,0.765l-0.125,0.246l0.006,0.129
					c0.02-0.062,0.033-0.127,0.04-0.187c-0.005,0.047-0.009,0.115-0.012,0.188l-0.027,0.002l0.065,1.449l-0.013,0.112
					c-0.021,0.188-0.034,0.376-0.048,0.554c-0.02,0.262-0.038,0.508-0.072,0.739l0.121,0.218l-0.053,0.476
					c-0.019,0.17-0.031,0.099-0.042,0.26c0.012,0.075,0.021-0.003,0.028-0.003h2.5c-0.006,0-0.008,0.033-0.017-0.061
					c0.005-0.054,0.01,0.014,0.016-0.041l0.139-1.207l-0.128-0.203c0.001-0.014,0.002-0.014,0.003-0.026
					c0.009-0.126,0.019-0.251,0.032-0.381l0.241-0.021l-0.16-2.412c-0.021-0.312-0.053-0.645-0.131-0.986l-0.021-0.783l0.264-4.137
					l-4.679-0.295l-0.87,0.008c-0.409-0.139-1.023-0.303-1.897-0.338c-0.634-0.025-1.245-0.038-1.816-0.038
					c-1.085,0-2.052,0.049-2.598,0.095c-0.171-0.015-0.196-0.021-0.391-0.021c-0.112,0-0.167,0.002-0.167,0.002v2.5
					c0,0,0.211-0.002,0.323-0.002C8.021,44.15,8.465,44.154,8.465,44.159z"/>
			</g>
		</g>
	</g>
</g>
</svg>
