<?xml version="1.0" encoding="utf-8"?>
<!-- Generator: Adobe Illustrator 15.0.0, SVG Export Plug-In . SVG Version: 6.00 Build 0)  -->
<!DOCTYPE svg PUBLIC "-//W3C//DTD SVG 1.1//EN" "http://www.w3.org/Graphics/SVG/1.1/DTD/svg11.dtd">
<svg version="1.1" id="Layer_1" xmlns="http://www.w3.org/2000/svg" xmlns:xlink="http://www.w3.org/1999/xlink" x="0px" y="0px"
	 width="64px" height="64px" viewBox="0 0 64 64" enable-background="new 0 0 64 64" xml:space="preserve">
<g id="Buttons_x5F_Released">
	<path opacity="0.3" fill="#333333" enable-background="new    " d="M22.339,48.82c-0.503-0.002-0.948-0.041-1.356-0.096
		l-0.476-0.033l-0.108-0.018c-0.119-0.021-0.338-0.064-0.597-0.13c-0.424,0.013-0.82,0.021-1.194,0.03l0.023,0.173l-1.637,0.075
		c-0.293,0.013-0.504,0.031-0.656,0.031c-0.544,0-0.971-0.356-1.278-0.356h-0.483l-0.012,0.104c-0.108,0.006-0.227,0-0.35,0
		c-0.161,0-0.33-0.01-0.488-0.014L12.1,48.553l0.032-1.498c0.002-0.104-0.063-0.199-0.067-0.264c0.027,0.529,0.4,1.297,1.4,1.297
		v-1.113l-1.449-0.479c0.035-0.46,0.112-0.857,0.164-1.219l0.043-0.157l-0.003-0.03l-0.062-0.007
		c-0.007-0.099,0.104-0.212,0.104-0.326l0.203-0.019V44.5h0.566l0.434-0.379V43.5h-0.967H12.48h-0.114
		c-0.095,0-0.154,0.594-0.173,0.764c0.005-0.047,0.118,0.02,0.123-0.054c0.012-0.178,0.148-0.188,0.148-0.315v-0.166L12.3,43.348
		l-0.002-0.33c-0.078-0.244-0.146-0.504-0.172-0.752c-0.091-0.13-0.184-0.281-0.244-0.457l-0.13-0.358l0.142-0.854
		c-0.035-0.14-0.063-0.299-0.068-0.472c-0.031-0.065-0.062-0.136-0.088-0.211l-0.124-0.361l0.153-0.905l0.129,0.01
		c-0.016-0.053-0.029-0.104-0.041-0.158c-0.015,0.043-0.02,0.066-0.02,0.068c0.004-0.045,0.006-0.086,0.008-0.125
		c-0.035-0.168-0.059-0.352-0.072-0.551l0.402-0.092l0.004-0.059l-0.335,0.005c-0.006-0.376,0.055-0.771,0.186-1.132
		c-0.323-0.68-0.457-1.68-0.43-2.141l0.108-0.021c0.018-0.101,0.036-0.193,0.055-0.282c-0.01-0.146-0.017-0.33-0.009-0.525
		l0.12,0.004l0.002-0.028l0.105-0.019l-0.104-0.004l0.005-0.062l-0.026-0.002c0,0.021,0.001,0.044,0.003,0.062l-0.103-0.004
		l0.002,0.021c0.02-0.506,0.037-1.113,0.095-1.113h-0.006c-0.096-2-0.225-3.613-0.232-5.871c-0.005-1.255-0.148-2.515-0.148-3.443
		V23.12l0.122-0.056c0.01-0.22,0.066-0.433,0.064-0.627c-0.005-0.436,0.021-0.853,0.118-1.263l-0.141-0.131l0.045-0.243l0.068-0.647
		l-0.027-0.184l-0.29-0.117l0.04-1.286V18.29l0.158-0.209l0.09-0.56c0.016-0.327,0.122-0.022,0.166-1.022h0.009l0.014,0.057
		l-0.251-0.934l1.125-0.451c0.324-0.146,0.604-0.122,0.992-0.13c0.046,0,0.094,0.014,0.143,0.013l0.131-0.098l0.569,0.032
		c0.149,0.008,0.235,0.012,0.295,0.014c0.109,0.002,0.176,0.006,0.252,0.014c0.097-0.013,0.211-0.026,0.347-0.035l0.157-0.01
		l0.156,0.022c0.204,0.029,0.377,0.088,0.522,0.162l0.375,0.02l0.241-0.019l0.47,0.083l0.14,0.006l-0.178-0.144l4.125,0.194
		l0.075-0.094l0.856,0.131c0.093,0.012,0.421,0.025,0.638,0.034c0.239,0.01,0.44,0.018,0.614,0.029l0.217-0.21l0.61,0.094
		c0.036-0.013,0.072-0.026,0.11-0.038c-0.032,0.011-0.064,0.024-0.097,0.04l0.111,0.017c0.026,0.003,0.07,0.007,0.126,0.011
		l-0.004-0.52l0.505-0.29h0.08c0.188,0,0.35,0,0.501,1c0.005,0,0.009,0,0.014,0l0.014-0.251l0.159-0.128
		c7.814-0.227,13.1-0.408,15.677-0.408c0.37,0,0.745-0.059,0.745-0.054v0.013c1-0.046,1.584-0.093,2.607-0.093
		c0.527,0,1.182,0.012,1.787,0.036c0.594,0.024,1.009,0.128,1.312,0.237c0.085,0.03,0.179,0.055,0.261,0.078
		c0.043,0.011,0.078,0.017,0.215,0.027l1.078-0.01l2.094,0.132l-0.108,1.752l0.03,1.193l0.01,0.027
		c0.07,0.226,0.1,0.451,0.119,0.764l-2.983,0.297c0.011,0.057,0.027,0.117,0.054,0.18l1.328-0.246l0.271,0.068l1.207-0.054
		l0.006,0.129c0.021-0.064,0.03-0.127,0.039-0.186c-0.006,0.047-0.011,0.115-0.013,0.188l-0.026,0.002l0.063,1.45L51.8,20.756
		c-0.021,0.188-0.034,0.375-0.048,0.552c-0.02,0.261-0.038,0.507-0.072,0.74l0.12,0.217l-0.052,0.475
		c-0.02,0.169-0.031,0.333-0.042,0.495c0.05,0.322,0.06,0.686,0.035,1.184l-0.062,1.22l-0.027,0.004
		c-0.006,0.849-0.014,1.674-0.026,2.303l0.104,0.042l-0.064,1.161c-0.001,0.111-0.006,0.203-0.014,0.286
		c-0.002,0.091,0.004,0.109,0.021,0.188c0.102,0.37,0.178,0.753,0.131,1.694l-0.062,1.261l-0.1,0.262
		c0,0.137-0.006-0.342-0.019,0.658h0.05c0.075,0,0.055,0.79-0.023,1.188c-0.025,0.135-0.06,0.182-0.041,0.812l-0.24-0.027
		c0.141,0.2,0.242,0.42,0.289,0.723l0.044,0.275l-0.071,0.279c-0.076,0.312-0.113,0.507-0.141,0.645
		c-0.023,0.125-0.049,0.25-0.088,0.385l0.098,0.007l-0.012,0.342l0.003,0.005l-0.007,0.178l0.014,0.15
		c0.033,0.891-0.031,1.381-0.09,1.895l-0.021,0.149h-0.005l-0.019,0.271l-0.008,0.166l0.242,0.059l-0.035,0.855
		c-0.027,0.504-0.088,0.787-0.181,1.024c-0.001,0.058-0.002,0.156,0.003,0.312l-0.521,0.129c-0.004,0.117-0.014,0.379-0.014,0.379
		l0.006-0.192h-0.004l-0.002,0.533L50.589,44.5h-0.116l-0.271-0.201l0.649-0.101c-0.004,0.169-0.015,0.286-0.027,0.471l0.062-0.024
		c-0.025,0.5-0.033,0.881-0.037,1.217c-0.004,0.217-0.01,0.38-0.017,0.525c0.162,0.264,0.249,0.545,0.263,0.854
		c0.018,0.552-0.232,1.064-0.688,1.416l-0.421,0.318l-0.858-0.021c-0.718-0.015-1.396-0.029-2.36-0.086l-0.385-0.022l-0.121-0.076
		c-0.191,0.018-0.388,0.025-0.589,0.033l-0.144,0.106l-0.809-0.019c-0.662-0.017-1.291-0.026-2.188-0.08l-0.338-0.021
		c-0.248,0.007-0.486,0.021-0.723,0.034l-0.06-0.25L41.411,48.8c-0.158-0.003-0.478-0.004-0.915-0.004
		c-2.115,0-6.961,0.028-10.501,0.052c-1.856,0.01-3.355,0.021-3.915,0.021c-0.143,0.005-0.28,0.008-0.415,0.008
		c-0.303,0-0.6-0.013-0.908-0.039l0.185,0.166L22.339,48.82z"/>
	<g opacity="0.3">
		<path fill="#333333" d="M52.867,23.5l-0.124-1.128c-0.005-0.049-0.011,0.022-0.017-0.023l-0.024-0.102l0.01-0.133
			c0.013-0.184,0.026-0.356,0.048-0.549l-0.134-0.235l0.072-0.498c0.028-0.201,0.044-0.412,0.062-0.637
			c0.016-0.209,0.03-0.404,0.053-0.599l-0.127-2.809l0.049-0.002l-0.022-0.982l0.021-0.321l-0.539-0.034l-1.082,0.01l-0.063-0.004
			c-0.175-0.014-0.301-0.028-0.462-0.069c-0.158-0.045-0.261-0.078-0.378-0.12c-0.19-0.068-0.426-0.134-0.834-0.151
			c-0.58-0.023-1.14-0.035-1.656-0.035c-0.952,0-1.997,0.043-2.471,0.087l-1.776,0.149v-0.157l-1,0.009V9.671l1.963-0.02
			c0.19,0,0.44,0.006,0.613,0.018c0.596-0.045,1.587-0.09,2.637-0.09c0.588,0,1.235,0.013,1.896,0.039
			c0.733,0.03,1.422,0.14,2.071,0.335l0.688-0.006l6.231,0.393l-0.354,5.567l0.018,0.58c0.08,0.402,0.113,0.775,0.132,1.064
			l0.258,3.862l-0.31,0.031l-0.082,0.75c0.002,0.035,0.009-0.049,0.009-0.049L58.33,23.5H52.867z"/>
	</g>
	<g opacity="0.3">
		<path fill="#333333" d="M5.939,23.5c0,0,0.102-1.506,0.104-1.541l-0.082-0.632l-0.309,0.028l0.256-3.833
			c0.02-0.289,0.052-0.648,0.132-1.05L6.055,15.9l-0.354-5.564l6.23-0.391l0.685,0.007c0.65-0.195,1.328-0.304,2.062-0.334
			c0.658-0.026,1.29-0.039,1.878-0.039c1.049,0,2.007,0.045,2.601,0.09c0.172-0.011,0.354-0.018,0.544-0.018l1.788,0.02
			l-0.023,1.483v4.014l-1-0.009v0.145l-1.607-0.137c-0.473-0.043-1.362-0.087-2.316-0.087c-0.519,0-1.068,0.012-1.65,0.035
			c-0.408,0.017-0.637,0.083-0.828,0.151c-0.119,0.042-0.219,0.075-0.329,0.107c-0.21,0.054-0.334,0.068-0.51,0.082l-0.062,0.004
			l-1.083-0.01l-0.54,0.034l0.021,0.321l-0.025,0.982l0.022,0.001l-0.025,0.927l0.01,0.019l-0.084,1.865
			c0.021,0.197,0.036,0.392,0.051,0.577c0.019,0.248,0.033,0.461,0.063,0.662l0.072,0.501l-0.134,0.242
			c0.021,0.192,0.036,0.379,0.048,0.563l0.01,0.163l-0.024,0.161c-0.007,0.045-0.012-0.144-0.017-0.095L11.4,23.5H5.939z"/>
	</g>
	<g opacity="0.3">
		<path fill="#333333" d="M47.713,54.471c-1.049,0-2.007-0.045-2.602-0.09c-0.172,0.012-0.354,0.018-0.543,0.018l-1.959-0.02
			l-0.146-1.482v-4.015l1,0.011v-0.146l1.777,0.137c0.473,0.044,1.445,0.087,2.398,0.087c0.521,0,1.11-0.012,1.691-0.035
			c0.406-0.016,0.658-0.082,0.852-0.147c0.116-0.042,0.229-0.076,0.34-0.104c0.209-0.057,0.338-0.068,0.516-0.082l0.064-0.006
			l1.084,0.012l0.539-0.035l-0.021-0.32l0.024-0.982l-0.021-0.002l0.022-0.926l-0.01-0.02l0.084-1.864
			c-0.021-0.196-0.035-0.392-0.051-0.577c-0.021-0.248-0.033-0.461-0.062-0.662l-0.07-0.501l0.134-0.241
			c-0.021-0.19-0.034-0.381-0.048-0.562l-0.01-0.162l0.023-0.161c0.006-0.045,0.012,0.118,0.018,0.069l0.123-1.152h5.464
			c0,0-0.104,1.531-0.104,1.565l0.082,0.646l0.309-0.021l-0.258,3.836c-0.02,0.289-0.051,0.648-0.131,1.052l-0.017,0.573
			l0.354,5.562l-6.229,0.393l-0.687-0.006c-0.649,0.192-1.328,0.304-2.062,0.334C48.932,54.458,48.301,54.471,47.713,54.471z"/>
	</g>
	<g opacity="0.3">
		<path fill="#333333" d="M16.556,54.471c-0.588,0-1.22-0.013-1.876-0.039c-0.735-0.029-1.413-0.14-2.063-0.334l-0.685,0.006
			l-6.23-0.394l0.354-5.567l-0.015-0.58c-0.08-0.399-0.112-0.772-0.131-1.062l-0.257-3.86l0.309-0.029l0.082-0.75
			c-0.002-0.035-0.009,0.021-0.009,0.021L5.939,40.5H11.4l0.125,1.152c0.005,0.049,0.01-0.01,0.017,0.035l0.024,0.106l-0.01,0.138
			c-0.012,0.185-0.027,0.355-0.048,0.551l0.134,0.233l-0.072,0.497c-0.029,0.201-0.044,0.413-0.062,0.641
			c-0.016,0.209-0.03,0.4-0.052,0.599l0.127,2.809l-0.05,0.003l0.025,0.982l-0.021,0.32l0.54,0.035l1.083-0.013l0.063,0.004
			c0.176,0.017,0.301,0.028,0.463,0.069c0.158,0.044,0.26,0.078,0.377,0.12c0.193,0.065,0.426,0.135,0.835,0.147
			c0.58,0.023,1.138,0.035,1.656,0.035c0.954,0,1.829-0.043,2.302-0.087l1.607-0.149v0.158l1-0.011v5.497l-1.794,0.02
			c-0.19,0-0.357-0.006-0.529-0.018C18.548,54.426,17.604,54.471,16.556,54.471z"/>
	</g>
</g>
<g>
	<g>
		<g>
			<g>
				<path fill="#BCC0C4" d="M46.283,40.289c0.01-0.086,0.016-0.233,0.018-0.513l-0.023,0.453L46.283,40.289z"/>
				<path fill="#BCC0C4" d="M46.471,42.769c-0.068,0.525-0.033-1.18-0.098-0.812c0.042,0.254-0.039,1.351,0.055,0.825l-0.018,0.533
					L46.471,42.769z"/>
				<path fill="#BCC0C4" d="M46.471,42.769c0.006-0.047,0.014-0.104,0.021-0.191L46.471,42.769z"/>
				<path fill="#BCC0C4" d="M12.465,13.47c0.063,0,0.105,0.003,0.14,0.008c0.057-0.004,0.112-0.008,0.182-0.008H12.465z"/>
				<path fill="#BCC0C4" d="M47.048,40.11c0.011-0.109,0.015-0.237,0.011-0.398L47.048,40.11z"/>
				<path fill="#BCC0C4" d="M46.998,41.192c-0.042,1.059-0.24,0.807-0.297-0.027c-0.024,0.984,0.154,0.959,0.041,1.957l0.135-0.02
					l-0.059,0.561c0.045-0.166,0.1,0.336,0.168,0.057c-0.161,0.303,0.065-2.044-0.146-1.171c0.158-0.644,0.182-1.435,0.208-2.438
					c-0.032,0.322-0.118,0.48-0.185,0.754L46.998,41.192z"/>
				<path fill="#BCC0C4" d="M17.206,13.844l0.716-0.009C17.538,13.831,17.32,13.835,17.206,13.844z"/>
				<path fill="#BCC0C4" d="M15.355,13.553c0.78,0.062,0.158,0.126,1.07,0.132C16.144,13.659,16.129,13.569,15.355,13.553z"/>
				<path fill="#BCC0C4" d="M10.697,40.289c-0.029,0.188-0.074,0.138-0.08,0.718c0.027-0.242,0.058-0.443,0.091-0.646L10.697,40.289
					z"/>
				<path fill="#BCC0C4" d="M10.618,41.021l0.003,0.551c0.014,0.113,0.024,0.172,0.034,0.193
					C10.657,41.397,10.697,40.965,10.618,41.021z"/>
				<path fill="#BCC0C4" d="M10.689,40.229l0.008,0.06c0.014-0.086,0.023-0.233,0.025-0.513L10.689,40.229z"/>
				<path fill="#BCC0C4" d="M10.491,39.978c0.071-0.291-0.02-0.629-0.02-0.979C10.329,39.929,10.488,38.925,10.491,39.978z"/>
				<path fill="#BCC0C4" d="M15.725,44.203c0.483,0.06-0.739,0.259,1.021,0.179C16.732,44.312,16.262,44.235,15.725,44.203z"/>
				<path fill="#BCC0C4" d="M47.064,38.799l-0.019,0.425C47.066,39.149,47.074,38.938,47.064,38.799z"/>
				<path fill="#BCC0C4" d="M47.232,28.326c-0.016,0.062-0.027,0.127-0.039,0.214L47.232,28.326z"/>
				<polygon fill="#BCC0C4" points="47.18,25.948 47.176,25.986 47.251,26.009 				"/>
				<path fill="#BCC0C4" d="M47.465,16.128v-0.002l-0.09-0.079l-0.041,0.077c0.016-0.332,0.016-0.59,0.064-0.209
					c-0.02-0.275,0.062-0.355,0.045-0.407c-0.018-0.064,0.021-0.034,0.021-0.315v-0.01l-0.146-1.38l-0.034-0.321l-0.566-0.034
					l-1.092,0.024L44.8,13.499h-0.003l-0.07-0.003l0.069-0.005c-0.209-0.01-0.38-0.009-0.358-0.031
					c0.024,0.017,0.18,0.039,0.358,0.039H44.8l0.813-0.027c-0.356-0.023-0.438-0.059-0.572-0.094
					c-0.122-0.035-0.221-0.074-0.32-0.11c-0.201-0.072-0.408-0.136-0.816-0.153c-1.831-0.072-2.989-0.021-4.057,0.064l0.823,0.023
					c0.851,0.035,0.745,0.292,1.784,0.354c-1.039-0.062-0.934-0.318-1.784-0.354l-0.823-0.023
					c-1.002,0.081-11.929,0.184-13.251,0.249c1.323-0.071,12.249-0.188,13.251-0.27c-2.932-0.06-13.809,0.267-16.761,0.353
					c-0.2,0.049-0.436-0.012-0.714-0.012h-0.017l-0.423,0.031c0.134,0.012,0.22,0.016,0.271,0.029
					c-0.104-0.002-0.205-0.011-0.319-0.003l0.049,0.003l0.276-0.004c0.322,0.087-0.931,0.205,0.226,0.252
					c-0.132-0.033-0.2-0.049-0.14-0.074c0.456,0.032,1.104,0.072,1.305,0.121c-0.671,0.064-0.838-0.075-1.125-0.012
					c-0.416-0.018-0.854-0.032-1.054-0.062c-0.058,0.056-0.244,0.104-0.458,0.146c-0.319-0.062-1.403-0.062-1.744-0.115
					c-0.004,0.005-0.016,0.01-0.021,0.015L18.9,13.814l0.107,0.087l-0.134,0.033c-0.193-0.005-0.417-0.012-0.522-0.038
					c0.049,0.027,0.207,0.05,0.36,0.071c-0.083,0.017-0.169,0.032-0.251,0.048c-0.31-0.011-0.616-0.022-0.933-0.034
					c-0.034-0.019-0.079-0.039-0.146-0.061c0.064-0.026,0.039-0.05-0.249-0.066c0.016-0.004,0.035-0.008,0.072-0.011l-0.125,0.002
					l0.039,0.009l-0.213-0.01l0.146,0.115c-0.195-0.008-0.518-0.007-0.65-0.039c0.018,0.009,0.051,0.018,0.089,0.025
					c-0.015,0-0.028-0.001-0.043-0.002l-0.028,0.009c-0.222-0.011-0.443-0.021-0.663-0.042c0.046-0.019,0.093-0.215,0.136-0.229
					l0.115-0.184h-0.109c0.145,0,0.218,0.111-0.166,0.051l-1.04,0.184l0.7,0.163c0.039,0.01,0.083,0.043,0.123,0.054
					c-0.065,0.003-0.146,0.021-0.25,0.027l-0.408-0.006l-0.393-0.011v0.001l0.393,0.015c-0.082-0.021-0.108-0.048-0.146-0.074
					l0.129,0.002l-0.139-0.013c-0.086-0.059-0.22-0.115-0.928-0.131c0.193,0.006,0.322-0.001,0.576-0.013l-0.466-0.082l-0.151,0.012
					l-0.891-0.048l-0.066,0.027l0.899,0.025l-0.345,0.027c-1.034-0.004-0.445-0.192-0.726-0.232
					c-0.261,0.018-0.408,0.062-0.518,0.043c-0.156-0.023-0.148-0.01-0.552-0.03c-0.139,0.112-1.031,0.06-1.14,0.108
					c0.005,0.021,0.013,0.046,0.021,0.052l-0.063,0.872l-0.006-0.226c-0.029,0.139-0.047,0.317-0.058,0.521l-0.01,0.286
					l-0.003,0.191c-0.001,0.119,0.002,0.246,0.003,0.378l0.021,0.586c0.022,0.02,0.165,0.057,0.165,0.106v0.009
					c0-0.003,0-0.005,0-0.008c0,0.005,0,0.014,0,0.019c0,0.001,0,0.003,0,0.004c0,0.07-0.105,0.129-0.104,0.182l-0.073,0.373
					c0.015-0.068-0.008-0.133-0.006-0.217c-0.002,0.084-0.021,0.148-0.035,0.218l0.021,0.178c-0.005,0.036-0.014,0.071-0.019,0.117
					c0.013,0.011,0.02,0.03,0.028,0.05l-0.023,0.144c0.029,0.023,0.047,0.078,0.061,0.147l0.005,0.111
					c-0.001,0.1-0.001,0.191,0.009,0.246l0.01,0.254l-0.045,0.37l-0.007-0.138c-0.128,0.376-0.05,0.992-0.081,1.698
					c0.055,2.567-0.008,7.304,0.136,9.108c-0.022,0.131-0.048,0.204-0.077,0.16l0.091,0.117c-0.066,0.193-0.083,0.697-0.101,1.144
					c-0.013,0.02-0.025,0.024-0.039,0.007l0.037,0.047c-0.019,0.469,0.086,0.854,0.002,0.703c0.05,0.252,0.081,0.211,0.103,0.032
					c-0.041,0.711,0.183,1.644,0.054,1.41c0.137,0.684-0.357-0.582-0.314-1.289c0.037,0.09,0.063,0.211,0.062,0.344
					c0.042-0.403,0.211-0.894,0.157-1.122c0.006-0.16,0.016-0.288,0.026-0.404c0.009,0.051,0.014,0.104,0.014,0.162
					c0.019-0.183,0.03-0.379,0.032-0.56c0.004-0.021,0.006-0.043,0.009-0.062c0.005,0.062,0.011,0.134,0.017,0.195l-0.057,0.854
					c0.021,0.302-0.113,0.657-0.092,1.029c-0.04,0.341,0.334,0.573,0.353,0.771c-0.024,0.243-0.049,0.563-0.109,0.416
					c0.064,0.961,0.083,0.295,0.15-0.108c0.042,0.262,0.089,0.548,0.07,1.081l-0.018,0.308c-0.019-0.149-0.034-0.247-0.048-0.308
					c0.004-0.115,0.012-0.238,0.012-0.352c-0.141,0.021-0.338,0.44-0.332,0.917c-0.018,0.101-0.041,0.147-0.074,0.066
					c0.032,0.475,0.057,0.562,0.08,0.485c-0.001,0.136-0.004,0.263-0.014,0.377c-0.006,0.071-0.015,0.137-0.025,0.191
					c-0.014,0.072-0.03,0.137-0.055,0.182l-0.008-0.129l-0.09,0.526c0.064,0.188,0.107,0.021,0.141-0.272l0.198,1.026
					c-0.05,0.331-0.036,0.269-0.012,0.275c-0.013,0.186-0.038,0.339-0.088,0.432l-0.009-0.139l-0.098,0.573
					c0.105,0.312,0.158-0.254,0.201-0.862c0.02,0.021,0.043,0.104,0.044,0.483c0.063-0.258-0.204-0.556-0.21-0.861
					c0.02-0.282-0.05-0.528-0.025-0.661c0.021,0.298,0.166,0.713,0.166,0.953v0.005l-0.032,0.701
					c0.048,0.421,0.108,1.638,0.199,1.477c-0.007-0.029,0.008-0.072-0.001-0.146c0.009,0.074,0.027,0.117,0.035,0.146
					c0.021,0.1-0.09-0.009-0.078-0.169l-0.123-0.003v0.395v-0.336v0.69c0,0.078-0.025,0.154-0.037,0.229l0.037,0.261v0.387v0.011
					c0,0.17,0.092,0.851,0.05,0.748c-0.001,0.075-0.058,0.149-0.053,0.215c0.028-0.095,0.003-0.187,0.003-0.276
					c0,0.021,0,0.043,0,0.062c0,0.04,0.008-0.043,0.01-0.166c0-0.006-0.01-0.012-0.01-0.017v0.623c0,0.099,0.108,0.192,0.094,0.282
					c-0.045,0.31-0.014,0.668-0.049,1.119c0.058-0.099,0.094,0.146,0.086,0.476c0.27,0.006,0.617-0.218,0.877-0.229
					c-0.238-0.062-0.432-0.354-0.66-0.354h1.475c0.281,1,0.555,0.383,0.772,0.432c-0.023-0.002-0.046,0.115-0.069,0.113
					c0.443,0.053-0.678,0.296,0.936,0.225c-0.006-0.045-0.214-0.062-0.502-0.098c0.002-0.016,0.014-0.016,0.039-0.027
					c1.113-0.056,2.295-0.082,3.506-0.107c0.298,0.076,0.561,0.138,0.689,0.16l0.031,0.004c-0.014-0.014-0.021-0.025-0.018-0.039
					c0.625,0.104,1.256,0.186,2.043,0.152l1.695-0.021c0.5,0.064,1.026,0.104,1.643,0.078c1.754-0.006,14.055-0.092,15.391-0.066
					l-0.064,0.026c0.428-0.028,0.823-0.04,1.2-0.044l0.047,0.029c0.994,0.059,1.644,0.064,2.423,0.084
					c0.036-0.027,0.059-0.057,0.072-0.084c0.484-0.004,0.975-0.025,1.505-0.088l0.229,0.144c1.084,0.063,1.9,0.071,2.752,0.091
					c0.215-0.165-0.143-0.373-0.143-0.58v-0.342c0,0.002-0.061,0.006-0.031,0.009c0.018-0.196-0.033-0.417-0.027-0.726
					c0.005-0.35-0.016-0.764,0.011-1.283l-0.009,0.951l0.059,0.338v-1.102c0,0.016-0.105,0.031-0.104,0.039
					c0-0.123-0.051-0.385-0.049-0.502c0.002,0.117-0.023,0.234-0.023,0.234h-0.014c-0.004,0,0.188,0.277,0.188,0.268v0.215
					c0-0.309-0.017-0.596-0.007-0.943c-0.008-0.041-0.065-0.059-0.074-0.059c0.009,0-0.013,0.018-0.005,0.059l0.002,0.086
					l-0.021-0.131c0.012-0.407,0.004-0.9,0.041-1.613l-0.109,0.982l0.113,0.045c-0.021,0.188,0.061,0.377,0.061,0.602v-0.217
					c0-0.148-0.081-0.292-0.062-0.43l0.047-0.071c-0.012,0.101,0.018,0.136,0.018,0.235v-0.957c0,0.002,0.008-0.002,0.014-0.015
					l-0.014-0.147c0-0.043,0-0.084,0-0.123v-0.441c0-0.076-0.107-0.142-0.105-0.195l-0.051-0.021
					c-0.006,0.146-0.035,0.385-0.028,0.786l0.084,0.147c0.017,0.099,0.103-0.01,0.103-0.17v-0.003v0.394l-0.037-0.908
					c0.01-0.012-0.021,0.021-0.007,0.129l-0.054-0.298l0.003-0.382c0.077-0.084,0.112,0.75,0.036,1.186
					c0.061,0.901,0.054-1.203,0.087-0.158c0.06-1.753-0.067-0.222-0.101-1.562c0.176,0.809,0.213,1.874,0.492,2.444
					c-0.029-1.117,0.125-0.508,0.178-1.428l0.033-0.847l-0.269,1.09c-0.011-0.403-0.001-0.731,0.019-1.021
					c-0.002-0.006-0.004-0.013-0.008-0.02l0.049-0.484c0.008-0.352,0.021-0.733-0.017-0.727c0.043-0.027,0.026,0.366,0.021,0.727
					c0.062-0.594,0.144-1.103,0.108-2.009l-0.021-0.045c-0.022,0.572-0.063,1.058-0.162,1.474c-0.004,0.013-0.006,0.018-0.008,0.029
					c0.104-0.423,0.146-0.918,0.168-1.503c-0.027-0.054-0.051-0.069-0.071-0.062c0.021-0.008,0.045,0.009,0.073,0.062l0.021-0.731
					c-0.026,0.296-0.106,0.439-0.169,0.688l0.021,0.051l0,0v0.002c-0.062,0.133-0.103,0.336-0.223-0.399
					c0.004-0.447,0.021-0.677,0.049-0.795c0.047,0.214,0.103,0.407,0.178,0.561l-0.004-0.254c0.174-0.271,0.103-0.301,0.324-1.203
					c-0.047-0.297-0.101,0.068-0.162,0.443c0.008-0.088,0.01-0.207,0.004-0.296l-0.017,0.402c-0.044,0.262-0.094,0.565-0.146,0.565
					c-0.002,0-0.004,0-0.006,0c0.021-1,0.125-0.24,0.164-0.927l0.032-0.799l-0.049,0.188l0.004-0.11L46.9,33.285
					c-0.004-1.052,0.123-1.211,0.213-0.873c-0.039-1.606,0.205-1.013,0.076-2.255c-0.062,0.429-0.178,0.724-0.194,1.148l0.007-0.562
					l-0.029,0.124l-0.008-0.354c-0.016-0.037-0.029-0.062-0.042-0.076c0.058-0.5,0.261,0.354,0.22-1.328
					c-0.008,0.563-0.08,0.151-0.135,0.019l0.025-0.164l0.093-0.403c-0.01-0.063-0.021-0.095-0.028-0.101
					c0.057-0.555,0.09-1.051,0.213-0.917c0.016,0.475-0.033,0.599-0.076,0.783c0.022-0.066,0.052-0.079,0.078-0.082
					c0.067-1.371-0.174-1.067-0.152-1.899c0.008-0.066,0.013-0.141,0.011-0.242l0.009-0.116l-0.013-0.005
					c-0.004-0.103-0.015-0.226-0.028-0.383L47.1,25.798c0.049-0.688,0.061-3.777,0.067-4.334l0.007-0.041
					c0.021-0.063,0.047-0.073,0.072-0.077c0.029-0.584-0.004-0.834-0.045-1.013c0.014-0.246,0.029-0.495,0.059-0.754l-0.141-0.254
					l0.004-0.051l-0.038-0.01l-0.006-0.012c0.157-0.236,0.267-0.946,0.343-1.656L47.465,16.128z M46.298,38.192l-0.005,0.024
					l-0.025-0.032l0.041-0.242l-0.013,0.231L46.298,38.192z M21.167,14.251c0.161,0.088,0.301,0.151,0.976,0.219h-0.003
					C21.467,14.402,21.328,14.339,21.167,14.251z M22.494,14.134c0.231,0.018,0.222,0.052,0.164,0.093
					c-0.279-0.017-0.321-0.039-0.183-0.079C22.463,14.141,22.473,14.137,22.494,14.134z M24.842,14.211
					c0.205,0.017,0.273,0.04,0.238,0.073C24.752,14.273,24.771,14.245,24.842,14.211z M24.384,13.702
					c-0.011,0.016,0.023,0.031,0.136,0.044C24.402,13.733,24.37,13.718,24.384,13.702z M24.75,13.712
					c-0.001,0.018,0.067,0.034,0.176,0.061c-0.002,0-0.002,0-0.003,0C24.816,13.746,24.749,13.729,24.75,13.712z M10.666,13.767
					c0.001,0,0.002,0.001,0.003,0.001c-0.001,0.001-0.002,0.002-0.003,0.003C10.666,13.77,10.666,13.768,10.666,13.767z
					 M24.331,14.499h-0.204C24.203,14.499,24.27,14.499,24.331,14.499z M46.396,35.324c0.006-0.06,0.01-0.099,0.014-0.13
					c0,0,0,0,0,0.002C46.406,35.228,46.402,35.267,46.396,35.324c0,0.106,0.002,0.202,0.002,0.29c0,0.002,0,0.006,0,0.008
					C46.398,35.532,46.396,35.437,46.396,35.324z M25.432,13.489c0.048-0.004,0.097-0.007,0.142-0.015
					C25.526,13.481,25.479,13.487,25.432,13.489z M24.738,13.567c-0.006-0.022-0.096-0.045-0.349-0.066l0.101-0.002
					C24.691,13.52,24.753,13.544,24.738,13.567z M23.853,14.274c0.383-0.025,0.638-0.043,0.632-0.084
					c0.04,0.002,0.071,0.004,0.106,0.006l-0.137,0.07l-0.154,0.001c-0.076,0.022-0.044,0.04,0.047,0.056l-0.482-0.027l-0.225-0.115
					c-0.383,0.018-0.638,0.03-0.633,0.06c-0.031-0.001-0.056-0.094-0.085-0.095l0.116-0.176h0.096c0.021,0,0.043,0.004,0.051,0.005
					c-0.008-0.002-0.021-0.005-0.031-0.005h0.039c0.076,0,0.044,0.035-0.047,0.014l0.482,0.085
					C23.704,14.116,23.762,14.214,23.853,14.274z M22.417,14.13c-0.251,0-0.527,0.002-0.779,0l-0.326-0.08
					c0.318,0.006,0.615,0.031,0.896,0.055l-0.107,0.017C22.233,14.122,22.334,14.125,22.417,14.13z M21.269,14.122
					c-0.059-0.002-0.111-0.006-0.16-0.009c0.002-0.001,0.007-0.003,0.01-0.004L21.269,14.122z M11.594,13.748
					c-0.02,0.007-0.043,0.013-0.061,0.02l-0.009-0.001c0.015-0.006,0.034-0.013,0.054-0.019c0.033-0.012,0.049-0.023-0.011-0.033
					l0.038,0.001C11.65,13.726,11.626,13.736,11.594,13.748z M10.513,14.206c-0.004,0.098-0.008,0.204-0.012,0.33
					c0.02,0.109,0.034,0.15,0.047,0.142c-0.013,0.011-0.027-0.031-0.047-0.142l-0.002,0.072c-0.002-0.051-0.006-0.099-0.006-0.154
					c0-0.01,0-0.021-0.001-0.031c0-0.094,0.003-0.199,0.009-0.311C10.504,14.145,10.507,14.177,10.513,14.206z M10.715,38.176
					l0.016-0.22l0.003-0.014l-0.017,0.231l0.002,0.019v0.004L10.715,38.176z M44.604,13.398c-0.045,0.006-0.078,0.012-0.104,0.017
					c-0.359,0.028-0.214,0.043-0.48,0.101C44.309,13.454,44.1,13.433,44.604,13.398z M24.425,13.492
					c0.01,0.001,0.019,0.002,0.028,0.003c-0.037,0.002-0.068-0.002-0.107,0l-0.021-0.002C24.361,13.491,24.391,13.494,24.425,13.492
					z M20.277,14.04c-0.411,0.004-0.79,0-1.152-0.007c0.117-0.046,0.326-0.091,1.002-0.154
					C20.347,13.933,20.422,13.985,20.277,14.04z M14.469,13.87c-0.041-0.008-0.111-0.018-0.216-0.03l0,0
					c0.105,0.013,0.177,0.022,0.218,0.03H14.469z M12.849,13.798L12.849,13.798c-0.183-0.01-0.338-0.023-0.424-0.047l0,0
					C12.51,13.774,12.666,13.788,12.849,13.798z M10.499,14.093c-0.005,0.029-0.008,0.057-0.013,0.085
					c-0.003-0.093-0.005-0.195-0.009-0.314C10.479,13.95,10.488,14.02,10.499,14.093z M10.657,32.284
					c0.005,0.078,0.01,0.156,0.015,0.232c-0.004,0.004-0.008,0.006-0.011,0.017c-0.003,0.001-0.005,0.005-0.008,0.009
					C10.65,32.476,10.654,32.384,10.657,32.284z M46.246,41.037c0-0.002,0-0.005-0.001-0.006v-0.011
					C46.245,41.013,46.246,41.021,46.246,41.037z M46.32,37.711l-0.064,0.37l-0.043-0.321c0-0.292,0.032-0.599,0.032-0.901v0.111
					h0.032c0.012,0,0.037-0.314,0.043-0.445c0.007,0.035,0.021,0.041,0.031,0.068c-0.006-0.055-0.004-0.109-0.01-0.156
					c0.01-0.002,0.021,0,0.029,0.021C46.359,36.874,46.343,37.302,46.32,37.711z M46.797,37.964c0.004,0,0.008-0.002,0.01,0
					c-0.004,0.005-0.008,0.014-0.012,0.028L46.797,37.964z M46.838,36.366c-0.009-0.001-0.018-0.008-0.027-0.02
					C46.82,36.358,46.829,36.365,46.838,36.366z M46.784,34.624l-0.038-0.477c0.021-0.015,0.044-0.014,0.062-0.029l0.006,0.018
					l0.014,0.277c0.002,0.001,0.004-0.001,0.006,0l-0.004,0.186L46.784,34.624z M46.771,29.7l-0.026-0.446
					c0.026-0.008,0.05-0.007,0.065-0.067v0.065l-0.006,0.396C46.795,29.665,46.785,29.681,46.771,29.7z"/>
				<g>
					<rect x="11.465" y="14.499" fill="#FFFFFF" width="35" height="29"/>
					<g>
						<g>
							<g>
								<path fill="#FFFFFF" d="M45.027,37.964l-0.008,0.064l-0.004,0.227c0.088,0.262,0.063,0.788,0.039,1.48
									c0.025,0,0.055-0.062,0.066,0.186c-0.057,1.1,0,0.549,0.055,1.344c0-0.244-0.007-0.552,0.021-0.673l0.027,1.526
									c0.053-0.21,0.108-0.383,0.15-0.127c0.104-0.155,0.23,0.349,0.343,0.538c0.015-0.273,0.028-0.491,0.044-0.593
									c0.045,0.035,0.063,0.297,0.071,0.617c0.013-0.023,0.021-0.053,0.033-0.101c-0.013,0.048-0.021,0.075-0.033,0.101
									l0.002,0.666c0.015-0.123,0.026-0.246,0.048-0.187v-0.917c0.012-0.029,0.02,0,0.025,0.056l-0.025-0.235l-0.025,0.182
									c-0.021,0.062-0.034-0.061-0.049-0.182c-0.008-0.244,0.015-0.309,0.026-0.43l-0.048-0.488
									c-0.082-0.185-0.049,1.285-0.122,0.488l0.021-0.242c-0.021-0.367-0.021-0.855-0.076-1.102
									c0.097-0.367-0.073-1.039,0.057-1.102c0.062-1.404-0.041-3.238,0.096-4.646c-0.089-0.244-0.259-0.244-0.367-0.854
									c0.015-0.121,0.026-0.307,0.049-0.244l-0.049-0.428c0,0.244,0.008,0.551-0.026,0.672c-0.04-0.672-0.074,0.307-0.122,0.246
									l-0.048-0.918l-0.019,0.109l-0.156,4.921L45.027,37.964z"/>
								<path fill="#FFFFFF" d="M41.23,14.085l0.02,0.102c-4.294,0.079-9.042,0.093-14.062,0.076l-16.259-0.11l-0.073,10.798
									l-0.016,10.162l-0.381-0.423l0.186,4.219l0.086,2.158l0.087,2.832l2.149-0.063l1.452-0.067l2.771-0.15l-1.682-0.066
									c1.54-0.211,5.478-0.346,7.906-0.298l-0.24,0.101c-3.327,0.056,0.226,0.03-1.122,0.304l-0.578,0.051l0.339,0.048l0.579-0.05
									c-0.065,0.058-0.016,0.131-0.562,0.151l0.771,0.011c1.659,0.271,1.662,0.503,1.455,0.805
									c0.435-0.036-0.019-0.334,1.831-0.235l-0.241,0.1l2.024-0.178l0.902,0.131c0.722-0.062,1.188-0.131,1.928-0.092l0.226-0.198
									c3.312,0.073,7.488-0.158,10.851-0.011c0.736-0.193,2.541,0.062,4.42-0.101l-0.809-0.215
									c-2.026-0.289-6.771-0.138-10.051-0.24l0.129-0.114c0.688-0.032,1.188-0.127,2.039-0.071l0.225-0.2
									c-1.438-0.703-5.915,0.15-7.104,0.048c-2.526-0.194,1.651-0.428,0.445-0.399c2.776-0.269-2.32-0.498-3.497-0.73
									c-1.635-0.232-4.248-0.291-6.993-0.289l-7.449,0.07c-0.058,0.023-0.133,0.048-0.222,0.066
									c-0.023-0.059-0.044-0.143-0.062-0.244c-0.002-0.021-0.005-0.002-0.007-0.062l-0.006-0.172l-0.012-0.347l-0.02-0.695
									l-0.042-2.866c-0.01-1.937,0.012-3.923,0.045-5.886c0.066-3.925,0.179-7.76,0.174-10.93c0.017-0.864-0.027-1.87-0.087-2.919
									l-0.097-1.593l-0.089-0.571c0.121-0.021,0.263-0.037,0.406-0.044l0.473-0.005l0.571,0.01
									c0.738,0.024,1.374,0.095,1.846,0.238l5.999,0.126l-0.128,0.114c5.838,0.037,12.28-0.238,17.729-0.323
									c2.38-0.025,3.101-0.32,4.182,0l0.592,0.023l0.299,0.009l0.09,0.008c0.086,0.009,0.166,0.015,0.248,0.017l0.037,1.976
									l0.103,3.202c0.077,2.128,0.161,4.22,0.179,6.144c0.104-0.017,0.209,0.625,0.266-0.228
									c-0.127-2.362,0.129-5.082,0.404-5.165l-0.025,0.884l0.226-1.578l-0.088-1.013c0.067-0.259,0.122-0.375,0.165-0.393
									c0.049-0.863,0.135-1.669,0.229-2.484c0.047-0.434,0.096-0.757,0.146-1.294l0.136-1.822l-0.042-0.003l-1.403,0.044
									l-1.268,0.013C43.098,14.183,42.232,14.153,41.23,14.085z"/>
							</g>
						</g>
					</g>
				</g>
				<path fill="#BCC0C4" d="M47.016,34.366l-0.012,0.367C47.016,34.633,47.02,34.515,47.016,34.366z"/>
				<path fill="#BCC0C4" d="M46.949,38.044c-0.062,0.115-0.062-0.188-0.055-0.525l-0.045,0.504
					C46.879,38.097,46.912,38.194,46.949,38.044z"/>
				<path fill="#BCC0C4" d="M13.654,13.604c0.716,0.057,0.145,0.115,0.982,0.122C14.377,13.702,14.366,13.62,13.654,13.604z"/>
				<polygon fill="#BCC0C4" points="10.616,41.021 10.618,41.021 10.618,41.007 				"/>
				<polygon fill="#BCC0C4" points="47.125,19.24 47.123,19.274 47.191,19.295 				"/>
			</g>
			<path fill="#BCC0C4" d="M50.025,15.115"/>
		</g>
		<path fill="#F5F2F7" d="M12.465,16.271h32v25.229h-32V16.271z"/>
	</g>
</g>
<g>
	<g>
		<g>
			<path fill="#FFFFFF" d="M49.867,20.5l-0.124-1.128c-0.005-0.049-0.011,0.022-0.017-0.023l-0.024-0.102l0.01-0.133
				c0.013-0.184,0.026-0.356,0.048-0.549l-0.134-0.235l0.072-0.498c0.028-0.201,0.044-0.412,0.062-0.637
				c0.016-0.209,0.03-0.404,0.053-0.599l-0.127-2.809l0.049-0.002l-0.022-0.982l0.021-0.321l-0.539-0.034l-1.082,0.01l-0.063-0.004
				c-0.175-0.014-0.301-0.028-0.462-0.069c-0.158-0.045-0.261-0.078-0.378-0.12c-0.19-0.068-0.426-0.134-0.834-0.151
				c-0.58-0.023-1.14-0.035-1.656-0.035c-0.952,0-1.997,0.043-2.471,0.087l-1.776,0.149v-0.157l-1,0.009V6.671l1.963-0.02
				c0.19,0,0.44,0.006,0.613,0.018c0.596-0.045,1.587-0.09,2.637-0.09c0.588,0,1.235,0.013,1.896,0.039
				c0.733,0.03,1.422,0.14,2.071,0.335l0.688-0.006L55.57,7.34l-0.354,5.567l0.017,0.58c0.08,0.402,0.113,0.775,0.133,1.064
				l0.258,3.862l-0.311,0.031l-0.082,0.75c0.002,0.035,0.01-0.049,0.01-0.049l0.09,1.355H49.867z"/>
		</g>
		<g>
			<path fill="#BCC0C4" d="M42.465,10.659v0.013c0-0.046,1.334-0.093,2.357-0.093c0.527,0,1.057,0.012,1.662,0.036
				c0.594,0.024,0.945,0.128,1.25,0.237c0.086,0.03,0.146,0.055,0.228,0.078c0.044,0.011,0.065,0.017,0.201,0.027l1.071-0.01
				l2.09,0.132l-0.113,1.752l0.03,1.193l0.008,0.027c0.071,0.226,0.099,0.452,0.119,0.764l-0.124,0.245l0.006,0.129
				c0.02-0.064,0.032-0.127,0.039-0.186c-0.006,0.047-0.01,0.115-0.012,0.188l-0.027,0.002l0.064,1.45L51.3,16.757
				c-0.021,0.188-0.032,0.375-0.048,0.552c-0.021,0.261-0.038,0.507-0.07,0.74l0.118,0.217l-0.052,0.475
				c-0.021,0.169-0.031,0.348-0.042,0.509c0.015,0.075,0.021,0.247,0.024,0.247h2.502c-0.006,0-0.008-0.217-0.018-0.311
				c0.004-0.052,0.01-0.112,0.016-0.166l0.142-1.27l-0.129-0.233c0.002-0.014,0.003-0.029,0.004-0.043
				c0.01-0.126,0.021-0.258,0.03-0.388l0.24-0.024l-0.16-2.414c-0.021-0.312-0.053-0.645-0.131-0.988l-0.021-0.784l0.265-4.137
				l-4.68-0.295l-0.87,0.008c-0.409-0.138-1.024-0.303-1.897-0.338c-0.633-0.025-1.242-0.038-1.813-0.038
				c-1.086,0-2.052,0.049-2.601,0.095c-0.17-0.015-0.241-0.022-0.438-0.022c-0.111,0-0.213,0.001-0.213,0.002v2.5
				c0-0.001,0.211-0.002,0.323-0.002C42.021,10.651,42.465,10.654,42.465,10.659z"/>
		</g>
		<g>
			<path fill="#FFFFFF" d="M2.939,20.5c0,0,0.102-1.506,0.104-1.541l-0.082-0.632l-0.309,0.028l0.256-3.833
				c0.02-0.289,0.052-0.648,0.132-1.05L3.055,12.9L2.701,7.336l6.23-0.391l0.685,0.007c0.65-0.195,1.328-0.304,2.062-0.334
				c0.658-0.026,1.29-0.039,1.878-0.039c1.049,0,2.007,0.045,2.601,0.09c0.172-0.011,0.354-0.018,0.544-0.018l1.788,0.02
				l-0.023,1.483v4.014l-1-0.009v0.145l-1.607-0.137c-0.473-0.043-1.362-0.087-2.316-0.087c-0.519,0-1.068,0.012-1.65,0.035
				c-0.408,0.017-0.637,0.083-0.828,0.151c-0.119,0.042-0.219,0.075-0.329,0.107c-0.21,0.054-0.334,0.068-0.51,0.082l-0.062,0.004
				l-1.083-0.01l-0.54,0.034l0.021,0.321l-0.025,0.982l0.022,0.001l-0.025,0.927l0.01,0.019L8.46,16.598
				c0.021,0.197,0.036,0.392,0.051,0.577c0.019,0.248,0.033,0.461,0.063,0.662l0.072,0.501L8.509,18.58
				c0.021,0.192,0.036,0.379,0.048,0.563l0.01,0.163l-0.024,0.161c-0.007,0.045-0.012-0.144-0.017-0.095L8.4,20.5H2.939z"/>
		</g>
		<g>
			<path fill="#BCC0C4" d="M16.153,8.174c-0.546-0.046-1.513-0.095-2.598-0.095c-0.571,0-1.183,0.013-1.816,0.038
				c-0.874,0.035-1.488,0.2-1.897,0.338l-0.87-0.008L4.293,8.742l0.264,4.137l-0.021,0.784c-0.078,0.344-0.11,0.676-0.131,0.988
				l-0.16,2.414l0.241,0.024c0.014,0.13,0.023,0.262,0.032,0.388c0.001,0.014,0.002,0.028,0.003,0.042L4.394,17.75l0.139,1.267
				c0.006,0.054,0.011,0.121,0.016,0.173c-0.01,0.093-0.012,0.31-0.018,0.31h2.5c0.008,0,0.017-0.172,0.028-0.247
				c-0.011-0.161-0.023-0.333-0.042-0.502l-0.053-0.479l0.121-0.219c-0.034-0.233-0.053-0.479-0.072-0.741
				C7,17.136,6.986,16.948,6.966,16.76l-0.013-0.114l0.065-1.45l-0.027-0.002c-0.003-0.073-0.007-0.141-0.012-0.188
				C6.986,15.064,7,15.126,7.02,15.191l0.006-0.129L6.9,14.816c0.021-0.313,0.047-0.538,0.119-0.764l0.008-0.027l0.031-1.193
				L6.947,11.08l2.092-0.132l1.073,0.01c0.136-0.01,0.164-0.017,0.208-0.027c0.08-0.023,0.154-0.048,0.24-0.078
				c0.305-0.109,0.686-0.213,1.278-0.237c0.605-0.024,1.41-0.036,1.938-0.036c1.023,0,1.688,0.047,2.688,0.093V10.66
				c0-0.005,0.443-0.008,0.677-0.008c0.112,0-0.677,0.001,0.323,0.002v-2.5c-1-0.001-0.432-0.002-0.544-0.002
				C16.727,8.151,16.324,8.159,16.153,8.174z"/>
		</g>
		<g>
			<path fill="#FFFFFF" d="M44.713,51.471c-1.049,0-2.007-0.045-2.602-0.09c-0.172,0.012-0.354,0.018-0.543,0.018l-1.959-0.02
				l-0.146-1.482v-4.015l1,0.011v-0.146l1.777,0.137c0.473,0.044,1.445,0.087,2.398,0.087c0.521,0,1.11-0.012,1.691-0.035
				c0.406-0.016,0.658-0.082,0.852-0.147c0.116-0.042,0.229-0.076,0.34-0.104c0.209-0.057,0.338-0.068,0.516-0.082l0.064-0.006
				l1.084,0.012l0.539-0.035l-0.021-0.32l0.024-0.982l-0.021-0.002l0.022-0.926l-0.01-0.02l0.084-1.864
				c-0.021-0.196-0.035-0.392-0.051-0.577c-0.021-0.248-0.033-0.461-0.062-0.662l-0.07-0.501l0.134-0.241
				c-0.021-0.19-0.034-0.381-0.048-0.562l-0.01-0.162l0.023-0.161c0.006-0.045,0.012,0.118,0.016,0.069l0.125-1.152h5.464
				c0,0-0.104,1.531-0.104,1.565l0.082,0.646l0.309-0.021l-0.258,3.836c-0.02,0.289-0.051,0.648-0.131,1.052l-0.017,0.573
				l0.354,5.562l-6.229,0.393l-0.687-0.006c-0.649,0.192-1.328,0.304-2.062,0.334C45.932,51.458,45.301,51.471,44.713,51.471z"/>
		</g>
		<g>
			<path fill="#BCC0C4" d="M53.863,43.398l0.16-2.414l-0.241-0.023c-0.013-0.13-0.022-0.262-0.032-0.388
				c-0.001-0.015-0.002-0.028-0.004-0.042l0.129-0.231l-0.139-1.267c-0.006-0.055-0.012-0.146-0.016-0.197
				c0.01-0.094,0.01-0.336,0.016-0.336h-2.5c-0.008,0-0.016,0.197-0.027,0.271c0.012,0.162,0.023,0.346,0.042,0.516l0.052,0.484
				l-0.119,0.222c0.033,0.231,0.053,0.481,0.071,0.741c0.015,0.178,0.027,0.367,0.048,0.556l0.014,0.112l-0.063,1.451l0.024,0.002
				c0.006,0.074,0.009,0.143,0.015,0.188c-0.007-0.061-0.021-0.122-0.039-0.188l-0.006,0.129l0.124,0.246
				c-0.021,0.312-0.047,0.537-0.119,0.766l-0.008,0.025l-0.031,1.191l0.112,1.752L49.23,47.1l-1.073-0.01
				c-0.136,0.01-0.164,0.018-0.208,0.027c-0.08,0.023-0.155,0.048-0.24,0.078c-0.305,0.109-0.686,0.213-1.277,0.236
				c-0.604,0.022-1.08,0.034-1.605,0.034c-1.023,0-2.357-0.047-2.357-0.093v0.016c0,0.004-0.439,0.008-0.677,0.008
				c-0.11,0-0.323-0.002-0.323-0.002v2.5c0,0,0.104,0.002,0.215,0.002c0.191,0,0.319-0.008,0.49-0.022
				c0.547,0.046,1.484,0.095,2.57,0.095c0.568,0,1.169-0.013,1.803-0.037c0.873-0.037,1.479-0.201,1.893-0.339l0.867,0.009
				l4.678-0.295l-0.268-4.138l0.021-0.784C53.811,44.043,53.842,43.711,53.863,43.398z"/>
		</g>
		<g>
			<path fill="#FFFFFF" d="M13.556,51.471c-0.588,0-1.22-0.013-1.876-0.039c-0.735-0.029-1.413-0.14-2.063-0.334l-0.685,0.006
				l-6.23-0.394l0.354-5.567l-0.015-0.58c-0.08-0.399-0.112-0.772-0.131-1.062l-0.257-3.86l0.309-0.029l0.082-0.75
				c-0.002-0.035-0.009,0.021-0.009,0.021L2.939,37.5H8.4l0.125,1.152c0.005,0.049,0.01-0.01,0.017,0.035l0.024,0.106l-0.01,0.138
				c-0.012,0.185-0.027,0.355-0.048,0.551l0.134,0.233l-0.072,0.5c-0.029,0.201-0.044,0.413-0.062,0.638
				c-0.016,0.209-0.03,0.403-0.052,0.602l0.127,2.811l-0.05,0.004l0.025,0.979l-0.021,0.319l0.54,0.033l1.083-0.01l0.063,0.004
				c0.176,0.014,0.301,0.028,0.463,0.069c0.158,0.044,0.26,0.078,0.377,0.12c0.193,0.068,0.426,0.135,0.835,0.15
				c0.58,0.021,1.138,0.032,1.656,0.032c0.954,0,1.829-0.043,2.302-0.087l1.607-0.146v0.156l1-0.012v5.497l-1.794,0.021
				c-0.19,0-0.357-0.006-0.529-0.02C15.548,51.426,14.604,51.471,13.556,51.471z"/>
		</g>
		<g>
			<path fill="#BCC0C4" d="M16.465,47.391v-0.013c-1,0.046-1.665,0.093-2.688,0.093c-0.527,0-1.222-0.012-1.827-0.035
				c-0.593-0.022-1.029-0.129-1.334-0.235c-0.086-0.03-0.188-0.058-0.268-0.078c-0.044-0.013-0.086-0.021-0.222-0.027l-1.08,0.013
				L6.951,46.97l0.109-1.752l-0.032-1.192L7.02,43.998c-0.072-0.227-0.099-0.452-0.119-0.766l0.125-0.244L7.02,42.859
				C7,42.922,6.987,42.986,6.98,43.045c0.005-0.047,0.009-0.115,0.012-0.188l0.027-0.002l-0.065-1.45l0.013-0.113
				C6.986,41.104,7,40.915,7.014,40.738c0.02-0.262,0.038-0.508,0.072-0.74l-0.121-0.217l0.053-0.475
				c0.019-0.173,0.031-0.373,0.042-0.535C7.048,38.697,7.039,38.5,7.031,38.5h-2.5c0.006,0,0.008,0.242,0.017,0.336
				c-0.005,0.051-0.01,0.124-0.016,0.178L4.394,40.29l0.128,0.235C4.521,40.54,4.52,40.557,4.519,40.57
				C4.51,40.695,4.5,40.83,4.486,40.96l-0.241,0.022l0.16,2.416c0.021,0.312,0.053,0.645,0.131,0.985l0.021,0.784l-0.264,4.139
				l4.679,0.295l0.87-0.01c0.409,0.141,1.023,0.305,1.897,0.34c0.634,0.023,1.245,0.036,1.816,0.036
				c1.085,0,2.052-0.049,2.598-0.095c0.171,0.018,0.573,0.021,0.768,0.021c0.112,0-0.456-0.002,0.544-0.002v-2.5
				c-1,0-0.211,0.002-0.323,0.002C16.908,47.398,16.465,47.396,16.465,47.391z"/>
		</g>
	</g>
</g>
</svg>
