<svg xmlns="http://www.w3.org/2000/svg" width="64" height="64" viewBox="0 0 64 64"><path opacity=".3" fill="#333" d="M22.339 48.82a10.325 10.325 0 0 1-1.356-.096l-.476-.033-.108-.018a8.494 8.494 0 0 1-.597-.13c-.424.013-.82.021-1.194.03l.023.173-1.637.075c-.293.013-.504.031-.656.031-.544 0-.971-.356-1.278-.356h-.483l-.012.104c-.108.006-.227 0-.35 0-.161 0-.33-.01-.488-.014l-1.627-.033.032-1.498c.002-.104-.063-.199-.067-.264.027.529.4 1.297 1.4 1.297v-1.113l-1.449-.479c.035-.46.112-.857.164-1.219l.043-.157-.003-.03-.062-.007c-.007-.099.104-.212.104-.326l.203-.019V44.5h.566l.434-.379V43.5h-1.099c-.095 0-.154.594-.173.764.005-.047.118.02.123-.054.012-.178.148-.188.148-.315v-.166l-.164-.381-.002-.33a3.855 3.855 0 0 1-.172-.752 1.832 1.832 0 0 1-.244-.457l-.13-.358.142-.854a2.206 2.206 0 0 1-.068-.472 2.059 2.059 0 0 1-.088-.211l-.124-.361.153-.905.129.01a2.155 2.155 0 0 1-.041-.158.468.468 0 0 0-.02.068c.004-.045.006-.086.008-.125a3.984 3.984 0 0 1-.072-.551l.402-.092.004-.059-.335.005a3.213 3.213 0 0 1 .186-1.132c-.323-.68-.457-1.68-.43-2.141l.108-.021c.018-.101.036-.193.055-.282a4.859 4.859 0 0 1-.009-.525l.12.004.002-.028.105-.019-.104-.004.005-.062-.026-.002a.6.6 0 0 0 .003.062l-.103-.004.002.021c.02-.506.037-1.113.095-1.113h-.006c-.096-2-.225-3.613-.232-5.871-.005-1.255-.148-2.515-.148-3.443v-.066l.122-.056c.01-.22.066-.433.064-.627a5.178 5.178 0 0 1 .118-1.263l-.141-.131.045-.243.068-.647-.027-.184-.29-.117.04-1.286v-.276l.158-.209.09-.56c.016-.327.122-.022.166-1.022h.009l.014.057-.251-.934 1.125-.451c.324-.146.604-.122.992-.13.046 0 .094.014.143.013l.131-.098.569.032.295.014c.109.002.176.006.252.014.097-.013.211-.026.347-.035l.157-.01.156.022c.204.029.377.088.522.162l.375.02.241-.019.47.083.14.006-.178-.144 4.125.194.075-.094.856.131c.093.012.421.025.638.034.239.01.44.018.614.029l.217-.21.61.094c.036-.013.072-.026.11-.038a.866.866 0 0 0-.097.04l.111.017.126.011-.004-.52.505-.29h.08c.188 0 .35 0 .501 1h.014l.014-.251.159-.128c7.814-.227 13.1-.408 15.677-.408.37 0 .745-.059.745-.054v.013c1-.046 1.584-.093 2.607-.093.527 0 1.182.012 1.787.036a4.301 4.301 0 0 1 1.312.237c.085.03.179.055.261.078.043.011.078.017.215.027l1.078-.01 2.094.132-.108 1.752.03 1.193.01.027c.07.226.1.451.119.764l-2.983.297a.867.867 0 0 0 .054.18l1.328-.246.271.068 1.207-.054.006.129c.021-.064.03-.127.039-.186a2.026 2.026 0 0 0-.013.188l-.026.002.063 1.45-.014.114c-.021.188-.034.375-.048.552-.02.261-.038.507-.072.74l.12.217-.052.475c-.02.169-.031.333-.042.495.05.322.06.686.035 1.184l-.062 1.22-.027.004c-.006.849-.014 1.674-.026 2.303l.104.042-.064 1.161a3.253 3.253 0 0 1-.014.286c-.002.091.004.109.021.188.102.37.178.753.131 1.694l-.062 1.261-.1.262c0 .137-.006-.342-.019.658h.05c.075 0 .055.79-.023 1.188-.025.135-.06.182-.041.812l-.24-.027c.141.2.242.42.289.723l.044.275-.071.279c-.076.312-.113.507-.141.645-.023.125-.049.25-.088.385l.098.007-.012.342.003.005-.007.178.014.15c.033.891-.031 1.381-.09 1.895l-.021.149h-.005l-.019.271-.008.166.242.059-.035.855c-.027.504-.088.787-.181 1.024-.001.058-.002.156.003.312l-.521.129-.014.379.006-.192h-.004l-.002.533-.26.46h-.116l-.271-.201.649-.101c-.004.169-.015.286-.027.471l.062-.024c-.025.5-.033.881-.037 1.217-.004.217-.01.38-.017.525.162.264.249.545.263.854.018.552-.232 1.064-.688 1.416l-.421.318-.858-.021c-.718-.015-1.396-.029-2.36-.086l-.385-.022-.121-.076c-.191.018-.388.025-.589.033l-.144.106-.809-.019c-.662-.017-1.291-.026-2.188-.08l-.338-.021c-.248.007-.486.021-.723.034l-.06-.25v.227a62.68 62.68 0 0 0-.915-.004c-2.115 0-6.961.028-10.501.052-1.856.01-3.355.021-3.915.021a10.692 10.692 0 0 1-1.323-.031l.185.166-2.603-.184z"/><path fill="#333" d="M52.867 23.5l-.124-1.128c-.005-.049-.011.022-.017-.023l-.024-.102.01-.133c.013-.184.026-.356.048-.549l-.134-.235.072-.498c.028-.201.044-.412.062-.637.016-.209.03-.404.053-.599l-.127-2.809.049-.002-.022-.982.021-.321-.539-.034-1.082.01-.063-.004a2.533 2.533 0 0 1-.462-.069 5.462 5.462 0 0 1-.378-.12 2.619 2.619 0 0 0-.834-.151c-.58-.023-1.14-.035-1.656-.035-.952 0-1.997.043-2.471.087l-1.776.149v-.157l-1 .009V9.671l1.963-.02c.19 0 .44.006.613.018a37.76 37.76 0 0 1 2.637-.09c.588 0 1.235.013 1.896.039.733.03 1.422.14 2.071.335l.688-.006 6.231.393-.354 5.567.018.58c.08.402.113.775.132 1.064l.258 3.862-.31.031-.082.75c.002.035.009-.049.009-.049l.087 1.355h-5.463zM5.939 23.5l.104-1.541-.082-.632-.309.028.256-3.833c.02-.289.052-.648.132-1.05l.015-.572-.354-5.564 6.23-.391.685.007a8.28 8.28 0 0 1 2.062-.334c.658-.026 1.29-.039 1.878-.039 1.049 0 2.007.045 2.601.09.172-.011.354-.018.544-.018l1.788.02-.023 1.483v4.014l-1-.009v.145l-1.607-.137a28.647 28.647 0 0 0-2.316-.087c-.519 0-1.068.012-1.65.035a2.58 2.58 0 0 0-.828.151 5.929 5.929 0 0 1-.329.107c-.21.054-.334.068-.51.082l-.062.004-1.083-.01-.54.034.021.321-.025.982.022.001-.025.927.01.019-.084 1.865c.021.197.036.392.051.577.019.248.033.461.063.662l.072.501-.134.242c.021.192.036.379.048.563l.01.163-.024.161c-.007.045-.012-.144-.017-.095L11.4 23.5H5.939zM47.713 54.471c-1.049 0-2.007-.045-2.602-.09a7.834 7.834 0 0 1-.543.018l-1.959-.02-.146-1.482v-4.015l1 .011v-.146l1.777.137c.473.044 1.445.087 2.398.087.521 0 1.11-.012 1.691-.035.406-.016.658-.082.852-.147.116-.042.229-.076.34-.104a2.42 2.42 0 0 1 .516-.082l.064-.006 1.084.012.539-.035-.021-.32.024-.982-.021-.002.022-.926-.01-.02.084-1.864c-.021-.196-.035-.392-.051-.577-.021-.248-.033-.461-.062-.662l-.07-.501.134-.241c-.021-.19-.034-.381-.048-.562l-.01-.162.023-.161c.006-.045.012.118.018.069l.123-1.152h5.464s-.104 1.531-.104 1.565l.082.646.309-.021-.258 3.836c-.02.289-.051.648-.131 1.052l-.017.573.354 5.562-6.229.393-.687-.006a8.412 8.412 0 0 1-2.062.334c-.648.013-1.279.026-1.867.026zM16.556 54.471c-.588 0-1.22-.013-1.876-.039a8.28 8.28 0 0 1-2.063-.334l-.685.006-6.23-.394.354-5.567-.015-.58a8.043 8.043 0 0 1-.131-1.062l-.257-3.86.309-.029.082-.75c-.002-.035-.009.021-.009.021L5.939 40.5H11.4l.125 1.152c.005.049.01-.01.017.035l.024.106-.01.138c-.012.185-.027.355-.048.551l.134.233-.072.497c-.029.201-.044.413-.062.641-.016.209-.03.4-.052.599l.127 2.809-.05.003.025.982-.021.32.54.035 1.083-.013.063.004c.176.017.301.028.463.069.158.044.26.078.377.12.193.065.426.135.835.147.58.023 1.138.035 1.656.035.954 0 1.829-.043 2.302-.087l1.607-.149v.158l1-.011v5.497l-1.794.02c-.19 0-.357-.006-.529-.018-.592.053-1.536.098-2.584.098z" opacity=".3"/><g><path fill="#BCC0C4" d="M46.283 40.289c.01-.086.016-.233.018-.513l-.023.453.005.06zM46.471 42.769c-.068.525-.033-1.18-.098-.812.042.254-.039 1.351.055.825l-.018.533.061-.546zM46.471 42.769c.006-.047.014-.104.021-.191l-.021.191zM12.465 13.47c.063 0 .105.003.14.008.057-.004.112-.008.182-.008h-.322zM47.048 40.11c.011-.109.015-.237.011-.398l-.011.398zM46.998 41.192c-.042 1.059-.24.807-.297-.027-.024.984.154.959.041 1.957l.135-.02-.059.561c.045-.166.1.336.168.057-.161.303.065-2.044-.146-1.171.158-.644.182-1.435.208-2.438-.032.322-.118.48-.185.754l.135.327zM17.206 13.844l.716-.009c-.384-.004-.602 0-.716.009zM15.355 13.553c.78.062.158.126 1.07.132-.281-.026-.296-.116-1.07-.132zM10.697 40.289c-.029.188-.074.138-.08.718.027-.242.058-.443.091-.646l-.011-.072zM10.618 41.021l.003.551a.938.938 0 0 0 .034.193c.002-.368.042-.8-.037-.744zM10.689 40.229l.008.06c.014-.086.023-.233.025-.513l-.033.453zM10.491 39.978c.071-.291-.02-.629-.02-.979-.142.93.017-.074.02.979zM15.725 44.203c.483.06-.739.259 1.021.179-.014-.07-.484-.147-1.021-.179zM47.064 38.799l-.019.425c.021-.075.029-.286.019-.425zM47.232 28.326a1.863 1.863 0 0 0-.039.214l.039-.214zM47.18 25.948l-.004.038.075.023z"/><path fill="#BCC0C4" d="M47.465 16.128v-.002l-.09-.079-.041.077c.016-.332.016-.59.064-.209-.02-.275.062-.355.045-.407-.018-.064.021-.034.021-.315v-.01l-.146-1.38-.034-.321-.566-.034-1.092.024-.826.027h-.003l-.07-.003.069-.005c-.209-.01-.38-.009-.358-.031.024.017.18.039.358.039h.004l.813-.027c-.356-.023-.438-.059-.572-.094-.122-.035-.221-.074-.32-.11a2.434 2.434 0 0 0-.816-.153c-1.831-.072-2.989-.021-4.057.064l.823.023c.851.035.745.292 1.784.354-1.039-.062-.934-.318-1.784-.354l-.823-.023c-1.002.081-11.929.184-13.251.249 1.323-.071 12.249-.188 13.251-.27-2.932-.06-13.809.267-16.761.353-.2.049-.436-.012-.714-.012h-.017l-.423.031c.134.012.22.016.271.029-.104-.002-.205-.011-.319-.003l.049.003.276-.004c.322.087-.931.205.226.252-.132-.033-.2-.049-.14-.074.456.032 1.104.072 1.305.121-.671.064-.838-.075-1.125-.012-.416-.018-.854-.032-1.054-.062-.058.056-.244.104-.458.146-.319-.062-1.403-.062-1.744-.115-.004.005-.016.01-.021.015l-.299-.012.107.087-.134.033c-.193-.005-.417-.012-.522-.038.049.027.207.05.36.071-.083.017-.169.032-.251.048l-.933-.034a.822.822 0 0 0-.146-.061c.064-.026.039-.05-.249-.066a.407.407 0 0 1 .072-.011l-.125.002.039.009-.213-.01.146.115c-.195-.008-.518-.007-.65-.039a.38.38 0 0 0 .089.025l-.043-.002-.028.009c-.222-.011-.443-.021-.663-.042.046-.019.093-.215.136-.229l.115-.184h-.109c.145 0 .218.111-.166.051l-1.04.184.7.163c.039.01.083.043.123.054-.065.003-.146.021-.25.027l-.408-.006-.393-.011v.001l.393.015c-.082-.021-.108-.048-.146-.074l.129.002-.139-.013c-.086-.059-.22-.115-.928-.131.193.006.322-.001.576-.013l-.466-.082-.151.012-.891-.048-.066.027.899.025-.345.027c-1.034-.004-.445-.192-.726-.232-.261.018-.408.062-.518.043-.156-.023-.148-.01-.552-.03-.139.112-1.031.06-1.14.108.005.021.013.046.021.052l-.063.872-.006-.226a3.628 3.628 0 0 0-.058.521l-.01.286-.003.191c-.001.119.002.246.003.378l.021.586c.022.02.165.057.165.106V16.386c0 .07-.105.129-.104.182l-.073.373c.015-.068-.008-.133-.006-.217-.002.084-.021.148-.035.218l.021.178c-.005.036-.014.071-.019.117.013.011.02.03.028.05l-.023.144c.029.023.047.078.061.147l.005.111c-.001.1-.001.191.009.246l.01.254-.045.37-.007-.138c-.128.376-.05.992-.081 1.698.055 2.567-.008 7.304.136 9.108-.022.131-.048.204-.077.16l.091.117c-.066.193-.083.697-.101 1.144-.013.02-.025.024-.039.007l.037.047c-.019.469.086.854.002.703.05.252.081.211.103.032-.041.711.183 1.644.054 1.41.137.684-.357-.582-.314-1.289.037.09.063.211.062.344.042-.403.211-.894.157-1.122.006-.16.016-.288.026-.404a.922.922 0 0 1 .014.162c.019-.183.03-.379.032-.56l.009-.062.017.195-.057.854c.021.302-.113.657-.092 1.029-.04.341.334.573.353.771-.024.243-.049.563-.109.416.064.961.083.295.15-.108.042.262.089.548.07 1.081l-.018.308a3.596 3.596 0 0 0-.048-.308c.004-.115.012-.238.012-.352-.141.021-.338.44-.332.917-.018.101-.041.147-.074.066.032.475.057.562.08.485a4.829 4.829 0 0 1-.014.377 1.997 1.997 0 0 1-.025.191.655.655 0 0 1-.055.182l-.008-.129-.09.526c.064.188.107.021.141-.272l.198 1.026c-.05.331-.036.269-.012.275-.013.186-.038.339-.088.432l-.009-.139-.098.573c.105.312.158-.254.201-.862.02.021.043.104.044.483.063-.258-.204-.556-.21-.861.02-.282-.05-.528-.025-.661.021.298.166.713.166.953v.005l-.032.701c.048.421.108 1.638.199 1.477-.007-.029.008-.072-.001-.146.009.074.027.117.035.146.021.1-.09-.009-.078-.169l-.123-.003v.395-.336.69c0 .078-.025.154-.037.229l.037.261v.398c0 .17.092.851.05.748-.001.075-.058.149-.053.215.028-.095.003-.187.003-.276v.062c0 .04.008-.043.01-.166 0-.006-.01-.012-.01-.017v.623c0 .099.108.192.094.282-.045.31-.014.668-.049 1.119.058-.099.094.146.086.476.27.006.617-.218.877-.229-.238-.062-.432-.354-.66-.354h1.475c.281 1 .555.383.772.432-.023-.002-.046.115-.069.113.443.053-.678.296.936.225-.006-.045-.214-.062-.502-.098.002-.016.014-.016.039-.027 1.113-.056 2.295-.082 3.506-.107.298.076.561.138.689.16l.031.004c-.014-.014-.021-.025-.018-.039.625.104 1.256.186 2.043.152l1.695-.021c.5.064 1.026.104 1.643.078 1.754-.006 14.055-.092 15.391-.066l-.064.026c.428-.028.823-.04 1.2-.044l.047.029c.994.059 1.644.064 2.423.084a.235.235 0 0 0 .072-.084 13.48 13.48 0 0 0 1.505-.088l.229.144c1.084.063 1.9.071 2.752.091.215-.165-.143-.373-.143-.58v-.342c0 .002-.061.006-.031.009.018-.196-.033-.417-.027-.726.005-.35-.016-.764.011-1.283l-.009.951.059.338v-1.102c0 .016-.105.031-.104.039 0-.123-.051-.385-.049-.502.002.117-.023.234-.023.234h-.014c-.004 0 .188.277.188.268v.215c0-.309-.017-.596-.007-.943-.008-.041-.065-.059-.074-.059.009 0-.013.018-.005.059l.002.086-.021-.131c.012-.407.004-.9.041-1.613l-.109.982.113.045c-.021.188.061.377.061.602v-.217c0-.148-.081-.292-.062-.43l.047-.071c-.012.101.018.136.018.235v-.957c0 .002.008-.002.014-.015l-.014-.147V38.84c0-.076-.107-.142-.105-.195l-.051-.021c-.006.146-.035.385-.028.786l.084.147c.017.099.103-.01.103-.17v-.003.394l-.037-.908c.01-.012-.021.021-.007.129l-.054-.298.003-.382c.077-.084.112.75.036 1.186.061.901.054-1.203.087-.158.06-1.753-.067-.222-.101-1.562.176.809.213 1.874.492 2.444-.029-1.117.125-.508.178-1.428l.033-.847-.269 1.09c-.011-.403-.001-.731.019-1.021-.002-.006-.004-.013-.008-.02l.049-.484c.008-.352.021-.733-.017-.727.043-.027.026.366.021.727.062-.594.144-1.103.108-2.009l-.021-.045c-.022.572-.063 1.058-.162 1.474l-.008.029c.104-.423.146-.918.168-1.503-.027-.054-.051-.069-.071-.062.021-.008.045.009.073.062l.021-.731c-.026.296-.106.439-.169.688l.021.051v.002c-.062.133-.103.336-.223-.399.004-.447.021-.677.049-.795.047.214.103.407.178.561l-.004-.254c.174-.271.103-.301.324-1.203-.047-.297-.101.068-.162.443.008-.088.01-.207.004-.296l-.017.402c-.044.262-.094.565-.146.565h-.006c.021-1 .125-.24.164-.927l.032-.799-.049.188.004-.11-.105.434c-.004-1.052.123-1.211.213-.873-.039-1.606.205-1.013.076-2.255-.062.429-.178.724-.194 1.148l.007-.562-.029.124-.008-.354a.287.287 0 0 0-.042-.076c.058-.5.261.354.22-1.328-.008.563-.08.151-.135.019l.025-.164.093-.403c-.01-.063-.021-.095-.028-.101.057-.555.09-1.051.213-.917.016.475-.033.599-.076.783.022-.066.052-.079.078-.082.067-1.371-.174-1.067-.152-1.899.008-.066.013-.141.011-.242l.009-.116-.013-.005c-.004-.103-.015-.226-.028-.383l-.04.199c.049-.688.061-3.777.067-4.334l.007-.041c.021-.063.047-.073.072-.077.029-.584-.004-.834-.045-1.013.014-.246.029-.495.059-.754l-.141-.254.004-.051-.038-.01-.006-.012c.157-.236.267-.946.343-1.656l.043-1.468zm-1.167 22.064l-.005.024-.025-.032.041-.242-.013.231.002.019zM21.167 14.251c.161.088.301.151.976.219h-.003c-.673-.068-.812-.131-.973-.219zm1.327-.117c.231.018.222.052.164.093-.279-.017-.321-.039-.183-.079-.012-.007-.002-.011.019-.014zm2.348.077c.205.017.273.04.238.073-.328-.011-.309-.039-.238-.073zm-.458-.509c-.011.016.023.031.136.044-.118-.013-.15-.028-.136-.044zm.366.01c-.001.018.067.034.176.061h-.003c-.107-.027-.174-.044-.173-.061zm-14.084.055l.003.001-.003.003v-.004zm13.665.732h-.204.204zm22.065 20.825l.014-.13v.002l-.014.128.002.29v.008l-.002-.298zM25.432 13.489c.048-.004.097-.007.142-.015a1.397 1.397 0 0 1-.142.015zm-.694.078c-.006-.022-.096-.045-.349-.066l.101-.002c.201.021.263.045.248.068zm-.885.707c.383-.025.638-.043.632-.084l.106.006-.137.07-.154.001c-.076.022-.044.04.047.056l-.482-.027-.225-.115c-.383.018-.638.03-.633.06-.031-.001-.056-.094-.085-.095l.116-.176h.096c.021 0 .043.004.051.005a.144.144 0 0 0-.031-.005h.039c.076 0 .044.035-.047.014l.482.085c.076.047.134.145.225.205zm-1.436-.144c-.251 0-.527.002-.779 0l-.326-.08c.318.006.615.031.896.055l-.107.017c.132 0 .233.003.316.008zm-1.148-.008c-.059-.002-.111-.006-.16-.009a.104.104 0 0 1 .01-.004l.15.013zm-9.675-.374c-.02.007-.043.013-.061.02l-.009-.001a.656.656 0 0 1 .054-.019c.033-.012.049-.023-.011-.033l.038.001c.045.01.021.02-.011.032zm-1.081.458l-.012.33c.02.109.034.15.047.142-.013.011-.027-.031-.047-.142l-.002.072c-.002-.051-.006-.099-.006-.154l-.001-.031c0-.094.003-.199.009-.311a.86.86 0 0 0 .012.094zm.202 23.97l.016-.22.003-.014-.017.231.002.019v.004l-.004-.02zm33.889-24.778a1.75 1.75 0 0 0-.104.017c-.359.028-.214.043-.48.101.289-.062.08-.083.584-.118zm-20.179.094l.028.003c-.037.002-.068-.002-.107 0l-.021-.002c.036-.002.066.001.1-.001zm-4.148.548c-.411.004-.79 0-1.152-.007.117-.046.326-.091 1.002-.154.22.054.295.106.15.161zm-5.808-.17a4.076 4.076 0 0 1 .002 0h-.002zm-1.62-.072a2.49 2.49 0 0 0 0 0zm-2.35.295l-.013.085-.009-.314c.002.086.011.156.022.229zm.158 18.191l.015.232c-.004.004-.008.006-.011.017-.003.001-.005.005-.008.009-.003-.066.001-.158.004-.258zm35.589 8.753l-.001-.006v-.011l.001.017zm.074-3.326l-.064.37-.043-.321c0-.292.032-.599.032-.901v.111h.032c.012 0 .037-.314.043-.445.007.035.021.041.031.068-.006-.055-.004-.109-.01-.156.01-.002.021 0 .029.021-.011.416-.027.844-.05 1.253zm.477.253c.004 0 .008-.002.01 0a.084.084 0 0 0-.012.028l.002-.028zm.041-1.598c-.009-.001-.018-.008-.027-.02.009.012.018.019.027.02zm-.054-1.742l-.038-.477c.021-.015.044-.014.062-.029l.006.018.014.277h.006l-.004.186-.046.025zm-.013-4.924l-.026-.446c.026-.008.05-.007.065-.067v.065l-.006.396a.4.4 0 0 1-.033.052z"/><path fill="#FFF" d="M11.465 14.499h35v29h-35z"/><g fill="#FFF"><path d="M45.027 37.964l-.008.064-.004.227c.088.262.063.788.039 1.48.025 0 .055-.062.066.186-.057 1.1 0 .549.055 1.344 0-.244-.007-.552.021-.673l.027 1.526c.053-.21.108-.383.15-.127.104-.155.23.349.343.538.015-.273.028-.491.044-.593.045.035.063.297.071.617l.002.666c.015-.123.026-.246.048-.187v-.917c.012-.029.02 0 .025.056l-.025-.235-.025.182c-.021.062-.034-.061-.049-.182-.008-.244.015-.309.026-.43l-.048-.488c-.082-.185-.049 1.285-.122.488l.021-.242c-.021-.367-.021-.855-.076-1.102.097-.367-.073-1.039.057-1.102.062-1.404-.041-3.238.096-4.646-.089-.244-.259-.244-.367-.854.015-.121.026-.307.049-.244l-.049-.428c0 .244.008.551-.026.672-.04-.672-.074.307-.122.246l-.048-.918-.019.109-.156 4.921.004.046z"/><path d="M41.23 14.085l.02.102c-4.294.079-9.042.093-14.062.076l-16.259-.11-.073 10.798-.016 10.162-.381-.423.186 4.219.086 2.158.087 2.832 2.149-.063 1.452-.067 2.771-.15-1.682-.066c1.54-.211 5.478-.346 7.906-.298l-.24.101c-3.327.056.226.03-1.122.304l-.578.051.339.048.579-.05c-.065.058-.016.131-.562.151l.771.011c1.659.271 1.662.503 1.455.805.435-.036-.019-.334 1.831-.235l-.241.1 2.024-.178.902.131c.722-.062 1.188-.131 1.928-.092l.226-.198c3.312.073 7.488-.158 10.851-.011.736-.193 2.541.062 4.42-.101l-.809-.215c-2.026-.289-6.771-.138-10.051-.24l.129-.114c.688-.032 1.188-.127 2.039-.071l.225-.2c-1.438-.703-5.915.15-7.104.048-2.526-.194 1.651-.428.445-.399 2.776-.269-2.32-.498-3.497-.73-1.635-.232-4.248-.291-6.993-.289l-7.449.07a1.304 1.304 0 0 1-.222.066 1.375 1.375 0 0 1-.062-.244c-.002-.021-.005-.002-.007-.062l-.006-.172-.012-.347-.02-.695-.042-2.866c-.01-1.937.012-3.923.045-5.886.066-3.925.179-7.76.174-10.93.017-.864-.027-1.87-.087-2.919l-.097-1.593-.089-.571c.121-.021.263-.037.406-.044l.473-.005.571.01c.738.024 1.374.095 1.846.238l5.999.126-.128.114c5.838.037 12.28-.238 17.729-.323 2.38-.025 3.101-.32 4.182 0l.592.023.299.009.09.008c.086.009.166.015.248.017l.037 1.976.103 3.202c.077 2.128.161 4.22.179 6.144.104-.017.209.625.266-.228-.127-2.362.129-5.082.404-5.165l-.025.884.226-1.578-.088-1.013c.067-.259.122-.375.165-.393.049-.863.135-1.669.229-2.484.047-.434.096-.757.146-1.294l.136-1.822-.042-.003-1.403.044-1.268.013a43.802 43.802 0 0 1-2.649-.104z"/></g><path fill="#BCC0C4" d="M47.016 34.366l-.012.367c.012-.1.016-.218.012-.367zM46.949 38.044c-.062.115-.062-.188-.055-.525l-.045.504c.03.074.063.171.1.021zM13.654 13.604c.716.057.145.115.982.122-.259-.024-.27-.106-.982-.122zM10.616 41.021h.002v-.014zM47.125 19.24l-.002.034.068.021z"/><path fill="#F5F2F7" d="M12.465 16.271h32V41.5h-32V16.271z"/></g><g><path fill="#FFF" d="M49.867 20.5l-.124-1.128c-.005-.049-.011.022-.017-.023l-.024-.102.01-.133c.013-.184.026-.356.048-.549l-.134-.235.072-.498c.028-.201.044-.412.062-.637.016-.209.03-.404.053-.599l-.127-2.809.049-.002-.022-.982.021-.321-.539-.034-1.082.01-.063-.004a2.533 2.533 0 0 1-.462-.069 5.462 5.462 0 0 1-.378-.12 2.619 2.619 0 0 0-.834-.151c-.58-.023-1.14-.035-1.656-.035-.952 0-1.997.043-2.471.087l-1.776.149v-.157l-1 .009V6.671l1.963-.02c.19 0 .44.006.613.018a37.76 37.76 0 0 1 2.637-.09c.588 0 1.235.013 1.896.039.733.03 1.422.14 2.071.335l.688-.006 6.229.393-.354 5.567.017.58c.08.402.113.775.133 1.064l.258 3.862-.311.031-.082.75c.002.035.01-.049.01-.049l.09 1.355h-5.464z"/><path fill="#BCC0C4" d="M42.465 10.659v.013c0-.046 1.334-.093 2.357-.093.527 0 1.057.012 1.662.036.594.024.945.128 1.25.237.086.03.146.055.228.078.044.011.065.017.201.027l1.071-.01 2.09.132-.113 1.752.03 1.193.008.027c.071.226.099.452.119.764l-.124.245.006.129a1.03 1.03 0 0 0 .039-.186c-.006.047-.01.115-.012.188l-.027.002.064 1.45-.014.114c-.021.188-.032.375-.048.552-.021.261-.038.507-.07.74l.118.217-.052.475c-.021.169-.031.348-.042.509.015.075.021.247.024.247h2.502c-.006 0-.008-.217-.018-.311.004-.052.01-.112.016-.166l.142-1.27-.129-.233.004-.043c.01-.126.021-.258.03-.388l.24-.024-.16-2.414a6.32 6.32 0 0 0-.131-.988l-.021-.784.265-4.137-4.68-.295-.87.008a6.61 6.61 0 0 0-1.897-.338 46.233 46.233 0 0 0-1.813-.038c-1.086 0-2.052.049-2.601.095-.17-.015-.241-.022-.438-.022-.111 0-.213.001-.213.002v2.5l.323-.002c.24.002.684.005.684.01z"/><path fill="#FFF" d="M2.939 20.5l.104-1.541-.082-.632-.309.028.256-3.833c.02-.289.052-.648.132-1.05l.015-.572-.354-5.564 6.23-.391.685.007a8.28 8.28 0 0 1 2.062-.334c.658-.026 1.29-.039 1.878-.039 1.049 0 2.007.045 2.601.09.172-.011.354-.018.544-.018l1.788.02-.023 1.483v4.014l-1-.009v.145l-1.607-.137a28.647 28.647 0 0 0-2.316-.087c-.519 0-1.068.012-1.65.035a2.58 2.58 0 0 0-.828.151 5.929 5.929 0 0 1-.329.107c-.21.054-.334.068-.51.082l-.062.004-1.083-.01-.54.034.021.321-.025.982.022.001-.025.927.01.019-.084 1.865c.021.197.036.392.051.577.019.248.033.461.063.662l.072.501-.137.242c.021.192.036.379.048.563l.01.163-.024.161c-.007.045-.012-.144-.017-.095L8.4 20.5H2.939z"/><path fill="#BCC0C4" d="M16.153 8.174a33.498 33.498 0 0 0-2.598-.095c-.571 0-1.183.013-1.816.038-.874.035-1.488.2-1.897.338l-.87-.008-4.679.295.264 4.137-.021.784c-.078.344-.11.676-.131.988l-.16 2.414.241.024c.014.13.023.262.032.388l.003.042-.127.231.139 1.267c.006.054.011.121.016.173-.01.093-.012.31-.018.31h2.5c.008 0 .017-.172.028-.247a11.579 11.579 0 0 0-.042-.502l-.053-.479.121-.219a10.413 10.413 0 0 1-.072-.741 17.17 17.17 0 0 0-.047-.552l-.013-.114.065-1.45-.027-.002a3.205 3.205 0 0 0-.012-.188c.007.058.021.12.041.185l.006-.129-.126-.246c.021-.313.047-.538.119-.764l.008-.027.031-1.193-.111-1.752 2.092-.132 1.073.01c.136-.01.164-.017.208-.027.08-.023.154-.048.24-.078a4.072 4.072 0 0 1 1.278-.237c.605-.024 1.41-.036 1.938-.036 1.023 0 1.688.047 2.688.093v-.013c0-.005.443-.008.677-.008.112 0-.677.001.323.002v-2.5c-1-.001-.432-.002-.544-.002-.193-.001-.596.007-.767.022z"/><path fill="#FFF" d="M44.713 51.471c-1.049 0-2.007-.045-2.602-.09a7.834 7.834 0 0 1-.543.018l-1.959-.02-.146-1.482v-4.015l1 .011v-.146l1.777.137c.473.044 1.445.087 2.398.087.521 0 1.11-.012 1.691-.035.406-.016.658-.082.852-.147.116-.042.229-.076.34-.104a2.42 2.42 0 0 1 .516-.082l.064-.006 1.084.012.539-.035-.021-.32.024-.982-.021-.002.022-.926-.01-.02.084-1.864c-.021-.196-.035-.392-.051-.577-.021-.248-.033-.461-.062-.662l-.07-.501.134-.241c-.021-.19-.034-.381-.048-.562l-.01-.162.023-.161c.006-.045.012.118.016.069l.125-1.152h5.464s-.104 1.531-.104 1.565l.082.646.309-.021-.258 3.836c-.02.289-.051.648-.131 1.052l-.017.573.354 5.562-6.229.393-.687-.006a8.412 8.412 0 0 1-2.062.334c-.648.013-1.279.026-1.867.026z"/><path fill="#BCC0C4" d="M53.863 43.398l.16-2.414-.241-.023c-.013-.13-.022-.262-.032-.388a.544.544 0 0 0-.004-.042l.129-.231-.139-1.267c-.006-.055-.012-.146-.016-.197.01-.094.01-.336.016-.336h-2.5c-.008 0-.016.197-.027.271.012.162.023.346.042.516l.052.484-.119.222c.033.231.053.481.071.741.015.178.027.367.048.556l.014.112-.063 1.451.024.002c.006.074.009.143.015.188a1.26 1.26 0 0 0-.039-.188l-.006.129.124.246c-.021.312-.047.537-.119.766l-.008.025-.031 1.191.112 1.752-2.096.136-1.073-.01c-.136.01-.164.018-.208.027-.08.023-.155.048-.24.078a4.047 4.047 0 0 1-1.277.236c-.604.022-1.08.034-1.605.034-1.023 0-2.357-.047-2.357-.093v.016c0 .004-.439.008-.677.008l-.323-.002v2.5s.104.002.215.002c.191 0 .319-.008.49-.022.547.046 1.484.095 2.57.095.568 0 1.169-.013 1.803-.037a6.676 6.676 0 0 0 1.893-.339l.867.009 4.678-.295-.268-4.138.021-.784c.072-.342.103-.674.124-.987z"/><path fill="#FFF" d="M13.556 51.471c-.588 0-1.22-.013-1.876-.039a8.28 8.28 0 0 1-2.063-.334l-.685.006-6.23-.394.354-5.567-.015-.58a8.043 8.043 0 0 1-.131-1.062l-.257-3.86.309-.029.082-.75c-.002-.035-.009.021-.009.021L2.939 37.5H8.4l.125 1.152c.005.049.01-.01.017.035l.024.106-.01.138c-.012.185-.027.355-.048.551l.134.233-.072.5c-.029.201-.044.413-.062.638-.016.209-.03.403-.052.602l.127 2.811-.05.004.025.979-.021.319.54.033 1.083-.01.063.004c.176.014.301.028.463.069.158.044.26.078.377.12.193.068.426.135.835.15.58.021 1.138.032 1.656.032.954 0 1.829-.043 2.302-.087l1.607-.146v.156l1-.012v5.497l-1.794.021c-.19 0-.357-.006-.529-.02-.592.051-1.536.096-2.584.096z"/><path fill="#BCC0C4" d="M16.465 47.391v-.013c-1 .046-1.665.093-2.688.093-.527 0-1.222-.012-1.827-.035a4.533 4.533 0 0 1-1.334-.235 3.277 3.277 0 0 0-.268-.078.842.842 0 0 0-.222-.027l-1.08.013-2.095-.139.109-1.752-.032-1.192-.008-.028c-.072-.227-.099-.452-.119-.766l.125-.244-.006-.129c-.02.063-.033.127-.04.186.005-.047.009-.115.012-.188l.027-.002-.065-1.45.013-.113c.019-.188.033-.377.047-.554.02-.262.038-.508.072-.74l-.121-.217.053-.475c.019-.173.031-.373.042-.535-.012-.074-.021-.271-.029-.271h-2.5c.006 0 .008.242.017.336-.005.051-.01.124-.016.178l-.138 1.276.128.235-.003.045c-.009.125-.019.26-.033.39l-.241.022.16 2.416c.021.312.053.645.131.985l.021.784-.264 4.139 4.679.295.87-.01a6.486 6.486 0 0 0 1.897.34c.634.023 1.245.036 1.816.036 1.085 0 2.052-.049 2.598-.095.171.018.573.021.768.021.112 0-.456-.002.544-.002v-2.5c-1 0-.211.002-.323.002-.234.005-.677.003-.677-.002z"/></g></svg>