<svg xmlns="http://www.w3.org/2000/svg" width="64" height="64" viewBox="0 0 64 64"><path fill="#BCC0C4" d="M49.283 43.29c.01-.086.016-.233.018-.513l-.023.453.005.06zM49.471 45.77c-.068.525-.033-1.18-.098-.812.042.254-.039 1.351.055.825l-.018.533.061-.546zM49.471 45.77c.006-.047.014-.104.021-.191l-.021.191zM15.465 16.471c.063 0 .105.003.14.008.057-.004.112-.008.182-.008h-.322zM50.048 43.111c.011-.109.015-.237.011-.398l-.011.398zM49.998 44.193c-.042 1.059-.24.807-.297-.027-.024.984.154.959.041 1.957l.135-.02-.059.561c.045-.166.1.336.168.057-.161.303.065-2.044-.146-1.171.158-.644.182-1.435.208-2.438-.032.322-.118.48-.185.754l.135.327zM20.205 16.845l.716-.009a9.61 9.61 0 0 0-.716.009zM18.355 16.554c.78.062.158.126 1.07.132-.282-.026-.296-.116-1.07-.132zM13.697 43.29c-.029.188-.074.138-.08.718.027-.242.058-.443.091-.646l-.011-.072zM13.617 44.021l.003.551a.938.938 0 0 0 .034.193c.002-.367.043-.799-.037-.744z"/><path fill="#BCC0C4" d="M13.689 43.23l.008.06c.014-.086.023-.233.025-.513l-.033.453zM13.49 42.979c.071-.291-.02-.629-.02-.979-.142.93.018-.074.02.979zM18.724 47.204c.483.06-.739.259 1.021.179-.013-.071-.484-.147-1.021-.179zM50.064 41.8l-.019.425c.021-.075.029-.286.019-.425zM50.232 31.327a1.863 1.863 0 0 0-.039.214l.039-.214zM50.18 28.949l-.004.038.075.023z"/><path fill="#BCC0C4" d="M50.465 19.129v-.002l-.09-.079-.041.077c.016-.332.016-.59.064-.209-.02-.275.062-.355.045-.407-.018-.064.021-.034.021-.315v-.01l-.146-1.38-.034-.321-.566-.034-1.092.024-.826.027h-.003l-.07-.003.069-.005c-.209-.01-.38-.009-.358-.031.024.017.18.039.358.039h.004l.813-.027c-.356-.023-.438-.059-.572-.094-.122-.035-.221-.074-.32-.11a2.434 2.434 0 0 0-.816-.153c-1.831-.072-2.989-.021-4.057.064l.823.023c.851.035.745.292 1.784.354-1.039-.062-.934-.318-1.784-.354l-.823-.023c-1.002.081-11.93.184-13.251.249 1.323-.071 12.25-.188 13.251-.27-2.932-.06-13.81.267-16.762.353-.2.049-.436-.012-.714-.012h-.017l-.423.031c.134.012.22.016.271.029-.104-.002-.205-.011-.319-.003l.049.003.276-.004c.322.087-.931.205.226.252-.132-.033-.2-.049-.14-.074.456.032 1.104.072 1.305.121-.671.064-.838-.075-1.125-.012-.416-.018-.854-.032-1.054-.062-.058.056-.244.104-.458.146-.319-.062-1.403-.062-1.744-.115-.004.005-.016.01-.021.015l-.298-.012.107.087-.134.033c-.193-.005-.417-.012-.522-.038.049.027.207.05.36.071-.083.017-.169.032-.251.048l-.933-.034a.822.822 0 0 0-.146-.061c.064-.026.039-.05-.249-.066a.407.407 0 0 1 .072-.011l-.125.002.039.009-.213-.01.146.115c-.195-.008-.518-.007-.65-.039a.38.38 0 0 0 .089.025l-.043-.002-.028.009c-.222-.011-.443-.021-.663-.042.046-.019.093-.215.136-.229l.115-.184h-.109c.145 0 .218.111-.166.051l-1.04.184.7.163c.039.01.083.043.123.054-.065.003-.146.021-.25.027l-.408-.006-.393-.011v.001l.393.015c-.082-.021-.108-.048-.146-.074l.129.002-.139-.013c-.086-.059-.22-.115-.928-.131.193.006.322-.001.576-.013l-.466-.082-.151.012-.891-.048-.066.027.899.025-.345.027c-1.034-.004-.445-.192-.726-.232-.261.018-.408.062-.518.043-.156-.023-.148-.01-.552-.03-.139.112-1.031.06-1.14.108.005.021.013.046.021.052l-.063.872-.006-.226a3.628 3.628 0 0 0-.058.521l-.01.286-.003.191c-.001.119.002.246.003.378l.021.586c.022.02.165.057.165.106V19.387c0 .07-.105.129-.104.182l-.073.373c.015-.068-.008-.133-.006-.217-.002.084-.021.148-.035.218l.021.178c-.005.036-.014.071-.019.117.013.011.02.03.028.05l-.023.144c.029.023.047.078.061.147l.005.111c-.001.1-.001.191.009.246l.01.254-.045.37-.007-.138c-.128.376-.05.992-.081 1.698.055 2.567-.008 7.304.136 9.108-.022.131-.048.204-.077.16l.091.117c-.066.193-.083.697-.101 1.144-.013.02-.025.024-.039.007l.037.047c-.019.469.086.854.002.703.05.252.081.211.103.032-.041.711.183 1.644.054 1.41.137.684-.357-.582-.314-1.289.037.09.063.211.062.344.042-.403.211-.894.157-1.122.006-.16.016-.288.026-.404a.922.922 0 0 1 .014.162c.019-.183.03-.379.032-.56l.009-.062.017.195-.057.854c.021.302-.113.657-.092 1.029-.04.341.334.573.353.771-.024.243-.049.563-.109.416.064.961.083.295.15-.108.042.262.089.548.07 1.081l-.018.308a3.596 3.596 0 0 0-.048-.308c.004-.115.012-.238.012-.352-.141.021-.338.44-.332.917-.018.101-.041.147-.074.066.032.475.057.562.08.485a4.829 4.829 0 0 1-.014.377 1.997 1.997 0 0 1-.025.191.655.655 0 0 1-.055.182l-.008-.129-.09.526c.064.188.107.021.141-.272l.198 1.026c-.05.331-.036.269-.012.275-.013.186-.038.339-.088.432l-.009-.139-.098.573c.105.312.158-.254.201-.862.02.021.043.104.044.483.063-.258-.204-.556-.21-.861.02-.282-.05-.528-.025-.661.021.298.166.713.166.953v.005l-.032.701c.048.421.108 1.638.199 1.477-.007-.029.008-.072-.001-.146.009.074.027.117.035.146.021.1-.09-.009-.078-.169l-.123-.003v.395-.336.69c0 .078-.025.154-.037.229l.037.261v.398c0 .17.092.851.05.748-.001.075-.058.149-.053.215.028-.095.003-.187.003-.276v.062c0 .04.008-.043.01-.166 0-.006-.01-.012-.01-.017v.623c0 .099.108.192.094.282-.045.31-.014.668-.049 1.119.058-.099.094.146.086.476.27.006.617-.218.877-.229-.238-.062-.432-.354-.66-.354h1.475c.281 1 .555.383.772.432-.023-.002-.046.115-.069.113.443.053-.678.296.936.225-.006-.045-.214-.062-.502-.098.002-.016.014-.016.039-.027 1.113-.056 2.295-.082 3.506-.107.298.076.561.138.689.16l.031.004c-.014-.014-.021-.025-.018-.039.625.104 1.256.186 2.043.152l1.695-.021c.5.064 1.026.104 1.643.078 1.754-.006 14.056-.092 15.392-.066l-.064.026c.428-.028.823-.04 1.2-.044l.047.029c.994.059 1.644.064 2.423.084a.235.235 0 0 0 .072-.084 13.48 13.48 0 0 0 1.505-.088l.229.144c1.084.063 1.9.071 2.752.091.215-.165-.143-.373-.143-.58v-.342c0 .002-.061.006-.031.009.018-.196-.033-.417-.027-.726.005-.35-.016-.764.011-1.283l-.009.951.059.338v-1.102c0 .016-.105.031-.104.039 0-.123-.051-.385-.049-.502.002.117-.023.234-.023.234h-.014c-.004 0 .188.277.188.268v.215c0-.309-.017-.596-.007-.943-.008-.041-.065-.059-.074-.059.009 0-.013.018-.005.059l.002.086-.021-.131c.012-.407.004-.9.041-1.613l-.109.982.113.045c-.021.188.061.377.061.602v-.217c0-.148-.081-.292-.062-.43l.047-.071c-.012.101.018.136.018.235v-.957c0 .002.008-.002.014-.015l-.014-.147v-.565c0-.076-.107-.142-.105-.195l-.051-.021c-.006.146-.035.385-.028.786l.084.147c.017.099.103-.01.103-.17v-.003.394l-.037-.908c.01-.012-.021.021-.007.129l-.058-.299.003-.382c.077-.084.112.75.036 1.186.061.901.054-1.203.087-.158.06-1.753-.067-.222-.101-1.562.176.809.213 1.874.492 2.444-.029-1.117.125-.508.178-1.428l.033-.847-.269 1.09c-.011-.403-.001-.731.019-1.021-.002-.006-.004-.013-.008-.02l.049-.484c.008-.352.021-.733-.017-.727.043-.027.026.366.021.727.062-.594.144-1.103.108-2.009l-.021-.045c-.022.572-.063 1.058-.162 1.474l-.008.029c.104-.423.146-.918.168-1.503-.027-.054-.051-.069-.071-.062.021-.008.045.009.073.062l.021-.731c-.026.296-.106.439-.169.688l.021.051v.002c-.062.133-.103.336-.223-.399.004-.447.021-.677.049-.795.047.214.103.407.178.561l-.004-.254c.174-.271.103-.301.324-1.203-.047-.297-.101.068-.162.443.008-.088.01-.207.004-.296l-.017.402c-.044.262-.094.565-.146.565h-.006c.021-1 .125-.24.164-.927l.032-.799-.049.188.004-.11-.102.436c-.004-1.052.123-1.211.213-.873-.039-1.606.205-1.013.076-2.255-.062.429-.178.724-.194 1.148l.007-.562-.029.124-.008-.354a.287.287 0 0 0-.042-.076c.058-.5.261.354.22-1.328-.008.563-.08.151-.135.019l.025-.164.093-.403c-.01-.063-.021-.095-.028-.101.057-.555.09-1.051.213-.917.016.475-.033.599-.076.783.022-.066.052-.079.078-.082.067-1.371-.174-1.067-.152-1.899.008-.066.013-.141.011-.242l.009-.116-.013-.005c-.004-.103-.015-.226-.028-.383l-.04.199c.049-.688.061-3.777.067-4.334l.007-.041c.021-.063.047-.073.072-.077.029-.584-.004-.834-.045-1.013.014-.246.029-.495.059-.754l-.141-.254.004-.051-.038-.01-.006-.012c.157-.236.267-.946.343-1.656l.043-1.468zm-1.167 22.064l-.005.024-.025-.032.041-.242-.013.231.002.019zM24.167 17.252c.161.088.301.151.976.219h-.003c-.673-.068-.813-.131-.973-.219zm1.326-.117c.231.018.222.052.164.093-.279-.017-.321-.039-.183-.079-.011-.007-.002-.011.019-.014zm2.349.077c.205.017.273.04.238.073-.328-.011-.309-.039-.238-.073zm-.458-.509c-.011.016.023.031.136.044-.118-.013-.151-.028-.136-.044zm.366.01c-.001.018.067.034.176.061h-.003c-.107-.027-.175-.044-.173-.061zm-14.085.055l.003.001-.003.003v-.004zm13.665.732h-.204.204zm22.066 20.825l.014-.13v.002l-.014.128.002.29v.008l-.002-.298zM28.431 16.49c.048-.004.097-.007.142-.015a1.34 1.34 0 0 1-.142.015zm-.693.078c-.006-.022-.096-.045-.349-.066l.101-.002c.201.021.263.045.248.068zm-.886.707c.383-.025.638-.043.632-.084l.106.006-.137.07-.154.001c-.076.022-.044.04.047.056l-.482-.027-.225-.115c-.383.018-.638.03-.633.06-.031-.001-.056-.094-.085-.095l.116-.176h.096c.021 0 .043.004.051.005a.144.144 0 0 0-.031-.005h.039c.076 0 .044.035-.047.014l.482.085c.076.047.134.145.225.205zm-1.436-.144c-.251 0-.527.002-.779 0l-.326-.08c.318.006.615.031.896.055l-.107.017c.133 0 .234.003.316.008zm-1.148-.008c-.059-.002-.111-.006-.16-.009a.104.104 0 0 1 .01-.004l.15.013zm-9.674-.374c-.02.007-.043.013-.061.02l-.009-.001a.656.656 0 0 1 .054-.019c.033-.012.049-.023-.011-.033l.038.001c.045.01.021.02-.011.032zm-1.082.458l-.012.33c.02.109.034.15.047.142-.013.011-.027-.031-.047-.142l-.002.072c-.002-.051-.006-.099-.006-.154l-.001-.031c0-.094.003-.199.009-.311.004.033.007.065.012.094zm.203 23.97l.016-.22.003-.014-.017.231.002.019v.004l-.004-.02zm33.889-24.778a1.75 1.75 0 0 0-.104.017c-.359.028-.214.043-.48.101.289-.062.08-.083.584-.118zm-20.179.094l.028.003c-.037.002-.068-.002-.107 0l-.021-.002c.036-.002.065.001.1-.001zm-4.148.548c-.411.004-.79 0-1.152-.007.117-.046.326-.091 1.002-.154.219.054.295.106.15.161zm-5.808-.17a4.076 4.076 0 0 1 .002 0h-.002zm-1.621-.072a2.503 2.503 0 0 0 0 0zm-2.35.295l-.013.085-.009-.314c.003.086.012.156.022.229zm.158 18.191l.015.232c-.004.004-.008.006-.011.017-.003.001-.005.005-.008.009-.002-.066.002-.158.004-.258zm35.59 8.753l-.001-.006v-.011l.001.017zm.074-3.326l-.064.37-.043-.321c0-.292.032-.599.032-.901v.111h.032c.012 0 .037-.314.043-.445.007.035.021.041.031.068-.006-.055-.004-.109-.01-.156.01-.002.021 0 .029.021-.011.416-.027.844-.05 1.253zm.477.253c.004 0 .008-.002.01 0a.084.084 0 0 0-.012.028l.002-.028zm.041-1.598c-.009-.001-.018-.008-.027-.02.009.012.018.019.027.02zm-.054-1.742l-.038-.477c.021-.015.044-.014.062-.029l.006.018.014.277h.006l-.004.186-.046.025zm-.013-4.924l-.026-.446c.026-.008.05-.007.065-.067v.065l-.006.396a.4.4 0 0 1-.033.052z"/><path fill="#FFF" d="M14.465 17.5h35v29h-35z"/><g fill="#FFF"><path d="M48.027 40.965l-.008.064-.004.227c.088.262.063.788.039 1.48.025 0 .055-.062.066.186-.057 1.1 0 .549.055 1.344 0-.244-.007-.552.021-.673l.027 1.526c.053-.21.108-.383.15-.127.104-.155.23.349.343.538.015-.273.028-.491.044-.593.045.035.063.297.071.617l.002.666c.015-.123.026-.246.048-.187v-.917c.012-.029.02 0 .025.056l-.025-.235-.025.182c-.021.062-.034-.061-.049-.182-.008-.244.015-.309.026-.43l-.048-.488c-.082-.185-.049 1.285-.122.488l.021-.242c-.021-.367-.021-.855-.076-1.102.097-.367-.073-1.039.057-1.102.062-1.404-.041-3.238.096-4.646-.089-.244-.259-.244-.367-.854.015-.121.026-.307.049-.244l-.049-.428c0 .244.008.551-.026.672-.04-.672-.074.307-.122.246l-.048-.918-.018.111-.156 4.921.003.044z"/><path d="M44.23 17.086l.02.102c-4.294.079-9.043.093-14.063.076l-16.259-.11-.073 10.798-.016 10.162-.381-.423.186 4.219.086 2.158.087 2.832 2.149-.063 1.452-.067 2.771-.15-1.682-.066c1.54-.211 5.478-.346 7.906-.298l-.24.101c-3.327.056.226.03-1.122.304l-.578.051.339.048.579-.05c-.065.058-.016.131-.562.151l.771.009c1.659.271 1.662.503 1.455.805.435-.036-.019-.334 1.831-.235l-.241.1 2.024-.178.902.131c.722-.062 1.188-.131 1.928-.092l.226-.198c3.312.073 7.488-.158 10.852-.011.736-.193 2.541.062 4.42-.101l-.809-.215c-2.026-.289-6.771-.138-10.051-.24l.129-.114c.688-.032 1.188-.127 2.039-.071l.225-.2c-1.438-.703-5.915.15-7.104.048-2.526-.194 1.651-.428.445-.399 2.776-.269-2.32-.498-3.497-.73-1.635-.232-4.248-.291-6.993-.289l-7.449.07a1.304 1.304 0 0 1-.222.066 1.375 1.375 0 0 1-.062-.244c-.002-.021-.005-.002-.007-.062l-.006-.172-.012-.347-.02-.695-.043-2.867c-.01-1.937.012-3.923.045-5.886.066-3.925.179-7.76.174-10.93.017-.864-.027-1.87-.087-2.919l-.097-1.593-.089-.571c.121-.021.263-.037.406-.044l.473-.005.571.01c.738.024 1.374.095 1.846.238l5.999.126-.128.114c5.838.037 12.28-.238 17.729-.323 2.38-.025 3.101-.32 4.182 0l.592.023.299.009.09.008c.086.009.166.015.248.017l.037 1.976.103 3.202c.077 2.128.161 4.22.179 6.144.104-.017.209.625.266-.228-.127-2.362.129-5.082.404-5.165l-.025.884.226-1.578-.088-1.013c.067-.259.122-.375.165-.393.049-.863.135-1.669.229-2.484.047-.434.096-.757.146-1.294l.136-1.822-.042-.003-1.403.044-1.268.013a41.278 41.278 0 0 1-2.648-.101z"/></g><path fill="#BCC0C4" d="M50.016 37.367l-.012.367c.012-.1.016-.218.012-.367zM49.949 41.045c-.062.115-.062-.188-.055-.525l-.045.504c.03.074.063.171.1.021zM16.654 16.605c.716.057.145.115.982.122-.259-.024-.271-.106-.982-.122zM13.615 44.021h.002v-.013zM50.125 22.241l-.002.034.068.021z"/><path fill="#F5F2F7" d="M15.465 19.271h32V44.5h-32V19.271z"/><g><path fill="#FFF" d="M48.494 9.5l.124 1.403c.005.049.01.116.017.161l.024.17-.011.168c-.013.185-.025.374-.047.566l.133.244-.071.501c-.029.201-.044.414-.062.639-.018.209-.031.406-.054.6l.127 2.81-.05.003.023.982-.021.321.54.034 1.082-.011.064.005c.174.014.301.028.461.069.158.045.262.078.379.12.191.068.425.134.834.151.58.022 1.138.034 1.656.034.953 0 1.782-.044 2.256-.087l1.561-.149v.157l1-.01v5.497l-1.748.02a7.39 7.39 0 0 1-.506-.018c-.594.045-1.532.09-2.581.09-.588 0-1.21-.013-1.866-.039a8.263 8.263 0 0 1-2.06-.335l-.683.006-6.229-.393.354-5.567-.016-.58a8.304 8.304 0 0 1-.131-1.064l-.258-3.862.31-.031.082-.749-.009-.226-.09-1.63h5.466z"/><path fill="#BCC0C4" d="M56.465 19.891v-.013c-1 .046-1.619.093-2.643.093-.527 0-1.198-.012-1.805-.036a4.319 4.319 0 0 1-1.32-.237c-.086-.03-.184-.055-.264-.078a1.174 1.174 0 0 0-.22-.027l-1.077.01-2.097-.132.108-1.752-.029-1.193-.01-.027a3.03 3.03 0 0 1-.118-.764l.124-.245-.008-.13c-.02.064-.03.127-.039.187.008-.048.011-.115.014-.188l.025-.002-.063-1.45.015-.114c.021-.188.032-.375.047-.552.021-.261.039-.507.071-.74l-.118-.217.051-.476c.02-.169.031-.123.043-.284-.012-.074-.021-.022-.027-.022h-2.501c.006 0 .007-.008.017.085-.004.052-.01 0-.016.053l-.139 1.214.129.205c-.002.014-.004.015-.004.029l-.032.381-.241.021.16 2.411c.021.312.053.644.131.988l.021.784-.264 4.136 4.678.295.871-.008a6.58 6.58 0 0 0 1.896.338c.634.025 1.245.038 1.815.038 1.086 0 2.053-.049 2.599-.095.171.015.526.022.721.022.113 0 .498-.001.498-.003v-2.5a21.052 21.052 0 0 1-.999-.005z"/><path fill="#FFF" d="M21.236 9.5l-.104 1.816.082.769.309.041-.256 3.867c-.02.289-.052.666-.132 1.067l-.015.582.354 5.568-6.23.393-.685-.005a8.28 8.28 0 0 1-2.062.335c-.658.026-1.29.039-1.878.039-1.049 0-2.007-.045-2.601-.09a8.518 8.518 0 0 1-.544.018l-1.911-.02-.1-1.483v-4.014l1 .01v-.145l1.73.137a30.47 30.47 0 0 0 2.378.087c.519 0 1.1-.012 1.681-.034.408-.018.652-.083.844-.151a6.12 6.12 0 0 1 .337-.107c.21-.054.338-.068.514-.082l.063-.005 1.084.011.541-.034-.021-.453.025-1.114h-.022l.025-.796-.01.048.084-1.833a21.238 21.238 0 0 1-.051-.561c-.019-.248-.033-.453-.063-.654l-.072-.497.134-.24a12.798 12.798 0 0 1-.048-.562l-.01-.163.024-.16c.007-.045.012-.131.017-.18l.128-1.405h5.461z"/><path fill="#BCC0C4" d="M8.022 22.376c.546.046 1.513.095 2.598.095.571 0 1.183-.013 1.816-.038a6.602 6.602 0 0 0 1.897-.338l.87.008 4.679-.295-.264-4.137.021-.784a6.35 6.35 0 0 0 .131-.988l.16-2.413-.241-.024c-.014-.13-.023-.262-.032-.388l-.003-.042.128-.231-.139-1.267c-.006-.054-.011.104-.016.052.009-.094.011-.085.017-.085h-2.5c-.008 0-.017-.052-.028.022.011.161.023.22.042.389l.053.423-.121.19c.034.233.053.466.072.727.014.177.027.358.048.545l.013.111-.065 1.448.027.001c.003.073.007.14.012.188a1.12 1.12 0 0 0-.04-.187l-.006.13.125.245c-.021.313-.047.538-.119.764l-.008.027-.031 1.193.111 1.752-2.092.132-1.073-.01a1.21 1.21 0 0 0-.208.027c-.08.023-.154.048-.24.078a4.044 4.044 0 0 1-1.278.237 36.53 36.53 0 0 1-1.561.036c-1.023 0-2.312-.047-2.312-.093v.013a18.359 18.359 0 0 1-1 .005v2.5c0 .002.055.003.167.003.194.001.22-.006.39-.021z"/><path fill="#FFF" d="M53.648 40.079c1.049 0 2.006.045 2.601.09.173-.012.354-.019.544-.019l1.742.021-.07 1.481v4.016l-1-.01v.145l-1.561-.137a27.573 27.573 0 0 0-2.295-.087c-.52 0-1.058.012-1.637.035a2.523 2.523 0 0 0-.824.149 2.668 2.668 0 0 1-.832.188l-.063.004-1.082-.011-.539.033.021.321-.023.982.021.002-.022.926.009.021-.084 1.863c.021.196.036.393.051.577.021.248.033.461.062.662l.072.501-.135.242c.021.191.037.38.049.562l.01.161-.023.161c-.008.045-.013.105-.018.155l-.128 1.387h-5.463s.103-1.756.104-1.791l-.082-.758-.309-.033.257-3.863c.019-.289.051-.664.131-1.064l.017-.581-.354-5.567 6.229-.393.687.006a8.181 8.181 0 0 1 2.062-.335 42.722 42.722 0 0 1 1.875-.042z"/><path fill="#BCC0C4" d="M44.498 48.15l-.16 2.414.241.022c.013.13.022.263.032.39 0 .014.002.026.004.041l-.129.23.139 1.268c.006.055.012-.13.016-.076-.01.094-.011.061-.017.061h2.501c.007 0 .016.078.027.003-.012-.161-.023-.208-.043-.378l-.051-.415.118-.188c-.032-.23-.053-.465-.071-.726-.015-.177-.026-.356-.047-.546l-.015-.206.063-1.545h-.025c-.003 0-.006-.045-.014-.092.009.059.021.171.039.233l.008-.104-.124-.231c.021-.312.047-.533.118-.76l.009-.023.03-1.19-.111-1.751 2.092-.131 1.074.01c.136-.01.164-.018.208-.025.08-.023.153-.05.239-.078a4.077 4.077 0 0 1 1.277-.237 52.879 52.879 0 0 1 1.891-.036c1.023 0 1.645.047 2.645.093v-.017c0-.005.441-.008.678-.008l.322.002v-2.5l-.498-.002a9.82 9.82 0 0 0-.634.021 34.82 34.82 0 0 0-2.642-.095c-.57 0-1.205.013-1.84.038a6.603 6.603 0 0 0-1.908.338l-.875-.009-4.682.296.262 4.137-.021.784a7.302 7.302 0 0 0-.126.988z"/><path fill="#FFF" d="M10.62 40.079c.588 0 1.22.013 1.876.039a8.28 8.28 0 0 1 2.063.335l.685-.006 6.23.393-.354 5.567.015.579c.08.402.112.774.131 1.063l.257 3.862-.309.029-.082.75.009.201.095 1.604h-5.461l-.125-1.375c-.005-.05-.01-.103-.017-.147l-.024-.164.01-.164c.012-.185.027-.373.048-.563l-.134-.243.072-.501c.029-.201.044-.414.062-.639.016-.209.03-.404.052-.601l-.127-2.811.05-.003-.025-.982.021-.321-.54-.032-1.083.01-.063-.004a2.634 2.634 0 0 1-.84-.188 2.539 2.539 0 0 0-.835-.149 42.144 42.144 0 0 0-1.656-.035c-.954 0-1.952.043-2.425.087l-1.73.148v-.158l-1 .01v-5.497l1.917-.021c.19 0 .419.007.591.019a36.57 36.57 0 0 1 2.646-.092z"/><path fill="#BCC0C4" d="M8.465 44.159v.013c0-.046 1.288-.093 2.312-.093.527 0 1.033.012 1.639.036.593.023.935.128 1.239.236.086.029.141.056.221.078.044.012.063.019.198.026l1.068-.011 2.089.133-.112 1.752.031 1.191.007.026c.072.228.099.452.119.765l-.125.246.006.129a.993.993 0 0 0 .04-.187 3.205 3.205 0 0 0-.012.188l-.027.002.065 1.449-.013.112c-.021.188-.034.376-.048.554-.02.262-.038.508-.072.739l.121.218-.053.476c-.019.17-.031.099-.042.26.012.075.021-.003.028-.003h2.5c-.006 0-.008.033-.017-.061.005-.054.01.014.016-.041l.139-1.207-.128-.203.003-.026c.009-.126.019-.251.032-.381l.241-.021-.16-2.412a6.265 6.265 0 0 0-.131-.986l-.021-.783.264-4.137-4.679-.295-.87.008a6.567 6.567 0 0 0-1.897-.338 46.422 46.422 0 0 0-1.816-.038c-1.085 0-2.052.049-2.598.095-.171-.015-.196-.021-.391-.021a5.18 5.18 0 0 0-.167.002v2.5l.323-.002c.234.003.678.007.678.012z"/></g></svg>