<svg xmlns="http://www.w3.org/2000/svg" width="64" height="64" viewBox="0 0 64 64"><path opacity=".3" fill="#333" d="M14.936 56.296c-.107 0-.241-.007-.423-.025a4.586 4.586 0 0 1-2.215-.812 3.945 3.945 0 0 1-1.056-1.113 3.524 3.524 0 0 1-.538-1.798l-.006-1.418c-.002-1.872.009-5.764.064-7.13.161-3.66.046-6.507-.076-9.521-.103-2.525-.208-5.137-.143-8.292.07-3.398.122-6.864.156-10.471l.027-3.677c-.041-.817.377-1.753 1.091-2.364.988-.854 2.452-1.17 3.796-.828.741.197 1.374.566 1.845 1.07.137.148.257.301.36.458.142-.06.263-.113.352-.169l.353-.169a22.29 22.29 0 0 1 4.195-.926l.295-.047 1.111-.084c.488-.025.945-.036 1.396-.036 1.283 0 2.652.089 4.07.265l2.816.222c1.199.094 3.607.695 6.156 1.331 1.774.442 4.181 1.042 4.843 1.091.268-.025.826-.061 1.755-.005.487.029.944.043 1.437.013.558-.026 1.062-.05 1.438-.117l.362-.06a4.483 4.483 0 0 1 .917-.024l.558.091a3.121 3.121 0 0 1 1.873 1.309c.201.297.358.663.455 1.068.049.218.078.419.085.621l.13 12.901c.031 2.688.059 5.383.059 8.055 0 .635-.229 1.164-.395 1.55l-.093.22c-.382 1.002-1.459 1.615-1.779 1.779a3.625 3.625 0 0 1-.992.342l-.473.103c-.372.08-.745.146-1.118.201-.741.11-1.485.182-2.213.212-.795.029-1.595.026-2.273-.043-1.434-.141-2.78-.426-4.083-.701l-3.814-.833c-2.75-.582-4.998-.928-7.065-1.085-1.715-.125-3.18-.125-4.489 0l.018.044-1.888.323a9.132 9.132 0 0 0-1.996.471 7.39 7.39 0 0 0-.74.323c-.126.068-.22.119-.308.172l-.299.187V52.3c.072.263.084.544.045.903-.114 1.019-.936 2.293-2.515 2.855l-.209.071a2.22 2.22 0 0 1-.859.167z"/><path fill="#FFF" d="M12.436 53.796c-.107 0-.241-.007-.423-.025a4.586 4.586 0 0 1-2.215-.812 3.945 3.945 0 0 1-1.056-1.113 3.524 3.524 0 0 1-.538-1.798l-.006-1.418c-.002-1.872.009-5.764.064-7.13.161-3.66.046-6.507-.076-9.521-.103-2.525-.208-5.137-.143-8.292.07-3.398.122-6.864.156-10.471l.027-3.677c-.04-.817.378-1.753 1.092-2.364.988-.854 2.452-1.17 3.796-.828.741.197 1.374.566 1.845 1.07.137.148.257.301.36.458.142-.06.263-.113.352-.169l.353-.169a22.29 22.29 0 0 1 4.195-.926l.295-.047 1.111-.084c.488-.025.945-.036 1.396-.036 1.283 0 2.652.089 4.07.265l2.816.222c1.199.094 3.607.695 6.156 1.331 1.774.442 4.181 1.042 4.843 1.091.268-.025.826-.061 1.755-.005.487.029.944.043 1.437.013.558-.026 1.062-.05 1.438-.117l.362-.06a4.483 4.483 0 0 1 .917-.024l.558.091a3.121 3.121 0 0 1 1.873 1.309c.201.297.358.663.455 1.068.049.218.078.419.085.621l.13 12.901c.031 2.688.059 5.383.059 8.055 0 .635-.229 1.164-.395 1.55l-.093.22c-.382 1.002-1.459 1.615-1.779 1.779a3.625 3.625 0 0 1-.992.342l-.473.103c-.372.08-.745.146-1.118.201-.741.11-1.485.182-2.213.212-.795.029-1.595.026-2.273-.043-1.434-.141-2.78-.426-4.083-.701l-3.814-.833c-2.75-.582-4.998-.928-7.065-1.085-1.715-.125-3.18-.125-4.489 0l.018.044-1.888.323a9.132 9.132 0 0 0-1.996.471 7.39 7.39 0 0 0-.74.323c-.126.068-.22.119-.308.172l-.299.187V49.8c.072.263.084.544.045.903-.114 1.019-.936 2.293-2.515 2.855l-.209.071a2.23 2.23 0 0 1-.86.167zM12 9.207c-.203 0-.494.042-.727.243l.002.04-.049.069-.026 3.683a915.714 915.714 0 0 1-.157 10.506c-.063 3.064.041 5.628.142 8.109.119 2.944.243 5.987.076 9.769-.049 1.216-.064 4.851-.062 6.995l.006 1.396a.508.508 0 0 0 .078.23.928.928 0 0 0 .257.267c.211.15.467.239.781.271l.015.001c.07-.025.141-.049.226-.075a.87.87 0 0 0 .453-.336 1.89 1.89 0 0 1-.039-.386V36.095c0 .102.02.198.056.273l1.263-.764-.836-1.066a6.79 6.79 0 0 1 .867-.57l.405-.258c.127-.076.259-.147.394-.221l.095-.051c.325-.166.676-.319 1.06-.464a11.708 11.708 0 0 1 1.616-.46l.895-.234c2.01-.425 4.263-.529 7.111-.323 2.208.168 4.581.532 7.474 1.144l3.791.828c1.236.262 2.5.53 3.772.654.623.064 1.244.055 1.854.03a17.97 17.97 0 0 0 1.895-.181c.311-.047.621-.102.929-.167l.501-.108a.996.996 0 0 0 .196-.058c.198-.102.354-.227.416-.294l.1-.239a2.97 2.97 0 0 0 .153-.395 888.482 888.482 0 0 0-.074-9.033c-.031-2.618-.062-5.225-.068-7.789l-.047-3.98c-.024-.122-.042-.15-.042-.15l-.122-.061a.777.777 0 0 0-.157-.013l-.402.051c-.568.103-1.173.131-1.757.158-.693.04-1.216.025-1.827-.012-.79-.048-1.249-.009-1.323 0l-.212.013c-.852-.007-2.686-.455-5.608-1.183-2.21-.551-4.716-1.176-5.667-1.251l-2.883-.228c-1.832-.225-3.389-.3-4.983-.218l-1.177.108a19.363 19.363 0 0 0-3.513.754c-.239.133-.506.248-.805.377l-.775.348c-.159.077-.329.162-.506.256l-2.212 1.179.008-2.838-.007-.126a.85.85 0 0 0-.459-.281A1.508 1.508 0 0 0 12 9.207z"/><path fill="#4A845F" d="M14.324 9.993c.194-.104.382-.198.557-.282l.248-.186.343-.083c.436-.191.8-.336 1.021-.481a20.683 20.683 0 0 1 3.956-.868l.181-.034s.866-.067 1.099-.083c1.841-.094 3.618.028 5.178.221l2.882.228c2.129.168 9.722 2.417 11.17 2.43 0 0 .529-.076 1.611-.011.551.033 1.062.047 1.617.014.551-.026 1.126-.051 1.614-.139l.229-.041c.086-.01.157-.023.271-.028.207-.013.43-.003.639.042a1.633 1.633 0 0 1 1.302 1.284c.023.106.041.216.045.326l.01.218.033.854.14 3.342-.134-.371c.016 5.526.139 11.246.139 16.86v.021c0 .39-.225.802-.381 1.194-.151.396-.659.789-1.068.998a2.243 2.243 0 0 1-.595.205l-.505.109c-.338.072-.68.133-1.021.184-.684.102-1.371.168-2.055.196-.678.027-1.374.033-2.061-.036-1.363-.134-2.664-.41-3.946-.682l-3.781-.826c-2.483-.525-4.917-.936-7.271-1.115-2.351-.17-4.628-.142-6.693.295l.032.08c-.904.114-1.67.311-2.325.551a8.685 8.685 0 0 0-.905.396c-.137.074-.271.146-.398.222l-.187.112-.251.164a5.408 5.408 0 0 0-.682.447c-.037-.075-.071-.126-.071-.126s.164.225.164.501V49.99c0 .204.104.094.054.551-.048.432-.466 1.227-1.527 1.604-.397.122-.35.183-.835.133a3.087 3.087 0 0 1-1.499-.543 2.424 2.424 0 0 1-.654-.687 2.015 2.015 0 0 1-.309-1.025l-.006-1.4c-.002-1.869.01-5.748.063-7.063.303-6.86-.358-11.053-.218-17.842.07-3.403.122-6.875.156-10.487l.019-2.469.008-1.213c-.022-.469.229-.945.566-1.233.689-.596 1.631-.724 2.451-.515.413.11.815.315 1.119.641.15.162.286.355.361.572.082.208.107.472.101.649l-.001.33z"/><path fill="#5DB27F" d="M41.99 35.136c-.365 0-.729-.013-1.098-.052-1.305-.127-2.582-.396-3.816-.658l-3.799-.829c-2.881-.611-5.233-.974-7.41-1.139a35.998 35.998 0 0 0-2.574-.102c-1.643 0-3.082.137-4.4.415l-1.167.246.019.044c-.45.104-.879.229-1.284.38-.366.138-.703.284-1.015.443a8.806 8.806 0 0 0-.458.253l-.194.117-.275.182a5.414 5.414 0 0 0-.477.287L13.715 11.9l.004-.447.47-.229c.365-.23.752-.43 1.13-.613l.085-.042.16-.119.229-.056.325-.142c.302-.131.569-.246.794-.376a19.793 19.793 0 0 1 3.655-.79l.188-.034c.185-.015.831-.064 1.026-.075.416-.021.832-.031 1.243-.031 1.177 0 2.441.083 3.757.246l2.926.232c.992.078 3.519.809 5.746 1.365 2.892.719 4.703 1.27 5.498 1.27h.076l.075-.111c.029-.004.244-.078.642-.078.209 0 .465-.019.769 0 .354.021.69.021 1.032.021.23 0 .467-.012.705-.027.588-.025 1.188-.057 1.73-.155l.229-.042c.06-.006.094-.013.142-.015l.123-.005c.099 0 .188.009.265.024.188.038.34.132.42.256a.729.729 0 0 1 .111.27.57.57 0 0 1 .021.15l.164 3.98-.117.021c.009 2.564.037 5.17.068 7.787.033 3.023.068 6.062.068 9.072 0 .117-.113.383-.188.559l-.123.295c-.041.081-.275.311-.592.473-.082.045-.211.09-.344.115l-.516.112c-.309.063-.633.12-.956.171a18.778 18.778 0 0 1-2.765.204z"/></svg>