<?xml version="1.0" encoding="utf-8"?>
<!-- Generator: Adobe Illustrator 15.0.0, SVG Export Plug-In . SVG Version: 6.00 Build 0)  -->
<!DOCTYPE svg PUBLIC "-//W3C//DTD SVG 1.1//EN" "http://www.w3.org/Graphics/SVG/1.1/DTD/svg11.dtd">
<svg version="1.1" id="Layer_3" xmlns="http://www.w3.org/2000/svg" xmlns:xlink="http://www.w3.org/1999/xlink" x="0px" y="0px"
	 width="64px" height="64px" viewBox="0 0 64 64" enable-background="new 0 0 64 64" xml:space="preserve">
<path opacity="0.3" fill="#333333" d="M14.936,56.296c-0.107,0-0.241-0.007-0.423-0.025c-0.832-0.086-1.577-0.359-2.215-0.812
	c-0.432-0.309-0.786-0.683-1.056-1.113c-0.336-0.532-0.528-1.172-0.538-1.798l-0.006-1.418c-0.002-1.872,0.009-5.764,0.064-7.13
	c0.161-3.66,0.046-6.507-0.076-9.521c-0.103-2.525-0.208-5.137-0.143-8.292c0.07-3.398,0.122-6.864,0.156-10.471l0.027-3.677
	c-0.041-0.817,0.377-1.753,1.091-2.364c0.988-0.854,2.452-1.17,3.796-0.828c0.741,0.197,1.374,0.566,1.845,1.07
	c0.137,0.148,0.257,0.301,0.36,0.458c0.142-0.06,0.263-0.113,0.352-0.169l0.353-0.169c1.309-0.431,2.758-0.75,4.195-0.926
	l0.295-0.047l1.111-0.084c0.488-0.025,0.945-0.036,1.396-0.036c1.283,0,2.652,0.089,4.07,0.265l2.816,0.222
	c1.199,0.094,3.607,0.695,6.156,1.331c1.774,0.442,4.181,1.042,4.843,1.091c0.268-0.025,0.826-0.061,1.755-0.005
	c0.487,0.029,0.944,0.043,1.437,0.013c0.558-0.026,1.062-0.05,1.438-0.117l0.362-0.06c0.099-0.013,0.196-0.025,0.332-0.032
	c0.152-0.01,0.389-0.008,0.585,0.008l0.558,0.091c0.762,0.183,1.447,0.656,1.873,1.309c0.201,0.297,0.358,0.663,0.455,1.068
	c0.049,0.218,0.078,0.419,0.085,0.621l0.13,12.901c0.031,2.688,0.059,5.383,0.059,8.055c0,0.635-0.229,1.164-0.395,1.55l-0.093,0.22
	c-0.382,1.002-1.459,1.615-1.779,1.779c-0.372,0.206-0.819,0.309-0.992,0.342l-0.473,0.103c-0.372,0.08-0.745,0.146-1.118,0.201
	c-0.741,0.11-1.485,0.182-2.213,0.212c-0.795,0.029-1.595,0.026-2.273-0.043c-1.434-0.141-2.78-0.426-4.083-0.701l-3.814-0.833
	c-2.75-0.582-4.998-0.928-7.065-1.085c-1.715-0.125-3.18-0.125-4.489,0l0.018,0.044l-1.888,0.323
	c-0.722,0.091-1.393,0.25-1.996,0.471c-0.26,0.098-0.51,0.206-0.74,0.323c-0.126,0.068-0.22,0.119-0.308,0.172l-0.299,0.187V52.3
	c0.072,0.263,0.084,0.544,0.045,0.903c-0.114,1.019-0.936,2.293-2.515,2.855l-0.209,0.071
	C15.572,56.214,15.321,56.296,14.936,56.296z"/>
<path fill="#FFFFFF" d="M12.436,53.796c-0.107,0-0.241-0.007-0.423-0.025c-0.832-0.086-1.577-0.359-2.215-0.812
	c-0.432-0.309-0.786-0.683-1.056-1.113c-0.336-0.532-0.528-1.172-0.538-1.798l-0.006-1.418c-0.002-1.872,0.009-5.764,0.064-7.13
	c0.161-3.66,0.046-6.507-0.076-9.521c-0.103-2.525-0.208-5.137-0.143-8.292c0.07-3.398,0.122-6.864,0.156-10.471l0.027-3.677
	C8.186,8.722,8.604,7.786,9.318,7.175c0.988-0.854,2.452-1.17,3.796-0.828c0.741,0.197,1.374,0.566,1.845,1.07
	c0.137,0.148,0.257,0.301,0.36,0.458c0.142-0.06,0.263-0.113,0.352-0.169l0.353-0.169c1.309-0.431,2.758-0.75,4.195-0.926
	l0.295-0.047l1.111-0.084c0.488-0.025,0.945-0.036,1.396-0.036c1.283,0,2.652,0.089,4.07,0.265l2.816,0.222
	c1.199,0.094,3.607,0.695,6.156,1.331c1.774,0.442,4.181,1.042,4.843,1.091c0.268-0.025,0.826-0.061,1.755-0.005
	c0.487,0.029,0.944,0.043,1.437,0.013c0.558-0.026,1.062-0.05,1.438-0.117l0.362-0.06c0.099-0.013,0.196-0.025,0.332-0.032
	c0.152-0.01,0.389-0.008,0.585,0.008l0.558,0.091c0.762,0.183,1.447,0.656,1.873,1.309c0.201,0.297,0.358,0.663,0.455,1.068
	c0.049,0.218,0.078,0.419,0.085,0.621l0.13,12.901c0.031,2.688,0.059,5.383,0.059,8.055c0,0.635-0.229,1.164-0.395,1.55l-0.093,0.22
	c-0.382,1.002-1.459,1.615-1.779,1.779c-0.372,0.206-0.819,0.309-0.992,0.342l-0.473,0.103c-0.372,0.08-0.745,0.146-1.118,0.201
	c-0.741,0.11-1.485,0.182-2.213,0.212c-0.795,0.029-1.595,0.026-2.273-0.043c-1.434-0.141-2.78-0.426-4.083-0.701l-3.814-0.833
	c-2.75-0.582-4.998-0.928-7.065-1.085c-1.715-0.125-3.18-0.125-4.489,0l0.018,0.044l-1.888,0.323
	c-0.722,0.091-1.393,0.25-1.996,0.471c-0.26,0.098-0.51,0.206-0.74,0.323c-0.126,0.068-0.22,0.119-0.308,0.172l-0.299,0.187V49.8
	c0.072,0.263,0.084,0.544,0.045,0.903c-0.114,1.019-0.936,2.293-2.515,2.855l-0.209,0.071
	C13.072,53.714,12.821,53.796,12.436,53.796z M12,9.207c-0.203,0-0.494,0.042-0.727,0.243l0.002,0.04l-0.049,0.069L11.2,13.242
	c-0.034,3.621-0.086,7.098-0.157,10.506c-0.063,3.064,0.041,5.628,0.142,8.109c0.119,2.944,0.243,5.987,0.076,9.769
	c-0.049,1.216-0.064,4.851-0.062,6.995l0.006,1.396c0.001,0.061,0.032,0.158,0.078,0.23c0.064,0.103,0.147,0.188,0.257,0.267
	c0.211,0.15,0.467,0.239,0.781,0.271l0.015,0.001c0.07-0.025,0.141-0.049,0.226-0.075c0.266-0.096,0.396-0.247,0.453-0.336
	c-0.023-0.111-0.039-0.239-0.039-0.386V36.095c0,0.102,0.02,0.198,0.056,0.273l1.263-0.764l-0.836-1.066
	c0.253-0.198,0.521-0.374,0.867-0.57l0.405-0.258c0.127-0.076,0.259-0.147,0.394-0.221l0.095-0.051
	c0.325-0.166,0.676-0.319,1.06-0.464c0.514-0.188,1.054-0.342,1.616-0.46l0.895-0.234c2.01-0.425,4.263-0.529,7.111-0.323
	c2.208,0.168,4.581,0.532,7.474,1.144l3.791,0.828c1.236,0.262,2.5,0.53,3.772,0.654c0.623,0.064,1.244,0.055,1.854,0.03
	c0.621-0.025,1.259-0.087,1.895-0.181c0.311-0.047,0.621-0.102,0.929-0.167l0.501-0.108c0.08-0.016,0.164-0.042,0.196-0.058
	c0.198-0.102,0.354-0.227,0.416-0.294l0.1-0.239c0.056-0.128,0.14-0.323,0.153-0.395c-0.004-2.974-0.039-6.012-0.074-9.033
	c-0.031-2.618-0.062-5.225-0.068-7.789l-0.047-3.98c-0.024-0.122-0.042-0.15-0.042-0.15l-0.122-0.061
	c-0.023-0.005-0.075-0.013-0.157-0.013l-0.402,0.051c-0.568,0.103-1.173,0.131-1.757,0.158c-0.693,0.04-1.216,0.025-1.827-0.012
	c-0.79-0.048-1.249-0.009-1.323,0l-0.212,0.013c-0.852-0.007-2.686-0.455-5.608-1.183c-2.21-0.551-4.716-1.176-5.667-1.251
	l-2.883-0.228c-1.832-0.225-3.389-0.3-4.983-0.218l-1.177,0.108c-1.204,0.145-2.415,0.404-3.513,0.754
	c-0.239,0.133-0.506,0.248-0.805,0.377l-0.775,0.348c-0.159,0.077-0.329,0.162-0.506,0.256l-2.212,1.179l0.008-2.838l-0.007-0.126
	c-0.136-0.158-0.281-0.234-0.459-0.281C12.25,9.223,12.125,9.207,12,9.207z"/>
<path fill="#4A845F" d="M14.324,9.993c0.194-0.104,0.382-0.198,0.557-0.282l0.248-0.186l0.343-0.083
	c0.436-0.191,0.8-0.336,1.021-0.481c1.21-0.398,2.563-0.701,3.956-0.868l0.181-0.034c0,0,0.866-0.067,1.099-0.083
	c1.841-0.094,3.618,0.028,5.178,0.221c0,0,0.754,0.06,2.882,0.228c2.129,0.168,9.722,2.417,11.17,2.43c0,0,0.529-0.076,1.611-0.011
	c0.551,0.033,1.062,0.047,1.617,0.014c0.551-0.026,1.126-0.051,1.614-0.139l0.229-0.041c0.086-0.01,0.157-0.023,0.271-0.028
	c0.207-0.013,0.43-0.003,0.639,0.042c0.423,0.084,0.813,0.326,1.05,0.688c0.121,0.179,0.201,0.383,0.252,0.596
	c0.023,0.106,0.041,0.216,0.045,0.326l0.01,0.218l0.033,0.854l0.14,3.342l-0.134-0.371c0.016,5.526,0.139,11.246,0.139,16.86v0.021
	c0,0.39-0.225,0.802-0.381,1.194c-0.151,0.396-0.659,0.789-1.068,0.998c-0.189,0.104-0.443,0.176-0.595,0.205l-0.505,0.109
	c-0.338,0.072-0.68,0.133-1.021,0.184c-0.684,0.102-1.371,0.168-2.055,0.196c-0.678,0.027-1.374,0.033-2.061-0.036
	c-1.363-0.134-2.664-0.41-3.946-0.682l-3.781-0.826c-2.483-0.525-4.917-0.936-7.271-1.115c-2.351-0.17-4.628-0.142-6.693,0.295
	l0.032,0.08c-0.904,0.114-1.67,0.311-2.325,0.551c-0.327,0.123-0.628,0.254-0.905,0.396c-0.137,0.074-0.271,0.146-0.398,0.222
	l-0.187,0.112l-0.251,0.164c-0.241,0.137-0.464,0.276-0.682,0.447c-0.037-0.075-0.071-0.126-0.071-0.126s0.164,0.225,0.164,0.501
	v13.392c0-0.004,0,0.104,0,0.104v0.399c0,0.204,0.104,0.094,0.054,0.551c-0.048,0.432-0.466,1.227-1.527,1.604
	c-0.397,0.122-0.35,0.183-0.835,0.133c-0.485-0.05-1.012-0.196-1.499-0.543c-0.241-0.172-0.472-0.396-0.654-0.687
	c-0.181-0.287-0.303-0.65-0.309-1.025l-0.006-1.4c-0.002-1.869,0.01-5.748,0.063-7.063c0.303-6.86-0.358-11.053-0.218-17.842
	c0.07-3.403,0.122-6.875,0.156-10.487l0.019-2.469l0.008-1.213c-0.022-0.469,0.229-0.945,0.566-1.233
	c0.689-0.596,1.631-0.724,2.451-0.515c0.413,0.11,0.815,0.315,1.119,0.641c0.15,0.162,0.286,0.355,0.361,0.572
	c0.082,0.208,0.107,0.472,0.101,0.649L14.324,9.993z"/>
<path fill="#5DB27F" d="M41.99,35.136c-0.365,0-0.729-0.013-1.098-0.052c-1.305-0.127-2.582-0.396-3.816-0.658l-3.799-0.829
	c-2.881-0.611-5.233-0.974-7.41-1.139c-0.924-0.066-1.765-0.102-2.574-0.102c-1.643,0-3.082,0.137-4.4,0.415l-1.167,0.246
	l0.019,0.044c-0.45,0.104-0.879,0.229-1.284,0.38c-0.366,0.138-0.703,0.284-1.015,0.443c-0.161,0.084-0.313,0.166-0.458,0.253
	l-0.194,0.117l-0.275,0.182c-0.135,0.072-0.299,0.167-0.477,0.287L13.715,11.9l0.004-0.447l0.47-0.229
	c0.365-0.23,0.752-0.43,1.13-0.613l0.085-0.042l0.16-0.119l0.229-0.056l0.325-0.142c0.302-0.131,0.569-0.246,0.794-0.376
	c1.141-0.367,2.401-0.64,3.655-0.79l0.188-0.034c0.185-0.015,0.831-0.064,1.026-0.075c0.416-0.021,0.832-0.031,1.243-0.031
	c1.177,0,2.441,0.083,3.757,0.246l2.926,0.232c0.992,0.078,3.519,0.809,5.746,1.365c2.892,0.719,4.703,1.27,5.498,1.27h0.076
	l0.075-0.111c0.029-0.004,0.244-0.078,0.642-0.078c0.209,0,0.465-0.019,0.769,0c0.354,0.021,0.69,0.021,1.032,0.021
	c0.23,0,0.467-0.012,0.705-0.027c0.588-0.025,1.188-0.057,1.73-0.155l0.229-0.042c0.06-0.006,0.094-0.013,0.142-0.015l0.123-0.005
	c0.099,0,0.188,0.009,0.265,0.024c0.188,0.038,0.34,0.132,0.42,0.256c0.055,0.083,0.092,0.171,0.111,0.27
	c0.014,0.052,0.021,0.101,0.021,0.15l0.164,3.98l-0.117,0.021c0.009,2.564,0.037,5.17,0.068,7.787
	c0.033,3.023,0.068,6.062,0.068,9.072c0,0.117-0.113,0.383-0.188,0.559l-0.123,0.295c-0.041,0.081-0.275,0.311-0.592,0.473
	c-0.082,0.045-0.211,0.09-0.344,0.115l-0.516,0.112c-0.309,0.063-0.633,0.12-0.956,0.171c-0.644,0.096-1.3,0.158-1.946,0.186
	C42.539,35.127,42.266,35.136,41.99,35.136z"/>
</svg>
