<svg xmlns="http://www.w3.org/2000/svg" width="64" height="64" viewBox="0 0 64 64"><path fill="#FFF" d="M15.436 56.796a4.62 4.62 0 0 1-.423-.024 4.586 4.586 0 0 1-2.215-.812 3.958 3.958 0 0 1-1.056-1.113 3.521 3.521 0 0 1-.538-1.798l-.006-1.418c-.002-1.872.009-5.764.064-7.13.161-3.66.046-6.507-.076-9.521-.103-2.524-.208-5.137-.143-8.292.07-3.398.122-6.864.156-10.471l.027-3.677c-.04-.817.378-1.753 1.092-2.364.988-.854 2.452-1.17 3.796-.828.741.197 1.374.566 1.845 1.07.137.148.257.301.36.458.142-.06.263-.113.352-.169l.353-.169a22.29 22.29 0 0 1 4.195-.926l.295-.047 1.111-.084c.488-.025.945-.036 1.396-.036 1.283 0 2.652.089 4.07.265l2.816.222c1.198.094 3.606.695 6.155 1.331 1.774.442 4.182 1.042 4.844 1.091.268-.025.826-.061 1.755-.005.487.029.944.043 1.437.013.559-.026 1.062-.05 1.438-.117l.362-.06a4.468 4.468 0 0 1 .916-.024l.559.091a3.121 3.121 0 0 1 1.873 1.309c.201.297.357.663.455 1.068.049.218.078.419.085.621l.13 12.901c.031 2.688.059 5.383.059 8.055 0 .635-.229 1.164-.395 1.55l-.094.22c-.381 1.002-1.459 1.615-1.778 1.779a3.625 3.625 0 0 1-.992.342l-.473.104c-.372.08-.745.146-1.118.201-.741.109-1.484.182-2.213.211-.795.029-1.596.027-2.273-.043-1.434-.141-2.779-.426-4.082-.7l-3.814-.833c-2.75-.582-4.998-.928-7.065-1.085-1.715-.125-3.18-.125-4.489 0l.018.044-1.888.322a9.132 9.132 0 0 0-1.996.472 7.39 7.39 0 0 0-.74.323c-.126.068-.22.119-.308.172l-.299.188V52.8c.072.263.084.544.045.903-.114 1.02-.936 2.293-2.515 2.855l-.209.07a2.22 2.22 0 0 1-.861.168zM15 12.207c-.203 0-.494.042-.727.243l.002.04-.049.069-.026 3.683a915.714 915.714 0 0 1-.157 10.506c-.063 3.064.041 5.628.142 8.109.119 2.943.243 5.986.076 9.769-.049 1.216-.064 4.851-.062 6.995l.006 1.396a.504.504 0 0 0 .078.229.928.928 0 0 0 .257.267c.211.15.467.239.781.271l.015.001c.07-.025.141-.05.226-.075a.87.87 0 0 0 .453-.336 1.89 1.89 0 0 1-.039-.386V39.095c0 .103.02.198.056.273l1.263-.765-.836-1.065a6.79 6.79 0 0 1 .867-.57l.405-.258c.127-.076.259-.147.394-.221l.095-.052c.325-.166.676-.318 1.06-.463a11.71 11.71 0 0 1 1.616-.461l.895-.233c2.01-.425 4.263-.529 7.111-.323 2.208.168 4.581.532 7.474 1.145l3.791.828c1.235.262 2.5.529 3.772.653.623.063 1.244.056 1.854.03a17.975 17.975 0 0 0 2.825-.348l.501-.108a1.07 1.07 0 0 0 .196-.058c.197-.103.354-.228.416-.295l.1-.238c.057-.129.141-.323.152-.396-.004-2.974-.039-6.012-.073-9.033-.031-2.618-.062-5.225-.068-7.789l-.047-3.98c-.024-.122-.042-.15-.042-.15l-.122-.061a.768.768 0 0 0-.157-.013l-.402.051c-.567.103-1.172.131-1.756.158-.693.04-1.217.025-1.828-.012-.789-.048-1.248-.009-1.322 0l-.212.013c-.853-.007-2.687-.455-5.608-1.183-2.21-.551-4.716-1.176-5.667-1.251l-2.883-.228c-1.832-.225-3.389-.3-4.983-.218l-1.177.108a19.363 19.363 0 0 0-3.513.754c-.239.133-.506.248-.805.377l-.775.348c-.159.077-.329.162-.506.256l-2.212 1.179.008-2.838-.007-.126a.85.85 0 0 0-.459-.281 1.59 1.59 0 0 0-.367-.044z"/><path fill="#4A845F" d="M17.324 12.993c.194-.104.382-.198.557-.282l.248-.186.343-.083c.436-.191.8-.336 1.021-.481a20.683 20.683 0 0 1 3.956-.868l.181-.034s.866-.067 1.099-.083c1.841-.094 3.618.028 5.178.221l2.882.228c2.129.168 9.723 2.417 11.17 2.43 0 0 .529-.076 1.611-.011.551.033 1.062.047 1.617.014.551-.026 1.125-.051 1.613-.139l.229-.041c.087-.01.158-.022.271-.028.207-.013.43-.003.639.042a1.635 1.635 0 0 1 1.303 1.284c.023.106.041.216.045.326l.01.218.033.854.141 3.342-.135-.371c.016 5.526.139 11.246.139 16.86v.021c0 .39-.225.801-.381 1.193-.15.396-.658.789-1.068.998a2.225 2.225 0 0 1-.594.205l-.506.109a19.013 19.013 0 0 1-3.076.379c-.678.027-1.373.033-2.061-.035-1.363-.135-2.664-.41-3.946-.682l-3.78-.826c-2.483-.525-4.917-.937-7.271-1.115-2.351-.17-4.628-.143-6.693.295l.032.08c-.904.113-1.67.311-2.325.551a8.685 8.685 0 0 0-.905.396c-.137.074-.271.146-.398.222l-.187.112-.251.164a5.4 5.4 0 0 0-.682.446c-.037-.075-.071-.126-.071-.126s.164.225.164.501v13.895c0 .203.104.094.054.551-.048.432-.466 1.227-1.527 1.604-.397.123-.35.184-.835.133a3.067 3.067 0 0 1-1.499-.543 2.424 2.424 0 0 1-.654-.687 2.011 2.011 0 0 1-.309-1.024l-.006-1.4c-.002-1.869.01-5.748.063-7.062.303-6.86-.358-11.055-.218-17.843.07-3.403.122-6.875.156-10.487l.019-2.469.008-1.213c-.022-.469.229-.945.566-1.233.689-.596 1.631-.724 2.451-.515.413.11.815.315 1.119.641.15.162.286.355.361.572.082.208.107.472.101.649l-.002.331z"/><path fill="#0F0" d="M44.99 38.136c-.365 0-.729-.013-1.098-.052-1.306-.127-2.582-.396-3.816-.658l-3.799-.828c-2.881-.611-5.233-.975-7.41-1.141a35.998 35.998 0 0 0-2.574-.102c-1.643 0-3.082.137-4.4.414l-1.167.246.019.045c-.45.104-.879.229-1.284.379-.366.139-.703.285-1.015.443a8.806 8.806 0 0 0-.458.253l-.194.117-.275.183a4.965 4.965 0 0 0-.477.287L16.715 14.9l.004-.447.47-.229c.365-.23.752-.43 1.13-.613l.085-.042.16-.119.229-.056.325-.142c.302-.131.569-.246.794-.376a19.793 19.793 0 0 1 3.655-.79l.188-.034c.185-.015.831-.064 1.026-.075.416-.021.832-.031 1.243-.031 1.177 0 2.441.083 3.757.246l2.926.232c.992.078 3.52.809 5.746 1.365 2.893.719 4.703 1.27 5.498 1.27h.076l.074-.111c.029-.004.244-.078.643-.078.209 0 .465-.019.77 0 .354.021.689.021 1.031.021.23 0 .467-.012.705-.027.588-.025 1.188-.057 1.73-.155l.229-.042c.061-.006.094-.013.143-.015l.123-.005c.099 0 .188.009.264.024.188.038.341.132.421.256a.709.709 0 0 1 .11.271.532.532 0 0 1 .021.15l.164 3.98-.117.021c.01 2.564.037 5.17.068 7.787.033 3.023.068 6.062.068 9.072 0 .117-.113.383-.188.559l-.123.295c-.041.082-.274.312-.593.474-.082.045-.211.09-.344.114l-.516.112c-.309.063-.633.12-.956.171-.644.096-1.3.158-1.946.187-.269.007-.542.016-.818.016z"/></svg>