<?xml version="1.0" encoding="utf-8"?>
<!-- Generator: Adobe Illustrator 15.0.0, SVG Export Plug-In . SVG Version: 6.00 Build 0)  -->
<!DOCTYPE svg PUBLIC "-//W3C//DTD SVG 1.1//EN" "http://www.w3.org/Graphics/SVG/1.1/DTD/svg11.dtd">
<svg version="1.1" id="Layer_1" xmlns="http://www.w3.org/2000/svg" xmlns:xlink="http://www.w3.org/1999/xlink" x="0px" y="0px"
	 width="64px" height="64px" viewBox="0 0 64 64" enable-background="new 0 0 64 64" xml:space="preserve">
<g id="Buttons_x5F_Pressed">
	<g>
		<g>
			<polygon fill="#666666" points="11.972,22.768 11.998,22.678 11.98,22.467 			"/>
		</g>
		<g>
			<g>
				<path fill="#FFFFFF" d="M21.743,49.521c-1.03-0.047-1.993-0.043-2.869-0.043h-0.431c-0.473,0-0.946-0.109-1.412-0.121
					c-3.317-0.084-4.493-0.401-5.163-0.83l-0.833-0.496V27.387c0-0.277,0.107-0.615,0.076-0.844l-0.744-0.287
					c0,0,0.266-1.653,0.333-2.132l0.122-1.334c0.067-0.862,0.126-1.724,0.163-2.632l0.009-0.073
					c0.008-0.141-0.035-0.722-0.052-0.935l-0.143-0.01l-0.005-0.104l-0.105-0.033l0.058-0.851l-0.022-0.42l-0.016-0.337
					l-0.019-1.918h3.809l0.135-0.32l1.035-0.29l0.202-0.042c0.115,0.014,0.239-0.011,0.37-0.002l0.023-0.032l0.437-0.026
					c0.12-0.005,0.325-0.015,0.67-0.015c0.338,0,0.734,0.002,1.141,0.007l1.871,0.019l-0.389,0.105
					c0.479-0.001,1.04-0.005,1.04-0.008V14.83l1.924,0.025c0.327,0.008,0.702,0.016,0.887,0.022c0,0,1.294,0.041,1.682,0.056
					L26.9,14.93l0.073-0.017l0.32,0.015c0.049,0.004,0.144,0.014,0.214,0.021c1.598-0.001,2.904-0.025,4.251-0.08
					c0.601-0.017,1.262-0.027,1.969-0.027c0.744,0,1.539,0.004,2.359,0.01c0.87,0.007,1.771,0.013,2.667,0.013
					c0.575,0,1.149-0.219,1.715-0.227c1.511,0.006,3.091-0.159,4.648-0.159h0.092l0.046,0.215c0.564-0.023,1.666,0.076,2.508,0.076
					c0.289,0,0.564,0.055,0.856,0.057l4.741,0.08l-0.034,2.295l0.026,1.198c0.024,0.757,0.061,1.47,0.102,2.097
					c0.052,0.787,0.052,2.272-0.072,3.688c0.32,2.763,0.26,7.616,0.21,11.52l-0.015,1.206c-0.008,1.504-0.148,2.519-0.26,3.157
					l0.123,3.729l0.053,1.938l0.023,1.207l0.024,2.222l-6.194,0.058c-2.365,0.017-4.729,0.028-7.141,0.028
					c-3.487,0-6.471-0.028-9.384-0.094l-1.745,0.022c-0.486,0.016-0.972,0.035-1.329,0.06l-0.11,0.007l-0.423-0.036
					c-2.471,0.046-4.15,0.11-5.283,0.203l-0.095,0.062L21.743,49.521z"/>
			</g>
			<path fill="#B5BEC6" d="M21.811,47.802c-1.039-0.048-2.009-0.04-2.89-0.093l-0.474,0.027c-0.464,0-0.816,0.012-1.269,0
				c-3.241-0.082-4.142-0.34-4.142-0.533V27.345c0-1.075-0.207-1.876-0.833-2.098c0.009-0.062,0.286-2.4,0.286-2.4l-0.125,0.06
				c0.061-0.771,0.102-1.642,0.144-2.688c0.018-0.198-0.011-0.566-0.061-1.201l-0.091-1.07l-0.085-0.025l0.012-0.188l-0.052-0.003
				l-0.004-0.078l-0.015-0.545l-0.006-0.63h2.831v-0.104l0.032-0.024l0.642-0.1c0.19,0.021,0.394,0.034,0.621,0.051l0.341,0.021
				l0.093-0.065c0.11-0.005,0.295-0.01,0.609-0.01c0.333,0,0.723,0.004,1.124,0.009c0.135,0.001,0.27,0.002,0.405,0.004l0.001,0.119
				c0.33,0.002,0.667,0.004,1.007,0.004c0.715,0,1.309-0.006,2.004-0.011l1.12-0.008v-0.009c1,0.012,0.783,0.022,1.155,0.034
				c0.426,0.015,0.926,0.028,1.338,0.044c0.406-0.002,1.635-0.005,1.635-0.005l0.028,0.011c0.062,0.004,0.231,0.039,0.231,0.039
				h0.034c1.412,0,2.809-0.033,4.364-0.096c0.569-0.016,1.215-0.034,1.906-0.034c0.741,0,1.531,0,2.349,0.007
				c0.875,0.007,1.776,0.011,2.679,0.011c0.582,0,1.164-0.005,1.734-0.013c1.479,0.008,2.912,0.031,4.464,0.058l0.085,0.003v-0.006
				c1-0.021,1.671-0.03,2.585-0.03c0.287,0,0.629,0.001,0.918,0.003l3.263,0.035l0.006,0.805l0.035,1.22
				c0.026,0.771,0.064,1.494,0.109,2.159c0.051,0.766,0.044,2.215-0.071,3.504l-0.008,0.103l0.015,0.104
				c0.313,2.655,0.254,7.49,0.204,11.375l-0.015,1.205c-0.008,1.441-0.145,2.385-0.245,2.971l-0.019,0.102l0.127,3.885l0.053,1.928
				l0.021,1.197l0.008,0.705l-4.691,0.045c-2.355,0.016-4.716,0.027-7.125,0.027c-3.482,0-6.463-0.029-9.377-0.095l-1.771,0.024
				c-0.53,0.017-1.033-0.076-1.402-0.055l-0.391-0.146h-0.052C24.699,47.479,22.979,47.706,21.811,47.802z"/>
			<polygon fill="#D3D9E0" points="10.972,21.768 10.998,21.678 10.98,21.467 			"/>
		</g>
		<rect x="14.037" y="18.479" fill="#FFFFFF" width="35" height="26"/>
		<path opacity="0.5" fill="#D3D9E0" enable-background="new    " d="M49.037,24.479v1h-4v-7h-1v6h-4v-6h-1v7h-4v-7h-1v7h-4v-7h-1v7
			h-4v-7h-1v7h-4v-7h-1v7h-5v-1h5v6h-5v-1h5v6h-5v-1h5v6h-5v-1h5v5h1v-5h4v5h1v-5h4v5h1v-5h4v5h1v-5h4v5h1v-5h4v5h1v-4h4v-1h-4v-4h4
			v-1h-4v-4h4v-1h-4v-5H49.037z M39.037,24.479v5h-4v-5H39.037z M30.037,29.479h4v5h-4V29.479z M29.037,34.479h-4v-5h4V34.479z
			 M35.037,30.479h4v4h-4V30.479z M34.037,24.479v6h-4v-6H34.037z M29.037,24.479v6h-4v-6H29.037z M20.037,24.479h4v5h-4V24.479z
			 M20.037,30.479h4v4h-4V30.479z M20.037,40.479v-5h4v5H20.037z M25.037,40.479v-5h4v5H25.037z M30.037,40.479v-5h4v5H30.037z
			 M35.037,40.479v-5h4v5H35.037z M44.037,40.479h-4v-6h4V40.479z M44.037,35.479h-4v-6h4V35.479z M44.037,30.479h-4v-5h4V30.479z"
			/>
		<line fill="none" x1="14.234" y1="45.033" x2="49.566" y2="18.949"/>
	</g>
	<g id="Bullet_-_Right">
	</g>
</g>
<path fill="#F36C6C" d="M20.083,36.953c2.971-2.668,7.163-5.167,10.185-7.83c3.599-3.232,7.791-6.339,11.662-9.207
	c0.135,0.183,0.014,0.695,0.405,0.547c1.492-0.683,1.763-0.317,2.033,0.047c0.135,0.182-0.968,0.717-0.511,0.66
	c-0.967,0.717-2.512,2.004-1.409,1.468c0.458-0.056,1.612-1.195,2.137-1.16c0.526,0.035,0.083,0.786,0.608,0.821l1.291-0.957
	c0.457-0.056,0.082,0.787,0.404,0.547c1.104-0.534,2.324-1.582,3.613-2.537c0.137,0.183,0.594,0.125,0.018,0.695
	C39.367,28.594,28.029,37.562,16.54,45.652c-1.357,0.865-0.66-0.217,0.104-1.207c-0.254,0.33-0.458,0.057-0.712,0.387
	c-0.203-0.273,0.104-1.207,1.327-2.255l-0.968,0.718c-0.39,0.146-0.203-0.273-0.337-0.456c0.323-0.239,0.645-0.479,0.577-0.569
	l-0.271-0.365l-1.29,0.957c0.322-0.237,0.645-0.479,0.577-0.567l-0.271-0.364c0.578-0.568,1.68-1.104,2.258-1.675l-0.203-0.271
	c-0.713,0.387-1.613,1.192-2.258,1.672c0.255-0.33,0.188-0.422,0.053-0.604c0.899-0.808,2.07-1.251,2.834-2.239l-0.967,0.717
	C17.3,38.591,19.183,37.762,20.083,36.953z"/>
</svg>
