<svg xmlns="http://www.w3.org/2000/svg" width="64" height="64" viewBox="0 0 64 64"><path fill="#333" d="M21.743 49.521c-1.03-.047-1.993-.043-2.869-.043h-.431c-.473 0-.946-.109-1.412-.121-3.317-.084-4.493-.401-5.163-.83l-.833-.496V27.387c0-.277.107-.616.076-.844l-.744-.287s.266-1.653.333-2.132l.122-1.334c.067-.863.126-1.724.163-2.631l.009-.074c.008-.141-.035-.722-.052-.935l-.143-.009-.005-.104-.105-.033.058-.851-.022-.42-.016-.337-.019-1.918h3.809l.135-.32 1.035-.29.202-.042c.115.014.239-.011.37-.002l.023-.032.437-.026c.12-.005.325-.015.67-.015.338 0 .734.002 1.141.006l1.871.019-.389.105c.479-.001 1.04-.005 1.04-.008v-.043l1.924.026c.327.007.702.015.887.022 0 0 1.294.041 1.682.056l1.373-.004.073-.017.32.015c.049.003.144.013.214.021 1.598-.001 2.904-.026 4.251-.08a69.739 69.739 0 0 1 1.969-.028c.744 0 1.539.004 2.359.01.87.007 1.771.013 2.667.013.575 0 1.149-.22 1.715-.227 1.511.006 3.091-.159 4.648-.159h.092l.046.215c.564-.023 1.666.076 2.508.076.289 0 .564.055.856.057l4.741.08-.034 2.295.026 1.198c.024.757.061 1.47.102 2.097.052.788.052 2.272-.072 3.688.32 2.764.26 7.616.21 11.52l-.015 1.206c-.008 1.504-.148 2.518-.26 3.158l.123 3.729.053 1.938.023 1.209.024 2.221-6.194.059c-2.365.014-4.729.027-7.141.027-3.487 0-6.471-.029-9.384-.094l-1.745.021c-.486.019-.972.037-1.329.062l-.11.007-.423-.036c-2.471.046-4.15.109-5.283.203l-.095.061-.092.046z" opacity=".3"/><path fill="#666" d="M8.972 19.768l.026-.091-.018-.21z"/><path fill="#FFF" d="M18.743 46.521c-1.03-.047-1.993-.043-2.869-.043h-.431c-.473 0-.946-.109-1.412-.121-3.317-.084-4.493-.401-5.163-.83l-.833-.496V24.387c0-.277.107-.616.076-.844l-.744-.287s.266-1.653.333-2.132l.122-1.334c.067-.863.126-1.724.163-2.631l.009-.074c.008-.141-.035-.722-.052-.935l-.143-.009-.005-.104-.105-.033.058-.851-.022-.42-.016-.337-.019-1.918h3.809l.135-.32 1.035-.29.202-.042c.115.014.239-.011.37-.002l.023-.032.437-.026c.12-.005.325-.015.67-.015.338 0 .734.002 1.141.006l1.871.019-.389.105c.479-.001 1.04-.005 1.04-.008v-.043l1.924.026c.327.007.702.015.887.022 0 0 1.294.041 1.682.056l1.373-.004.073-.017.32.015c.049.003.144.013.214.021 1.598-.001 2.904-.026 4.251-.08a69.72 69.72 0 0 1 1.968-.028c.745 0 1.54.004 2.36.01.87.007 1.771.013 2.667.013.575 0 1.149-.22 1.715-.227 1.511.006 3.091-.159 4.648-.159h.092l.046.215c.564-.023 1.666.076 2.508.076.289 0 .564.055.856.057l4.741.08-.034 2.295.026 1.198c.024.757.061 1.47.102 2.097.052.788.052 2.272-.072 3.688.32 2.764.26 7.616.21 11.52l-.015 1.206c-.008 1.504-.148 2.518-.26 3.158l.123 3.729.053 1.938.023 1.209.024 2.221-6.194.059c-2.365.014-4.729.027-7.141.027-3.487 0-6.47-.029-9.384-.094l-1.745.021c-.486.019-.972.037-1.329.062l-.11.007-.423-.036c-2.471.046-4.15.109-5.283.203l-.095.061-.092.046z"/><path fill="#B5BEC6" d="M18.811 44.802c-1.039-.048-2.009-.04-2.89-.093l-.474.027c-.464 0-.816.012-1.269 0-3.241-.082-4.142-.34-4.142-.533V24.345c0-1.075-.207-1.876-.833-2.098.009-.062.286-2.4.286-2.4l-.125.059a71.18 71.18 0 0 0 .144-2.688c.018-.198-.011-.566-.061-1.202l-.091-1.07-.085-.025.012-.188-.053-.002-.004-.078-.015-.545-.006-.63h2.831v-.104l.032-.024.642-.1c.19.022.394.035.621.051l.341.021.093-.065c.11-.005.295-.01.609-.01.333 0 .723.004 1.124.008l.405.004.001.119c.33.003.667.004 1.007.004.715 0 1.309-.005 2.004-.01l1.12-.008v-.009c1 .011.783.022 1.155.034.426.014.926.028 1.338.044l1.635-.005.028.011c.062.004.231.039.231.039h.034c1.412 0 2.809-.033 4.364-.096a66.505 66.505 0 0 1 1.906-.034c.741 0 1.531 0 2.347.007.875.007 1.778.011 2.679.011.582 0 1.164-.004 1.736-.012 1.478.007 2.912.031 4.462.057l.085.002v-.005a111.503 111.503 0 0 1 3.503-.028l3.262.036.005.804.037 1.22c.026.771.064 1.494.109 2.159.051.766.044 2.216-.071 3.504l-.008.103.013.104c.315 2.656.256 7.491.206 11.375l-.015 1.205c-.008 1.441-.145 2.385-.245 2.971l-.019.102.127 3.885.053 1.928.023 1.197.008.705-4.693.045c-2.357.014-4.717.027-7.125.027-3.482 0-6.463-.029-9.377-.095l-1.771.024c-.53.016-1.033-.076-1.402-.055l-.391-.146h-.052c-2.513.001-4.233.228-5.401.324z"/><path fill="#D3D9E0" d="M7.972 18.768l.026-.091-.018-.21z"/><path fill="#FFF" d="M11.037 15.479h35v26h-35z"/><path opacity=".5" fill="#D3D9E0" d="M46.037 21.479h-4v-6h-1v6h-4v-6h-1v6h-4v-6h-1v6h-4v-6h-1v6h-4v-6h-1v6h-4v-6h-1v6h-5 5v5h-5 5v5h-5 5v5h-5 5v5h1v-5h4v5h1v-5h4v5h1v-5h4v5h1v-5h4v5h1v-5h4v5h1v-5h4-4v-5h4-4v-5h4-4v-5h4zm-10 0v5h-4v-5h4zm-9 5h4v5h-4v-5zm-1 5h-4v-5h4v5zm6-5h4v5h-4v-5zm-1-5v5h-4v-5h4zm-5 0v5h-4v-5h4zm-9 0h4v5h-4v-5zm0 5h4v5h-4v-5zm0 10v-5h4v5h-4zm5 0v-5h4v5h-4zm5 0v-5h4v5h-4zm5 0v-5h4v5h-4zm9 0h-4v-5h4v5zm0-5h-4v-5h4v5zm0-5h-4v-5h4v5z"/></svg>