<?xml version="1.0" encoding="utf-8"?>
<!-- Generator: Adobe Illustrator 15.0.0, SVG Export Plug-In . SVG Version: 6.00 Build 0)  -->
<!DOCTYPE svg PUBLIC "-//W3C//DTD SVG 1.1//EN" "http://www.w3.org/Graphics/SVG/1.1/DTD/svg11.dtd">
<svg version="1.1" id="Layer_1" xmlns="http://www.w3.org/2000/svg" xmlns:xlink="http://www.w3.org/1999/xlink" x="0px" y="0px"
	 width="64px" height="64px" viewBox="0 0 64 64" enable-background="new 0 0 64 64" xml:space="preserve">
<g id="Buttons_x5F_Released">
	<g opacity="0.3">
		<path fill="#333333" d="M21.743,49.521c-1.03-0.047-1.993-0.043-2.869-0.043h-0.431c-0.473,0-0.946-0.109-1.412-0.121
			c-3.317-0.084-4.493-0.401-5.163-0.83l-0.833-0.496V27.387c0-0.277,0.107-0.616,0.076-0.844l-0.744-0.287
			c0,0,0.266-1.653,0.333-2.132l0.122-1.334c0.067-0.863,0.126-1.724,0.163-2.631l0.009-0.074c0.008-0.141-0.035-0.722-0.052-0.935
			l-0.143-0.009l-0.005-0.104l-0.105-0.033l0.058-0.851l-0.022-0.42l-0.016-0.337l-0.019-1.918h3.809l0.135-0.32l1.035-0.29
			l0.202-0.042c0.115,0.014,0.239-0.011,0.37-0.002l0.023-0.032l0.437-0.026c0.12-0.005,0.325-0.015,0.67-0.015
			c0.338,0,0.734,0.002,1.141,0.006l1.871,0.019l-0.389,0.105c0.479-0.001,1.04-0.005,1.04-0.008V14.83l1.924,0.026
			c0.327,0.007,0.702,0.015,0.887,0.022c0,0,1.294,0.041,1.682,0.056L26.9,14.93l0.073-0.017l0.32,0.015
			c0.049,0.003,0.144,0.013,0.214,0.021c1.598-0.001,2.904-0.026,4.251-0.08c0.601-0.017,1.262-0.028,1.969-0.028
			c0.744,0,1.539,0.004,2.359,0.01c0.87,0.007,1.771,0.013,2.667,0.013c0.575,0,1.149-0.22,1.715-0.227
			c1.511,0.006,3.091-0.159,4.648-0.159h0.092l0.046,0.215c0.564-0.023,1.666,0.076,2.508,0.076c0.289,0,0.564,0.055,0.856,0.057
			l4.741,0.08l-0.034,2.295l0.026,1.198c0.024,0.757,0.061,1.47,0.102,2.097c0.052,0.788,0.052,2.272-0.072,3.688
			c0.32,2.764,0.26,7.616,0.21,11.52l-0.015,1.206c-0.008,1.504-0.148,2.518-0.26,3.158l0.123,3.729l0.053,1.938l0.023,1.209
			l0.024,2.221l-6.194,0.059c-2.365,0.014-4.729,0.027-7.141,0.027c-3.487,0-6.471-0.029-9.384-0.094l-1.745,0.021
			c-0.486,0.019-0.972,0.037-1.329,0.062l-0.11,0.007l-0.423-0.036c-2.471,0.046-4.15,0.109-5.283,0.203l-0.095,0.061L21.743,49.521
			z"/>
	</g>
	<g>
		<polygon fill="#666666" points="8.972,19.768 8.998,19.677 8.98,19.467 		"/>
	</g>
	<g>
		<g>
			<path fill="#FFFFFF" d="M18.743,46.521c-1.03-0.047-1.993-0.043-2.869-0.043h-0.431c-0.473,0-0.946-0.109-1.412-0.121
				c-3.317-0.084-4.493-0.401-5.163-0.83l-0.833-0.496V24.387c0-0.277,0.107-0.616,0.076-0.844l-0.744-0.287
				c0,0,0.266-1.653,0.333-2.132l0.122-1.334c0.067-0.863,0.126-1.724,0.163-2.631l0.009-0.074c0.008-0.141-0.035-0.722-0.052-0.935
				l-0.143-0.009l-0.005-0.104l-0.105-0.033l0.058-0.851l-0.022-0.42l-0.016-0.337L7.69,12.478h3.809l0.135-0.32l1.035-0.29
				l0.202-0.042c0.115,0.014,0.239-0.011,0.37-0.002l0.023-0.032l0.437-0.026c0.12-0.005,0.325-0.015,0.67-0.015
				c0.338,0,0.734,0.002,1.141,0.006l1.871,0.019l-0.389,0.105c0.479-0.001,1.04-0.005,1.04-0.008V11.83l1.924,0.026
				c0.327,0.007,0.702,0.015,0.887,0.022c0,0,1.294,0.041,1.682,0.056L23.9,11.93l0.073-0.017l0.32,0.015
				c0.049,0.003,0.144,0.013,0.214,0.021c1.598-0.001,2.904-0.026,4.251-0.08c0.601-0.017,1.262-0.028,1.968-0.028
				c0.745,0,1.54,0.004,2.36,0.01c0.87,0.007,1.771,0.013,2.667,0.013c0.575,0,1.149-0.22,1.715-0.227
				c1.511,0.006,3.091-0.159,4.648-0.159h0.092l0.046,0.215c0.564-0.023,1.666,0.076,2.508,0.076c0.289,0,0.564,0.055,0.856,0.057
				l4.741,0.08l-0.034,2.295l0.026,1.198c0.024,0.757,0.061,1.47,0.102,2.097c0.052,0.788,0.052,2.272-0.072,3.688
				c0.32,2.764,0.26,7.616,0.21,11.52l-0.015,1.206c-0.008,1.504-0.148,2.518-0.26,3.158l0.123,3.729l0.053,1.938l0.023,1.209
				l0.024,2.221l-6.194,0.059c-2.365,0.014-4.729,0.027-7.141,0.027c-3.487,0-6.47-0.029-9.384-0.094l-1.745,0.021
				c-0.486,0.019-0.972,0.037-1.329,0.062l-0.11,0.007l-0.423-0.036c-2.471,0.046-4.15,0.109-5.283,0.203l-0.095,0.061
				L18.743,46.521z"/>
		</g>
		<path fill="#B5BEC6" d="M18.811,44.802c-1.039-0.048-2.009-0.04-2.89-0.093l-0.474,0.027c-0.464,0-0.816,0.012-1.269,0
			c-3.241-0.082-4.142-0.34-4.142-0.533V24.345c0-1.075-0.207-1.876-0.833-2.098c0.009-0.062,0.286-2.4,0.286-2.4l-0.125,0.059
			c0.061-0.771,0.102-1.641,0.144-2.688c0.018-0.198-0.011-0.566-0.061-1.202l-0.091-1.07l-0.085-0.025l0.012-0.188L9.23,14.731
			l-0.004-0.078l-0.015-0.545l-0.006-0.63h2.831v-0.104l0.032-0.024l0.642-0.1c0.19,0.022,0.394,0.035,0.621,0.051l0.341,0.021
			l0.093-0.065c0.11-0.005,0.295-0.01,0.609-0.01c0.333,0,0.723,0.004,1.124,0.008c0.135,0.001,0.27,0.002,0.405,0.004l0.001,0.119
			c0.33,0.003,0.667,0.004,1.007,0.004c0.715,0,1.309-0.005,2.004-0.01l1.12-0.008v-0.009c1,0.011,0.783,0.022,1.155,0.034
			c0.426,0.014,0.926,0.028,1.338,0.044c0.406-0.002,1.635-0.005,1.635-0.005l0.028,0.011c0.062,0.004,0.231,0.039,0.231,0.039
			h0.034c1.412,0,2.809-0.033,4.364-0.096c0.569-0.016,1.215-0.034,1.906-0.034c0.741,0,1.531,0,2.347,0.007
			c0.875,0.007,1.778,0.011,2.679,0.011c0.582,0,1.164-0.004,1.736-0.012c1.478,0.007,2.912,0.031,4.462,0.057l0.085,0.002v-0.005
			c1-0.021,1.671-0.031,2.585-0.031c0.287,0,0.629,0.001,0.918,0.003l3.262,0.036l0.005,0.804l0.037,1.22
			c0.026,0.771,0.064,1.494,0.109,2.159c0.051,0.766,0.044,2.216-0.071,3.504l-0.008,0.103l0.013,0.104
			c0.315,2.656,0.256,7.491,0.206,11.375l-0.015,1.205c-0.008,1.441-0.145,2.385-0.245,2.971l-0.019,0.102l0.127,3.885l0.053,1.928
			l0.023,1.197l0.008,0.705l-4.693,0.045c-2.357,0.014-4.717,0.027-7.125,0.027c-3.482,0-6.463-0.029-9.377-0.095l-1.771,0.024
			c-0.53,0.016-1.033-0.076-1.402-0.055l-0.391-0.146h-0.052C21.699,44.479,19.979,44.706,18.811,44.802z"/>
		<polygon fill="#D3D9E0" points="7.972,18.768 7.998,18.677 7.98,18.467 		"/>
	</g>
	<rect x="11.037" y="15.479" fill="#FFFFFF" width="35" height="26"/>
	<path opacity="0.5" fill="#D3D9E0" enable-background="new    " d="M46.037,21.479L46.037,21.479h-4v-6h-1v6h-4v-6h-1v6h-4v-6h-1v6
		h-4v-6h-1v6h-4v-6h-1v6h-4v-6h-1v6h-5l0,0h5v5h-5l0,0h5v5h-5l0,0h5v5h-5l0,0h5v5h1v-5h4v5h1v-5h4v5h1v-5h4v5h1v-5h4v5h1v-5h4v5h1
		v-5h4l0,0h-4v-5h4l0,0h-4v-5h4l0,0h-4v-5H46.037z M36.037,21.479v5h-4v-5H36.037z M27.037,26.479h4v5h-4V26.479z M26.037,31.479h-4
		v-5h4V31.479z M32.037,26.479h4v5h-4V26.479z M31.037,21.479v5h-4v-5H31.037z M26.037,21.479v5h-4v-5H26.037z M17.037,21.479h4v5
		h-4V21.479z M17.037,26.479h4v5h-4V26.479z M17.037,36.479v-5h4v5H17.037z M22.037,36.479v-5h4v5H22.037z M27.037,36.479v-5h4v5
		H27.037z M32.037,36.479v-5h4v5H32.037z M41.037,36.479h-4v-5h4V36.479z M41.037,31.479h-4v-5h4V31.479z M41.037,26.479h-4v-5h4
		V26.479z"/>
</g>
</svg>
