<svg xmlns="http://www.w3.org/2000/svg" width="52" height="40" viewBox="0 0 52 40"><path fill="#DFDCD7" d="M8 39c-3.3 0-6-2.7-6-6V7c0-3.3 2.7-6 6-6h36c3.3 0 6 2.7 6 6v26c0 3.3-2.7 6-6 6H8z"/><path fill="#FFF" d="M44 2H8C5.25 2 3 4.25 3 7v1c0-2.75 2.25-5 5-5h36c2.75 0 5 2.25 5 5V7c0-2.75-2.25-5-5-5z"/><linearGradient id="a" gradientUnits="userSpaceOnUse" x1="26" y1="7" x2="26" y2="39.23" gradientTransform="matrix(1 0 0 -1 0 41)"><stop offset="0" stop-color="#f3f0eb"/><stop offset="1" stop-color="#faf7f2"/></linearGradient><path fill="url(#a)" d="M44 3H8C5.25 3 3 5.25 3 8v21c0 2.75 2.25 5 5 5h36c2.75 0 5-2.25 5-5V8c0-2.75-2.25-5-5-5z"/><linearGradient id="b" gradientUnits="userSpaceOnUse" x1="26" y1="6" x2="26" y2="38.23" gradientTransform="matrix(1 0 0 -1 0 41)"><stop offset="0" stop-color="#f3f0eb"/><stop offset="1" stop-color="#faf7f2"/></linearGradient><path fill="url(#b)" d="M44 3H8C5.25 3 3 5.25 3 8v21c0 2.75 2.25 5 5 5h36c2.75 0 5-2.25 5-5V8c0-2.75-2.25-5-5-5z"/><path fill="#FFF" d="M8 34h36c2.75 0 5-2.25 5-5v-1c0 2.75-2.25 5-5 5H8c-2.75 0-5-2.25-5-5v1c0 2.75 2.25 5 5 5z"/></svg>