<?xml version="1.0" encoding="utf-8"?>
<!-- Generator: Adobe Illustrator 15.0.0, SVG Export Plug-In . SVG Version: 6.00 Build 0)  -->
<!DOCTYPE svg PUBLIC "-//W3C//DTD SVG 1.1//EN" "http://www.w3.org/Graphics/SVG/1.1/DTD/svg11.dtd">
<svg version="1.1" id="Layer_1" xmlns="http://www.w3.org/2000/svg" xmlns:xlink="http://www.w3.org/1999/xlink" x="0px" y="0px"
	 width="52px" height="40px" viewBox="0 0 52 40" enable-background="new 0 0 52 40" xml:space="preserve">
<g id="Layer_1_1_">
	<g>
		<path fill="#DFDCD7" d="M8,39c-3.3,0-6-2.7-6-6V7c0-3.3,2.7-6,6-6h36c3.3,0,6,2.7,6,6v26c0,3.3-2.7,6-6,6H8z"/>
		<path fill="#FFFFFF" d="M44,2H8C5.25,2,3,4.25,3,7v1c0-2.75,2.25-5,5-5h36c2.75,0,5,2.25,5,5V7C49,4.25,46.75,2,44,2z"/>
		
			<linearGradient id="SVGID_1_" gradientUnits="userSpaceOnUse" x1="26" y1="7.0005" x2="26" y2="39.2298" gradientTransform="matrix(1 0 0 -1 0 41)">
			<stop  offset="0" style="stop-color:#F3F0EB"/>
			<stop  offset="1" style="stop-color:#FAF7F2"/>
		</linearGradient>
		<path fill="url(#SVGID_1_)" d="M44,3H8C5.25,3,3,5.25,3,8v21c0,2.75,2.25,5,5,5h36c2.75,0,5-2.25,5-5V8C49,5.25,46.75,3,44,3z"/>
		
			<linearGradient id="SVGID_2_" gradientUnits="userSpaceOnUse" x1="26" y1="6.0005" x2="26" y2="38.2298" gradientTransform="matrix(1 0 0 -1 0 41)">
			<stop  offset="0" style="stop-color:#F3F0EB"/>
			<stop  offset="1" style="stop-color:#FAF7F2"/>
		</linearGradient>
		<path fill="url(#SVGID_2_)" d="M44,3H8C5.25,3,3,5.25,3,8v21c0,2.75,2.25,5,5,5h36c2.75,0,5-2.25,5-5V8C49,5.25,46.75,3,44,3z"/>
		<path fill="#FFFFFF" d="M8,34h36c2.75,0,5-2.25,5-5v-1c0,2.75-2.25,5-5,5H8c-2.75,0-5-2.25-5-5v1C3,31.75,5.25,34,8,34z"/>
	</g>
</g>
</svg>
