<svg xmlns="http://www.w3.org/2000/svg" width="50" height="50" viewBox="0 0 50 50"><path fill="#333" d="M23.062 47.776l-.17-.02a19.74 19.74 0 0 1-4.537-1.006c-.512-.178-.842-.277-1.355-.438l-.708-.219.124-.396-.327.366a21.872 21.872 0 0 1-3.095-1.981 7.703 7.703 0 0 0-.679-.339 8.846 8.846 0 0 1-.611-.298c-.712-.412-1.51-.97-2.775-2.39-1.017-1.06-1.478-1.709-1.849-2.233a28.115 28.115 0 0 1-1.258-2.007l-.038-.062-.031-.068c-.105-.23-.202-.451-.29-.662L3.379 29.72a12.598 12.598 0 0 1-.101-.451c-.263-1.33-.338-2.709-.232-4.229.173-1.701.359-2.793.535-3.727.201-.977.442-2.02 1.043-3.385.214-.64.46-1.277.733-1.896l.042.016a23.506 23.506 0 0 1 2.341-3.751 17.808 17.808 0 0 1 3.224-3.244c.285-.271.618-.58.971-.878l.077-.061c2.151-1.584 4.787-2.811 7.428-3.457.252-.078.466-.143.683-.202l.115.405c.032-.043.068-.291.105-.328l.003-.473h-.009c-.023 0-.055.207-.094.213.043-.006.109.088.188.074.157-.029.332-.008.513-.036.44-.169.99-.203 1.605-.27.574-.063 1.225-.007 1.854-.024.247-.008.493.043.732.043h1.354l.002-.04c.479.004.959-.017 1.406.032.6.066 1.18.114 1.646.313l.509.089c.05.008.124-.188.171-.182-.046-.005-.082-.213-.107-.213h.053v.661c0 .076.109.161.168.258l.135-.49c.184.052.354.107.535.163l.005.003c2.64.646 5.272 1.874 7.427 3.459l.038.028.036.032c.35.292.672.594.973.878a17.856 17.856 0 0 1 3.215 3.231 23.8 23.8 0 0 1 2.352 3.765l.042-.017c.272.619.519 1.257.733 1.897.601 1.366.842 2.408 1.037 3.359.182.959.365 2.051.534 3.704.11 1.566.034 2.945-.228 4.268-.16.793-.362 1.454-.646 2.112l-3.481 7.905c-.35.473-.793 1.021-1.521 1.781-1.266 1.42-2.062 1.978-2.736 2.366-.266.146-.453.229-.648.319-.201.091-.395.178-.682.339a21.75 21.75 0 0 1-3.094 1.981l-.326-.366.123.396-.709.219c-.514.158-.844.259-1.342.433-.402.136-.875.291-1.564.474-.694.18-1.651.398-2.984.537l-.169.02s-3.589.226-2.163.226-2.167-.223-2.167-.223z" opacity=".3"/><path fill="#FFF" d="M21.062 45.776l-.17-.02a19.697 19.697 0 0 1-2.974-.533 23.675 23.675 0 0 1-1.563-.473c-.512-.178-.842-.277-1.355-.438l-.708-.219.124-.396-.327.366a21.872 21.872 0 0 1-3.095-1.981 7.703 7.703 0 0 0-.679-.339 8.846 8.846 0 0 1-.611-.298c-.712-.412-1.51-.97-2.775-2.39-1.017-1.06-1.478-1.709-1.849-2.233a28.115 28.115 0 0 1-1.258-2.007l-.038-.062-.031-.068c-.105-.23-.202-.451-.29-.662L1.379 27.72a12.598 12.598 0 0 1-.101-.451c-.263-1.33-.338-2.709-.232-4.229.173-1.701.359-2.793.535-3.727.201-.977.442-2.02 1.043-3.385.214-.64.46-1.277.733-1.896l.042.016a23.506 23.506 0 0 1 2.341-3.751 17.808 17.808 0 0 1 3.224-3.244c.285-.271.618-.58.971-.878l.077-.061c2.151-1.584 4.787-2.811 7.428-3.457.252-.078.466-.143.683-.202l.114.405c.033-.043.069-.291.106-.328l.003-.473h-.009c-.023 0-.055.207-.093.213.043-.006.109.088.188.074.157-.029.332-.008.513-.036.44-.169.99-.203 1.605-.27.574-.063 1.225-.007 1.854-.024.247-.008.493.043.732.043h1.354l.002-.04c.478.004.959-.017 1.406.032.6.066 1.18.114 1.646.313l.509.089c.05.008.124-.188.171-.182-.046-.005-.082-.213-.107-.213h.053v.661c0 .076.109.161.168.258l.135-.49c.184.052.354.107.535.163l.005.003c2.64.646 5.272 1.874 7.427 3.459l.038.028.036.032c.35.292.672.594.973.878a17.856 17.856 0 0 1 3.215 3.231 23.8 23.8 0 0 1 2.352 3.765l.042-.017c.272.619.519 1.257.733 1.897.601 1.366.842 2.408 1.037 3.359.182.959.365 2.051.534 3.704.11 1.566.034 2.947-.227 4.268a10.432 10.432 0 0 1-.646 2.112l-3.481 7.905c-.35.473-.793 1.021-1.521 1.781-1.266 1.42-2.062 1.978-2.736 2.366-.266.146-.453.229-.648.319-.201.091-.395.178-.682.339a21.75 21.75 0 0 1-3.094 1.981l-.326-.366.123.396-.709.219c-.514.158-.844.259-1.342.433-.402.136-.875.291-1.564.474-.694.18-1.651.398-2.984.537l-.169.02s-3.589.226-2.163.226-2.169-.223-2.169-.223z"/><path fill="#4682B5" d="M23.151 4.436c-10.641 0-19.298 8.657-19.298 19.297 0 10.643 8.657 19.3 19.298 19.3 10.642 0 19.298-8.657 19.298-19.3.002-10.64-8.656-19.297-19.298-19.297z"/><g fill="#355E7C"><path d="M28.039 3.931a3.231 3.231 0 0 0-.11-.033c.038.01.073.023.11.033z"/><path d="M43.908 23.146c-.16-1.555-.33-2.58-.514-3.554-.199-.968-.421-1.889-.969-3.12a20.641 20.641 0 0 0-.706-1.835l.087.274c-.807-1.603-1.518-2.689-2.291-3.705a16.235 16.235 0 0 0-3.012-3.016 21.27 21.27 0 0 0-.957-.868c-1.954-1.439-4.415-2.609-6.936-3.221a88.79 88.79 0 0 0-.572-.172c.192.063.019.037-.267-.009-.243-.047-.489-.097-.733-.133-.032-.088-.565-.192-1.303-.272-.728-.08-1.648-.271-2.484-.305-.008-.002-.014-.15-.021-.15h-.017c-.008 0-.014.148-.02.15-.836.033-1.758.15-2.484.23-.737.08-1.271.222-1.303.311-.246.035-.49.104-.736.15-.326.054-.51.088-.155-.015-.229.063-.455.14-.682.21-2.521.611-4.982 1.782-6.936 3.222-.331.278-.646.573-.957.87a16.227 16.227 0 0 0-3.011 3.016c-.773 1.016-1.485 2.104-2.291 3.705l.086-.273c-.265.602-.5 1.215-.705 1.835-.548 1.231-.771 2.152-.97 3.12a39.627 39.627 0 0 0-.513 3.555c-.117 1.681.025 2.906.206 3.824.188.918.422 1.533.652 2.031.457 1.537 1.054 3.475 1.739 4.758a18.402 18.402 0 0 1-.492-.811c.145.377.305.748.472 1.117.526.908.828 1.371 1.185 1.894.364.515.78 1.099 1.726 2.082 1.243 1.397 1.935 1.825 2.388 2.088.465.251.734.313 1.41.704a20.277 20.277 0 0 0 2.961 1.906l-.05-.074c1.003.311 1.384.417 2.097.664.357.121.8.268 1.457.441a18.29 18.29 0 0 0 2.755.494l-.207-.164c.81.168 1.404.182 2.053.156l.332-.018.333.018c.647.023 1.242.012 2.051-.156l-.208.164a18.27 18.27 0 0 0 2.758-.494 20.984 20.984 0 0 0 1.457-.44c.713-.247 1.094-.354 2.098-.664l-.053.074a20.36 20.36 0 0 0 2.961-1.906c.679-.392.945-.453 1.41-.704.452-.263 1.146-.689 2.389-2.088a15.938 15.938 0 0 0 1.728-2.082 27.55 27.55 0 0 0 1.185-1.895c.168-.368.328-.739.474-1.116-.158.272-.321.545-.492.811.687-1.282 1.282-3.221 1.739-4.758a8.827 8.827 0 0 0 .65-2.03c.183-.918.324-2.145.208-3.826zM23.151 43.032c-10.641 0-19.298-8.657-19.298-19.299S12.511 4.435 23.151 4.435c10.642 0 19.298 8.657 19.298 19.298.002 10.642-8.656 19.299-19.298 19.299z"/></g><path fill="#FFF" d="M22.17 20.062H12.169v10H22.17v6.21l13.303-12.21L22.17 11.851z"/><path fill="#355E7C" d="M11.849 27.288l-.009.327c-.006-1.06.023-2.173.057-3.271-.1.844-.195 1.742-.25 2.633-.028.443-.045.889-.049 1.319-.003.785.009 1.593.039 2.298.64-.024 1.25-.062 1.795-.117.636-.055.765-.123 1.076-.211.2.317 2.517.467 2.564.389.481-.059.968-.105 1.46-.146l-1.011.079 1.011-.079a43.078 43.078 0 0 1 2.037-.111l1.303-.037-.133 6.548-.023 1.54 4.902-4.377a192.588 192.588 0 0 1 2.986-2.596l.659-.562-.749.609 2.338-2.446c-.169.093-.225.082-.594.337l.421-.346c.274-.434 1.12-1.198 1.479-1.604-.039.129.28-.146.562-.391l-.142.064c.469-.41.955-.863 1.436-1.312l1.914-1.785-.553-.465a2.83 2.83 0 0 1-.397-.401l-1.19-.935c.131-.012-.717-.711-.237-.383-.765-.5-1.425-1.146-2.16-1.616-2.382-1.989-4.918-5.035-7.498-7.006l.056.092c-.92-.712-1.619-1.135-2.42-1.786.004.283.002.562-.011.849.124 1.307.188 2.57.382 2.977.026 1.121.124 2.568.174 3.668.096-.283.115 1.068.189.527.134-.729.02-.771.128-1.39l-.032.019.116-3.657.085-.773.372.364.157.154.543.475c1.546 1.197 3.123 3.614 4.693 4.904a257.414 257.414 0 0 0 5.03 4.009c.228.156.218.253.263.35l.099.071-.312.308-.972.898-2.058 1.936.074-.063c-.752.711-1.39 1.162-2.121 1.856.021.018-.092.125-.14.187-.215.024-4.2 4.215-4.512 4.401l-.229.229c-.482.407-.793.604-1.031.736l.095-.763-.159-.27-.182-.117v-.365c0-.396.074-.846.007-1.181.055-.323.042-.386.056-.774.032-.14.105-.209.126-.385l.073-.496c.023-.311.044-.562.041-.729-.006-.338-.05-.313-.096.114l-.012-.748-2.565.006-1.007.062c-.287.021-.448-.018-.592-.076-.736.035-.52-.026-1.291-.055-.187-.089-1.934.143-2.152.114l.126-.015c-.446-.008-.816-.055-1.185-.101l-.56-.063-.342-.029-.253-.02.009-.25.003-.521-.004-1.65.004-3.152c-.093-.022.021.494-.103.521.008-.661.041-1.325.074-1.991l.024-.5c.008-.156.016-.382.022-.375.013-.091.023-.17.027-.252l.009-.012a.576.576 0 0 1 .192.094c.086.034.028-.045.095-.033l.014.302c-.01-.009.035.198.095.198h.143c.09 0 .173-.196.255-.184.164.027.324-.049.539-.064.023-.034.18-.094.333-.09.008.088.47-.033.448.049l.004-.021c.092.002.158-.011.27.005l1.992-.317.083.014c.245-.003.35-.07.207-.086l.302.004-.035.006.301.006c.057.008.118.049.033.088.17-.029.361-.048.531-.031a26.208 26.208 0 0 1-1.558-.224c.204-.03.572.017.792.007.264.061.807.109 1.227.15.094-.006.158-.105.367-.062.104.069.238-.002.414.049-.201.035-.397.02-.602.017.035.081.496.056.656.078.076-.026.468 0 .715-.022-.108.078.199.051.346.092.167.011.273-.021.205-.049.055-.084-.663-.051-.432-.14.062.041.388.026.563.022.002-.047-.12-.035-.006-.08.194.011.401-.045.515.003-.037.013-.117.005-.175.004.255.005-1.378.302-1.049.274-.085-.041 1.448-.273 1.278-.276-.155-.023.111-.084-.049-.101l-.179.057c-.219-.018-.309-.1-.231-.131.367.008-1.043.315-.729.27l-.127-.021c.134-.029.489-.057.625-.008.001-.046.181-.062.329-.078l.053.008c.154-.022.369-.012.27-.072-.901.008.593-.465-.28-.491.366.101-.123.104-.507.115-.037-.034-.208-.085-.484-.111-.238.009-.141.037-.187.063-.132-.023-.386-.042-.353-.096-.187.062-.299-.041-.521-.02-.197.029.014.027-.126.059l-.945-.027c-.091-.051-.368-.139-.167-.217.448.012-.171.127.296.109-.2-.113.413-.031.498-.117-.147-.052-.45-.052-.702-.037l.051.016c-.223.015-.667.039-.907-.021.056-.041-.048-.07.115-.08l-.306-.008c-.039.014-.079.025.009.034a.94.94 0 0 1-.399-.01c-.033-.042-1.626.178-1.577.151-.22 0-.274-.063-.488-.021-.023.035 2.105-.146 1.814-.131-.188-.048-2.496.212-2.633.132-.163.003-.36.012-.322.055-.276-.021.083-.082-.114-.121-.005.006.016.021-.047.02l-.188-.055c-.403.065-1.179-.019-1.591.064l.003.02-.006-.021c.089-.048.189-.124.505-.165l.073.021c.042-.012.323-.027.304-.069a4.465 4.465 0 0 0-.979.021l-.11-.017-.019.084c.005.004.01.002.017.011-.027.094-.031.078-.048.021l-.008-.04c-.125.097.08 1.562.015 1.918.018.147.021.015.045.196-.05.513-.088.865-.117 1.4.054.17.076.184.132-.022l-.018.403c-.144-.367-.137.754-.281.351-.033.118-.04.358-.017.586.037.022.095.06.094.343l-.077.63c-.047.078-.066-.043-.104-.028.061.507-.103.441-.094.918.014.3.02.891.103.904-.005.399-.065.399-.132.359z"/><path fill="#355E7C" d="M22.17 11.269l1 .792v8.001h-1z"/></svg>