<?xml version="1.0" encoding="utf-8"?>
<!-- Generator: Adobe Illustrator 15.0.0, SVG Export Plug-In . SVG Version: 6.00 Build 0)  -->
<!DOCTYPE svg PUBLIC "-//W3C//DTD SVG 1.1//EN" "http://www.w3.org/Graphics/SVG/1.1/DTD/svg11.dtd">
<svg version="1.1" id="Layer_1" xmlns="http://www.w3.org/2000/svg" xmlns:xlink="http://www.w3.org/1999/xlink" x="0px" y="0px"
	 width="50px" height="50px" viewBox="0 0 50 50" enable-background="new 0 0 50 50" xml:space="preserve">
<g id="Buttons_x5F_Released">
	<g opacity="0.3">
		<path fill="#333333" d="M23.062,47.776l-0.17-0.02c-1.333-0.139-2.29-0.357-2.975-0.533c-0.7-0.187-1.174-0.342-1.562-0.473
			c-0.512-0.178-0.842-0.277-1.355-0.438l-0.708-0.219l0.124-0.396l-0.327,0.366c-1.082-0.57-2.122-1.236-3.095-1.981
			c-0.286-0.161-0.478-0.248-0.679-0.339c-0.198-0.09-0.385-0.175-0.611-0.298c-0.712-0.412-1.51-0.97-2.775-2.39
			c-1.017-1.06-1.478-1.709-1.849-2.233c-0.393-0.573-0.718-1.076-1.258-2.007l-0.038-0.062l-0.031-0.068
			c-0.105-0.23-0.202-0.451-0.29-0.662l-2.084-6.303c-0.036-0.146-0.069-0.297-0.101-0.451c-0.263-1.33-0.338-2.709-0.232-4.229
			c0.173-1.701,0.359-2.793,0.535-3.727c0.201-0.977,0.442-2.02,1.043-3.385c0.214-0.64,0.46-1.277,0.733-1.896l0.042,0.016
			c0.729-1.43,1.435-2.562,2.341-3.751c0.715-0.917,1.647-2.007,3.224-3.244c0.285-0.271,0.618-0.58,0.971-0.878l0.077-0.061
			c2.151-1.584,4.787-2.811,7.428-3.457c0.252-0.078,0.466-0.143,0.683-0.202l0.115,0.405c0.032-0.043,0.068-0.291,0.105-0.328
			l0.003-0.473c-0.003,0-0.006,0-0.009,0c-0.023,0-0.055,0.207-0.094,0.213c0.043-0.006,0.109,0.088,0.188,0.074
			c0.157-0.029,0.332-0.008,0.513-0.036c0.44-0.169,0.99-0.203,1.605-0.27c0.574-0.063,1.225-0.007,1.854-0.024
			c0.247-0.008,0.493,0.043,0.732,0.043h1.354l0.002-0.04c0.479,0.004,0.959-0.017,1.406,0.032c0.6,0.066,1.18,0.114,1.646,0.313
			c0.121,0.021,0.509,0.089,0.509,0.089c0.05,0.008,0.124-0.188,0.171-0.182c-0.046-0.005-0.082-0.213-0.107-0.213
			c-0.004,0,0.053,0,0.053,0v0.661c0,0.076,0.109,0.161,0.168,0.258l0.135-0.49c0.184,0.052,0.354,0.107,0.535,0.163l0.005,0.003
			c2.64,0.646,5.272,1.874,7.427,3.459l0.038,0.028l0.036,0.032c0.35,0.292,0.672,0.594,0.973,0.878
			c1.576,1.238,2.51,2.327,3.215,3.231c0.914,1.202,1.621,2.334,2.352,3.765l0.042-0.017c0.272,0.619,0.519,1.257,0.733,1.897
			c0.601,1.366,0.842,2.408,1.037,3.359c0.182,0.959,0.365,2.051,0.534,3.704c0.11,1.566,0.034,2.945-0.228,4.268
			c-0.16,0.793-0.362,1.454-0.646,2.112l-3.481,7.905c-0.35,0.473-0.793,1.021-1.521,1.781c-1.266,1.42-2.062,1.978-2.736,2.366
			c-0.266,0.146-0.453,0.229-0.648,0.319c-0.201,0.091-0.395,0.178-0.682,0.339c-0.971,0.745-2.012,1.411-3.094,1.981l-0.326-0.366
			l0.123,0.396l-0.709,0.219c-0.514,0.158-0.844,0.259-1.342,0.433c-0.402,0.136-0.875,0.291-1.564,0.474
			c-0.694,0.18-1.651,0.398-2.984,0.537l-0.169,0.02c0,0-3.589,0.226-2.163,0.226S23.062,47.776,23.062,47.776z"/>
	</g>
	<g>
		<path fill="#FFFFFF" d="M21.062,45.776l-0.17-0.02c-1.333-0.139-2.29-0.357-2.974-0.533c-0.701-0.187-1.174-0.342-1.563-0.473
			c-0.512-0.178-0.842-0.277-1.355-0.438l-0.708-0.219l0.124-0.396l-0.327,0.366c-1.082-0.57-2.122-1.236-3.095-1.981
			c-0.286-0.161-0.478-0.248-0.679-0.339c-0.198-0.09-0.385-0.175-0.611-0.298c-0.712-0.412-1.51-0.97-2.775-2.39
			c-1.017-1.06-1.478-1.709-1.849-2.233c-0.393-0.573-0.718-1.076-1.258-2.007l-0.038-0.062l-0.031-0.068
			c-0.105-0.23-0.202-0.451-0.29-0.662l-2.084-6.303c-0.036-0.146-0.069-0.297-0.101-0.451c-0.263-1.33-0.338-2.709-0.232-4.229
			c0.173-1.701,0.359-2.793,0.535-3.727c0.201-0.977,0.442-2.02,1.043-3.385c0.214-0.64,0.46-1.277,0.733-1.896l0.042,0.016
			c0.729-1.43,1.435-2.562,2.341-3.751c0.715-0.917,1.647-2.007,3.224-3.244c0.285-0.271,0.618-0.58,0.971-0.878l0.077-0.061
			c2.151-1.584,4.787-2.811,7.428-3.457c0.252-0.078,0.466-0.143,0.683-0.202l0.114,0.405c0.033-0.043,0.069-0.291,0.106-0.328
			l0.003-0.473c-0.003,0-0.006,0-0.009,0c-0.023,0-0.055,0.207-0.093,0.213c0.043-0.006,0.109,0.088,0.188,0.074
			c0.157-0.029,0.332-0.008,0.513-0.036c0.44-0.169,0.99-0.203,1.605-0.27c0.574-0.063,1.225-0.007,1.854-0.024
			c0.247-0.008,0.493,0.043,0.732,0.043h1.354l0.002-0.04c0.478,0.004,0.959-0.017,1.406,0.032c0.6,0.066,1.18,0.114,1.646,0.313
			c0.121,0.021,0.509,0.089,0.509,0.089c0.05,0.008,0.124-0.188,0.171-0.182c-0.046-0.005-0.082-0.213-0.107-0.213
			c-0.004,0,0.053,0,0.053,0v0.661c0,0.076,0.109,0.161,0.168,0.258l0.135-0.49c0.184,0.052,0.354,0.107,0.535,0.163l0.005,0.003
			c2.64,0.646,5.272,1.874,7.427,3.459l0.038,0.028l0.036,0.032c0.35,0.292,0.672,0.594,0.973,0.878
			c1.576,1.238,2.51,2.327,3.215,3.231c0.914,1.202,1.621,2.334,2.352,3.765l0.042-0.017c0.272,0.619,0.519,1.257,0.733,1.897
			c0.601,1.366,0.842,2.408,1.037,3.359c0.182,0.959,0.365,2.051,0.534,3.704c0.11,1.566,0.034,2.947-0.227,4.268
			c-0.161,0.793-0.363,1.454-0.646,2.112l-3.481,7.905c-0.35,0.473-0.793,1.021-1.521,1.781c-1.266,1.42-2.062,1.978-2.736,2.366
			c-0.266,0.146-0.453,0.229-0.648,0.319c-0.201,0.091-0.395,0.178-0.682,0.339c-0.971,0.745-2.012,1.411-3.094,1.981l-0.326-0.366
			l0.123,0.396l-0.709,0.219c-0.514,0.158-0.844,0.259-1.342,0.433c-0.402,0.136-0.875,0.291-1.564,0.474
			c-0.694,0.18-1.651,0.398-2.984,0.537l-0.169,0.02c0,0-3.589,0.226-2.163,0.226S21.062,45.776,21.062,45.776z"/>
	</g>
	<path fill="#4682B5" d="M23.151,4.436c-10.641,0-19.298,8.657-19.298,19.297c0,10.643,8.657,19.3,19.298,19.3
		c10.642,0,19.298-8.657,19.298-19.3C42.451,13.093,33.793,4.436,23.151,4.436z"/>
	<g>
		<path fill="#355E7C" d="M28.039,3.931c-0.028-0.009-0.064-0.02-0.11-0.033C27.967,3.908,28.002,3.921,28.039,3.931z"/>
		<path fill="#355E7C" d="M43.908,23.146c-0.16-1.555-0.33-2.58-0.514-3.554c-0.199-0.968-0.421-1.889-0.969-3.12
			c-0.205-0.62-0.441-1.233-0.706-1.835l0.087,0.274c-0.807-1.603-1.518-2.689-2.291-3.705c-0.783-1.006-1.643-1.95-3.012-3.016
			c-0.312-0.296-0.627-0.591-0.957-0.868c-1.954-1.439-4.415-2.609-6.936-3.221c-0.191-0.058-0.383-0.116-0.572-0.172
			c0.192,0.063,0.019,0.037-0.267-0.009c-0.243-0.047-0.489-0.097-0.733-0.133c-0.032-0.088-0.565-0.192-1.303-0.272
			c-0.728-0.08-1.648-0.271-2.484-0.305c-0.008-0.002-0.014-0.15-0.021-0.15c-0.003,0-0.006,0-0.009,0c-0.002,0-0.005,0-0.008,0
			c-0.008,0-0.014,0.148-0.02,0.15c-0.836,0.033-1.758,0.15-2.484,0.23c-0.737,0.08-1.271,0.222-1.303,0.311
			c-0.246,0.035-0.49,0.104-0.736,0.15c-0.326,0.054-0.51,0.088-0.155-0.015c-0.229,0.063-0.455,0.14-0.682,0.21
			c-2.521,0.611-4.982,1.782-6.936,3.222c-0.331,0.278-0.646,0.573-0.957,0.87c-1.368,1.065-2.228,2.01-3.011,3.016
			c-0.773,1.016-1.485,2.104-2.291,3.705l0.086-0.273c-0.265,0.602-0.5,1.215-0.705,1.835c-0.548,1.231-0.771,2.152-0.97,3.12
			c-0.183,0.973-0.354,1.999-0.513,3.555c-0.117,1.681,0.025,2.906,0.206,3.824c0.188,0.918,0.422,1.533,0.652,2.031
			c0.457,1.537,1.054,3.475,1.739,4.758c-0.171-0.266-0.334-0.535-0.492-0.811c0.145,0.377,0.305,0.748,0.472,1.117
			c0.526,0.908,0.828,1.371,1.185,1.894c0.364,0.515,0.78,1.099,1.726,2.082c1.243,1.397,1.935,1.825,2.388,2.088
			c0.465,0.251,0.734,0.313,1.41,0.704c0.924,0.716,1.916,1.355,2.961,1.906l-0.05-0.074c1.003,0.311,1.384,0.417,2.097,0.664
			c0.357,0.121,0.8,0.268,1.457,0.441c0.658,0.168,1.533,0.367,2.755,0.494l-0.207-0.164c0.81,0.168,1.404,0.182,2.053,0.156
			c0.107-0.005,0.219-0.011,0.332-0.018c0.113,0.007,0.225,0.013,0.333,0.018c0.647,0.023,1.242,0.012,2.051-0.156l-0.208,0.164
			c1.225-0.127,2.1-0.326,2.758-0.494c0.656-0.174,1.101-0.319,1.457-0.44c0.713-0.247,1.094-0.354,2.098-0.664l-0.053,0.074
			c1.045-0.552,2.037-1.19,2.961-1.906c0.679-0.392,0.945-0.453,1.41-0.704c0.452-0.263,1.146-0.689,2.389-2.088
			c0.945-0.982,1.361-1.566,1.728-2.082c0.354-0.521,0.657-0.984,1.185-1.895c0.168-0.368,0.328-0.739,0.474-1.116
			c-0.158,0.272-0.321,0.545-0.492,0.811c0.687-1.282,1.282-3.221,1.739-4.758c0.229-0.498,0.464-1.112,0.65-2.03
			C43.883,26.054,44.024,24.827,43.908,23.146z M23.151,43.032c-10.641,0-19.298-8.657-19.298-19.299S12.511,4.435,23.151,4.435
			c10.642,0,19.298,8.657,19.298,19.298C42.451,34.375,33.793,43.032,23.151,43.032z"/>
	</g>
	<g>
		<polygon fill="#FFFFFF" points="22.17,20.062 12.169,20.062 12.169,30.062 22.17,30.062 22.17,36.272 35.473,24.062 22.17,11.851 
					"/>
		<g>
			<path fill="#355E7C" d="M11.849,27.288l-0.009,0.327c-0.006-1.06,0.023-2.173,0.057-3.271c-0.1,0.844-0.195,1.742-0.25,2.633
				c-0.028,0.443-0.045,0.889-0.049,1.319c-0.003,0.785,0.009,1.593,0.039,2.298c0.64-0.024,1.25-0.062,1.795-0.117
				c0.636-0.055,0.765-0.123,1.076-0.211c0.2,0.317,2.517,0.467,2.564,0.389c0.481-0.059,0.968-0.105,1.46-0.146l-1.011,0.079
				l1.011-0.079c0.667-0.053,1.347-0.089,2.037-0.111l1.303-0.037l-0.133,6.548l-0.023,1.54l4.902-4.377
				c1.185-1.045,2.316-2.034,2.986-2.596l0.659-0.562l-0.749,0.609l2.338-2.446c-0.169,0.093-0.225,0.082-0.594,0.337l0.421-0.346
				c0.274-0.434,1.12-1.198,1.479-1.604c-0.039,0.129,0.28-0.146,0.562-0.391l-0.142,0.064c0.469-0.41,0.955-0.863,1.436-1.312
				l1.914-1.785l-0.553-0.465c-0.202-0.171-0.326-0.311-0.397-0.401l-1.19-0.935c0.131-0.012-0.717-0.711-0.237-0.383
				c-0.765-0.5-1.425-1.146-2.16-1.616c-2.382-1.989-4.918-5.035-7.498-7.006l0.056,0.092c-0.92-0.712-1.619-1.135-2.42-1.786
				c0.004,0.283,0.002,0.562-0.011,0.849c0.124,1.307,0.188,2.57,0.382,2.977c0.026,1.121,0.124,2.568,0.174,3.668
				c0.096-0.283,0.115,1.068,0.189,0.527c0.134-0.729,0.02-0.771,0.128-1.39l-0.032,0.019l0.116-3.657l0.085-0.773l0.372,0.364
				l0.157,0.154l0.543,0.475c1.546,1.197,3.123,3.614,4.693,4.904c1.694,1.384,3.545,2.86,5.03,4.009
				c0.228,0.156,0.218,0.253,0.263,0.35l0.099,0.071l-0.312,0.308l-0.972,0.898l-2.058,1.936l0.074-0.063
				c-0.752,0.711-1.39,1.162-2.121,1.856c0.021,0.018-0.092,0.125-0.14,0.187c-0.215,0.024-4.2,4.215-4.512,4.401l-0.229,0.229
				c-0.482,0.407-0.793,0.604-1.031,0.736l0.095-0.763l-0.159-0.27l-0.182-0.117V33.06c0-0.396,0.074-0.846,0.007-1.181
				c0.055-0.323,0.042-0.386,0.056-0.774c0.032-0.14,0.105-0.209,0.126-0.385l0.073-0.496c0.023-0.311,0.044-0.562,0.041-0.729
				c-0.006-0.338-0.05-0.313-0.096,0.114l-0.012-0.748L20.8,28.867l-1.007,0.062c-0.287,0.021-0.448-0.018-0.592-0.076
				c-0.736,0.035-0.52-0.026-1.291-0.055c-0.187-0.089-1.934,0.143-2.152,0.114l0.126-0.015c-0.446-0.008-0.816-0.055-1.185-0.101
				l-0.56-0.063l-0.342-0.029l-0.253-0.02l0.009-0.25l0.003-0.521l-0.004-1.65l0.004-3.152c-0.093-0.022,0.021,0.494-0.103,0.521
				c0.008-0.661,0.041-1.325,0.074-1.991l0.024-0.5c0.008-0.156,0.016-0.382,0.022-0.375c0.013-0.091,0.023-0.17,0.027-0.252
				l0.009-0.012c0.083,0.025,0.162,0.066,0.192,0.094c0.086,0.034,0.028-0.045,0.095-0.033l0.014,0.302
				c-0.01-0.009,0.035,0.198,0.095,0.198h0.143c0.09,0,0.173-0.196,0.255-0.184c0.164,0.027,0.324-0.049,0.539-0.064
				c0.023-0.034,0.18-0.094,0.333-0.09c0.008,0.088,0.47-0.033,0.448,0.049l0.004-0.021c0.092,0.002,0.158-0.011,0.27,0.005
				l1.992-0.317l0.083,0.014c0.245-0.003,0.35-0.07,0.207-0.086l0.302,0.004l-0.035,0.006l0.301,0.006
				c0.057,0.008,0.118,0.049,0.033,0.088c0.17-0.029,0.361-0.048,0.531-0.031c-0.474-0.056-1.062-0.133-1.558-0.224
				c0.204-0.03,0.572,0.017,0.792,0.007c0.264,0.061,0.807,0.109,1.227,0.15c0.094-0.006,0.158-0.105,0.367-0.062
				c0.104,0.069,0.238-0.002,0.414,0.049c-0.201,0.035-0.397,0.02-0.602,0.017c0.035,0.081,0.496,0.056,0.656,0.078
				c0.076-0.026,0.468,0,0.715-0.022c-0.108,0.078,0.199,0.051,0.346,0.092c0.167,0.011,0.273-0.021,0.205-0.049
				c0.055-0.084-0.663-0.051-0.432-0.14c0.062,0.041,0.388,0.026,0.563,0.022c0.002-0.047-0.12-0.035-0.006-0.08
				c0.194,0.011,0.401-0.045,0.515,0.003c-0.037,0.013-0.117,0.005-0.175,0.004c0.255,0.005-1.378,0.302-1.049,0.274
				c-0.085-0.041,1.448-0.273,1.278-0.276c-0.155-0.023,0.111-0.084-0.049-0.101l-0.179,0.057c-0.219-0.018-0.309-0.1-0.231-0.131
				c0.367,0.008-1.043,0.315-0.729,0.27l-0.127-0.021c0.134-0.029,0.489-0.057,0.625-0.008c0.001-0.046,0.181-0.062,0.329-0.078
				l0.053,0.008c0.154-0.022,0.369-0.012,0.27-0.072c-0.901,0.008,0.593-0.465-0.28-0.491c0.366,0.101-0.123,0.104-0.507,0.115
				c-0.037-0.034-0.208-0.085-0.484-0.111c-0.238,0.009-0.141,0.037-0.187,0.063c-0.132-0.023-0.386-0.042-0.353-0.096
				c-0.187,0.062-0.299-0.041-0.521-0.02c-0.197,0.029,0.014,0.027-0.126,0.059l-0.945-0.027c-0.091-0.051-0.368-0.139-0.167-0.217
				c0.448,0.012-0.171,0.127,0.296,0.109c-0.2-0.113,0.413-0.031,0.498-0.117c-0.147-0.052-0.45-0.052-0.702-0.037l0.051,0.016
				c-0.223,0.015-0.667,0.039-0.907-0.021c0.056-0.041-0.048-0.07,0.115-0.08l-0.306-0.008c-0.039,0.014-0.079,0.025,0.009,0.034
				c-0.145,0.031-0.289,0.015-0.399-0.01c-0.033-0.042-1.626,0.178-1.577,0.151c-0.22,0-0.274-0.063-0.488-0.021
				c-0.023,0.035,2.105-0.146,1.814-0.131c-0.188-0.048-2.496,0.212-2.633,0.132c-0.163,0.003-0.36,0.012-0.322,0.055
				c-0.276-0.021,0.083-0.082-0.114-0.121c-0.005,0.006,0.016,0.021-0.047,0.02l-0.188-0.055c-0.403,0.065-1.179-0.019-1.591,0.064
				l0.003,0.02l-0.006-0.021c0.089-0.048,0.189-0.124,0.505-0.165l0.073,0.021c0.042-0.012,0.323-0.027,0.304-0.069
				c-0.353-0.029-0.662-0.021-0.979,0.021l-0.11-0.017l-0.019,0.084c0.005,0.004,0.01,0.002,0.017,0.011
				c-0.027,0.094-0.031,0.078-0.048,0.021L12.3,19.33c-0.125,0.097,0.08,1.562,0.015,1.918c0.018,0.147,0.021,0.015,0.045,0.196
				c-0.05,0.513-0.088,0.865-0.117,1.4c0.054,0.17,0.076,0.184,0.132-0.022l-0.018,0.403c-0.144-0.367-0.137,0.754-0.281,0.351
				c-0.033,0.118-0.04,0.358-0.017,0.586c0.037,0.022,0.095,0.06,0.094,0.343l-0.077,0.63c-0.047,0.078-0.066-0.043-0.104-0.028
				c0.061,0.507-0.103,0.441-0.094,0.918c0.014,0.3,0.02,0.891,0.103,0.904C11.976,27.328,11.916,27.328,11.849,27.288z"/>
		</g>
	</g>
	<polygon fill="#355E7C" points="22.17,11.269 23.17,12.061 23.17,20.062 22.17,20.062 	"/>
</g>
</svg>
