<?xml version="1.0" encoding="utf-8"?>
<!-- Generator: Adobe Illustrator 15.0.0, SVG Export Plug-In . SVG Version: 6.00 Build 0)  -->
<!DOCTYPE svg PUBLIC "-//W3C//DTD SVG 1.1//EN" "http://www.w3.org/Graphics/SVG/1.1/DTD/svg11.dtd">
<svg version="1.1" id="Layer_1" xmlns="http://www.w3.org/2000/svg" xmlns:xlink="http://www.w3.org/1999/xlink" x="0px" y="0px"
	 width="84px" height="66px" viewBox="0 0 84 66" enable-background="new 0 0 84 66" xml:space="preserve">
<g id="Layer_1_1_">
	<g>
		<path fill="#355E7C" d="M43.725,32.119c-0.344,0-0.687-0.073-1.015-0.22l-0.11-0.055l-15.853-9.048
			c-0.314-0.177-0.545-0.479-0.647-0.849c-0.254-0.922,0.385-2.339,0.965-3.354C28.038,16.883,28.97,16,29.834,16h0.319l0.357,0.193
			l15.826,9.037l0.057,0.045c0.955,0.703,1.795,2.067,0.365,4.57C45.688,31.724,44.518,32.119,43.725,32.119z"/>
		<path fill="#FFFFFF" d="M28.106,19.202c0.708-1.244,1.52-2.121,1.808-1.955l15.768,8.998c0.943,0.694,0.746,1.764,0.035,3.008l0,0
			c-0.712,1.246-1.592,1.961-2.521,1.55l-15.854-9.048C27.054,21.592,27.394,20.449,28.106,19.202L28.106,19.202z"/>
		<g>
			<g>
				<path fill="#355E7C" d="M39.951,52l-0.439-0.186l-17.287-17.16c-0.251-0.25-0.947-1.203,0.541-2.7
					C23.386,31.336,23.971,31,24.508,31h0.496l0.057,0.121l5.878-5.957l9.938,5.31c0.877,0.538,1.85,0.823,2.805,0.823
					c1.824,0,3.309-1.479,3.309-3.302c0-1.006-0.36-2.241-1.374-2.699l-9.443-5.426l2.495-2.542
					c-0.252-0.709,0.309-1.453,0.546-1.768c0.263-0.35,0.609-0.577,0.861-0.829c0.411-0.412,1.044-0.73,1.712-0.73h0.494l0.44,0.202
					l7.582,7.478c8.528,5.11,10.127,8.115,10.424,9.132c0.389,0.766,1.877,3.927,1.303,6.594c-0.266,1.046-0.252,2.032-0.24,2.911
					c0.02,1.306,0.036,2.531-0.844,3.423c-0.582,0.591-1.436,0.875-2.606,0.875c0,0-0.26-0.005-0.397-0.011
					c-1.395-0.127-2.385-0.641-3-1.525c-0.998-1.438-0.703-3.403-0.231-5.291L43.086,49.441c0.062,0.299,0.032,0.683-0.225,1.143
					c-0.158,0.285-0.392,0.395-0.676,0.68C41.762,51.686,41.116,52,40.446,52H39.951z"/>
			</g>
			<g>
				<path fill="#FFFFFF" d="M59.596,31.194c0,0-0.336-2.859-10.037-8.648l-7.683-7.668c-0.12-0.118-0.546,0.115-0.954,0.524
					c-0.41,0.41-1.226,1.42-1.106,1.54l0.46,0.458l-2.161,2.203l7.994,4.601c1.404,0.635,2.08,2.199,2.08,3.795
					c0,2.488-2.019,4.507-4.508,4.507c-1.224,0-2.401-0.356-3.369-0.954l-9.146-4.87l-6.072,6.189l-0.498-0.497
					c-0.121-0.12-0.56,0.127-0.979,0.547c-0.421,0.423-0.665,0.859-0.545,0.979l17.285,17.25c0.12,0.119,0.559-0.125,0.979-0.545
					c0.422-0.422,0.665-0.861,0.546-0.981l-0.338-0.335l15.148-15.194c0.242,2.275-3.633,8.854,1.303,9.311
					c3.931,0.188,1.961-2.77,2.859-6.272C61.4,34.598,59.596,31.194,59.596,31.194z"/>
			</g>
		</g>
	</g>
</g>
</svg>
