<svg xmlns="http://www.w3.org/2000/svg" width="84" height="66" viewBox="0 0 84 66"><path fill="#355E7C" d="M43.725 32.119c-.344 0-.687-.073-1.015-.22l-.11-.055-15.853-9.048a1.383 1.383 0 0 1-.647-.849c-.254-.922.385-2.339.965-3.354.973-1.71 1.905-2.593 2.769-2.593h.319l.357.193 15.826 9.037.057.045c.955.703 1.795 2.067.365 4.57-1.07 1.879-2.24 2.274-3.033 2.274z"/><path fill="#FFF" d="M28.106 19.202c.708-1.244 1.52-2.121 1.808-1.955l15.768 8.998c.943.694.746 1.764.035 3.008-.712 1.246-1.592 1.961-2.521 1.55l-15.854-9.048c-.288-.163.052-1.306.764-2.553z"/><path fill="#355E7C" d="M39.951 52l-.439-.186-17.287-17.16c-.251-.25-.947-1.203.541-2.7.62-.618 1.205-.954 1.742-.954h.496l.057.121 5.878-5.957 9.938 5.31c.877.538 1.85.823 2.805.823a3.308 3.308 0 0 0 3.309-3.302c0-1.006-.36-2.241-1.374-2.699l-9.443-5.426 2.495-2.542c-.252-.709.309-1.453.546-1.768.263-.35.609-.577.861-.829.411-.412 1.044-.73 1.712-.73h.494l.44.202 7.582 7.478c8.528 5.11 10.127 8.115 10.424 9.132.389.766 1.877 3.927 1.303 6.594-.266 1.046-.252 2.032-.24 2.911.02 1.306.036 2.531-.844 3.423-.582.591-1.436.875-2.606.875 0 0-.26-.005-.397-.011-1.395-.127-2.385-.641-3-1.525-.998-1.438-.703-3.403-.231-5.291L43.086 49.441c.062.299.032.683-.225 1.143-.158.285-.392.395-.676.68-.423.422-1.069.736-1.739.736h-.495z"/><path fill="#FFF" d="M59.596 31.194s-.336-2.859-10.037-8.648l-7.683-7.668c-.12-.118-.546.115-.954.524-.41.41-1.226 1.42-1.106 1.54l.46.458-2.161 2.203 7.994 4.601c1.404.635 2.08 2.199 2.08 3.795a4.509 4.509 0 0 1-4.508 4.507 6.454 6.454 0 0 1-3.369-.954l-9.146-4.87-6.072 6.189-.498-.497c-.121-.12-.56.127-.979.547-.421.423-.665.859-.545.979l17.285 17.25c.12.119.559-.125.979-.545.422-.422.665-.861.546-.981l-.338-.335 15.148-15.194c.242 2.275-3.633 8.854 1.303 9.311 3.931.188 1.961-2.77 2.859-6.272.546-2.536-1.258-5.94-1.258-5.94z"/></svg>