<svg xmlns="http://www.w3.org/2000/svg" width="84" height="66" viewBox="0 0 84 66"><path fill="#355E7C" d="M43.584 32.119c-.344 0-.688-.073-1.016-.22l-.109-.055-15.854-9.048a1.378 1.378 0 0 1-.646-.849c-.254-.922.385-2.339.965-3.354.972-1.71 1.904-2.593 2.769-2.593h.318l.357.193 15.825 9.037.058.045c.955.703 1.795 2.067.365 4.57-1.071 1.879-2.239 2.274-3.032 2.274z"/><path fill="#579ED3" d="M27.965 19.202c.709-1.244 1.52-2.121 1.809-1.955l15.768 8.998c.942.694.746 1.764.035 3.008-.714 1.246-1.593 1.961-2.521 1.55l-15.854-9.048c-.29-.163.05-1.306.763-2.553z"/><path fill="#355E7C" d="M39.811 52l-.439-.186-17.287-17.16c-.252-.25-.947-1.203.541-2.7.618-.618 1.204-.954 1.741-.954h.496l.057.121 5.877-5.957 9.938 5.31c.877.538 1.85.823 2.805.823a3.31 3.31 0 0 0 3.31-3.302c0-1.006-.361-2.241-1.375-2.699l-9.444-5.426 2.496-2.542c-.252-.709.309-1.453.545-1.768.264-.35.609-.577.861-.829.412-.412 1.045-.73 1.713-.73h.494l.439.202 7.582 7.478c8.528 5.11 10.127 8.115 10.424 9.132.39.766 1.877 3.927 1.304 6.594-.267 1.046-.252 2.032-.24 2.911.018 1.306.035 2.531-.844 3.423-.582.591-1.437.875-2.607.875 0 0-.26-.005-.398-.011-1.393-.127-2.383-.641-2.998-1.525-.998-1.438-.705-3.403-.232-5.291L42.945 49.441c.061.299.031.683-.225 1.143-.158.285-.394.395-.677.68-.422.422-1.068.736-1.738.736h-.494z"/><path fill="#579ED3" d="M59.455 31.194s-.336-2.859-10.037-8.648l-7.684-7.668c-.119-.118-.545.115-.953.524-.41.41-1.227 1.42-1.107 1.54l.461.458-2.162 2.203 7.994 4.601c1.404.635 2.08 2.199 2.08 3.795a4.508 4.508 0 0 1-4.508 4.507c-1.223 0-2.4-.356-3.367-.954l-9.146-4.87-6.072 6.189-.498-.497c-.121-.12-.559.127-.979.547-.422.423-.666.859-.545.979l17.285 17.25c.119.119.559-.125.979-.545.422-.422.666-.861.547-.981l-.338-.335 15.148-15.194c.242 2.275-3.633 8.854 1.303 9.311 3.931.188 1.961-2.77 2.859-6.272.545-2.536-1.26-5.94-1.26-5.94z"/></svg>