<?xml version="1.0" encoding="utf-8"?>
<!-- Generator: Adobe Illustrator 15.0.0, SVG Export Plug-In . SVG Version: 6.00 Build 0)  -->
<!DOCTYPE svg PUBLIC "-//W3C//DTD SVG 1.1//EN" "http://www.w3.org/Graphics/SVG/1.1/DTD/svg11.dtd">
<svg version="1.1" id="Layer_1" xmlns="http://www.w3.org/2000/svg" xmlns:xlink="http://www.w3.org/1999/xlink" x="0px" y="0px"
	 width="84px" height="66px" viewBox="0 0 84 66" enable-background="new 0 0 84 66" xml:space="preserve">
<g id="Layer_2">
	<g>
		<path fill="#355E7C" d="M43.584,32.119c-0.344,0-0.688-0.073-1.016-0.22l-0.109-0.055l-15.854-9.048
			c-0.314-0.177-0.545-0.479-0.646-0.849c-0.254-0.922,0.385-2.339,0.965-3.354C27.896,16.883,28.828,16,29.693,16h0.318
			l0.357,0.193l15.825,9.037l0.058,0.045c0.955,0.703,1.795,2.067,0.365,4.57C45.545,31.724,44.377,32.119,43.584,32.119z"/>
		<path fill="#579ED3" d="M27.965,19.202c0.709-1.244,1.52-2.121,1.809-1.955l15.768,8.998c0.942,0.694,0.746,1.764,0.035,3.008l0,0
			c-0.714,1.246-1.593,1.961-2.521,1.55l-15.854-9.048C26.912,21.592,27.252,20.449,27.965,19.202L27.965,19.202z"/>
		<g>
			<g>
				<path fill="#355E7C" d="M39.811,52l-0.439-0.186l-17.287-17.16c-0.252-0.25-0.947-1.203,0.541-2.7
					C23.244,31.336,23.83,31,24.367,31h0.496l0.057,0.121l5.877-5.957l9.938,5.31c0.877,0.538,1.85,0.823,2.805,0.823
					c1.823,0,3.31-1.479,3.31-3.302c0-1.006-0.361-2.241-1.375-2.699l-9.444-5.426l2.496-2.542
					c-0.252-0.709,0.309-1.453,0.545-1.768c0.264-0.35,0.609-0.577,0.861-0.829c0.412-0.412,1.045-0.73,1.713-0.73h0.494
					l0.439,0.202l7.582,7.478c8.528,5.11,10.127,8.115,10.424,9.132c0.39,0.766,1.877,3.927,1.304,6.594
					c-0.267,1.046-0.252,2.032-0.24,2.911c0.018,1.306,0.035,2.531-0.844,3.423c-0.582,0.591-1.437,0.875-2.607,0.875
					c0,0-0.26-0.005-0.398-0.011c-1.393-0.127-2.383-0.641-2.998-1.525c-0.998-1.438-0.705-3.403-0.232-5.291L42.945,49.441
					c0.061,0.299,0.031,0.683-0.225,1.143c-0.158,0.285-0.394,0.395-0.677,0.68C41.621,51.686,40.975,52,40.305,52H39.811z"/>
			</g>
			<g>
				<path fill="#579ED3" d="M59.455,31.194c0,0-0.336-2.859-10.037-8.648l-7.684-7.668c-0.119-0.118-0.545,0.115-0.953,0.524
					c-0.41,0.41-1.227,1.42-1.107,1.54l0.461,0.458l-2.162,2.203l7.994,4.601c1.404,0.635,2.08,2.199,2.08,3.795
					c0,2.488-2.018,4.507-4.508,4.507c-1.223,0-2.4-0.356-3.367-0.954l-9.146-4.87l-6.072,6.189l-0.498-0.497
					c-0.121-0.12-0.559,0.127-0.979,0.547c-0.422,0.423-0.666,0.859-0.545,0.979l17.285,17.25c0.119,0.119,0.559-0.125,0.979-0.545
					c0.422-0.422,0.666-0.861,0.547-0.981l-0.338-0.335l15.148-15.194c0.242,2.275-3.633,8.854,1.303,9.311
					c3.931,0.188,1.961-2.77,2.859-6.272C61.26,34.598,59.455,31.194,59.455,31.194z"/>
			</g>
		</g>
	</g>
</g>
</svg>
