<svg xmlns="http://www.w3.org/2000/svg" width="50" height="50" viewBox="0 0 50 50"><path fill="#355E7C" d="M26.723 14.271l-1 .792v7.999h1z"/><path fill="#FFF" d="M27.938 48.777l.17-.019a19.456 19.456 0 0 0 2.976-.534c.7-.186 1.174-.341 1.562-.472.513-.178.842-.278 1.355-.437l.707-.221-.124-.394.325.364a21.64 21.64 0 0 0 3.097-1.979c.285-.161.479-.248.68-.339.197-.092.385-.177.609-.299.713-.411 1.51-.97 2.773-2.39 1.02-1.06 1.479-1.711 1.852-2.233.393-.572.717-1.075 1.258-2.009l.037-.062.031-.065c.104-.232.201-.453.291-.664l2.084-6.305.1-.449c.264-1.328.34-2.709.231-4.229a41.426 41.426 0 0 0-.534-3.728c-.201-.976-.441-2.019-1.043-3.385a21.682 21.682 0 0 0-.732-1.896l-.041.016a23.51 23.51 0 0 0-2.342-3.751 17.732 17.732 0 0 0-3.226-3.244c-.284-.271-.616-.58-.972-.878l-.076-.061c-2.15-1.584-4.787-2.811-7.428-3.457a20.39 20.39 0 0 0-.685-.202l-.115.405c-.03-.043-.067-.291-.104-.328l-.002-.472h.01c.021 0 .055.207.094.213-.043-.006-.109.088-.188.074-.157-.029-.332-.008-.514-.036-.439-.169-.99-.203-1.604-.27-.574-.063-1.226-.007-1.854-.024-.248-.008-.492.043-.732.043H24.51l-.002-.04c-.478.004-.959-.017-1.406.032-.6.066-1.18.114-1.646.313l-.509.089c-.05.008-.124-.188-.171-.182.046-.005.082-.213.107-.213h-.16v.661c0 .076-.057.161-.115.258l-.105-.49c-.183.052-.342.107-.522.163l.002.003c-2.64.646-5.271 1.874-7.423 3.459l-.037.028-.036.032c-.348.292-.671.594-.971.878a17.81 17.81 0 0 0-3.214 3.231 23.652 23.652 0 0 0-2.351 3.765l-.042-.017a22.366 22.366 0 0 0-.733 1.897c-.601 1.366-.842 2.408-1.038 3.359a41.28 41.28 0 0 0-.535 3.703c-.11 1.567-.034 2.948.226 4.269.162.793.364 1.454.647 2.112l3.482 7.903c.35.475.793 1.021 1.522 1.781 1.266 1.42 2.063 1.978 2.737 2.367.265.145.452.229.649.318.201.092.393.179.68.34.972.744 2.013 1.41 3.095 1.98l.326-.365-.123.396.708.22c.514.156.844.258 1.342.431.402.138.875.291 1.564.476.695.182 1.652.397 2.985.537l.169.02s3.589.227 2.164.227c-1.427-.001 2.162-.224 2.162-.224z"/><path fill="#4682B5" d="M25.85 7.437c10.642 0 19.299 8.657 19.299 19.297 0 10.643-8.657 19.299-19.299 19.299-10.641 0-19.298-8.656-19.298-19.299C6.55 16.094 15.208 7.437 25.85 7.437z"/><g fill="#355E7C"><path d="M20.962 6.932l.11-.033c-.038.01-.073.023-.11.033z"/><path d="M5.299 29.973a8.93 8.93 0 0 0 .651 2.031c.457 1.537 1.054 3.475 1.739 4.758a18.402 18.402 0 0 1-.492-.811c.145.377.305.748.473 1.117.526.906.827 1.371 1.184 1.894.365.515.78 1.099 1.727 2.082 1.242 1.397 1.936 1.825 2.388 2.088.465.251.733.313 1.41.704a20.33 20.33 0 0 0 2.961 1.906l-.052-.074c1.004.311 1.385.417 2.097.664a18.316 18.316 0 0 0 4.215.933l-.208-.164c.809.17 1.403.184 2.051.157.108-.005.22-.011.333-.02.113.009.226.015.332.02.646.021 1.244.013 2.053-.157l-.207.164a18.25 18.25 0 0 0 4.214-.933c.713-.247 1.095-.354 2.097-.664l-.052.074a20.277 20.277 0 0 0 2.961-1.906c.679-.391.945-.453 1.41-.704.453-.263 1.146-.69 2.39-2.088.944-.983 1.36-1.567 1.727-2.082.355-.521.658-.985 1.186-1.894.168-.369.328-.74.473-1.117-.157.271-.32.545-.491.811.686-1.283 1.282-3.221 1.739-4.758a8.887 8.887 0 0 0 .65-2.031c.182-.918.322-2.145.207-3.824a39.157 39.157 0 0 0-.515-3.555c-.198-.968-.421-1.889-.97-3.12a20.33 20.33 0 0 0-.705-1.835l.086.273c-.808-1.602-1.521-2.689-2.291-3.705a16.36 16.36 0 0 0-3.012-3.016 21.314 21.314 0 0 0-.957-.87c-1.953-1.439-4.414-2.61-6.937-3.222-.228-.07-.453-.146-.683-.21.354.103.17.068-.155.015-.244-.047-.49-.115-.734-.15-.03-.089-.563-.23-1.303-.311-.728-.08-1.647-.197-2.483-.23-.009-.002-.015-.15-.021-.15H25.767c-.008 0-.014.148-.02.15-.836.033-1.758.225-2.484.305-.737.08-1.271.185-1.303.272-.244.036-.49.086-.734.133-.284.046-.459.071-.266.009-.19.056-.382.114-.572.172-2.521.611-4.98 1.781-6.937 3.221-.33.277-.646.572-.957.868a16.227 16.227 0 0 0-3.011 3.016c-.773 1.016-1.485 2.103-2.291 3.705l.087-.274a20.641 20.641 0 0 0-.706 1.835c-.548 1.231-.77 2.152-.969 3.12a39.342 39.342 0 0 0-.513 3.554c-.114 1.679.027 2.906.208 3.824zm1.251-3.239c0-10.642 8.657-19.297 19.298-19.297s19.299 8.657 19.299 19.297c0 10.643-8.658 19.299-19.299 19.299-10.64 0-19.298-8.657-19.298-19.299z"/></g><path fill="#FFF" d="M26.723 23.062h10v10h-10v6.211L13.42 27.062l13.303-12.21z"/><path fill="#355E7C" d="M37.152 30.289l.009.326a86.342 86.342 0 0 0-.058-3.271c.101.846.195 1.742.25 2.633.027.444.045.891.049 1.32.004.785-.008 1.592-.039 2.297a28.315 28.315 0 0 1-1.795-.117c-.635-.054-.766-.121-1.075-.211-.199.318-2.517.469-2.563.391a33.976 33.976 0 0 0-1.459-.146l1.012.079-1.012-.079a43.372 43.372 0 0 0-2.037-.111l-1.304-.037.134 6.548.022 1.539-4.902-4.378a207.179 207.179 0 0 0-2.987-2.594l-.659-.562.749.609-2.338-2.447c.169.094.224.082.594.338l-.421-.346c-.275-.435-1.12-1.199-1.478-1.604.038.129-.282-.146-.563-.394l.14.065a58.631 58.631 0 0 1-1.434-1.312l-1.914-1.783.552-.465c.203-.173.327-.312.398-.401l1.192-.935c-.131-.012.717-.711.237-.383.765-.5 1.425-1.146 2.16-1.617 2.382-1.988 4.918-5.034 7.498-7.005l-.056.092c.921-.712 1.619-1.135 2.42-1.786-.004.283-.002.562.01.849-.123 1.307-.188 2.57-.381 2.977-.026 1.121-.125 2.568-.174 3.668-.097-.283-.115 1.068-.189.527-.135-.729-.02-.771-.129-1.39l.033.019-.117-3.657-.084-.773-.372.364-.157.154-.543.475c-1.546 1.197-3.123 3.614-4.693 4.903a258.414 258.414 0 0 1-5.03 4.01c-.228.156-.218.253-.263.35l-.097.07.312.309.971.897 2.056 1.935-.073-.062c.752.711 1.389 1.16 2.121 1.855-.021.019.092.125.14.188.215.023 4.2 4.215 4.512 4.4l.229.229c.482.407.793.604 1.031.736l-.095-.763.104-.271.127-.117v-.368c0-.396-.02-.845.049-1.18-.055-.323-.016-.387-.028-.773-.031-.141-.091-.209-.113-.386l-.065-.497a8.814 8.814 0 0 1-.037-.729c.006-.338.051-.314.096.115l.014-.748 2.566.006 1.008.061c.286.021.447-.018.592-.076.735.035.521-.027 1.289-.054.188-.089 1.936.142 2.152.114l-.126-.014c.446-.01.815-.057 1.185-.103l.562-.062.343-.031.254-.02-.011-.25-.003-.521.004-1.65-.004-3.152c.094-.021-.021.494.104.521a55.661 55.661 0 0 0-.074-1.992l-.03-.495c-.009-.157-.017-.382-.021-.375a2.41 2.41 0 0 1-.027-.252l-.008-.012a.605.605 0 0 0-.192.094c-.086.034-.026-.045-.095-.032l-.017.301c.013-.01-.034.199-.094.199h-.144c-.092 0-.174-.197-.256-.185-.164.026-.324-.05-.539-.065-.022-.033-.18-.093-.332-.09-.01.09-.471-.031-.449.049l-.004-.021c-.092.002-.157-.011-.27.005l-1.992-.318-.084.014c-.244-.002-.351-.069-.207-.086l-.299.004.033.007-.301.006c-.057.008-.118.049-.033.088a2.063 2.063 0 0 0-.531-.032 26.22 26.22 0 0 0 1.559-.223c-.203-.031-.571.018-.791.007-.266.06-.807.109-1.229.15-.094-.007-.156-.105-.367-.062-.104.069-.236-.002-.412.048.201.036.396.021.602.018-.034.081-.495.055-.655.078-.076-.026-.469 0-.715-.022.106.078-.199.05-.347.093-.168.01-.272-.021-.205-.05-.055-.085.662-.051.431-.14-.062.041-.388.025-.562.021-.002-.046.117-.035.006-.078-.194.01-.401-.047-.516.002.037.013.117.004.176.004-.254.004 1.377.302 1.049.274.084-.041-1.448-.274-1.276-.276.153-.023-.112-.084.049-.101l.179.056c.219-.018.309-.099.231-.129-.367.006 1.043.314.729.269l.127-.021c-.133-.031-.489-.058-.625-.009-.002-.046-.183-.062-.33-.078l-.053.009c-.154-.023-.369-.014-.271-.074.901.009-.593-.465.28-.49-.366.102.123.104.507.115.036-.034.208-.086.483-.111.238.009.142.037.188.062.133-.022.387-.041.354-.096.187.063.299-.04.521-.019.195.028-.016.026.125.059l.945-.028c.091-.049.367-.139.166-.215-.447.01.172.125-.295.108.201-.113-.414-.031-.498-.117.147-.052.449-.052.701-.038l-.05.016c.222.016.666.039.904-.021-.056-.04.049-.07-.113-.08l.306-.007c.039.013.08.024-.008.034a.947.947 0 0 0 .397-.01c.032-.043 1.625.178 1.575.15.222.001.273-.062.488-.02.021.035-2.104-.146-1.813-.131.188-.047 2.495.211 2.635.132.162.003.358.012.32.055.276-.021-.083-.082.114-.122.004.008-.018.021.047.02l.188-.053c.402.064 1.18-.02 1.592.063l-.004.021.008-.021c-.09-.049-.188-.124-.506-.165l-.072.022c-.043-.014-.323-.029-.305-.07.354-.029.662-.021.979.021l.109-.017.021.084c-.005.004-.011.002-.017.01.025.094.029.079.047.02l.011-.035c.125.098-.08 1.562-.015 1.919-.02.146-.021.014-.047.196.051.513.09.864.117 1.399-.055.171-.076.186-.131-.021l.018.403c.146-.367.137.754.281.351.033.118.039.358.018.586-.037.022-.096.06-.096.344l.078.63c.047.078.064-.043.104-.027-.061.506.104.44.095.918-.015.299-.021.892-.103.904.004.395.064.395.131.356z"/></svg>