<svg xmlns="http://www.w3.org/2000/svg" width="50" height="50" viewBox="0 0 50 50"><path fill="#333" d="M23.614 47.775l-.17-.019a19.42 19.42 0 0 1-2.974-.534 23.18 23.18 0 0 1-1.563-.472c-.512-.178-.842-.278-1.355-.437l-.708-.221.124-.396-.327.364a21.51 21.51 0 0 1-3.095-1.979 7.703 7.703 0 0 0-.679-.339c-.198-.093-.385-.177-.611-.3-.712-.41-1.51-.969-2.775-2.389-1.017-1.06-1.478-1.711-1.849-2.233a27.336 27.336 0 0 1-1.258-2.009l-.038-.062-.031-.065a24.377 24.377 0 0 1-.29-.664l-2.084-6.3a12.537 12.537 0 0 1-.101-.45c-.263-1.328-.338-2.709-.232-4.229.173-1.701.359-2.793.535-3.728.201-.976.442-2.019 1.043-3.385.214-.64.46-1.277.733-1.896l.042.016a23.506 23.506 0 0 1 2.341-3.751 17.808 17.808 0 0 1 3.224-3.244c.285-.271.618-.58.971-.878l.077-.061c2.151-1.584 4.787-2.812 7.428-3.457.252-.078.467-.143.684-.202l.113.405c.033-.043.069-.291.106-.328l.003-.473h-.01c-.022 0-.055.207-.092.213.043-.006.108.088.188.074.157-.029.332-.008.512-.036.441-.169.991-.203 1.606-.27.573-.063 1.225-.007 1.854-.024.246-.008.492.043.731.043h1.353l.004-.04c.478.004.959-.017 1.405.032.599.066 1.181.114 1.646.313l.508.089c.051.008.125-.188.172-.182-.047-.005-.082-.213-.106-.213h.052v.661c0 .076.11.161.17.258l.133-.49c.184.052.354.107.535.163l.006.003c2.641.646 5.272 1.874 7.427 3.459l.038.028.037.032c.35.292.67.594.973.878a17.9 17.9 0 0 1 3.213 3.231 23.809 23.809 0 0 1 2.354 3.765l.041-.017c.271.619.521 1.257.732 1.897.602 1.366.842 2.408 1.039 3.359.18.959.364 2.051.533 3.703.109 1.567.033 2.95-.227 4.269a10.495 10.495 0 0 1-.646 2.112l-3.482 7.906c-.35.474-.793 1.021-1.521 1.781-1.266 1.42-2.062 1.977-2.737 2.366-.265.146-.45.229-.647.318-.201.092-.394.179-.681.34a21.87 21.87 0 0 1-3.096 1.979l-.326-.365.123.396-.707.221c-.515.155-.845.258-1.343.43-.401.138-.875.291-1.564.476a19.47 19.47 0 0 1-2.984.537l-.168.019s-3.589.228-2.164.228c1.421-.003-2.168-.226-2.168-.226z" opacity=".3"/><path fill="#FFF" d="M26.938 45.775l.17-.019a19.456 19.456 0 0 0 2.976-.534c.7-.186 1.174-.341 1.562-.472.513-.178.842-.278 1.355-.437l.707-.221-.123-.396.325.364a21.64 21.64 0 0 0 3.097-1.979c.285-.161.479-.248.68-.339.197-.093.385-.177.609-.3.713-.41 1.51-.969 2.773-2.389 1.02-1.06 1.479-1.711 1.852-2.233.393-.572.717-1.075 1.258-2.009l.037-.062.031-.065c.104-.232.201-.453.291-.664l2.084-6.305.1-.449c.264-1.33.34-2.709.231-4.229a41.338 41.338 0 0 0-.534-3.727c-.201-.976-.441-2.019-1.043-3.385a21.682 21.682 0 0 0-.732-1.896l-.041.016a23.51 23.51 0 0 0-2.342-3.751 17.732 17.732 0 0 0-3.226-3.244c-.284-.271-.616-.58-.972-.878l-.076-.061c-2.15-1.584-4.787-2.812-7.428-3.457a20.39 20.39 0 0 0-.685-.202l-.114.408c-.031-.043-.066-.291-.104-.328l-.004-.473h.011c.022 0 .055.207.094.213-.043-.006-.108.088-.188.074-.156-.029-.332-.008-.512-.036-.44-.169-.99-.203-1.605-.27-.574-.062-1.225-.006-1.854-.023-.248-.008-.494.043-.733.043H23.51l-.002-.04c-.478.004-.959-.017-1.406.032-.6.066-1.18.114-1.646.313l-.509.089c-.05.008-.124-.188-.171-.182.046-.005.082-.213.107-.213h-.16v.661c0 .076-.056.161-.115.258l-.106-.49c-.182.052-.341.107-.522.163l.002.003c-2.64.646-5.271 1.874-7.423 3.459l-.037.028-.036.032c-.348.292-.671.594-.971.878A17.822 17.822 0 0 0 7.3 10.282a23.652 23.652 0 0 0-2.351 3.765l-.042-.017a22.477 22.477 0 0 0-.733 1.896c-.601 1.366-.842 2.408-1.038 3.359a41.256 41.256 0 0 0-.535 3.704c-.11 1.566-.034 2.947.226 4.268.162.793.364 1.454.647 2.112l3.482 7.905c.35.473.793 1.021 1.522 1.779 1.266 1.42 2.063 1.979 2.737 2.367.265.146.452.229.649.317.201.093.393.18.68.341a21.981 21.981 0 0 0 3.095 1.979l.326-.365-.123.396.708.221c.514.155.844.258 1.342.431.402.137.875.291 1.565.475.695.181 1.652.398 2.985.537l.169.019s3.589.228 2.163.228c-1.426 0 2.164-.224 2.164-.224z"/><path fill="#4682B5" d="M24.849 4.435c10.641 0 19.297 8.657 19.297 19.297 0 10.643-8.656 19.299-19.297 19.299S5.551 34.375 5.551 23.732c-.002-10.64 8.657-19.297 19.298-19.297z"/><g fill="#355E7C"><path d="M19.96 3.93l.111-.033c-.038.01-.073.023-.111.033zM4.298 26.971a8.93 8.93 0 0 0 .651 2.031c.457 1.537 1.054 3.475 1.739 4.758a18.402 18.402 0 0 1-.492-.811c.145.377.305.748.473 1.117.526.906.827 1.371 1.184 1.894.365.515.78 1.099 1.727 2.082 1.242 1.397 1.936 1.825 2.388 2.088.465.251.733.313 1.41.704a20.33 20.33 0 0 0 2.961 1.906l-.052-.074c1.004.311 1.385.417 2.098.664a18.452 18.452 0 0 0 4.214.933l-.208-.163c.809.17 1.403.184 2.051.157.108-.005.22-.011.333-.021.113.01.225.016.332.021.646.021 1.243.013 2.052-.157l-.207.164a18.403 18.403 0 0 0 4.214-.933c.713-.247 1.094-.354 2.096-.664l-.051.074a20.277 20.277 0 0 0 2.961-1.906c.678-.391.945-.453 1.41-.704.453-.263 1.146-.69 2.389-2.088.945-.983 1.361-1.567 1.728-2.082.354-.521.657-.985 1.186-1.894.168-.369.328-.74.474-1.117-.158.271-.321.545-.492.811.686-1.283 1.281-3.221 1.738-4.758a8.831 8.831 0 0 0 .651-2.031c.183-.918.322-2.145.207-3.824a39.157 39.157 0 0 0-.515-3.555c-.198-.968-.422-1.889-.971-3.12a20.035 20.035 0 0 0-.705-1.835l.086.273c-.807-1.602-1.52-2.689-2.291-3.705a16.297 16.297 0 0 0-3.012-3.016 22.418 22.418 0 0 0-.955-.87c-1.955-1.439-4.416-2.61-6.938-3.222-.229-.07-.453-.146-.684-.21.354.103.172.068-.154.015-.244-.047-.49-.115-.734-.15-.031-.089-.564-.23-1.303-.311-.729-.08-1.648-.197-2.484-.23-.008-.002-.014-.15-.021-.15h-.017c-.008 0-.014.148-.02.15-.836.033-1.758.225-2.484.305-.737.08-1.271.185-1.303.272-.244.036-.49.086-.734.133-.284.046-.459.071-.266.009-.19.056-.381.114-.571.172-2.521.611-4.981 1.781-6.937 3.221-.33.277-.646.572-.957.868a16.227 16.227 0 0 0-3.011 3.016c-.773 1.016-1.485 2.103-2.291 3.705l.087-.274a20.641 20.641 0 0 0-.706 1.835c-.548 1.231-.77 2.152-.969 3.12a39.342 39.342 0 0 0-.513 3.554c-.114 1.678.027 2.905.208 3.823zm1.251-3.239c0-10.641 8.657-19.297 19.298-19.297s19.297 8.657 19.297 19.297c0 10.643-8.656 19.299-19.297 19.299-10.64 0-19.298-8.657-19.298-19.299z"/></g><path fill="#FFF" d="M25.721 20.061h10v10h-10v6.21l-13.302-12.21L25.721 11.85z"/><path fill="#355E7C" d="M36.15 27.287l.01.326a90.704 90.704 0 0 0-.057-3.271c.1.845.194 1.742.25 2.633.026.444.045.891.049 1.32.002.785-.01 1.591-.039 2.297a28.216 28.216 0 0 1-1.795-.117c-.637-.054-.767-.121-1.076-.211-.199.318-2.518.469-2.564.391a33.816 33.816 0 0 0-1.459-.146l1.012.079-1.012-.079a43.285 43.285 0 0 0-2.035-.111l-1.303-.037.133 6.548.023 1.538-4.902-4.377a211.868 211.868 0 0 0-2.988-2.594l-.659-.562.749.609-2.338-2.447c.169.094.224.082.594.338l-.421-.346c-.275-.435-1.12-1.199-1.478-1.604.038.129-.282-.146-.563-.394l.14.065a56.76 56.76 0 0 1-1.434-1.313l-1.914-1.783.552-.466c.203-.17.327-.31.398-.4l1.192-.936c-.131-.01.717-.711.237-.381.765-.502 1.425-1.146 2.16-1.617 2.382-1.989 4.918-5.035 7.498-7.006l-.055.092c.92-.712 1.619-1.135 2.42-1.786-.004.283-.002.562.01.849-.124 1.307-.189 2.57-.382 2.977-.026 1.121-.124 2.568-.173 3.668-.096-.283-.116 1.068-.19.527-.134-.729-.021-.77-.128-1.389l.032.019-.116-3.657-.085-.773-.372.364-.158.154-.541.475c-1.547 1.197-3.125 3.614-4.695 4.904a258.183 258.183 0 0 1-5.03 4.009c-.228.155-.218.253-.263.35l-.098.071.312.309.971.897 2.056 1.934-.073-.062c.752.711 1.389 1.16 2.121 1.854-.021.02.092.125.139.188.215.022 4.2 4.215 4.512 4.399l.229.23c.482.407.793.604 1.031.736l-.095-.762.104-.271.127-.117v-.367c0-.396-.02-.846.049-1.181-.055-.323-.016-.388-.029-.772-.031-.142-.091-.209-.113-.387l-.065-.497a8.904 8.904 0 0 1-.038-.729c.006-.339.051-.314.096.114l.014-.748 2.566.006 1.008.062c.286.021.446-.019.592-.077.735.036.521-.025 1.289-.053.188-.089 1.937.143 2.152.114l-.126-.015c.445-.009.814-.056 1.185-.102l.562-.062.344-.03.254-.021-.011-.248-.003-.522.004-1.65-.004-3.152c.094-.021-.021.494.104.521-.008-.661-.041-1.326-.074-1.992l-.022-.499c-.009-.157-.017-.382-.021-.375a2.41 2.41 0 0 1-.027-.252l-.008-.012a.605.605 0 0 0-.192.094c-.086.034-.026-.045-.095-.032l-.017.301c.013-.01-.034.199-.094.199h-.144c-.092 0-.174-.197-.256-.185-.164.026-.324-.05-.539-.065-.022-.033-.18-.093-.332-.09-.01.09-.471-.031-.449.049l-.004-.021c-.092.002-.157-.011-.27.005l-1.992-.318-.084.014c-.244-.002-.351-.069-.207-.086l-.301.004.033.007-.301.006c-.057.008-.118.049-.033.088a2.063 2.063 0 0 0-.531-.032 26.22 26.22 0 0 0 1.559-.223c-.203-.031-.571.018-.791.007-.266.06-.807.109-1.229.15-.094-.007-.156-.105-.367-.062-.104.069-.236-.002-.412.048.201.036.396.021.602.018-.034.081-.495.055-.655.078-.075-.026-.469 0-.715-.022.106.078-.199.05-.347.093-.168.01-.272-.021-.205-.05-.055-.085.662-.051.431-.14-.062.041-.388.025-.562.021-.002-.046.119-.035.006-.078-.195.01-.402-.047-.514.002.037.013.117.004.174.004-.254.004 1.377.302 1.049.274.084-.041-1.447-.274-1.277-.276.154-.023-.111-.084.049-.101l.178.056c.22-.018.31-.099.232-.129-.367.006 1.043.314.729.269l.127-.021c-.133-.031-.488-.058-.625-.009 0-.046-.182-.062-.328-.078l-.055.009c-.152-.023-.368-.014-.268-.074.9.009-.594-.465.279-.49-.366.102.123.104.507.115.036-.034.208-.086.483-.111.239.009.142.037.188.062.133-.022.387-.041.354-.096.187.063.299-.04.521-.019.195.028-.016.026.125.059l.945-.028c.091-.049.367-.139.166-.215-.447.011.172.125-.295.109.201-.113-.414-.031-.498-.117.147-.052.449-.052.701-.038l-.05.016c.222.015.666.039.904-.022-.056-.04.049-.07-.113-.08l.306-.007c.039.013.08.025-.008.034a.941.941 0 0 0 .396-.01c.033-.042 1.626.178 1.576.151.222.001.273-.063.488-.02.021.036-2.104-.145-1.813-.131.188-.047 2.496.211 2.635.132.162.003.358.012.32.055.276-.021-.083-.082.114-.122.004.007-.018.021.047.021l.188-.054c.402.065 1.18-.019 1.592.064l-.004.02.008-.021c-.09-.048-.188-.124-.506-.165l-.072.022c-.043-.013-.323-.028-.305-.07.354-.029.662-.021.979.021l.108-.017.021.084c-.005.004-.011.002-.017.01.025.094.029.079.047.02l.011-.035c.125.097-.08 1.562-.015 1.918-.02.146-.021.014-.047.196.051.513.09.864.117 1.399-.055.171-.076.185-.131-.022l.018.404c.146-.367.138.754.281.35.033.119.039.359.018.586-.037.022-.096.06-.096.344l.078.63c.047.078.064-.043.104-.028-.061.506.104.441.095.918-.015.299-.021.891-.103.903 0 .401.061.401.127.362z"/><path fill="#355E7C" d="M25.721 11.269l-1 .792v8h1z"/></svg>