<?xml version="1.0" encoding="utf-8"?>
<!-- Generator: Adobe Illustrator 15.0.0, SVG Export Plug-In . SVG Version: 6.00 Build 0)  -->
<!DOCTYPE svg PUBLIC "-//W3C//DTD SVG 1.1//EN" "http://www.w3.org/Graphics/SVG/1.1/DTD/svg11.dtd">
<svg version="1.1" id="Layer_1" xmlns="http://www.w3.org/2000/svg" xmlns:xlink="http://www.w3.org/1999/xlink" x="0px" y="0px"
	 width="50px" height="50px" viewBox="0 0 50 50" enable-background="new 0 0 50 50" xml:space="preserve">
<g id="Buttons_x5F_Pressed">
	<g>
		<polygon fill="#355E7C" points="26.723,14.271 25.723,15.063 25.723,23.062 26.723,23.062 		"/>
		<g>
			<path fill="#FFFFFF" d="M27.938,48.777l0.17-0.019c1.334-0.139,2.291-0.356,2.976-0.534c0.7-0.186,1.174-0.341,1.562-0.472
				c0.513-0.178,0.842-0.278,1.355-0.437l0.707-0.221L34.584,46.7l0.325,0.364c1.082-0.567,2.122-1.233,3.097-1.979
				c0.285-0.161,0.479-0.248,0.68-0.339c0.197-0.092,0.385-0.177,0.609-0.299c0.713-0.411,1.51-0.97,2.773-2.39
				c1.02-1.06,1.479-1.711,1.852-2.233c0.393-0.572,0.717-1.075,1.258-2.009l0.037-0.062l0.031-0.065
				c0.104-0.232,0.201-0.453,0.291-0.664l2.084-6.305c0.033-0.146,0.066-0.296,0.1-0.449c0.264-1.328,0.34-2.709,0.231-4.229
				c-0.173-1.701-0.358-2.793-0.534-3.728c-0.201-0.976-0.441-2.019-1.043-3.385c-0.213-0.64-0.459-1.277-0.732-1.896l-0.041,0.016
				c-0.729-1.43-1.436-2.562-2.342-3.751c-0.715-0.917-1.646-2.007-3.226-3.244c-0.284-0.271-0.616-0.58-0.972-0.878l-0.076-0.061
				c-2.15-1.584-4.787-2.811-7.428-3.457c-0.252-0.078-0.468-0.143-0.685-0.202l-0.115,0.405c-0.03-0.043-0.067-0.291-0.104-0.328
				L30.652,5.06c0.002,0,0.006,0,0.01,0c0.021,0,0.055,0.207,0.094,0.213c-0.043-0.006-0.109,0.088-0.188,0.074
				c-0.157-0.029-0.332-0.008-0.514-0.036c-0.439-0.169-0.99-0.203-1.604-0.27c-0.574-0.063-1.226-0.007-1.854-0.024
				c-0.248-0.008-0.492,0.043-0.732,0.043H24.51l-0.002-0.04c-0.478,0.004-0.959-0.017-1.406,0.032
				c-0.6,0.066-1.18,0.114-1.646,0.313c-0.121,0.021-0.509,0.089-0.509,0.089c-0.05,0.008-0.124-0.188-0.171-0.182
				c0.046-0.005,0.082-0.213,0.107-0.213c0.004,0-0.16,0-0.16,0V5.72c0,0.076-0.057,0.161-0.115,0.258l-0.105-0.49
				c-0.183,0.052-0.342,0.107-0.522,0.163l0.002,0.003c-2.64,0.646-5.271,1.874-7.423,3.459l-0.037,0.028l-0.036,0.032
				c-0.348,0.292-0.671,0.594-0.971,0.878c-1.577,1.238-2.509,2.327-3.214,3.231c-0.914,1.202-1.622,2.334-2.351,3.765L5.909,17.03
				c-0.272,0.619-0.519,1.257-0.733,1.897c-0.601,1.366-0.842,2.408-1.038,3.359c-0.181,0.959-0.366,2.051-0.535,3.703
				c-0.11,1.567-0.034,2.948,0.226,4.269c0.162,0.793,0.364,1.454,0.647,2.112l3.482,7.903c0.35,0.475,0.793,1.021,1.522,1.781
				c1.266,1.42,2.063,1.978,2.737,2.367c0.265,0.145,0.452,0.229,0.649,0.318c0.201,0.092,0.393,0.179,0.68,0.34
				c0.972,0.744,2.013,1.41,3.095,1.98l0.326-0.365l-0.123,0.396l0.708,0.22c0.514,0.156,0.844,0.258,1.342,0.431
				c0.402,0.138,0.875,0.291,1.564,0.476c0.695,0.182,1.652,0.397,2.985,0.537l0.169,0.02c0,0,3.589,0.227,2.164,0.227
				C24.349,49,27.938,48.777,27.938,48.777z"/>
		</g>
		<path fill="#4682B5" d="M25.85,7.437c10.642,0,19.299,8.657,19.299,19.297c0,10.643-8.657,19.299-19.299,19.299
			c-10.641,0-19.298-8.656-19.298-19.299C6.55,16.094,15.208,7.437,25.85,7.437z"/>
		<g>
			<path fill="#355E7C" d="M20.962,6.932c0.028-0.009,0.064-0.02,0.11-0.033C21.034,6.909,20.999,6.922,20.962,6.932z"/>
			<path fill="#355E7C" d="M5.299,29.973c0.188,0.918,0.422,1.533,0.651,2.031c0.457,1.537,1.054,3.475,1.739,4.758
				c-0.171-0.266-0.334-0.535-0.492-0.811c0.145,0.377,0.305,0.748,0.473,1.117c0.526,0.906,0.827,1.371,1.184,1.894
				c0.365,0.515,0.78,1.099,1.727,2.082c1.242,1.397,1.936,1.825,2.388,2.088c0.465,0.251,0.733,0.313,1.41,0.704
				c0.925,0.716,1.916,1.355,2.961,1.906l-0.052-0.074c1.004,0.311,1.385,0.417,2.097,0.664c0.357,0.121,0.801,0.268,1.457,0.441
				c0.658,0.168,1.533,0.365,2.758,0.492l-0.208-0.164c0.809,0.17,1.403,0.184,2.051,0.157c0.108-0.005,0.22-0.011,0.333-0.02
				c0.113,0.009,0.226,0.015,0.332,0.02c0.646,0.021,1.244,0.013,2.053-0.157l-0.207,0.164c1.227-0.127,2.099-0.324,2.757-0.492
				c0.656-0.176,1.101-0.32,1.457-0.441c0.713-0.247,1.095-0.354,2.097-0.664l-0.052,0.074c1.045-0.551,2.037-1.19,2.961-1.906
				c0.679-0.391,0.945-0.453,1.41-0.704c0.453-0.263,1.146-0.69,2.39-2.088c0.944-0.983,1.36-1.567,1.727-2.082
				c0.355-0.521,0.658-0.985,1.186-1.894c0.168-0.369,0.328-0.74,0.473-1.117c-0.157,0.271-0.32,0.545-0.491,0.811
				c0.686-1.283,1.282-3.221,1.739-4.758c0.229-0.498,0.463-1.113,0.65-2.031c0.182-0.918,0.322-2.145,0.207-3.824
				c-0.16-1.556-0.33-2.582-0.515-3.555c-0.198-0.968-0.421-1.889-0.97-3.12c-0.205-0.62-0.439-1.233-0.705-1.835l0.086,0.273
				c-0.808-1.602-1.521-2.689-2.291-3.705c-0.784-1.006-1.646-1.95-3.012-3.016c-0.312-0.297-0.627-0.592-0.957-0.87
				c-1.953-1.439-4.414-2.61-6.937-3.222c-0.228-0.07-0.453-0.146-0.683-0.21c0.354,0.103,0.17,0.068-0.155,0.015
				c-0.244-0.047-0.49-0.115-0.734-0.15c-0.03-0.089-0.563-0.23-1.303-0.311c-0.728-0.08-1.647-0.197-2.483-0.23
				c-0.009-0.002-0.015-0.15-0.021-0.15c-0.002,0-0.006,0-0.008,0c-0.004,0-0.006,0-0.01,0c-0.008,0-0.014,0.148-0.02,0.15
				c-0.836,0.033-1.758,0.225-2.484,0.305c-0.737,0.08-1.271,0.185-1.303,0.272c-0.244,0.036-0.49,0.086-0.734,0.133
				c-0.284,0.046-0.459,0.071-0.266,0.009c-0.19,0.056-0.382,0.114-0.572,0.172c-2.521,0.611-4.98,1.781-6.937,3.221
				c-0.33,0.277-0.646,0.572-0.957,0.868c-1.368,1.065-2.228,2.01-3.011,3.016c-0.773,1.016-1.485,2.103-2.291,3.705l0.087-0.274
				c-0.265,0.602-0.501,1.215-0.706,1.835c-0.548,1.231-0.77,2.152-0.969,3.12c-0.184,0.974-0.354,1.999-0.513,3.554
				C4.977,27.828,5.118,29.055,5.299,29.973z M6.55,26.734c0-10.642,8.657-19.297,19.298-19.297s19.299,8.657,19.299,19.297
				c0,10.643-8.658,19.299-19.299,19.299C15.208,46.033,6.55,37.376,6.55,26.734z"/>
		</g>
		<g>
			<polygon fill="#FFFFFF" points="26.723,23.062 36.723,23.062 36.723,33.062 26.723,33.062 26.723,39.273 13.42,27.062 
				26.723,14.852 			"/>
			<g>
				<path fill="#355E7C" d="M37.152,30.289l0.009,0.326c0.006-1.061-0.022-2.172-0.058-3.271c0.101,0.846,0.195,1.742,0.25,2.633
					c0.027,0.444,0.045,0.891,0.049,1.32c0.004,0.785-0.008,1.592-0.039,2.297c-0.639-0.023-1.25-0.062-1.795-0.117
					c-0.635-0.054-0.766-0.121-1.075-0.211c-0.199,0.318-2.517,0.469-2.563,0.391c-0.479-0.061-0.968-0.105-1.459-0.146l1.012,0.079
					l-1.012-0.079c-0.669-0.053-1.349-0.089-2.037-0.111l-1.304-0.037l0.134,6.548l0.022,1.539l-4.902-4.378
					c-1.185-1.043-2.317-2.031-2.987-2.594l-0.659-0.562l0.749,0.609l-2.338-2.447c0.169,0.094,0.224,0.082,0.594,0.338
					l-0.421-0.346c-0.275-0.435-1.12-1.199-1.478-1.604c0.038,0.129-0.282-0.146-0.563-0.394l0.14,0.065
					c-0.467-0.409-0.954-0.862-1.434-1.312l-1.914-1.783l0.552-0.465c0.203-0.173,0.327-0.312,0.398-0.401l1.192-0.935
					c-0.131-0.012,0.717-0.711,0.237-0.383c0.765-0.5,1.425-1.146,2.16-1.617c2.382-1.988,4.918-5.034,7.498-7.005l-0.056,0.092
					c0.921-0.712,1.619-1.135,2.42-1.786c-0.004,0.283-0.002,0.562,0.01,0.849c-0.123,1.307-0.188,2.57-0.381,2.977
					c-0.026,1.121-0.125,2.568-0.174,3.668c-0.097-0.283-0.115,1.068-0.189,0.527c-0.135-0.729-0.02-0.771-0.129-1.39l0.033,0.019
					l-0.117-3.657l-0.084-0.773l-0.372,0.364l-0.157,0.154l-0.543,0.475c-1.546,1.197-3.123,3.614-4.693,4.903
					c-1.694,1.385-3.544,2.859-5.03,4.01c-0.228,0.156-0.218,0.253-0.263,0.35l-0.097,0.07l0.312,0.309l0.971,0.897l2.056,1.935
					l-0.073-0.062c0.752,0.711,1.389,1.16,2.121,1.855c-0.021,0.019,0.092,0.125,0.14,0.188c0.215,0.023,4.2,4.215,4.512,4.4
					l0.229,0.229c0.482,0.407,0.793,0.604,1.031,0.736l-0.095-0.763l0.104-0.271l0.127-0.117v-0.368c0-0.396-0.02-0.845,0.049-1.18
					c-0.055-0.323-0.016-0.387-0.028-0.773c-0.031-0.141-0.091-0.209-0.113-0.386l-0.065-0.497c-0.023-0.31-0.041-0.562-0.037-0.729
					c0.006-0.338,0.051-0.314,0.096,0.115l0.014-0.748l2.566,0.006l1.008,0.061c0.286,0.021,0.447-0.018,0.592-0.076
					c0.735,0.035,0.521-0.027,1.289-0.054c0.188-0.089,1.936,0.142,2.152,0.114l-0.126-0.014c0.446-0.01,0.815-0.057,1.185-0.103
					l0.562-0.062l0.343-0.031l0.254-0.02l-0.011-0.25l-0.003-0.521l0.004-1.65l-0.004-3.152c0.094-0.021-0.021,0.494,0.104,0.521
					c-0.009-0.661-0.041-1.326-0.074-1.992L35.45,24.14c-0.009-0.157-0.017-0.382-0.021-0.375c-0.015-0.091-0.022-0.171-0.027-0.252
					l-0.008-0.012c-0.084,0.026-0.162,0.067-0.192,0.094c-0.086,0.034-0.026-0.045-0.095-0.032l-0.017,0.301
					c0.013-0.01-0.034,0.199-0.094,0.199h-0.144c-0.092,0-0.174-0.197-0.256-0.185c-0.164,0.026-0.324-0.05-0.539-0.065
					c-0.022-0.033-0.18-0.093-0.332-0.09c-0.01,0.09-0.471-0.031-0.449,0.049l-0.004-0.021c-0.092,0.002-0.157-0.011-0.27,0.005
					l-1.992-0.318l-0.084,0.014c-0.244-0.002-0.351-0.069-0.207-0.086L30.42,23.37l0.033,0.007l-0.301,0.006
					c-0.057,0.008-0.118,0.049-0.033,0.088c-0.17-0.03-0.361-0.048-0.531-0.032c0.475-0.055,1.062-0.133,1.559-0.223
					c-0.203-0.031-0.571,0.018-0.791,0.007c-0.266,0.06-0.807,0.109-1.229,0.15c-0.094-0.007-0.156-0.105-0.367-0.062
					c-0.104,0.069-0.236-0.002-0.412,0.048c0.201,0.036,0.396,0.021,0.602,0.018c-0.034,0.081-0.495,0.055-0.655,0.078
					c-0.076-0.026-0.469,0-0.715-0.022c0.106,0.078-0.199,0.05-0.347,0.093c-0.168,0.01-0.272-0.021-0.205-0.05
					c-0.055-0.085,0.662-0.051,0.431-0.14c-0.062,0.041-0.388,0.025-0.562,0.021c-0.002-0.046,0.117-0.035,0.006-0.078
					c-0.194,0.01-0.401-0.047-0.516,0.002c0.037,0.013,0.117,0.004,0.176,0.004c-0.254,0.004,1.377,0.302,1.049,0.274
					c0.084-0.041-1.448-0.274-1.276-0.276c0.153-0.023-0.112-0.084,0.049-0.101l0.179,0.056c0.219-0.018,0.309-0.099,0.231-0.129
					c-0.367,0.006,1.043,0.314,0.729,0.269l0.127-0.021c-0.133-0.031-0.489-0.058-0.625-0.009c-0.002-0.046-0.183-0.062-0.33-0.078
					l-0.053,0.009c-0.154-0.023-0.369-0.014-0.271-0.074c0.901,0.009-0.593-0.465,0.28-0.49c-0.366,0.102,0.123,0.104,0.507,0.115
					c0.036-0.034,0.208-0.086,0.483-0.111c0.238,0.009,0.142,0.037,0.188,0.062c0.133-0.022,0.387-0.041,0.354-0.096
					c0.187,0.063,0.299-0.04,0.521-0.019c0.195,0.028-0.016,0.026,0.125,0.059l0.945-0.028c0.091-0.049,0.367-0.139,0.166-0.215
					c-0.447,0.01,0.172,0.125-0.295,0.108c0.201-0.113-0.414-0.031-0.498-0.117c0.147-0.052,0.449-0.052,0.701-0.038l-0.05,0.016
					c0.222,0.016,0.666,0.039,0.904-0.021c-0.056-0.04,0.049-0.07-0.113-0.08l0.306-0.007c0.039,0.013,0.08,0.024-0.008,0.034
					c0.145,0.031,0.288,0.014,0.397-0.01c0.032-0.043,1.625,0.178,1.575,0.15c0.222,0.001,0.273-0.062,0.488-0.02
					c0.021,0.035-2.104-0.146-1.813-0.131c0.188-0.047,2.495,0.211,2.635,0.132c0.162,0.003,0.358,0.012,0.32,0.055
					c0.276-0.021-0.083-0.082,0.114-0.122c0.004,0.008-0.018,0.021,0.047,0.02l0.188-0.053c0.402,0.064,1.18-0.02,1.592,0.063
					l-0.004,0.021l0.008-0.021c-0.09-0.049-0.188-0.124-0.506-0.165l-0.072,0.022c-0.043-0.014-0.323-0.029-0.305-0.07
					c0.354-0.029,0.662-0.021,0.979,0.021l0.109-0.017l0.021,0.084c-0.005,0.004-0.011,0.002-0.017,0.01
					c0.025,0.094,0.029,0.079,0.047,0.02l0.011-0.035c0.125,0.098-0.08,1.562-0.015,1.919c-0.02,0.146-0.021,0.014-0.047,0.196
					c0.051,0.513,0.09,0.864,0.117,1.399c-0.055,0.171-0.076,0.186-0.131-0.021l0.018,0.403c0.146-0.367,0.137,0.754,0.281,0.351
					c0.033,0.118,0.039,0.358,0.018,0.586c-0.037,0.022-0.096,0.06-0.096,0.344l0.078,0.63c0.047,0.078,0.064-0.043,0.104-0.027
					c-0.061,0.506,0.104,0.44,0.095,0.918c-0.015,0.299-0.021,0.892-0.103,0.904C37.025,30.328,37.085,30.328,37.152,30.289z"/>
			</g>
		</g>
	</g>
	<g id="Bullet_-_Right">
	</g>
</g>
</svg>
