<?xml version="1.0" encoding="utf-8"?>
<!-- Generator: Adobe Illustrator 15.0.0, SVG Export Plug-In . SVG Version: 6.00 Build 0)  -->
<!DOCTYPE svg PUBLIC "-//W3C//DTD SVG 1.1//EN" "http://www.w3.org/Graphics/SVG/1.1/DTD/svg11.dtd">
<svg version="1.1" id="Layer_1" xmlns="http://www.w3.org/2000/svg" xmlns:xlink="http://www.w3.org/1999/xlink" x="0px" y="0px"
	 width="50px" height="50px" viewBox="0 0 50 50" enable-background="new 0 0 50 50" xml:space="preserve">
<g id="Buttons_x5F_Released">
	<g opacity="0.3">
		<path fill="#333333" d="M23.614,47.775l-0.17-0.019c-1.333-0.139-2.29-0.356-2.974-0.534c-0.701-0.186-1.174-0.341-1.563-0.472
			c-0.512-0.178-0.842-0.278-1.355-0.437l-0.708-0.221l0.124-0.396l-0.327,0.364c-1.082-0.567-2.122-1.233-3.095-1.979
			c-0.286-0.161-0.478-0.248-0.679-0.339c-0.198-0.093-0.385-0.177-0.611-0.3c-0.712-0.41-1.51-0.969-2.775-2.389
			c-1.017-1.06-1.478-1.711-1.849-2.233c-0.393-0.572-0.718-1.075-1.258-2.009l-0.038-0.062l-0.031-0.065
			c-0.105-0.232-0.202-0.453-0.29-0.664L3.931,29.72c-0.036-0.146-0.069-0.296-0.101-0.45c-0.263-1.328-0.338-2.709-0.232-4.229
			c0.173-1.701,0.359-2.793,0.535-3.728c0.201-0.976,0.442-2.019,1.043-3.385c0.214-0.64,0.46-1.277,0.733-1.896l0.042,0.016
			c0.729-1.43,1.435-2.562,2.341-3.751c0.715-0.917,1.647-2.007,3.224-3.244c0.285-0.271,0.618-0.58,0.971-0.878l0.077-0.061
			c2.151-1.584,4.787-2.812,7.428-3.457c0.252-0.078,0.467-0.143,0.684-0.202l0.113,0.405c0.033-0.043,0.069-0.291,0.106-0.328
			l0.003-0.473c-0.003,0-0.006,0-0.01,0c-0.022,0-0.055,0.207-0.092,0.213c0.043-0.006,0.108,0.088,0.188,0.074
			c0.157-0.029,0.332-0.008,0.512-0.036c0.441-0.169,0.991-0.203,1.606-0.27c0.573-0.063,1.225-0.007,1.854-0.024
			c0.246-0.008,0.492,0.043,0.731,0.043h1.353l0.004-0.04c0.478,0.004,0.959-0.017,1.405,0.032c0.599,0.066,1.181,0.114,1.646,0.313
			c0.121,0.021,0.508,0.089,0.508,0.089c0.051,0.008,0.125-0.188,0.172-0.182c-0.047-0.005-0.082-0.213-0.106-0.213
			c-0.004,0,0.052,0,0.052,0v0.661c0,0.076,0.11,0.161,0.17,0.258l0.133-0.49c0.184,0.052,0.354,0.107,0.535,0.163l0.006,0.003
			c2.641,0.646,5.272,1.874,7.427,3.459l0.038,0.028l0.037,0.032c0.35,0.292,0.67,0.594,0.973,0.878
			c1.574,1.238,2.508,2.327,3.213,3.231c0.914,1.202,1.623,2.334,2.354,3.765l0.041-0.017c0.271,0.619,0.521,1.257,0.732,1.897
			c0.602,1.366,0.842,2.408,1.039,3.359c0.18,0.959,0.364,2.051,0.533,3.703c0.109,1.567,0.033,2.95-0.227,4.269
			c-0.162,0.793-0.363,1.454-0.646,2.112l-3.482,7.906c-0.35,0.474-0.793,1.021-1.521,1.781c-1.266,1.42-2.062,1.977-2.737,2.366
			c-0.265,0.146-0.45,0.229-0.647,0.318c-0.201,0.092-0.394,0.179-0.681,0.34c-0.973,0.744-2.014,1.41-3.096,1.979l-0.326-0.365
			l0.123,0.396l-0.707,0.221c-0.515,0.155-0.845,0.258-1.343,0.43c-0.401,0.138-0.875,0.291-1.564,0.476
			c-0.693,0.181-1.65,0.397-2.984,0.537l-0.168,0.019c0,0-3.589,0.228-2.164,0.228C27.203,47.998,23.614,47.775,23.614,47.775z"/>
	</g>
	<g>
		<path fill="#FFFFFF" d="M26.938,45.775l0.17-0.019c1.334-0.139,2.291-0.356,2.976-0.534c0.7-0.186,1.174-0.341,1.562-0.472
			c0.513-0.178,0.842-0.278,1.355-0.437l0.707-0.221l-0.123-0.396l0.325,0.364c1.082-0.567,2.122-1.233,3.097-1.979
			c0.285-0.161,0.479-0.248,0.68-0.339c0.197-0.093,0.385-0.177,0.609-0.3c0.713-0.41,1.51-0.969,2.773-2.389
			c1.02-1.06,1.479-1.711,1.852-2.233c0.393-0.572,0.717-1.075,1.258-2.009l0.037-0.062l0.031-0.065
			c0.104-0.232,0.201-0.453,0.291-0.664l2.084-6.305c0.033-0.146,0.066-0.296,0.1-0.449c0.264-1.33,0.34-2.709,0.231-4.229
			c-0.173-1.701-0.358-2.793-0.534-3.727c-0.201-0.976-0.441-2.019-1.043-3.385c-0.213-0.64-0.459-1.277-0.732-1.896l-0.041,0.016
			c-0.729-1.43-1.436-2.562-2.342-3.751c-0.715-0.917-1.646-2.007-3.226-3.244c-0.284-0.271-0.616-0.58-0.972-0.878l-0.076-0.061
			c-2.15-1.584-4.787-2.812-7.428-3.457c-0.252-0.078-0.468-0.143-0.685-0.202L29.76,2.86c-0.031-0.043-0.066-0.291-0.104-0.328
			l-0.004-0.473c0.004,0,0.007,0,0.011,0c0.022,0,0.055,0.207,0.094,0.213c-0.043-0.006-0.108,0.088-0.188,0.074
			c-0.156-0.029-0.332-0.008-0.512-0.036c-0.44-0.169-0.99-0.203-1.605-0.27c-0.574-0.062-1.225-0.006-1.854-0.023
			C25.35,2.009,25.104,2.06,24.865,2.06H23.51l-0.002-0.04c-0.478,0.004-0.959-0.017-1.406,0.032c-0.6,0.066-1.18,0.114-1.646,0.313
			c-0.121,0.021-0.509,0.089-0.509,0.089c-0.05,0.008-0.124-0.188-0.171-0.182c0.046-0.005,0.082-0.213,0.107-0.213
			c0.004,0-0.16,0-0.16,0V2.72c0,0.076-0.056,0.161-0.115,0.258l-0.106-0.49C19.32,2.54,19.161,2.595,18.98,2.651l0.002,0.003
			c-2.64,0.646-5.271,1.874-7.423,3.459l-0.037,0.028l-0.036,0.032c-0.348,0.292-0.671,0.594-0.971,0.878
			C8.938,8.289,8.005,9.378,7.3,10.282c-0.914,1.202-1.622,2.334-2.351,3.765L4.907,14.03c-0.272,0.619-0.519,1.257-0.733,1.896
			c-0.601,1.366-0.842,2.408-1.038,3.359c-0.181,0.959-0.366,2.051-0.535,3.704c-0.11,1.566-0.034,2.947,0.226,4.268
			c0.162,0.793,0.364,1.454,0.647,2.112l3.482,7.905c0.35,0.473,0.793,1.021,1.522,1.779c1.266,1.42,2.063,1.979,2.737,2.367
			c0.265,0.146,0.452,0.229,0.649,0.317c0.201,0.093,0.393,0.18,0.68,0.341c0.972,0.743,2.013,1.409,3.095,1.979l0.326-0.365
			l-0.123,0.396l0.708,0.221c0.514,0.155,0.844,0.258,1.342,0.431c0.402,0.137,0.875,0.291,1.565,0.475
			c0.695,0.181,1.652,0.398,2.985,0.537l0.169,0.019c0,0,3.589,0.228,2.163,0.228C23.348,45.999,26.938,45.775,26.938,45.775z"/>
	</g>
	<path fill="#4682B5" d="M24.849,4.435c10.641,0,19.297,8.657,19.297,19.297c0,10.643-8.656,19.299-19.297,19.299
		S5.551,34.375,5.551,23.732C5.549,13.092,14.208,4.435,24.849,4.435z"/>
	<g>
		<path fill="#355E7C" d="M19.96,3.93c0.029-0.009,0.065-0.02,0.111-0.033C20.033,3.907,19.998,3.92,19.96,3.93z"/>
		<path fill="#355E7C" d="M4.298,26.971c0.188,0.918,0.422,1.533,0.651,2.031c0.457,1.537,1.054,3.475,1.739,4.758
			c-0.171-0.266-0.334-0.535-0.492-0.811c0.145,0.377,0.305,0.748,0.473,1.117c0.526,0.906,0.827,1.371,1.184,1.894
			c0.365,0.515,0.78,1.099,1.727,2.082c1.242,1.397,1.936,1.825,2.388,2.088c0.465,0.251,0.733,0.313,1.41,0.704
			c0.925,0.716,1.916,1.355,2.961,1.906l-0.052-0.074c1.004,0.311,1.385,0.417,2.098,0.664c0.357,0.121,0.8,0.268,1.457,0.441
			c0.658,0.168,1.533,0.364,2.757,0.492L22.391,44.1c0.809,0.17,1.403,0.184,2.051,0.157c0.108-0.005,0.22-0.011,0.333-0.021
			c0.113,0.01,0.225,0.016,0.332,0.021c0.646,0.021,1.243,0.013,2.052-0.157l-0.207,0.164c1.226-0.128,2.099-0.324,2.757-0.492
			c0.656-0.176,1.102-0.32,1.457-0.441c0.713-0.247,1.094-0.354,2.096-0.664l-0.051,0.074c1.045-0.551,2.037-1.19,2.961-1.906
			c0.678-0.391,0.945-0.453,1.41-0.704c0.453-0.263,1.146-0.69,2.389-2.088c0.945-0.983,1.361-1.567,1.728-2.082
			c0.354-0.521,0.657-0.985,1.186-1.894c0.168-0.369,0.328-0.74,0.474-1.117c-0.158,0.271-0.321,0.545-0.492,0.811
			c0.686-1.283,1.281-3.221,1.738-4.758c0.229-0.498,0.465-1.113,0.651-2.031c0.183-0.918,0.322-2.145,0.207-3.824
			c-0.16-1.556-0.33-2.582-0.515-3.555c-0.198-0.968-0.422-1.889-0.971-3.12c-0.205-0.62-0.438-1.233-0.705-1.835l0.086,0.273
			c-0.807-1.602-1.52-2.689-2.291-3.705c-0.783-1.006-1.645-1.95-3.012-3.016c-0.312-0.297-0.627-0.592-0.955-0.87
			c-1.955-1.439-4.416-2.61-6.938-3.222c-0.229-0.07-0.453-0.146-0.684-0.21c0.354,0.103,0.172,0.068-0.154,0.015
			c-0.244-0.047-0.49-0.115-0.734-0.15c-0.031-0.089-0.564-0.23-1.303-0.311c-0.729-0.08-1.648-0.197-2.484-0.23
			c-0.008-0.002-0.014-0.15-0.021-0.15c-0.002,0-0.005,0-0.008,0s-0.006,0-0.009,0c-0.008,0-0.014,0.148-0.02,0.15
			c-0.836,0.033-1.758,0.225-2.484,0.305c-0.737,0.08-1.271,0.185-1.303,0.272c-0.244,0.036-0.49,0.086-0.734,0.133
			c-0.284,0.046-0.459,0.071-0.266,0.009c-0.19,0.056-0.381,0.114-0.571,0.172c-2.521,0.611-4.981,1.781-6.937,3.221
			c-0.33,0.277-0.646,0.572-0.957,0.868c-1.368,1.065-2.228,2.01-3.011,3.016c-0.773,1.016-1.485,2.103-2.291,3.705l0.087-0.274
			c-0.265,0.602-0.501,1.215-0.706,1.835c-0.548,1.231-0.77,2.152-0.969,3.12c-0.184,0.974-0.354,1.999-0.513,3.554
			C3.976,24.826,4.117,26.053,4.298,26.971z M5.549,23.732c0-10.641,8.657-19.297,19.298-19.297s19.297,8.657,19.297,19.297
			c0,10.643-8.656,19.299-19.297,19.299C14.207,43.031,5.549,34.374,5.549,23.732z"/>
	</g>
	<g>
		<polygon fill="#FFFFFF" points="25.721,20.061 35.721,20.061 35.721,30.061 25.721,30.061 25.721,36.271 12.419,24.061 
			25.721,11.85 		"/>
		<g>
			<path fill="#355E7C" d="M36.15,27.287l0.01,0.326c0.006-1.061-0.023-2.172-0.057-3.271c0.1,0.845,0.194,1.742,0.25,2.633
				c0.026,0.444,0.045,0.891,0.049,1.32c0.002,0.785-0.01,1.591-0.039,2.297c-0.641-0.023-1.25-0.062-1.795-0.117
				c-0.637-0.054-0.767-0.121-1.076-0.211c-0.199,0.318-2.518,0.469-2.564,0.391c-0.479-0.061-0.967-0.105-1.459-0.146l1.012,0.079
				l-1.012-0.079c-0.668-0.053-1.348-0.089-2.035-0.111l-1.303-0.037l0.133,6.548l0.023,1.538l-4.902-4.377
				c-1.186-1.043-2.318-2.031-2.988-2.594l-0.659-0.562l0.749,0.609l-2.338-2.447c0.169,0.094,0.224,0.082,0.594,0.338l-0.421-0.346
				c-0.275-0.435-1.12-1.199-1.478-1.604c0.038,0.129-0.282-0.146-0.563-0.394l0.14,0.065c-0.467-0.409-0.954-0.862-1.434-1.313
				l-1.914-1.783l0.552-0.466c0.203-0.17,0.327-0.31,0.398-0.4l1.192-0.936c-0.131-0.01,0.717-0.711,0.237-0.381
				c0.765-0.502,1.425-1.146,2.16-1.617c2.382-1.989,4.918-5.035,7.498-7.006l-0.055,0.092c0.92-0.712,1.619-1.135,2.42-1.786
				c-0.004,0.283-0.002,0.562,0.01,0.849c-0.124,1.307-0.189,2.57-0.382,2.977c-0.026,1.121-0.124,2.568-0.173,3.668
				c-0.096-0.283-0.116,1.068-0.19,0.527c-0.134-0.729-0.021-0.77-0.128-1.389l0.032,0.019l-0.116-3.657l-0.085-0.773l-0.372,0.364
				l-0.158,0.154l-0.541,0.475c-1.547,1.197-3.125,3.614-4.695,4.904c-1.694,1.384-3.544,2.859-5.03,4.009
				c-0.228,0.155-0.218,0.253-0.263,0.35l-0.098,0.071l0.312,0.309l0.971,0.897l2.056,1.934l-0.073-0.062
				c0.752,0.711,1.389,1.16,2.121,1.854c-0.021,0.02,0.092,0.125,0.139,0.188c0.215,0.022,4.2,4.215,4.512,4.399l0.229,0.23
				c0.482,0.407,0.793,0.604,1.031,0.736l-0.095-0.762l0.104-0.271l0.127-0.117v-0.367c0-0.396-0.02-0.846,0.049-1.181
				c-0.055-0.323-0.016-0.388-0.029-0.772c-0.031-0.142-0.091-0.209-0.113-0.387l-0.065-0.497c-0.024-0.31-0.041-0.562-0.038-0.729
				c0.006-0.339,0.051-0.314,0.096,0.114l0.014-0.748l2.566,0.006l1.008,0.062c0.286,0.021,0.446-0.019,0.592-0.077
				c0.735,0.036,0.521-0.025,1.289-0.053c0.188-0.089,1.937,0.143,2.152,0.114l-0.126-0.015c0.445-0.009,0.814-0.056,1.185-0.102
				l0.562-0.062l0.344-0.03l0.254-0.021l-0.011-0.248l-0.003-0.522l0.004-1.65l-0.004-3.152c0.094-0.021-0.021,0.494,0.104,0.521
				c-0.008-0.661-0.041-1.326-0.074-1.992l-0.022-0.499c-0.009-0.157-0.017-0.382-0.021-0.375c-0.015-0.091-0.022-0.171-0.027-0.252
				l-0.008-0.012c-0.084,0.026-0.162,0.067-0.192,0.094c-0.086,0.034-0.026-0.045-0.095-0.032l-0.017,0.301
				c0.013-0.01-0.034,0.199-0.094,0.199h-0.144c-0.092,0-0.174-0.197-0.256-0.185c-0.164,0.026-0.324-0.05-0.539-0.065
				c-0.022-0.033-0.18-0.093-0.332-0.09c-0.01,0.09-0.471-0.031-0.449,0.049l-0.004-0.021c-0.092,0.002-0.157-0.011-0.27,0.005
				l-1.992-0.318l-0.084,0.014c-0.244-0.002-0.351-0.069-0.207-0.086l-0.301,0.004l0.033,0.007l-0.301,0.006
				c-0.057,0.008-0.118,0.049-0.033,0.088c-0.17-0.03-0.361-0.048-0.531-0.032c0.475-0.055,1.062-0.133,1.559-0.223
				c-0.203-0.031-0.571,0.018-0.791,0.007c-0.266,0.06-0.807,0.109-1.229,0.15c-0.094-0.007-0.156-0.105-0.367-0.062
				c-0.104,0.069-0.236-0.002-0.412,0.048c0.201,0.036,0.396,0.021,0.602,0.018c-0.034,0.081-0.495,0.055-0.655,0.078
				c-0.075-0.026-0.469,0-0.715-0.022c0.106,0.078-0.199,0.05-0.347,0.093c-0.168,0.01-0.272-0.021-0.205-0.05
				c-0.055-0.085,0.662-0.051,0.431-0.14c-0.062,0.041-0.388,0.025-0.562,0.021c-0.002-0.046,0.119-0.035,0.006-0.078
				c-0.195,0.01-0.402-0.047-0.514,0.002c0.037,0.013,0.117,0.004,0.174,0.004c-0.254,0.004,1.377,0.302,1.049,0.274
				c0.084-0.041-1.447-0.274-1.277-0.276c0.154-0.023-0.111-0.084,0.049-0.101l0.178,0.056c0.22-0.018,0.31-0.099,0.232-0.129
				c-0.367,0.006,1.043,0.314,0.729,0.269l0.127-0.021c-0.133-0.031-0.488-0.058-0.625-0.009c0-0.046-0.182-0.062-0.328-0.078
				l-0.055,0.009c-0.152-0.023-0.368-0.014-0.268-0.074c0.9,0.009-0.594-0.465,0.279-0.49c-0.366,0.102,0.123,0.104,0.507,0.115
				c0.036-0.034,0.208-0.086,0.483-0.111c0.239,0.009,0.142,0.037,0.188,0.062c0.133-0.022,0.387-0.041,0.354-0.096
				c0.187,0.063,0.299-0.04,0.521-0.019c0.195,0.028-0.016,0.026,0.125,0.059l0.945-0.028c0.091-0.049,0.367-0.139,0.166-0.215
				c-0.447,0.011,0.172,0.125-0.295,0.109c0.201-0.113-0.414-0.031-0.498-0.117c0.147-0.052,0.449-0.052,0.701-0.038l-0.05,0.016
				c0.222,0.015,0.666,0.039,0.904-0.022c-0.056-0.04,0.049-0.07-0.113-0.08l0.306-0.007c0.039,0.013,0.08,0.025-0.008,0.034
				c0.145,0.031,0.289,0.014,0.396-0.01c0.033-0.042,1.626,0.178,1.576,0.151c0.222,0.001,0.273-0.063,0.488-0.02
				c0.021,0.036-2.104-0.145-1.813-0.131c0.188-0.047,2.496,0.211,2.635,0.132c0.162,0.003,0.358,0.012,0.32,0.055
				c0.276-0.021-0.083-0.082,0.114-0.122c0.004,0.007-0.018,0.021,0.047,0.021l0.188-0.054c0.402,0.065,1.18-0.019,1.592,0.064
				l-0.004,0.02l0.008-0.021c-0.09-0.048-0.188-0.124-0.506-0.165l-0.072,0.022c-0.043-0.013-0.323-0.028-0.305-0.07
				c0.354-0.029,0.662-0.021,0.979,0.021l0.108-0.017l0.021,0.084c-0.005,0.004-0.011,0.002-0.017,0.01
				c0.025,0.094,0.029,0.079,0.047,0.02l0.011-0.035c0.125,0.097-0.08,1.562-0.015,1.918c-0.02,0.146-0.021,0.014-0.047,0.196
				c0.051,0.513,0.09,0.864,0.117,1.399c-0.055,0.171-0.076,0.185-0.131-0.022l0.018,0.404c0.146-0.367,0.138,0.754,0.281,0.35
				c0.033,0.119,0.039,0.359,0.018,0.586c-0.037,0.022-0.096,0.06-0.096,0.344l0.078,0.63c0.047,0.078,0.064-0.043,0.104-0.028
				c-0.061,0.506,0.104,0.441,0.095,0.918c-0.015,0.299-0.021,0.891-0.103,0.903C36.023,27.326,36.084,27.326,36.15,27.287z"/>
		</g>
	</g>
	<polygon fill="#355E7C" points="25.721,11.269 24.721,12.061 24.721,20.061 25.721,20.061 	"/>
</g>
</svg>
