<?xml version="1.0" encoding="utf-8"?>
<!-- Generator: Adobe Illustrator 15.0.0, SVG Export Plug-In . SVG Version: 6.00 Build 0)  -->
<!DOCTYPE svg PUBLIC "-//W3C//DTD SVG 1.1//EN" "http://www.w3.org/Graphics/SVG/1.1/DTD/svg11.dtd">
<svg version="1.1" id="Layer_1" xmlns="http://www.w3.org/2000/svg" xmlns:xlink="http://www.w3.org/1999/xlink" x="0px" y="0px"
	 width="64px" height="64px" viewBox="0 0 64 64" enable-background="new 0 0 64 64" xml:space="preserve">
<g id="Buttons_x5F_Released">
	<g opacity="0.3">
		<path fill="#333333" d="M28.838,53.77l-0.17-0.018c-1.333-0.139-2.289-0.357-2.975-0.534c-0.7-0.186-1.174-0.341-1.563-0.472
			c-0.512-0.178-0.842-0.278-1.355-0.436l-0.708-0.22l0.124-0.396l-0.327,0.365c-1.082-0.569-2.122-1.235-3.095-1.98
			c-0.286-0.161-0.478-0.248-0.679-0.339c-0.198-0.091-0.385-0.175-0.611-0.298c-0.712-0.412-1.511-0.969-2.775-2.389
			c-1.017-1.06-1.478-1.711-1.849-2.234c-0.394-0.573-0.719-1.076-1.258-2.008l-0.038-0.063l-0.031-0.067
			c-0.105-0.232-0.202-0.453-0.29-0.664l-2.084-6.303c-0.035-0.146-0.068-0.296-0.101-0.451c-0.263-1.328-0.338-2.709-0.232-4.228
			c0.173-1.702,0.358-2.793,0.534-3.727c0.201-0.976,0.443-2.019,1.043-3.384c0.215-0.64,0.461-1.278,0.734-1.897l0.042,0.016
			c0.729-1.43,1.435-2.562,2.341-3.751c0.715-0.917,1.646-2.006,3.225-3.244c0.284-0.27,0.617-0.58,0.971-0.878l0.077-0.061
			c2.151-1.584,4.787-2.811,7.428-3.458c0.252-0.077,0.466-0.142,0.683-0.202l0.114,0.405c0.033-0.043,0.069-0.291,0.106-0.329
			l0.004-0.472c-0.004,0-0.007,0-0.01,0c-0.023,0-0.055,0.208-0.093,0.212c0.043-0.005,0.109,0.088,0.188,0.075
			c0.157-0.03,0.332-0.008,0.512-0.036c0.44-0.169,0.991-0.203,1.606-0.27c0.574-0.063,1.225-0.008,1.854-0.025
			c0.247-0.007,0.493,0.044,0.731,0.044h1.354l0.003-0.039c0.477,0.003,0.958-0.017,1.406,0.032c0.6,0.065,1.18,0.114,1.646,0.313
			c0.121,0.021,0.509,0.088,0.509,0.088c0.05,0.008,0.124-0.188,0.171-0.181c-0.046-0.005-0.082-0.213-0.107-0.213
			c-0.004,0,0.053,0,0.053,0v0.661c0,0.076,0.109,0.162,0.17,0.258l0.133-0.49c0.182,0.052,0.354,0.107,0.535,0.163l0.005,0.003
			c2.64,0.646,5.274,1.874,7.427,3.459l0.038,0.029l0.036,0.032c0.348,0.292,0.672,0.594,0.973,0.878
			c1.576,1.237,2.508,2.327,3.213,3.231c0.914,1.202,1.623,2.334,2.353,3.764l0.042-0.016c0.271,0.619,0.52,1.257,0.732,1.898
			c0.602,1.366,0.842,2.408,1.039,3.359c0.18,0.959,0.365,2.051,0.534,3.704c0.11,1.568,0.034,2.947-0.226,4.268
			c-0.162,0.793-0.364,1.454-0.647,2.112c0,0-1.96,6.125-3.481,7.906c-1.522,1.781-0.793,1.021-1.522,1.781
			c-1.266,1.42-2.063,1.977-2.737,2.366c-0.265,0.146-0.451,0.229-0.648,0.319c-0.201,0.091-0.393,0.178-0.68,0.339
			c-0.973,0.745-2.014,1.411-3.096,1.981l-0.326-0.367l0.123,0.396l-0.707,0.219c-0.515,0.157-0.845,0.258-1.343,0.432
			c-0.401,0.136-0.875,0.291-1.565,0.474c-0.694,0.179-1.65,0.397-2.984,0.537l-0.169,0.019c0,0-3.589,0.226-2.163,0.226
			C32.428,53.995,28.838,53.77,28.838,53.77z"/>
	</g>
	<g>
		<path fill="#FFFFFF" d="M25.838,50.77l-0.17-0.018c-1.333-0.139-2.289-0.357-2.975-0.534c-0.7-0.186-1.174-0.341-1.563-0.472
			c-0.512-0.178-0.842-0.278-1.355-0.436l-0.708-0.22l0.124-0.396l-0.327,0.365c-1.082-0.569-2.122-1.235-3.095-1.98
			c-0.286-0.161-0.478-0.248-0.679-0.339c-0.198-0.091-0.385-0.175-0.611-0.298c-0.712-0.412-1.511-0.969-2.775-2.389
			c-1.017-1.06-1.478-1.711-1.849-2.234c-0.394-0.573-0.719-1.076-1.258-2.008L8.56,39.749l-0.031-0.067
			c-0.105-0.232-0.202-0.453-0.29-0.664l-2.084-6.303c-0.035-0.146-0.068-0.296-0.101-0.451c-0.263-1.329-0.338-2.709-0.232-4.228
			c0.173-1.702,0.358-2.793,0.534-3.727c0.201-0.976,0.443-2.019,1.043-3.384c0.215-0.64,0.461-1.278,0.734-1.897l0.042,0.016
			c0.729-1.43,1.435-2.562,2.341-3.751c0.715-0.917,1.646-2.006,3.225-3.244c0.284-0.27,0.617-0.58,0.971-0.878l0.077-0.061
			c2.151-1.584,4.787-2.811,7.428-3.458C22.469,7.575,22.683,7.51,22.9,7.45l0.114,0.405c0.033-0.043,0.069-0.291,0.106-0.329
			l0.004-0.472c-0.004,0-0.007,0-0.01,0c-0.023,0-0.055,0.208-0.093,0.212c0.043-0.005,0.109,0.088,0.188,0.075
			c0.157-0.03,0.332-0.008,0.512-0.036c0.44-0.169,0.991-0.203,1.606-0.27c0.574-0.063,1.225-0.008,1.854-0.025
			c0.247-0.007,0.493,0.044,0.731,0.044h1.354l0.003-0.039c0.477,0.003,0.959-0.017,1.406,0.032c0.599,0.065,1.18,0.114,1.647,0.313
			c0.121,0.021,0.508,0.088,0.508,0.088c0.05,0.008,0.124-0.188,0.171-0.181c-0.046-0.005-0.082-0.213-0.106-0.213
			c-0.006,0,0.051,0,0.051,0v0.661c0,0.076,0.109,0.162,0.171,0.258l0.133-0.49c0.183,0.052,0.354,0.107,0.535,0.163l0.005,0.003
			c2.641,0.646,5.273,1.874,7.427,3.459l0.038,0.029l0.036,0.032c0.349,0.292,0.672,0.594,0.972,0.878
			c1.577,1.237,2.51,2.327,3.215,3.231c0.914,1.202,1.621,2.334,2.352,3.764l0.042-0.016c0.272,0.619,0.519,1.257,0.733,1.898
			c0.601,1.366,0.842,2.408,1.037,3.359c0.182,0.959,0.366,2.051,0.535,3.704c0.11,1.567,0.034,2.947-0.226,4.268
			c-0.162,0.793-0.364,1.454-0.647,2.112c0,0-1.96,6.125-3.482,7.906c-1.521,1.781-0.793,1.021-1.521,1.781
			c-1.266,1.42-2.062,1.977-2.736,2.366c-0.266,0.146-0.453,0.229-0.649,0.319c-0.201,0.091-0.394,0.178-0.681,0.339
			c-0.971,0.745-2.012,1.411-3.094,1.981l-0.326-0.367l0.123,0.396l-0.709,0.219c-0.514,0.157-0.844,0.258-1.342,0.432
			c-0.402,0.136-0.875,0.291-1.564,0.474c-0.695,0.179-1.651,0.397-2.985,0.537l-0.169,0.019c0,0-3.589,0.226-2.163,0.226
			C29.429,50.995,25.838,50.77,25.838,50.77z"/>
	</g>
	<path fill="#4682B5" d="M27.928,9.429c-10.642,0-19.299,8.657-19.299,19.298s8.657,19.298,19.299,19.298
		c10.64,0,19.298-8.657,19.298-19.298S38.568,9.429,27.928,9.429z"/>
	<g>
		<path fill="#355E7C" d="M32.814,8.924c-0.027-0.009-0.064-0.02-0.11-0.034C32.742,8.901,32.777,8.914,32.814,8.924z"/>
		<path fill="#355E7C" d="M48.684,28.14c-0.16-1.555-0.33-2.581-0.514-3.554c-0.199-0.968-0.421-1.888-0.969-3.12
			c-0.205-0.621-0.441-1.233-0.706-1.835l0.087,0.274c-0.807-1.604-1.518-2.689-2.291-3.705c-0.783-1.006-1.643-1.95-3.012-3.016
			c-0.312-0.296-0.627-0.59-0.957-0.868c-1.954-1.44-4.415-2.609-6.936-3.22c-0.189-0.058-0.382-0.117-0.572-0.172
			c0.193,0.062,0.02,0.037-0.266-0.009c-0.245-0.047-0.49-0.097-0.735-0.133c-0.031-0.088-0.565-0.192-1.303-0.272
			c-0.727-0.08-1.648-0.272-2.483-0.305c-0.007-0.001-0.013-0.15-0.02-0.15c-0.003,0-0.006,0-0.009,0c-0.002,0-0.006,0-0.008,0
			c-0.008,0-0.013,0.149-0.02,0.15c-0.836,0.033-1.758,0.151-2.484,0.231c-0.737,0.08-1.271,0.222-1.303,0.311
			c-0.244,0.035-0.49,0.104-0.734,0.15c-0.326,0.054-0.51,0.087-0.155-0.015c-0.229,0.063-0.455,0.14-0.683,0.209
			c-2.521,0.611-4.981,1.783-6.936,3.222c-0.33,0.278-0.646,0.574-0.957,0.87c-1.368,1.065-2.228,2.01-3.012,3.016
			c-0.772,1.016-1.484,2.103-2.29,3.706l0.086-0.274c-0.265,0.602-0.5,1.214-0.705,1.835c-0.548,1.232-0.771,2.152-0.97,3.12
			c-0.184,0.973-0.354,1.999-0.513,3.554c-0.116,1.681,0.024,2.908,0.206,3.825c0.188,0.918,0.422,1.533,0.652,2.031
			c0.457,1.537,1.054,3.474,1.738,4.758c-0.17-0.266-0.334-0.536-0.492-0.811c0.146,0.377,0.305,0.748,0.473,1.117
			c0.526,0.907,0.828,1.371,1.185,1.894c0.364,0.515,0.78,1.099,1.726,2.082c1.243,1.397,1.936,1.825,2.389,2.088
			c0.465,0.251,0.733,0.313,1.41,0.704c0.924,0.716,1.915,1.355,2.961,1.906l-0.052-0.074c1.003,0.311,1.384,0.417,2.097,0.664
			c0.357,0.121,0.801,0.268,1.457,0.441c0.658,0.168,1.532,0.366,2.757,0.493l-0.207-0.163c0.81,0.168,1.404,0.182,2.052,0.157
			c0.108-0.005,0.219-0.011,0.332-0.019c0.113,0.008,0.225,0.014,0.333,0.019c0.647,0.022,1.242,0.011,2.052-0.157l-0.208,0.163
			c1.226-0.127,2.1-0.325,2.758-0.493c0.656-0.175,1.1-0.32,1.457-0.441c0.713-0.247,1.094-0.354,2.098-0.664l-0.053,0.074
			c1.045-0.551,2.037-1.19,2.961-1.906c0.678-0.391,0.945-0.453,1.41-0.704c0.452-0.263,1.146-0.69,2.389-2.088
			c0.945-0.983,1.361-1.567,1.727-2.082c0.355-0.521,0.657-0.985,1.184-1.894c0.168-0.369,0.328-0.74,0.474-1.117
			c-0.158,0.273-0.321,0.545-0.492,0.811c0.687-1.284,1.282-3.221,1.739-4.758c0.229-0.498,0.464-1.113,0.65-2.031
			C48.658,31.047,48.8,29.82,48.684,28.14z M27.928,48.025c-10.642,0-19.299-8.657-19.299-19.298S17.286,9.429,27.928,9.429
			c10.64,0,19.298,8.657,19.298,19.298S38.568,48.025,27.928,48.025z"/>
	</g>
	<path fill="#FFFFFF" d="M20.674,35.354l2.832-4.298h-2.901l-0.755,1.037c-0.23,0.42-0.44,0.963-0.669,0.963h-0.035
		c-0.229,0-0.457-0.49-0.703-0.93l-0.844-1.07h-2.987l2.847,4.421l-2.917,4.578h2.935l0.81-1.623
		c0.21-0.423,0.439-1.377,0.649-1.377h0.053c0.211,0,0.422,0.954,0.668,1.377l0.86,1.623h3.023L20.674,35.354z"/>
	<path fill="#FFFFFF" d="M38.639,37.104c3.125-7.562,1.629-11.943,0.447-13.894c-1.179-1.941-2.998-3.149-4.994-3.311
		c-0.158-0.013-0.324-0.019-0.486-0.019c-2.809,0-5.013,1.919-6.365,3.529l-0.825,0.98c0,0,3.527,3.365,3.945,3.78
		c-0.018,0.003-0.04-0.116-0.069-0.116H18.945c0,0,0,0.171,0,0.108v-11.35l-0.061,0.015c0.242,0.245,0.901,0.947,2.71,2.738
		l0.994,1.014l0.962-1.062c1.771-1.923,4.808-4.217,9.228-4.217c0.109,0,0.217,0.001,0.33,0.003
		c3.156,0.084,5.744,1.338,7.479,3.626c2.122,2.796,2.817,6.994,1.821,10.958C41.641,32.941,39.964,35.473,38.639,37.104z"/>
	<rect x="24.192" y="34.372" fill="#FFFFFF" width="1.305" height="1.306"/>
	<rect x="26.148" y="34.372" fill="#FFFFFF" width="1.307" height="1.306"/>
	<rect x="28.106" y="34.372" fill="#FFFFFF" width="1.306" height="1.306"/>
	<rect x="30.064" y="34.372" fill="#FFFFFF" width="1.306" height="1.306"/>
	<rect x="32.021" y="34.372" fill="#FFFFFF" width="1.305" height="1.306"/>
	<rect x="33.979" y="34.372" fill="#FFFFFF" width="1.306" height="1.306"/>
	<rect x="35.938" y="34.372" fill="#FFFFFF" width="1.305" height="1.306"/>
</g>
</svg>
