<svg xmlns="http://www.w3.org/2000/svg" width="64" height="64" viewBox="0 0 64 64"><path fill="#333" d="M28.838 53.77l-.17-.018a19.612 19.612 0 0 1-2.975-.534c-.7-.186-1.174-.341-1.563-.472-.512-.178-.842-.278-1.355-.436l-.708-.22.124-.396-.327.365a21.777 21.777 0 0 1-3.095-1.98 7.703 7.703 0 0 0-.679-.339c-.198-.091-.385-.175-.611-.298-.712-.412-1.511-.969-2.775-2.389-1.017-1.06-1.478-1.711-1.849-2.234a27.248 27.248 0 0 1-1.258-2.008l-.038-.063-.031-.067a24.377 24.377 0 0 1-.29-.664l-2.084-6.303a18.168 18.168 0 0 1-.101-.451c-.263-1.328-.338-2.709-.232-4.228.173-1.702.358-2.793.534-3.727.201-.976.443-2.019 1.043-3.384.215-.64.461-1.278.734-1.897l.042.016a23.506 23.506 0 0 1 2.341-3.751 17.785 17.785 0 0 1 3.225-3.244c.284-.27.617-.58.971-.878l.077-.061c2.151-1.584 4.787-2.811 7.428-3.458.252-.077.466-.142.683-.202l.114.405c.033-.043.069-.291.106-.329l.004-.472h-.01c-.023 0-.055.208-.093.212.043-.005.109.088.188.075.157-.03.332-.008.512-.036.44-.169.991-.203 1.606-.27.574-.063 1.225-.008 1.854-.025.247-.007.493.044.731.044h1.354l.003-.039c.477.003.958-.017 1.406.032.6.065 1.18.114 1.646.313l.509.088c.05.008.124-.188.171-.181-.046-.005-.082-.213-.107-.213h.053v.661c0 .076.109.162.17.258l.133-.49c.182.052.354.107.535.163l.005.003c2.64.646 5.274 1.874 7.427 3.459l.038.029.036.032c.348.292.672.594.973.878a17.8 17.8 0 0 1 3.213 3.231 23.768 23.768 0 0 1 2.353 3.764l.042-.016c.271.619.52 1.257.732 1.898.602 1.366.842 2.408 1.039 3.359.18.959.365 2.051.534 3.704.11 1.568.034 2.947-.226 4.268a10.495 10.495 0 0 1-.647 2.112s-1.96 6.125-3.481 7.906c-1.522 1.781-.793 1.021-1.522 1.781-1.266 1.42-2.063 1.977-2.737 2.366-.265.146-.451.229-.648.319a7.841 7.841 0 0 0-.68.339 21.882 21.882 0 0 1-3.096 1.981l-.326-.367.123.396-.707.219a31.02 31.02 0 0 0-1.343.432c-.401.136-.875.291-1.565.474-.694.179-1.65.397-2.984.537l-.169.019s-3.589.226-2.163.226c1.423.001-2.167-.224-2.167-.224z" opacity=".3"/><path fill="#FFF" d="M25.838 50.77l-.17-.018a19.612 19.612 0 0 1-2.975-.534c-.7-.186-1.174-.341-1.563-.472-.512-.178-.842-.278-1.355-.436l-.708-.22.124-.396-.327.365a21.777 21.777 0 0 1-3.095-1.98 7.703 7.703 0 0 0-.679-.339c-.198-.091-.385-.175-.611-.298-.712-.412-1.511-.969-2.775-2.389-1.017-1.06-1.478-1.711-1.849-2.234a27.248 27.248 0 0 1-1.258-2.008l-.037-.062-.031-.067a24.377 24.377 0 0 1-.29-.664l-2.084-6.303a18.168 18.168 0 0 1-.101-.451c-.263-1.329-.338-2.709-.232-4.228.173-1.702.358-2.793.534-3.727.201-.976.443-2.019 1.043-3.384.215-.64.461-1.278.734-1.897l.042.016a23.506 23.506 0 0 1 2.341-3.751 17.785 17.785 0 0 1 3.225-3.244c.284-.27.617-.58.971-.878l.077-.061c2.151-1.584 4.787-2.811 7.428-3.458.252-.077.466-.142.683-.202l.114.405c.033-.043.069-.291.106-.329l.004-.472h-.01c-.023 0-.055.208-.093.212.043-.005.109.088.188.075.157-.03.332-.008.512-.036.44-.169.991-.203 1.606-.27.574-.063 1.225-.008 1.854-.025.247-.007.493.044.731.044h1.354l.003-.039c.477.003.959-.017 1.406.032.599.065 1.18.114 1.647.313l.508.088c.05.008.124-.188.171-.181-.046-.005-.082-.213-.106-.213h.051v.661c0 .076.109.162.171.258l.133-.49c.183.052.354.107.535.163l.005.003c2.641.646 5.273 1.874 7.427 3.459l.038.029.036.032c.349.292.672.594.972.878a17.79 17.79 0 0 1 3.215 3.231 23.836 23.836 0 0 1 2.352 3.764l.042-.016c.272.619.519 1.257.733 1.898.601 1.366.842 2.408 1.037 3.359.182.959.366 2.051.535 3.704.11 1.567.034 2.947-.226 4.268a10.495 10.495 0 0 1-.647 2.112s-1.96 6.125-3.482 7.906c-1.521 1.781-.793 1.021-1.521 1.781-1.266 1.42-2.062 1.977-2.736 2.366-.266.146-.453.229-.649.319-.201.091-.394.178-.681.339a21.75 21.75 0 0 1-3.094 1.981l-.326-.367.123.396-.709.219c-.514.157-.844.258-1.342.432-.402.136-.875.291-1.564.474-.695.179-1.651.397-2.985.537l-.169.019s-3.589.226-2.163.226c1.423 0-2.168-.225-2.168-.225z"/><path fill="#4682B5" d="M27.928 9.429c-10.642 0-19.299 8.657-19.299 19.298s8.657 19.298 19.299 19.298c10.64 0 19.298-8.657 19.298-19.298S38.568 9.429 27.928 9.429z"/><g fill="#355E7C"><path d="M32.814 8.924l-.11-.034c.038.011.073.024.11.034zM48.684 28.14a39.596 39.596 0 0 0-.514-3.554c-.199-.968-.421-1.888-.969-3.12a20.523 20.523 0 0 0-.706-1.835l.087.274c-.807-1.604-1.518-2.689-2.291-3.705a16.235 16.235 0 0 0-3.012-3.016 21.89 21.89 0 0 0-.957-.868c-1.954-1.44-4.415-2.609-6.936-3.22a37.624 37.624 0 0 0-.572-.172c.193.062.02.037-.266-.009-.245-.047-.49-.097-.735-.133-.031-.088-.565-.192-1.303-.272-.727-.08-1.648-.272-2.483-.305-.007-.001-.013-.15-.02-.15h-.017c-.008 0-.013.149-.02.15-.836.033-1.758.151-2.484.231-.737.08-1.271.222-1.303.311-.244.035-.49.104-.734.15-.326.054-.51.087-.155-.015-.229.063-.455.14-.683.209-2.521.611-4.981 1.783-6.936 3.222-.33.278-.646.574-.957.87a16.267 16.267 0 0 0-3.012 3.016c-.772 1.016-1.484 2.103-2.29 3.706l.086-.274c-.265.602-.5 1.214-.705 1.835-.548 1.232-.771 2.152-.97 3.12a39.288 39.288 0 0 0-.513 3.554c-.116 1.681.024 2.908.206 3.825.188.918.422 1.533.652 2.031.457 1.537 1.054 3.474 1.738 4.758-.17-.266-.334-.536-.492-.811.146.377.305.748.473 1.117.526.907.828 1.371 1.185 1.894.364.515.78 1.099 1.726 2.082 1.243 1.397 1.936 1.825 2.389 2.088.465.251.733.313 1.41.704a20.224 20.224 0 0 0 2.961 1.906l-.052-.074c1.003.311 1.384.417 2.097.664a18.276 18.276 0 0 0 4.214.934l-.207-.163c.81.168 1.404.182 2.052.157.108-.005.219-.011.332-.019.113.008.225.014.333.019.647.022 1.242.011 2.052-.157l-.208.163a18.269 18.269 0 0 0 4.215-.934c.713-.247 1.094-.354 2.098-.664l-.053.074a20.277 20.277 0 0 0 2.961-1.906c.678-.391.945-.453 1.41-.704.452-.263 1.146-.69 2.389-2.088.945-.983 1.361-1.567 1.727-2.082.355-.521.657-.985 1.184-1.894.168-.369.328-.74.474-1.117-.158.273-.321.545-.492.811.687-1.284 1.282-3.221 1.739-4.758a8.838 8.838 0 0 0 .65-2.031c.181-.918.323-2.145.207-3.825zM27.928 48.025c-10.642 0-19.299-8.657-19.299-19.298S17.286 9.429 27.928 9.429c10.64 0 19.298 8.657 19.298 19.298s-8.658 19.298-19.298 19.298z"/></g><path fill="#FFF" d="M20.674 35.354l2.832-4.298h-2.901l-.755 1.037c-.23.42-.44.963-.669.963h-.035c-.229 0-.457-.49-.703-.93l-.844-1.07h-2.987l2.847 4.421-2.917 4.578h2.935l.81-1.623c.21-.423.439-1.377.649-1.377h.053c.211 0 .422.954.668 1.377l.86 1.623h3.023l-2.866-4.701zM38.639 37.104c3.125-7.562 1.629-11.943.447-13.894-1.179-1.941-2.998-3.149-4.994-3.311a6 6 0 0 0-.486-.019c-2.809 0-5.013 1.919-6.365 3.529l-.825.98s3.527 3.365 3.945 3.78c-.018.003-.04-.116-.069-.116H18.945v.108-11.35l-.061.015c.242.245.901.947 2.71 2.738l.994 1.014.962-1.062c1.771-1.923 4.808-4.217 9.228-4.217l.33.003c3.156.084 5.744 1.338 7.479 3.626 2.122 2.796 2.817 6.994 1.821 10.958-.767 3.055-2.444 5.587-3.769 7.218zM24.192 34.372h1.305v1.306h-1.305zM26.148 34.372h1.307v1.306h-1.307zM28.106 34.372h1.306v1.306h-1.306zM30.064 34.372h1.306v1.306h-1.306z"/><path fill="#FFF" d="M32.021 34.372h1.305v1.306h-1.305zM33.979 34.372h1.306v1.306h-1.306zM35.938 34.372h1.305v1.306h-1.305z"/></svg>