<?xml version="1.0" encoding="utf-8"?>
<!-- Generator: Adobe Illustrator 15.0.0, SVG Export Plug-In . SVG Version: 6.00 Build 0)  -->
<!DOCTYPE svg PUBLIC "-//W3C//DTD SVG 1.1//EN" "http://www.w3.org/Graphics/SVG/1.1/DTD/svg11.dtd">
<svg version="1.1" id="Layer_1" xmlns="http://www.w3.org/2000/svg" xmlns:xlink="http://www.w3.org/1999/xlink" x="0px" y="0px"
	 width="64px" height="64px" viewBox="0 0 64 64" enable-background="new 0 0 64 64" xml:space="preserve">
<g>
	<path fill="#BCC0C4" d="M54.113,46.301c0.014-0.109,0.021-0.301,0.023-0.66l-0.031,0.584L54.113,46.301z"/>
	<path fill="#BCC0C4" d="M54.355,49.495c-0.09,0.676-0.043-1.521-0.129-1.046c0.055,0.328-0.047,1.74,0.073,1.062l-0.024,0.688
		L54.355,49.495z"/>
	<path fill="#BCC0C4" d="M54.355,49.495c0.009-0.062,0.017-0.136,0.025-0.247L54.355,49.495z"/>
	<path fill="#BCC0C4" d="M10.553,11.756c0.081,0,0.136,0.004,0.18,0.01c0.073-0.005,0.144-0.01,0.234-0.01H10.553z"/>
	<path fill="#BCC0C4" d="M55.102,46.07c0.013-0.141,0.02-0.307,0.013-0.514L55.102,46.07z"/>
	<path fill="#BCC0C4" d="M55.034,47.464c-0.054,1.364-0.31,1.04-0.382-0.034c-0.03,1.269,0.199,1.235,0.053,2.521l0.174-0.025
		l-0.074,0.724c0.057-0.215,0.127,0.433,0.215,0.072c-0.207,0.389,0.086-2.634-0.188-1.509c0.203-0.83,0.236-1.849,0.27-3.142
		c-0.043,0.414-0.153,0.619-0.238,0.972L55.034,47.464z"/>
	<path fill="#BCC0C4" d="M16.659,12.237l0.921-0.012C17.086,12.221,16.808,12.226,16.659,12.237z"/>
	<path fill="#BCC0C4" d="M14.278,11.863c1.004,0.079,0.203,0.161,1.378,0.17C15.29,12,15.273,11.883,14.278,11.863z"/>
	<path fill="#BCC0C4" d="M8.277,46.301c-0.039,0.243-0.096,0.178-0.103,0.926c0.035-0.312,0.073-0.571,0.116-0.834L8.277,46.301z"/>
	<path fill="#BCC0C4" d="M8.174,47.243l0.003,0.71c0.018,0.146,0.033,0.221,0.044,0.248C8.224,47.729,8.275,47.171,8.174,47.243z"/>
	<path fill="#BCC0C4" d="M8.267,46.225l0.011,0.076c0.018-0.111,0.03-0.301,0.032-0.66L8.267,46.225z"/>
	<path fill="#BCC0C4" d="M8.01,45.898c0.092-0.375-0.025-0.81-0.025-1.262C7.801,45.837,8.008,44.544,8.01,45.898z"/>
	<path fill="#BCC0C4" d="M14.75,51.343c0.622,0.077-0.952,0.333,1.315,0.23C16.05,51.482,15.442,51.384,14.75,51.343z"/>
	<path fill="#BCC0C4" d="M55.121,44.381L55.1,44.928C55.123,44.833,55.133,44.561,55.121,44.381z"/>
	<path fill="#BCC0C4" d="M55.337,30.892c-0.019,0.08-0.035,0.164-0.05,0.276L55.337,30.892z"/>
	<polygon fill="#BCC0C4" points="55.27,27.83 55.264,27.877 55.361,27.907 	"/>
	<path fill="#BCC0C4" d="M55.637,15.18v-0.003l-0.115-0.102l-0.055,0.1c0.021-0.427,0.021-0.76,0.085-0.269
		c-0.022-0.354,0.079-0.457,0.058-0.524c-0.021-0.083,0.027-0.043,0.027-0.406v-0.014l-0.188-1.776l-0.044-0.414l-0.729-0.044
		L53.27,11.76l-1.066,0.034H52.2l-0.089-0.003l0.089-0.006c-0.269-0.012-0.49-0.011-0.46-0.041c0.029,0.022,0.229,0.05,0.46,0.05
		h0.005l1.049-0.034c-0.459-0.031-0.564-0.077-0.738-0.121c-0.156-0.045-0.285-0.095-0.412-0.142
		c-0.258-0.093-0.524-0.176-1.051-0.197c-2.359-0.094-3.852-0.029-5.225,0.083l1.059,0.03c1.098,0.044,0.963,0.376,2.299,0.455
		c-1.336-0.08-1.201-0.411-2.299-0.455l-1.059-0.03c-1.291,0.104-15.367,0.237-17.07,0.32c1.704-0.092,15.779-0.242,17.07-0.348
		c-3.775-0.078-17.789,0.343-21.589,0.454c-0.258,0.063-0.562-0.015-0.92-0.015h-0.021l-0.545,0.041
		c0.172,0.014,0.283,0.02,0.349,0.037c-0.133-0.003-0.264-0.015-0.412-0.004l0.063,0.002l0.355-0.004
		c0.415,0.111-1.198,0.265,0.292,0.326c-0.171-0.043-0.258-0.063-0.181-0.097c0.588,0.041,1.422,0.093,1.682,0.156
		c-0.865,0.083-1.08-0.096-1.449-0.016c-0.536-0.023-1.101-0.041-1.358-0.08c-0.075,0.072-0.314,0.133-0.59,0.192
		c-0.411-0.083-1.807-0.082-2.247-0.15c-0.005,0.006-0.02,0.013-0.027,0.019l-0.381-0.018l0.138,0.111l-0.172,0.044
		c-0.249-0.006-0.538-0.016-0.674-0.049c0.063,0.034,0.267,0.064,0.465,0.091c-0.107,0.022-0.217,0.042-0.323,0.062
		c-0.399-0.013-0.794-0.029-1.202-0.044c-0.045-0.025-0.102-0.052-0.188-0.079c0.083-0.034,0.05-0.064-0.322-0.085
		c0.021-0.005,0.046-0.01,0.094-0.015l-0.161,0.003l0.05,0.01l-0.274-0.012l0.188,0.148c-0.25-0.01-0.666-0.009-0.837-0.052
		c0.022,0.012,0.064,0.023,0.114,0.034c-0.018,0-0.037-0.002-0.055-0.002l-0.036,0.011c-0.286-0.015-0.572-0.027-0.855-0.054
		c0.06-0.024,0.12-0.277,0.176-0.295l0.147-0.237h-0.14c0.187,0,0.28,0.143-0.213,0.064l-1.34,0.237l0.902,0.21
		c0.052,0.013,0.106,0.056,0.16,0.07c-0.086,0.004-0.189,0.027-0.322,0.035l-0.526-0.007l-0.506-0.015v0.001l0.506,0.018
		c-0.105-0.027-0.139-0.061-0.188-0.096l0.165,0.003l-0.178-0.017c-0.11-0.075-0.283-0.148-1.194-0.169
		c0.249,0.007,0.415-0.001,0.742-0.017l-0.6-0.106l-0.196,0.016l-1.148-0.061l-0.085,0.035l1.158,0.032l-0.444,0.034
		c-1.332-0.005-0.573-0.247-0.935-0.299c-0.335,0.023-0.526,0.08-0.667,0.055c-0.201-0.03-0.19-0.012-0.711-0.039
		c-0.179,0.144-1.328,0.076-1.468,0.139c0.006,0.028,0.016,0.06,0.027,0.067l-0.083,1.125l-0.009-0.292
		c-0.037,0.18-0.06,0.409-0.072,0.671L7.738,13.86l-0.003,0.248c-0.002,0.152,0.002,0.317,0.003,0.485l0.027,0.754
		c0.029,0.028,0.212,0.074,0.212,0.137v0.012c0-0.004,0-0.006,0-0.01c0,0.006,0,0.018,0,0.024c0,0.002,0,0.004,0,0.006
		c0,0.09-0.135,0.166-0.134,0.234L7.75,16.23c0.02-0.088-0.008-0.171-0.007-0.279c-0.001,0.108-0.026,0.192-0.045,0.281l0.029,0.229
		c-0.007,0.046-0.018,0.091-0.024,0.15c0.017,0.013,0.025,0.039,0.036,0.063L7.71,16.86c0.036,0.029,0.059,0.1,0.079,0.189
		l0.005,0.144c0,0.127-0.002,0.245,0.011,0.316l0.012,0.327L7.76,18.315l-0.009-0.178c-0.165,0.484-0.064,1.278-0.105,2.188
		c0.07,3.307-0.008,9.408,0.176,11.732c-0.028,0.168-0.062,0.264-0.1,0.207l0.118,0.15c-0.085,0.249-0.107,0.898-0.13,1.473
		c-0.017,0.023-0.032,0.031-0.051,0.008l0.048,0.062c-0.025,0.604,0.109,1.101,0.001,0.905c0.064,0.324,0.106,0.271,0.133,0.044
		C7.788,35.82,8.077,37.02,7.91,36.72c0.176,0.88-0.459-0.749-0.405-1.659c0.047,0.113,0.08,0.271,0.079,0.442
		c0.054-0.521,0.272-1.151,0.203-1.446c0.007-0.207,0.02-0.373,0.033-0.521c0.01,0.064,0.018,0.135,0.018,0.208
		c0.025-0.235,0.039-0.487,0.041-0.72c0.004-0.027,0.007-0.056,0.012-0.082c0.006,0.082,0.014,0.173,0.02,0.254l-0.073,1.099
		c0.027,0.388-0.146,0.847-0.118,1.326c-0.053,0.438,0.429,0.739,0.454,0.993c-0.031,0.313-0.063,0.725-0.14,0.537
		c0.083,1.236,0.106,0.38,0.193-0.142c0.054,0.336,0.113,0.705,0.09,1.394l-0.023,0.395c-0.024-0.193-0.045-0.316-0.062-0.395
		c0.007-0.15,0.015-0.309,0.015-0.452c-0.18,0.024-0.434,0.565-0.426,1.183c-0.023,0.129-0.054,0.188-0.096,0.082
		c0.042,0.614,0.072,0.725,0.103,0.624c-0.001,0.177-0.005,0.341-0.018,0.486c-0.008,0.093-0.02,0.177-0.033,0.248
		c-0.017,0.093-0.04,0.174-0.07,0.231l-0.01-0.166l-0.114,0.68c0.082,0.24,0.137,0.026,0.18-0.354l0.256,1.323
		c-0.064,0.427-0.046,0.346-0.015,0.354c-0.017,0.238-0.05,0.438-0.113,0.557l-0.012-0.18l-0.126,0.739
		c0.137,0.4,0.204-0.325,0.259-1.11c0.026,0.024,0.056,0.135,0.057,0.623c0.082-0.332-0.263-0.717-0.271-1.11
		c0.026-0.363-0.064-0.681-0.032-0.853c0.025,0.385,0.214,0.92,0.214,1.229v0.007l-0.042,0.903C8,43.988,8.078,45.557,8.195,45.35
		c-0.008-0.041,0.01-0.096-0.001-0.189c0.011,0.095,0.036,0.148,0.045,0.189c0.028,0.127-0.115-0.013-0.101-0.22L7.98,45.127v0.509
		v-0.433v0.89c0,0.101-0.032,0.199-0.048,0.296l0.048,0.336v0.498v0.014c0,0.219,0.118,1.097,0.064,0.964
		c-0.001,0.098-0.073,0.192-0.068,0.276c0.036-0.121,0.004-0.24,0.004-0.355c0,0.025,0,0.056,0,0.079
		c0,0.053,0.01-0.056,0.013-0.214c0-0.008-0.013-0.016-0.013-0.021v0.803c0,0.127,0.139,0.248,0.121,0.364
		c-0.057,0.397-0.018,0.86-0.063,1.44c0.075-0.127,0.122,0.188,0.112,0.611c0.346,0.008,0.795-0.278,1.128-0.295
		c-0.307-0.08-0.555-0.455-0.849-0.455h1.898c0.362,1.287,0.714,0.492,0.995,0.559c-0.03-0.003-0.06,0.146-0.091,0.143
		c0.572,0.071-0.872,0.383,1.206,0.29c-0.007-0.058-0.275-0.08-0.646-0.126c0.003-0.019,0.019-0.019,0.052-0.033
		c1.432-0.072,2.954-0.106,4.514-0.14c0.383,0.099,0.722,0.177,0.888,0.206l0.04,0.005c-0.019-0.019-0.027-0.032-0.023-0.051
		c0.805,0.134,1.618,0.239,2.633,0.196l2.182-0.027c0.644,0.083,1.323,0.133,2.118,0.102c2.259-0.007,18.104-0.119,19.823-0.086
		l-0.082,0.03c0.549-0.036,1.06-0.051,1.545-0.056l0.061,0.037c1.279,0.076,2.115,0.082,3.119,0.107
		c0.048-0.035,0.076-0.072,0.093-0.107c0.626-0.006,1.256-0.032,1.94-0.113l0.295,0.186c1.396,0.082,2.447,0.092,3.541,0.117
		c0.277-0.213-0.182-0.48-0.182-0.747v-0.44c0,0.002-0.076,0.009-0.043,0.012c0.026-0.253-0.039-0.537-0.031-0.934
		c0.006-0.451-0.021-0.984,0.015-1.654l-0.013,1.226l0.078,0.437v-1.42c0,0.021-0.137,0.041-0.136,0.051
		c0-0.158-0.063-0.495-0.062-0.645c0.002,0.148-0.028,0.299-0.028,0.299h-0.021c-0.002,0,0.242,0.357,0.242,0.346v0.277
		c0-0.397-0.021-0.767-0.009-1.217c-0.011-0.053-0.088-0.074-0.097-0.074c0.009,0-0.016,0.021-0.004,0.074l0.002,0.111l-0.026-0.168
		c0.013-0.525,0.005-1.161,0.054-2.079l-0.143,1.267l0.146,0.058c-0.029,0.241,0.076,0.485,0.076,0.774v-0.279
		c0-0.19-0.104-0.375-0.082-0.553l0.062-0.093c-0.017,0.13,0.024,0.175,0.024,0.304v-1.232c0,0.002-0.133-0.002-0.127-0.018
		l0.056-0.189c0-0.059,0.071-0.107,0.071-0.16v-0.57c0-0.099-0.139-0.183-0.137-0.252l-0.066-0.027
		c-0.008,0.188-0.043,0.496-0.037,1.013l0.109,0.19c0.021,0.125,0.133-0.014,0.133-0.219v-0.006v0.508l-0.054-1.17
		c0.015-0.016-0.024,0.027-0.006,0.166l-0.063-0.383l0.004-0.493c0.099-0.106,0.145,0.966,0.046,1.529
		c0.075,1.16,0.067-1.55,0.112-0.203c0.076-2.259-0.088-0.287-0.131-2.013c0.227,1.041,0.274,2.414,0.635,3.148
		c-0.037-1.438,0.16-0.652,0.229-1.84l0.042-1.09l-0.344,1.402c-0.014-0.519,0-0.94,0.023-1.315
		c-0.002-0.007-0.008-0.015-0.01-0.022L54.9,42.73c0.013-0.449,0.031-0.941-0.019-0.934c0.054-0.036,0.033,0.473,0.025,0.934
		c0.081-0.763,0.185-1.418,0.141-2.584l-0.028-0.06c-0.027,0.737-0.08,1.361-0.207,1.896c-0.004,0.02-0.006,0.024-0.012,0.041
		c0.135-0.545,0.188-1.185,0.219-1.938c-0.037-0.068-0.067-0.09-0.094-0.08c0.027-0.01,0.057,0.014,0.094,0.08l0.028-0.943
		c-0.034,0.383-0.137,0.567-0.216,0.889l0.025,0.062l0,0v0.004c-0.078,0.17-0.129,0.433-0.284-0.515
		c0.002-0.576,0.026-0.873,0.061-1.022c0.06,0.273,0.132,0.521,0.229,0.722l-0.004-0.327c0.223-0.35,0.133-0.389,0.416-1.55
		c-0.058-0.382-0.129,0.089-0.209,0.571c0.009-0.113,0.013-0.268,0.004-0.381l-0.019,0.518c-0.057,0.336-0.12,0.729-0.188,0.729
		c-0.002,0-0.006,0-0.008,0c0.026-1.287,0.16-0.309,0.211-1.193l0.043-1.027l-0.062,0.242l0.006-0.145l-0.144,0.559
		c-0.003-1.354,0.159-1.56,0.276-1.125c-0.053-2.068,0.263-1.303,0.098-2.903c-0.081,0.552-0.229,0.933-0.251,1.479l0.01-0.726
		L55,34.164l-0.008-0.457c-0.021-0.049-0.036-0.08-0.055-0.1c0.074-0.644,0.334,0.457,0.283-1.708
		c-0.011,0.725-0.104,0.194-0.175,0.024l0.032-0.213l0.119-0.519c-0.014-0.081-0.025-0.121-0.038-0.13
		c0.075-0.715,0.118-1.354,0.274-1.181c0.021,0.612-0.041,0.771-0.098,1.009c0.029-0.085,0.064-0.102,0.102-0.105
		c0.086-1.766-0.227-1.376-0.197-2.447c0.013-0.085,0.018-0.181,0.016-0.311l0.01-0.15L55.25,27.87
		c-0.007-0.133-0.02-0.292-0.038-0.493l-0.045,0.257c0.063-0.886,0.076-4.866,0.086-5.583l0.011-0.053
		c0.026-0.082,0.059-0.094,0.088-0.099c0.039-0.752-0.002-1.075-0.056-1.305c0.017-0.317,0.039-0.638,0.077-0.971l-0.184-0.326
		l0.006-0.065l-0.049-0.014l-0.008-0.015c0.203-0.305,0.344-1.219,0.439-2.133L55.637,15.18z M54.134,43.602l-0.007,0.03
		l-0.033-0.042l0.053-0.312l-0.015,0.299L54.134,43.602z M21.763,12.762c0.207,0.112,0.388,0.195,1.255,0.28h-0.004
		C22.149,12.957,21.969,12.874,21.763,12.762z M23.471,12.611c0.298,0.023,0.286,0.067,0.211,0.12
		c-0.359-0.021-0.415-0.05-0.236-0.103C23.431,12.621,23.442,12.615,23.471,12.611z M26.497,12.71
		c0.264,0.021,0.353,0.051,0.308,0.095C26.381,12.79,26.405,12.754,26.497,12.71z M25.905,12.055
		c-0.015,0.021,0.03,0.04,0.176,0.057C25.93,12.095,25.886,12.075,25.905,12.055z M26.377,12.066c0,0.023,0.087,0.045,0.226,0.079
		c-0.001,0-0.001,0-0.002,0C26.463,12.111,26.375,12.089,26.377,12.066z M8.236,12.139c0.001,0,0.002,0,0.003,0
		c-0.001,0.001-0.002,0.002-0.003,0.003C8.236,12.142,8.236,12.14,8.236,12.139z M25.837,13.081h-0.263
		C25.672,13.081,25.757,13.081,25.837,13.081z M54.261,39.906c0.007-0.077,0.013-0.127,0.019-0.167c0,0,0,0,0,0.002
		C54.271,39.781,54.268,39.832,54.261,39.906c0,0.136,0.003,0.26,0.003,0.373c0,0.002,0,0.008,0,0.01
		C54.264,40.174,54.261,40.051,54.261,39.906z M27.254,11.78c0.062-0.005,0.125-0.008,0.183-0.018
		C27.377,11.77,27.317,11.777,27.254,11.78z M26.361,11.882c-0.007-0.029-0.123-0.059-0.448-0.086l0.13-0.002
		C26.302,11.822,26.382,11.851,26.361,11.882z M25.22,12.791c0.494-0.032,0.822-0.054,0.815-0.108
		c0.051,0.002,0.092,0.004,0.137,0.006l-0.176,0.092h-0.2c-0.098,0.028-0.057,0.052,0.061,0.072l-0.622-0.036l-0.289-0.148
		c-0.493,0.023-0.821,0.039-0.813,0.078c-0.04-0.001-0.072-0.122-0.109-0.123l0.149-0.227h0.124c0.028,0,0.057,0.005,0.065,0.007
		c-0.009-0.002-0.027-0.007-0.04-0.007h0.05c0.097,0,0.057,0.045-0.061,0.017l0.622,0.109C25.029,12.588,25.103,12.714,25.22,12.791
		z M23.372,12.604c-0.324,0-0.681,0.002-1.005,0l-0.42-0.103c0.411,0.009,0.792,0.041,1.156,0.072l-0.14,0.021
		C23.136,12.596,23.267,12.599,23.372,12.604z M21.892,12.596c-0.076-0.002-0.143-0.008-0.208-0.011
		c0.004-0.002,0.009-0.004,0.013-0.006L21.892,12.596z M9.431,12.114c-0.024,0.007-0.054,0.017-0.077,0.025H9.342
		c0.018-0.007,0.044-0.017,0.069-0.024c0.044-0.016,0.064-0.03-0.014-0.043l0.05,0.001C9.504,12.085,9.474,12.098,9.431,12.114z
		 M8.037,12.704c-0.005,0.126-0.01,0.263-0.015,0.425c0.026,0.14,0.043,0.194,0.059,0.183c-0.016,0.012-0.035-0.041-0.061-0.183
		l-0.001,0.094c-0.002-0.065-0.007-0.128-0.007-0.199c0-0.013,0-0.027,0-0.04c0-0.121,0.004-0.256,0.011-0.399
		C8.028,12.625,8.032,12.666,8.037,12.704z M8.3,43.579l0.021-0.283l0.002-0.019L8.3,43.579L8.303,43.6v0.006L8.3,43.579z
		 M51.95,11.663c-0.058,0.008-0.103,0.016-0.138,0.022c-0.463,0.036-0.273,0.055-0.619,0.128
		C51.57,11.735,51.302,11.707,51.95,11.663z M25.959,11.784c0.013,0.001,0.024,0.002,0.036,0.004c-0.047,0.001-0.087-0.002-0.138,0
		l-0.027-0.002C25.877,11.783,25.913,11.787,25.959,11.784z M20.617,12.49c-0.53,0.004-1.018,0-1.484-0.009
		c0.151-0.06,0.421-0.118,1.292-0.199C20.704,12.351,20.804,12.42,20.617,12.49z M13.134,12.271
		c-0.053-0.009-0.143-0.022-0.277-0.04l0,0c0.135,0.017,0.227,0.03,0.28,0.04H13.134z M11.047,12.177L11.047,12.177
		c-0.236-0.011-0.436-0.028-0.547-0.059h0.001C10.611,12.148,10.812,12.166,11.047,12.177z M8.019,12.558
		c-0.004,0.039-0.01,0.072-0.015,0.11c-0.002-0.12-0.006-0.252-0.012-0.405C7.996,12.375,8.008,12.465,8.019,12.558z M8.224,35.989
		c0.006,0.101,0.013,0.202,0.02,0.3c-0.005,0.005-0.011,0.008-0.015,0.021c-0.004,0.002-0.006,0.006-0.01,0.01
		C8.216,36.236,8.221,36.118,8.224,35.989z M54.066,47.264c0-0.002-0.002-0.006-0.002-0.007v-0.014
		C54.064,47.232,54.064,47.243,54.066,47.264z M54.163,42.98l-0.084,0.476l-0.056-0.413c0-0.376,0.043-0.771,0.043-1.161v0.144
		h0.041c0.018,0,0.05-0.404,0.056-0.573c0.009,0.046,0.026,0.054,0.042,0.088c-0.012-0.069-0.008-0.142-0.014-0.2
		c0.014-0.003,0.026,0,0.037,0.027C54.214,41.902,54.189,42.453,54.163,42.98z M54.775,43.307c0.004,0,0.009-0.004,0.013,0
		c-0.004,0.006-0.011,0.018-0.015,0.035L54.775,43.307z M54.828,41.247c-0.012-0.001-0.021-0.009-0.031-0.024
		C54.807,41.238,54.816,41.246,54.828,41.247z M54.76,39.004l-0.049-0.613c0.027-0.02,0.057-0.019,0.08-0.039l0.008,0.023
		l0.016,0.355c0.004,0.002,0.008,0,0.011,0l-0.003,0.239L54.76,39.004z M54.745,32.662l-0.035-0.576
		c0.033-0.01,0.063-0.009,0.084-0.086v0.083l-0.008,0.51C54.773,32.616,54.76,32.637,54.745,32.662z"/>
	<g>
		<rect x="9.266" y="13.081" fill="#FFFFFF" width="45.082" height="37.354"/>
		<g>
			<g>
				<g>
					<path fill="#FFFFFF" d="M52.498,43.307l-0.009,0.082l-0.009,0.293c0.115,0.338,0.084,1.014,0.054,1.905
						c0.034,0,0.069-0.078,0.088,0.239c-0.071,1.417,0,0.708,0.067,1.73c0-0.313-0.008-0.711,0.026-0.867l0.033,1.968
						c0.067-0.271,0.142-0.493,0.196-0.164c0.136-0.2,0.299,0.45,0.441,0.692c0.02-0.353,0.037-0.633,0.055-0.764
						c0.059,0.045,0.084,0.383,0.093,0.795c0.015-0.029,0.03-0.066,0.044-0.13c-0.014,0.062-0.029,0.099-0.044,0.13l0.004,0.858
						c0.017-0.159,0.034-0.317,0.06-0.24v-1.183c0.016-0.036,0.026,0,0.034,0.072l-0.034-0.304l-0.031,0.233
						c-0.027,0.08-0.045-0.077-0.062-0.233c-0.011-0.313,0.017-0.397,0.033-0.554l-0.062-0.629
						c-0.105-0.237-0.062,1.656-0.158,0.629l0.027-0.312c-0.027-0.473-0.027-1.101-0.098-1.418c0.125-0.474-0.098-1.339,0.07-1.419
						c0.08-1.81-0.053-4.172,0.125-5.983c-0.116-0.313-0.336-0.313-0.476-1.101c0.019-0.155,0.037-0.396,0.062-0.315l-0.062-0.549
						c0,0.312,0.011,0.709-0.034,0.864c-0.054-0.864-0.099,0.396-0.158,0.316l-0.062-1.183l-0.022,0.142l-0.202,6.338L52.498,43.307
						z"/>
					<path fill="#FFFFFF" d="M47.607,12.548l0.022,0.131c-5.528,0.102-11.646,0.121-18.112,0.098L8.575,12.635L8.48,26.544
						l-0.02,13.09l-0.489-0.545l0.24,5.435l0.109,2.779l0.112,3.648l2.769-0.082l1.871-0.086l3.568-0.194l-2.167-0.085
						c1.985-0.271,7.057-0.445,10.184-0.385l-0.309,0.131c-4.287,0.07,0.292,0.039-1.445,0.391l-0.745,0.066l0.436,0.061
						l0.745-0.063c-0.083,0.073-0.019,0.169-0.723,0.194l0.994,0.015c2.137,0.349,2.142,0.647,1.874,1.036
						c0.56-0.047-0.023-0.43,2.36-0.303l-0.312,0.129l2.607-0.229l1.162,0.168c0.93-0.08,1.53-0.168,2.483-0.118l0.289-0.256
						c4.267,0.096,9.649-0.204,13.978-0.014c0.951-0.249,3.273,0.081,5.693-0.131l-1.039-0.275
						c-2.612-0.372-8.721-0.178-12.947-0.311l0.166-0.146c0.887-0.041,1.529-0.164,2.627-0.092l0.289-0.258
						c-1.852-0.906-7.619,0.193-9.152,0.062c-3.253-0.251,2.125-0.552,0.571-0.516c3.581-0.347-2.987-0.642-4.502-0.94
						c-2.106-0.3-5.471-0.375-9.007-0.371l-9.597,0.09c-0.074,0.029-0.17,0.062-0.284,0.086c-0.031-0.075-0.057-0.185-0.08-0.314
						c-0.003-0.027-0.006-0.002-0.008-0.08l-0.008-0.221l-0.015-0.446l-0.025-0.896l-0.054-3.685
						c-0.013-2.493,0.014-5.053,0.057-7.581c0.084-5.055,0.23-9.995,0.224-14.079c0.021-1.113-0.036-2.409-0.113-3.76l-0.124-2.052
						l-0.115-0.736c0.156-0.027,0.337-0.047,0.522-0.057l0.608-0.006l0.737,0.014c0.951,0.031,1.77,0.122,2.377,0.306l7.727,0.162
						l-0.165,0.146c7.519,0.048,15.818-0.306,22.836-0.416c3.066-0.032,3.995-0.412,5.387,0l0.764,0.03l0.385,0.011l0.115,0.011
						c0.111,0.011,0.214,0.02,0.318,0.022l0.049,2.545l0.131,4.124c0.101,2.741,0.211,5.437,0.229,7.914
						c0.134-0.021,0.271,0.805,0.343-0.293c-0.164-3.042,0.166-6.546,0.522-6.653l-0.034,1.139l0.291-2.032l-0.113-1.306
						c0.088-0.333,0.157-0.483,0.215-0.505c0.062-1.112,0.174-2.15,0.293-3.2c0.062-0.559,0.125-0.975,0.188-1.667l0.177-2.347
						l-0.057-0.003l-1.813,0.048l-1.631,0.017C50.008,12.674,48.896,12.635,47.607,12.548z"/>
				</g>
			</g>
		</g>
	</g>
	<path fill="#BCC0C4" d="M55.055,38.671l-0.012,0.474C55.055,39.016,55.061,38.863,55.055,38.671z"/>
	<path fill="#BCC0C4" d="M54.971,43.409c-0.078,0.147-0.078-0.241-0.068-0.679l-0.059,0.649
		C54.881,43.477,54.924,43.604,54.971,43.409z"/>
	<path fill="#BCC0C4" d="M12.085,11.93c0.922,0.072,0.187,0.148,1.265,0.157C13.017,12.055,13,11.949,12.085,11.93z"/>
	<polygon fill="#BCC0C4" points="8.171,47.243 8.172,47.243 8.174,47.227 	"/>
	<polygon fill="#BCC0C4" points="55.198,19.188 55.195,19.233 55.284,19.258 	"/>
</g>
<g id="Layer_2">
	<g>
		<g>
			<g>
				<rect x="11.528" y="15.657" fill="#A1F6FF" width="39.929" height="24.474"/>
			</g>
			<g>
				<path fill="none" d="M48.373,15.967c-0.01-0.07-0.553-0.15-1.172-0.182C47.756,15.844,46.355,16.047,48.373,15.967z"/>
				<path fill="none" d="M19.63,15.697l0.842-0.038c-0.688-0.072-1.949-0.124-2.525-0.197C16.987,15.58,20.241,15.523,19.63,15.697z
					"/>
				<path fill="none" d="M11.162,29.847c0.057,0.1,0.112-0.01,0.168-0.266l-0.053-0.563C11.229,29.149,11.196,29.503,11.162,29.847z
					"/>
				<polygon fill="none" points="26.54,15.744 26.926,15.764 27.033,15.747 				"/>
				<path fill="none" d="M21.776,15.614l0.332-0.014l-0.182-0.054C21.742,15.57,21.725,15.592,21.776,15.614z"/>
				<path fill="none" d="M11.105,22.422l-0.046,0.214c0.012,0.116,0.023,0.183,0.033,0.215L11.105,22.422z"/>
				<path fill="none" d="M27.919,15.797l-0.099,0.029l0.446,0.02C28.186,15.827,28.062,15.812,27.919,15.797z"/>
				<path fill="none" d="M11.233,23.22l-0.048-0.233l-0.016,0.479C11.189,23.42,11.211,23.322,11.233,23.22z"/>
				<path fill="none" d="M28.927,15.873c-0.171-0.015-0.318-0.036-0.409-0.063l-0.062,0.043L28.927,15.873z"/>
				<path fill="none" d="M11.048,21.4l-0.002,0.017l-0.003,0.434c0.052-0.193,0.099-0.468,0.145-0.774
					C11.134,21.205,11.09,21.226,11.048,21.4z"/>
				<path fill="none" d="M33.303,15.693c0.135,0.026,0.373,0.047,0.568,0.069l0.707,0.043c-0.113-0.027-0.188-0.062-0.197-0.119
					l0.434,0.012l-0.75-0.116c-0.146-0.002-0.291,0-0.438,0.009C33.32,15.634,33.234,15.666,33.303,15.693z"/>
				<path fill="none" d="M33.203,15.657c0.057-0.007,0.104-0.021,0.131-0.04l-0.104,0.012C33.203,15.639,33.197,15.65,33.203,15.657
					z"/>
				<path fill="none" d="M30.158,15.366l-0.385,0.091c0.477-0.017,0.718-0.057,1.022-0.093
					C30.663,15.357,30.455,15.357,30.158,15.366z"/>
				<path fill="none" d="M11.194,17.142l-0.013-0.036l-0.076,1.098c0.028-0.115,0.066-0.161,0.12-0.102l0.02-0.247l0.017-1.396
					l-0.008-0.121c-0.026,0.168-0.048,0.431-0.068,0.702L11.194,17.142z"/>
				<path fill="none" d="M13.355,15.245l0.367,0.08C13.885,15.294,13.988,15.259,13.355,15.245z"/>
				<path fill="none" d="M13.94,15.371l-0.218-0.047C13.528,15.359,13.245,15.387,13.94,15.371z"/>
				<path fill="none" d="M12.518,15.739c0.096-0.012,0.205-0.021,0.331-0.022l-0.384-0.003
					C12.502,15.719,12.516,15.729,12.518,15.739z"/>
				<polygon fill="none" points="11.296,18.005 11.28,18.179 11.295,18.074 				"/>
				<path fill="none" d="M25.824,39.588c-0.032,0.027-0.025,0.047,0.001,0.066l0.952,0.019l-0.052-0.007
					C26.512,39.62,26.371,39.572,25.824,39.588z"/>
				<polygon fill="none" points="11.04,19.219 11.04,19.231 11.036,19.632 11.039,19.623 				"/>
				<path fill="#A1F6FF" d="M46.482,39.794l0.5,0.013C46.844,39.794,46.684,39.786,46.482,39.794z"/>
				<path fill="#A1F6FF" d="M48.301,40.188c1.232,0.026,1.199-0.172,2.445-0.045l-0.021-0.146l0.699,0.062
					c-0.209-0.05,0.42-0.106,0.07-0.186c0.379,0.178-2.557-0.074-1.463,0.161c-0.809-0.175-1.799-0.2-3.055-0.229
					c0.4,0.033,0.604,0.133,0.938,0.202l0.416-0.147C49.66,39.906,49.344,40.126,48.301,40.188z"/>
				<polygon fill="#A1F6FF" points="11.007,21.999 11.043,21.851 11.046,21.417 				"/>
				<path fill="#A1F6FF" d="M11.281,19.228l-0.011,0.885l0.062-0.741C11.315,19.354,11.3,19.296,11.281,19.228z"/>
				<polygon fill="#A1F6FF" points="11.268,16.233 11.255,16.336 11.264,16.458 				"/>
				<path fill="#A1F6FF" d="M11.286,15.89l0.123,0.241c0.02-0.057,0.042-0.101,0.067-0.134c-0.034-0.066-0.072-0.224-0.105-0.153
					l0.001-0.097l0.366,0.007l-0.176-0.077l-0.273-0.011L11.286,15.89z"/>
				<polygon fill="#A1F6FF" points="11.377,19.395 11.388,19.255 11.373,19.315 				"/>
				<path fill="#A1F6FF" d="M11.247,17.855l-0.02,0.247c-0.054-0.059-0.091-0.014-0.12,0.102L11.04,19.22l-0.001,0.403
					c0.083-0.329,0.159-0.88,0.241-1.441l0.016-0.176l-0.001,0.069l0.031-0.209l0.083,1.059l0.075-1.127l-0.17-0.322l0.006-0.37
					l-0.077,0.933L11.247,17.855z"/>
				<path fill="#A1F6FF" d="M11.446,15.629l-0.197-0.074l-0.063,0.006l0.044,0.492c0.015-0.15,0.023-0.29,0.026-0.423L11.446,15.629
					L11.446,15.629z"/>
				<polygon fill="#A1F6FF" points="11.046,21.402 11.046,21.417 11.048,21.4 				"/>
				<path fill="#A1F6FF" d="M11.094,20.158l-0.053,0.238l0.004,0.625C11.066,20.854,11.083,20.638,11.094,20.158z"/>
				<path fill="#A1F6FF" d="M11.538,15.932c-0.024,0.017-0.042,0.041-0.063,0.066C11.501,16.046,11.523,16.053,11.538,15.932z"/>
				<path fill="#A1F6FF" d="M11.293,20.656c-0.039,0.227-0.075,0.341-0.107,0.419c-0.046,0.306-0.092,0.581-0.144,0.774
					c-0.006,0.434-0.022,0.826-0.055,1.116l0.068-0.312l-0.002-0.076l0.006,0.059l0.046-0.214l-0.014,0.429
					c0.038,0.123,0.071-0.282,0.113-0.565c0.013-0.347,0.028-0.689,0.057-1.03l0.051,0.17l-0.006-0.677
					C11.303,20.703,11.299,20.676,11.293,20.656z"/>
				<path fill="#A1F6FF" d="M11.305,20.606l0.002,0.143c0.008,0.115,0.012,0.333,0.009,0.684c0.05,0.18,0.079,0.271,0.146-0.208
					l-0.102-1.301L11.23,20.8c0.026-0.118,0.049-0.208,0.064-0.143L11.305,20.606z"/>
				<path fill="#A1F6FF" d="M11.168,23.466l0.015-0.479c-0.046-0.216-0.084-0.302-0.091,0.632l-0.019-0.471
					c-0.027,0.354-0.063,0.449-0.088,0.921c0.006-0.008,0.014-0.015,0.02-0.013c0.075-0.56,0.146-0.414,0.247-0.768l-0.021-0.07
					C11.211,23.322,11.189,23.42,11.168,23.466z"/>
				<path fill="#A1F6FF" d="M11.338,23.068l0.01,0.896C11.352,23.483,11.348,23.212,11.338,23.068z"/>
				<path fill="#A1F6FF" d="M11.338,23.068l-0.002-0.157l-0.01,0.048v0.018C11.33,22.997,11.335,23.021,11.338,23.068z"/>
				<path fill="#A1F6FF" d="M11.104,26.196c0.002-0.394,0.011-0.614,0.023-0.731l-0.054-0.135L11.104,26.196z"/>
				<path fill="#A1F6FF" d="M11.354,25.56l0.016-0.371l-0.095,0.134C11.3,25.428,11.326,25.511,11.354,25.56z"/>
				<path fill="#A1F6FF" d="M11.28,24.503c-0.031,0.062-0.055,0.258-0.08,0.452l0.037,0.203
					C11.243,24.915,11.25,24.635,11.28,24.503z"/>
				<path fill="#A1F6FF" d="M11.043,16.8c-0.071,0.285-0.126,0.747-0.087-0.317l-0.022-0.115c-0.016,0.045-0.032,0.084-0.054,0.11
					c0.002,0.271,0.012,0.625-0.044,0.546c0.09,0.25,0.14,0.68,0.032,1.4c0.157-0.188,0.14-0.965,0.165-1.333L11.043,16.8z"/>
				<polygon fill="#A1F6FF" points="11.186,17.039 11.182,17.106 11.194,17.142 				"/>
				<path fill="#A1F6FF" d="M10.88,16.456l0.027-0.208C10.882,16.156,10.879,16.278,10.88,16.456z"/>
				<path fill="#A1F6FF" d="M12.381,15.374l-0.235-0.051C11.945,15.361,11.656,15.392,12.381,15.374z"/>
				<path fill="#A1F6FF" d="M11.722,15.236l0.424,0.086C12.316,15.29,12.448,15.254,11.722,15.236z"/>
				<path fill="#A1F6FF" d="M11.408,15.437l0.174-0.011l-0.619-0.089l-0.001,0.01c0.001,0,0.002-0.002,0.004-0.006
					C11.042,15.363,11.289,15.398,11.408,15.437z"/>
				<path fill="#A1F6FF" d="M11.02,15.504l0.071,0.056l-0.006-0.1l0.178-0.013c-0.018-0.027-0.107-0.038-0.237-0.046L11.02,15.504z"
					/>
				<path fill="#A1F6FF" d="M11.512,22.094c0.029-0.354,0.129-0.372,0.146-1.339C11.591,21.729,11.521,20.951,11.512,22.094z"/>
				<polygon fill="#A1F6FF" points="11.574,17.609 11.544,17.525 11.506,19.025 				"/>
				<path fill="#A1F6FF" d="M20.001,15.826c0.059-0.029,0.01-0.054-0.088-0.078C19.815,15.771,19.815,15.797,20.001,15.826z"/>
				<path fill="#A1F6FF" d="M18.357,15.421c-0.249-0.021-0.363-0.017-0.429-0.004l0.197,0.026L18.357,15.421z"/>
				<path fill="#A1F6FF" d="M21.776,15.614c-0.051-0.022-0.034-0.044,0.149-0.069l-0.023-0.008
					c-0.383,0.012-0.894-0.021-1.087-0.055l0.468,0.141l-0.664,0.029c-0.012,0.004-0.015,0.009-0.031,0.014L21.776,15.614z"/>
				<path fill="#A1F6FF" d="M19.63,15.697c0.61-0.173-2.644-0.116-1.683-0.234l-0.107-0.016c-0.055,0.027-0.106,0.062-0.346,0.076
					l-1.073-0.137c-0.051,0.155,2.907,0.222,3.492,0.364c0.148-0.034,0.521-0.054,0.844-0.053l-0.284-0.038L19.63,15.697z"/>
				<path fill="#A1F6FF" d="M20.937,15.702c0.208,0.008,0.365,0.031,0.372,0.071c0.538-0.011,0.75-0.027,0.805-0.046
					C22.032,15.647,21.264,15.656,20.937,15.702z"/>
				<path fill="#A1F6FF" d="M20.815,15.483l-0.084-0.028C20.733,15.466,20.769,15.473,20.815,15.483z"/>
				<path fill="#A1F6FF" d="M20.3,15.359c0.122-0.027,0.157-0.046,0.061-0.031l-0.43,0.014C20.039,15.354,20.164,15.359,20.3,15.359
					z"/>
				<path fill="#A1F6FF" d="M19.42,15.416l-0.271,0.025l0.093,0.03c0.307,0.003,0.599-0.03,0.819-0.066l-0.187-0.059
					c-0.433,0.018-0.829,0.035-1.094-0.023l0.269,0.086C19.114,15.398,19.215,15.397,19.42,15.416z"/>
				<path fill="#A1F6FF" d="M12.728,15.966c-0.212-0.003-0.367-0.007-0.342-0.016L12.728,15.966l1.057-0.015L12.88,15.8
					c0.174,0.012,0.314,0.012,0.441,0.005c-0.122-0.022-0.196-0.046-0.182-0.076l0.265,0.009l-0.335-0.022l-0.221-0.002
					c-0.126,0.002-0.235,0.01-0.331,0.022c0,0.024-0.104,0.048-0.151,0.071l0.203,0.057c-0.241-0.015-0.25-0.035-0.203-0.057
					l-0.12-0.031c-0.199,0.047-0.296,0.101-0.601,0.066c0.33,0.074,0.426,0.125,0.643,0.175l1.187,0.168
					c0.098-0.103,0.536-0.111,0.993-0.134l-0.603-0.087C13.823,16.056,13.2,15.998,12.728,15.966z"/>
				<path fill="#A1F6FF" d="M12.728,15.966c0.472,0.03,1.097,0.09,1.137-0.002l-0.069-0.01L12.728,15.966z"/>
				<polygon fill="#A1F6FF" points="13.795,15.954 13.785,15.953 12.728,15.966 				"/>
				<path fill="#A1F6FF" d="M12.386,15.951c-0.025,0.009,0.13,0.015,0.341,0.016L12.386,15.951z"/>
				<path fill="#A1F6FF" d="M21.054,15.813c1.414,0.066-0.682,0.14,0.9,0.146C22.203,15.872,21.755,15.822,21.054,15.813z"/>
				<polygon fill="#A1F6FF" points="38.416,15.739 38.59,15.729 37.773,15.55 37.6,15.561 				"/>
				<path fill="#A1F6FF" d="M26.503,15.593c-0.123-0.02-0.219-0.042-0.273-0.062c-0.393-0.077,0.436-0.257-0.937-0.133
					C25.895,15.483,25.392,15.586,26.503,15.593z"/>
				<path fill="#A1F6FF" d="M28.024,15.463c-0.574,0.02-0.286,0.121,0.182,0.181l0.306-0.006
					C28.25,15.591,28.528,15.503,28.024,15.463z"/>
				<polygon fill="#A1F6FF" points="37.221,15.344 36.852,15.351 36.994,15.359 				"/>
				<path fill="#A1F6FF" d="M40.414,15.626c0.234,0.033,0.174,0.081,0.898,0.089l-0.811-0.101L40.414,15.626z"/>
				<path fill="#A1F6FF" d="M41.332,15.714l0.688-0.002c0.141-0.016,0.215-0.028,0.242-0.038
					C41.803,15.671,41.26,15.627,41.332,15.714z"/>
				<polygon fill="#A1F6FF" points="41.457,15.494 41.293,15.516 41.35,15.517 				"/>
				<path fill="#A1F6FF" d="M39.771,15.599l0.564,0.037l0.076-0.009C40.307,15.611,40.121,15.601,39.771,15.599z"/>
				<path fill="#A1F6FF" d="M33.533,15.888c0.594-0.035,0.705-0.062,0.611-0.088l-0.693,0.005
					C33.576,15.826,33.637,15.852,33.533,15.888z"/>
				<path fill="#A1F6FF" d="M33.871,15.762c-0.193-0.022-0.434-0.043-0.566-0.069C33.371,15.72,33.588,15.742,33.871,15.762z"/>
				<path fill="#A1F6FF" d="M31.248,15.601c-0.078,0.027,0.002,0.05,0.141,0.069c0.326-0.046,0.686-0.097,1.353-0.078
					C32.269,15.563,31.731,15.524,31.248,15.601z"/>
				<path fill="#A1F6FF" d="M34.854,15.843c-0.07-0.012-0.15-0.022-0.24-0.028C34.684,15.827,34.766,15.836,34.854,15.843z"/>
				<path fill="#A1F6FF" d="M35.574,15.483l1.674,0.087c0.32,0.003,0.492,0.013,0.59,0.027l0.586-0.075L37.949,15.5
					c-0.104-0.118,0.939-0.18,1.48-0.063c1.127-0.091-1.506-0.086-0.199-0.137c-2.473-0.105,0.291,0.158-2.781,0.165
					c-0.434-0.043-0.289-0.074-0.002-0.094C35.982,15.354,35.504,15.403,35.574,15.483z"/>
				<path fill="#A1F6FF" d="M33.896,15.558l-0.27,0.035c0.145-0.009,0.291-0.011,0.438-0.009L33.896,15.558z"/>
				<path fill="#A1F6FF" d="M37.408,15.96l-0.174,0.009l0.717,0.108c0.389-0.118-0.314-0.175-1.08-0.224l-0.004,0.007
					C37.1,15.876,37.291,15.905,37.408,15.96z"/>
				<path fill="#A1F6FF" d="M39.283,15.6h-0.002h0.49l-1.137-0.066C38.662,15.569,39.023,15.583,39.283,15.6z"/>
				<path fill="#A1F6FF" d="M35.301,15.774L34.814,15.7l-0.436-0.012c0.01,0.055,0.084,0.093,0.197,0.119l0.658,0.049l1.285-0.006
					l-0.166-0.021l0.043-0.001c-0.354-0.021-0.66-0.043-0.828-0.07L35.301,15.774z"/>
				<path fill="#A1F6FF" d="M30.797,15.365l0.144-0.015c-0.21-0.01-0.462-0.013-0.698-0.003l-0.084,0.021
					C30.455,15.357,30.663,15.357,30.797,15.365z"/>
				<path fill="#A1F6FF" d="M32.008,15.384l0.461-0.109c-0.553-0.006-0.653,0.01-0.648,0.035l0.102-0.001
					C31.833,15.356,31.883,15.377,32.008,15.384z"/>
				<path fill="#A1F6FF" d="M37.836,15.597l-0.066,0.009l-0.521-0.035h-0.449c0.338,0.055,0.236,0.089-0.025,0.113l0.877,0.136
					c0.523-0.054,2.051-0.071,1.85-0.171l-0.188,0.025C37.932,15.696,38.107,15.634,37.836,15.597z"/>
				<path fill="#A1F6FF" d="M33.129,15.436l0.121-0.033c0.211-0.077,0.4-0.068,0.672-0.056c0.01-0.01,0.021-0.021,0.049-0.035
					c-0.703,0.001-1.049,0.039-1.365,0.078C32.811,15.391,33.01,15.401,33.129,15.436z"/>
				<path fill="#A1F6FF" d="M33.203,15.657c-0.004-0.008,0-0.018,0.027-0.027l0.104-0.012l0.008-0.004l-0.215-0.002
					c-0.189,0.021-0.311,0.039-0.387,0.054C32.918,15.673,33.084,15.676,33.203,15.657z"/>
				<path fill="#A1F6FF" d="M34.201,15.449l0.982-0.019c-0.34-0.054-0.977-0.012-1.193-0.042
					C33.92,15.403,33.947,15.424,34.201,15.449z"/>
				<path fill="#A1F6FF" d="M35.676,15.354c-0.088,0.009-0.172,0.027-0.262,0.06C35.598,15.396,35.658,15.376,35.676,15.354z"/>
				<path fill="#A1F6FF" d="M29.995,15.364l-0.141,0.016l0.112-0.005C29.981,15.371,29.992,15.367,29.995,15.364z"/>
				<path fill="#A1F6FF" d="M31.164,15.583l-0.341-0.015c-0.101,0.045-0.181,0.083-0.113,0.1
					C30.698,15.647,30.814,15.622,31.164,15.583z"/>
				<path fill="#A1F6FF" d="M30.719,15.676c-0.185,0.004-0.501-0.019-0.817,0.001c0.51,0.062,0.831,0.062,1.102,0.039
					C30.87,15.704,30.758,15.69,30.719,15.676z"/>
				<path fill="#A1F6FF" d="M27.033,15.747c0.13-0.015,0.299-0.021,0.483-0.019c-0.29-0.036-0.521-0.066-0.95-0.054l-0.268,0.05
					l0.242,0.021L27.033,15.747z"/>
				<path fill="#A1F6FF" d="M25.97,15.785c0.072-0.017,0.197-0.028,0.354-0.035l-0.117-0.01L25.97,15.785z"/>
				<path fill="#A1F6FF" d="M28.361,15.919l0.059-0.042l-0.065-0.001C28.379,15.89,28.387,15.903,28.361,15.919z"/>
				<path fill="#A1F6FF" d="M28.266,15.846l0.189,0.006l0.062-0.043l-0.505-0.03l-0.094,0.018
					C28.062,15.812,28.186,15.827,28.266,15.846z"/>
				<path fill="#A1F6FF" d="M29.924,15.81l0.267,0.027C30.099,15.816,30.01,15.81,29.924,15.81z"/>
				<path fill="#A1F6FF" d="M29.924,15.81c-0.507-0.046-1.118-0.059-1.406,0c0.091,0.027,0.239,0.048,0.409,0.063l0.415,0.028
					c0.89,0.047,2.054,0.039,1.765,0.182c0.854-0.151-0.727-0.159-1.611-0.206C29.606,15.836,29.757,15.81,29.924,15.81z"/>
				<polygon fill="#A1F6FF" points="33.152,15.442 33.25,15.402 33.129,15.436 				"/>
				<path fill="#A1F6FF" d="M41.979,15.463c0.984,0.117,1.438,0.215,2.242,0.294c-0.107-0.119,0.783-0.022,1.309-0.053
					C44.613,15.458,43.84,15.579,41.979,15.463z"/>
				<path fill="#A1F6FF" d="M46.816,15.472c-0.008-0.013-0.064-0.031-0.193-0.058l0.795,0.028l-1.072-0.136
					c1.432,0.166-1.393,0.082-0.848,0.2c0.271-0.057,1.301,0.02,1.318-0.028l-0.457-0.035L46.816,15.472z"/>
				<path fill="#A1F6FF" d="M38.795,15.877c1.168,0.156-0.09-0.02,1.229-0.023C39.658,15.776,39.238,15.876,38.795,15.877z"/>
				<path fill="#A1F6FF" d="M50.369,15.504l-0.668-0.046C49.953,15.486,50.207,15.499,50.369,15.504z"/>
				<path fill="#A1F6FF" d="M50.369,15.504l0.703,0.059c-0.035-0.013-0.037-0.025-0.029-0.039l-0.238-0.032
					C50.664,15.501,50.523,15.507,50.369,15.504z"/>
				<path fill="#A1F6FF" d="M50.766,16.205c0.037-0.029,0.08-0.129,0.115-0.292c-0.086-0.035-0.242-0.064-0.432-0.082
					c0.256,0.06-0.412,0.257,0.301,0.212L50.766,16.205z"/>
				<path fill="#A1F6FF" d="M38.562,39.66c-0.373,0.051,0.082,0.109,0.553,0.179l0.115,0.017l-0.031-0.002
					c0.324,0.049,0.635,0.104,0.654,0.162l0.215,0.006C39.729,39.826,39.689,39.906,38.562,39.66z"/>
				<path fill="#A1F6FF" d="M45.338,39.786l0.533,0.021C45.777,39.783,45.514,39.775,45.338,39.786z"/>
				<path fill="#A1F6FF" d="M32.502,39.643l-0.267-0.041C32.312,39.618,32.394,39.63,32.502,39.643z"/>
				<polygon fill="#A1F6FF" points="29.262,39.66 29.307,39.663 29.336,39.58 				"/>
				<path fill="#A1F6FF" d="M52.303,37.352c-0.041,0.035-0.086,0.041-0.135-0.021c-0.08-1.395-0.133-2.872-0.174-4.387
					c-0.301,0.945-0.797,2.215-1.156,2c0.006,0.605,0.027,1.22,0.098,1.886l-0.158,0.287c-0.072,1.354-0.078,2.239-0.1,3.302
					c0.533,0.791,1.475-2.352,1.617-3.021L52.303,37.352z"/>
				<path fill="#A1F6FF" d="M50.881,25.532l0.027,0.078c0.016-1.034-0.02-2.564-0.043-4.069c-0.072,0.625-0.113,1.285-0.084,2.057
					c0.002,2.195,0.1,5.074,0.07,6.745l-0.029-0.082c0.031,0.535,0.047,1.029,0.051,1.502l0.111-0.206
					C50.771,29.495,51.025,27.924,50.881,25.532z"/>
				<path fill="#A1F6FF" d="M20,39.541l0.094-0.004c-0.414-0.018-0.737-0.041-0.261-0.096c-0.688,0.039-0.403,0.055-0.804,0.131
					l0.328-0.01L20,39.541z"/>
				<polygon fill="#A1F6FF" points="19.03,39.568 19.02,39.572 19.357,39.562 				"/>
				<polygon fill="#A1F6FF" points="20.1,39.539 20.098,39.537 20,39.541 				"/>
				<path fill="#A1F6FF" d="M11.295,28.982c-0.006,0.007-0.012,0.023-0.018,0.038l0.053,0.563c-0.056,0.256-0.111,0.364-0.168,0.265
					c-0.024,0.261-0.05,0.514-0.08,0.653l-0.043,0.604c0.109-0.197,0.196-0.49,0.292-1.484l0.007,0.042
					c0.02-0.521,0.034-1.068,0.068-1.318c-0.062-0.074-0.116-0.306-0.165-0.574c-0.016,0.091-0.035,0.133-0.061,0.102L11.295,28.982
					z"/>
				<path fill="#A1F6FF" d="M11.019,26.686c-0.034-0.034-0.07,0.05-0.106,0.313C10.963,27.081,11.003,27.101,11.019,26.686z"/>
				<path fill="#A1F6FF" d="M10.905,27.305c0.055,0.362,0.1,0.544,0.138,0.659l0.029-0.397L10.905,27.305z"/>
				<path fill="#A1F6FF" d="M11.049,29.328l-0.019-0.136c-0.006,1.581-0.198,0.032-0.306,0.751l0.272,0.421
					C10.997,30.029,11.022,29.688,11.049,29.328z"/>
				<path fill="#A1F6FF" d="M20.115,39.55l0.065,0.136c1.205,0.07,2.299,0.021,3.828,0.125l0.017-0.047L24.01,39.77
					c-0.296-0.175-1.185-0.191-2.072-0.277l-1.838,0.05c0.336,0.015,0.729,0.021,0.809,0.038L20.115,39.55z"/>
				<path fill="#A1F6FF" d="M19.179,39.82l0.189-0.092l-0.82-0.084l0.472-0.072l-1.073,0.048
					C18.504,39.663,18.982,39.706,19.179,39.82z"/>
				<path fill="#A1F6FF" d="M31.413,39.786c-0.39,0.089-0.206,0.22,1,0.216l-0.498-0.107c1.236,0.027,0.354,0.166,1.398,0.172
					h-0.004h0.086l0.316-0.002c0.119-0.129-1.358-0.229-1.311-0.312c-0.694-0.063-1.316-0.101-1.147-0.235
					c0.593-0.019,0.75,0.034,0.98,0.082c-0.083-0.024-0.099-0.057-0.104-0.084c-1.715-0.076-1.335,0.189-2.376,0.168
					C30.084,39.721,30.228,39.812,31.413,39.786z"/>
				<path fill="#A1F6FF" d="M22.365,41.445l-0.307,0.015C22.184,41.46,22.296,41.462,22.365,41.445z"/>
				<path fill="#A1F6FF" d="M21.492,41.573c0.036-0.054,0.117-0.081,0.216-0.097L21.122,41.5
					C21.225,41.525,21.329,41.552,21.492,41.573z"/>
				<path fill="#A1F6FF" d="M43.736,39.975c-0.74-0.066-1.377-0.158-2.512-0.119l-0.057,0.024c0.729,0.027,1.352,0.069,1.881,0.187
					C42.465,39.938,43.143,39.962,43.736,39.975z"/>
				<polygon fill="#A1F6FF" points="29.307,39.663 29.301,39.676 29.453,39.673 				"/>
				<path fill="#A1F6FF" d="M39.113,40.3l0.57-0.091c0.15,0.03,0.436,0.053,0.994,0.057c0.922-0.135,0.666-0.181,0.5-0.244
					l0.316-0.113c0.762,0.023,0.932,0.113,0.715,0.188l-0.422-0.021c0.027,0.042,0.113,0.062,0.234,0.066
					c-0.143,0.027-0.33,0.051-0.562,0.063c0.611,0.013,0.889-0.031,1.188-0.062c0.232-0.002,0.438,0.01,0.479,0.074l0.34-0.068
					l0.109,0.004l0.137,0.013l-0.002-0.011c0.58,0.021,0.387,0.133,0.305,0.113c0.711,0.059,1.217-0.074,0.961-0.029
					c-1.334,0.101-0.428-0.094-1.27-0.109L43.701,40.1l0.389-0.033l0.24,0.021c-0.078-0.02-0.023-0.036,0.039-0.062
					c0.359,0.022,0.771,0.029,1.275,0.022l-1.363-0.295l1.059,0.035c1.15,0.057,0.391,0.229,1.785,0.194
					c-0.734,0.316-2.137,0.352-3.154,0.562c-1.582-0.008-1.758,0.005-3.779-0.052c0.303,0.257-2.918,0.423-4.646,0.572l-1.064-0.09
					c-2.42,0.242-5.616,0.561-9.375,0.655c-0.885-0.048-1.655,0.073-2.126-0.126l0.173-0.011l-0.463-0.07
					c2.375-0.13,4.435-0.333,6.094-0.501l0.979,0.082c1.588-0.14,4.542-0.293,4.263-0.529c1.859,0.051,2.02,0.041,3.471,0.047
					l0.201-0.033c-0.008,0.056-0.039,0.103,0.754,0.101c-0.676-0.022-0.535-0.085-0.48-0.146l0.771-0.103
					c0.51,0.011,0.955,0.062,0.75,0.136l0.414-0.146L39.113,40.3z M42.256,40.27l0.66,0.031c0.367,0.049,0.391,0.127,1.211,0.133
					c-0.191-0.076-0.707-0.104-1.211-0.133C42.773,40.286,42.58,40.271,42.256,40.27z"/>
				<path fill="#A1F6FF" d="M25.36,39.635c-0.307-0.015-0.618-0.031-0.942-0.064l-0.317,0.156
					C24.913,39.779,25.053,39.698,25.36,39.635z"/>
				<polygon fill="#A1F6FF" points="44.021,40.055 43.688,40.025 43.697,40.066 				"/>
				<path fill="#A1F6FF" d="M11.059,40.701l-0.116,0.025l1.915,0.061C12.663,40.727,12.336,40.686,11.059,40.701z"/>
				<path fill="#A1F6FF" d="M27.643,39.895c0.153-0.056,0.625-0.133-0.021-0.137c2.408-0.051,0.287,0.282,2.29,0.231l-0.416-0.091
					l0.645,0.011c-0.4-0.015-0.702-0.097-1.071-0.16c-0.859-0.054-1.599-0.065-2.296-0.076l0.192,0.032l-0.192-0.032l-0.951-0.019
					C25.968,39.764,26.941,39.781,27.643,39.895z"/>
				<path fill="#A1F6FF" d="M13.308,39.695l1.292-0.057h0.008c0.368-0.07,0.106-0.082,0.735-0.123
					c-0.434,0.053-0.14,0.073,0.241,0.09h0.005l0.876-0.024c-0.961-0.106-0.974-0.354-1.998-0.392
					c-0.731-0.026-1.376-0.034-1.96-0.037c-0.412,0-0.266,0.003-0.306,0.008l-0.046,0.021c-0.01-0.009-0.021-0.016-0.036-0.026
					c-0.015-0.048-0.03,0.071-0.048-0.271l-0.004,0.231l-0.006,0.033l-0.017,0.074c-0.006,0.028-0.023,0.066-0.045,0.112
					c0.002,0.056-0.018,0.146,0.056,0.222c0.064,0.039,0.041,0.074,0.268,0.099C12.574,39.682,12.89,39.695,13.308,39.695z"/>
				<path fill="#A1F6FF" d="M39.025,40.07l-0.998-0.215l-0.137-0.006l0.549,0.116c-1.316,0.007-1.52-0.135-1.092-0.235
					c-2.014,0.045-1.268-0.227-2.82-0.082c0.537,0.067,0.906,0.195,1.438,0.216l-0.701-0.009l0.154,0.033
					C36.822,39.887,37.346,40.107,39.025,40.07z"/>
				<path fill="#A1F6FF" d="M33.033,39.822l0.205,0.027c0.166-0.061,0.68-0.142-0.025-0.147c2.107-0.044,1.039,0.18,1.662,0.243
					c-0.172,0.119,0.492,0.142,0.033,0.246l-0.215-0.025l0.178,0.038l-0.4,0.067c-1.439-0.008-0.922-0.149-1.156-0.205l0.082-0.002
					l0.561,0.009C33.666,39.902,33.621,39.932,33.033,39.822z M34.131,39.961l0.463,0.135C35.273,40,34.52,39.993,34.131,39.961
					l-0.184-0.053C33.883,39.936,33.979,39.947,34.131,39.961z"/>
				<path fill="#A1F6FF" d="M44.127,40.434c-0.189-0.076-0.705-0.104-1.211-0.133C43.283,40.352,43.307,40.428,44.127,40.434z"/>
				<path fill="#A1F6FF" d="M42.256,40.27l0.66,0.031C42.773,40.286,42.58,40.271,42.256,40.27z"/>
				<path fill="#A1F6FF" d="M42.65,40.143c0.23-0.002,0.434,0.01,0.477,0.076l0.344-0.07l0.104,0.004
					C43.137,40.111,42.881,40.121,42.65,40.143z"/>
				<path fill="#A1F6FF" d="M41.787,40.07c0.029,0.043,0.117,0.062,0.236,0.07c0.078-0.017,0.141-0.029,0.188-0.048L41.787,40.07z"
					/>
				<path fill="#A1F6FF" d="M44.012,40.266c0.711,0.059,1.217-0.072,0.961-0.029c-1.334,0.103-0.426-0.094-1.268-0.106l0.002,0.026
					C44.289,40.175,44.094,40.283,44.012,40.266z"/>
				<polygon fill="#A1F6FF" points="43.697,40.066 43.701,40.1 44.09,40.062 44.021,40.055 				"/>
				<path fill="#A1F6FF" d="M38.445,40.594c-0.676-0.025-0.535-0.086-0.482-0.146l-0.27,0.044
					C37.684,40.548,37.652,40.598,38.445,40.594z"/>
				<path fill="#A1F6FF" d="M39.482,40.482l0.414-0.149L39.111,40.3l-0.379,0.048C39.24,40.357,39.688,40.408,39.482,40.482z"/>
				<polygon fill="#A1F6FF" points="34.871,40.204 34.908,40.193 34.693,40.166 				"/>
				<path fill="#A1F6FF" d="M34.131,39.961l-0.184-0.053C33.883,39.936,33.979,39.947,34.131,39.961z"/>
				<path fill="#A1F6FF" d="M34.131,39.961l0.463,0.135C35.273,40,34.52,39.993,34.131,39.961z"/>
				<path fill="#A1F6FF" d="M32.235,39.602L32.235,39.602L32.235,39.602z"/>
				<path fill="#A1F6FF" d="M20,39.541l-0.643,0.021L20,39.541z"/>
				<path fill="#A1F6FF" d="M19.37,39.729l0.183-0.088l0.627,0.047l-0.065-0.136l0.796,0.025c-0.081-0.015-0.474-0.025-0.81-0.036
					l-0.1,0.002l-0.643,0.021l-0.336,0.013l-0.472,0.069L19.37,39.729z"/>
				<path fill="#A1F6FF" d="M39.793,39.842l0.459,0.012C40.127,39.842,39.979,39.836,39.793,39.842z"/>
				<path fill="#A1F6FF" d="M44.395,39.914c0.145,0.068-0.234,0.068-0.658,0.061l0.631,0.049
					C44.461,39.993,44.582,39.955,44.395,39.914z"/>
				<path fill="#A1F6FF" d="M40.252,39.854c0.369,0.031,0.551,0.119,0.857,0.188l0.064-0.021c-0.088-0.035-0.145-0.078-0.01-0.141
					L40.252,39.854z"/>
				<path fill="#A1F6FF" d="M42.209,40.096c0.699,0.03,1.133-0.007,1.484-0.025l-0.008-0.043l0.334,0.027l0.133,0.004l-0.064,0.006
					l0.24,0.021c-0.078-0.021-0.023-0.038,0.037-0.062l-0.629-0.049c-0.594-0.014-1.271-0.037-0.688,0.09
					c-0.529-0.115-1.15-0.158-1.879-0.188c-0.139,0.062-0.08,0.104,0.008,0.139l0.318-0.117
					C42.256,39.93,42.426,40.02,42.209,40.096z"/>
				<polygon fill="#A1F6FF" points="43.709,40.161 43.707,40.152 43.574,40.15 				"/>
				<path fill="#A1F6FF" d="M42.023,40.141c-0.141,0.027-0.33,0.051-0.562,0.063c0.613,0.013,0.889-0.031,1.189-0.062
					C42.438,40.145,42.197,40.152,42.023,40.141z"/>
				<polygon fill="#A1F6FF" points="43.705,40.126 43.701,40.1 43.375,40.127 				"/>
				<polygon fill="#A1F6FF" points="44.021,40.055 44.09,40.062 44.154,40.055 				"/>
				<path fill="#A1F6FF" d="M42.209,40.096c-0.045,0.016-0.109,0.031-0.188,0.045c0.172,0.016,0.412,0.004,0.627,0.002
					c0.229-0.021,0.484-0.031,0.924,0.01l0.135,0.002l-0.004-0.024l-0.328,0.001l0.324-0.025l-0.006-0.027
					C43.342,40.089,42.91,40.126,42.209,40.096z"/>
				<polygon fill="#A1F6FF" points="11.001,19.768 11.036,19.632 11.04,19.231 				"/>
				<path fill="#A1F6FF" d="M11.186,17.039c0.021-0.27,0.043-0.533,0.069-0.703l-0.026-0.283l-0.026,0.229
					c-0.099-0.115-0.143,0.062-0.161,0.52C11.093,16.604,11.148,16.508,11.186,17.039z"/>
				<path fill="#A1F6FF" d="M11.321,17.106l0.002-0.045l0.02,0.318l0.049-0.732l0.049-0.46l-0.033-0.055
					C11.362,16.304,11.335,16.41,11.321,17.106z"/>
				<path fill="#A1F6FF" d="M11.106,18.204l0.076-1.098c-0.099-0.309-0.131-0.241-0.146-0.016l0.004,2.142V19.22
					C11.046,18.755,11.063,18.387,11.106,18.204z"/>
				<path fill="#A1F6FF" d="M11.264,16.458l-0.018,1.396C11.291,17.318,11.288,16.782,11.264,16.458z"/>
				<path fill="#A1F6FF" d="M12.464,15.712l0.384,0.003l0.221,0.002h0.039l-0.432-0.181c-0.542,0.03-0.825,0.081-1.231,0.091
					l0.117,0.048c0.354,0.018,0.526,0.051,0.684,0.101l0.271-0.04C12.516,15.729,12.502,15.719,12.464,15.712z"/>
				<path fill="#A1F6FF" d="M11.229,16.053l0.026,0.283l0.013-0.103l-0.004,0.224c0.023,0.324,0.027,0.86-0.018,1.396l-0.002,0.185
					l0.077-0.933c0.013-0.695,0.042-0.801,0.087-0.975l-0.122-0.24l0.005-0.225l0.273,0.011l-0.117-0.048h-0.191
					C11.252,15.764,11.245,15.902,11.229,16.053z"/>
				<path fill="#A1F6FF" d="M11.04,19.219l0.066-1.017C11.063,18.387,11.046,18.755,11.04,19.219z"/>
				<path fill="#A1F6FF" d="M11.182,17.106l0.004-0.067c-0.039-0.531-0.094-0.435-0.143-0.238l-0.007,0.291
					C11.05,16.865,11.083,16.797,11.182,17.106z"/>
				<path fill="#A1F6FF" d="M12.849,15.715l0.221,0.002L12.849,15.715z"/>
				<path fill="#A1F6FF" d="M12.518,15.739l-0.271,0.04l0.121,0.031C12.414,15.786,12.518,15.762,12.518,15.739z"/>
				<path fill="#A1F6FF" d="M12.569,15.866l-0.202-0.056C12.319,15.831,12.33,15.85,12.569,15.866z"/>
				<path fill="#A1F6FF" d="M11.036,19.632c-0.006,0.398-0.02,0.757-0.05,1.024l0.057-0.262L11.04,19.62L11.036,19.632z"/>
				<polygon fill="#A1F6FF" points="11.42,19.057 11.409,18.924 11.388,19.255 				"/>
				<path fill="#A1F6FF" d="M11.332,19.373c0.013,0.018,0.027,0.003,0.042-0.056l-0.015-0.269L11.332,19.373z"/>
				<path fill="#A1F6FF" d="M11.28,18.179c-0.098,1.017-0.145,1.953-0.232,3.219c0.042-0.172,0.086-0.193,0.139-0.323l0.043-0.276
					c-0.026,0.115-0.053,0.258-0.079,0.312c0.025-0.727,0.034-1.373,0.086-2.025l0.044,0.142l0.014-1.154L11.28,18.179z"/>
				<path fill="#A1F6FF" d="M10.97,21.947c0.026-0.278,0.052-0.439,0.076-0.543v-0.379C11.019,21.253,10.99,21.388,10.97,21.947z"/>
				<path fill="#A1F6FF" d="M11.295,18.074l-0.014,1.154c0.019,0.068,0.034,0.126,0.05,0.144l0.027-0.325l0.015,0.268l0.015-0.06
					l0.021-0.331l-0.083-1.06L11.295,18.074z"/>
				<path fill="#A1F6FF" d="M11.28,18.179c-0.082,0.563-0.157,1.114-0.241,1.441l0.003,0.774l0.053-0.238
					c-0.011,0.481-0.029,0.697-0.049,0.864v0.38l0.001-0.004C11.134,20.132,11.182,19.196,11.28,18.179z"/>
				<path fill="#A1F6FF" d="M11.293,20.656c-0.015-0.065-0.038,0.025-0.064,0.143l-0.043,0.276
					C11.219,20.998,11.255,20.883,11.293,20.656z"/>
				<polygon fill="#A1F6FF" points="11.315,21.57 11.315,21.433 11.314,21.427 				"/>
				<path fill="#A1F6FF" d="M11.314,21.427l0.001,0.007c0.001-0.351-0.001-0.569-0.009-0.683L11.314,21.427z"/>
				<path fill="#A1F6FF" d="M11.305,20.606l-0.011,0.05c0.005,0.02,0.009,0.046,0.013,0.093L11.305,20.606z"/>
				<path fill="#A1F6FF" d="M11.183,22.985l0.049,0.233c0.036-0.168,0.071-0.339,0.091-0.251l0.002-0.008l0.01-0.267l-0.127,0.183
					c0.007-0.244,0.007-0.646,0.044-0.813c-0.017,0.037-0.033,0.122-0.046,0.224L11.183,22.985z"/>
				<path fill="#A1F6FF" d="M11.059,22.636l-0.004,0.017l0.02,0.495l0.018-0.296C11.082,22.819,11.072,22.752,11.059,22.636z"/>
				<path fill="#A1F6FF" d="M11.252,23.289c0.029,0.082,0.054,0.048,0.073-0.312l-0.001-0.009
					C11.299,23.114,11.276,23.208,11.252,23.289z"/>
				<path fill="#A1F6FF" d="M11.093,22.853l-0.018,0.296l0.018,0.471c0.005-0.934,0.045-0.849,0.092-0.632l0.023-0.698
					C11.165,22.571,11.131,22.975,11.093,22.853z"/>
				<polygon fill="#A1F6FF" points="11.053,22.578 11.055,22.654 11.059,22.636 				"/>
				<path fill="#A1F6FF" d="M11.325,22.968c-0.022-0.087-0.056,0.082-0.092,0.252l0.021,0.07
					C11.276,23.208,11.299,23.114,11.325,22.968z"/>
				<polygon fill="#A1F6FF" points="11.326,22.978 11.326,22.959 11.325,22.968 				"/>
				<path fill="#A1F6FF" d="M11.02,15.504l-0.079-0.058l0.018-0.099c-0.003,0.003-0.008-0.002-0.012-0.022
					c0.039-0.008,0.208-0.007,0.585,0.006c0.721-0.138-0.649-0.007-0.587-0.108l-0.069,0.028c0.054,0.271,0.08,0.565,0.031,0.998
					l0.027,0.119C11.002,16.152,11.009,15.772,11.02,15.504z"/>
				<path fill="#A1F6FF" d="M11.175,15.562l-0.001-0.013c0.36-0.028,0.364-0.071,0.234-0.112l-0.146,0.01
					c0.016,0.021-0.017,0.053-0.093,0.098L11.175,15.562z"/>
				<polygon fill="#A1F6FF" points="10.876,16.483 10.88,16.478 10.88,16.456 				"/>
				<path fill="#A1F6FF" d="M10.907,16.249l-0.027,0.208v0.022c0.022-0.027,0.039-0.066,0.054-0.11L10.907,16.249z"/>
				<path fill="#A1F6FF" d="M11.02,15.504l0.005-0.103c0.13,0.008,0.217,0.021,0.237,0.046l0.146-0.01
					c-0.121-0.039-0.366-0.076-0.443-0.097c-0.001,0.004-0.002,0.006-0.005,0.006l-0.018,0.098L11.02,15.504z"/>
				<polygon fill="#A1F6FF" points="12.502,15.456 13.14,15.417 12.481,15.318 				"/>
				<path fill="none" d="M11.468,19.854c0.027-0.324,0.117-0.339,0.134-1.23C11.54,19.521,11.474,18.807,11.468,19.854z"/>
				<path fill="#A1F6FF" d="M11.522,16.135l-0.027-0.06l-0.034,0.963C11.481,16.522,11.502,16.368,11.522,16.135z"/>
				<path fill="#A1F6FF" d="M20.93,15.785c0.053-0.026,0.008-0.049-0.081-0.07C20.76,15.735,20.759,15.759,20.93,15.785z"/>
				<polygon fill="#A1F6FF" points="20.756,15.697 20.849,15.714 20.937,15.702 				"/>
				<path fill="#A1F6FF" d="M21.677,15.469l-0.078-0.023C21.601,15.454,21.635,15.462,21.677,15.469z"/>
				<path fill="#A1F6FF" d="M17.927,15.417l-0.283-0.036c-0.008,0.024,0.068,0.046,0.195,0.066
					C17.862,15.435,17.889,15.424,17.927,15.417z"/>
				<path fill="#A1F6FF" d="M21.677,15.469l0.225,0.068l0.245-0.014l-0.222,0.022l0.182,0.054l-0.332,0.014
					c0.098,0.043,0.425,0.081,0.338,0.112c0.004,0.004,0.014,0.007,0.017,0.01c1.845-0.04-0.425-0.135,0.767-0.229
					C22.568,15.547,21.895,15.509,21.677,15.469z"/>
				<path fill="#A1F6FF" d="M20.473,15.66l0.147-0.006c0.348-0.147-2.651-0.093-1.471-0.213l-0.1-0.032
					c-0.143,0.019-0.091,0.08-0.418,0.099l-0.505-0.064l-0.178,0.02C18.524,15.536,19.785,15.587,20.473,15.66z"/>
				<path fill="#A1F6FF" d="M21.776,15.614l-1.187,0.053c0.016-0.005,0.019-0.009,0.031-0.014l-0.147,0.006l0.284,0.038l0.181,0.004
					c0.326-0.045,1.095-0.055,1.176,0.025C22.201,15.694,21.874,15.657,21.776,15.614z"/>
				<polygon fill="#A1F6FF" points="22.148,15.523 21.902,15.538 21.925,15.545 				"/>
				<path fill="#A1F6FF" d="M18.125,15.442l-0.197-0.026c-0.04,0.007-0.065,0.018-0.087,0.03l0.107,0.016L18.125,15.442z"/>
				<path fill="#A1F6FF" d="M19.42,15.416c-0.205-0.018-0.307-0.016-0.372-0.006l0.1,0.032L19.42,15.416z"/>
				<path fill="#A1F6FF" d="M20.233,15.459c0.644,0.007,1.261-0.168,1.027-0.13l-0.961,0.03l-0.24,0.044L20.233,15.459z"/>
				<polygon fill="#A1F6FF" points="19.808,15.323 19.875,15.344 19.932,15.341 				"/>
				<path fill="#A1F6FF" d="M20.3,15.359c-0.137,0-0.262-0.004-0.369-0.018l-0.057,0.003l0.187,0.059L20.3,15.359z"/>
				<path fill="#A1F6FF" d="M14.635,15.697l0.244,0.009c-0.855-0.08-1.048,0.07-1.558,0.101c0.244,0.043,0.696,0.076,1.128,0.106
					c0.343,0,0.743-0.005,0.856-0.014c0-0.005,0.007-0.006,0.004-0.011c0.053,0.004,0.036,0.008-0.004,0.011
					c0.013,0.053-0.139,0.063-0.351,0.057l0.245,0.027c-0.214,0.041-0.478,0.056-0.733,0.069l0.477,0.063
					c0.138-0.146,1.034-0.083,1.582-0.186C15.948,15.849,14.574,15.817,14.635,15.697z"/>
				<path fill="#A1F6FF" d="M15.306,15.899c-0.113,0.009-0.514,0.016-0.856,0.014l0.505,0.042
					C15.167,15.962,15.319,15.953,15.306,15.899z"/>
				<path fill="#A1F6FF" d="M15.31,15.888c0.003,0.005-0.004,0.006-0.004,0.011C15.346,15.896,15.363,15.892,15.31,15.888z"/>
				<path fill="#A1F6FF" d="M15.2,15.985l-0.245-0.028l-0.698-0.043c-0.195-0.001-0.335-0.005-0.315-0.014l0.315,0.014h0.193
					c-0.433-0.032-0.885-0.064-1.128-0.106c-0.126,0.006-0.267,0.006-0.441-0.005l0.904,0.151l0.087-0.001
					c-0.002-0.005,0.007-0.008,0.003-0.013c0.059,0.005,0.042,0.009-0.003,0.013c0,0.005-0.007,0.009-0.008,0.015l0.603,0.089
					C14.723,16.04,14.986,16.025,15.2,15.985z"/>
				<path fill="#A1F6FF" d="M13.942,15.899c-0.021,0.007,0.12,0.013,0.315,0.014L13.942,15.899z"/>
				<polygon fill="#A1F6FF" points="14.955,15.956 14.45,15.914 14.257,15.914 				"/>
				<polygon fill="#A1F6FF" points="13.865,15.963 13.872,15.951 13.795,15.954 				"/>
				<polygon fill="#A1F6FF" points="13.872,15.951 13.785,15.953 13.795,15.954 				"/>
				<path fill="#A1F6FF" d="M13.875,15.937c0.004,0.006-0.005,0.008-0.003,0.013C13.917,15.946,13.934,15.942,13.875,15.937z"/>
				<path fill="none" d="M21.894,15.773c1.298,0.061-0.625,0.129,0.826,0.136C22.95,15.826,22.54,15.783,21.894,15.773z"/>
				<polygon fill="#A1F6FF" points="37.824,15.706 37.986,15.694 37.234,15.532 37.074,15.543 				"/>
				<path fill="#A1F6FF" d="M25.202,15.567l-0.166-0.037c-0.812-0.043,0.358-0.274-1.069-0.146
					C24.543,15.469,23.996,15.57,25.202,15.567z"/>
				<path fill="none" d="M26.641,15.594l-0.138-0.001c0.303,0.049,0.749,0.083,1.045,0.042c-1.208,0.002-0.425-0.136-1.076-0.189
					c-0.305,0.01-0.343,0.046-0.242,0.083c0.054,0.011,0.125,0.02,0.229,0.024L26.641,15.594z"/>
				<path fill="#A1F6FF" d="M26.503,15.593l0.138,0.001l-0.182-0.04c-0.105-0.005-0.176-0.014-0.229-0.024
					C26.285,15.55,26.381,15.574,26.503,15.593z"/>
				<path fill="#A1F6FF" d="M34.238,15.36c0.184,0.004,0.4,0,0.668-0.022L34.238,15.36z"/>
				<path fill="#A1F6FF" d="M39.496,15.65c0.121-0.024-0.012-0.038-0.213-0.05C39.396,15.617,39.465,15.634,39.496,15.65z"/>
				<path fill="#A1F6FF" d="M38.793,15.476l-0.369,0.048l0.207,0.009C38.623,15.519,38.662,15.499,38.793,15.476z"/>
				<path fill="#A1F6FF" d="M38.631,15.532l-0.207-0.009l-0.59,0.075c0.271,0.037,0.098,0.099,1.477,0.078l0.188-0.026
					c-0.029-0.014-0.1-0.031-0.211-0.05C39.023,15.583,38.662,15.569,38.631,15.532z"/>
				<path fill="#A1F6FF" d="M37.248,15.571l0.521,0.035l0.066-0.009C37.74,15.583,37.568,15.574,37.248,15.571z"/>
				<path fill="#A1F6FF" d="M33.99,15.388c0.049-0.01,0.133-0.021,0.248-0.028l-0.318-0.012C33.91,15.366,33.938,15.38,33.99,15.388
					z"/>
				<path fill="#A1F6FF" d="M35.572,15.756l1.199-0.07l-0.652-0.101C35.391,15.664,35.332,15.715,35.572,15.756z"/>
				<path fill="#A1F6FF" d="M32.081,15.447l0.523-0.058l-0.594-0.005l-0.317,0.075C31.845,15.447,31.974,15.445,32.081,15.447z"/>
				<path fill="#A1F6FF" d="M31.524,15.838c1.197-0.072,0.273-0.107-0.136-0.167l-0.383,0.045
					C31.309,15.742,31.711,15.77,31.524,15.838z"/>
				<path fill="#A1F6FF" d="M36.443,15.371c0.178,0.008,0.352,0.023,0.492,0.055c0.4-0.033,0.279-0.052,0.057-0.066
					c-0.188,0.01-0.354,0.011-0.5,0.009L36.443,15.371z"/>
				<path fill="#A1F6FF" d="M35.307,15.458l0.107-0.043l-0.232,0.016C35.23,15.437,35.273,15.445,35.307,15.458z"/>
				<path fill="#A1F6FF" d="M36.492,15.367l0.355-0.016c-0.346-0.017-0.738-0.027-0.098-0.055c-1.275-0.054-1.033-0.001-1.074,0.057
					C35.895,15.331,36.129,15.361,36.492,15.367z"/>
				<path fill="#A1F6FF" d="M31.37,15.364c0.313-0.005,0.206,0.021,0.135,0.047c0.544-0.018,0.328-0.068,0.318-0.103
					c-0.394,0.004-0.667,0.02-0.883,0.04c0.161,0.009,0.29,0.02,0.361,0.033L31.37,15.364z"/>
				<path fill="#A1F6FF" d="M32.74,15.666l-0.437-0.013c0.023,0.155,0.55,0.162,1.148,0.154
					C33.131,15.756,32.377,15.739,32.74,15.666z"/>
				<path fill="#A1F6FF" d="M33.203,15.657c0.008,0.012,0.041,0.025,0.102,0.035c-0.066-0.027,0.018-0.06,0.322-0.102l-0.293,0.026
					C33.303,15.637,33.258,15.65,33.203,15.657z"/>
				<path fill="#A1F6FF" d="M33.871,15.762c0.123,0.012,0.227,0.025,0.273,0.038l0.471,0.015l-0.037-0.009L33.871,15.762z"/>
				<path fill="#A1F6FF" d="M35.514,15.646c-0.398,0.007-0.92-0.052-1.449-0.061l0.75,0.115
					C35.123,15.712,35.406,15.72,35.514,15.646z"/>
				<path fill="#A1F6FF" d="M34.854,15.843c0.09,0.015,0.168,0.034,0.227,0.06l-0.162,0.009l0.66,0.099
					c0.236-0.071,0.025-0.118-0.344-0.155L34.854,15.843z"/>
				<path fill="#A1F6FF" d="M30.709,15.667c0,0.002,0.006,0.006,0.01,0.008h0.061C30.747,15.674,30.723,15.671,30.709,15.667z"/>
				<polygon fill="#A1F6FF" points="32.74,15.593 33.127,15.612 33.137,15.611 				"/>
				<path fill="#A1F6FF" d="M30.242,15.347l0.308-0.073c-0.904-0.011-0.497,0.047-0.555,0.09L30.242,15.347z"/>
				<path fill="#A1F6FF" d="M30.829,15.51l0.193-0.053c0.045-0.043,0.009-0.08-0.225-0.093c-0.307,0.036-0.546,0.078-1.023,0.093
					l0.385-0.091l-0.193,0.008c-0.051,0.014-0.174,0.024-0.443,0.027c0.152-0.054-0.902-0.107-1.374-0.034
					c2.158-0.105,0.363,0.256,0.85,0.272l-0.487-0.003c0.106,0.021,0.302,0.032,0.688,0.03c-0.277,0.038-0.676,0.016-0.994-0.026
					h-0.011c1.294,0.159,1.275-0.119,2.629-0.077l0.139-0.066L30.829,15.51z"/>
				<path fill="#A1F6FF" d="M29.199,15.667c-0.385,0.001-0.582-0.011-0.688-0.031l-0.306,0.005
					C28.523,15.684,28.921,15.706,29.199,15.667z"/>
				<path fill="#A1F6FF" d="M36.994,15.359l-0.143-0.008l-0.359,0.016C36.639,15.37,36.801,15.369,36.994,15.359z"/>
				<path fill="#A1F6FF" d="M33.871,15.762c-0.283-0.02-0.5-0.042-0.566-0.069c-0.061-0.01-0.094-0.023-0.102-0.035
					c-0.119,0.018-0.285,0.016-0.461,0.007c-0.363,0.073,0.393,0.09,0.709,0.14l0.693-0.005
					C34.094,15.788,33.994,15.774,33.871,15.762z"/>
				<path fill="#A1F6FF" d="M34.613,15.815c0.09,0.006,0.17,0.016,0.24,0.028l0.381,0.013l-0.658-0.05L34.613,15.815z"/>
				<path fill="#A1F6FF" d="M30.242,15.347l-0.247,0.017c-0.003,0.003-0.014,0.007-0.029,0.01l0.192-0.008L30.242,15.347z"/>
				<path fill="#A1F6FF" d="M33.398,15.507c-0.211-0.002-0.416,0.003-0.605,0.023C32.939,15.542,33.121,15.541,33.398,15.507z"/>
				<path fill="#A1F6FF" d="M36.799,15.571h0.449l-1.672-0.087c-0.072-0.081,0.404-0.13,0.865-0.111l0.053-0.003
					c-0.361-0.006-0.602-0.038-0.816-0.013c-0.018,0.021-0.076,0.042-0.26,0.059l-0.107,0.044c-0.033-0.012-0.076-0.021-0.123-0.029
					l-0.982,0.019c-0.254-0.024-0.281-0.045-0.211-0.06c-0.055-0.008-0.08-0.021-0.066-0.04c-0.271-0.013-0.459-0.022-0.674,0.055
					l0.113-0.031c0.613-0.011-0.25,0.091,0.281,0.109c1.127-0.092,0.91,0.197,2.107,0.024c-0.383,0.181-1.354,0.027-2.256,0.005
					c-0.479,0.153-1.642-0.073-2.536-0.011l-0.139,0.068l0.341,0.015c-0.349,0.04-0.463,0.065-0.455,0.085
					c0.014,0.004,0.037,0.007,0.07,0.008h-0.06c0.038,0.016,0.151,0.029,0.285,0.04l0.382-0.045
					c-0.138-0.019-0.217-0.042-0.14-0.069c0.483-0.076,1.021-0.038,1.494-0.008l0.396,0.018l-0.012,0.001l0.215,0.003l-0.01,0.004
					l0.293-0.027l0.271-0.034l0.17,0.026c0.527,0.009,1.051,0.068,1.449,0.061c-0.105,0.074-0.393,0.067-0.699,0.054l0.486,0.074
					l0.271-0.018c-0.24-0.041-0.182-0.091,0.545-0.17l0.652,0.101C37.033,15.66,37.131,15.626,36.799,15.571z"/>
				<path fill="#A1F6FF" d="M31.505,15.411c-0.056,0.022-0.094,0.043,0.121,0.052l0.064-0.003l0.316-0.075
					c-0.125-0.007-0.178-0.027-0.082-0.076l-0.102,0.001C31.833,15.343,32.049,15.393,31.505,15.411z"/>
				<path fill="#A1F6FF" d="M31.022,15.458l0.28-0.076c-0.072-0.015-0.2-0.025-0.361-0.032l-0.144,0.015
					C31.031,15.379,31.067,15.416,31.022,15.458z"/>
				<path fill="#A1F6FF" d="M32.783,15.53l0.348-0.094c-0.119-0.034-0.318-0.044-0.525-0.046l-0.523,0.058
					C32.398,15.455,32.543,15.509,32.783,15.53z"/>
				<path fill="#A1F6FF" d="M33.129,15.436l-0.348,0.094h0.012c0.189-0.021,0.393-0.026,0.604-0.023l0.166-0.021l-0.066,0.024
					c0.902,0.021,1.875,0.175,2.258-0.004c-1.199,0.171-0.98-0.117-2.107-0.026c-0.531-0.019,0.33-0.12-0.279-0.108l-0.113,0.031
					l-0.1,0.039L33.129,15.436z"/>
				<path fill="#A1F6FF" d="M26.324,15.75c0.318,0.026,0.533,0.069,0.455,0.115l0.147-0.101l-0.386-0.021L26.324,15.75z"/>
				<path fill="#A1F6FF" d="M25.134,15.64l-0.55,0.102c0.233-0.055,1.05-0.046,1.623-0.001l0.091-0.017
					C25.857,15.681,25.66,15.626,25.134,15.64z"/>
				<polygon fill="#A1F6FF" points="26.298,15.723 26.207,15.74 26.324,15.75 26.54,15.744 				"/>
				<path fill="#A1F6FF" d="M28.217,15.764l0.242,0.023C28.374,15.771,28.294,15.766,28.217,15.764z"/>
				<path fill="#A1F6FF" d="M27.82,15.826l0.099-0.029c-0.251-0.024-0.572-0.042-0.886-0.05l-0.107,0.017
					c0.241,0.074,0.873,0.091,1.429,0.111c-0.019-0.01-0.046-0.021-0.088-0.029L27.82,15.826z"/>
				<path fill="#A1F6FF" d="M28.217,15.764c-0.228-0.021-0.475-0.033-0.7-0.036l0.497,0.051
					C28.076,15.771,28.144,15.764,28.217,15.764z"/>
				<path fill="#A1F6FF" d="M28.457,15.853l-0.036,0.024c0.586,0.021,1.068,0.045,0.879,0.136c0.317-0.055,0.266-0.09,0.044-0.113
					l-0.415-0.028L28.457,15.853z"/>
				<path fill="#A1F6FF" d="M27.033,15.747c0.313,0.009,0.635,0.026,0.886,0.05l0.094-0.018l-0.497-0.051
					C27.333,15.727,27.163,15.732,27.033,15.747z"/>
				<path fill="#A1F6FF" d="M28.266,15.846c0.042,0.008,0.069,0.02,0.089,0.029l0.065,0.001l0.035-0.024L28.266,15.846z"/>
				<path fill="#A1F6FF" d="M29.344,15.9l-0.415-0.028L29.344,15.9z"/>
				<path fill="#FFFFFF" d="M32.081,15.447c-0.106-0.002-0.234,0-0.389,0.012l-0.066,0.015L32.081,15.447z"/>
				<path fill="#FFFFFF" d="M31.352,15.417l0.153-0.003c0.071-0.027,0.178-0.054-0.135-0.048l-0.068,0.019
					C31.356,15.392,31.385,15.403,31.352,15.417z"/>
				<path fill="#FFFFFF" d="M30.829,15.51l0.132-0.01c0.026-0.014,0.046-0.028,0.061-0.041L30.829,15.51z"/>
				<path fill="#FFFFFF" d="M32.793,15.53l-0.02,0.001l0.008-0.001c-0.238-0.021-0.383-0.075-0.703-0.083l-0.455,0.027l0.065-0.015
					l-0.063,0.003c-0.215-0.008-0.178-0.029-0.122-0.052l-0.153,0.004c0.033-0.012,0.004-0.023-0.05-0.034l-0.28,0.076
					c-0.015,0.013-0.035,0.027-0.061,0.042c0.894-0.062,2.058,0.164,2.536,0.01l-0.1-0.003
					C33.121,15.541,32.939,15.542,32.793,15.53z"/>
				<polygon fill="#FFFFFF" points="33.398,15.507 33.496,15.51 33.562,15.486 				"/>
				<polygon fill="#FFFFFF" points="30.242,15.347 32.783,15.53 32.775,15.531 				"/>
				<polygon fill="#A1F6FF" points="41.332,15.716 41.332,15.714 41.312,15.714 				"/>
				<path fill="#A1F6FF" d="M41.35,15.517c-0.412,0.106,1.074,0.096,0.912,0.157l0.268-0.005
					C42.146,15.566,41.785,15.532,41.35,15.517z"/>
				<path fill="#A1F6FF" d="M39.275,15.447l1.229,0.167l0.789-0.098C40.783,15.499,40.164,15.503,39.275,15.447z"/>
				<path fill="#A1F6FF" d="M41.35,15.517l-0.057-0.001l-0.791,0.098l0.811,0.101h0.02c-0.07-0.088,0.475-0.042,0.934-0.041
					C42.424,15.613,40.938,15.623,41.35,15.517z"/>
				<path fill="#A1F6FF" d="M43.533,15.402l0.73,0.027l-0.988-0.126c1.312,0.151-1.277,0.076-0.775,0.184
					C42.811,15.421,44.201,15.547,43.533,15.402z"/>
				<path fill="none" d="M36.521,15.849c0.416,0.056,0.334,0.041,0.346,0.013L36.521,15.849z"/>
				<path fill="none" d="M37.479,15.807c-0.32-0.07-0.693,0.013-1.08,0.019l0.473,0.028C36.896,15.833,37.004,15.809,37.479,15.807z
					"/>
				<polygon fill="#A1F6FF" points="36.521,15.849 36.867,15.862 36.871,15.854 36.398,15.826 36.355,15.827 				"/>
				<polygon fill="#A1F6FF" points="46.816,15.477 46.998,15.485 46.816,15.472 				"/>
				<polygon fill="#A1F6FF" points="46.359,15.442 46.816,15.477 46.816,15.472 				"/>
				<path fill="#A1F6FF" d="M46.998,15.485l0.824,0.054c-0.25-0.054,0.221-0.129,0.295-0.156
					C47.844,15.449,47.482,15.496,46.998,15.485z"/>
				<path fill="#A1F6FF" d="M32.527,39.721c-0.078,0.012-0.117,0.022-0.126,0.032l0.63,0.069L32.527,39.721z"/>
				<path fill="#A1F6FF" d="M33.711,40.064h-0.316l0.561,0.009c-0.289-0.171-0.334-0.142-0.92-0.251l-0.628-0.069
					C32.354,39.834,33.832,39.938,33.711,40.064z"/>
				<path fill="none" d="M38.746,39.836l0.451,0.016l-0.082-0.013C39.008,39.832,38.857,39.829,38.746,39.836z"/>
				<polygon fill="#A1F6FF" points="39.115,39.839 39.197,39.852 39.23,39.852 				"/>
				<polygon fill="#A1F6FF" points="33.307,40.064 33.312,40.066 33.395,40.064 				"/>
				<path fill="none" d="M10.783,32.59c0.006-0.246,0.033-0.588,0.043-0.638C10.797,32.04,10.786,32.283,10.783,32.59z"/>
				<polygon fill="#A1F6FF" points="23.994,39.721 24.038,39.723 24.062,39.646 				"/>
				<path fill="#A1F6FF" d="M50.842,31.817c-0.064,1.246-0.072,2.056-0.094,3.033c0.027,0.043,0.061,0.071,0.092,0.09l0.031-3.181
					L50.842,31.817z"/>
				<path fill="#A1F6FF" d="M51.707,19.324c-0.102,0.456-0.027,0.793-0.078,1.241c0.24,3.756,0.254,8.21,0.367,12.376
					c0.113-0.373,0.205-0.701,0.238-0.863l0.006-0.039c-0.039,0.034-0.078,0.037-0.123-0.021c-0.283-4.787-0.195-10.678-0.496-15.38
					c0.045-0.456-0.021-0.766,0.07-1.303c-0.021,0.053-0.041-0.027-0.061-0.173c-0.941,0.087-3.223,0.142-1.41,0.282l0.574,0.05
					c0.197-0.015,0.393-0.04,0.574-0.072l0.025,0.089c-0.008-0.013-0.02-0.046-0.031-0.083c-0.133,0.027-0.297,0.064-0.324,0.099
					l0.191,0.032c-0.086,0.686-0.201,0.978-0.285,1.718c-0.084,0.652-0.141,1.331-0.107,2.144l0.023,2.121
					c0.141-1.216,0.396-2.308,0.469-3.825C51.518,15.316,51.568,19.521,51.707,19.324z"/>
				<path fill="#A1F6FF" d="M51.4,15.509l-0.025-0.089c-0.186,0.032-0.377,0.058-0.572,0.072l0.24,0.032
					c0.027-0.034,0.191-0.072,0.326-0.099C51.381,15.463,51.393,15.497,51.4,15.509z"/>
				<path fill="#A1F6FF" d="M51.629,20.565c0.051-0.448-0.021-0.787,0.078-1.241c-0.141,0.197-0.189-4.008-0.371-1.609
					c-0.074,1.519-0.328,2.608-0.471,3.825c0.027,1.505,0.062,3.036,0.045,4.069l-0.025-0.077c0.141,2.392-0.111,3.963,0.104,6.022
					l-0.113,0.207l-0.027,3.181c0.354,0.216,0.854-1.051,1.15-2C51.883,28.775,51.871,24.321,51.629,20.565z"/>
				<path fill="#FFFFFF" d="M15.499,39.609l0.088-0.002c-0.381-0.019-0.675-0.039-0.241-0.088c-0.63,0.037-0.369,0.049-0.735,0.121
					l0.302-0.016L15.499,39.609z"/>
				<polygon fill="#FFFFFF" points="14.609,39.639 14.601,39.641 14.911,39.628 				"/>
				<polygon fill="#FFFFFF" points="15.499,39.609 15.591,39.607 15.587,39.607 				"/>
				<path fill="#A1F6FF" d="M11.162,29.847c0.034-0.344,0.067-0.698,0.115-0.827c-0.089-0.854-0.148-0.811-0.234-1.056l-0.06,0.825
					l0.126-0.584c-0.007,0.4-0.035,0.77-0.062,1.123C11.086,29.613,11.125,29.779,11.162,29.847z"/>
				<path fill="#A1F6FF" d="M10.996,30.558c0.033,0.095,0.062,0.054,0.086-0.059l-0.086-0.134V30.558z"/>
				<path fill="#A1F6FF" d="M10.913,26.999c-0.056-0.097-0.122-0.26-0.169,0.058l0.162,0.248l-0.017-0.109L10.913,26.999z"/>
				<path fill="#A1F6FF" d="M10.986,24.07c-0.029,0.036-0.06,0.171-0.092,0.466c0.076,0.526,0.132,0.682,0.179,0.793l-0.01-0.268
					c0.054,0.628,0.092,0.267,0.138-0.108c-0.071-0.412-0.131-0.868-0.194-0.897l-0.035,0.319L10.986,24.07z"/>
				<path fill="#A1F6FF" d="M11.128,25.465c0.051,0.146,0.101,0.403,0.172,1.26c-0.09,0.42-0.181,0.434-0.274-0.357l-0.005,0.318
					c0.071,0.07,0.141,0.627,0.224,1.084c0.071-0.399,0.07-1.755,0.127-2.182c-0.005-0.005-0.01-0.018-0.017-0.027
					C11.299,26.508,11.178,24.955,11.128,25.465z"/>
				<polygon fill="#A1F6FF" points="11.274,25.323 11.237,25.157 11.232,25.388 				"/>
				<path fill="#A1F6FF" d="M10.97,24.375l0.035-0.319c-0.006-0.002-0.014,0.004-0.02,0.013L10.97,24.375z"/>
				<path fill="#A1F6FF" d="M11.062,25.062l0.01,0.268l0.054,0.135c0.052-0.51,0.171,1.044,0.228,0.095
					c-0.028-0.049-0.054-0.132-0.08-0.237l-0.042,0.062l0.005-0.229L11.2,24.953C11.155,25.328,11.116,25.69,11.062,25.062z"/>
				<path fill="#A1F6FF" d="M11.019,26.686c-0.016,0.416-0.056,0.395-0.106,0.313l-0.025,0.197l0.017,0.109l0.167,0.262
					l-0.029,0.397c0.084,0.245,0.143,0.202,0.234,1.056c0.005-0.016,0.011-0.031,0.018-0.038l-0.112-1.109
					c0.026,0.03,0.046-0.012,0.061-0.103C11.16,27.312,11.09,26.754,11.019,26.686z"/>
				<path fill="#A1F6FF" d="M11.162,29.847c-0.037-0.068-0.076-0.234-0.113-0.52c-0.027,0.361-0.052,0.701-0.053,1.037l0.086,0.136
					C11.112,30.361,11.138,30.108,11.162,29.847z"/>
				<path fill="#A1F6FF" d="M17.611,39.635l0.337-0.017l-0.669-0.056l-0.812,0.021C16.752,39.615,17.112,39.636,17.611,39.635z"/>
				<path fill="#A1F6FF" d="M22.365,41.445l0.318-0.02l-0.254-0.035C22.433,41.42,22.41,41.438,22.365,41.445z"/>
				<polygon fill="#A1F6FF" points="29.301,39.676 28.821,39.709 29.072,39.747 29.274,39.76 				"/>
				<path fill="#A1F6FF" d="M29.756,39.684c-0.083-0.008-0.176-0.014-0.303-0.014L29.756,39.684z"/>
				<path fill="#A1F6FF" d="M25.826,39.654c-0.025-0.021-0.032-0.039-0.001-0.066c0.547-0.016,0.689,0.032,0.901,0.078
					c-0.079-0.023-0.091-0.051-0.096-0.079c-0.729-0.032-1.043,0.003-1.268,0.048L25.826,39.654z"/>
				<path fill="#A1F6FF" d="M11.34,29.661c0.069,0.359-0.084,0.568-0.013,1.408c0.055-0.25,0.099-1.062,0.134-1.632
					c-0.027-0.075-0.046,0.01-0.082,0.174c0.06-1.671,0.18,0.686,0.276-0.629l0.005,0.531v0.021
					c-0.015,0.349-0.038,0.645,0.016,0.893c0.094,3.694,0.461,4.793,0.396,8.462c-0.11-1.539-0.271-2.925-0.332-5.271
					c-0.059-0.273-0.033-0.595-0.018-0.974c0.007-0.205,0.013-0.427-0.002-0.667l-0.004,0.067c-0.106,1.431-0.237-1.139-0.302,0.683
					c0.039-0.181,0.059-0.272,0.089-0.188c-0.039,0.618-0.086,1.505-0.146,1.777c-0.081-0.952,0.107-1.158,0.006-1.582
					c-0.156,1.604-0.285,1.537-0.513,1.924c0.031,0.521,0.052,0.871,0.101,0.859c-0.025,0.799-0.064,0.979-0.154,0.729
					c-0.021,0.027-0.027-0.036-0.028-0.145c-0.005,1.008,0.041,2.522-0.166,2.369c0.02,0.644,0.02,1.529,0.011,2.247l0.33,0.005
					l-0.433,0.101L10.5,40.792l0.116-3.08c0.032-0.86,0.049-1.75,0.019-2.832c0.189,0.144,0.146-1.248,0.151-2.172
					c0.001,0.095,0.009,0.158,0.027,0.129c0.082,0.231,0.119,0.063,0.145-0.666c-0.047,0.006-0.064-0.312-0.093-0.791l0.178-0.28
					l-0.054,0.727l0.137-0.636c-0.018,0.968-0.145,1.778-0.124,2.565c0.15,0.414,0.186-1.522,0.323-1.719l-0.121-1.208
					C11.285,30.933,11.315,30.32,11.34,29.661z M10.769,35.975v0.135V35.975c0.004-0.336,0.015-0.599,0.047-0.689
					C10.803,35.337,10.775,35.706,10.769,35.975z"/>
				<path fill="#A1F6FF" d="M39.416,40.038c0.164,0.039-0.008,0.117,0.268,0.171c0.266-0.05,0.51-0.109,0.699-0.193l-0.316,0.006
					l0.049,0.026l-0.611-0.008h-0.088l-0.006-0.002l0.092,0.002l0.35-0.004c0.006-0.009,0.006-0.015,0-0.022
					c-0.551-0.021-0.244-0.134-1.105-0.18l-0.973-0.031l0.254,0.055C39.164,39.895,38.32,40.034,39.416,40.038z"/>
				<polygon fill="#A1F6FF" points="24.038,39.723 24.025,39.764 24.101,39.727 				"/>
				<path fill="#A1F6FF" d="M35.713,39.955l-0.299-0.066l-0.439,0.008c-0.051,0.021-0.078,0.03-0.098,0.049
					C35.029,39.96,35.279,39.965,35.713,39.955z"/>
				<path fill="#A1F6FF" d="M19.972,41.391h0.438c-0.802-0.08,0.398-0.25-1.183-0.259l-0.753,0.222l-0.636-0.137
					c0.348-0.021,0.521-0.029,0.786-0.021l-0.272-0.016h-0.001c-0.244-0.008-0.888-0.016-0.958,0.062
					c-1.178-0.028,0.046-0.148-0.705-0.202l-0.543-0.021l-0.215,0.129c-0.342-0.121-1.542-0.073-2.125-0.195l-0.068,0.07
					c-1.16-0.168,0.353-0.027,0.72-0.153l-1.596-0.075c0.342,0.117,0.027,0.299,1.377,0.339c-0.243-0.01-0.403,0-0.722,0.021
					l0.585,0.127l0.693-0.199c1.45,0.007,0.348,0.163,1.083,0.234l-0.404,0.002c0.965-0.014,0.905,0.106,1.396,0.17
					c0.13-0.188,0.881-0.027,0.859-0.166l0.66,0.1l-0.161,0.012c0.433,0.185,1.14,0.071,1.951,0.113l0.944-0.029
					C20.894,41.441,20.703,41.38,19.972,41.391z"/>
				<path fill="#A1F6FF" d="M21.708,41.477l0.35-0.017C21.94,41.46,21.813,41.462,21.708,41.477z"/>
				<path fill="#A1F6FF" d="M15.808,40.893c-0.089,0.068,0.067,0.104,0.336,0.121l0.004-0.002l0.539,0.024l0.772,0.004
					c-0.298-0.149,0-0.347-2.071-0.306l-0.415,0.147l-0.385-0.015l0.351,0.146L15.808,40.893z"/>
				<path fill="#A1F6FF" d="M39.502,40.038l0.613,0.008l-0.051-0.026l-0.217-0.006c0.004,0.008,0.008,0.016,0,0.022L39.502,40.038z"
					/>
				<polygon fill="#A1F6FF" points="39.416,40.038 39.502,40.038 39.412,40.036 				"/>
				<path fill="#A1F6FF" d="M10.769,35.975c0.006-0.269,0.035-0.638,0.047-0.689C10.782,35.377,10.772,35.641,10.769,35.975z"/>
				<path fill="#A1F6FF" d="M11.04,31.104l-0.053,0.726l0.138-0.636c-0.019,0.968-0.146,1.779-0.124,2.566
					c0.149,0.413,0.185-1.523,0.323-1.72l-0.121-1.208c0.081,0.1,0.112-0.512,0.136-1.171l-0.007-0.041
					C11.236,30.615,11.149,30.907,11.04,31.104z"/>
				<path fill="#A1F6FF" d="M28.463,39.998l0.426,0.123C29.512,40.033,28.818,40.023,28.463,39.998z"/>
				<path fill="#A1F6FF" d="M12.071,38.889l-0.004,0.231l-0.005,0.03l-0.017,0.074c-0.006,0.027-0.023,0.065-0.045,0.111
					c0.002,0.057-0.018,0.146,0.056,0.223c0.064,0.039,0.041,0.073,0.268,0.098c0.25,0.025,0.566,0.039,0.985,0.039l1.292-0.057
					L14.167,39.7l1.556,0.159l-0.118-0.244l0.726,0.025c-0.073-0.019-0.433-0.023-0.741-0.037l0.876-0.021
					c0.285,0.029,0.645,0.057,1.144,0.051l0.337-0.016c0.555,0.041,1.033,0.085,1.231,0.197l0.189-0.092l0.875,0.088l-0.066-0.131
					c1.204,0.07,2.3,0.021,3.828,0.125l0.017-0.048l0.077-0.036c0.811,0.053,0.952-0.025,1.26-0.088l0.464,0.02
					c0.142,0.109,1.115,0.128,1.818,0.242c0.154-0.056,0.625-0.133-0.021-0.139c2.407-0.05,0.287,0.284,2.291,0.233L29.493,39.9
					l0.646,0.008c-0.4-0.016-0.702-0.096-1.071-0.159l0.202,0.013l0.027-0.082l0.152-0.004l0.303,0.014
					c0.327,0.033,0.47,0.127,1.655,0.104c-0.39,0.091-0.205,0.221,1,0.217l-0.5-0.104c1.238,0.026,0.356,0.167,1.4,0.172
					c0.234,0.056-0.283,0.196,1.154,0.204l0.404-0.067l0.096,0.021l0.98,0.119l-1.043-0.146c0.461-0.104-0.205-0.132-0.029-0.25
					c0.15,0.019,0.402,0.021,0.836,0.013l-0.299-0.07c1.408-0.002,1.932,0.223,3.611,0.186l-0.998-0.215
					c1.139,0.04,0.293,0.18,1.391,0.186c0.164,0.035-0.01,0.118,0.27,0.172l-0.572,0.088l-0.666-0.053
					c0.031-0.009,0.023-0.01-0.014-0.004l-1.098-0.131l0.318-0.029c-0.484-0.019-0.947,0.104-2.172,0.018
					c0.105,0.154,1.123-0.021,1.229,0.133l0.311-0.064c0.809,0,0.586,0.127,0.506,0.107c0.312,0.025,0.586,0.012,0.754-0.007
					c0.158,0.024,0.242,0.056,0.125,0.077h0.326l-0.771,0.104c0.027-0.029,0.027-0.064-0.166-0.089l-0.348,0.021
					c0.246,0.033,0.248,0.076,0.242,0.112l-0.201,0.037c-1.451-0.005-1.609,0.004-3.471-0.046c0.277,0.236-2.676,0.389-4.264,0.527
					l-0.979-0.08c-1.661,0.167-3.719,0.371-6.094,0.498l-0.254-0.036c0.005,0.026-0.019,0.044-0.062,0.056l-0.308,0.014
					c-0.119,0-0.244,0.002-0.35,0.021l-0.586,0.021c-0.229-0.061-0.419-0.121-1.152-0.11h0.438c-0.803-0.08,0.398-0.25-1.183-0.258
					l-0.753,0.222l-0.636-0.141c0.348-0.021,0.521-0.025,0.786-0.021l-0.272-0.015c0.219-0.08,0.067-0.112-0.252-0.131l0.054-0.055
					c0.636,0.137,1.946,0.084,2.316,0.213l0.236-0.138l0.594,0.021c0.819,0.061-0.519,0.188,0.767,0.224
					c0.073-0.079,0.778-0.069,1.044-0.062c0.51-0.187-0.815-0.146-1.812-0.157l-0.588-0.024l-0.006,0.004
					c-0.292-0.022-0.461-0.06-0.366-0.135l-0.944,0.131l-0.469-0.197c-0.219,0.183-1.963,0.025-1.052,0.17l-0.41-0.006
					c-0.299-0.146,0-0.345-2.071-0.305L14.972,40.9l-0.385-0.018l-0.079-0.045c-0.015,0.014-0.033,0.021-0.056,0.029l-1.597-0.072
					c-0.194-0.062-0.521-0.104-1.798-0.087l-0.116,0.024l-0.329-0.002c0.008-0.721,0.008-1.605-0.011-2.248
					c0.206,0.156,0.161-1.359,0.165-2.368c0.001,0.104,0.009,0.174,0.028,0.143c0.09,0.25,0.13,0.069,0.157-0.727
					c-0.049,0.009-0.069-0.341-0.1-0.862c0.228-0.387,0.356-0.32,0.513-1.924c0.101,0.42-0.087,0.627-0.006,1.582
					c0.059-0.273,0.107-1.159,0.146-1.779c-0.03-0.083-0.051,0.008-0.089,0.188c0.064-1.822,0.196,0.748,0.301-0.684l0.005,0.577
					v0.022c-0.015,0.379-0.041,0.701,0.018,0.975C11.801,35.965,11.962,37.35,12.071,38.889z M36.525,40.309
					c0.461,0.025,0.934,0.057,1.109,0.123C36.881,40.426,36.861,40.354,36.525,40.309l-0.605-0.025
					C36.215,40.28,36.391,40.293,36.525,40.309z M32.387,40.352c0.562-0.012,1.214,0.041,0.988,0.125l0.316-0.117
					c0.223,0.016,0.541,0.021,0.867,0.066l-1.166-0.156c-0.018,0.028,0.006,0.045,0.051,0.062c-0.785-0.032-1.549-0.127-2.059-0.196
					C31.477,40.195,32.699,40.285,32.387,40.352z M31.506,40.378l0.321-0.021c0.492,0.062-0.375,0.184,0.598,0.217
					C31.217,40.581,32.083,40.459,31.506,40.378z M28.297,39.947l0.166,0.048c0.354,0.026,1.049,0.036,0.426,0.125l-0.426-0.125
					C28.326,39.984,28.233,39.973,28.297,39.947z M28.98,40.186l1.152,0.159l-0.901-0.104L28.98,40.186z M27.788,40.277l1.069,0.143
					C28.278,40.34,27.724,40.395,27.788,40.277z M26.046,39.875c0.69-0.089-0.105-0.119-0.809-0.127
					C24.987,39.836,25.864,39.836,26.046,39.875z M20.304,39.8c0.646,0.009,1.375,0.034,0.745,0.118
					C20.879,39.882,20.074,39.882,20.304,39.8z"/>
				<path fill="#A1F6FF" d="M37.328,40.113l-0.383,0.035c1.219-0.028,0.227,0.177,1.285,0.105
					C37.92,40.209,37.41,40.155,37.328,40.113z"/>
				<path fill="#A1F6FF" d="M37.635,40.428c-0.178-0.068-0.648-0.096-1.109-0.119C36.861,40.354,36.881,40.426,37.635,40.428z"/>
				<path fill="#A1F6FF" d="M35.918,40.277l0.604,0.031C36.391,40.293,36.215,40.28,35.918,40.277z"/>
				<path fill="#A1F6FF" d="M28.463,39.998l-0.166-0.051C28.233,39.973,28.326,39.984,28.463,39.998z"/>
				<path fill="#A1F6FF" d="M37.795,40.357l-0.346,0.021c0.242,0.033,0.244,0.077,0.24,0.114l0.27-0.042
					C37.988,40.415,37.988,40.382,37.795,40.357z"/>
				<path fill="#A1F6FF" d="M38.445,40.245l-0.16,0.022c0.154,0.027,0.24,0.058,0.123,0.082h0.324l0.379-0.051L38.445,40.245z"/>
				<path fill="#A1F6FF" d="M38.23,40.26l0.178-0.015l0.025-0.003l-1.098-0.129h-0.008C37.41,40.155,37.92,40.209,38.23,40.26z"/>
				<path fill="#A1F6FF" d="M22.065,41.314c0.073-0.082,0.778-0.071,1.044-0.062c0.511-0.186-0.815-0.146-1.812-0.16
					C22.117,41.15,20.778,41.283,22.065,41.314z"/>
				<path fill="#A1F6FF" d="M18.099,41.051l0.055-0.058c0.636,0.139,1.945,0.086,2.315,0.214l0.236-0.135
					c-0.293-0.021-0.461-0.059-0.366-0.133l-0.945,0.133l-0.469-0.196c-0.219,0.179-1.963,0.026-1.053,0.169L18.099,41.051z"/>
				<polygon fill="#A1F6FF" points="21.297,41.092 20.709,41.068 20.703,41.072 				"/>
				<polygon fill="#A1F6FF" points="34.967,40.225 35.951,40.342 34.908,40.193 34.871,40.204 				"/>
				<path fill="#A1F6FF" d="M33.693,40.359c0.221,0.013,0.541,0.021,0.867,0.063l-1.166-0.155c-0.016,0.027,0.006,0.047,0.051,0.062
					l0.309,0.009L33.693,40.359z"/>
				<path fill="#A1F6FF" d="M25.237,39.748c-0.25,0.088,0.627,0.088,0.809,0.127C26.736,39.783,25.94,39.756,25.237,39.748z"/>
				<polygon fill="#A1F6FF" points="19.37,39.729 20.245,39.818 20.179,39.686 19.553,39.639 				"/>
				<path fill="#A1F6FF" d="M11.722,32.645c0.008-0.203,0.013-0.426-0.001-0.667l-0.005,0.066l0.005,0.577L11.722,32.645z"/>
				<path fill="#A1F6FF" d="M36.945,40.148l0.383-0.035l-0.01-0.002l0.02,0.002l0.32-0.027c-0.484-0.02-0.947,0.102-2.172,0.016
					c0.107,0.152,1.125-0.021,1.229,0.133l0.312-0.065c0.807,0,0.584,0.129,0.502,0.106c0.316,0.026,0.588,0.016,0.756-0.006
					l-0.055-0.01C37.172,40.325,38.164,40.12,36.945,40.148z"/>
				<path fill="#A1F6FF" d="M38.432,40.242l0.014,0.003C38.477,40.239,38.471,40.238,38.432,40.242z"/>
				<polygon fill="#A1F6FF" points="37.328,40.113 37.336,40.113 37.318,40.111 				"/>
				<polygon fill="#A1F6FF" points="38.432,40.242 38.408,40.245 38.23,40.26 38.285,40.268 38.445,40.245 				"/>
				<path fill="#A1F6FF" d="M32.424,40.579c-0.972-0.035-0.105-0.156-0.598-0.22l-0.321,0.021
					C32.083,40.459,31.217,40.581,32.424,40.579z"/>
				<path fill="#A1F6FF" d="M32.387,40.352c0.562-0.012,1.214,0.041,0.988,0.125l0.316-0.117c-0.107-0.006-0.193-0.016-0.248-0.025
					c-0.785-0.032-1.549-0.127-2.059-0.195C31.477,40.195,32.699,40.285,32.387,40.352z"/>
				<path fill="#A1F6FF" d="M33.693,40.359l0.061-0.021l-0.309-0.011C33.496,40.344,33.582,40.354,33.693,40.359z"/>
				<path fill="#A1F6FF" d="M17.393,41.234c0.07-0.073,0.714-0.064,0.958-0.055h0.001c-0.536-0.027-0.766-0.082-0.89-0.145
					l-0.773-0.006C17.439,41.087,16.214,41.207,17.393,41.234z"/>
				<path fill="#A1F6FF" d="M18.351,41.18c0.219-0.08,0.067-0.115-0.252-0.132l-0.021,0.026l-0.207-0.031l-0.409-0.005
					C17.585,41.1,17.815,41.152,18.351,41.18z"/>
				<polygon fill="#A1F6FF" points="18.099,41.051 17.871,41.043 18.077,41.074 				"/>
				<path fill="#A1F6FF" d="M13.734,41.018l0.069-0.074c0.584,0.127,1.784,0.078,2.125,0.195l0.215-0.127
					c-0.269-0.021-0.425-0.053-0.336-0.121l-0.867,0.121l-0.351-0.146l-0.135-0.007C14.087,40.986,12.574,40.848,13.734,41.018z"/>
				<path fill="#A1F6FF" d="M14.51,40.833c-0.014,0.011-0.034,0.021-0.057,0.026l0.135,0.006L14.51,40.833z"/>
				<polygon fill="#A1F6FF" points="16.148,41.012 16.144,41.014 16.688,41.032 				"/>
				<polygon fill="#A1F6FF" points="28.98,40.186 29.23,40.238 30.132,40.345 				"/>
				<path fill="#A1F6FF" d="M28.857,40.42l-1.069-0.141C27.724,40.395,28.278,40.34,28.857,40.42z"/>
				<path fill="#A1F6FF" d="M20.304,39.8c-0.229,0.082,0.577,0.082,0.745,0.118C21.677,39.834,20.949,39.809,20.304,39.8z"/>
				<path fill="#A1F6FF" d="M15.499,39.609l-0.588,0.019L15.499,39.609z"/>
				<path fill="#A1F6FF" d="M14.911,39.628l-0.31,0.013l-0.434,0.062l1.556,0.161l-0.119-0.246l0.727,0.026
					c-0.074-0.02-0.433-0.024-0.741-0.037l-0.093,0.006L14.911,39.628z"/>
				<path fill="#A1F6FF" d="M11.659,29.533c0.008-0.188,0.012-0.392,0-0.611l-0.004,0.06l0.004,0.531V29.533z"/>
			</g>
		</g>
		<g>
			<path fill="#BFD669" d="M10.737,34.619c0,0,7.084-4.616,14.759-2.952c7.674,1.665,26.459,0.59,26.459,0.59V46.57H10.737V34.619z"
				/>
			<g>
				<path fill="#4B8779" d="M51.891,30.739c-0.334-0.33-0.844-0.554-1.699-0.554c-3.191,0-2.213,4.224-6.438,4.224
					c-4.223,0-4.402-3.399-6.076-3.399c-1.676,0-2.268,2.163-3.555,2.163s-1.494-3.502-4.43-3.502c-2.936,0-3.915,3.915-5.254,3.915
					c-1.339,0-2.987-4.533-5.717-4.172c-2.73,0.36-2.679,3.966-5.202,3.966c-1.068,0-2.052-0.229-2.833-0.496v13.61h41.204V30.739z"
					/>
				<path fill="#48A843" d="M51.891,35.541c-0.502,0.594-1.135,1.031-1.906,1.031c-2.418,0-4.221-4.688-7.414-4.688
					s-3.658,4.068-7.934,4.068c-4.274,0-6.025-3.656-9.219-3.656c-3.193,0-4.43,2.627-6.851,2.163
					c-2.421-0.463-3.708-2.987-6.387-2.987c-0.521,0-1.023,0.114-1.494,0.296v14.724h41.203V35.541H51.891z"/>
				<path fill="#69B737" d="M50.502,40.246c-1.389-0.206-4.996-5.512-11.178-5.82s-8.602,5.614-12.774,5.46
					c-4.172-0.155-5.717-3.761-10.25-5.151c-2.851-0.873-4.663-0.566-5.614-0.219v11.978h41.218v-6.632
					C51.646,40.117,51.209,40.352,50.502,40.246"/>
			</g>
			<path fill="#A1B25B" d="M21.935,36.792c0,0,0.02-3.418-1.144-4.241"/>
			<path fill="#A1B25B" d="M22.635,36.309c0,0-1.141-1.123,1.072-3.982"/>
			<path fill="#A1B25B" d="M22.483,36.843c0,0-0.155-3.308-0.912-4.83"/>
			<path fill="#A1B25B" d="M28.054,38.675c0,0,0.02-3.419-1.143-4.241"/>
			<path fill="#A1B25B" d="M28.753,38.191c0,0-1.141-1.125,1.072-3.986"/>
			<path fill="#A1B25B" d="M28.601,38.725c0,0-0.156-3.308-0.912-4.83"/>
			<path fill="#A1B25B" d="M46.916,37.331c0,0,0.02-3.419-1.145-4.24"/>
			<path fill="#A1B25B" d="M47.615,36.848c0,0-1.139-1.121,1.072-3.984"/>
			<path fill="#A1B25B" d="M47.465,37.382c0,0-0.156-3.309-0.912-4.831"/>
			<path fill="#FFFFFF" d="M22.062,20.651c0.146-0.227,0.228-0.472,0.226-0.725c-0.009-1.18-1.734-2.122-3.854-2.106
				c-1.562,0.012-2.898,0.541-3.49,1.288c-0.998,0.102-1.755,0.583-1.75,1.162c0.004,0.644,0.955,1.161,2.122,1.153
				c0.102-0.001,0.201-0.01,0.3-0.02c0.706,0.428,1.719,0.693,2.85,0.686c0.133-0.001,0.263-0.005,0.39-0.014
				c0.337,0.401,1.072,0.678,1.927,0.672c1.167-0.008,2.111-0.539,2.105-1.184C22.885,21.19,22.558,20.862,22.062,20.651z"/>
		</g>
	</g>
</g>
</svg>
