<svg xmlns="http://www.w3.org/2000/svg" width="64" height="64" viewBox="0 0 64 64"><path opacity=".3" fill="#333" d="M57.5 14.826l-.188-1.776-.043-.414-.73-.043-1.405.032-1.064.035 1.047-.035c-.459-.031-.564-.077-.738-.121-.154-.045-.283-.095-.412-.142a3.137 3.137 0 0 0-1.05-.197c-2.36-.094-3.851-.029-5.226.083-1.289.104-15.366.237-17.069.321 1.704-.092 15.78-.242 17.069-.348-3.775-.078-17.791.343-21.589.454-.258.062-.562-.015-.919-.015h-.021l-.544.004c.15.013.245-.004.313-.004h.041c.415 0-1.198.301.292.362-.17-.042-.258-.046-.18-.079.587.041 1.422.101 1.681.165-.865.084-1.08-.092-1.45-.011-.536-.022-1.1-.038-1.357-.078-.075.071-.314.133-.59.193-.411-.083-1.807-.081-2.247-.148-.005.006-.02.013-.027.02l-.381-.018.138.111-.172.044c-.249-.006-.538-.016-.674-.049.063.035.267.065.465.091-.107.022-.217.042-.323.062-.399-.013-.794-.028-1.202-.044a1.048 1.048 0 0 0-.188-.078c.083-.034.05-.064-.322-.085.021-.004.047-.01.094-.014l-.161.003.049.01-.274-.012.188.148c-.251-.01-.667-.009-.837-.052a.513.513 0 0 0 .114.034l-.055-.001-.036.01c-.286-.014-.572-.027-.855-.054.059-.025.12-.277.176-.295l.019-.031c.089.018.253.03.668.034-.231-.022-.324-.076-.616-.118l.027-.043c-.05.011-.132.016-.306-.013l-.11.019a13.273 13.273 0 0 0-.375-.015c.123.009.219.02.295.028l-1.15.203.901.21c.052.014.107.055.16.07-.084.004-.188-.277-.322-.269l-.524-.312h-.019c-.087 0-.126.247-.17.215l.165.154-.178.059c-.111-.075-.283-.109-1.194-.13.249.006.415.018.743.002l-.601-.096-.197.021-1.148-.058-.085.037 1.158.033-.444.035c-1.332-.005-.573-.247-.935-.299-.335.023-.526.08-.667.054-.201-.029-.19-.011-.711-.038-.179.144-1.328.076-1.468.139.006.027.016.059.027.067l-.083 1.125-.008-.292c-.037.179-.06.409-.073.671l-.011.368-.004.248c-.001.152.003.317.004.485l.027.754c.03.028.213.074.213.138v.031c0 .09-.136.166-.134.234l-.095.479c.02-.089-.009-.171-.007-.279-.001.108-.026.191-.046.28l.029.23c-.007.046-.018.091-.024.15.017.013.026.039.036.063l-.03.186c.036.03.059.101.079.189l.005.144c0 .128-.001.245.011.316l.012.327-.057.48-.012-.18c-.165.485-.064 1.278-.104 2.188.07 3.308-.009 9.408.175 11.732-.028.168-.062.264-.1.205l.118.15c-.085.248-.107.896-.13 1.473-.017.025-.032.032-.05.01l.048.061c-.012.285.013.541.029.719.05-.248.084-.473.052-.616.008-.206.021-.37.033-.521.01.066.019.135.019.209a8.32 8.32 0 0 0 .041-.724l.012-.077.02.254-.073 1.099c.016.229-.037.483-.077.758.034.072.059.011.078-.146-.024.42.023.892.065 1.263.121.17.257.319.27.452-.031.312-.063.724-.14.533.082 1.237.106.381.193-.142.054.338.113.706.09 1.396l-.023.396a6.442 6.442 0 0 0-.062-.396c.007-.148.016-.31.016-.453-.18.022-.434.563-.426 1.18-.023.132-.055.189-.095.085.041.61.072.726.103.627a6.035 6.035 0 0 1-.018.485c-.008.093-.02.175-.033.246a.808.808 0 0 1-.07.229l-.011-.165-.114.678c.083.244.138.027.181-.351l.257 1.323a3.33 3.33 0 0 0-.04.32v.015c0 .026.01.015.025.021-.003.058-.012.102-.019.15a.321.321 0 0 0-.015-.044l-.012.229a.87.87 0 0 1-.069.219l-.012-.18-.126.74c.083.247.142.062.187-.296.042.393.095 1.252.161 1.667L9.884 46c-.015-.163-.032-.329-.032-.499-.135.89-.057.414-.006.658V46.964c0 .101-.032.199-.048.296l.048.336v.514c0 .222.119 1.098.064.966-.001.091-.061.181-.064.262v.308c0 .127.139.244.121.362-.057.396-.018.859-.063 1.438.075-.127.121.188.112.613.346.008.795-.279 1.128-.295-.306-.08-.554-.457-.848-.457h1.898c.362 1.288.713.494.995.56-.03-.003-.06.146-.091.145.573.069-.872.382 1.206.288-.007-.061-.275-.079-.646-.125.002-.02.018-.02.051-.035a170.42 170.42 0 0 1 4.515-.138c.383.099.721.179.887.206l.04.005c-.018-.021-.027-.03-.023-.05.805.135 1.618.238 2.633.193l2.182-.024a12.37 12.37 0 0 0 2.118.101c2.258-.007 18.103-.117 19.824-.084l-.085.021a29.059 29.059 0 0 1 1.546-.058l.062.037c1.279.074 2.117.084 3.119.107a.362.362 0 0 0 .095-.107 17.345 17.345 0 0 0 1.938-.113l.295.187c1.396.083 2.449.093 3.543.117.274-.212-.182-.479-.182-.747v-.439c0 .002-.078.008-.044.014.015-.135 0-.273-.012-.434l.056-.5v.004-.008l.008-.07c-.002.024-.006.021-.008.033v-1.047c0-.095-.004-.188-.006-.283 0 0 .006.012.006.006v-.344h-.006c-.007 0-.017-.416-.006-.744-.011-.053-.087 0-.095 0 .008 0-.021.061-.006.11l.004.13-.028-.158c.005-.229.009-.479.012-.768l.045.021c-.026.24.08.484.08.774v-.276c0-.191-.106-.377-.085-.558l.061-.091c-.016.129.024.175.024.303v-.964l-.016-.354h.013v.062l-.012-.079c.006-.025.004-.054.006-.082.016-.386.023-.816.046-.101.078-2.261-.088-.286-.13-2.013.227 1.041.273 2.414.636 3.147-.038-1.433.158-.667.226-1.821l.236.53c.023-.096.279-.356.279-.54v-.01l-.214-1.092-.476 1.402c-.015-.519-.064-.938-.039-1.312-.002-.012-.039-.018-.041-.022l.045-.625c.011-.452.021-.944-.027-.937.053-.037.029.472.021.937.078-.766.182-1.421.137-2.589l-.027-.058c-.027.735-.08 1.358-.208 1.896-.005.018-.008.022-.012.038.133-.545.188-1.183.218-1.937-.037-.069-.068-.092-.093-.079.026-.013.056.012.094.079l.028-.943c-.037.383-.139.566-.219.887l.024.064v.002c-.077.172-.13.434-.286-.514.006-.575.026-.873.063-1.023.059.275.13.523.228.723l-.005-.326c.226-.351.134-.387.416-1.551-.062-.383-.128.088-.209.571.013-.112.015-.267.005-.382l-.017.518c-.062.338-.124.729-.19.729h-.008c.023-1.288.161-.31.21-1.194l.043-1.027-.061.245.008-.144-.139.56c-.006-1.354.157-1.562.272-1.125-.051-2.07.265-1.304.101-2.904-.08.554-.229.934-.252 1.479l.01-.725-.039.157-.008-.455a.315.315 0 0 0-.058-.102c.076-.643.335.458.284-1.709-.012.725-.104.193-.173.024l.03-.212.119-.521c-.014-.08-.023-.123-.037-.13.074-.715.117-1.354.271-1.182.021.612-.041.771-.096 1.009.027-.085.062-.102.101-.105.086-1.766-.226-1.375-.196-2.447.014-.084.019-.181.016-.311l.011-.149-.017-.006c-.008-.133-.021-.292-.036-.493l-.048.257c.062-.886.076-4.866.088-5.583l.01-.053c.025-.081.059-.094.09-.099.038-.752-.004-1.074-.059-1.304.02-.317.039-.638.078-.971l-.186-.326.006-.065-.048-.014-.009-.013c.203-.305.343-1.219.439-2.133l.057-1.892v-.003l-.115-.102-.053.1c.02-.428.02-.76.083-.271-.025-.354.077-.457.057-.524-.021-.083.026-.043.026-.406v-.014h.01v.01zm-47.644-1.7c.003.111.016.203.027.294l-.015.11c-.003-.119-.006-.251-.012-.404zm.03.868l-.002.093c-.002-.064-.008-.128-.008-.198v-.04c0-.121.004-.256.011-.399.005.041.008.083.015.12-.006.124-.01.261-.016.424.026.14.045.194.06.183-.015.011-.034-.042-.06-.183zm.214-.992h.004l-.004.004v-.004zm-.007 24.173c-.003.001-.006.007-.01.013-.002-.086.002-.205.005-.332l.02.301c-.005.002-.011.004-.015.018zm.007 9.045c.016.069-.019.058-.052 0 .002-.004.005.007.008 0-.008-.04.01-.095-.001-.188.011.091.036.148.045.188zm-.24-2.518l.014-.185c.025.023.055.137.057.625.034-.137-.012-.287-.071-.44zm.306.739l.002.022v.009l-.002-.031.02-.281.002-.018-.022.299zm13.461-30.815c.207.112.388.194 1.255.281h-.003c-.866-.087-1.046-.169-1.252-.281zm30.355-.973c.025 0 .049.004.078.004l-.086-.004h.008zm-.38-.046a.5.5 0 0 0 .123.027c-.086-.005-.139-.012-.123-.027zm.076-.057c-.367.029-.334.048-.474.092.16-.053.079-.078.612-.113a1.77 1.77 0 0 0-.138.021zm-25.011 1.12c-.424-.015-.398-.052-.308-.096.265.022.353.051.308.096zm-.199-.661h-.002c-.138-.033-.224-.055-.223-.079-.001.024.086.046.225.079zm-.242-.263c-.007-.03-.123-.059-.449-.086l.13-.001c.26.027.339.056.319.087zm-.28.23c-.152-.017-.195-.037-.176-.057-.014.02.03.04.176.057zm-.122-.327l.036.003c-.047.001-.087-.002-.137 0l-.028-.002c.046-.003.082.001.129-.001zm-1.789.616h.124a.353.353 0 0 1 .026 0h.05c.098 0 .057.044-.061.016l.622.109c.098.062.171.188.288.266.494-.032.822-.054.815-.108l.137.006-.177.092h-.199c-.098.028-.057.052.061.072l-.622-.037-.289-.147c-.494.023-.821.038-.814.077-.041-.001-.073-.122-.109-.123l.148-.223zm-.7.21c.298.023.286.067.211.12-.359-.021-.415-.05-.236-.103-.015-.008-.003-.013.025-.017zm-.368-.037l-.14.021c.173 0 .302.004.409.01-.323 0-.681.002-1.005 0l-.419-.103c.41.009.792.041 1.155.072zm-1.405.005l.193.017c-.076-.002-.143-.007-.207-.011a.114.114 0 0 1 .014-.006zm-1.274-.297c.28.069.379.138.191.208-.53.003-1.017 0-1.483-.009.151-.059.421-.117 1.292-.199zm-9.923-.164zm-1.089-.003c.044-.016.063-.03-.015-.043l.051.001c.057.013.025.027-.017.042a1.431 1.431 0 0 0-.078.025h-.011a.434.434 0 0 1 .07-.025zM55.93 48.121v-.014c0-.017 0 0 .002.021l-.002-.007zm-.041-4.214c0-.376.041-.771.041-1.161v.145h.043c.014 0 .049-.406.055-.574.011.045.027.056.041.091-.008-.071-.006-.144-.012-.201.012-.003.025 0 .035.024a76.277 76.277 0 0 1-.064 1.613l-.084.479-.055-.416zm.123.236l-.019.299.003.022-.005.032-.036-.042.057-.311zm.14 6.651a6.047 6.047 0 0 1-.018-.296.586.586 0 0 0 .027-.122l-.009.418zm.01-.661l.047.279c-.027.14-.04-.017-.047-.279zm-.017-1.153c.002-.073 0-.131.006-.207l-.002.209a.3.3 0 0 1 .033.049c-.013.004-.017.01-.033.015l-.006.466c0-.044-.002-.09-.004-.123 0-.111.002-.228.006-.346-.029.012-.062.02-.062.023 0-.051-.015-.135-.021-.211.027.047.054.084.083.125zm.048-3.72c-.026-.072-.084-.134-.104-.188l.003-.445c.056-.063.096.25.101.633zm.448-1.09c.006 0 .008-.002.012 0a.108.108 0 0 0-.014.037l.002-.037zm-.498-3.565c-.004.037-.011.09-.017.164l.001.375v.008l-.001-.383c.005-.076.013-.127.017-.168v.004zm.516-7.741v.084l-.009.51c-.016.024-.028.042-.043.069l-.035-.574c.035-.014.067-.012.087-.089zm.025 6.971l-.06.033-.05-.613c.027-.021.059-.019.08-.038l.009.021.017.355c.002.004.006 0 .008 0l-.004.242z"/><path fill="#BCC0C4" d="M53.113 44.301c.014-.109.021-.301.021-.66l-.029.584.008.076zM53.355 47.495c-.09.676-.043-1.521-.129-1.046.055.328-.047 1.74.071 1.062l-.022.688.08-.704zM53.355 47.495c.008-.062.017-.136.023-.247l-.023.247zM9.553 9.756c.081 0 .136.004.18.01.073-.005.144-.01.234-.01h-.414zM54.102 44.07c.015-.141.021-.307.015-.514l-.015.514zM54.034 45.464c-.054 1.364-.31 1.04-.382-.034-.03 1.271.199 1.235.053 2.521l.174-.025-.074.725c.057-.215.127.434.215.072-.207.389.086-2.635-.188-1.51.203-.83.236-1.849.27-3.143-.043.414-.151.619-.236.973l.168.421zM15.659 10.237l.921-.012c-.494-.004-.772.001-.921.012zM13.278 9.863c1.004.079.203.161 1.378.17-.366-.033-.383-.15-1.378-.17zM7.277 44.301c-.039.243-.096.178-.103.926.035-.312.073-.569.116-.834l-.013-.092zM7.174 45.243l.003.71c.018.146.033.221.044.248.003-.472.054-1.03-.047-.958zM7.267 44.225l.011.076c.018-.111.03-.301.032-.66l-.043.584zM7.01 43.898c.092-.375-.025-.812-.025-1.264-.184 1.203.023-.09.025 1.264zM13.75 49.343c.622.077-.952.333 1.315.23-.015-.091-.623-.189-1.315-.23zM54.121 42.381l-.021.547c.023-.095.033-.367.021-.547zM54.337 28.892c-.019.08-.035.164-.05.276l.05-.276zM54.27 25.83l-.006.047.097.03z"/><path fill="#BCC0C4" d="M54.637 13.18v-.003l-.115-.102-.055.1c.021-.427.021-.76.085-.269-.022-.354.079-.457.058-.524-.021-.083.027-.043.027-.406v-.014l-.188-1.776-.045-.414-.729-.044-1.405.032-1.064.034H51.2l-.091-.003.09-.006c-.27-.012-.49-.011-.461-.041.031.022.229.05.461.05h.005l1.049-.034c-.459-.031-.563-.077-.737-.121-.156-.045-.285-.095-.414-.142-.258-.093-.521-.176-1.05-.197-2.36-.094-3.852-.029-5.225.083l1.06.03c1.098.044.961.376 2.297.455-1.336-.08-1.201-.411-2.297-.455l-1.06-.03c-1.291.104-15.367.237-17.07.32 1.704-.092 15.779-.242 17.07-.348-3.775-.078-17.789.343-21.589.454-.258.063-.562-.015-.92-.015h-.021l-.545.041c.172.014.283.02.349.037-.133-.003-.264-.015-.412-.004l.063.002.355-.004c.415.111-1.198.265.292.326-.171-.043-.258-.063-.181-.097.588.041 1.422.093 1.682.156-.865.083-1.08-.096-1.449-.016-.536-.023-1.101-.041-1.358-.08-.075.072-.314.133-.59.192-.411-.083-1.807-.082-2.247-.15-.005.006-.02.013-.027.019l-.381-.018.138.111-.172.044c-.249-.006-.538-.016-.674-.049.063.034.267.064.465.091-.107.022-.217.042-.323.062-.399-.013-.794-.029-1.202-.044a.97.97 0 0 0-.188-.079c.083-.034.05-.064-.322-.085a.68.68 0 0 1 .094-.015l-.161.003.05.01-.274-.012.188.148c-.25-.01-.666-.009-.837-.052a.513.513 0 0 0 .114.034l-.055-.002-.036.011c-.286-.015-.572-.027-.855-.054.06-.024.12-.277.176-.295l.147-.237h-.14c.187 0 .28.143-.213.064l-1.34.237.902.21c.052.013.106.056.16.07-.086.004-.189.027-.322.035l-.528-.005-.506-.015v.001l.506.018c-.105-.027-.139-.061-.188-.096l.165.003-.178-.017c-.11-.075-.283-.148-1.194-.169.249.008.415 0 .742-.015l-.6-.106-.196.016-1.148-.061-.085.035 1.158.032-.444.035c-1.332-.005-.573-.248-.935-.299-.335.023-.526.08-.667.054-.201-.03-.19-.012-.711-.039-.179.144-1.328.077-1.468.139.006.028.016.06.027.067l-.083 1.125-.008-.292c-.037.18-.06.409-.072.671l-.017.374-.003.248c-.002.152.002.317.003.485l.027.754c.029.028.212.074.212.137v.032c0 .09-.135.166-.134.234l-.093.48c.02-.088-.008-.171-.007-.279-.001.108-.026.192-.045.281l.029.229c-.007.046-.018.091-.024.15.017.013.025.039.036.063l-.029.186c.036.029.059.1.079.189l.005.144c0 .127-.002.245.011.316l.012.327-.057.479-.009-.178c-.165.484-.064 1.278-.105 2.188.07 3.307-.008 9.408.176 11.732-.028.168-.062.264-.1.207l.118.15c-.085.249-.107.898-.13 1.473-.017.024-.032.032-.051.008l.048.062c-.025.604.109 1.102.001.904.064.324.106.271.133.045-.053.914.236 2.114.069 1.815.176.881-.459-.748-.405-1.66.047.115.08.271.079.443.054-.521.272-1.15.203-1.447.007-.207.02-.371.033-.521.01.065.018.135.018.208a7.61 7.61 0 0 0 .041-.72c.004-.027.007-.055.012-.082l.02.254-.073 1.098c.027.388-.146.847-.118 1.326-.053.438.429.739.454.993-.031.312-.063.725-.14.537.083 1.234.106.38.193-.144.054.336.113.705.09 1.396l-.023.395a4.729 4.729 0 0 0-.062-.395c.007-.15.015-.311.015-.452-.18.024-.434.565-.426 1.183-.023.129-.054.188-.096.082.042.614.072.725.103.624a5.972 5.972 0 0 1-.018.486c-.008.093-.02.177-.033.248a.845.845 0 0 1-.07.231l-.01-.166-.114.68c.082.24.137.024.18-.354l.256 1.323c-.064.427-.046.346-.015.354-.017.238-.05.438-.113.559l-.012-.182-.126.739c.137.4.204-.325.259-1.11.026.024.056.137.057.623.082-.332-.263-.717-.271-1.108.026-.363-.064-.683-.032-.854.025.385.214.92.214 1.229v.007l-.042.902c.062.542.14 2.111.257 1.904-.008-.041.01-.096-.001-.188.011.095.036.146.045.188.028.127-.115-.013-.101-.22l-.158-.003v.509-.433.89c0 .101-.032.199-.048.296l.048.336v.512c0 .221.118 1.099.064.966-.001.098-.073.19-.068.274.036-.121.004-.24.004-.354v.079c0 .053.01-.058.013-.216 0-.008-.013-.016-.013-.021v.804c0 .127.139.248.121.363-.057.397-.018.86-.063 1.44.075-.128.122.188.112.61.346.008.795-.277 1.128-.295-.307-.08-.555-.455-.849-.455h1.898c.362 1.286.714.491.995.56-.03-.003-.06.146-.091.143.572.071-.872.384 1.206.29-.007-.058-.275-.08-.646-.126.003-.019.019-.019.052-.032 1.432-.072 2.954-.105 4.514-.141.383.1.722.178.888.206l.04.005c-.019-.02-.027-.031-.023-.051.805.134 1.618.238 2.633.195l2.182-.026a12.46 12.46 0 0 0 2.118.103c2.259-.008 18.104-.119 19.823-.086l-.082.029a28.899 28.899 0 0 1 1.545-.057l.062.037c1.277.076 2.115.082 3.119.106a.297.297 0 0 0 .093-.106 17.537 17.537 0 0 0 1.938-.112l.295.187c1.396.082 2.447.092 3.541.116.277-.213-.182-.479-.182-.747v-.439c0 .003-.076.01-.043.013.026-.253-.039-.537-.031-.935.006-.45-.021-.983.017-1.653l-.015 1.226.078.438v-1.421c0 .021-.137.041-.136.052 0-.158-.063-.495-.062-.646.002.147-.028.299-.028.299h-.021c-.002 0 .242.356.242.347v.276c0-.396-.021-.768-.011-1.217-.011-.054-.088-.074-.097-.074.009 0-.018.021-.006.074l.004.11-.026-.168c.015-.524.007-1.161.056-2.079l-.145 1.268.146.059c-.028.24.076.484.076.773v-.278c0-.19-.104-.375-.082-.554l.062-.094c-.019.131.022.176.022.305v-1.231c0 .002-.133-.002-.127-.019l.057-.188c0-.06.07-.106.07-.16v-.569c0-.1-.139-.184-.137-.252l-.066-.026c-.008.188-.043.496-.037 1.013l.109.19c.021.125.133-.015.133-.22v-.006.508l-.054-1.17c.015-.017-.024.026-.006.166l-.063-.384.004-.493c.101-.104.146.967.047 1.529.074 1.16.066-1.55.111-.203.076-2.259-.088-.287-.131-2.013.227 1.041.274 2.414.635 3.147-.037-1.438.16-.651.229-1.841l.042-1.09-.344 1.402c-.014-.521 0-.94.022-1.315-.003-.007-.009-.015-.011-.021l.07-.631c.013-.449.031-.941-.021-.936.056-.036.033.475.024.936.08-.765.186-1.418.142-2.584l-.026-.062c-.027.737-.08 1.36-.207 1.896-.004.021-.006.023-.014.041.137-.545.188-1.186.221-1.938-.037-.066-.067-.09-.096-.08.027-.01.059.016.096.08l.026-.941c-.032.383-.137.565-.216.889l.023.062v.005c-.078.17-.129.433-.285-.516.005-.576.027-.873.062-1.021.061.272.133.521.229.723l-.004-.327c.225-.351.135-.39.416-1.55-.058-.383-.129.089-.209.57.011-.112.015-.269.004-.382l-.019.52c-.057.336-.12.729-.188.729h-.008c.026-1.286.16-.309.211-1.192l.043-1.026-.062.242.006-.146-.144.56c-.004-1.354.158-1.561.275-1.125-.054-2.068.264-1.303.098-2.902-.08.552-.229.933-.25 1.479l.01-.726-.037.156-.008-.456a.37.37 0 0 0-.055-.101c.072-.643.334.459.283-1.708-.013.725-.104.194-.177.024l.032-.213.117-.519c-.014-.081-.023-.121-.036-.13.073-.715.116-1.354.272-1.181.021.612-.041.771-.098 1.009.029-.085.064-.102.102-.105.086-1.766-.227-1.376-.195-2.447.013-.085.018-.181.016-.311l.012-.15-.015-.006c-.007-.133-.02-.292-.038-.493l-.045.257c.063-.886.076-4.866.086-5.583l.011-.053c.026-.082.061-.094.088-.099.039-.752-.002-1.075-.056-1.305.017-.317.039-.638.077-.971l-.184-.326.006-.065-.049-.014-.008-.015c.201-.305.344-1.219.438-2.133l.061-1.89zm-1.503 28.422l-.007.03-.033-.042.053-.312-.015.301.002.023zm-32.371-30.84c.207.112.388.195 1.255.28h-.004c-.865-.085-1.045-.168-1.251-.28zm1.708-.151c.298.023.286.067.211.12-.359-.021-.415-.05-.236-.103-.015-.007-.004-.013.025-.017zm3.026.099c.264.021.353.051.308.095-.424-.015-.4-.051-.308-.095zm-.592-.655c-.015.021.03.04.176.057-.151-.017-.195-.037-.176-.057zm.472.011c0 .023.087.045.226.079h-.002c-.138-.034-.226-.056-.224-.079zm-18.141.073h.003l-.003.003v-.003zm17.601.942h-.263.263zm28.425 26.825c.006-.077.012-.127.018-.167v.002c-.009.04-.012.091-.018.165l.002.373v.01l-.002-.383zM26.254 9.78c.062-.005.125-.008.183-.018a2.14 2.14 0 0 1-.183.018zm-.893.102c-.007-.029-.123-.059-.448-.086l.13-.002c.259.028.339.057.318.088zm-1.141.909c.494-.032.822-.054.815-.108l.137.006-.176.092h-.2c-.098.028-.057.052.061.072l-.622-.036-.289-.148c-.493.023-.821.039-.813.078-.04-.001-.072-.122-.109-.123l.149-.227h.124c.028 0 .057.005.065.007-.009-.002-.027-.007-.04-.007h.05c.097 0 .057.045-.061.017l.622.109c.096.065.17.191.287.268zm-1.848-.187c-.324 0-.681.002-1.005 0l-.42-.103c.411.009.792.041 1.156.072l-.14.021c.173.002.304.005.409.01zm-1.48-.008c-.076-.002-.143-.008-.208-.011l.013-.006.195.017zm-12.461-.482c-.025.008-.055.017-.077.026h-.012c.018-.008.045-.017.069-.025.044-.016.064-.03-.014-.043l.05.001c.057.012.027.025-.016.041zm-1.394.59l-.015.425c.026.14.043.194.059.183-.016.012-.035-.041-.061-.183l-.001.094c-.002-.065-.007-.128-.007-.199v-.04c0-.121.004-.256.011-.399l.014.119zM7.3 41.579l.021-.283.002-.019-.023.302.003.021v.006l-.003-.027zM50.95 9.663c-.058.008-.103.016-.138.022-.463.036-.273.055-.619.128.377-.078.109-.106.757-.15zm-25.991.121a.396.396 0 0 1 .036.004c-.047.001-.087-.002-.138 0l-.027-.002c.047-.003.083.001.129-.002zm-5.342.706c-.53.004-1.018 0-1.484-.009.151-.06.421-.118 1.292-.199.279.069.379.138.192.208zm-7.483-.219a5.444 5.444 0 0 1 .003 0h-.003zm-2.087-.094a3.067 3.067 0 0 1-.547-.059h.001c.11.03.311.048.546.059zm-3.028.381c-.004.039-.01.072-.015.11-.002-.12-.006-.252-.012-.405.004.112.016.202.027.295zm.205 23.431l.02.3c-.005.005-.011.008-.015.021-.004.002-.006.006-.01.01-.003-.084.002-.202.005-.331zm45.842 11.275l-.002-.007v-.014c0-.011 0 0 .002.021zm.097-4.284l-.084.476-.056-.413c0-.376.043-.771.043-1.161v.144h.041c.018 0 .05-.402.056-.571.009.046.026.054.042.088-.012-.067-.008-.144-.014-.2.014-.003.024 0 .037.027a70.987 70.987 0 0 1-.065 1.61zm.612.327c.004 0 .009-.004.013 0a.133.133 0 0 0-.015.035l.002-.035zm.053-2.06c-.012-.001-.021-.009-.031-.024.01.015.019.023.031.024zm-.068-2.243l-.049-.613c.027-.02.057-.019.08-.039l.008.023.016.355c.004.002.01 0 .013 0l-.003.237-.065.037zm-.015-6.342l-.035-.575c.033-.01.063-.009.084-.086v.083l-.008.51-.041.068z"/><path fill="#FFF" d="M8.266 11.081h45.082v37.354H8.266z"/><g fill="#FFF"><path d="M51.498 41.307l-.01.082-.008.293c.115.338.084 1.014.054 1.905.034 0 .069-.078.088.239-.071 1.417 0 .708.067 1.73 0-.313-.008-.713.024-.867l.033 1.968c.065-.271.144-.493.194-.164.138-.2.301.45.441.692.02-.354.037-.635.055-.766.061.045.084.385.095.795l.004.858c.019-.159.032-.317.062-.24V46.65c.016-.035.024 0 .032.072l-.032-.305-.031.232c-.027.08-.045-.076-.062-.232-.011-.312.018-.396.033-.554l-.062-.63c-.104-.236-.062 1.656-.158.63l.027-.312c-.027-.473-.027-1.101-.098-1.418.125-.474-.098-1.339.07-1.419.08-1.81-.053-4.172.125-5.982-.116-.312-.336-.312-.478-1.102.021-.154.037-.396.062-.314l-.062-.549c0 .312.013.709-.032.863-.056-.863-.101.396-.158.316l-.062-1.184-.021.143-.203 6.338.011.064z"/><path d="M46.607 10.548l.021.131c-5.526.102-11.646.121-18.111.098l-20.942-.142-.095 13.909-.02 13.09-.489-.545.24 5.435.109 2.779.112 3.648 2.768-.082 1.871-.086 3.568-.194-2.167-.085c1.985-.271 7.057-.445 10.184-.385l-.309.131c-4.287.07.292.039-1.445.391l-.745.066.436.061.745-.062c-.083.071-.019.169-.723.192l.994.017c2.137.351 2.142.646 1.874 1.036.56-.049-.023-.432 2.36-.305l-.312.129 2.607-.229 1.162.168c.93-.08 1.53-.168 2.484-.117l.289-.257c4.266.097 9.649-.204 13.977-.014.951-.249 3.273.081 5.693-.132l-1.039-.274c-2.612-.372-8.722-.178-12.947-.312l.166-.146c.888-.041 1.529-.164 2.627-.092l.289-.258c-1.853-.906-7.618.191-9.153.062-3.25-.251 2.127-.552.573-.516 3.581-.349-2.988-.644-4.503-.938-2.106-.302-5.471-.375-9.007-.371l-9.597.09c-.074.027-.17.062-.284.086a1.682 1.682 0 0 1-.08-.314c-.003-.027-.006-.002-.008-.08l-.008-.221-.015-.446-.025-.896-.054-3.687c-.013-2.491.014-5.053.057-7.581.084-5.055.23-9.995.224-14.079.021-1.113-.036-2.409-.113-3.76l-.126-2.05-.115-.736c.156-.027.337-.047.522-.057l.608-.006.737.014c.951.031 1.77.122 2.377.306l7.727.162-.165.146c7.519.048 15.817-.306 22.836-.416 3.065-.032 3.995-.412 5.387 0l.763.03.388.011.114.011a3.9 3.9 0 0 0 .317.022l.048 2.545.133 4.124c.102 2.741.209 5.437.229 7.914.133-.021.271.805.343-.293-.162-3.042.165-6.546.522-6.653l-.034 1.139.291-2.032-.113-1.306c.088-.333.157-.483.215-.505a53.42 53.42 0 0 1 .295-3.2c.062-.559.125-.975.188-1.667l.177-2.347-.057-.003-1.812.048-1.633.017c-1-.005-2.112-.044-3.401-.131z"/></g><path fill="#BCC0C4" d="M54.055 36.671l-.012.474c.012-.129.018-.282.012-.474zM53.971 41.409c-.078.147-.078-.241-.068-.679l-.059.647c.037.1.08.227.127.032zM11.085 9.93c.922.072.187.148 1.265.157-.333-.032-.35-.138-1.265-.157zM7.171 45.243h.001l.002-.016zM54.198 17.188l-.003.045.089.025z"/><path fill="#A1F6FF" d="M10.842 13.657h39.93v24.474h-39.93z"/><path fill="none" d="M47.688 13.967c-.01-.07-.554-.15-1.172-.182.554.059-.846.262 1.172.182zM18.944 13.697l.842-.038c-.688-.072-1.949-.124-2.525-.197-.96.118 2.294.061 1.683.235zM10.476 27.847c.057.1.112-.01.168-.266l-.053-.563c-.048.131-.081.485-.115.829zM25.854 13.744l.386.02.107-.017zM21.09 13.614l.332-.014-.182-.054c-.184.024-.201.046-.15.068zM10.419 20.422l-.046.214c.012.116.023.183.033.215l.013-.429zM27.233 13.797l-.099.029.446.02a3.152 3.152 0 0 0-.347-.049zM10.547 21.22l-.048-.233-.016.479c.02-.046.042-.144.064-.246zM28.241 13.873a2.333 2.333 0 0 1-.409-.063l-.062.043.471.02zM10.362 19.4l-.002.017-.003.434a7.66 7.66 0 0 0 .145-.774c-.054.128-.098.149-.14.323zM32.616 13.693c.135.026.374.047.569.069l.707.043c-.113-.027-.188-.062-.197-.119l.434.012-.75-.116a5.82 5.82 0 0 0-.438.009c-.307.043-.392.075-.325.102zM32.518 13.657a.312.312 0 0 0 .131-.04l-.104.012c-.027.01-.033.021-.027.028zM29.472 13.366l-.385.091c.477-.017.718-.057 1.022-.093a8.41 8.41 0 0 0-.637.002zM10.508 15.142l-.013-.036-.076 1.098c.028-.115.066-.161.12-.102l.02-.247.017-1.396-.008-.121c-.026.168-.048.431-.068.702l.008.102zM12.669 13.245l.367.08c.163-.031.266-.066-.367-.08z"/><path fill="none" d="M13.254 13.371l-.218-.047c-.194.035-.477.063.218.047zM11.832 13.739a2.82 2.82 0 0 1 .331-.022l-.384-.003c.037.005.051.015.053.025zM10.61 16.005l-.016.174.015-.105zM25.138 37.588c-.032.027-.025.047.001.066l.952.019-.052-.007c-.213-.046-.354-.094-.901-.078zM10.354 17.219v.012l-.004.401.003-.009z"/><path fill="#A1F6FF" d="M45.796 37.794l.5.013a3.657 3.657 0 0 0-.5-.013zM47.615 38.188c1.232.026 1.199-.172 2.445-.045l-.021-.146.699.062c-.209-.05.419-.106.07-.186.379.178-2.558-.074-1.463.161-.81-.175-1.8-.2-3.055-.229.4.033.604.133.938.202l.416-.147c1.331.046 1.014.266-.029.328zM10.321 19.999l.036-.148.003-.434zM10.595 17.228l-.011.885.062-.741c-.017-.018-.032-.076-.051-.144zM10.582 14.233l-.013.103.009.122zM10.6 13.89l.123.241a.49.49 0 0 1 .067-.134c-.034-.066-.072-.224-.105-.153l.001-.097.366.007-.176-.077-.273-.011-.003.224zM10.691 17.395l.011-.14-.015.06zM10.561 15.855l-.02.247c-.054-.059-.091-.014-.12.102l-.067 1.016-.001.403c.083-.329.159-.88.241-1.441l.016-.176-.001.069.031-.209.083 1.059.075-1.127-.17-.322.006-.37-.077.933.004-.184z"/><path fill="#A1F6FF" d="M10.76 13.629l-.197-.074-.063.006.044.492c.015-.15.023-.29.026-.423l.19-.001zM10.36 19.402v.015l.002-.017zM10.408 18.158l-.053.238.004.625a8.33 8.33 0 0 0 .049-.863zM10.852 13.932c-.024.017-.042.041-.063.066.026.048.048.055.063-.066zM10.607 18.656a1.945 1.945 0 0 1-.107.419 7.696 7.696 0 0 1-.144.774c-.006.434-.022.826-.055 1.116l.068-.312-.002-.076.006.059.046-.214-.014.429c.038.123.071-.282.113-.565.013-.347.028-.689.057-1.03l.051.17-.006-.677a.43.43 0 0 0-.013-.093z"/><path fill="#A1F6FF" d="M10.619 18.606l.002.143c.008.115.012.333.009.684.05.18.079.271.146-.208l-.102-1.301-.13.876c.026-.118.049-.208.064-.143l.011-.051zM10.482 21.466l.015-.479c-.046-.216-.084-.302-.091.632l-.019-.471c-.027.354-.063.449-.088.921.006-.008.014-.015.02-.013.075-.56.146-.414.247-.768l-.021-.07c-.02.104-.042.202-.063.248zM10.652 21.068l.01.896c.004-.481 0-.752-.01-.896zM10.652 21.068l-.002-.157-.01.048v.018c.004.02.009.044.012.091zM10.418 24.196c.002-.394.011-.614.023-.731l-.054-.135.031.866zM10.668 23.56l.016-.371-.095.134a.991.991 0 0 0 .079.237zM10.594 22.503c-.031.062-.055.258-.08.452l.037.203c.006-.243.013-.523.043-.655zM10.357 14.8c-.071.285-.126.747-.087-.317l-.022-.115a.364.364 0 0 1-.054.11c.002.271.012.625-.044.546.09.25.14.68.032 1.4.157-.188.14-.965.165-1.333l.01-.291zM10.5 15.039l-.004.067.012.036zM10.194 14.456l.027-.208c-.025-.092-.028.03-.027.208zM11.695 13.374l-.235-.051c-.201.038-.49.069.235.051zM11.036 13.236l.424.086c.17-.032.302-.068-.424-.086zM10.722 13.437l.174-.011-.619-.089-.001.01.004-.006c.076.022.323.057.442.096zM10.334 13.504l.071.056-.006-.1.178-.013c-.018-.027-.107-.038-.237-.046l-.006.103zM10.826 20.094c.029-.354.129-.372.146-1.339-.067.974-.137.196-.146 1.339zM10.888 15.609l-.03-.084-.038 1.5zM19.315 13.826c.059-.029.01-.054-.088-.078-.098.023-.098.049.088.078zM17.671 13.421c-.249-.021-.363-.017-.429-.004l.197.026.232-.022zM21.09 13.614c-.051-.022-.034-.044.149-.069l-.023-.008a7.001 7.001 0 0 1-1.087-.055l.468.141-.664.029c-.012.004-.015.009-.031.014l1.188-.052z"/><path fill="#A1F6FF" d="M18.944 13.697c.61-.173-2.644-.116-1.683-.234l-.107-.016c-.055.027-.106.062-.346.076l-1.073-.137c-.051.155 2.907.222 3.492.364.148-.034.521-.054.844-.053l-.284-.038-.843.038zM20.251 13.702c.208.008.365.031.372.071.538-.011.75-.027.805-.046-.082-.08-.85-.071-1.177-.025zM20.129 13.483l-.084-.028c.002.011.038.018.084.028zM19.614 13.359c.122-.027.157-.046.061-.031l-.43.014c.108.012.233.017.369.017zM18.734 13.416l-.271.025.093.03c.307.003.599-.03.819-.066l-.187-.059c-.433.018-.829.035-1.094-.023l.269.086c.065-.011.166-.012.371.007zM12.042 13.966c-.212-.003-.367-.007-.342-.016l.342.016 1.057-.015-.905-.151c.174.012.314.012.441.005-.122-.022-.196-.046-.182-.076l.265.009-.335-.022-.221-.002c-.126.002-.235.01-.331.022 0 .024-.104.048-.151.071l.203.057c-.241-.015-.25-.035-.203-.057l-.12-.031c-.199.047-.296.101-.601.066.33.074.426.125.643.175l1.187.168c.098-.103.536-.111.993-.134l-.603-.087c-.042.092-.665.034-1.137.002z"/><path fill="#A1F6FF" d="M12.042 13.966c.472.03 1.097.09 1.137-.002l-.069-.01-1.068.012z"/><path fill="#A1F6FF" d="M13.109 13.954l-.01-.001-1.057.013zM11.7 13.951c-.025.009.13.015.341.016l-.341-.016zM20.368 13.813c1.414.066-.682.14.9.146.249-.087-.199-.137-.9-.146zM37.73 13.739l.174-.01-.816-.179-.174.011zM25.817 13.593a1.657 1.657 0 0 1-.273-.062c-.393-.077.436-.257-.937-.133.602.085.099.188 1.21.195zM27.338 13.463c-.574.02-.286.121.182.181l.306-.006c-.262-.047.016-.135-.488-.175zM36.534 13.344l-.368.007.143.008zM39.729 13.626c.234.033.174.081.897.089l-.81-.101-.087.012zM40.646 13.714l.688-.002c.141-.016.214-.028.241-.038-.458-.003-1.002-.047-.929.04zM40.771 13.494l-.164.022.056.001zM39.086 13.599l.564.037.076-.009a5.105 5.105 0 0 0-.64-.028zM32.848 13.888c.594-.035.704-.062.61-.088l-.692.005c.125.021.184.047.082.083zM33.186 13.762c-.193-.022-.435-.043-.567-.069.067.027.283.049.567.069zM30.562 13.601c-.078.027.002.05.141.069.327-.046.686-.097 1.353-.078-.473-.029-1.011-.068-1.494.009zM34.168 13.843a2.333 2.333 0 0 0-.241-.028c.07.012.152.021.241.028z"/><path fill="#A1F6FF" d="M34.889 13.483l1.674.087c.319.003.492.013.59.027l.586-.075-.475-.022c-.104-.118.938-.18 1.48-.063 1.127-.091-1.506-.086-.199-.137-2.473-.105.291.158-2.781.165-.434-.043-.289-.074-.002-.094-.465-.017-.944.032-.873.112zM33.21 13.558l-.269.035c.145-.009.291-.011.438-.009l-.169-.026zM36.723 13.96l-.175.009.718.108c.389-.118-.315-.175-1.08-.224l-.004.007c.231.016.423.045.541.1zM38.598 13.6h-.002.49l-1.137-.066c.028.035.389.049.649.066zM34.615 13.774l-.487-.074-.435-.012c.01.055.084.093.197.119l.658.049 1.285-.006-.167-.021.044-.001a10.297 10.297 0 0 1-.828-.07l-.267.016zM30.111 13.365l.144-.015a8.073 8.073 0 0 0-.698-.003l-.084.021c.296-.011.504-.011.638-.003zM31.322 13.384l.461-.109c-.552-.006-.653.01-.648.035l.102-.001c-.091.047-.04.068.085.075z"/><path fill="#A1F6FF" d="M37.15 13.597l-.066.009-.521-.035h-.449c.337.055.236.089-.025.113l.876.136c.524-.054 2.052-.071 1.851-.171l-.188.025c-1.383.022-1.207-.04-1.478-.077zM32.443 13.436l.122-.033c.211-.077.399-.068.672-.056a.154.154 0 0 1 .048-.035 9.94 9.94 0 0 0-1.364.078c.204.001.402.011.522.046zM32.518 13.657c-.004-.008 0-.018.026-.027l.104-.012.008-.004-.215-.002a4.896 4.896 0 0 0-.386.054c.178.007.343.01.463-.009zM33.516 13.449l.981-.019c-.34-.054-.976-.012-1.192-.042-.071.015-.043.036.211.061zM34.99 13.354a1.053 1.053 0 0 0-.262.06c.184-.018.245-.038.262-.06zM29.309 13.364l-.141.016.112-.005a.09.09 0 0 0 .029-.011zM30.478 13.583l-.341-.015c-.101.045-.181.083-.113.1-.012-.021.104-.046.454-.085zM30.033 13.676c-.185.004-.501-.019-.817.001.51.062.831.062 1.102.039a1.713 1.713 0 0 1-.285-.04zM26.347 13.747c.13-.015.299-.021.483-.019-.29-.036-.521-.066-.95-.054l-.268.05.242.021.493.002zM25.284 13.785c.072-.017.197-.028.354-.035l-.117-.01-.237.045zM27.675 13.919l.059-.042-.065-.001c.024.014.032.027.006.043zM27.58 13.846l.189.006.062-.043-.505-.03-.094.018c.144.015.268.03.348.049zM29.238 13.81l.267.027a1.186 1.186 0 0 0-.267-.027z"/><path fill="#A1F6FF" d="M29.238 13.81c-.507-.046-1.118-.059-1.406 0 .091.027.239.048.409.063l.415.028c.89.047 2.054.039 1.765.182.854-.151-.727-.159-1.611-.206.11-.041.261-.067.428-.067zM32.467 13.442l.097-.04-.121.034zM41.292 13.463c.985.117 1.438.215 2.242.294-.107-.119.784-.022 1.31-.053-.917-.246-1.69-.125-3.552-.241zM46.13 13.472c-.008-.013-.063-.031-.192-.058l.795.028-1.072-.136c1.432.166-1.393.082-.848.2.271-.057 1.301.02 1.318-.028l-.458-.035.457.029zM38.109 13.877c1.168.156-.09-.02 1.229-.023-.365-.078-.786.022-1.229.023zM49.684 13.504l-.668-.046c.252.028.505.041.668.046zM49.684 13.504l.703.059c-.035-.013-.037-.025-.029-.039l-.238-.032a5.133 5.133 0 0 1-.436.012zM50.08 14.205c.037-.029.079-.129.115-.292a1.742 1.742 0 0 0-.432-.082c.256.06-.412.257.301.212l.016.162zM37.877 37.66c-.373.051.082.109.553.179l.115.017-.031-.002c.324.049.635.104.653.162l.215.006c-.34-.196-.378-.116-1.505-.362zM44.652 37.786l.533.021a2.458 2.458 0 0 0-.533-.021zM31.817 37.643l-.268-.041c.077.016.159.028.268.041zM28.576 37.66l.045.003.029-.083zM51.617 35.352c-.042.035-.086.041-.135-.021a146.96 146.96 0 0 1-.174-4.386c-.302.945-.797 2.214-1.156 2 .005.605.027 1.22.097 1.886l-.157.287c-.072 1.354-.078 2.239-.101 3.302.534.791 1.476-2.352 1.618-3.021l.008-.047zM50.195 23.532l.027.078c.016-1.034-.021-2.564-.043-4.069a13.199 13.199 0 0 0-.084 2.057c.002 2.195.1 5.074.069 6.745l-.028-.082a31.5 31.5 0 0 1 .051 1.502l.111-.206c-.213-2.062.041-3.633-.103-6.025zM19.314 37.541l.094-.004c-.414-.018-.737-.041-.261-.096-.688.039-.403.055-.804.131l.328-.01.643-.021z"/><path fill="#A1F6FF" d="M18.344 37.568l-.01.004.337-.01zM19.414 37.539l-.002-.002-.098.004zM10.609 26.982c-.006.007-.012.023-.018.038l.053.563c-.056.256-.111.364-.168.265-.024.261-.05.514-.08.653l-.043.604c.109-.197.196-.49.292-1.484l.007.042c.02-.521.034-1.068.068-1.318-.062-.074-.116-.306-.165-.574-.016.091-.035.133-.061.102l.115 1.109zM10.333 24.686c-.034-.034-.07.05-.106.313.05.082.09.102.106-.313zM10.219 25.305c.055.362.1.544.138.659l.029-.397-.167-.262zM10.363 27.328l-.019-.136c-.006 1.581-.198.032-.306.751l.272.421c.001-.335.026-.676.053-1.036zM19.429 37.55l.065.136c1.205.07 2.299.021 3.828.125l.017-.047-.015.006c-.296-.175-1.185-.191-2.072-.277l-1.838.05c.336.015.729.021.809.038l-.794-.031zM18.493 37.82l.189-.092-.82-.084.472-.072-1.073.048c.557.043 1.035.086 1.232.2zM30.727 37.786c-.39.089-.206.22 1 .216l-.499-.107c1.237.027.354.166 1.399.172h-.005.086l.317-.002c.119-.129-1.358-.229-1.312-.312-.694-.063-1.316-.101-1.147-.235.593-.019.749.034.98.082-.083-.024-.099-.057-.103-.084-1.716-.076-1.336.189-2.377.168.332.037.476.128 1.661.102zM21.679 39.445l-.307.015c.126 0 .238.002.307-.015zM20.806 39.573c.036-.054.117-.081.216-.097l-.586.024c.103.025.207.052.37.073zM43.051 37.975c-.74-.066-1.378-.158-2.512-.119l-.057.024c.729.027 1.352.069 1.881.187-.584-.129.094-.105.688-.092zM28.621 37.663l-.006.013.152-.003z"/><path fill="#A1F6FF" d="M38.427 38.3l.571-.091c.15.03.436.053.994.057.921-.135.666-.181.5-.244l.316-.113c.762.023.932.113.715.188l-.422-.021c.026.042.113.062.233.066-.142.027-.33.051-.562.063.61.013.889-.031 1.188-.062.232-.002.438.01.479.074l.34-.068.109.004.137.013-.002-.011c.58.021.386.133.304.113.712.059 1.218-.074.961-.029-1.334.101-.427-.094-1.269-.109l-.003-.03.389-.033.24.021c-.078-.02-.023-.036.039-.062.359.022.771.029 1.274.022l-1.362-.295 1.059.035c1.15.057.39.229 1.785.194-.735.316-2.137.352-3.154.562-1.582-.008-1.758.005-3.78-.052.304.257-2.917.423-4.646.572l-1.065-.09c-2.42.242-5.616.561-9.375.655-.885-.048-1.655.073-2.126-.126l.173-.011-.463-.07c2.375-.13 4.435-.333 6.094-.501l.979.082c1.588-.14 4.542-.293 4.263-.529 1.86.051 2.021.041 3.472.047l.201-.033c-.008.056-.039.103.754.101-.676-.022-.535-.085-.48-.146l.771-.103c.51.011.955.062.75.136l.414-.146-.795-.03zm3.143-.03l.66.031c.367.049.391.127 1.211.133-.191-.076-.707-.104-1.211-.133a6.192 6.192 0 0 0-.66-.031zM24.674 37.635a17.68 17.68 0 0 1-.942-.064l-.317.156c.812.052.952-.029 1.259-.092z"/><path fill="#A1F6FF" d="M43.336 38.055l-.335-.03.011.041zM10.373 38.701l-.116.025 1.915.061c-.195-.06-.522-.101-1.799-.086zM26.957 37.895c.153-.056.625-.133-.021-.137 2.408-.051.287.282 2.29.231l-.416-.091.645.011c-.4-.015-.702-.097-1.071-.16-.859-.054-1.599-.065-2.296-.076l.192.032-.192-.032-.951-.019c.145.11 1.118.127 1.82.241zM12.622 37.695l1.292-.057h.008c.368-.07.106-.082.735-.123-.434.053-.14.073.241.09h.005l.876-.024c-.961-.106-.974-.354-1.998-.392a63.15 63.15 0 0 0-1.96-.037c-.412 0-.266.003-.306.008l-.046.021c-.01-.009-.021-.016-.036-.026-.015-.048-.03.071-.048-.271l-.004.231-.006.033-.017.074a.587.587 0 0 1-.045.112c.002.056-.018.146.056.222.064.039.041.074.268.099.251.027.567.04.985.04zM38.34 38.07l-.999-.215-.136-.006.548.116c-1.315.007-1.519-.135-1.092-.235-2.013.045-1.267-.227-2.82-.082.537.067.907.195 1.438.216l-.702-.009.155.033c1.405-.001 1.927.219 3.608.182zM32.347 37.822l.206.027c.165-.061.68-.142-.025-.147 2.106-.044 1.039.18 1.662.243-.172.119.492.142.033.246l-.216-.025.179.038-.401.067c-1.439-.008-.921-.149-1.155-.205l.081-.002.562.009c-.293-.171-.337-.141-.926-.251zm1.098.139l.463.135c.68-.096-.075-.103-.463-.135l-.184-.053c-.064.028.032.039.184.053zM43.441 38.434c-.189-.076-.705-.104-1.211-.133.368.051.391.127 1.211.133zM41.57 38.27l.66.031a6.192 6.192 0 0 0-.66-.031zM41.965 38.143c.23-.002.434.01.477.076l.344-.07.104.004a4.499 4.499 0 0 0-.925-.01zM41.102 38.07c.029.043.116.062.236.07.077-.017.141-.029.188-.048l-.424-.022zM43.325 38.266c.712.059 1.218-.072.961-.029-1.334.103-.425-.094-1.267-.106l.002.026c.583.018.386.126.304.109zM43.012 38.066l.004.034.388-.038-.068-.007zM37.76 38.594c-.676-.025-.535-.086-.482-.146l-.271.044c-.009.056-.041.106.753.102zM38.797 38.482l.414-.149-.786-.033-.378.048c.508.009.955.06.75.134z"/><path fill="#A1F6FF" d="M34.186 38.204l.037-.011-.216-.027zM33.445 37.961l-.184-.053c-.064.028.032.039.184.053zM33.445 37.961l.463.135c.68-.096-.075-.103-.463-.135zM31.549 37.602zM19.314 37.541l-.643.021.643-.021zM18.684 37.729l.183-.088.627.047-.065-.136.796.025c-.081-.015-.474-.025-.81-.036l-.1.002-.643.021-.336.013-.472.069.82.083zM39.107 37.842l.459.012a3.562 3.562 0 0 0-.459-.012zM43.709 37.914c.145.068-.234.068-.658.061l.631.049c.093-.031.214-.069.027-.11zM39.566 37.854c.369.031.551.119.857.188l.064-.021c-.088-.035-.146-.078-.01-.141l-.911-.026z"/><path fill="#A1F6FF" d="M41.523 38.096c.699.03 1.133-.007 1.484-.025L43 38.027l.333.027.133.004-.063.006.24.021c-.078-.021-.024-.038.037-.062l-.63-.049c-.594-.014-1.271-.037-.687.09-.53-.115-1.15-.158-1.879-.188-.139.062-.08.104.008.139l.318-.117c.76.032.93.122.713.198zM43.023 38.161l-.002-.009-.132-.002zM41.338 38.141c-.141.027-.33.051-.562.063.613.013.888-.031 1.188-.062-.213.003-.452.01-.626-.001zM43.02 38.126l-.004-.026-.327.027z"/><path fill="#A1F6FF" d="M43.336 38.055l.068.007.065-.007zM41.523 38.096a1.245 1.245 0 0 1-.188.045c.173.016.413.004.627.002.229-.021.485-.031.925.01l.135.002-.004-.024-.328.001.324-.025-.006-.027c-.352.009-.783.046-1.485.016zM10.315 17.768l.035-.136.004-.401zM10.5 15.039c.021-.27.043-.533.069-.703l-.026-.283-.026.229c-.099-.115-.143.062-.161.52.051-.198.106-.294.144.237zM10.635 15.106l.002-.045.02.318.049-.732.049-.46-.033-.055c-.046.172-.073.278-.087.974z"/><path fill="#A1F6FF" d="M10.42 16.204l.076-1.098c-.099-.309-.131-.241-.146-.016l.004 2.142v-.012c.006-.465.023-.833.066-1.016zM10.578 14.458l-.018 1.396a9.69 9.69 0 0 0 .018-1.396zM11.778 13.712l.384.003.221.002h.039l-.432-.181c-.542.03-.825.081-1.231.091l.117.048c.354.018.526.051.684.101l.271-.04c-.001-.007-.015-.017-.053-.024z"/><path fill="#A1F6FF" d="M10.543 14.053l.026.283.013-.103-.004.224c.023.324.027.86-.018 1.396l-.002.185.077-.933c.013-.695.042-.801.087-.975l-.122-.24.005-.225.273.011-.117-.048h-.191a5.481 5.481 0 0 1-.027.425zM10.354 17.219l.066-1.017c-.043.185-.06.553-.066 1.017zM10.496 15.106l.004-.067c-.039-.531-.094-.435-.143-.238l-.007.291c.014-.227.047-.295.146.014zM12.163 13.715l.221.002-.221-.002zM11.832 13.739l-.271.04.121.031c.046-.024.15-.048.15-.071zM11.883 13.866l-.202-.056c-.048.021-.037.04.202.056zM10.35 17.632c-.006.398-.02.757-.05 1.024l.057-.262-.003-.774-.004.012zM10.734 17.057l-.011-.133-.021.331zM10.646 17.373c.013.018.027.003.042-.056l-.015-.269-.027.325zM10.594 16.179c-.098 1.017-.145 1.953-.232 3.219.042-.172.086-.193.139-.323l.043-.276c-.026.115-.053.258-.079.312.025-.727.034-1.373.086-2.025l.044.142.014-1.154-.015.105zM10.284 19.947c.026-.278.052-.439.076-.543v-.379c-.027.228-.056.363-.076.922z"/><path fill="#A1F6FF" d="M10.609 16.074l-.014 1.154c.019.068.034.126.05.144l.027-.325.015.268.015-.06.021-.331-.083-1.06-.031.21zM10.594 16.179c-.082.563-.157 1.114-.241 1.441l.003.774.053-.238a8.646 8.646 0 0 1-.049.864v.38l.001-.004c.087-1.264.135-2.2.233-3.217zM10.607 18.656c-.015-.065-.038.025-.064.143l-.043.276c.033-.077.069-.192.107-.419zM10.629 19.57v-.137l-.001-.006z"/><path fill="#A1F6FF" d="M10.628 19.427l.001.007c.001-.351-.001-.569-.009-.683l.008.676zM10.619 18.606l-.011.05c.005.02.009.046.013.093l-.002-.143zM10.497 20.985l.049.233c.036-.168.071-.339.091-.251l.002-.008.01-.267-.127.183c.007-.244.007-.646.044-.813a.986.986 0 0 0-.046.224l-.023.699zM10.373 20.636l-.004.017.02.495.018-.296a1.344 1.344 0 0 1-.034-.216zM10.566 21.289c.029.082.054.048.073-.312l-.001-.009c-.025.146-.048.24-.072.321z"/><path fill="#A1F6FF" d="M10.407 20.853l-.018.296.018.471c.005-.934.045-.849.092-.632l.023-.698c-.043.281-.077.685-.115.563zM10.367 20.578l.002.076.004-.018zM10.639 20.968c-.022-.087-.056.082-.092.252l.021.07c.022-.082.045-.176.071-.322zM10.64 20.978v-.019l-.001.009zM10.334 13.504l-.079-.058.018-.099c-.003.003-.008-.002-.012-.022.039-.008.208-.007.585.006.721-.138-.649-.007-.587-.108l-.069.028c.054.271.08.565.031.998l.027.119c.068-.216.075-.596.086-.864z"/><path fill="#A1F6FF" d="M10.489 13.562l-.001-.013c.36-.028.364-.071.234-.112l-.146.01c.016.021-.017.053-.093.098l.006.017zM10.19 14.483l.004-.005v-.022zM10.221 14.249l-.027.208v.022a.364.364 0 0 0 .054-.11l-.027-.12z"/><path fill="#A1F6FF" d="M10.334 13.504l.005-.103c.13.008.217.021.237.046l.146-.01c-.121-.039-.366-.076-.443-.097-.001.004-.002.006-.005.006l-.018.098.078.06zM11.816 13.456l.638-.039-.659-.099z"/><path fill="none" d="M10.782 17.854c.027-.324.117-.339.134-1.23-.062.897-.128.183-.134 1.23z"/><path fill="#A1F6FF" d="M10.836 14.135l-.027-.06-.034.963c.02-.516.041-.67.061-.903zM20.244 13.785c.053-.026.008-.049-.081-.07-.089.02-.09.044.081.07zM20.07 13.697l.093.017.088-.012zM20.991 13.469l-.078-.023c.002.008.036.016.078.023zM17.241 13.417l-.283-.036c-.008.024.068.046.195.066a.3.3 0 0 1 .088-.03zM20.991 13.469l.225.068.245-.014-.222.022.182.054-.332.014c.098.043.425.081.338.112.004.004.014.007.017.01 1.845-.04-.425-.135.767-.229-.329.041-1.002.003-1.22-.037zM19.787 13.66l.147-.006c.348-.147-2.651-.093-1.471-.213l-.1-.032c-.143.019-.091.08-.418.099l-.505-.064-.178.02c.576.072 1.837.123 2.525.196z"/><path fill="#A1F6FF" d="M21.09 13.614l-1.187.053c.016-.005.019-.009.031-.014l-.147.006.284.038.181.004c.326-.045 1.095-.055 1.176.025.087-.032-.24-.069-.338-.112zM21.462 13.523l-.246.015.023.007zM17.439 13.442l-.197-.026a.264.264 0 0 0-.087.03l.107.016.177-.02zM18.734 13.416a1.655 1.655 0 0 0-.372-.006l.1.032.272-.026zM19.547 13.459c.644.007 1.261-.168 1.027-.13l-.961.03-.24.044.174.056zM19.122 13.323l.067.021.057-.003z"/><path fill="#A1F6FF" d="M19.614 13.359c-.137 0-.262-.004-.369-.018l-.057.003.187.059.239-.044zM13.949 13.697l.244.009c-.855-.08-1.048.07-1.558.101.244.043.696.076 1.128.106.343 0 .743-.005.856-.014 0-.005.007-.006.004-.011.053.004.036.008-.004.011.013.053-.139.063-.351.057l.245.027a5.694 5.694 0 0 1-.733.069l.477.063c.138-.146 1.034-.083 1.582-.186-.577-.08-1.951-.112-1.89-.232z"/><path fill="#A1F6FF" d="M14.62 13.899c-.113.009-.514.016-.856.014l.505.042c.212.007.364-.002.351-.056zM14.624 13.888c.003.005-.004.006-.004.011.04-.003.057-.007.004-.011z"/><path fill="#A1F6FF" d="M14.514 13.985l-.245-.028-.698-.043c-.195-.001-.335-.005-.315-.014l.315.014h.193c-.433-.032-.885-.064-1.128-.106a3.917 3.917 0 0 1-.441-.005l.904.151.087-.001c-.002-.005.007-.008.003-.013.059.005.042.009-.003.013 0 .005-.007.009-.008.015l.603.089c.256-.017.519-.032.733-.072z"/><path fill="#A1F6FF" d="M13.256 13.899c-.021.007.12.013.315.014l-.315-.014zM14.269 13.956l-.505-.042h-.193zM13.179 13.963l.007-.012-.077.003z"/><path fill="#A1F6FF" d="M13.186 13.951l-.087.002.01.001zM13.189 13.937c.004.006-.005.008-.003.013.045-.004.062-.008.003-.013z"/><path fill="none" d="M21.208 13.773c1.298.061-.625.129.826.136.23-.083-.18-.126-.826-.136z"/><path fill="#A1F6FF" d="M37.139 13.706l.161-.012-.752-.162-.159.011zM24.516 13.567l-.166-.037c-.812-.043.358-.274-1.069-.146.576.085.029.186 1.235.183z"/><path fill="none" d="M25.955 13.594l-.138-.001c.303.049.749.083 1.045.042-1.208.002-.425-.136-1.076-.189-.305.01-.343.046-.242.083.054.011.125.02.229.024l.182.041z"/><path fill="#A1F6FF" d="M25.817 13.593l.138.001-.182-.04a1.655 1.655 0 0 1-.229-.024c.055.02.151.044.273.063zM33.553 13.36c.184.004.399 0 .668-.022l-.668.022zM38.811 13.65c.121-.024-.012-.038-.213-.05a.847.847 0 0 1 .213.05zM38.107 13.476l-.369.048.207.009c-.007-.014.032-.034.162-.057z"/><path fill="#A1F6FF" d="M37.945 13.532l-.207-.009-.59.075c.271.037.097.099 1.476.078l.188-.026a1.032 1.032 0 0 0-.211-.05c-.263-.017-.624-.031-.656-.068zM36.562 13.571l.521.035.067-.009a5.071 5.071 0 0 0-.588-.026zM33.305 13.388c.049-.01.133-.021.248-.028l-.318-.012c-.01.018.016.032.07.04zM34.887 13.756l1.198-.07-.651-.101c-.729.079-.788.13-.547.171zM31.395 13.447l.523-.058-.595-.005-.317.075c.153-.012.282-.014.389-.012zM30.838 13.838c1.196-.072.273-.107-.136-.167l-.383.045c.304.026.706.054.519.122zM35.758 13.371c.178.008.352.023.491.055.401-.033.28-.052.058-.066-.188.01-.354.011-.5.009l-.049.002zM34.621 13.458l.107-.043-.232.016a.532.532 0 0 1 .125.027zM35.807 13.367l.354-.016c-.345-.017-.738-.027-.097-.055-1.276-.054-1.033-.001-1.074.057.219-.022.453.008.817.014zM30.684 13.364c.313-.005.206.021.135.047.545-.018.327-.068.317-.103-.393.004-.666.02-.882.04.161.009.29.02.361.033l.069-.017zM32.055 13.666l-.438-.013c.023.155.55.162 1.148.154-.319-.051-1.073-.068-.71-.141zM32.518 13.657c.008.012.041.025.101.035-.066-.027.019-.06.323-.102l-.293.026a.316.316 0 0 1-.131.041zM33.186 13.762c.123.012.226.025.272.038l.472.015-.037-.009-.707-.044z"/><path fill="#A1F6FF" d="M34.827 13.646c-.397.007-.919-.052-1.449-.061l.75.115c.31.012.593.02.699-.054zM34.168 13.843c.09.015.168.034.227.06l-.162.009.66.099c.235-.071.025-.118-.344-.155l-.381-.013zM30.023 13.667c0 .002.006.006.01.008h.061a.322.322 0 0 1-.071-.008zM32.055 13.593l.386.019.01-.001zM29.556 13.347l.308-.073c-.904-.011-.497.047-.555.09l.247-.017z"/><path fill="#A1F6FF" d="M30.143 13.51l.193-.053c.045-.043.009-.08-.225-.093-.307.036-.546.078-1.023.093l.385-.091-.193.008c-.051.014-.174.024-.443.027.152-.054-.902-.107-1.374-.034 2.158-.105.363.256.85.272l-.487-.003c.106.021.302.032.688.03-.277.038-.676.016-.994-.026h-.011c1.294.159 1.275-.119 2.629-.077l.139-.066-.134.013z"/><path fill="#A1F6FF" d="M28.513 13.667c-.385.001-.582-.011-.688-.031l-.306.005c.318.043.716.065.994.026zM36.309 13.359l-.143-.008-.359.016c.145.003.308.002.502-.008zM33.186 13.762c-.283-.02-.5-.042-.567-.069-.06-.01-.093-.023-.101-.035a2.52 2.52 0 0 1-.46.007c-.363.073.391.09.708.14l.692-.005a2.394 2.394 0 0 0-.272-.038zM33.927 13.815c.091.006.171.016.241.028l.381.013-.658-.05.036.009zM29.556 13.347l-.247.017a.075.075 0 0 1-.029.01l.192-.008.084-.019zM32.712 13.507a5.337 5.337 0 0 0-.604.023 2.9 2.9 0 0 0 .604-.023z"/><path fill="#A1F6FF" d="M36.113 13.571h.449l-1.672-.087c-.072-.081.404-.13.864-.111l.054-.003c-.361-.006-.603-.038-.816-.013-.018.021-.077.042-.26.059l-.107.044a.786.786 0 0 0-.124-.029l-.981.019c-.254-.024-.281-.045-.211-.06-.055-.008-.08-.021-.066-.04-.271-.013-.459-.022-.674.055l.113-.031c.612-.011-.25.091.28.109 1.127-.092.91.197 2.108.024-.383.181-1.354.027-2.256.005-.479.153-1.643-.073-2.537-.011l-.139.068.341.015c-.349.04-.463.065-.455.085a.31.31 0 0 0 .07.008h-.06c.038.016.151.029.285.04l.382-.045c-.138-.019-.217-.042-.14-.069.483-.076 1.021-.038 1.494-.008l.396.018-.011.001.215.003-.01.004.293-.027.271-.034.169.026c.528.009 1.052.068 1.45.061-.105.074-.393.067-.7.054l.487.074.271-.018c-.24-.041-.183-.091.545-.17l.652.101c.265-.028.362-.062.03-.117z"/><path fill="#A1F6FF" d="M30.819 13.411c-.056.022-.094.043.121.052l.064-.003.317-.075c-.125-.007-.178-.027-.083-.076l-.102.001c.01.033.228.083-.317.101zM30.336 13.458l.28-.076a2.678 2.678 0 0 0-.361-.032l-.144.015c.234.014.27.051.225.093zM32.097 13.53l.348-.094c-.12-.034-.318-.044-.526-.046l-.523.058c.316.007.462.061.701.082z"/><path fill="#A1F6FF" d="M32.443 13.436l-.348.094h.012c.189-.021.393-.026.604-.023l.165-.021-.065.024c.901.021 1.875.175 2.258-.004-1.199.171-.981-.117-2.108-.026-.531-.019.331-.12-.278-.108l-.113.031-.101.039-.026-.006zM25.638 13.75c.318.026.533.069.455.115l.147-.101-.386-.021-.216.007zM24.448 13.64l-.55.102c.233-.055 1.05-.046 1.623-.001l.091-.017c-.441-.043-.638-.098-1.164-.084z"/><path fill="#A1F6FF" d="M25.612 13.723l-.091.017.117.01.216-.006zM27.531 13.764l.242.023a1.496 1.496 0 0 0-.242-.023zM27.134 13.826l.099-.029a13.412 13.412 0 0 0-.886-.05l-.107.017c.241.074.873.091 1.429.111a.307.307 0 0 0-.088-.029l-.447-.02zM27.531 13.764a9.192 9.192 0 0 0-.7-.036l.497.051a1.57 1.57 0 0 1 .203-.015zM27.771 13.853l-.036.024c.586.021 1.068.045.879.136.317-.055.266-.09.044-.113l-.415-.028-.472-.019z"/><path fill="#A1F6FF" d="M26.347 13.747c.313.009.635.026.886.05l.094-.018-.497-.051a4.285 4.285 0 0 0-.483.019zM27.58 13.846c.042.008.069.02.089.029l.065.001.035-.024-.189-.006zM28.658 13.9l-.415-.028.415.028z"/><path fill="#FFF" d="M31.395 13.447c-.107-.002-.235 0-.389.012l-.067.015.456-.027zM30.666 13.417l.153-.003c.071-.027.178-.054-.135-.048l-.068.019c.054.007.083.018.05.032zM30.143 13.51l.132-.01a.337.337 0 0 0 .061-.041l-.193.051z"/><path fill="#FFF" d="M32.107 13.53l-.019.001.007-.001c-.238-.021-.383-.075-.702-.083l-.456.027.066-.015-.064.003c-.215-.008-.178-.029-.121-.052l-.153.004c.033-.012.004-.023-.05-.034l-.28.076a.395.395 0 0 1-.061.042c.894-.062 2.058.164 2.537.01l-.101-.003a2.782 2.782 0 0 1-.603.025z"/><path fill="#FFF" d="M32.712 13.507l.099.003.065-.024zM29.556 13.347l2.541.183-.008.001z"/><path fill="#A1F6FF" d="M40.646 13.716v-.002h-.02zM40.663 13.517c-.412.106 1.075.096.912.157l.269-.005c-.384-.103-.744-.137-1.181-.152zM38.589 13.447l1.229.167.789-.098c-.509-.017-1.128-.013-2.018-.069z"/><path fill="#A1F6FF" d="M40.663 13.517l-.056-.001-.791.098.81.101h.021c-.07-.088.474-.042.934-.041.157-.061-1.33-.051-.918-.157zM42.848 13.402l.729.027-.988-.126c1.313.151-1.276.076-.774.184.31-.066 1.701.06 1.033-.085z"/><path fill="none" d="M35.836 13.849c.416.056.334.041.346.013l-.346-.013zM36.793 13.807c-.32-.07-.693.013-1.08.019l.473.028c.024-.021.132-.045.607-.047z"/><path fill="#A1F6FF" d="M35.836 13.849l.346.013.004-.008-.473-.028-.044.001zM46.13 13.477l.182.008-.182-.013zM45.673 13.442l.457.035v-.005z"/><path fill="#A1F6FF" d="M46.312 13.485l.824.054c-.25-.054.221-.129.295-.156a4.33 4.33 0 0 1-1.119.102zM31.841 37.721c-.078.012-.117.022-.126.032l.631.069-.505-.101z"/><path fill="#A1F6FF" d="M33.025 38.064h-.316l.561.009c-.289-.171-.334-.142-.919-.251l-.63-.069c-.053.081 1.425.185 1.304.311z"/><path fill="none" d="M38.061 37.836l.451.016-.082-.013a3.241 3.241 0 0 0-.369-.003z"/><path fill="#A1F6FF" d="M38.43 37.839l.082.013h.033zM32.621 38.064l.005.002.083-.002z"/><path fill="none" d="M10.097 30.59c.006-.246.033-.588.043-.638-.029.088-.04.331-.043.638z"/><path fill="#A1F6FF" d="M23.308 37.721l.044.002.024-.077zM50.156 29.817c-.064 1.245-.073 2.056-.094 3.033a.279.279 0 0 0 .092.09l.031-3.181-.029.058zM51.021 17.324c-.103.456-.028.793-.078 1.241.24 3.756.254 8.21.367 12.376.112-.373.205-.701.237-.863l.007-.039c-.039.034-.078.037-.123-.021-.283-4.787-.195-10.678-.496-15.38.045-.456-.021-.766.069-1.303-.021.053-.04-.027-.06-.173-.941.087-3.223.142-1.411.282l.575.05c.197-.015.393-.04.574-.072l.025.089a.387.387 0 0 1-.031-.083c-.133.027-.297.064-.324.099l.191.032c-.086.686-.201.978-.285 1.718a12.19 12.19 0 0 0-.107 2.144l.023 2.121c.141-1.216.396-2.308.469-3.825.189-2.401.24 1.804.378 1.607z"/><path fill="#A1F6FF" d="M50.715 13.509l-.025-.089a5.878 5.878 0 0 1-.572.072l.24.032c.026-.034.191-.072.326-.099a.36.36 0 0 0 .031.084zM50.943 18.565c.05-.448-.022-.787.078-1.241-.142.197-.189-4.008-.371-1.609-.075 1.519-.328 2.608-.471 3.825.026 1.505.062 3.036.045 4.069l-.025-.077c.14 2.392-.112 3.963.103 6.022l-.112.207-.028 3.181c.354.216.854-1.051 1.151-2-.116-4.167-.127-8.621-.37-12.377z"/><path fill="#FFF" d="M14.813 37.609l.088-.002c-.381-.019-.675-.039-.241-.088-.63.037-.369.049-.735.121l.302-.016.586-.015z"/><path fill="#FFF" d="M13.923 37.639l-.008.002.31-.013zM14.813 37.609l.092-.002h-.004z"/><path fill="#A1F6FF" d="M10.476 27.847c.034-.344.067-.698.115-.827-.089-.854-.148-.811-.234-1.056l-.06.825.126-.584c-.007.4-.035.77-.062 1.123.039.285.078.451.115.519zM10.31 28.558c.033.095.062.054.086-.059l-.086-.134v.193zM10.227 24.999c-.056-.097-.122-.26-.169.058l.162.248-.017-.109.024-.197zM10.3 22.07c-.029.036-.06.171-.092.466.076.526.132.682.179.793l-.01-.268c.054.628.092.267.138-.108-.071-.412-.131-.868-.194-.897l-.035.319.014-.305z"/><path fill="#A1F6FF" d="M10.442 23.465c.051.146.101.403.172 1.26-.09.42-.181.434-.274-.357l-.005.318c.071.07.141.627.224 1.084.071-.399.07-1.755.127-2.182-.005-.005-.01-.018-.017-.027-.056.947-.177-.606-.227-.096z"/><path fill="#A1F6FF" d="M10.588 23.323l-.037-.166-.005.231zM10.284 22.375l.035-.319c-.006-.002-.014.004-.02.013l-.015.306z"/><path fill="#A1F6FF" d="M10.376 23.062l.01.268.054.135c.052-.51.171 1.044.228.095a1.031 1.031 0 0 1-.08-.237l-.042.062.005-.229-.037-.203c-.045.375-.084.737-.138.109zM10.333 24.686c-.016.416-.056.395-.106.313l-.025.197.017.109.167.262-.029.397c.084.245.143.202.234 1.056a.103.103 0 0 1 .018-.038l-.112-1.109c.026.03.046-.012.061-.103-.084-.458-.154-1.016-.225-1.084zM10.476 27.847c-.037-.068-.076-.234-.113-.52-.027.361-.052.701-.053 1.037l.086.136c.03-.139.056-.392.08-.653zM16.925 37.635l.337-.017-.669-.056-.812.021c.285.032.645.053 1.144.052zM21.679 39.445l.318-.02-.254-.035c.004.03-.019.048-.064.055zM28.615 37.676l-.48.033.251.038.202.013zM29.07 37.684a3.026 3.026 0 0 0-.303-.014l.303.014zM25.14 37.654c-.025-.021-.032-.039-.001-.066.547-.016.689.032.901.078-.079-.023-.091-.051-.096-.079-.729-.032-1.043.003-1.268.048l.464.019z"/><path fill="#A1F6FF" d="M10.654 27.661c.069.359-.084.568-.013 1.408.055-.25.099-1.062.134-1.632-.027-.075-.046.01-.082.174.06-1.671.18.686.276-.629l.005.531v.021c-.015.349-.038.645.016.893.094 3.694.461 4.793.396 8.462-.11-1.539-.271-2.925-.332-5.271-.059-.273-.033-.595-.018-.974a6.767 6.767 0 0 0-.002-.667l-.004.067c-.106 1.431-.237-1.139-.302.683.039-.181.059-.273.089-.188-.039.618-.086 1.505-.146 1.777-.081-.952.107-1.158.006-1.582-.156 1.604-.285 1.537-.513 1.924.031.521.052.871.101.859-.025.799-.064.979-.154.729-.021.027-.027-.036-.028-.145-.005 1.008.041 2.522-.166 2.369.02.644.02 1.529.011 2.247l.33.005-.433.101-.011-.031.116-3.08c.032-.86.049-1.75.019-2.832.189.144.146-1.248.151-2.172.001.095.009.158.027.129.082.231.119.064.145-.666-.047.006-.064-.312-.093-.791l.178-.28-.054.727.137-.636c-.018.968-.145 1.778-.124 2.565.15.414.186-1.522.323-1.719l-.121-1.208c.081.104.111-.509.136-1.168zm-.571 6.314v.135-.135c.004-.336.015-.599.047-.689-.013.051-.041.42-.047.689zM38.73 38.038c.164.039-.008.117.267.171.267-.05.51-.109.7-.193l-.317.006.05.026-.611-.008h-.089l-.006-.002.092.002.349-.004c.007-.009.007-.015 0-.022-.55-.021-.244-.134-1.104-.18l-.973-.031.253.055c1.138.037.293.176 1.389.18zM23.352 37.723l-.013.041.076-.037zM35.027 37.955l-.299-.066-.44.008c-.05.021-.077.03-.097.049.152.014.403.019.836.009zM19.286 39.391h.438c-.802-.08.398-.25-1.183-.259l-.753.222-.636-.137c.348-.021.521-.029.786-.021l-.272-.016h-.001c-.244-.008-.888-.016-.958.062-1.178-.028.046-.148-.705-.202l-.543-.021-.215.129c-.342-.121-1.542-.073-2.125-.195l-.068.07c-1.16-.168.353-.027.72-.153l-1.596-.075c.342.117.027.299 1.377.339a6.01 6.01 0 0 0-.722.021l.585.127.693-.199c1.45.007.348.163 1.083.234l-.404.002c.965-.014.905.106 1.396.17.13-.188.881-.027.859-.166l.66.1-.161.012c.433.185 1.14.071 1.951.113l.944-.029c-.228-.078-.419-.139-1.15-.128zM21.022 39.477l.35-.017c-.118 0-.245.002-.35.017z"/><path fill="#A1F6FF" d="M15.122 38.893c-.089.068.067.104.336.121l.004-.002.539.024.772.004c-.298-.149 0-.347-2.071-.306l-.415.147-.385-.015.351.146.869-.119zM38.816 38.038l.613.008-.052-.026-.216-.006c.004.008.007.016 0 .022l-.345.002zM38.73 38.038h.086l-.089-.002zM10.083 33.975c.006-.269.035-.638.047-.689-.034.091-.044.355-.047.689zM10.354 29.104l-.053.726.138-.636c-.019.968-.146 1.778-.124 2.566.149.413.185-1.523.323-1.72l-.121-1.208c.081.1.112-.512.136-1.171l-.007-.041c-.096.995-.183 1.287-.292 1.484zM27.777 37.998l.426.123c.623-.088-.071-.098-.426-.123z"/><path fill="#A1F6FF" d="M11.385 36.889l-.004.231-.005.03-.017.074a.61.61 0 0 1-.045.111c.002.057-.018.146.056.223.064.039.041.073.268.098.25.025.566.039.985.039l1.292-.057-.434.062 1.556.159-.118-.244.726.025c-.073-.019-.433-.023-.741-.037l.876-.021c.285.029.645.057 1.144.051l.337-.016c.555.041 1.033.085 1.231.197l.189-.092.875.088-.066-.13c1.204.07 2.3.021 3.828.125l.017-.048.077-.036c.811.053.952-.025 1.26-.088l.464.02c.142.109 1.115.128 1.818.242.154-.056.625-.133-.021-.139 2.407-.05.287.284 2.291.233l-.417-.089.646.008c-.4-.016-.702-.096-1.071-.159l.202.013.027-.082.152-.004.303.014c.327.033.47.127 1.655.104-.39.091-.205.221 1 .217l-.5-.104c1.238.026.356.167 1.4.172.234.056-.284.196 1.154.204l.404-.067.096.021.979.119-1.042-.146c.46-.104-.205-.132-.029-.25.15.019.401.021.836.013l-.299-.07c1.407-.002 1.932.223 3.611.186l-.999-.215c1.14.04.294.18 1.392.186.164.035-.01.118.269.172l-.572.088-.665-.053c.03-.009.023-.01-.015-.004l-1.097-.131.317-.029c-.483-.019-.946.104-2.171.018.105.154 1.123-.021 1.229.133l.311-.064c.809 0 .586.127.505.107.313.025.587.012.755-.007.157.024.242.056.124.077h.327l-.771.104c.026-.029.026-.064-.166-.089l-.348.021c.245.033.247.076.242.112l-.201.037c-1.451-.005-1.609.004-3.471-.046.277.236-2.676.389-4.264.527l-.979-.08c-1.661.167-3.719.371-6.094.498l-.254-.036c.005.026-.019.044-.062.056l-.308.014c-.119 0-.244.002-.35.021l-.586.021c-.229-.061-.419-.121-1.152-.11h.438c-.803-.08.398-.25-1.183-.258l-.753.222-.636-.141c.348-.021.521-.025.786-.021l-.272-.015c.219-.08.067-.112-.252-.131l.054-.055c.636.137 1.946.084 2.316.213l.236-.138.594.021c.819.061-.519.188.767.224.073-.079.778-.069 1.044-.062.51-.187-.815-.146-1.812-.157l-.588-.024-.006.004c-.292-.022-.461-.06-.366-.135l-.944.128-.469-.197c-.219.183-1.963.025-1.052.17l-.41-.006c-.299-.146 0-.345-2.071-.305l-.412.146-.385-.018-.079-.045a.148.148 0 0 1-.056.029l-1.597-.072c-.194-.062-.521-.104-1.798-.087l-.116.024-.329-.001c.008-.721.008-1.605-.011-2.248.206.156.161-1.359.165-2.368.001.104.009.174.028.143.09.25.13.069.157-.727-.049.009-.069-.341-.1-.862.228-.387.356-.32.513-1.924.101.42-.087.627-.006 1.582.059-.273.107-1.159.146-1.779-.03-.083-.051.008-.089.188.064-1.823.196.747.301-.684l.005.577v.023c-.015.378-.041.701.018.974.062 2.34.223 3.725.332 5.264zm24.454 1.42c.461.025.935.057 1.109.123-.753-.006-.772-.078-1.109-.123l-.604-.025c.294-.004.469.009.604.025zm-4.138.043c.562-.012 1.215.041.988.125l.315-.117c.224.016.541.021.867.066l-1.165-.156c-.018.028.006.045.051.062a22.493 22.493 0 0 1-2.06-.196c.094.059 1.316.149 1.004.216zm-.881.026l.321-.021c.492.062-.375.184.598.217-1.208.007-.342-.115-.919-.196zm-3.209-.431l.166.048c.354.026 1.049.036.426.125l-.426-.125c-.137-.011-.23-.022-.166-.048zm.683.239l1.152.159-.901-.104-.251-.055zm-1.192.091l1.069.143c-.579-.08-1.133-.025-1.069-.143zm-1.742-.402c.69-.089-.105-.119-.809-.127-.25.088.627.088.809.127zm-5.742-.075c.646.009 1.375.034.745.118-.17-.036-.975-.036-.745-.118z"/><path fill="#A1F6FF" d="M36.643 38.113l-.383.035c1.219-.028.227.177 1.285.105-.311-.044-.82-.098-.902-.14zM36.948 38.428c-.177-.068-.647-.096-1.109-.119.337.045.356.117 1.109.119zM35.232 38.277l.604.031a5.722 5.722 0 0 0-.604-.031zM27.777 37.998l-.166-.051c-.064.026.029.037.166.051z"/><path fill="#A1F6FF" d="M37.109 38.357l-.346.021c.241.033.244.077.239.114l.271-.042c.029-.035.029-.068-.164-.093zM37.76 38.245l-.16.022c.154.027.239.058.123.082h.324l.378-.051-.665-.053zM37.545 38.26l.178-.015.024-.003-1.097-.129h-.008c.083.042.592.096.903.147zM21.379 39.314c.073-.082.778-.071 1.044-.062.511-.186-.815-.146-1.812-.16.82.058-.519.191.768.222zM17.413 39.051l.055-.058c.636.139 1.945.086 2.315.214l.236-.135c-.293-.021-.461-.059-.366-.133l-.945.133-.469-.196c-.219.179-1.963.026-1.053.169l.227.006z"/><path fill="#A1F6FF" d="M20.611 39.092l-.588-.024-.006.004zM34.281 38.225l.985.117-1.043-.149-.037.011zM33.007 38.359c.222.013.541.021.867.063l-1.165-.155c-.016.027.006.047.051.062l.309.009-.062.021zM24.551 37.748c-.25.088.627.088.809.127.69-.092-.106-.119-.809-.127zM18.684 37.729l.875.089-.066-.132-.626-.047zM11.036 30.645a6.75 6.75 0 0 0-.001-.667l-.005.066.005.577.001.024zM36.26 38.148l.383-.035-.01-.002.02.002.32-.027c-.484-.02-.947.102-2.172.016.107.152 1.125-.021 1.229.133l.312-.065c.807 0 .584.129.502.106.316.026.588.016.756-.006l-.055-.01c-1.059.065-.066-.14-1.285-.112zM37.745 38.242l.015.003c.031-.006.025-.007-.015-.003z"/><path fill="#A1F6FF" d="M36.643 38.113h.007l-.017-.002zM37.745 38.242l-.022.003-.178.015.055.008.16-.023zM31.739 38.579c-.973-.035-.106-.156-.598-.22l-.321.021c.577.079-.289.201.919.199zM31.701 38.352c.562-.012 1.215.041.988.125l.315-.117a2.473 2.473 0 0 1-.247-.025 22.9 22.9 0 0 1-2.06-.195c.094.055 1.316.145 1.004.212z"/><path fill="#A1F6FF" d="M33.007 38.359l.062-.021-.309-.011c.051.017.136.027.247.032zM16.707 39.234c.07-.073.714-.064.958-.055h.001c-.536-.027-.766-.082-.89-.145l-.773-.006c.75.059-.475.179.704.206z"/><path fill="#A1F6FF" d="M17.665 39.18c.219-.08.067-.115-.252-.132l-.021.026-.207-.031-.409-.005c.123.062.353.114.889.142z"/><path fill="#A1F6FF" d="M17.413 39.051l-.228-.008.206.031zM13.048 39.018l.069-.074c.584.127 1.784.078 2.125.195l.215-.127c-.269-.021-.425-.053-.336-.121l-.867.121-.351-.146-.135-.007c-.367.127-1.88-.011-.72.159z"/><path fill="#A1F6FF" d="M13.824 38.833a.143.143 0 0 1-.057.026l.135.006-.078-.032zM15.462 39.012l-.004.002.544.018zM28.294 38.186l.25.052.902.107zM28.171 38.42l-1.069-.141c-.064.116.49.061 1.069.141zM19.618 37.8c-.229.082.577.082.745.118.628-.084-.1-.109-.745-.118zM14.813 37.609l-.588.019.588-.019zM14.225 37.628l-.31.013-.434.062 1.556.161-.119-.246.727.026c-.074-.02-.433-.024-.741-.037l-.093.006-.586.015zM10.973 27.533a6.217 6.217 0 0 0 0-.611l-.004.06.004.531v.02z"/><g><path fill="#BFD669" d="M10.051 32.619s7.084-4.616 14.759-2.952c7.673 1.665 26.458.59 26.458.59V44.57H10.051V32.619z"/><path fill="#4B8779" d="M51.204 28.739c-.333-.33-.844-.554-1.698-.554-3.192 0-2.214 4.224-6.438 4.224-4.223 0-4.402-3.399-6.076-3.399-1.676 0-2.268 2.163-3.555 2.163s-1.494-3.502-4.43-3.502-3.915 3.915-5.254 3.915c-1.339 0-2.987-4.533-5.717-4.172-2.73.36-2.679 3.966-5.202 3.966-1.068 0-2.052-.23-2.833-.496v13.61h41.203V28.739z"/><path fill="#48A843" d="M51.204 33.541c-.502.594-1.134 1.031-1.906 1.031-2.418 0-4.221-4.688-7.414-4.688s-3.658 4.068-7.933 4.068-6.026-3.656-9.219-3.656c-3.193 0-4.43 2.627-6.851 2.163-2.421-.463-3.708-2.987-6.387-2.987-.521 0-1.023.114-1.494.296v14.724h41.203l.001-10.951z"/><path fill="#69B737" d="M49.815 38.246c-1.389-.206-4.996-5.512-11.178-5.82-6.181-.309-8.602 5.614-12.773 5.46-4.172-.155-5.717-3.761-10.25-5.151-2.851-.874-4.663-.566-5.614-.219v11.978h41.218v-6.632c-.258.255-.696.49-1.403.384"/><path fill="#A1B25B" d="M21.249 34.792s.02-3.418-1.144-4.241M21.949 34.309s-1.141-1.123 1.072-3.982M21.797 34.843s-.155-3.308-.912-4.83M27.368 36.675s.02-3.419-1.143-4.241M28.067 36.191s-1.141-1.125 1.072-3.986M27.915 36.725s-.156-3.308-.912-4.83M46.229 35.331s.021-3.419-1.145-4.24M46.929 34.848s-1.139-1.121 1.072-3.985M46.779 35.382s-.157-3.309-.913-4.831"/><path fill="#FFF" d="M21.376 18.651c.146-.227.228-.472.226-.725-.009-1.18-1.734-2.122-3.854-2.106-1.562.012-2.898.541-3.49 1.288-.998.102-1.755.583-1.75 1.162.004.644.955 1.161 2.122 1.153.102-.001.201-.01.3-.02.706.428 1.719.693 2.85.686.133-.001.263-.005.39-.014.337.401 1.072.678 1.927.672 1.167-.008 2.111-.539 2.105-1.184-.003-.373-.33-.701-.826-.912z"/></g></svg>