<?xml version="1.0" encoding="utf-8"?>
<!-- Generator: Adobe Illustrator 15.0.0, SVG Export Plug-In . SVG Version: 6.00 Build 0)  -->
<!DOCTYPE svg PUBLIC "-//W3C//DTD SVG 1.1//EN" "http://www.w3.org/Graphics/SVG/1.1/DTD/svg11.dtd">
<svg version="1.1" id="Layer_1" xmlns="http://www.w3.org/2000/svg" xmlns:xlink="http://www.w3.org/1999/xlink" x="0px" y="0px"
	 width="64px" height="64px" viewBox="0 0 64 64" enable-background="new 0 0 64 64" xml:space="preserve">
<path opacity="0.3" fill="#333333" enable-background="new    " d="M57.5,14.826l-0.188-1.776l-0.043-0.414l-0.73-0.043
	l-1.405,0.032L54.07,12.66l1.047-0.035c-0.459-0.031-0.564-0.077-0.738-0.121c-0.154-0.045-0.283-0.095-0.412-0.142
	c-0.258-0.092-0.523-0.175-1.05-0.197c-2.36-0.094-3.851-0.029-5.226,0.083c-1.289,0.104-15.366,0.237-17.069,0.321
	c1.704-0.092,15.78-0.242,17.069-0.348c-3.775-0.078-17.791,0.343-21.589,0.454c-0.258,0.062-0.562-0.015-0.919-0.015h-0.021
	l-0.544,0.004c0.15,0.013,0.245-0.004,0.313-0.004h0.041c0.415,0-1.198,0.301,0.292,0.362c-0.17-0.042-0.258-0.046-0.18-0.079
	c0.587,0.041,1.422,0.101,1.681,0.165c-0.865,0.084-1.08-0.092-1.45-0.011c-0.536-0.022-1.1-0.038-1.357-0.078
	c-0.075,0.071-0.314,0.133-0.59,0.193c-0.411-0.083-1.807-0.081-2.247-0.148c-0.005,0.006-0.02,0.013-0.027,0.02l-0.381-0.018
	l0.138,0.111l-0.172,0.044c-0.249-0.006-0.538-0.016-0.674-0.049c0.063,0.035,0.267,0.065,0.465,0.091
	c-0.107,0.022-0.217,0.042-0.323,0.062c-0.399-0.013-0.794-0.028-1.202-0.044c-0.045-0.024-0.102-0.051-0.188-0.078
	c0.083-0.034,0.05-0.064-0.322-0.085c0.021-0.004,0.047-0.01,0.094-0.014l-0.161,0.003l0.049,0.01l-0.274-0.012l0.188,0.148
	c-0.251-0.01-0.667-0.009-0.837-0.052c0.022,0.012,0.064,0.023,0.114,0.034c-0.019,0-0.037-0.001-0.055-0.001l-0.036,0.01
	c-0.286-0.014-0.572-0.027-0.855-0.054c0.059-0.025,0.12-0.277,0.176-0.295l0.019-0.031c0.089,0.018,0.253,0.03,0.668,0.034
	c-0.231-0.022-0.324-0.076-0.616-0.118l0.027-0.043c-0.05,0.011-0.132,0.016-0.306-0.013l-0.11,0.019
	c-0.108-0.006-0.229-0.011-0.375-0.015c0.123,0.009,0.219,0.02,0.295,0.028l-1.15,0.203l0.901,0.21
	c0.052,0.014,0.107,0.055,0.16,0.07c-0.084,0.004-0.188-0.277-0.322-0.269l-0.524-0.312h-0.019c-0.087,0-0.126,0.247-0.17,0.215
	l0.165,0.154l-0.178,0.059c-0.111-0.075-0.283-0.109-1.194-0.13c0.249,0.006,0.415,0.018,0.743,0.002l-0.601-0.096l-0.197,0.021
	l-1.148-0.058l-0.085,0.037l1.158,0.033l-0.444,0.035c-1.332-0.005-0.573-0.247-0.935-0.299c-0.335,0.023-0.526,0.08-0.667,0.054
	c-0.201-0.029-0.19-0.011-0.711-0.038c-0.179,0.144-1.328,0.076-1.468,0.139c0.006,0.027,0.016,0.059,0.027,0.067l-0.083,1.125
	L9.69,13.686c-0.037,0.179-0.06,0.409-0.073,0.671l-0.011,0.368l-0.004,0.248c-0.001,0.152,0.003,0.317,0.004,0.485l0.027,0.754
	c0.03,0.028,0.213,0.074,0.213,0.138v0.001v0.01c0,0.005,0,0.01,0,0.014c0,0.002,0,0.004,0,0.006c0,0.09-0.136,0.166-0.134,0.234
	l-0.095,0.479c0.02-0.089-0.009-0.171-0.007-0.279c-0.001,0.108-0.026,0.191-0.046,0.28l0.029,0.23
	c-0.007,0.046-0.018,0.091-0.024,0.15c0.017,0.013,0.026,0.039,0.036,0.063l-0.03,0.186c0.036,0.03,0.059,0.101,0.079,0.189
	l0.005,0.144c0,0.128-0.001,0.245,0.011,0.316L9.682,18.7l-0.057,0.48L9.613,19c-0.165,0.485-0.064,1.278-0.104,2.188
	c0.07,3.308-0.009,9.408,0.175,11.732c-0.028,0.168-0.062,0.264-0.1,0.205l0.118,0.15c-0.085,0.248-0.107,0.896-0.13,1.473
	c-0.017,0.025-0.032,0.032-0.05,0.01l0.048,0.061c-0.012,0.285,0.013,0.541,0.029,0.719c0.05-0.248,0.084-0.473,0.052-0.616
	c0.008-0.206,0.021-0.37,0.033-0.521c0.01,0.066,0.019,0.135,0.019,0.209c0.024-0.235,0.038-0.487,0.041-0.724
	c0.004-0.024,0.008-0.053,0.012-0.077c0.006,0.08,0.014,0.172,0.02,0.254l-0.073,1.099c0.016,0.229-0.037,0.483-0.077,0.758
	c0.034,0.072,0.059,0.011,0.078-0.146c-0.024,0.42,0.023,0.892,0.065,1.263c0.121,0.17,0.257,0.319,0.27,0.452
	c-0.031,0.312-0.063,0.724-0.14,0.533c0.082,1.237,0.106,0.381,0.193-0.142c0.054,0.338,0.113,0.706,0.09,1.396l-0.023,0.396
	c-0.025-0.19-0.046-0.315-0.062-0.396c0.007-0.148,0.016-0.31,0.016-0.453c-0.18,0.022-0.434,0.563-0.426,1.18
	c-0.023,0.132-0.055,0.189-0.095,0.085c0.041,0.61,0.072,0.726,0.103,0.627c-0.001,0.175-0.005,0.337-0.018,0.485
	c-0.008,0.093-0.02,0.175-0.033,0.246c-0.017,0.092-0.04,0.175-0.07,0.229L9.563,41.51l-0.114,0.678
	c0.083,0.244,0.138,0.027,0.181-0.351l0.257,1.323c-0.029,0.197-0.04,0.283-0.04,0.32v0.015c0,0.026,0.01,0.015,0.025,0.021
	c-0.003,0.058-0.012,0.102-0.019,0.15c-0.005-0.018-0.009-0.03-0.015-0.044l-0.012,0.229c-0.018,0.086-0.039,0.162-0.069,0.219
	l-0.012-0.18L9.619,44.63c0.083,0.247,0.142,0.062,0.187-0.296c0.042,0.393,0.095,1.252,0.161,1.667L9.884,46
	c-0.015-0.163-0.032-0.329-0.032-0.499c-0.135,0.89-0.057,0.414-0.006,0.658v0.349v0.456c0,0.101-0.032,0.199-0.048,0.296
	l0.048,0.336v0.498v0.016c0,0.222,0.119,1.098,0.064,0.966c-0.001,0.091-0.061,0.181-0.064,0.262v0.308
	c0,0.127,0.139,0.244,0.121,0.362c-0.057,0.396-0.018,0.859-0.063,1.438c0.075-0.127,0.121,0.188,0.112,0.613
	c0.346,0.008,0.795-0.279,1.128-0.295c-0.306-0.08-0.554-0.457-0.848-0.457h1.898c0.362,1.288,0.713,0.494,0.995,0.56
	c-0.03-0.003-0.06,0.146-0.091,0.145c0.573,0.069-0.872,0.382,1.206,0.288c-0.007-0.061-0.275-0.079-0.646-0.125
	c0.002-0.02,0.018-0.02,0.051-0.035c1.432-0.07,2.955-0.104,4.515-0.138c0.383,0.099,0.721,0.179,0.887,0.206l0.04,0.005
	c-0.018-0.021-0.027-0.03-0.023-0.05c0.805,0.135,1.618,0.238,2.633,0.193l2.182-0.024c0.644,0.081,1.323,0.134,2.118,0.101
	c2.258-0.007,18.103-0.117,19.824-0.084L45.8,52.37c0.552-0.036,1.062-0.052,1.546-0.058l0.062,0.037
	c1.279,0.074,2.117,0.084,3.119,0.107c0.048-0.036,0.074-0.073,0.095-0.107c0.625-0.006,1.254-0.031,1.938-0.113l0.295,0.187
	c1.396,0.083,2.449,0.093,3.543,0.117c0.274-0.212-0.182-0.479-0.182-0.747v-0.439c0,0.002-0.078,0.008-0.044,0.014
	c0.015-0.135,0-0.273-0.012-0.434l0.056-0.5v0.004V50.43l0.008-0.07c-0.002,0.024-0.006,0.021-0.008,0.033v-1.047
	c0-0.095-0.004-0.188-0.006-0.283c0,0,0.006,0.012,0.006,0.006v-0.344H56.21c-0.007,0-0.017-0.416-0.006-0.744
	c-0.011-0.053-0.087,0-0.095,0c0.008,0-0.021,0.061-0.006,0.11l0.004,0.13l-0.028-0.158c0.005-0.229,0.009-0.479,0.012-0.768
	l0.045,0.021c-0.026,0.24,0.08,0.484,0.08,0.774v-0.276c0-0.191-0.106-0.377-0.085-0.558l0.061-0.091
	c-0.016,0.129,0.024,0.175,0.024,0.303v-0.964L56.2,46.15h0.013c0,0,0,0.066,0,0.062l-0.012-0.079
	c0.006-0.025,0.004-0.054,0.006-0.082c0.016-0.386,0.023-0.816,0.046-0.101c0.078-2.261-0.088-0.286-0.13-2.013
	c0.227,1.041,0.273,2.414,0.636,3.147c-0.038-1.433,0.158-0.667,0.226-1.821l0.236,0.53c0.023-0.096,0.279-0.356,0.279-0.54
	c0-0.004,0-0.006,0-0.01l-0.214-1.092l-0.476,1.402c-0.015-0.519-0.064-0.938-0.039-1.312c-0.002-0.012-0.039-0.018-0.041-0.022
	l0.045-0.625c0.011-0.452,0.021-0.944-0.027-0.937c0.053-0.037,0.029,0.472,0.021,0.937c0.078-0.766,0.182-1.421,0.137-2.589
	l-0.027-0.058c-0.027,0.735-0.08,1.358-0.208,1.896c-0.005,0.018-0.008,0.022-0.012,0.038c0.133-0.545,0.188-1.183,0.218-1.937
	c-0.037-0.069-0.068-0.092-0.093-0.079c0.026-0.013,0.056,0.012,0.094,0.079l0.028-0.943c-0.037,0.383-0.139,0.566-0.219,0.887
	l0.024,0.064l0,0v0.002c-0.077,0.172-0.13,0.434-0.286-0.514c0.006-0.575,0.026-0.873,0.063-1.023
	c0.059,0.275,0.13,0.523,0.228,0.723l-0.005-0.326c0.226-0.351,0.134-0.387,0.416-1.551c-0.062-0.383-0.128,0.088-0.209,0.571
	c0.013-0.112,0.015-0.267,0.005-0.382l-0.017,0.518c-0.062,0.338-0.124,0.729-0.19,0.729c-0.003,0-0.006,0-0.008,0
	c0.023-1.288,0.161-0.31,0.21-1.194l0.043-1.027L56.9,37.723l0.008-0.144l-0.139,0.56c-0.006-1.354,0.157-1.562,0.272-1.125
	c-0.051-2.07,0.265-1.304,0.101-2.904c-0.08,0.554-0.229,0.934-0.252,1.479l0.01-0.725l-0.039,0.157l-0.008-0.455
	c-0.021-0.051-0.037-0.08-0.058-0.102c0.076-0.643,0.335,0.458,0.284-1.709c-0.012,0.725-0.104,0.193-0.173,0.024l0.03-0.212
	l0.119-0.521c-0.014-0.08-0.023-0.123-0.037-0.13c0.074-0.715,0.117-1.354,0.271-1.182c0.021,0.612-0.041,0.771-0.096,1.009
	c0.027-0.085,0.062-0.102,0.101-0.105c0.086-1.766-0.226-1.375-0.196-2.447c0.014-0.084,0.019-0.181,0.016-0.311l0.011-0.149
	l-0.017-0.006c-0.008-0.133-0.021-0.292-0.036-0.493l-0.048,0.257c0.062-0.886,0.076-4.866,0.088-5.583l0.01-0.053
	c0.025-0.081,0.059-0.094,0.09-0.099c0.038-0.752-0.004-1.074-0.059-1.304c0.02-0.317,0.039-0.638,0.078-0.971l-0.186-0.326
	l0.006-0.065l-0.048-0.014l-0.009-0.013c0.203-0.305,0.343-1.219,0.439-2.133l0.057-1.892v-0.003l-0.115-0.102l-0.053,0.1
	c0.02-0.428,0.02-0.76,0.083-0.271c-0.025-0.354,0.077-0.457,0.057-0.524c-0.021-0.083,0.026-0.043,0.026-0.406v-0.014h0.01V14.826z
	 M9.856,13.126c0.003,0.111,0.016,0.203,0.027,0.294c-0.005,0.039-0.01,0.072-0.015,0.11C9.865,13.411,9.862,13.279,9.856,13.126z
	 M9.886,13.994l-0.002,0.093c-0.002-0.064-0.008-0.128-0.008-0.198c0-0.013,0-0.027,0-0.04c0-0.121,0.004-0.256,0.011-0.399
	c0.005,0.041,0.008,0.083,0.015,0.12C9.896,13.694,9.892,13.831,9.886,13.994c0.026,0.14,0.045,0.194,0.06,0.183
	C9.931,14.188,9.912,14.135,9.886,13.994z M10.1,13.002c0.002,0,0.003,0,0.004,0c-0.001,0.001-0.002,0.003-0.004,0.004
	C10.1,13.006,10.1,13.004,10.1,13.002z M10.093,37.175c-0.003,0.001-0.006,0.007-0.01,0.013c-0.002-0.086,0.002-0.205,0.005-0.332
	c0.006,0.103,0.013,0.199,0.02,0.301C10.103,37.159,10.097,37.161,10.093,37.175z M10.1,46.22c0.016,0.069-0.019,0.058-0.052,0
	c0.002-0.004,0.005,0.007,0.008,0c-0.008-0.04,0.01-0.095-0.001-0.188C10.066,46.123,10.091,46.18,10.1,46.22z M9.86,43.702
	c0.005-0.062,0.009-0.12,0.014-0.185c0.025,0.023,0.055,0.137,0.057,0.625C9.965,44.005,9.919,43.855,9.86,43.702z M10.166,44.441
	l0.002,0.022v0.009L10.166,44.441l0.02-0.281l0.002-0.018L10.166,44.441z M23.627,13.626c0.207,0.112,0.388,0.194,1.255,0.281
	h-0.003C24.013,13.82,23.833,13.738,23.627,13.626z M53.982,12.653c0.025,0,0.049,0.004,0.078,0.004l-0.086-0.004H53.982z
	 M53.602,12.607c0.015,0.009,0.066,0.019,0.123,0.027C53.639,12.629,53.586,12.622,53.602,12.607z M53.678,12.55
	c-0.367,0.029-0.334,0.048-0.474,0.092c0.16-0.053,0.079-0.078,0.612-0.113C53.757,12.536,53.713,12.543,53.678,12.55z
	 M28.667,13.67c-0.424-0.015-0.398-0.052-0.308-0.096C28.624,13.596,28.712,13.625,28.667,13.67z M28.468,13.009
	c-0.001,0-0.001,0-0.002,0c-0.138-0.033-0.224-0.055-0.223-0.079C28.242,12.954,28.329,12.976,28.468,13.009z M28.226,12.746
	c-0.007-0.03-0.123-0.059-0.449-0.086l0.13-0.001C28.167,12.686,28.246,12.715,28.226,12.746z M27.946,12.976
	c-0.152-0.017-0.195-0.037-0.176-0.057C27.756,12.939,27.8,12.959,27.946,12.976z M27.824,12.649
	c0.013,0.001,0.025,0.002,0.036,0.003c-0.047,0.001-0.087-0.002-0.137,0l-0.028-0.002C27.741,12.647,27.777,12.651,27.824,12.649z
	 M26.035,13.265h0.124c0.028,0,0.057,0.004,0.065,0.006c-0.009-0.003-0.027-0.006-0.039-0.006h0.05c0.098,0,0.057,0.044-0.061,0.016
	l0.622,0.109c0.098,0.062,0.171,0.188,0.288,0.266c0.494-0.032,0.822-0.054,0.815-0.108c0.051,0.002,0.092,0.004,0.137,0.006
	l-0.177,0.092H27.66c-0.098,0.028-0.057,0.052,0.061,0.072l-0.622-0.037l-0.289-0.147c-0.494,0.023-0.821,0.038-0.814,0.077
	c-0.041-0.001-0.073-0.122-0.109-0.123L26.035,13.265z M25.335,13.475c0.298,0.023,0.286,0.067,0.211,0.12
	c-0.359-0.021-0.415-0.05-0.236-0.103C25.295,13.484,25.307,13.479,25.335,13.475z M24.967,13.438l-0.14,0.021
	c0.173,0,0.302,0.004,0.409,0.01c-0.323,0-0.681,0.002-1.005,0l-0.419-0.103C24.222,13.375,24.604,13.407,24.967,13.438z
	 M23.562,13.443l0.193,0.017c-0.076-0.002-0.143-0.007-0.207-0.011C23.554,13.446,23.559,13.444,23.562,13.443z M22.288,13.146
	c0.28,0.069,0.379,0.138,0.191,0.208c-0.53,0.003-1.017,0-1.483-0.009C21.147,13.286,21.417,13.228,22.288,13.146z M12.365,12.982
	c0.11,0.031,0.311,0.048,0.546,0.06C12.676,13.03,12.475,13.013,12.365,12.982L12.365,12.982z M11.276,12.979
	c0.044-0.016,0.063-0.03-0.015-0.043l0.051,0.001c0.057,0.013,0.025,0.027-0.017,0.042c-0.025,0.007-0.055,0.017-0.078,0.025h-0.011
	C11.224,12.995,11.251,12.986,11.276,12.979z M55.93,48.121v-0.014c0-0.017,0,0,0.002,0.021
	C55.932,48.127,55.93,48.122,55.93,48.121z M55.889,43.907c0-0.376,0.041-0.771,0.041-1.161v0.145h0.043
	c0.014,0,0.049-0.406,0.055-0.574c0.011,0.045,0.027,0.056,0.041,0.091c-0.008-0.071-0.006-0.144-0.012-0.201
	c0.012-0.003,0.025,0,0.035,0.024c-0.016,0.535-0.037,1.088-0.064,1.613l-0.084,0.479L55.889,43.907z M56.012,44.143l-0.019,0.299
	l0.003,0.022l-0.005,0.032l-0.036-0.042L56.012,44.143z M56.152,50.794c-0.008-0.094-0.014-0.188-0.018-0.296
	c0.01-0.028,0.018-0.059,0.027-0.122L56.152,50.794z M56.162,50.133l0.047,0.279C56.182,50.552,56.169,50.395,56.162,50.133z
	 M56.145,48.98c0.002-0.073,0-0.131,0.006-0.207l-0.002,0.209c0.017,0.021,0.024,0.033,0.033,0.049
	c-0.013,0.004-0.017,0.01-0.033,0.015l-0.006,0.466c0-0.044-0.002-0.09-0.004-0.123c0-0.111,0.002-0.228,0.006-0.346
	c-0.029,0.012-0.062,0.02-0.062,0.023c0-0.051-0.015-0.135-0.021-0.211C56.089,48.902,56.116,48.939,56.145,48.98z M56.193,45.26
	c-0.026-0.072-0.084-0.134-0.104-0.188l0.003-0.445C56.148,44.564,56.188,44.877,56.193,45.26z M56.641,44.17
	c0.006,0,0.008-0.002,0.012,0c-0.004,0.006-0.01,0.018-0.014,0.037L56.641,44.17z M56.143,40.605
	c-0.004,0.037-0.011,0.09-0.017,0.164c0,0.138,0.001,0.262,0.001,0.375c0,0.002,0,0.006,0,0.008
	c-0.001-0.114-0.001-0.24-0.001-0.383c0.005-0.076,0.013-0.127,0.017-0.168C56.143,40.604,56.143,40.604,56.143,40.605z
	 M56.659,32.864v0.084l-0.009,0.51c-0.016,0.024-0.028,0.042-0.043,0.069l-0.035-0.574C56.607,32.939,56.639,32.941,56.659,32.864z
	 M56.684,39.835l-0.06,0.033l-0.05-0.613c0.027-0.021,0.059-0.019,0.08-0.038l0.009,0.021l0.017,0.355c0.002,0.004,0.006,0,0.008,0
	L56.684,39.835z"/>
<g>
	<path fill="#BCC0C4" d="M53.113,44.301c0.014-0.109,0.021-0.301,0.021-0.66l-0.029,0.584L53.113,44.301z"/>
	<path fill="#BCC0C4" d="M53.355,47.495c-0.09,0.676-0.043-1.521-0.129-1.046c0.055,0.328-0.047,1.74,0.071,1.062l-0.022,0.688
		L53.355,47.495z"/>
	<path fill="#BCC0C4" d="M53.355,47.495c0.008-0.062,0.017-0.136,0.023-0.247L53.355,47.495z"/>
	<path fill="#BCC0C4" d="M9.553,9.756c0.081,0,0.136,0.004,0.18,0.01c0.073-0.005,0.144-0.01,0.234-0.01H9.553z"/>
	<path fill="#BCC0C4" d="M54.102,44.07c0.015-0.141,0.021-0.307,0.015-0.514L54.102,44.07z"/>
	<path fill="#BCC0C4" d="M54.034,45.464c-0.054,1.364-0.31,1.04-0.382-0.034c-0.03,1.271,0.199,1.235,0.053,2.521l0.174-0.025
		l-0.074,0.725c0.057-0.215,0.127,0.434,0.215,0.072c-0.207,0.389,0.086-2.635-0.188-1.51c0.203-0.83,0.236-1.849,0.27-3.143
		c-0.043,0.414-0.151,0.619-0.236,0.973L54.034,45.464z"/>
	<path fill="#BCC0C4" d="M15.659,10.237l0.921-0.012C16.086,10.221,15.808,10.226,15.659,10.237z"/>
	<path fill="#BCC0C4" d="M13.278,9.863c1.004,0.079,0.203,0.161,1.378,0.17C14.29,10,14.273,9.883,13.278,9.863z"/>
	<path fill="#BCC0C4" d="M7.277,44.301c-0.039,0.243-0.096,0.178-0.103,0.926c0.035-0.312,0.073-0.569,0.116-0.834L7.277,44.301z"/>
	<path fill="#BCC0C4" d="M7.174,45.243l0.003,0.71c0.018,0.146,0.033,0.221,0.044,0.248C7.224,45.729,7.275,45.171,7.174,45.243z"/>
	<path fill="#BCC0C4" d="M7.267,44.225l0.011,0.076c0.018-0.111,0.03-0.301,0.032-0.66L7.267,44.225z"/>
	<path fill="#BCC0C4" d="M7.01,43.898c0.092-0.375-0.025-0.812-0.025-1.264C6.801,43.837,7.008,42.544,7.01,43.898z"/>
	<path fill="#BCC0C4" d="M13.75,49.343c0.622,0.077-0.952,0.333,1.315,0.23C15.05,49.482,14.442,49.384,13.75,49.343z"/>
	<path fill="#BCC0C4" d="M54.121,42.381L54.1,42.928C54.123,42.833,54.133,42.561,54.121,42.381z"/>
	<path fill="#BCC0C4" d="M54.337,28.892c-0.019,0.08-0.035,0.164-0.05,0.276L54.337,28.892z"/>
	<polygon fill="#BCC0C4" points="54.27,25.83 54.264,25.877 54.361,25.907 	"/>
	<path fill="#BCC0C4" d="M54.637,13.18v-0.003l-0.115-0.102l-0.055,0.1c0.021-0.427,0.021-0.76,0.085-0.269
		c-0.022-0.354,0.079-0.457,0.058-0.524c-0.021-0.083,0.027-0.043,0.027-0.406v-0.014l-0.188-1.776l-0.045-0.414l-0.729-0.044
		L52.27,9.76l-1.064,0.034H51.2l-0.091-0.003l0.09-0.006c-0.27-0.012-0.49-0.011-0.461-0.041c0.031,0.022,0.229,0.05,0.461,0.05
		h0.005l1.049-0.034c-0.459-0.031-0.563-0.077-0.737-0.121c-0.156-0.045-0.285-0.095-0.414-0.142
		c-0.258-0.093-0.521-0.176-1.05-0.197c-2.36-0.094-3.852-0.029-5.225,0.083l1.06,0.03c1.098,0.044,0.961,0.376,2.297,0.455
		c-1.336-0.08-1.201-0.411-2.297-0.455l-1.06-0.03c-1.291,0.104-15.367,0.237-17.07,0.32c1.704-0.092,15.779-0.242,17.07-0.348
		c-3.775-0.078-17.789,0.343-21.589,0.454c-0.258,0.063-0.562-0.015-0.92-0.015h-0.021l-0.545,0.041
		c0.172,0.014,0.283,0.02,0.349,0.037c-0.133-0.003-0.264-0.015-0.412-0.004l0.063,0.002l0.355-0.004
		c0.415,0.111-1.198,0.265,0.292,0.326c-0.171-0.043-0.258-0.063-0.181-0.097c0.588,0.041,1.422,0.093,1.682,0.156
		c-0.865,0.083-1.08-0.096-1.449-0.016c-0.536-0.023-1.101-0.041-1.358-0.08c-0.075,0.072-0.314,0.133-0.59,0.192
		c-0.411-0.083-1.807-0.082-2.247-0.15c-0.005,0.006-0.02,0.013-0.027,0.019l-0.381-0.018l0.138,0.111l-0.172,0.044
		c-0.249-0.006-0.538-0.016-0.674-0.049c0.063,0.034,0.267,0.064,0.465,0.091c-0.107,0.022-0.217,0.042-0.323,0.062
		c-0.399-0.013-0.794-0.029-1.202-0.044c-0.045-0.025-0.102-0.052-0.188-0.079c0.083-0.034,0.05-0.064-0.322-0.085
		c0.021-0.005,0.046-0.01,0.094-0.015l-0.161,0.003l0.05,0.01l-0.274-0.012l0.188,0.148c-0.25-0.01-0.666-0.009-0.837-0.052
		c0.022,0.012,0.064,0.023,0.114,0.034c-0.018,0-0.037-0.002-0.055-0.002l-0.036,0.011c-0.286-0.015-0.572-0.027-0.855-0.054
		c0.06-0.024,0.12-0.277,0.176-0.295l0.147-0.237h-0.14c0.187,0,0.28,0.143-0.213,0.064l-1.34,0.237l0.902,0.21
		c0.052,0.013,0.106,0.056,0.16,0.07c-0.086,0.004-0.189,0.027-0.322,0.035l-0.528-0.005l-0.506-0.015v0.001l0.506,0.018
		c-0.105-0.027-0.139-0.061-0.188-0.096l0.165,0.003l-0.178-0.017c-0.11-0.075-0.283-0.148-1.194-0.169
		c0.249,0.008,0.415,0,0.742-0.015l-0.6-0.106l-0.196,0.016l-1.148-0.061L9.958,9.993l1.158,0.032l-0.444,0.035
		c-1.332-0.005-0.573-0.248-0.935-0.299C9.402,9.784,9.211,9.841,9.07,9.815c-0.201-0.03-0.19-0.012-0.711-0.039
		C8.18,9.92,7.031,9.853,6.891,9.915c0.006,0.028,0.016,0.06,0.027,0.067l-0.083,1.125l-0.008-0.292
		c-0.037,0.18-0.06,0.409-0.072,0.671L6.738,11.86l-0.003,0.248c-0.002,0.152,0.002,0.317,0.003,0.485l0.027,0.754
		c0.029,0.028,0.212,0.074,0.212,0.137v0.012c0-0.004,0-0.006,0-0.01c0,0.006,0,0.018,0,0.024c0,0.002,0,0.004,0,0.006
		c0,0.09-0.135,0.166-0.134,0.234L6.75,14.23c0.02-0.088-0.008-0.171-0.007-0.279c-0.001,0.108-0.026,0.192-0.045,0.281l0.029,0.229
		c-0.007,0.046-0.018,0.091-0.024,0.15c0.017,0.013,0.025,0.039,0.036,0.063L6.71,14.86c0.036,0.029,0.059,0.1,0.079,0.189
		l0.005,0.144c0,0.127-0.002,0.245,0.011,0.316l0.012,0.327L6.76,16.315l-0.009-0.178c-0.165,0.484-0.064,1.278-0.105,2.188
		c0.07,3.307-0.008,9.408,0.176,11.732c-0.028,0.168-0.062,0.264-0.1,0.207l0.118,0.15c-0.085,0.249-0.107,0.898-0.13,1.473
		c-0.017,0.024-0.032,0.032-0.051,0.008l0.048,0.062c-0.025,0.604,0.109,1.102,0.001,0.904c0.064,0.324,0.106,0.271,0.133,0.045
		C6.788,33.82,7.077,35.02,6.91,34.721c0.176,0.881-0.459-0.748-0.405-1.66c0.047,0.115,0.08,0.271,0.079,0.443
		c0.054-0.521,0.272-1.15,0.203-1.447c0.007-0.207,0.02-0.371,0.033-0.521c0.01,0.065,0.018,0.135,0.018,0.208
		c0.025-0.235,0.039-0.488,0.041-0.72c0.004-0.027,0.007-0.055,0.012-0.082c0.006,0.083,0.014,0.172,0.02,0.254l-0.073,1.098
		c0.027,0.388-0.146,0.847-0.118,1.326c-0.053,0.438,0.429,0.739,0.454,0.993c-0.031,0.312-0.063,0.725-0.14,0.537
		c0.083,1.234,0.106,0.38,0.193-0.144c0.054,0.336,0.113,0.705,0.09,1.396l-0.023,0.395c-0.024-0.193-0.045-0.316-0.062-0.395
		c0.007-0.15,0.015-0.311,0.015-0.452c-0.18,0.024-0.434,0.565-0.426,1.183c-0.023,0.129-0.054,0.188-0.096,0.082
		c0.042,0.614,0.072,0.725,0.103,0.624c-0.001,0.177-0.005,0.341-0.018,0.486c-0.008,0.093-0.02,0.177-0.033,0.248
		c-0.017,0.093-0.04,0.174-0.07,0.231l-0.01-0.166l-0.114,0.68c0.082,0.24,0.137,0.024,0.18-0.354l0.256,1.323
		c-0.064,0.427-0.046,0.346-0.015,0.354c-0.017,0.238-0.05,0.438-0.113,0.559l-0.012-0.182l-0.126,0.739
		c0.137,0.4,0.204-0.325,0.259-1.11c0.026,0.024,0.056,0.137,0.057,0.623c0.082-0.332-0.263-0.717-0.271-1.108
		c0.026-0.363-0.064-0.683-0.032-0.854c0.025,0.385,0.214,0.92,0.214,1.229v0.007l-0.042,0.902C7,41.988,7.078,43.557,7.195,43.35
		c-0.008-0.041,0.01-0.096-0.001-0.188c0.011,0.095,0.036,0.146,0.045,0.188c0.028,0.127-0.115-0.013-0.101-0.22L6.98,43.127v0.509
		v-0.433v0.89c0,0.101-0.032,0.199-0.048,0.296l0.048,0.336v0.498v0.014c0,0.221,0.118,1.099,0.064,0.966
		c-0.001,0.098-0.073,0.19-0.068,0.274c0.036-0.121,0.004-0.24,0.004-0.354c0,0.023,0,0.057,0,0.079c0,0.053,0.01-0.058,0.013-0.216
		c0-0.008-0.013-0.016-0.013-0.021v0.804c0,0.127,0.139,0.248,0.121,0.363c-0.057,0.397-0.018,0.86-0.063,1.44
		c0.075-0.128,0.122,0.188,0.112,0.61c0.346,0.008,0.795-0.277,1.128-0.295c-0.307-0.08-0.555-0.455-0.849-0.455h1.898
		c0.362,1.286,0.714,0.491,0.995,0.56c-0.03-0.003-0.06,0.146-0.091,0.143c0.572,0.071-0.872,0.384,1.206,0.29
		c-0.007-0.058-0.275-0.08-0.646-0.126c0.003-0.019,0.019-0.019,0.052-0.032c1.432-0.072,2.954-0.105,4.514-0.141
		c0.383,0.1,0.722,0.178,0.888,0.206l0.04,0.005c-0.019-0.02-0.027-0.031-0.023-0.051c0.805,0.134,1.618,0.238,2.633,0.195
		l2.182-0.026c0.644,0.083,1.323,0.133,2.118,0.103c2.259-0.008,18.104-0.119,19.823-0.086l-0.082,0.029
		c0.549-0.036,1.062-0.051,1.545-0.057l0.062,0.037c1.277,0.076,2.115,0.082,3.119,0.106c0.048-0.034,0.074-0.071,0.093-0.106
		c0.626-0.006,1.256-0.031,1.938-0.112l0.295,0.187c1.396,0.082,2.447,0.092,3.541,0.116c0.277-0.213-0.182-0.479-0.182-0.747
		v-0.439c0,0.003-0.076,0.01-0.043,0.013c0.026-0.253-0.039-0.537-0.031-0.935c0.006-0.45-0.021-0.983,0.017-1.653l-0.015,1.226
		l0.078,0.438v-1.421c0,0.021-0.137,0.041-0.136,0.052c0-0.158-0.063-0.495-0.062-0.646c0.002,0.147-0.028,0.299-0.028,0.299h-0.021
		c-0.002,0,0.242,0.356,0.242,0.347v0.276c0-0.396-0.021-0.768-0.011-1.217c-0.011-0.054-0.088-0.074-0.097-0.074
		c0.009,0-0.018,0.021-0.006,0.074l0.004,0.11l-0.026-0.168c0.015-0.524,0.007-1.161,0.056-2.079l-0.145,1.268l0.146,0.059
		c-0.028,0.24,0.076,0.484,0.076,0.773V44.95c0-0.19-0.104-0.375-0.082-0.554l0.062-0.094c-0.019,0.131,0.022,0.176,0.022,0.305
		v-1.231c0,0.002-0.133-0.002-0.127-0.019l0.057-0.188c0-0.06,0.07-0.106,0.07-0.16v-0.569c0-0.1-0.139-0.184-0.137-0.252
		l-0.066-0.026c-0.008,0.188-0.043,0.496-0.037,1.013l0.109,0.19c0.021,0.125,0.133-0.015,0.133-0.22v-0.006v0.508l-0.054-1.17
		c0.015-0.017-0.024,0.026-0.006,0.166l-0.063-0.384l0.004-0.493c0.101-0.104,0.146,0.967,0.047,1.529
		c0.074,1.16,0.066-1.55,0.111-0.203c0.076-2.259-0.088-0.287-0.131-2.013c0.227,1.041,0.274,2.414,0.635,3.147
		c-0.037-1.438,0.16-0.651,0.229-1.841l0.042-1.09l-0.344,1.402c-0.014-0.521,0-0.94,0.022-1.315
		c-0.003-0.007-0.009-0.015-0.011-0.021L53.9,40.73c0.013-0.449,0.031-0.941-0.021-0.936c0.056-0.036,0.033,0.475,0.024,0.936
		c0.08-0.765,0.186-1.418,0.142-2.584l-0.026-0.062c-0.027,0.737-0.08,1.36-0.207,1.896c-0.004,0.021-0.006,0.023-0.014,0.041
		c0.137-0.545,0.188-1.186,0.221-1.938c-0.037-0.066-0.067-0.09-0.096-0.08c0.027-0.01,0.059,0.016,0.096,0.08l0.026-0.941
		c-0.032,0.383-0.137,0.565-0.216,0.889l0.023,0.062l0,0v0.005c-0.078,0.17-0.129,0.433-0.285-0.516
		c0.005-0.576,0.027-0.873,0.062-1.021c0.061,0.272,0.133,0.521,0.229,0.723l-0.004-0.327c0.225-0.351,0.135-0.39,0.416-1.55
		c-0.058-0.383-0.129,0.089-0.209,0.57c0.011-0.112,0.015-0.269,0.004-0.382l-0.019,0.52c-0.057,0.336-0.12,0.729-0.188,0.729
		c-0.002,0-0.006,0-0.008,0c0.026-1.286,0.16-0.309,0.211-1.192l0.043-1.026l-0.062,0.242l0.006-0.146l-0.144,0.56
		c-0.004-1.354,0.158-1.561,0.275-1.125c-0.054-2.068,0.264-1.303,0.098-2.902c-0.08,0.552-0.229,0.933-0.25,1.479l0.01-0.726
		L54,32.164l-0.008-0.456c-0.021-0.049-0.036-0.08-0.055-0.101c0.072-0.643,0.334,0.459,0.283-1.708
		c-0.013,0.725-0.104,0.194-0.177,0.024l0.032-0.213l0.117-0.519c-0.014-0.081-0.023-0.121-0.036-0.13
		c0.073-0.715,0.116-1.354,0.272-1.181c0.021,0.612-0.041,0.771-0.098,1.009c0.029-0.085,0.064-0.102,0.102-0.105
		c0.086-1.766-0.227-1.376-0.195-2.447c0.013-0.085,0.018-0.181,0.016-0.311l0.012-0.15L54.25,25.87
		c-0.007-0.133-0.02-0.292-0.038-0.493l-0.045,0.257c0.063-0.886,0.076-4.866,0.086-5.583l0.011-0.053
		c0.026-0.082,0.061-0.094,0.088-0.099c0.039-0.752-0.002-1.075-0.056-1.305c0.017-0.317,0.039-0.638,0.077-0.971l-0.184-0.326
		l0.006-0.065l-0.049-0.014l-0.008-0.015c0.201-0.305,0.344-1.219,0.438-2.133L54.637,13.18z M53.134,41.602l-0.007,0.03
		l-0.033-0.042l0.053-0.312l-0.015,0.301L53.134,41.602z M20.763,10.762c0.207,0.112,0.388,0.195,1.255,0.28h-0.004
		C21.149,10.957,20.969,10.874,20.763,10.762z M22.471,10.611c0.298,0.023,0.286,0.067,0.211,0.12
		c-0.359-0.021-0.415-0.05-0.236-0.103C22.431,10.621,22.442,10.615,22.471,10.611z M25.497,10.71
		c0.264,0.021,0.353,0.051,0.308,0.095C25.381,10.79,25.405,10.754,25.497,10.71z M24.905,10.055
		c-0.015,0.021,0.03,0.04,0.176,0.057C24.93,10.095,24.886,10.075,24.905,10.055z M25.377,10.066c0,0.023,0.087,0.045,0.226,0.079
		c-0.001,0-0.001,0-0.002,0C25.463,10.111,25.375,10.089,25.377,10.066z M7.236,10.139c0.001,0,0.002,0,0.003,0
		c-0.001,0.001-0.002,0.002-0.003,0.003C7.236,10.142,7.236,10.14,7.236,10.139z M24.837,11.081h-0.263
		C24.672,11.081,24.757,11.081,24.837,11.081z M53.262,37.906c0.006-0.077,0.012-0.127,0.018-0.167c0,0,0,0,0,0.002
		C53.271,37.781,53.268,37.832,53.262,37.906c0,0.136,0.002,0.26,0.002,0.373c0,0.002,0,0.008,0,0.01
		C53.264,38.174,53.262,38.051,53.262,37.906z M26.254,9.78c0.062-0.005,0.125-0.008,0.183-0.018
		C26.377,9.77,26.317,9.777,26.254,9.78z M25.361,9.882c-0.007-0.029-0.123-0.059-0.448-0.086l0.13-0.002
		C25.302,9.822,25.382,9.851,25.361,9.882z M24.22,10.791c0.494-0.032,0.822-0.054,0.815-0.108c0.051,0.002,0.092,0.004,0.137,0.006
		l-0.176,0.092h-0.2c-0.098,0.028-0.057,0.052,0.061,0.072l-0.622-0.036l-0.289-0.148c-0.493,0.023-0.821,0.039-0.813,0.078
		c-0.04-0.001-0.072-0.122-0.109-0.123l0.149-0.227h0.124c0.028,0,0.057,0.005,0.065,0.007c-0.009-0.002-0.027-0.007-0.04-0.007
		h0.05c0.097,0,0.057,0.045-0.061,0.017l0.622,0.109C24.029,10.588,24.103,10.714,24.22,10.791z M22.372,10.604
		c-0.324,0-0.681,0.002-1.005,0l-0.42-0.103c0.411,0.009,0.792,0.041,1.156,0.072l-0.14,0.021
		C22.136,10.596,22.267,10.599,22.372,10.604z M20.892,10.596c-0.076-0.002-0.143-0.008-0.208-0.011
		c0.004-0.002,0.009-0.004,0.013-0.006L20.892,10.596z M8.431,10.114c-0.025,0.008-0.055,0.017-0.077,0.026H8.342
		c0.018-0.008,0.045-0.017,0.069-0.025c0.044-0.016,0.064-0.03-0.014-0.043l0.05,0.001C8.504,10.085,8.474,10.098,8.431,10.114z
		 M7.037,10.704c-0.005,0.126-0.01,0.263-0.015,0.425c0.026,0.14,0.043,0.194,0.059,0.183c-0.016,0.012-0.035-0.041-0.061-0.183
		l-0.001,0.094c-0.002-0.065-0.007-0.128-0.007-0.199c0-0.013,0-0.027,0-0.04c0-0.121,0.004-0.256,0.011-0.399
		C7.028,10.625,7.032,10.666,7.037,10.704z M7.3,41.579l0.021-0.283l0.002-0.019L7.3,41.579L7.303,41.6v0.006L7.3,41.579z
		 M50.95,9.663c-0.058,0.008-0.103,0.016-0.138,0.022c-0.463,0.036-0.273,0.055-0.619,0.128C50.57,9.735,50.302,9.707,50.95,9.663z
		 M24.959,9.784c0.013,0.001,0.024,0.002,0.036,0.004c-0.047,0.001-0.087-0.002-0.138,0L24.83,9.786
		C24.877,9.783,24.913,9.787,24.959,9.784z M19.617,10.49c-0.53,0.004-1.018,0-1.484-0.009c0.151-0.06,0.421-0.118,1.292-0.199
		C19.704,10.351,19.804,10.42,19.617,10.49z M12.134,10.271c-0.053-0.009-0.143-0.022-0.277-0.04l0,0
		c0.135,0.017,0.227,0.03,0.28,0.04H12.134z M10.047,10.177L10.047,10.177c-0.235-0.011-0.435-0.029-0.547-0.059h0.001
		C9.611,10.148,9.812,10.166,10.047,10.177z M7.019,10.558c-0.004,0.039-0.01,0.072-0.015,0.11c-0.002-0.12-0.006-0.252-0.012-0.405
		C6.996,10.375,7.008,10.465,7.019,10.558z M7.224,33.989c0.006,0.101,0.013,0.202,0.02,0.3c-0.005,0.005-0.011,0.008-0.015,0.021
		c-0.004,0.002-0.006,0.006-0.01,0.01C7.216,34.236,7.221,34.118,7.224,33.989z M53.066,45.264c0-0.002-0.002-0.006-0.002-0.007
		v-0.014C53.064,45.232,53.064,45.243,53.066,45.264z M53.163,40.98l-0.084,0.476l-0.056-0.413c0-0.376,0.043-0.771,0.043-1.161
		v0.144h0.041c0.018,0,0.05-0.402,0.056-0.571c0.009,0.046,0.026,0.054,0.042,0.088c-0.012-0.067-0.008-0.144-0.014-0.2
		c0.014-0.003,0.024,0,0.037,0.027C53.214,39.902,53.189,40.453,53.163,40.98z M53.775,41.307c0.004,0,0.009-0.004,0.013,0
		c-0.004,0.006-0.011,0.02-0.015,0.035L53.775,41.307z M53.828,39.247c-0.012-0.001-0.021-0.009-0.031-0.024
		C53.807,39.238,53.816,39.246,53.828,39.247z M53.76,37.004l-0.049-0.613c0.027-0.02,0.057-0.019,0.08-0.039l0.008,0.023
		l0.016,0.355c0.004,0.002,0.01,0,0.013,0l-0.003,0.237L53.76,37.004z M53.745,30.662l-0.035-0.575
		c0.033-0.01,0.063-0.009,0.084-0.086v0.083l-0.008,0.51C53.773,30.616,53.76,30.637,53.745,30.662z"/>
	<g>
		<rect x="8.266" y="11.081" fill="#FFFFFF" width="45.082" height="37.354"/>
		<g>
			<g>
				<g>
					<path fill="#FFFFFF" d="M51.498,41.307l-0.01,0.082l-0.008,0.293c0.115,0.338,0.084,1.014,0.054,1.905
						c0.034,0,0.069-0.078,0.088,0.239c-0.071,1.417,0,0.708,0.067,1.73c0-0.313-0.008-0.713,0.024-0.867l0.033,1.968
						c0.065-0.271,0.144-0.493,0.194-0.164c0.138-0.2,0.301,0.45,0.441,0.692c0.02-0.354,0.037-0.635,0.055-0.766
						c0.061,0.045,0.084,0.385,0.095,0.795c0.015-0.027,0.028-0.064,0.044-0.13c-0.016,0.062-0.029,0.101-0.044,0.13l0.004,0.858
						c0.019-0.159,0.032-0.317,0.062-0.24V46.65c0.016-0.035,0.024,0,0.032,0.072l-0.032-0.305l-0.031,0.232
						c-0.027,0.08-0.045-0.076-0.062-0.232c-0.011-0.312,0.018-0.396,0.033-0.554l-0.062-0.63c-0.104-0.236-0.062,1.656-0.158,0.63
						l0.027-0.312c-0.027-0.473-0.027-1.101-0.098-1.418c0.125-0.474-0.098-1.339,0.07-1.419c0.08-1.81-0.053-4.172,0.125-5.982
						c-0.116-0.312-0.336-0.312-0.478-1.102c0.021-0.154,0.037-0.396,0.062-0.314l-0.062-0.549c0,0.312,0.013,0.709-0.032,0.863
						c-0.056-0.863-0.101,0.396-0.158,0.316l-0.062-1.184l-0.021,0.143l-0.203,6.338L51.498,41.307z"/>
					<path fill="#FFFFFF" d="M46.607,10.548l0.021,0.131c-5.526,0.102-11.646,0.121-18.111,0.098L7.575,10.635L7.48,24.544
						l-0.02,13.09l-0.489-0.545l0.24,5.435l0.109,2.779l0.112,3.648l2.768-0.082l1.871-0.086l3.568-0.194l-2.167-0.085
						c1.985-0.271,7.057-0.445,10.184-0.385l-0.309,0.131c-4.287,0.07,0.292,0.039-1.445,0.391l-0.745,0.066l0.436,0.061
						l0.745-0.062c-0.083,0.071-0.019,0.169-0.723,0.192l0.994,0.017c2.137,0.351,2.142,0.646,1.874,1.036
						c0.56-0.049-0.023-0.432,2.36-0.305l-0.312,0.129l2.607-0.229l1.162,0.168c0.93-0.08,1.53-0.168,2.484-0.117l0.289-0.257
						c4.266,0.097,9.649-0.204,13.977-0.014c0.951-0.249,3.273,0.081,5.693-0.132l-1.039-0.274
						c-2.612-0.372-8.722-0.178-12.947-0.312l0.166-0.146c0.888-0.041,1.529-0.164,2.627-0.092l0.289-0.258
						c-1.853-0.906-7.618,0.191-9.153,0.062c-3.25-0.251,2.127-0.552,0.573-0.516c3.581-0.349-2.988-0.644-4.503-0.938
						c-2.106-0.302-5.471-0.375-9.007-0.371l-9.597,0.09c-0.074,0.027-0.17,0.062-0.284,0.086c-0.031-0.075-0.057-0.187-0.08-0.314
						c-0.003-0.027-0.006-0.002-0.008-0.08L9.772,45.91l-0.015-0.446l-0.025-0.896l-0.054-3.687
						c-0.013-2.491,0.014-5.053,0.057-7.581c0.084-5.055,0.23-9.995,0.224-14.079c0.021-1.113-0.036-2.409-0.113-3.76L9.72,13.411
						l-0.115-0.736c0.156-0.027,0.337-0.047,0.522-0.057l0.608-0.006l0.737,0.014c0.951,0.031,1.77,0.122,2.377,0.306l7.727,0.162
						l-0.165,0.146c7.519,0.048,15.817-0.306,22.836-0.416c3.065-0.032,3.995-0.412,5.387,0l0.763,0.03l0.388,0.011l0.114,0.011
						c0.109,0.011,0.213,0.02,0.317,0.022l0.048,2.545l0.133,4.124c0.102,2.741,0.209,5.437,0.229,7.914
						c0.133-0.021,0.271,0.805,0.343-0.293c-0.162-3.042,0.165-6.546,0.522-6.653l-0.034,1.139l0.291-2.032l-0.113-1.306
						c0.088-0.333,0.157-0.483,0.215-0.505c0.062-1.112,0.174-2.15,0.295-3.2c0.062-0.559,0.125-0.975,0.188-1.667l0.177-2.347
						l-0.057-0.003l-1.812,0.048l-1.633,0.017C49.008,10.674,47.896,10.635,46.607,10.548z"/>
				</g>
			</g>
		</g>
	</g>
	<path fill="#BCC0C4" d="M54.055,36.671l-0.012,0.474C54.055,37.016,54.061,36.863,54.055,36.671z"/>
	<path fill="#BCC0C4" d="M53.971,41.409c-0.078,0.147-0.078-0.241-0.068-0.679l-0.059,0.647
		C53.881,41.477,53.924,41.604,53.971,41.409z"/>
	<path fill="#BCC0C4" d="M11.085,9.93c0.922,0.072,0.187,0.148,1.265,0.157C12.017,10.055,12,9.949,11.085,9.93z"/>
	<polygon fill="#BCC0C4" points="7.171,45.243 7.172,45.243 7.174,45.227 	"/>
	<polygon fill="#BCC0C4" points="54.198,17.188 54.195,17.233 54.284,17.258 	"/>
	<g>
		<g>
			<rect x="10.842" y="13.657" fill="#A1F6FF" width="39.93" height="24.474"/>
		</g>
		<g>
			<path fill="none" d="M47.688,13.967c-0.01-0.07-0.554-0.15-1.172-0.182C47.07,13.844,45.67,14.047,47.688,13.967z"/>
			<path fill="none" d="M18.944,13.697l0.842-0.038c-0.688-0.072-1.949-0.124-2.525-0.197C16.301,13.58,19.555,13.523,18.944,13.697
				z"/>
			<path fill="none" d="M10.476,27.847c0.057,0.1,0.112-0.01,0.168-0.266l-0.053-0.563C10.543,27.149,10.51,27.503,10.476,27.847z"
				/>
			<polygon fill="none" points="25.854,13.744 26.24,13.764 26.347,13.747 			"/>
			<path fill="none" d="M21.09,13.614l0.332-0.014l-0.182-0.054C21.056,13.57,21.039,13.592,21.09,13.614z"/>
			<path fill="none" d="M10.419,20.422l-0.046,0.214c0.012,0.116,0.023,0.183,0.033,0.215L10.419,20.422z"/>
			<path fill="none" d="M27.233,13.797l-0.099,0.029l0.446,0.02C27.5,13.827,27.376,13.812,27.233,13.797z"/>
			<path fill="none" d="M10.547,21.22l-0.048-0.233l-0.016,0.479C10.503,21.42,10.525,21.322,10.547,21.22z"/>
			<path fill="none" d="M28.241,13.873c-0.171-0.015-0.318-0.036-0.409-0.063l-0.062,0.043L28.241,13.873z"/>
			<path fill="none" d="M10.362,19.4l-0.002,0.017l-0.003,0.434c0.052-0.193,0.099-0.468,0.145-0.774
				C10.448,19.205,10.404,19.226,10.362,19.4z"/>
			<path fill="none" d="M32.616,13.693c0.135,0.026,0.374,0.047,0.569,0.069l0.707,0.043c-0.113-0.027-0.188-0.062-0.197-0.119
				l0.434,0.012l-0.75-0.116c-0.146-0.002-0.292,0-0.438,0.009C32.634,13.634,32.549,13.666,32.616,13.693z"/>
			<path fill="none" d="M32.518,13.657c0.057-0.007,0.103-0.021,0.131-0.04l-0.104,0.012C32.518,13.639,32.512,13.65,32.518,13.657z
				"/>
			<path fill="none" d="M29.472,13.366l-0.385,0.091c0.477-0.017,0.718-0.057,1.022-0.093
				C29.977,13.357,29.769,13.357,29.472,13.366z"/>
			<path fill="none" d="M10.508,15.142l-0.013-0.036l-0.076,1.098c0.028-0.115,0.066-0.161,0.12-0.102l0.02-0.247l0.017-1.396
				l-0.008-0.121c-0.026,0.168-0.048,0.431-0.068,0.702L10.508,15.142z"/>
			<path fill="none" d="M12.669,13.245l0.367,0.08C13.199,13.294,13.302,13.259,12.669,13.245z"/>
			<path fill="none" d="M13.254,13.371l-0.218-0.047C12.842,13.359,12.559,13.387,13.254,13.371z"/>
			<path fill="none" d="M11.832,13.739c0.096-0.012,0.205-0.021,0.331-0.022l-0.384-0.003C11.816,13.719,11.83,13.729,11.832,13.739
				z"/>
			<polygon fill="none" points="10.61,16.005 10.594,16.179 10.609,16.074 			"/>
			<path fill="none" d="M25.138,37.588c-0.032,0.027-0.025,0.047,0.001,0.066l0.952,0.019l-0.052-0.007
				C25.826,37.62,25.685,37.572,25.138,37.588z"/>
			<polygon fill="none" points="10.354,17.219 10.354,17.231 10.35,17.632 10.353,17.623 			"/>
			<path fill="#A1F6FF" d="M45.796,37.794l0.5,0.013C46.158,37.794,45.997,37.786,45.796,37.794z"/>
			<path fill="#A1F6FF" d="M47.615,38.188c1.232,0.026,1.199-0.172,2.445-0.045l-0.021-0.146l0.699,0.062
				c-0.209-0.05,0.419-0.106,0.07-0.186c0.379,0.178-2.558-0.074-1.463,0.161c-0.81-0.175-1.8-0.2-3.055-0.229
				c0.4,0.033,0.604,0.133,0.938,0.202l0.416-0.147C48.975,37.906,48.658,38.126,47.615,38.188z"/>
			<polygon fill="#A1F6FF" points="10.321,19.999 10.357,19.851 10.36,19.417 			"/>
			<path fill="#A1F6FF" d="M10.595,17.228l-0.011,0.885l0.062-0.741C10.629,17.354,10.614,17.296,10.595,17.228z"/>
			<polygon fill="#A1F6FF" points="10.582,14.233 10.569,14.336 10.578,14.458 			"/>
			<path fill="#A1F6FF" d="M10.6,13.89l0.123,0.241c0.02-0.057,0.042-0.101,0.067-0.134c-0.034-0.066-0.072-0.224-0.105-0.153
				l0.001-0.097l0.366,0.007l-0.176-0.077l-0.273-0.011L10.6,13.89z"/>
			<polygon fill="#A1F6FF" points="10.691,17.395 10.702,17.255 10.687,17.315 			"/>
			<path fill="#A1F6FF" d="M10.561,15.855l-0.02,0.247c-0.054-0.059-0.091-0.014-0.12,0.102l-0.067,1.016l-0.001,0.403
				c0.083-0.329,0.159-0.88,0.241-1.441l0.016-0.176l-0.001,0.069l0.031-0.209l0.083,1.059l0.075-1.127l-0.17-0.322l0.006-0.37
				l-0.077,0.933L10.561,15.855z"/>
			<path fill="#A1F6FF" d="M10.76,13.629l-0.197-0.074L10.5,13.561l0.044,0.492c0.015-0.15,0.023-0.29,0.026-0.423L10.76,13.629
				L10.76,13.629z"/>
			<polygon fill="#A1F6FF" points="10.36,19.402 10.36,19.417 10.362,19.4 			"/>
			<path fill="#A1F6FF" d="M10.408,18.158l-0.053,0.238l0.004,0.625C10.38,18.854,10.397,18.638,10.408,18.158z"/>
			<path fill="#A1F6FF" d="M10.852,13.932c-0.024,0.017-0.042,0.041-0.063,0.066C10.815,14.046,10.837,14.053,10.852,13.932z"/>
			<path fill="#A1F6FF" d="M10.607,18.656c-0.039,0.227-0.075,0.341-0.107,0.419c-0.046,0.306-0.092,0.581-0.144,0.774
				c-0.006,0.434-0.022,0.826-0.055,1.116l0.068-0.312l-0.002-0.076l0.006,0.059l0.046-0.214l-0.014,0.429
				c0.038,0.123,0.071-0.282,0.113-0.565c0.013-0.347,0.028-0.689,0.057-1.03l0.051,0.17l-0.006-0.677
				C10.617,18.703,10.613,18.676,10.607,18.656z"/>
			<path fill="#A1F6FF" d="M10.619,18.606l0.002,0.143c0.008,0.115,0.012,0.333,0.009,0.684c0.05,0.18,0.079,0.271,0.146-0.208
				l-0.102-1.301l-0.13,0.876c0.026-0.118,0.049-0.208,0.064-0.143L10.619,18.606z"/>
			<path fill="#A1F6FF" d="M10.482,21.466l0.015-0.479c-0.046-0.216-0.084-0.302-0.091,0.632l-0.019-0.471
				c-0.027,0.354-0.063,0.449-0.088,0.921c0.006-0.008,0.014-0.015,0.02-0.013c0.075-0.56,0.146-0.414,0.247-0.768l-0.021-0.07
				C10.525,21.322,10.503,21.42,10.482,21.466z"/>
			<path fill="#A1F6FF" d="M10.652,21.068l0.01,0.896C10.666,21.483,10.662,21.212,10.652,21.068z"/>
			<path fill="#A1F6FF" d="M10.652,21.068l-0.002-0.157l-0.01,0.048v0.018C10.644,20.997,10.649,21.021,10.652,21.068z"/>
			<path fill="#A1F6FF" d="M10.418,24.196c0.002-0.394,0.011-0.614,0.023-0.731l-0.054-0.135L10.418,24.196z"/>
			<path fill="#A1F6FF" d="M10.668,23.56l0.016-0.371l-0.095,0.134C10.614,23.428,10.64,23.511,10.668,23.56z"/>
			<path fill="#A1F6FF" d="M10.594,22.503c-0.031,0.062-0.055,0.258-0.08,0.452l0.037,0.203
				C10.557,22.915,10.564,22.635,10.594,22.503z"/>
			<path fill="#A1F6FF" d="M10.357,14.8c-0.071,0.285-0.126,0.747-0.087-0.317l-0.022-0.115c-0.016,0.045-0.032,0.084-0.054,0.11
				c0.002,0.271,0.012,0.625-0.044,0.546c0.09,0.25,0.14,0.68,0.032,1.4c0.157-0.188,0.14-0.965,0.165-1.333L10.357,14.8z"/>
			<polygon fill="#A1F6FF" points="10.5,15.039 10.496,15.106 10.508,15.142 			"/>
			<path fill="#A1F6FF" d="M10.194,14.456l0.027-0.208C10.196,14.156,10.193,14.278,10.194,14.456z"/>
			<path fill="#A1F6FF" d="M11.695,13.374l-0.235-0.051C11.259,13.361,10.97,13.392,11.695,13.374z"/>
			<path fill="#A1F6FF" d="M11.036,13.236l0.424,0.086C11.63,13.29,11.762,13.254,11.036,13.236z"/>
			<path fill="#A1F6FF" d="M10.722,13.437l0.174-0.011l-0.619-0.089l-0.001,0.01c0.001,0,0.002-0.002,0.004-0.006
				C10.356,13.363,10.603,13.398,10.722,13.437z"/>
			<path fill="#A1F6FF" d="M10.334,13.504l0.071,0.056l-0.006-0.1l0.178-0.013c-0.018-0.027-0.107-0.038-0.237-0.046L10.334,13.504z
				"/>
			<path fill="#A1F6FF" d="M10.826,20.094c0.029-0.354,0.129-0.372,0.146-1.339C10.905,19.729,10.835,18.951,10.826,20.094z"/>
			<polygon fill="#A1F6FF" points="10.888,15.609 10.858,15.525 10.82,17.025 			"/>
			<path fill="#A1F6FF" d="M19.315,13.826c0.059-0.029,0.01-0.054-0.088-0.078C19.129,13.771,19.129,13.797,19.315,13.826z"/>
			<path fill="#A1F6FF" d="M17.671,13.421c-0.249-0.021-0.363-0.017-0.429-0.004l0.197,0.026L17.671,13.421z"/>
			<path fill="#A1F6FF" d="M21.09,13.614c-0.051-0.022-0.034-0.044,0.149-0.069l-0.023-0.008c-0.383,0.012-0.894-0.021-1.087-0.055
				l0.468,0.141l-0.664,0.029c-0.012,0.004-0.015,0.009-0.031,0.014L21.09,13.614z"/>
			<path fill="#A1F6FF" d="M18.944,13.697c0.61-0.173-2.644-0.116-1.683-0.234l-0.107-0.016c-0.055,0.027-0.106,0.062-0.346,0.076
				l-1.073-0.137c-0.051,0.155,2.907,0.222,3.492,0.364c0.148-0.034,0.521-0.054,0.844-0.053l-0.284-0.038L18.944,13.697z"/>
			<path fill="#A1F6FF" d="M20.251,13.702c0.208,0.008,0.365,0.031,0.372,0.071c0.538-0.011,0.75-0.027,0.805-0.046
				C21.346,13.647,20.578,13.656,20.251,13.702z"/>
			<path fill="#A1F6FF" d="M20.129,13.483l-0.084-0.028C20.047,13.466,20.083,13.473,20.129,13.483z"/>
			<path fill="#A1F6FF" d="M19.614,13.359c0.122-0.027,0.157-0.046,0.061-0.031l-0.43,0.014
				C19.353,13.354,19.478,13.359,19.614,13.359z"/>
			<path fill="#A1F6FF" d="M18.734,13.416l-0.271,0.025l0.093,0.03c0.307,0.003,0.599-0.03,0.819-0.066l-0.187-0.059
				c-0.433,0.018-0.829,0.035-1.094-0.023l0.269,0.086C18.428,13.398,18.529,13.397,18.734,13.416z"/>
			<path fill="#A1F6FF" d="M12.042,13.966c-0.212-0.003-0.367-0.007-0.342-0.016L12.042,13.966l1.057-0.015L12.194,13.8
				c0.174,0.012,0.314,0.012,0.441,0.005c-0.122-0.022-0.196-0.046-0.182-0.076l0.265,0.009l-0.335-0.022l-0.221-0.002
				c-0.126,0.002-0.235,0.01-0.331,0.022c0,0.024-0.104,0.048-0.151,0.071l0.203,0.057c-0.241-0.015-0.25-0.035-0.203-0.057
				l-0.12-0.031c-0.199,0.047-0.296,0.101-0.601,0.066c0.33,0.074,0.426,0.125,0.643,0.175l1.187,0.168
				c0.098-0.103,0.536-0.111,0.993-0.134l-0.603-0.087C13.137,14.056,12.514,13.998,12.042,13.966z"/>
			<path fill="#A1F6FF" d="M12.042,13.966c0.472,0.03,1.097,0.09,1.137-0.002l-0.069-0.01L12.042,13.966z"/>
			<polygon fill="#A1F6FF" points="13.109,13.954 13.099,13.953 12.042,13.966 			"/>
			<path fill="#A1F6FF" d="M11.7,13.951c-0.025,0.009,0.13,0.015,0.341,0.016L11.7,13.951z"/>
			<path fill="#A1F6FF" d="M20.368,13.813c1.414,0.066-0.682,0.14,0.9,0.146C21.517,13.872,21.069,13.822,20.368,13.813z"/>
			<polygon fill="#A1F6FF" points="37.73,13.739 37.904,13.729 37.088,13.55 36.914,13.561 			"/>
			<path fill="#A1F6FF" d="M25.817,13.593c-0.123-0.02-0.219-0.042-0.273-0.062c-0.393-0.077,0.436-0.257-0.937-0.133
				C25.209,13.483,24.706,13.586,25.817,13.593z"/>
			<path fill="#A1F6FF" d="M27.338,13.463c-0.574,0.02-0.286,0.121,0.182,0.181l0.306-0.006
				C27.564,13.591,27.842,13.503,27.338,13.463z"/>
			<polygon fill="#A1F6FF" points="36.534,13.344 36.166,13.351 36.309,13.359 			"/>
			<path fill="#A1F6FF" d="M39.729,13.626c0.234,0.033,0.174,0.081,0.897,0.089l-0.81-0.101L39.729,13.626z"/>
			<path fill="#A1F6FF" d="M40.646,13.714l0.688-0.002c0.141-0.016,0.214-0.028,0.241-0.038
				C41.117,13.671,40.573,13.627,40.646,13.714z"/>
			<polygon fill="#A1F6FF" points="40.771,13.494 40.607,13.516 40.663,13.517 			"/>
			<path fill="#A1F6FF" d="M39.086,13.599l0.564,0.037l0.076-0.009C39.62,13.611,39.436,13.601,39.086,13.599z"/>
			<path fill="#A1F6FF" d="M32.848,13.888c0.594-0.035,0.704-0.062,0.61-0.088l-0.692,0.005
				C32.891,13.826,32.95,13.852,32.848,13.888z"/>
			<path fill="#A1F6FF" d="M33.186,13.762c-0.193-0.022-0.435-0.043-0.567-0.069C32.686,13.72,32.902,13.742,33.186,13.762z"/>
			<path fill="#A1F6FF" d="M30.562,13.601c-0.078,0.027,0.002,0.05,0.141,0.069c0.327-0.046,0.686-0.097,1.353-0.078
				C31.583,13.563,31.045,13.524,30.562,13.601z"/>
			<path fill="#A1F6FF" d="M34.168,13.843c-0.07-0.012-0.15-0.022-0.241-0.028C33.997,13.827,34.079,13.836,34.168,13.843z"/>
			<path fill="#A1F6FF" d="M34.889,13.483l1.674,0.087c0.319,0.003,0.492,0.013,0.59,0.027l0.586-0.075L37.264,13.5
				c-0.104-0.118,0.938-0.18,1.48-0.063c1.127-0.091-1.506-0.086-0.199-0.137c-2.473-0.105,0.291,0.158-2.781,0.165
				c-0.434-0.043-0.289-0.074-0.002-0.094C35.297,13.354,34.818,13.403,34.889,13.483z"/>
			<path fill="#A1F6FF" d="M33.21,13.558l-0.269,0.035c0.145-0.009,0.291-0.011,0.438-0.009L33.21,13.558z"/>
			<path fill="#A1F6FF" d="M36.723,13.96l-0.175,0.009l0.718,0.108c0.389-0.118-0.315-0.175-1.08-0.224l-0.004,0.007
				C36.413,13.876,36.605,13.905,36.723,13.96z"/>
			<path fill="#A1F6FF" d="M38.598,13.6h-0.002h0.49l-1.137-0.066C37.977,13.569,38.338,13.583,38.598,13.6z"/>
			<path fill="#A1F6FF" d="M34.615,13.774L34.128,13.7l-0.435-0.012c0.01,0.055,0.084,0.093,0.197,0.119l0.658,0.049l1.285-0.006
				l-0.167-0.021l0.044-0.001c-0.354-0.021-0.661-0.043-0.828-0.07L34.615,13.774z"/>
			<path fill="#A1F6FF" d="M30.111,13.365l0.144-0.015c-0.21-0.01-0.462-0.013-0.698-0.003l-0.084,0.021
				C29.769,13.357,29.977,13.357,30.111,13.365z"/>
			<path fill="#A1F6FF" d="M31.322,13.384l0.461-0.109c-0.552-0.006-0.653,0.01-0.648,0.035l0.102-0.001
				C31.146,13.356,31.197,13.377,31.322,13.384z"/>
			<path fill="#A1F6FF" d="M37.15,13.597l-0.066,0.009l-0.521-0.035h-0.449c0.337,0.055,0.236,0.089-0.025,0.113l0.876,0.136
				c0.524-0.054,2.052-0.071,1.851-0.171l-0.188,0.025C37.245,13.696,37.421,13.634,37.15,13.597z"/>
			<path fill="#A1F6FF" d="M32.443,13.436l0.122-0.033c0.211-0.077,0.399-0.068,0.672-0.056c0.009-0.01,0.021-0.021,0.048-0.035
				c-0.702,0.001-1.047,0.039-1.364,0.078C32.125,13.391,32.323,13.401,32.443,13.436z"/>
			<path fill="#A1F6FF" d="M32.518,13.657c-0.004-0.008,0-0.018,0.026-0.027l0.104-0.012l0.008-0.004l-0.215-0.002
				c-0.189,0.021-0.311,0.039-0.386,0.054C32.233,13.673,32.398,13.676,32.518,13.657z"/>
			<path fill="#A1F6FF" d="M33.516,13.449l0.981-0.019c-0.34-0.054-0.976-0.012-1.192-0.042
				C33.234,13.403,33.262,13.424,33.516,13.449z"/>
			<path fill="#A1F6FF" d="M34.99,13.354c-0.088,0.009-0.172,0.027-0.262,0.06C34.912,13.396,34.973,13.376,34.99,13.354z"/>
			<path fill="#A1F6FF" d="M29.309,13.364l-0.141,0.016l0.112-0.005C29.295,13.371,29.306,13.367,29.309,13.364z"/>
			<path fill="#A1F6FF" d="M30.478,13.583l-0.341-0.015c-0.101,0.045-0.181,0.083-0.113,0.1
				C30.012,13.647,30.128,13.622,30.478,13.583z"/>
			<path fill="#A1F6FF" d="M30.033,13.676c-0.185,0.004-0.501-0.019-0.817,0.001c0.51,0.062,0.831,0.062,1.102,0.039
				C30.184,13.704,30.072,13.69,30.033,13.676z"/>
			<path fill="#A1F6FF" d="M26.347,13.747c0.13-0.015,0.299-0.021,0.483-0.019c-0.29-0.036-0.521-0.066-0.95-0.054l-0.268,0.05
				l0.242,0.021L26.347,13.747z"/>
			<path fill="#A1F6FF" d="M25.284,13.785c0.072-0.017,0.197-0.028,0.354-0.035l-0.117-0.01L25.284,13.785z"/>
			<path fill="#A1F6FF" d="M27.675,13.919l0.059-0.042l-0.065-0.001C27.693,13.89,27.701,13.903,27.675,13.919z"/>
			<path fill="#A1F6FF" d="M27.58,13.846l0.189,0.006l0.062-0.043l-0.505-0.03l-0.094,0.018C27.376,13.812,27.5,13.827,27.58,13.846
				z"/>
			<path fill="#A1F6FF" d="M29.238,13.81l0.267,0.027C29.413,13.816,29.324,13.81,29.238,13.81z"/>
			<path fill="#A1F6FF" d="M29.238,13.81c-0.507-0.046-1.118-0.059-1.406,0c0.091,0.027,0.239,0.048,0.409,0.063l0.415,0.028
				c0.89,0.047,2.054,0.039,1.765,0.182c0.854-0.151-0.727-0.159-1.611-0.206C28.92,13.836,29.071,13.81,29.238,13.81z"/>
			<polygon fill="#A1F6FF" points="32.467,13.442 32.564,13.402 32.443,13.436 			"/>
			<path fill="#A1F6FF" d="M41.292,13.463c0.985,0.117,1.438,0.215,2.242,0.294c-0.107-0.119,0.784-0.022,1.31-0.053
				C43.927,13.458,43.154,13.579,41.292,13.463z"/>
			<path fill="#A1F6FF" d="M46.13,13.472c-0.008-0.013-0.063-0.031-0.192-0.058l0.795,0.028l-1.072-0.136
				c1.432,0.166-1.393,0.082-0.848,0.2c0.271-0.057,1.301,0.02,1.318-0.028l-0.458-0.035L46.13,13.472z"/>
			<path fill="#A1F6FF" d="M38.109,13.877c1.168,0.156-0.09-0.02,1.229-0.023C38.973,13.776,38.552,13.876,38.109,13.877z"/>
			<path fill="#A1F6FF" d="M49.684,13.504l-0.668-0.046C49.268,13.486,49.521,13.499,49.684,13.504z"/>
			<path fill="#A1F6FF" d="M49.684,13.504l0.703,0.059c-0.035-0.013-0.037-0.025-0.029-0.039l-0.238-0.032
				C49.979,13.501,49.838,13.507,49.684,13.504z"/>
			<path fill="#A1F6FF" d="M50.08,14.205c0.037-0.029,0.079-0.129,0.115-0.292c-0.086-0.035-0.242-0.064-0.432-0.082
				c0.256,0.06-0.412,0.257,0.301,0.212L50.08,14.205z"/>
			<path fill="#A1F6FF" d="M37.877,37.66c-0.373,0.051,0.082,0.109,0.553,0.179l0.115,0.017l-0.031-0.002
				c0.324,0.049,0.635,0.104,0.653,0.162l0.215,0.006C39.042,37.826,39.004,37.906,37.877,37.66z"/>
			<path fill="#A1F6FF" d="M44.652,37.786l0.533,0.021C45.092,37.783,44.827,37.775,44.652,37.786z"/>
			<path fill="#A1F6FF" d="M31.817,37.643l-0.268-0.041C31.626,37.618,31.708,37.63,31.817,37.643z"/>
			<polygon fill="#A1F6FF" points="28.576,37.66 28.621,37.663 28.65,37.58 			"/>
			<path fill="#A1F6FF" d="M51.617,35.352c-0.042,0.035-0.086,0.041-0.135-0.021c-0.08-1.395-0.133-2.872-0.174-4.386
				c-0.302,0.945-0.797,2.214-1.156,2c0.005,0.605,0.027,1.22,0.097,1.886l-0.157,0.287c-0.072,1.354-0.078,2.239-0.101,3.302
				c0.534,0.791,1.476-2.352,1.618-3.021L51.617,35.352z"/>
			<path fill="#A1F6FF" d="M50.195,23.532l0.027,0.078c0.016-1.034-0.021-2.564-0.043-4.069c-0.072,0.625-0.113,1.285-0.084,2.057
				c0.002,2.195,0.1,5.074,0.069,6.745l-0.028-0.082c0.03,0.535,0.047,1.029,0.051,1.502l0.111-0.206
				C50.085,27.495,50.339,25.924,50.195,23.532z"/>
			<path fill="#A1F6FF" d="M19.314,37.541l0.094-0.004c-0.414-0.018-0.737-0.041-0.261-0.096c-0.688,0.039-0.403,0.055-0.804,0.131
				l0.328-0.01L19.314,37.541z"/>
			<polygon fill="#A1F6FF" points="18.344,37.568 18.334,37.572 18.671,37.562 			"/>
			<polygon fill="#A1F6FF" points="19.414,37.539 19.412,37.537 19.314,37.541 			"/>
			<path fill="#A1F6FF" d="M10.609,26.982c-0.006,0.007-0.012,0.023-0.018,0.038l0.053,0.563c-0.056,0.256-0.111,0.364-0.168,0.265
				c-0.024,0.261-0.05,0.514-0.08,0.653l-0.043,0.604c0.109-0.197,0.196-0.49,0.292-1.484l0.007,0.042
				c0.02-0.521,0.034-1.068,0.068-1.318c-0.062-0.074-0.116-0.306-0.165-0.574c-0.016,0.091-0.035,0.133-0.061,0.102L10.609,26.982z
				"/>
			<path fill="#A1F6FF" d="M10.333,24.686c-0.034-0.034-0.07,0.05-0.106,0.313C10.277,25.081,10.317,25.101,10.333,24.686z"/>
			<path fill="#A1F6FF" d="M10.219,25.305c0.055,0.362,0.1,0.544,0.138,0.659l0.029-0.397L10.219,25.305z"/>
			<path fill="#A1F6FF" d="M10.363,27.328l-0.019-0.136c-0.006,1.581-0.198,0.032-0.306,0.751l0.272,0.421
				C10.311,28.029,10.336,27.688,10.363,27.328z"/>
			<path fill="#A1F6FF" d="M19.429,37.55l0.065,0.136c1.205,0.07,2.299,0.021,3.828,0.125l0.017-0.047l-0.015,0.006
				c-0.296-0.175-1.185-0.191-2.072-0.277l-1.838,0.05c0.336,0.015,0.729,0.021,0.809,0.038L19.429,37.55z"/>
			<path fill="#A1F6FF" d="M18.493,37.82l0.189-0.092l-0.82-0.084l0.472-0.072l-1.073,0.048
				C17.818,37.663,18.296,37.706,18.493,37.82z"/>
			<path fill="#A1F6FF" d="M30.727,37.786c-0.39,0.089-0.206,0.22,1,0.216l-0.499-0.107c1.237,0.027,0.354,0.166,1.399,0.172h-0.005
				h0.086l0.317-0.002c0.119-0.129-1.358-0.229-1.312-0.312c-0.694-0.063-1.316-0.101-1.147-0.235
				c0.593-0.019,0.749,0.034,0.98,0.082c-0.083-0.024-0.099-0.057-0.103-0.084c-1.716-0.076-1.336,0.189-2.377,0.168
				C29.398,37.721,29.542,37.812,30.727,37.786z"/>
			<path fill="#A1F6FF" d="M21.679,39.445l-0.307,0.015C21.498,39.46,21.61,39.462,21.679,39.445z"/>
			<path fill="#A1F6FF" d="M20.806,39.573c0.036-0.054,0.117-0.081,0.216-0.097L20.436,39.5
				C20.539,39.525,20.643,39.552,20.806,39.573z"/>
			<path fill="#A1F6FF" d="M43.051,37.975c-0.74-0.066-1.378-0.158-2.512-0.119l-0.057,0.024c0.729,0.027,1.352,0.069,1.881,0.187
				C41.779,37.938,42.457,37.962,43.051,37.975z"/>
			<polygon fill="#A1F6FF" points="28.621,37.663 28.615,37.676 28.767,37.673 			"/>
			<path fill="#A1F6FF" d="M38.427,38.3l0.571-0.091c0.15,0.03,0.436,0.053,0.994,0.057c0.921-0.135,0.666-0.181,0.5-0.244
				l0.316-0.113c0.762,0.023,0.932,0.113,0.715,0.188l-0.422-0.021c0.026,0.042,0.113,0.062,0.233,0.066
				c-0.142,0.027-0.33,0.051-0.562,0.063c0.61,0.013,0.889-0.031,1.188-0.062c0.232-0.002,0.438,0.01,0.479,0.074l0.34-0.068
				l0.109,0.004l0.137,0.013l-0.002-0.011c0.58,0.021,0.386,0.133,0.304,0.113c0.712,0.059,1.218-0.074,0.961-0.029
				c-1.334,0.101-0.427-0.094-1.269-0.109L43.016,38.1l0.389-0.033l0.24,0.021c-0.078-0.02-0.023-0.036,0.039-0.062
				c0.359,0.022,0.771,0.029,1.274,0.022l-1.362-0.295l1.059,0.035c1.15,0.057,0.39,0.229,1.785,0.194
				c-0.735,0.316-2.137,0.352-3.154,0.562c-1.582-0.008-1.758,0.005-3.78-0.052c0.304,0.257-2.917,0.423-4.646,0.572l-1.065-0.09
				c-2.42,0.242-5.616,0.561-9.375,0.655c-0.885-0.048-1.655,0.073-2.126-0.126l0.173-0.011l-0.463-0.07
				c2.375-0.13,4.435-0.333,6.094-0.501l0.979,0.082c1.588-0.14,4.542-0.293,4.263-0.529c1.86,0.051,2.021,0.041,3.472,0.047
				l0.201-0.033c-0.008,0.056-0.039,0.103,0.754,0.101c-0.676-0.022-0.535-0.085-0.48-0.146l0.771-0.103
				c0.51,0.011,0.955,0.062,0.75,0.136l0.414-0.146L38.427,38.3z M41.57,38.27l0.66,0.031c0.367,0.049,0.391,0.127,1.211,0.133
				c-0.191-0.076-0.707-0.104-1.211-0.133C42.087,38.286,41.895,38.271,41.57,38.27z"/>
			<path fill="#A1F6FF" d="M24.674,37.635c-0.307-0.015-0.618-0.031-0.942-0.064l-0.317,0.156
				C24.227,37.779,24.367,37.698,24.674,37.635z"/>
			<polygon fill="#A1F6FF" points="43.336,38.055 43.001,38.025 43.012,38.066 			"/>
			<path fill="#A1F6FF" d="M10.373,38.701l-0.116,0.025l1.915,0.061C11.977,38.727,11.65,38.686,10.373,38.701z"/>
			<path fill="#A1F6FF" d="M26.957,37.895c0.153-0.056,0.625-0.133-0.021-0.137c2.408-0.051,0.287,0.282,2.29,0.231l-0.416-0.091
				l0.645,0.011c-0.4-0.015-0.702-0.097-1.071-0.16c-0.859-0.054-1.599-0.065-2.296-0.076l0.192,0.032l-0.192-0.032l-0.951-0.019
				C25.282,37.764,26.255,37.781,26.957,37.895z"/>
			<path fill="#A1F6FF" d="M12.622,37.695l1.292-0.057h0.008c0.368-0.07,0.106-0.082,0.735-0.123
				c-0.434,0.053-0.14,0.073,0.241,0.09h0.005l0.876-0.024c-0.961-0.106-0.974-0.354-1.998-0.392
				c-0.731-0.026-1.376-0.034-1.96-0.037c-0.412,0-0.266,0.003-0.306,0.008l-0.046,0.021c-0.01-0.009-0.021-0.016-0.036-0.026
				c-0.015-0.048-0.03,0.071-0.048-0.271l-0.004,0.231l-0.006,0.033l-0.017,0.074c-0.006,0.028-0.023,0.066-0.045,0.112
				c0.002,0.056-0.018,0.146,0.056,0.222c0.064,0.039,0.041,0.074,0.268,0.099C11.888,37.682,12.204,37.695,12.622,37.695z"/>
			<path fill="#A1F6FF" d="M38.34,38.07l-0.999-0.215l-0.136-0.006l0.548,0.116c-1.315,0.007-1.519-0.135-1.092-0.235
				c-2.013,0.045-1.267-0.227-2.82-0.082c0.537,0.067,0.907,0.195,1.438,0.216l-0.702-0.009l0.155,0.033
				C36.137,37.887,36.659,38.107,38.34,38.07z"/>
			<path fill="#A1F6FF" d="M32.347,37.822l0.206,0.027c0.165-0.061,0.68-0.142-0.025-0.147c2.106-0.044,1.039,0.18,1.662,0.243
				c-0.172,0.119,0.492,0.142,0.033,0.246l-0.216-0.025l0.179,0.038l-0.401,0.067c-1.439-0.008-0.921-0.149-1.155-0.205l0.081-0.002
				l0.562,0.009C32.98,37.902,32.936,37.932,32.347,37.822z M33.445,37.961l0.463,0.135C34.588,38,33.833,37.993,33.445,37.961
				l-0.184-0.053C33.197,37.936,33.293,37.947,33.445,37.961z"/>
			<path fill="#A1F6FF" d="M43.441,38.434c-0.189-0.076-0.705-0.104-1.211-0.133C42.598,38.352,42.621,38.428,43.441,38.434z"/>
			<path fill="#A1F6FF" d="M41.57,38.27l0.66,0.031C42.087,38.286,41.895,38.271,41.57,38.27z"/>
			<path fill="#A1F6FF" d="M41.965,38.143c0.23-0.002,0.434,0.01,0.477,0.076l0.344-0.07l0.104,0.004
				C42.45,38.111,42.195,38.121,41.965,38.143z"/>
			<path fill="#A1F6FF" d="M41.102,38.07c0.029,0.043,0.116,0.062,0.236,0.07c0.077-0.017,0.141-0.029,0.188-0.048L41.102,38.07z"/>
			<path fill="#A1F6FF" d="M43.325,38.266c0.712,0.059,1.218-0.072,0.961-0.029c-1.334,0.103-0.425-0.094-1.267-0.106l0.002,0.026
				C43.604,38.175,43.407,38.283,43.325,38.266z"/>
			<polygon fill="#A1F6FF" points="43.012,38.066 43.016,38.1 43.404,38.062 43.336,38.055 			"/>
			<path fill="#A1F6FF" d="M37.76,38.594c-0.676-0.025-0.535-0.086-0.482-0.146l-0.271,0.044
				C36.998,38.548,36.966,38.598,37.76,38.594z"/>
			<path fill="#A1F6FF" d="M38.797,38.482l0.414-0.149L38.425,38.3l-0.378,0.048C38.555,38.357,39.002,38.408,38.797,38.482z"/>
			<polygon fill="#A1F6FF" points="34.186,38.204 34.223,38.193 34.007,38.166 			"/>
			<path fill="#A1F6FF" d="M33.445,37.961l-0.184-0.053C33.197,37.936,33.293,37.947,33.445,37.961z"/>
			<path fill="#A1F6FF" d="M33.445,37.961l0.463,0.135C34.588,38,33.833,37.993,33.445,37.961z"/>
			<path fill="#A1F6FF" d="M31.549,37.602L31.549,37.602L31.549,37.602z"/>
			<path fill="#A1F6FF" d="M19.314,37.541l-0.643,0.021L19.314,37.541z"/>
			<path fill="#A1F6FF" d="M18.684,37.729l0.183-0.088l0.627,0.047l-0.065-0.136l0.796,0.025c-0.081-0.015-0.474-0.025-0.81-0.036
				l-0.1,0.002l-0.643,0.021l-0.336,0.013l-0.472,0.069L18.684,37.729z"/>
			<path fill="#A1F6FF" d="M39.107,37.842l0.459,0.012C39.441,37.842,39.292,37.836,39.107,37.842z"/>
			<path fill="#A1F6FF" d="M43.709,37.914c0.145,0.068-0.234,0.068-0.658,0.061l0.631,0.049
				C43.775,37.993,43.896,37.955,43.709,37.914z"/>
			<path fill="#A1F6FF" d="M39.566,37.854c0.369,0.031,0.551,0.119,0.857,0.188l0.064-0.021c-0.088-0.035-0.146-0.078-0.01-0.141
				L39.566,37.854z"/>
			<path fill="#A1F6FF" d="M41.523,38.096c0.699,0.03,1.133-0.007,1.484-0.025L43,38.027l0.333,0.027l0.133,0.004l-0.063,0.006
				l0.24,0.021c-0.078-0.021-0.024-0.038,0.037-0.062l-0.63-0.049c-0.594-0.014-1.271-0.037-0.687,0.09
				c-0.53-0.115-1.15-0.158-1.879-0.188c-0.139,0.062-0.08,0.104,0.008,0.139l0.318-0.117C41.57,37.93,41.74,38.02,41.523,38.096z"
				/>
			<polygon fill="#A1F6FF" points="43.023,38.161 43.021,38.152 42.889,38.15 			"/>
			<path fill="#A1F6FF" d="M41.338,38.141c-0.141,0.027-0.33,0.051-0.562,0.063c0.613,0.013,0.888-0.031,1.188-0.062
				C41.751,38.145,41.512,38.152,41.338,38.141z"/>
			<polygon fill="#A1F6FF" points="43.02,38.126 43.016,38.1 42.689,38.127 			"/>
			<polygon fill="#A1F6FF" points="43.336,38.055 43.404,38.062 43.469,38.055 			"/>
			<path fill="#A1F6FF" d="M41.523,38.096c-0.045,0.016-0.109,0.031-0.188,0.045c0.173,0.016,0.413,0.004,0.627,0.002
				c0.229-0.021,0.485-0.031,0.925,0.01l0.135,0.002l-0.004-0.024l-0.328,0.001l0.324-0.025l-0.006-0.027
				C42.656,38.089,42.225,38.126,41.523,38.096z"/>
			<polygon fill="#A1F6FF" points="10.315,17.768 10.35,17.632 10.354,17.231 			"/>
			<path fill="#A1F6FF" d="M10.5,15.039c0.021-0.27,0.043-0.533,0.069-0.703l-0.026-0.283l-0.026,0.229
				c-0.099-0.115-0.143,0.062-0.161,0.52C10.407,14.604,10.462,14.508,10.5,15.039z"/>
			<path fill="#A1F6FF" d="M10.635,15.106l0.002-0.045l0.02,0.318l0.049-0.732l0.049-0.46l-0.033-0.055
				C10.676,14.304,10.649,14.41,10.635,15.106z"/>
			<path fill="#A1F6FF" d="M10.42,16.204l0.076-1.098c-0.099-0.309-0.131-0.241-0.146-0.016l0.004,2.142V17.22
				C10.36,16.755,10.377,16.387,10.42,16.204z"/>
			<path fill="#A1F6FF" d="M10.578,14.458l-0.018,1.396C10.605,15.318,10.602,14.782,10.578,14.458z"/>
			<path fill="#A1F6FF" d="M11.778,13.712l0.384,0.003l0.221,0.002h0.039l-0.432-0.181c-0.542,0.03-0.825,0.081-1.231,0.091
				l0.117,0.048c0.354,0.018,0.526,0.051,0.684,0.101l0.271-0.04C11.83,13.729,11.816,13.719,11.778,13.712z"/>
			<path fill="#A1F6FF" d="M10.543,14.053l0.026,0.283l0.013-0.103l-0.004,0.224c0.023,0.324,0.027,0.86-0.018,1.396l-0.002,0.185
				l0.077-0.933c0.013-0.695,0.042-0.801,0.087-0.975L10.6,13.89l0.005-0.225l0.273,0.011l-0.117-0.048H10.57
				C10.566,13.764,10.559,13.902,10.543,14.053z"/>
			<path fill="#A1F6FF" d="M10.354,17.219l0.066-1.017C10.377,16.387,10.36,16.755,10.354,17.219z"/>
			<path fill="#A1F6FF" d="M10.496,15.106l0.004-0.067c-0.039-0.531-0.094-0.435-0.143-0.238l-0.007,0.291
				C10.364,14.865,10.397,14.797,10.496,15.106z"/>
			<path fill="#A1F6FF" d="M12.163,13.715l0.221,0.002L12.163,13.715z"/>
			<path fill="#A1F6FF" d="M11.832,13.739l-0.271,0.04l0.121,0.031C11.728,13.786,11.832,13.762,11.832,13.739z"/>
			<path fill="#A1F6FF" d="M11.883,13.866l-0.202-0.056C11.633,13.831,11.644,13.85,11.883,13.866z"/>
			<path fill="#A1F6FF" d="M10.35,17.632c-0.006,0.398-0.02,0.757-0.05,1.024l0.057-0.262l-0.003-0.774L10.35,17.632z"/>
			<polygon fill="#A1F6FF" points="10.734,17.057 10.723,16.924 10.702,17.255 			"/>
			<path fill="#A1F6FF" d="M10.646,17.373c0.013,0.018,0.027,0.003,0.042-0.056l-0.015-0.269L10.646,17.373z"/>
			<path fill="#A1F6FF" d="M10.594,16.179c-0.098,1.017-0.145,1.953-0.232,3.219c0.042-0.172,0.086-0.193,0.139-0.323l0.043-0.276
				c-0.026,0.115-0.053,0.258-0.079,0.312c0.025-0.727,0.034-1.373,0.086-2.025l0.044,0.142l0.014-1.154L10.594,16.179z"/>
			<path fill="#A1F6FF" d="M10.284,19.947c0.026-0.278,0.052-0.439,0.076-0.543v-0.379C10.333,19.253,10.304,19.388,10.284,19.947z"
				/>
			<path fill="#A1F6FF" d="M10.609,16.074l-0.014,1.154c0.019,0.068,0.034,0.126,0.05,0.144l0.027-0.325l0.015,0.268l0.015-0.06
				l0.021-0.331l-0.083-1.06L10.609,16.074z"/>
			<path fill="#A1F6FF" d="M10.594,16.179c-0.082,0.563-0.157,1.114-0.241,1.441l0.003,0.774l0.053-0.238
				c-0.011,0.481-0.029,0.697-0.049,0.864v0.38l0.001-0.004C10.448,18.132,10.496,17.196,10.594,16.179z"/>
			<path fill="#A1F6FF" d="M10.607,18.656c-0.015-0.065-0.038,0.025-0.064,0.143L10.5,19.075
				C10.533,18.998,10.569,18.883,10.607,18.656z"/>
			<polygon fill="#A1F6FF" points="10.629,19.57 10.629,19.433 10.628,19.427 			"/>
			<path fill="#A1F6FF" d="M10.628,19.427l0.001,0.007c0.001-0.351-0.001-0.569-0.009-0.683L10.628,19.427z"/>
			<path fill="#A1F6FF" d="M10.619,18.606l-0.011,0.05c0.005,0.02,0.009,0.046,0.013,0.093L10.619,18.606z"/>
			<path fill="#A1F6FF" d="M10.497,20.985l0.049,0.233c0.036-0.168,0.071-0.339,0.091-0.251l0.002-0.008l0.01-0.267l-0.127,0.183
				c0.007-0.244,0.007-0.646,0.044-0.813c-0.017,0.037-0.033,0.122-0.046,0.224L10.497,20.985z"/>
			<path fill="#A1F6FF" d="M10.373,20.636l-0.004,0.017l0.02,0.495l0.018-0.296C10.396,20.819,10.386,20.752,10.373,20.636z"/>
			<path fill="#A1F6FF" d="M10.566,21.289c0.029,0.082,0.054,0.048,0.073-0.312l-0.001-0.009
				C10.613,21.114,10.59,21.208,10.566,21.289z"/>
			<path fill="#A1F6FF" d="M10.407,20.853l-0.018,0.296l0.018,0.471c0.005-0.934,0.045-0.849,0.092-0.632l0.023-0.698
				C10.479,20.571,10.445,20.975,10.407,20.853z"/>
			<polygon fill="#A1F6FF" points="10.367,20.578 10.369,20.654 10.373,20.636 			"/>
			<path fill="#A1F6FF" d="M10.639,20.968c-0.022-0.087-0.056,0.082-0.092,0.252l0.021,0.07
				C10.59,21.208,10.613,21.114,10.639,20.968z"/>
			<polygon fill="#A1F6FF" points="10.64,20.978 10.64,20.959 10.639,20.968 			"/>
			<path fill="#A1F6FF" d="M10.334,13.504l-0.079-0.058l0.018-0.099c-0.003,0.003-0.008-0.002-0.012-0.022
				c0.039-0.008,0.208-0.007,0.585,0.006c0.721-0.138-0.649-0.007-0.587-0.108l-0.069,0.028c0.054,0.271,0.08,0.565,0.031,0.998
				l0.027,0.119C10.316,14.152,10.323,13.772,10.334,13.504z"/>
			<path fill="#A1F6FF" d="M10.489,13.562l-0.001-0.013c0.36-0.028,0.364-0.071,0.234-0.112l-0.146,0.01
				c0.016,0.021-0.017,0.053-0.093,0.098L10.489,13.562z"/>
			<polygon fill="#A1F6FF" points="10.19,14.483 10.194,14.478 10.194,14.456 			"/>
			<path fill="#A1F6FF" d="M10.221,14.249l-0.027,0.208v0.022c0.022-0.027,0.039-0.066,0.054-0.11L10.221,14.249z"/>
			<path fill="#A1F6FF" d="M10.334,13.504l0.005-0.103c0.13,0.008,0.217,0.021,0.237,0.046l0.146-0.01
				c-0.121-0.039-0.366-0.076-0.443-0.097c-0.001,0.004-0.002,0.006-0.005,0.006l-0.018,0.098L10.334,13.504z"/>
			<polygon fill="#A1F6FF" points="11.816,13.456 12.454,13.417 11.795,13.318 			"/>
			<path fill="none" d="M10.782,17.854c0.027-0.324,0.117-0.339,0.134-1.23C10.854,17.521,10.788,16.807,10.782,17.854z"/>
			<path fill="#A1F6FF" d="M10.836,14.135l-0.027-0.06l-0.034,0.963C10.795,14.522,10.816,14.368,10.836,14.135z"/>
			<path fill="#A1F6FF" d="M20.244,13.785c0.053-0.026,0.008-0.049-0.081-0.07C20.074,13.735,20.073,13.759,20.244,13.785z"/>
			<polygon fill="#A1F6FF" points="20.07,13.697 20.163,13.714 20.251,13.702 			"/>
			<path fill="#A1F6FF" d="M20.991,13.469l-0.078-0.023C20.915,13.454,20.949,13.462,20.991,13.469z"/>
			<path fill="#A1F6FF" d="M17.241,13.417l-0.283-0.036c-0.008,0.024,0.068,0.046,0.195,0.066
				C17.176,13.435,17.203,13.424,17.241,13.417z"/>
			<path fill="#A1F6FF" d="M20.991,13.469l0.225,0.068l0.245-0.014l-0.222,0.022l0.182,0.054l-0.332,0.014
				c0.098,0.043,0.425,0.081,0.338,0.112c0.004,0.004,0.014,0.007,0.017,0.01c1.845-0.04-0.425-0.135,0.767-0.229
				C21.882,13.547,21.209,13.509,20.991,13.469z"/>
			<path fill="#A1F6FF" d="M19.787,13.66l0.147-0.006c0.348-0.147-2.651-0.093-1.471-0.213l-0.1-0.032
				c-0.143,0.019-0.091,0.08-0.418,0.099l-0.505-0.064l-0.178,0.02C17.838,13.536,19.099,13.587,19.787,13.66z"/>
			<path fill="#A1F6FF" d="M21.09,13.614l-1.187,0.053c0.016-0.005,0.019-0.009,0.031-0.014l-0.147,0.006l0.284,0.038l0.181,0.004
				c0.326-0.045,1.095-0.055,1.176,0.025C21.515,13.694,21.188,13.657,21.09,13.614z"/>
			<polygon fill="#A1F6FF" points="21.462,13.523 21.216,13.538 21.239,13.545 			"/>
			<path fill="#A1F6FF" d="M17.439,13.442l-0.197-0.026c-0.04,0.007-0.065,0.018-0.087,0.03l0.107,0.016L17.439,13.442z"/>
			<path fill="#A1F6FF" d="M18.734,13.416c-0.205-0.018-0.307-0.016-0.372-0.006l0.1,0.032L18.734,13.416z"/>
			<path fill="#A1F6FF" d="M19.547,13.459c0.644,0.007,1.261-0.168,1.027-0.13l-0.961,0.03l-0.24,0.044L19.547,13.459z"/>
			<polygon fill="#A1F6FF" points="19.122,13.323 19.189,13.344 19.246,13.341 			"/>
			<path fill="#A1F6FF" d="M19.614,13.359c-0.137,0-0.262-0.004-0.369-0.018l-0.057,0.003l0.187,0.059L19.614,13.359z"/>
			<path fill="#A1F6FF" d="M13.949,13.697l0.244,0.009c-0.855-0.08-1.048,0.07-1.558,0.101c0.244,0.043,0.696,0.076,1.128,0.106
				c0.343,0,0.743-0.005,0.856-0.014c0-0.005,0.007-0.006,0.004-0.011c0.053,0.004,0.036,0.008-0.004,0.011
				c0.013,0.053-0.139,0.063-0.351,0.057l0.245,0.027c-0.214,0.041-0.478,0.056-0.733,0.069l0.477,0.063
				c0.138-0.146,1.034-0.083,1.582-0.186C15.262,13.849,13.888,13.817,13.949,13.697z"/>
			<path fill="#A1F6FF" d="M14.62,13.899c-0.113,0.009-0.514,0.016-0.856,0.014l0.505,0.042
				C14.481,13.962,14.633,13.953,14.62,13.899z"/>
			<path fill="#A1F6FF" d="M14.624,13.888c0.003,0.005-0.004,0.006-0.004,0.011C14.66,13.896,14.677,13.892,14.624,13.888z"/>
			<path fill="#A1F6FF" d="M14.514,13.985l-0.245-0.028l-0.698-0.043c-0.195-0.001-0.335-0.005-0.315-0.014l0.315,0.014h0.193
				c-0.433-0.032-0.885-0.064-1.128-0.106c-0.126,0.006-0.267,0.006-0.441-0.005l0.904,0.151l0.087-0.001
				c-0.002-0.005,0.007-0.008,0.003-0.013c0.059,0.005,0.042,0.009-0.003,0.013c0,0.005-0.007,0.009-0.008,0.015l0.603,0.089
				C14.037,14.04,14.3,14.025,14.514,13.985z"/>
			<path fill="#A1F6FF" d="M13.256,13.899c-0.021,0.007,0.12,0.013,0.315,0.014L13.256,13.899z"/>
			<polygon fill="#A1F6FF" points="14.269,13.956 13.764,13.914 13.571,13.914 			"/>
			<polygon fill="#A1F6FF" points="13.179,13.963 13.186,13.951 13.109,13.954 			"/>
			<polygon fill="#A1F6FF" points="13.186,13.951 13.099,13.953 13.109,13.954 			"/>
			<path fill="#A1F6FF" d="M13.189,13.937c0.004,0.006-0.005,0.008-0.003,0.013C13.231,13.946,13.248,13.942,13.189,13.937z"/>
			<path fill="none" d="M21.208,13.773c1.298,0.061-0.625,0.129,0.826,0.136C22.264,13.826,21.854,13.783,21.208,13.773z"/>
			<polygon fill="#A1F6FF" points="37.139,13.706 37.3,13.694 36.548,13.532 36.389,13.543 			"/>
			<path fill="#A1F6FF" d="M24.516,13.567L24.35,13.53c-0.812-0.043,0.358-0.274-1.069-0.146
				C23.857,13.469,23.31,13.57,24.516,13.567z"/>
			<path fill="none" d="M25.955,13.594l-0.138-0.001c0.303,0.049,0.749,0.083,1.045,0.042c-1.208,0.002-0.425-0.136-1.076-0.189
				c-0.305,0.01-0.343,0.046-0.242,0.083c0.054,0.011,0.125,0.02,0.229,0.024L25.955,13.594z"/>
			<path fill="#A1F6FF" d="M25.817,13.593l0.138,0.001l-0.182-0.04c-0.105-0.005-0.176-0.014-0.229-0.024
				C25.599,13.55,25.695,13.574,25.817,13.593z"/>
			<path fill="#A1F6FF" d="M33.553,13.36c0.184,0.004,0.399,0,0.668-0.022L33.553,13.36z"/>
			<path fill="#A1F6FF" d="M38.811,13.65c0.121-0.024-0.012-0.038-0.213-0.05C38.711,13.617,38.779,13.634,38.811,13.65z"/>
			<path fill="#A1F6FF" d="M38.107,13.476l-0.369,0.048l0.207,0.009C37.938,13.519,37.977,13.499,38.107,13.476z"/>
			<path fill="#A1F6FF" d="M37.945,13.532l-0.207-0.009l-0.59,0.075c0.271,0.037,0.097,0.099,1.476,0.078l0.188-0.026
				c-0.029-0.014-0.1-0.031-0.211-0.05C38.338,13.583,37.977,13.569,37.945,13.532z"/>
			<path fill="#A1F6FF" d="M36.562,13.571l0.521,0.035l0.067-0.009C37.055,13.583,36.882,13.574,36.562,13.571z"/>
			<path fill="#A1F6FF" d="M33.305,13.388c0.049-0.01,0.133-0.021,0.248-0.028l-0.318-0.012
				C33.225,13.366,33.251,13.38,33.305,13.388z"/>
			<path fill="#A1F6FF" d="M34.887,13.756l1.198-0.07l-0.651-0.101C34.705,13.664,34.646,13.715,34.887,13.756z"/>
			<path fill="#A1F6FF" d="M31.395,13.447l0.523-0.058l-0.595-0.005l-0.317,0.075C31.159,13.447,31.288,13.445,31.395,13.447z"/>
			<path fill="#A1F6FF" d="M30.838,13.838c1.196-0.072,0.273-0.107-0.136-0.167l-0.383,0.045
				C30.623,13.742,31.025,13.77,30.838,13.838z"/>
			<path fill="#A1F6FF" d="M35.758,13.371c0.178,0.008,0.352,0.023,0.491,0.055c0.401-0.033,0.28-0.052,0.058-0.066
				c-0.188,0.01-0.354,0.011-0.5,0.009L35.758,13.371z"/>
			<path fill="#A1F6FF" d="M34.621,13.458l0.107-0.043l-0.232,0.016C34.545,13.437,34.588,13.445,34.621,13.458z"/>
			<path fill="#A1F6FF" d="M35.807,13.367l0.354-0.016c-0.345-0.017-0.738-0.027-0.097-0.055c-1.276-0.054-1.033-0.001-1.074,0.057
				C35.209,13.331,35.443,13.361,35.807,13.367z"/>
			<path fill="#A1F6FF" d="M30.684,13.364c0.313-0.005,0.206,0.021,0.135,0.047c0.545-0.018,0.327-0.068,0.317-0.103
				c-0.393,0.004-0.666,0.02-0.882,0.04c0.161,0.009,0.29,0.02,0.361,0.033L30.684,13.364z"/>
			<path fill="#A1F6FF" d="M32.055,13.666l-0.438-0.013c0.023,0.155,0.55,0.162,1.148,0.154
				C32.446,13.756,31.692,13.739,32.055,13.666z"/>
			<path fill="#A1F6FF" d="M32.518,13.657c0.008,0.012,0.041,0.025,0.101,0.035c-0.066-0.027,0.019-0.06,0.323-0.102l-0.293,0.026
				C32.617,13.637,32.572,13.65,32.518,13.657z"/>
			<path fill="#A1F6FF" d="M33.186,13.762c0.123,0.012,0.226,0.025,0.272,0.038l0.472,0.015l-0.037-0.009L33.186,13.762z"/>
			<path fill="#A1F6FF" d="M34.827,13.646c-0.397,0.007-0.919-0.052-1.449-0.061l0.75,0.115
				C34.438,13.712,34.721,13.72,34.827,13.646z"/>
			<path fill="#A1F6FF" d="M34.168,13.843c0.09,0.015,0.168,0.034,0.227,0.06l-0.162,0.009l0.66,0.099
				c0.235-0.071,0.025-0.118-0.344-0.155L34.168,13.843z"/>
			<path fill="#A1F6FF" d="M30.023,13.667c0,0.002,0.006,0.006,0.01,0.008h0.061C30.061,13.674,30.037,13.671,30.023,13.667z"/>
			<polygon fill="#A1F6FF" points="32.055,13.593 32.441,13.612 32.451,13.611 			"/>
			<path fill="#A1F6FF" d="M29.556,13.347l0.308-0.073c-0.904-0.011-0.497,0.047-0.555,0.09L29.556,13.347z"/>
			<path fill="#A1F6FF" d="M30.143,13.51l0.193-0.053c0.045-0.043,0.009-0.08-0.225-0.093c-0.307,0.036-0.546,0.078-1.023,0.093
				l0.385-0.091l-0.193,0.008c-0.051,0.014-0.174,0.024-0.443,0.027c0.152-0.054-0.902-0.107-1.374-0.034
				c2.158-0.105,0.363,0.256,0.85,0.272l-0.487-0.003c0.106,0.021,0.302,0.032,0.688,0.03c-0.277,0.038-0.676,0.016-0.994-0.026
				h-0.011c1.294,0.159,1.275-0.119,2.629-0.077l0.139-0.066L30.143,13.51z"/>
			<path fill="#A1F6FF" d="M28.513,13.667c-0.385,0.001-0.582-0.011-0.688-0.031l-0.306,0.005
				C27.837,13.684,28.235,13.706,28.513,13.667z"/>
			<path fill="#A1F6FF" d="M36.309,13.359l-0.143-0.008l-0.359,0.016C35.952,13.37,36.115,13.369,36.309,13.359z"/>
			<path fill="#A1F6FF" d="M33.186,13.762c-0.283-0.02-0.5-0.042-0.567-0.069c-0.06-0.01-0.093-0.023-0.101-0.035
				c-0.12,0.018-0.285,0.016-0.46,0.007c-0.363,0.073,0.391,0.09,0.708,0.14l0.692-0.005C33.408,13.788,33.309,13.774,33.186,13.762
				z"/>
			<path fill="#A1F6FF" d="M33.927,13.815c0.091,0.006,0.171,0.016,0.241,0.028l0.381,0.013l-0.658-0.05L33.927,13.815z"/>
			<path fill="#A1F6FF" d="M29.556,13.347l-0.247,0.017c-0.003,0.003-0.014,0.007-0.029,0.01l0.192-0.008L29.556,13.347z"/>
			<path fill="#A1F6FF" d="M32.712,13.507c-0.211-0.002-0.415,0.003-0.604,0.023C32.253,13.542,32.435,13.541,32.712,13.507z"/>
			<path fill="#A1F6FF" d="M36.113,13.571h0.449l-1.672-0.087c-0.072-0.081,0.404-0.13,0.864-0.111l0.054-0.003
				c-0.361-0.006-0.603-0.038-0.816-0.013c-0.018,0.021-0.077,0.042-0.26,0.059l-0.107,0.044c-0.034-0.012-0.077-0.021-0.124-0.029
				L33.52,13.45c-0.254-0.024-0.281-0.045-0.211-0.06c-0.055-0.008-0.08-0.021-0.066-0.04c-0.271-0.013-0.459-0.022-0.674,0.055
				l0.113-0.031c0.612-0.011-0.25,0.091,0.28,0.109c1.127-0.092,0.91,0.197,2.108,0.024c-0.383,0.181-1.354,0.027-2.256,0.005
				c-0.479,0.153-1.643-0.073-2.537-0.011l-0.139,0.068l0.341,0.015c-0.349,0.04-0.463,0.065-0.455,0.085
				c0.014,0.004,0.037,0.007,0.07,0.008h-0.06c0.038,0.016,0.151,0.029,0.285,0.04l0.382-0.045c-0.138-0.019-0.217-0.042-0.14-0.069
				c0.483-0.076,1.021-0.038,1.494-0.008l0.396,0.018l-0.011,0.001l0.215,0.003l-0.01,0.004l0.293-0.027l0.271-0.034l0.169,0.026
				c0.528,0.009,1.052,0.068,1.45,0.061c-0.105,0.074-0.393,0.067-0.7,0.054l0.487,0.074l0.271-0.018
				c-0.24-0.041-0.183-0.091,0.545-0.17l0.652,0.101C36.348,13.66,36.445,13.626,36.113,13.571z"/>
			<path fill="#A1F6FF" d="M30.819,13.411c-0.056,0.022-0.094,0.043,0.121,0.052l0.064-0.003l0.317-0.075
				c-0.125-0.007-0.178-0.027-0.083-0.076l-0.102,0.001C31.146,13.343,31.364,13.393,30.819,13.411z"/>
			<path fill="#A1F6FF" d="M30.336,13.458l0.28-0.076c-0.072-0.015-0.2-0.025-0.361-0.032l-0.144,0.015
				C30.345,13.379,30.381,13.416,30.336,13.458z"/>
			<path fill="#A1F6FF" d="M32.097,13.53l0.348-0.094c-0.12-0.034-0.318-0.044-0.526-0.046l-0.523,0.058
				C31.712,13.455,31.858,13.509,32.097,13.53z"/>
			<path fill="#A1F6FF" d="M32.443,13.436l-0.348,0.094h0.012c0.189-0.021,0.393-0.026,0.604-0.023l0.165-0.021l-0.065,0.024
				c0.901,0.021,1.875,0.175,2.258-0.004c-1.199,0.171-0.981-0.117-2.108-0.026c-0.531-0.019,0.331-0.12-0.278-0.108l-0.113,0.031
				l-0.101,0.039L32.443,13.436z"/>
			<path fill="#A1F6FF" d="M25.638,13.75c0.318,0.026,0.533,0.069,0.455,0.115l0.147-0.101l-0.386-0.021L25.638,13.75z"/>
			<path fill="#A1F6FF" d="M24.448,13.64l-0.55,0.102c0.233-0.055,1.05-0.046,1.623-0.001l0.091-0.017
				C25.171,13.681,24.974,13.626,24.448,13.64z"/>
			<polygon fill="#A1F6FF" points="25.612,13.723 25.521,13.74 25.638,13.75 25.854,13.744 			"/>
			<path fill="#A1F6FF" d="M27.531,13.764l0.242,0.023C27.688,13.771,27.608,13.766,27.531,13.764z"/>
			<path fill="#A1F6FF" d="M27.134,13.826l0.099-0.029c-0.251-0.024-0.572-0.042-0.886-0.05l-0.107,0.017
				c0.241,0.074,0.873,0.091,1.429,0.111c-0.019-0.01-0.046-0.021-0.088-0.029L27.134,13.826z"/>
			<path fill="#A1F6FF" d="M27.531,13.764c-0.228-0.021-0.475-0.033-0.7-0.036l0.497,0.051
				C27.39,13.771,27.458,13.764,27.531,13.764z"/>
			<path fill="#A1F6FF" d="M27.771,13.853l-0.036,0.024c0.586,0.021,1.068,0.045,0.879,0.136c0.317-0.055,0.266-0.09,0.044-0.113
				l-0.415-0.028L27.771,13.853z"/>
			<path fill="#A1F6FF" d="M26.347,13.747c0.313,0.009,0.635,0.026,0.886,0.05l0.094-0.018l-0.497-0.051
				C26.647,13.727,26.477,13.732,26.347,13.747z"/>
			<path fill="#A1F6FF" d="M27.58,13.846c0.042,0.008,0.069,0.02,0.089,0.029l0.065,0.001l0.035-0.024L27.58,13.846z"/>
			<path fill="#A1F6FF" d="M28.658,13.9l-0.415-0.028L28.658,13.9z"/>
			<path fill="#FFFFFF" d="M31.395,13.447c-0.107-0.002-0.235,0-0.389,0.012l-0.067,0.015L31.395,13.447z"/>
			<path fill="#FFFFFF" d="M30.666,13.417l0.153-0.003c0.071-0.027,0.178-0.054-0.135-0.048l-0.068,0.019
				C30.67,13.392,30.699,13.403,30.666,13.417z"/>
			<path fill="#FFFFFF" d="M30.143,13.51l0.132-0.01c0.026-0.014,0.046-0.028,0.061-0.041L30.143,13.51z"/>
			<path fill="#FFFFFF" d="M32.107,13.53l-0.019,0.001l0.007-0.001c-0.238-0.021-0.383-0.075-0.702-0.083l-0.456,0.027l0.066-0.015
				l-0.064,0.003c-0.215-0.008-0.178-0.029-0.121-0.052l-0.153,0.004c0.033-0.012,0.004-0.023-0.05-0.034l-0.28,0.076
				c-0.015,0.013-0.035,0.027-0.061,0.042c0.894-0.062,2.058,0.164,2.537,0.01l-0.101-0.003
				C32.435,13.541,32.253,13.542,32.107,13.53z"/>
			<polygon fill="#FFFFFF" points="32.712,13.507 32.811,13.51 32.876,13.486 			"/>
			<polygon fill="#FFFFFF" points="29.556,13.347 32.097,13.53 32.089,13.531 			"/>
			<polygon fill="#A1F6FF" points="40.646,13.716 40.646,13.714 40.626,13.714 			"/>
			<path fill="#A1F6FF" d="M40.663,13.517c-0.412,0.106,1.075,0.096,0.912,0.157l0.269-0.005
				C41.46,13.566,41.1,13.532,40.663,13.517z"/>
			<path fill="#A1F6FF" d="M38.589,13.447l1.229,0.167l0.789-0.098C40.098,13.499,39.479,13.503,38.589,13.447z"/>
			<path fill="#A1F6FF" d="M40.663,13.517l-0.056-0.001l-0.791,0.098l0.81,0.101h0.021c-0.07-0.088,0.474-0.042,0.934-0.041
				C41.738,13.613,40.251,13.623,40.663,13.517z"/>
			<path fill="#A1F6FF" d="M42.848,13.402l0.729,0.027l-0.988-0.126c1.313,0.151-1.276,0.076-0.774,0.184
				C42.125,13.421,43.516,13.547,42.848,13.402z"/>
			<path fill="none" d="M35.836,13.849c0.416,0.056,0.334,0.041,0.346,0.013L35.836,13.849z"/>
			<path fill="none" d="M36.793,13.807c-0.32-0.07-0.693,0.013-1.08,0.019l0.473,0.028C36.21,13.833,36.318,13.809,36.793,13.807z"
				/>
			<polygon fill="#A1F6FF" points="35.836,13.849 36.182,13.862 36.186,13.854 35.713,13.826 35.669,13.827 			"/>
			<polygon fill="#A1F6FF" points="46.13,13.477 46.312,13.485 46.13,13.472 			"/>
			<polygon fill="#A1F6FF" points="45.673,13.442 46.13,13.477 46.13,13.472 			"/>
			<path fill="#A1F6FF" d="M46.312,13.485l0.824,0.054c-0.25-0.054,0.221-0.129,0.295-0.156
				C47.157,13.449,46.797,13.496,46.312,13.485z"/>
			<path fill="#A1F6FF" d="M31.841,37.721c-0.078,0.012-0.117,0.022-0.126,0.032l0.631,0.069L31.841,37.721z"/>
			<path fill="#A1F6FF" d="M33.025,38.064h-0.316l0.561,0.009c-0.289-0.171-0.334-0.142-0.919-0.251l-0.63-0.069
				C31.668,37.834,33.146,37.938,33.025,38.064z"/>
			<path fill="none" d="M38.061,37.836l0.451,0.016l-0.082-0.013C38.322,37.832,38.171,37.829,38.061,37.836z"/>
			<polygon fill="#A1F6FF" points="38.43,37.839 38.512,37.852 38.545,37.852 			"/>
			<polygon fill="#A1F6FF" points="32.621,38.064 32.626,38.066 32.709,38.064 			"/>
			<path fill="none" d="M10.097,30.59c0.006-0.246,0.033-0.588,0.043-0.638C10.111,30.04,10.1,30.283,10.097,30.59z"/>
			<polygon fill="#A1F6FF" points="23.308,37.721 23.352,37.723 23.376,37.646 			"/>
			<path fill="#A1F6FF" d="M50.156,29.817c-0.064,1.245-0.073,2.056-0.094,3.033c0.027,0.043,0.061,0.071,0.092,0.09l0.031-3.181
				L50.156,29.817z"/>
			<path fill="#A1F6FF" d="M51.021,17.324c-0.103,0.456-0.028,0.793-0.078,1.241c0.24,3.756,0.254,8.21,0.367,12.376
				c0.112-0.373,0.205-0.701,0.237-0.863l0.007-0.039c-0.039,0.034-0.078,0.037-0.123-0.021c-0.283-4.787-0.195-10.678-0.496-15.38
				c0.045-0.456-0.021-0.766,0.069-1.303c-0.021,0.053-0.04-0.027-0.06-0.173c-0.941,0.087-3.223,0.142-1.411,0.282l0.575,0.05
				c0.197-0.015,0.393-0.04,0.574-0.072l0.025,0.089c-0.009-0.013-0.02-0.046-0.031-0.083c-0.133,0.027-0.297,0.064-0.324,0.099
				l0.191,0.032c-0.086,0.686-0.201,0.978-0.285,1.718c-0.084,0.652-0.141,1.331-0.107,2.144l0.023,2.121
				c0.141-1.216,0.396-2.308,0.469-3.825C50.832,13.316,50.883,17.521,51.021,17.324z"/>
			<path fill="#A1F6FF" d="M50.715,13.509l-0.025-0.089c-0.187,0.032-0.377,0.058-0.572,0.072l0.24,0.032
				c0.026-0.034,0.191-0.072,0.326-0.099C50.695,13.463,50.706,13.497,50.715,13.509z"/>
			<path fill="#A1F6FF" d="M50.943,18.565c0.05-0.448-0.022-0.787,0.078-1.241c-0.142,0.197-0.189-4.008-0.371-1.609
				c-0.075,1.519-0.328,2.608-0.471,3.825c0.026,1.505,0.062,3.036,0.045,4.069l-0.025-0.077c0.14,2.392-0.112,3.963,0.103,6.022
				l-0.112,0.207l-0.028,3.181c0.354,0.216,0.854-1.051,1.151-2C51.197,26.775,51.186,22.321,50.943,18.565z"/>
			<path fill="#FFFFFF" d="M14.813,37.609l0.088-0.002c-0.381-0.019-0.675-0.039-0.241-0.088c-0.63,0.037-0.369,0.049-0.735,0.121
				l0.302-0.016L14.813,37.609z"/>
			<polygon fill="#FFFFFF" points="13.923,37.639 13.915,37.641 14.225,37.628 			"/>
			<polygon fill="#FFFFFF" points="14.813,37.609 14.905,37.607 14.901,37.607 			"/>
			<path fill="#A1F6FF" d="M10.476,27.847c0.034-0.344,0.067-0.698,0.115-0.827c-0.089-0.854-0.148-0.811-0.234-1.056l-0.06,0.825
				l0.126-0.584c-0.007,0.4-0.035,0.77-0.062,1.123C10.4,27.613,10.439,27.779,10.476,27.847z"/>
			<path fill="#A1F6FF" d="M10.31,28.558c0.033,0.095,0.062,0.054,0.086-0.059l-0.086-0.134V28.558z"/>
			<path fill="#A1F6FF" d="M10.227,24.999c-0.056-0.097-0.122-0.26-0.169,0.058l0.162,0.248l-0.017-0.109L10.227,24.999z"/>
			<path fill="#A1F6FF" d="M10.3,22.07c-0.029,0.036-0.06,0.171-0.092,0.466c0.076,0.526,0.132,0.682,0.179,0.793l-0.01-0.268
				c0.054,0.628,0.092,0.267,0.138-0.108c-0.071-0.412-0.131-0.868-0.194-0.897l-0.035,0.319L10.3,22.07z"/>
			<path fill="#A1F6FF" d="M10.442,23.465c0.051,0.146,0.101,0.403,0.172,1.26c-0.09,0.42-0.181,0.434-0.274-0.357l-0.005,0.318
				c0.071,0.07,0.141,0.627,0.224,1.084c0.071-0.399,0.07-1.755,0.127-2.182c-0.005-0.005-0.01-0.018-0.017-0.027
				C10.613,24.508,10.492,22.955,10.442,23.465z"/>
			<polygon fill="#A1F6FF" points="10.588,23.323 10.551,23.157 10.546,23.388 			"/>
			<path fill="#A1F6FF" d="M10.284,22.375l0.035-0.319c-0.006-0.002-0.014,0.004-0.02,0.013L10.284,22.375z"/>
			<path fill="#A1F6FF" d="M10.376,23.062l0.01,0.268l0.054,0.135c0.052-0.51,0.171,1.044,0.228,0.095
				c-0.028-0.049-0.054-0.132-0.08-0.237l-0.042,0.062l0.005-0.229l-0.037-0.203C10.469,23.328,10.43,23.69,10.376,23.062z"/>
			<path fill="#A1F6FF" d="M10.333,24.686c-0.016,0.416-0.056,0.395-0.106,0.313l-0.025,0.197l0.017,0.109l0.167,0.262l-0.029,0.397
				c0.084,0.245,0.143,0.202,0.234,1.056c0.005-0.016,0.011-0.031,0.018-0.038l-0.112-1.109c0.026,0.03,0.046-0.012,0.061-0.103
				C10.474,25.312,10.404,24.754,10.333,24.686z"/>
			<path fill="#A1F6FF" d="M10.476,27.847c-0.037-0.068-0.076-0.234-0.113-0.52c-0.027,0.361-0.052,0.701-0.053,1.037l0.086,0.136
				C10.426,28.361,10.452,28.108,10.476,27.847z"/>
			<path fill="#A1F6FF" d="M16.925,37.635l0.337-0.017l-0.669-0.056l-0.812,0.021C16.066,37.615,16.426,37.636,16.925,37.635z"/>
			<path fill="#A1F6FF" d="M21.679,39.445l0.318-0.02l-0.254-0.035C21.747,39.42,21.724,39.438,21.679,39.445z"/>
			<polygon fill="#A1F6FF" points="28.615,37.676 28.135,37.709 28.386,37.747 28.588,37.76 			"/>
			<path fill="#A1F6FF" d="M29.07,37.684c-0.083-0.008-0.176-0.014-0.303-0.014L29.07,37.684z"/>
			<path fill="#A1F6FF" d="M25.14,37.654c-0.025-0.021-0.032-0.039-0.001-0.066c0.547-0.016,0.689,0.032,0.901,0.078
				c-0.079-0.023-0.091-0.051-0.096-0.079c-0.729-0.032-1.043,0.003-1.268,0.048L25.14,37.654z"/>
			<path fill="#A1F6FF" d="M10.654,27.661c0.069,0.359-0.084,0.568-0.013,1.408c0.055-0.25,0.099-1.062,0.134-1.632
				c-0.027-0.075-0.046,0.01-0.082,0.174c0.06-1.671,0.18,0.686,0.276-0.629l0.005,0.531v0.021
				c-0.015,0.349-0.038,0.645,0.016,0.893c0.094,3.694,0.461,4.793,0.396,8.462c-0.11-1.539-0.271-2.925-0.332-5.271
				c-0.059-0.273-0.033-0.595-0.018-0.974c0.007-0.204,0.013-0.426-0.002-0.667l-0.004,0.067c-0.106,1.431-0.237-1.139-0.302,0.683
				c0.039-0.181,0.059-0.273,0.089-0.188c-0.039,0.618-0.086,1.505-0.146,1.777c-0.081-0.952,0.107-1.158,0.006-1.582
				c-0.156,1.604-0.285,1.537-0.513,1.924c0.031,0.521,0.052,0.871,0.101,0.859c-0.025,0.799-0.064,0.979-0.154,0.729
				c-0.021,0.027-0.027-0.036-0.028-0.145c-0.005,1.008,0.041,2.522-0.166,2.369c0.02,0.644,0.02,1.529,0.011,2.247l0.33,0.005
				l-0.433,0.101l-0.011-0.031l0.116-3.08c0.032-0.86,0.049-1.75,0.019-2.832c0.189,0.144,0.146-1.248,0.151-2.172
				c0.001,0.095,0.009,0.158,0.027,0.129c0.082,0.231,0.119,0.064,0.145-0.666c-0.047,0.006-0.064-0.312-0.093-0.791l0.178-0.28
				l-0.054,0.727l0.137-0.636c-0.018,0.968-0.145,1.778-0.124,2.565c0.15,0.414,0.186-1.522,0.323-1.719l-0.121-1.208
				C10.599,28.933,10.629,28.32,10.654,27.661z M10.083,33.975v0.135V33.975c0.004-0.336,0.015-0.599,0.047-0.689
				C10.117,33.337,10.089,33.706,10.083,33.975z"/>
			<path fill="#A1F6FF" d="M38.73,38.038c0.164,0.039-0.008,0.117,0.267,0.171c0.267-0.05,0.51-0.109,0.7-0.193l-0.317,0.006
				l0.05,0.026l-0.611-0.008H38.73l-0.006-0.002l0.092,0.002l0.349-0.004c0.007-0.009,0.007-0.015,0-0.022
				c-0.55-0.021-0.244-0.134-1.104-0.18l-0.973-0.031l0.253,0.055C38.479,37.895,37.634,38.034,38.73,38.038z"/>
			<polygon fill="#A1F6FF" points="23.352,37.723 23.339,37.764 23.415,37.727 			"/>
			<path fill="#A1F6FF" d="M35.027,37.955l-0.299-0.066l-0.44,0.008c-0.05,0.021-0.077,0.03-0.097,0.049
				C34.343,37.96,34.594,37.965,35.027,37.955z"/>
			<path fill="#A1F6FF" d="M19.286,39.391h0.438c-0.802-0.08,0.398-0.25-1.183-0.259l-0.753,0.222l-0.636-0.137
				c0.348-0.021,0.521-0.029,0.786-0.021l-0.272-0.016h-0.001c-0.244-0.008-0.888-0.016-0.958,0.062
				c-1.178-0.028,0.046-0.148-0.705-0.202l-0.543-0.021l-0.215,0.129c-0.342-0.121-1.542-0.073-2.125-0.195l-0.068,0.07
				c-1.16-0.168,0.353-0.027,0.72-0.153l-1.596-0.075c0.342,0.117,0.027,0.299,1.377,0.339c-0.243-0.01-0.403,0-0.722,0.021
				l0.585,0.127l0.693-0.199c1.45,0.007,0.348,0.163,1.083,0.234l-0.404,0.002c0.965-0.014,0.905,0.106,1.396,0.17
				c0.13-0.188,0.881-0.027,0.859-0.166l0.66,0.1l-0.161,0.012c0.433,0.185,1.14,0.071,1.951,0.113l0.944-0.029
				C20.208,39.441,20.017,39.38,19.286,39.391z"/>
			<path fill="#A1F6FF" d="M21.022,39.477l0.35-0.017C21.254,39.46,21.127,39.462,21.022,39.477z"/>
			<path fill="#A1F6FF" d="M15.122,38.893c-0.089,0.068,0.067,0.104,0.336,0.121l0.004-0.002l0.539,0.024l0.772,0.004
				c-0.298-0.149,0-0.347-2.071-0.306l-0.415,0.147l-0.385-0.015l0.351,0.146L15.122,38.893z"/>
			<path fill="#A1F6FF" d="M38.816,38.038l0.613,0.008l-0.052-0.026l-0.216-0.006c0.004,0.008,0.007,0.016,0,0.022L38.816,38.038z"
				/>
			<polygon fill="#A1F6FF" points="38.73,38.038 38.816,38.038 38.727,38.036 			"/>
			<path fill="#A1F6FF" d="M10.083,33.975c0.006-0.269,0.035-0.638,0.047-0.689C10.096,33.377,10.086,33.641,10.083,33.975z"/>
			<path fill="#A1F6FF" d="M10.354,29.104l-0.053,0.726l0.138-0.636c-0.019,0.968-0.146,1.778-0.124,2.566
				c0.149,0.413,0.185-1.523,0.323-1.72l-0.121-1.208c0.081,0.1,0.112-0.512,0.136-1.171l-0.007-0.041
				C10.55,28.615,10.463,28.907,10.354,29.104z"/>
			<path fill="#A1F6FF" d="M27.777,37.998l0.426,0.123C28.826,38.033,28.132,38.023,27.777,37.998z"/>
			<path fill="#A1F6FF" d="M11.385,36.889l-0.004,0.231l-0.005,0.03l-0.017,0.074c-0.006,0.027-0.023,0.065-0.045,0.111
				c0.002,0.057-0.018,0.146,0.056,0.223c0.064,0.039,0.041,0.073,0.268,0.098c0.25,0.025,0.566,0.039,0.985,0.039l1.292-0.057
				L13.481,37.7l1.556,0.159l-0.118-0.244l0.726,0.025c-0.073-0.019-0.433-0.023-0.741-0.037l0.876-0.021
				c0.285,0.029,0.645,0.057,1.144,0.051l0.337-0.016c0.555,0.041,1.033,0.085,1.231,0.197l0.189-0.092l0.875,0.088L19.49,37.68
				c1.204,0.07,2.3,0.021,3.828,0.125l0.017-0.048l0.077-0.036c0.811,0.053,0.952-0.025,1.26-0.088l0.464,0.02
				c0.142,0.109,1.115,0.128,1.818,0.242c0.154-0.056,0.625-0.133-0.021-0.139c2.407-0.05,0.287,0.284,2.291,0.233L28.807,37.9
				l0.646,0.008c-0.4-0.016-0.702-0.096-1.071-0.159l0.202,0.013l0.027-0.082l0.152-0.004l0.303,0.014
				c0.327,0.033,0.47,0.127,1.655,0.104c-0.39,0.091-0.205,0.221,1,0.217l-0.5-0.104c1.238,0.026,0.356,0.167,1.4,0.172
				c0.234,0.056-0.284,0.196,1.154,0.204l0.404-0.067l0.096,0.021l0.979,0.119l-1.042-0.146c0.46-0.104-0.205-0.132-0.029-0.25
				c0.15,0.019,0.401,0.021,0.836,0.013l-0.299-0.07c1.407-0.002,1.932,0.223,3.611,0.186l-0.999-0.215
				c1.14,0.04,0.294,0.18,1.392,0.186c0.164,0.035-0.01,0.118,0.269,0.172l-0.572,0.088l-0.665-0.053
				c0.03-0.009,0.023-0.01-0.015-0.004l-1.097-0.131l0.317-0.029c-0.483-0.019-0.946,0.104-2.171,0.018
				c0.105,0.154,1.123-0.021,1.229,0.133l0.311-0.064c0.809,0,0.586,0.127,0.505,0.107c0.313,0.025,0.587,0.012,0.755-0.007
				c0.157,0.024,0.242,0.056,0.124,0.077h0.327l-0.771,0.104c0.026-0.029,0.026-0.064-0.166-0.089l-0.348,0.021
				c0.245,0.033,0.247,0.076,0.242,0.112l-0.201,0.037c-1.451-0.005-1.609,0.004-3.471-0.046c0.277,0.236-2.676,0.389-4.264,0.527
				l-0.979-0.08c-1.661,0.167-3.719,0.371-6.094,0.498l-0.254-0.036c0.005,0.026-0.019,0.044-0.062,0.056l-0.308,0.014
				c-0.119,0-0.244,0.002-0.35,0.021l-0.586,0.021c-0.229-0.061-0.419-0.121-1.152-0.11h0.438c-0.803-0.08,0.398-0.25-1.183-0.258
				l-0.753,0.222l-0.636-0.141c0.348-0.021,0.521-0.025,0.786-0.021l-0.272-0.015c0.219-0.08,0.067-0.112-0.252-0.131l0.054-0.055
				c0.636,0.137,1.946,0.084,2.316,0.213l0.236-0.138l0.594,0.021c0.819,0.061-0.519,0.188,0.767,0.224
				c0.073-0.079,0.778-0.069,1.044-0.062c0.51-0.187-0.815-0.146-1.812-0.157l-0.588-0.024l-0.006,0.004
				c-0.292-0.022-0.461-0.06-0.366-0.135L18.7,39.092l-0.469-0.197c-0.219,0.183-1.963,0.025-1.052,0.17l-0.41-0.006
				c-0.299-0.146,0-0.345-2.071-0.305L14.286,38.9l-0.385-0.018l-0.079-0.045c-0.015,0.014-0.033,0.021-0.056,0.029l-1.597-0.072
				c-0.194-0.062-0.521-0.104-1.798-0.087l-0.116,0.024L9.926,38.73c0.008-0.721,0.008-1.605-0.011-2.248
				c0.206,0.156,0.161-1.359,0.165-2.368c0.001,0.104,0.009,0.174,0.028,0.143c0.09,0.25,0.13,0.069,0.157-0.727
				c-0.049,0.009-0.069-0.341-0.1-0.862c0.228-0.387,0.356-0.32,0.513-1.924c0.101,0.42-0.087,0.627-0.006,1.582
				c0.059-0.273,0.107-1.159,0.146-1.779c-0.03-0.083-0.051,0.008-0.089,0.188c0.064-1.823,0.196,0.747,0.301-0.684l0.005,0.577
				v0.023c-0.015,0.378-0.041,0.701,0.018,0.974C11.115,33.965,11.276,35.35,11.385,36.889z M35.839,38.309
				c0.461,0.025,0.935,0.057,1.109,0.123C36.195,38.426,36.176,38.354,35.839,38.309l-0.604-0.025
				C35.529,38.28,35.704,38.293,35.839,38.309z M31.701,38.352c0.562-0.012,1.215,0.041,0.988,0.125l0.315-0.117
				c0.224,0.016,0.541,0.021,0.867,0.066l-1.165-0.156c-0.018,0.028,0.006,0.045,0.051,0.062c-0.785-0.032-1.55-0.127-2.06-0.196
				C30.791,38.195,32.013,38.285,31.701,38.352z M30.82,38.378l0.321-0.021c0.492,0.062-0.375,0.184,0.598,0.217
				C30.531,38.581,31.397,38.459,30.82,38.378z M27.611,37.947l0.166,0.048c0.354,0.026,1.049,0.036,0.426,0.125l-0.426-0.125
				C27.64,37.984,27.547,37.973,27.611,37.947z M28.294,38.186l1.152,0.159l-0.901-0.104L28.294,38.186z M27.102,38.277l1.069,0.143
				C27.592,38.34,27.038,38.395,27.102,38.277z M25.36,37.875c0.69-0.089-0.105-0.119-0.809-0.127
				C24.301,37.836,25.178,37.836,25.36,37.875z M19.618,37.8c0.646,0.009,1.375,0.034,0.745,0.118
				C20.193,37.882,19.388,37.882,19.618,37.8z"/>
			<path fill="#A1F6FF" d="M36.643,38.113l-0.383,0.035c1.219-0.028,0.227,0.177,1.285,0.105
				C37.234,38.209,36.725,38.155,36.643,38.113z"/>
			<path fill="#A1F6FF" d="M36.948,38.428c-0.177-0.068-0.647-0.096-1.109-0.119C36.176,38.354,36.195,38.426,36.948,38.428z"/>
			<path fill="#A1F6FF" d="M35.232,38.277l0.604,0.031C35.704,38.293,35.529,38.28,35.232,38.277z"/>
			<path fill="#A1F6FF" d="M27.777,37.998l-0.166-0.051C27.547,37.973,27.64,37.984,27.777,37.998z"/>
			<path fill="#A1F6FF" d="M37.109,38.357l-0.346,0.021c0.241,0.033,0.244,0.077,0.239,0.114l0.271-0.042
				C37.302,38.415,37.302,38.382,37.109,38.357z"/>
			<path fill="#A1F6FF" d="M37.76,38.245l-0.16,0.022c0.154,0.027,0.239,0.058,0.123,0.082h0.324l0.378-0.051L37.76,38.245z"/>
			<path fill="#A1F6FF" d="M37.545,38.26l0.178-0.015l0.024-0.003l-1.097-0.129h-0.008C36.725,38.155,37.234,38.209,37.545,38.26z"
				/>
			<path fill="#A1F6FF" d="M21.379,39.314c0.073-0.082,0.778-0.071,1.044-0.062c0.511-0.186-0.815-0.146-1.812-0.16
				C21.431,39.15,20.092,39.283,21.379,39.314z"/>
			<path fill="#A1F6FF" d="M17.413,39.051l0.055-0.058c0.636,0.139,1.945,0.086,2.315,0.214l0.236-0.135
				c-0.293-0.021-0.461-0.059-0.366-0.133l-0.945,0.133l-0.469-0.196c-0.219,0.179-1.963,0.026-1.053,0.169L17.413,39.051z"/>
			<polygon fill="#A1F6FF" points="20.611,39.092 20.023,39.068 20.017,39.072 			"/>
			<polygon fill="#A1F6FF" points="34.281,38.225 35.266,38.342 34.223,38.193 34.186,38.204 			"/>
			<path fill="#A1F6FF" d="M33.007,38.359c0.222,0.013,0.541,0.021,0.867,0.063l-1.165-0.155c-0.016,0.027,0.006,0.047,0.051,0.062
				l0.309,0.009L33.007,38.359z"/>
			<path fill="#A1F6FF" d="M24.551,37.748c-0.25,0.088,0.627,0.088,0.809,0.127C26.05,37.783,25.254,37.756,24.551,37.748z"/>
			<polygon fill="#A1F6FF" points="18.684,37.729 19.559,37.818 19.493,37.686 18.867,37.639 			"/>
			<path fill="#A1F6FF" d="M11.036,30.645c0.008-0.203,0.013-0.426-0.001-0.667l-0.005,0.066l0.005,0.577L11.036,30.645z"/>
			<path fill="#A1F6FF" d="M36.26,38.148l0.383-0.035l-0.01-0.002l0.02,0.002l0.32-0.027c-0.484-0.02-0.947,0.102-2.172,0.016
				c0.107,0.152,1.125-0.021,1.229,0.133l0.312-0.065c0.807,0,0.584,0.129,0.502,0.106c0.316,0.026,0.588,0.016,0.756-0.006
				l-0.055-0.01C36.486,38.325,37.479,38.12,36.26,38.148z"/>
			<path fill="#A1F6FF" d="M37.745,38.242l0.015,0.003C37.791,38.239,37.785,38.238,37.745,38.242z"/>
			<polygon fill="#A1F6FF" points="36.643,38.113 36.65,38.113 36.633,38.111 			"/>
			<polygon fill="#A1F6FF" points="37.745,38.242 37.723,38.245 37.545,38.26 37.6,38.268 37.76,38.245 			"/>
			<path fill="#A1F6FF" d="M31.739,38.579c-0.973-0.035-0.106-0.156-0.598-0.22L30.82,38.38
				C31.397,38.459,30.531,38.581,31.739,38.579z"/>
			<path fill="#A1F6FF" d="M31.701,38.352c0.562-0.012,1.215,0.041,0.988,0.125l0.315-0.117c-0.106-0.006-0.192-0.016-0.247-0.025
				c-0.785-0.032-1.55-0.127-2.06-0.195C30.791,38.195,32.013,38.285,31.701,38.352z"/>
			<path fill="#A1F6FF" d="M33.007,38.359l0.062-0.021l-0.309-0.011C32.811,38.344,32.896,38.354,33.007,38.359z"/>
			<path fill="#A1F6FF" d="M16.707,39.234c0.07-0.073,0.714-0.064,0.958-0.055h0.001c-0.536-0.027-0.766-0.082-0.89-0.145
				l-0.773-0.006C16.753,39.087,15.528,39.207,16.707,39.234z"/>
			<path fill="#A1F6FF" d="M17.665,39.18c0.219-0.08,0.067-0.115-0.252-0.132l-0.021,0.026l-0.207-0.031l-0.409-0.005
				C16.899,39.1,17.129,39.152,17.665,39.18z"/>
			<polygon fill="#A1F6FF" points="17.413,39.051 17.185,39.043 17.391,39.074 			"/>
			<path fill="#A1F6FF" d="M13.048,39.018l0.069-0.074c0.584,0.127,1.784,0.078,2.125,0.195l0.215-0.127
				c-0.269-0.021-0.425-0.053-0.336-0.121l-0.867,0.121l-0.351-0.146l-0.135-0.007C13.401,38.986,11.888,38.848,13.048,39.018z"/>
			<path fill="#A1F6FF" d="M13.824,38.833c-0.014,0.011-0.034,0.021-0.057,0.026l0.135,0.006L13.824,38.833z"/>
			<polygon fill="#A1F6FF" points="15.462,39.012 15.458,39.014 16.002,39.032 			"/>
			<polygon fill="#A1F6FF" points="28.294,38.186 28.544,38.238 29.446,38.345 			"/>
			<path fill="#A1F6FF" d="M28.171,38.42l-1.069-0.141C27.038,38.395,27.592,38.34,28.171,38.42z"/>
			<path fill="#A1F6FF" d="M19.618,37.8c-0.229,0.082,0.577,0.082,0.745,0.118C20.991,37.834,20.263,37.809,19.618,37.8z"/>
			<path fill="#A1F6FF" d="M14.813,37.609l-0.588,0.019L14.813,37.609z"/>
			<path fill="#A1F6FF" d="M14.225,37.628l-0.31,0.013l-0.434,0.062l1.556,0.161l-0.119-0.246l0.727,0.026
				c-0.074-0.02-0.433-0.024-0.741-0.037l-0.093,0.006L14.225,37.628z"/>
			<path fill="#A1F6FF" d="M10.973,27.533c0.008-0.188,0.012-0.392,0-0.611l-0.004,0.06l0.004,0.531V27.533z"/>
		</g>
	</g>
	<g>
		<path fill="#BFD669" d="M10.051,32.619c0,0,7.084-4.616,14.759-2.952c7.673,1.665,26.458,0.59,26.458,0.59V44.57H10.051V32.619z"
			/>
		<g>
			<path fill="#4B8779" d="M51.204,28.739c-0.333-0.33-0.844-0.554-1.698-0.554c-3.192,0-2.214,4.224-6.438,4.224
				c-4.223,0-4.402-3.399-6.076-3.399c-1.676,0-2.268,2.163-3.555,2.163s-1.494-3.502-4.43-3.502c-2.936,0-3.915,3.915-5.254,3.915
				c-1.339,0-2.987-4.533-5.717-4.172c-2.73,0.36-2.679,3.966-5.202,3.966c-1.068,0-2.052-0.23-2.833-0.496v13.61h41.203V28.739z"/>
			<path fill="#48A843" d="M51.204,33.541c-0.502,0.594-1.134,1.031-1.906,1.031c-2.418,0-4.221-4.688-7.414-4.688
				s-3.658,4.068-7.933,4.068c-4.275,0-6.026-3.656-9.219-3.656c-3.193,0-4.43,2.627-6.851,2.163
				c-2.421-0.463-3.708-2.987-6.387-2.987c-0.521,0-1.023,0.114-1.494,0.296v14.724h41.203L51.204,33.541L51.204,33.541z"/>
			<path fill="#69B737" d="M49.815,38.246c-1.389-0.206-4.996-5.512-11.178-5.82c-6.181-0.309-8.602,5.614-12.773,5.46
				c-4.172-0.155-5.717-3.761-10.25-5.151c-2.851-0.874-4.663-0.566-5.614-0.219v11.978h41.218v-6.632
				C50.96,38.117,50.522,38.352,49.815,38.246"/>
		</g>
		<path fill="#A1B25B" d="M21.249,34.792c0,0,0.02-3.418-1.144-4.241"/>
		<path fill="#A1B25B" d="M21.949,34.309c0,0-1.141-1.123,1.072-3.982"/>
		<path fill="#A1B25B" d="M21.797,34.843c0,0-0.155-3.308-0.912-4.83"/>
		<path fill="#A1B25B" d="M27.368,36.675c0,0,0.02-3.419-1.143-4.241"/>
		<path fill="#A1B25B" d="M28.067,36.191c0,0-1.141-1.125,1.072-3.986"/>
		<path fill="#A1B25B" d="M27.915,36.725c0,0-0.156-3.308-0.912-4.83"/>
		<path fill="#A1B25B" d="M46.229,35.331c0,0,0.021-3.419-1.145-4.24"/>
		<path fill="#A1B25B" d="M46.929,34.848c0,0-1.139-1.121,1.072-3.985"/>
		<path fill="#A1B25B" d="M46.779,35.382c0,0-0.157-3.309-0.913-4.831"/>
		<path fill="#FFFFFF" d="M21.376,18.651c0.146-0.227,0.228-0.472,0.226-0.725c-0.009-1.18-1.734-2.122-3.854-2.106
			c-1.562,0.012-2.898,0.541-3.49,1.288c-0.998,0.102-1.755,0.583-1.75,1.162c0.004,0.644,0.955,1.161,2.122,1.153
			c0.102-0.001,0.201-0.01,0.3-0.02c0.706,0.428,1.719,0.693,2.85,0.686c0.133-0.001,0.263-0.005,0.39-0.014
			c0.337,0.401,1.072,0.678,1.927,0.672c1.167-0.008,2.111-0.539,2.105-1.184C22.199,19.19,21.872,18.862,21.376,18.651z"/>
	</g>
</g>
</svg>
