<svg xmlns="http://www.w3.org/2000/svg" width="64" height="64" viewBox="0 0 64 64"><path fill="#BCC0C4" d="M54.113 46.301c.014-.109.021-.301.023-.66l-.031.584.008.076zM54.355 49.495c-.09.676-.043-1.521-.129-1.046.055.328-.047 1.74.073 1.062l-.024.688.08-.704zM54.355 49.495c.009-.062.017-.136.025-.247l-.025.247zM10.553 11.756c.081 0 .136.004.18.01.073-.005.144-.01.234-.01h-.414zM55.102 46.07c.013-.141.02-.307.013-.514l-.013.514zM55.034 47.464c-.054 1.364-.31 1.04-.382-.034-.03 1.269.199 1.235.053 2.521l.174-.025-.074.724c.057-.215.127.433.215.072-.207.389.086-2.634-.188-1.509.203-.83.236-1.849.27-3.142-.043.414-.153.619-.238.972l.17.421zM16.659 12.237l.921-.012c-.494-.004-.772.001-.921.012zM14.278 11.863c1.004.079.203.161 1.378.17-.366-.033-.383-.15-1.378-.17zM8.277 46.301c-.039.243-.096.178-.103.926.035-.312.073-.571.116-.834l-.013-.092zM8.174 47.243l.003.71c.018.146.033.221.044.248.003-.472.054-1.03-.047-.958zM8.267 46.225l.011.076c.018-.111.03-.301.032-.66l-.043.584zM8.01 45.898c.092-.375-.025-.81-.025-1.262-.184 1.201.023-.092.025 1.262zM14.75 51.343c.622.077-.952.333 1.315.23-.015-.091-.623-.189-1.315-.23zM55.121 44.381l-.021.547c.023-.095.033-.367.021-.547zM55.337 30.892c-.019.08-.035.164-.05.276l.05-.276zM55.27 27.83l-.006.047.097.03z"/><path fill="#BCC0C4" d="M55.637 15.18v-.003l-.115-.102-.055.1c.021-.427.021-.76.085-.269-.022-.354.079-.457.058-.524-.021-.083.027-.043.027-.406v-.014l-.188-1.776-.044-.414-.729-.044-1.406.032-1.066.034H52.2l-.089-.003.089-.006c-.269-.012-.49-.011-.46-.041.029.022.229.05.46.05h.005l1.049-.034c-.459-.031-.564-.077-.738-.121-.156-.045-.285-.095-.412-.142-.258-.093-.524-.176-1.051-.197-2.359-.094-3.852-.029-5.225.083l1.059.03c1.098.044.963.376 2.299.455-1.336-.08-1.201-.411-2.299-.455l-1.059-.03c-1.291.104-15.367.237-17.07.32 1.704-.092 15.779-.242 17.07-.348-3.775-.078-17.789.343-21.589.454-.258.063-.562-.015-.92-.015h-.021l-.545.041c.172.014.283.02.349.037-.133-.003-.264-.015-.412-.004l.063.002.355-.004c.415.111-1.198.265.292.326-.171-.043-.258-.063-.181-.097.588.041 1.422.093 1.682.156-.865.083-1.08-.096-1.449-.016-.536-.023-1.101-.041-1.358-.08-.075.072-.314.133-.59.192-.411-.083-1.807-.082-2.247-.15-.005.006-.02.013-.027.019l-.381-.018.138.111-.172.044c-.249-.006-.538-.016-.674-.049.063.034.267.064.465.091-.107.022-.217.042-.323.062-.399-.013-.794-.029-1.202-.044a.97.97 0 0 0-.188-.079c.083-.034.05-.064-.322-.085a.68.68 0 0 1 .094-.015l-.161.003.05.01-.274-.012.188.148c-.25-.01-.666-.009-.837-.052a.513.513 0 0 0 .114.034l-.055-.002-.036.011c-.286-.015-.572-.027-.855-.054.06-.024.12-.277.176-.295l.147-.237h-.14c.187 0 .28.143-.213.064l-1.34.237.902.21c.052.013.106.056.16.07-.086.004-.189.027-.322.035l-.526-.007-.506-.015v.001l.506.018c-.105-.027-.139-.061-.188-.096l.165.003-.178-.017c-.11-.075-.283-.148-1.194-.169.249.007.415-.001.742-.017l-.6-.106-.196.016-1.148-.061-.085.035 1.158.032-.444.034c-1.332-.005-.573-.247-.935-.299-.335.023-.526.08-.667.055-.201-.03-.19-.012-.711-.039-.179.144-1.328.076-1.468.139.006.028.016.06.027.067l-.083 1.125-.009-.292c-.037.18-.06.409-.072.671l-.019.378-.003.248c-.002.152.002.317.003.485l.027.754c.029.028.212.074.212.137v.032c0 .09-.135.166-.134.234l-.093.48c.02-.088-.008-.171-.007-.279-.001.108-.026.192-.045.281l.029.229c-.007.046-.018.091-.024.15.017.013.025.039.036.063l-.029.186c.036.029.059.1.079.189l.005.144c0 .127-.002.245.011.316l.012.327-.057.479-.009-.178c-.165.484-.064 1.278-.105 2.188.07 3.307-.008 9.408.176 11.732-.028.168-.062.264-.1.207l.118.15c-.085.249-.107.898-.13 1.473-.017.023-.032.031-.051.008l.048.062c-.025.604.109 1.101.001.905.064.324.106.271.133.044-.053.914.236 2.114.069 1.814.176.88-.459-.749-.405-1.659.047.113.08.271.079.442.054-.521.272-1.151.203-1.446.007-.207.02-.373.033-.521.01.064.018.135.018.208.025-.235.039-.487.041-.72.004-.027.007-.056.012-.082l.02.254-.073 1.099c.027.388-.146.847-.118 1.326-.053.438.429.739.454.993-.031.313-.063.725-.14.537.083 1.236.106.38.193-.142.054.336.113.705.09 1.394l-.023.395a4.729 4.729 0 0 0-.062-.395c.007-.15.015-.309.015-.452-.18.024-.434.565-.426 1.183-.023.129-.054.188-.096.082.042.614.072.725.103.624a5.972 5.972 0 0 1-.018.486c-.008.093-.02.177-.033.248a.845.845 0 0 1-.07.231l-.01-.166-.114.68c.082.24.137.026.18-.354l.256 1.323c-.064.427-.046.346-.015.354-.017.238-.05.438-.113.557l-.012-.18-.126.739c.137.4.204-.325.259-1.11.026.024.056.135.057.623.082-.332-.263-.717-.271-1.11.026-.363-.064-.681-.032-.853.025.385.214.92.214 1.229v.007l-.042.903c.062.541.14 2.11.257 1.903-.008-.041.01-.096-.001-.189.011.095.036.148.045.189.028.127-.115-.013-.101-.22l-.158-.003v.509-.433.89c0 .101-.032.199-.048.296l.048.336v.512c0 .219.118 1.097.064.964-.001.098-.073.192-.068.276.036-.121.004-.24.004-.355v.079c0 .053.01-.056.013-.214 0-.008-.013-.016-.013-.021v.803c0 .127.139.248.121.364-.057.397-.018.86-.063 1.44.075-.127.122.188.112.611.346.008.795-.278 1.128-.295-.307-.08-.555-.455-.849-.455h1.898c.362 1.287.714.492.995.559-.03-.003-.06.146-.091.143.572.071-.872.383 1.206.29-.007-.058-.275-.08-.646-.126.003-.019.019-.019.052-.033 1.432-.072 2.954-.106 4.514-.14.383.099.722.177.888.206l.04.005c-.019-.019-.027-.032-.023-.051.805.134 1.618.239 2.633.196l2.182-.027c.644.083 1.323.133 2.118.102 2.259-.007 18.104-.119 19.823-.086l-.082.03c.549-.036 1.06-.051 1.545-.056l.061.037c1.279.076 2.115.082 3.119.107a.288.288 0 0 0 .093-.107 17.609 17.609 0 0 0 1.94-.113l.295.186c1.396.082 2.447.092 3.541.117.277-.213-.182-.48-.182-.747v-.44c0 .002-.076.009-.043.012.026-.253-.039-.537-.031-.934.006-.451-.021-.984.015-1.654l-.013 1.226.078.437v-1.42c0 .021-.137.041-.136.051 0-.158-.063-.495-.062-.645.002.148-.028.299-.028.299h-.021c-.002 0 .242.357.242.346v.277c0-.397-.021-.767-.009-1.217-.011-.053-.088-.074-.097-.074.009 0-.016.021-.004.074l.002.111-.026-.168c.013-.525.005-1.161.054-2.079l-.143 1.267.146.058c-.029.241.076.485.076.774v-.279c0-.19-.104-.375-.082-.553l.062-.093c-.017.13.024.175.024.304v-1.232c0 .002-.133-.002-.127-.018l.056-.189c0-.059.071-.107.071-.16v-.57c0-.099-.139-.183-.137-.252l-.066-.027c-.008.188-.043.496-.037 1.013l.109.19c.021.125.133-.014.133-.219v-.006.508l-.054-1.17c.015-.016-.024.027-.006.166l-.063-.383.004-.493c.099-.106.145.966.046 1.529.075 1.16.067-1.55.112-.203.076-2.259-.088-.287-.131-2.013.227 1.041.274 2.414.635 3.148-.037-1.438.16-.652.229-1.84l.042-1.09-.344 1.402c-.014-.519 0-.94.023-1.315-.002-.007-.008-.015-.01-.022l.063-.63c.013-.449.031-.941-.019-.934.054-.036.033.473.025.934.081-.763.185-1.418.141-2.584l-.028-.06c-.027.737-.08 1.361-.207 1.896-.004.02-.006.024-.012.041.135-.545.188-1.185.219-1.938-.037-.068-.067-.09-.094-.08.027-.01.057.014.094.08l.028-.943c-.034.383-.137.567-.216.889l.025.062v.004c-.078.17-.129.433-.284-.515.002-.576.026-.873.061-1.022.06.273.132.521.229.722l-.004-.327c.223-.35.133-.389.416-1.55-.058-.382-.129.089-.209.571.009-.113.013-.268.004-.381l-.019.518c-.057.336-.12.729-.188.729h-.008c.026-1.287.16-.309.211-1.193l.043-1.027-.062.242.006-.145-.144.559c-.003-1.354.159-1.56.276-1.125-.053-2.068.263-1.303.098-2.903-.081.552-.229.933-.251 1.479l.01-.726-.041.161-.008-.457a.347.347 0 0 0-.055-.1c.074-.644.334.457.283-1.708-.011.725-.104.194-.175.024l.032-.213.119-.519c-.014-.081-.025-.121-.038-.13.075-.715.118-1.354.274-1.181.021.612-.041.771-.098 1.009.029-.085.064-.102.102-.105.086-1.766-.227-1.376-.197-2.447.013-.085.018-.181.016-.311l.01-.15-.015-.006c-.007-.133-.02-.292-.038-.493l-.045.257c.063-.886.076-4.866.086-5.583l.011-.053c.026-.082.059-.094.088-.099.039-.752-.002-1.075-.056-1.305.017-.317.039-.638.077-.971l-.184-.326.006-.065-.049-.014-.008-.015c.203-.305.344-1.219.439-2.133l.06-1.89zm-1.503 28.422l-.007.03-.033-.042.053-.312-.015.299.002.025zm-32.371-30.84c.207.112.388.195 1.255.28h-.004c-.865-.085-1.045-.168-1.251-.28zm1.708-.151c.298.023.286.067.211.12-.359-.021-.415-.05-.236-.103-.015-.007-.004-.013.025-.017zm3.026.099c.264.021.353.051.308.095-.424-.015-.4-.051-.308-.095zm-.592-.655c-.015.021.03.04.176.057-.151-.017-.195-.037-.176-.057zm.472.011c0 .023.087.045.226.079h-.002c-.138-.034-.226-.056-.224-.079zm-18.141.073h.003l-.003.003v-.003zm17.601.942h-.263.263zm28.424 26.825c.007-.077.013-.127.019-.167v.002c-.009.04-.012.091-.019.165 0 .136.003.26.003.373v.01c0-.115-.003-.238-.003-.383zM27.254 11.78c.062-.005.125-.008.183-.018a2.14 2.14 0 0 1-.183.018zm-.893.102c-.007-.029-.123-.059-.448-.086l.13-.002c.259.028.339.057.318.088zm-1.141.909c.494-.032.822-.054.815-.108l.137.006-.176.092h-.2c-.098.028-.057.052.061.072l-.622-.036-.289-.148c-.493.023-.821.039-.813.078-.04-.001-.072-.122-.109-.123l.149-.227h.124c.028 0 .057.005.065.007-.009-.002-.027-.007-.04-.007h.05c.097 0 .057.045-.061.017l.622.109c.096.065.17.191.287.268zm-1.848-.187c-.324 0-.681.002-1.005 0l-.42-.103c.411.009.792.041 1.156.072l-.14.021c.173.002.304.005.409.01zm-1.48-.008c-.076-.002-.143-.008-.208-.011l.013-.006.195.017zm-12.461-.482a1.734 1.734 0 0 0-.077.025h-.012a.77.77 0 0 1 .069-.024c.044-.016.064-.03-.014-.043l.05.001c.057.012.027.025-.016.041zm-1.394.59l-.015.425c.026.14.043.194.059.183-.016.012-.035-.041-.061-.183l-.001.094c-.002-.065-.007-.128-.007-.199v-.04c0-.121.004-.256.011-.399l.014.119zM8.3 43.579l.021-.283.002-.019-.023.302.003.021v.006l-.003-.027zm43.65-31.916c-.058.008-.103.016-.138.022-.463.036-.273.055-.619.128.377-.078.109-.106.757-.15zm-25.991.121a.396.396 0 0 1 .036.004c-.047.001-.087-.002-.138 0l-.027-.002c.047-.003.083.001.129-.002zm-5.342.706c-.53.004-1.018 0-1.484-.009.151-.06.421-.118 1.292-.199.279.069.379.138.192.208zm-7.483-.219a5.444 5.444 0 0 1 .003 0h-.003zm-2.087-.094a2.953 2.953 0 0 1-.547-.059h.001c.11.03.311.048.546.059zm-3.028.381c-.004.039-.01.072-.015.11-.002-.12-.006-.252-.012-.405.004.112.016.202.027.295zm.205 23.431l.02.3c-.005.005-.011.008-.015.021-.004.002-.006.006-.01.01-.003-.084.002-.202.005-.331zm45.842 11.275l-.002-.007v-.014c0-.011 0 0 .002.021zm.097-4.284l-.084.476-.056-.413c0-.376.043-.771.043-1.161v.144h.041c.018 0 .05-.404.056-.573.009.046.026.054.042.088-.012-.069-.008-.142-.014-.2.014-.003.026 0 .037.027a70.697 70.697 0 0 1-.065 1.612zm.612.327c.004 0 .009-.004.013 0a.108.108 0 0 0-.015.035l.002-.035zm.053-2.06c-.012-.001-.021-.009-.031-.024.01.015.019.023.031.024zm-.068-2.243l-.049-.613c.027-.02.057-.019.08-.039l.008.023.016.355c.004.002.008 0 .011 0l-.003.239-.063.035zm-.015-6.342l-.035-.576c.033-.01.063-.009.084-.086v.083l-.008.51-.041.069z"/><path fill="#FFF" d="M9.266 13.081h45.082v37.354H9.266z"/><g fill="#FFF"><path d="M52.498 43.307l-.009.082-.009.293c.115.338.084 1.014.054 1.905.034 0 .069-.078.088.239-.071 1.417 0 .708.067 1.73 0-.313-.008-.711.026-.867l.033 1.968c.067-.271.142-.493.196-.164.136-.2.299.45.441.692.02-.353.037-.633.055-.764.059.045.084.383.093.795l.004.858c.017-.159.034-.317.06-.24v-1.183c.016-.036.026 0 .034.072l-.034-.304-.031.233c-.027.08-.045-.077-.062-.233-.011-.313.017-.397.033-.554l-.062-.629c-.105-.237-.062 1.656-.158.629l.027-.312c-.027-.473-.027-1.101-.098-1.418.125-.474-.098-1.339.07-1.419.08-1.81-.053-4.172.125-5.983-.116-.313-.336-.313-.476-1.101.019-.155.037-.396.062-.315l-.062-.549c0 .312.011.709-.034.864-.054-.864-.099.396-.158.316l-.062-1.183-.022.142-.202 6.338.011.062z"/><path d="M47.607 12.548l.022.131c-5.528.102-11.646.121-18.112.098l-20.942-.142-.095 13.909-.02 13.09-.489-.545.24 5.435.109 2.779.112 3.648 2.769-.082 1.871-.086 3.568-.194-2.167-.085c1.985-.271 7.057-.445 10.184-.385l-.309.131c-4.287.07.292.039-1.445.391l-.745.066.436.061.745-.063c-.083.073-.019.169-.723.194l.994.015c2.137.349 2.142.647 1.874 1.036.56-.047-.023-.43 2.36-.303l-.312.129 2.607-.229 1.162.168c.93-.08 1.53-.168 2.483-.118l.289-.256c4.267.096 9.649-.204 13.978-.014.951-.249 3.273.081 5.693-.131l-1.039-.275c-2.612-.372-8.721-.178-12.947-.311l.166-.146c.887-.041 1.529-.164 2.627-.092l.289-.258c-1.852-.906-7.619.193-9.152.062-3.253-.251 2.125-.552.571-.516 3.581-.347-2.987-.642-4.502-.94-2.106-.3-5.471-.375-9.007-.371l-9.597.09a1.78 1.78 0 0 1-.284.086 1.641 1.641 0 0 1-.08-.314c-.003-.027-.006-.002-.008-.08l-.008-.221-.015-.446-.025-.896-.054-3.685c-.013-2.493.014-5.053.057-7.581.084-5.055.23-9.995.224-14.079.021-1.113-.036-2.409-.113-3.76l-.124-2.052-.115-.736c.156-.027.337-.047.522-.057l.608-.006.737.014c.951.031 1.77.122 2.377.306l7.727.162-.165.146c7.519.048 15.818-.306 22.836-.416 3.066-.032 3.995-.412 5.387 0l.764.03.385.011.115.011c.111.011.214.02.318.022l.049 2.545.131 4.124c.101 2.741.211 5.437.229 7.914.134-.021.271.805.343-.293-.164-3.042.166-6.546.522-6.653l-.034 1.139.291-2.032-.113-1.306c.088-.333.157-.483.215-.505.062-1.112.174-2.15.293-3.2.062-.559.125-.975.188-1.667l.177-2.347-.057-.003-1.813.048-1.631.017a54.316 54.316 0 0 1-3.402-.131z"/></g><path fill="#BCC0C4" d="M55.055 38.671l-.012.474c.012-.129.018-.282.012-.474zM54.971 43.409c-.078.147-.078-.241-.068-.679l-.059.649c.037.098.08.225.127.03zM12.085 11.93c.922.072.187.148 1.265.157-.333-.032-.35-.138-1.265-.157zM8.171 47.243h.001l.002-.016zM55.198 19.188l-.003.045.089.025z"/><g><path fill="#A1F6FF" d="M11.528 15.657h39.929v24.474H11.528z"/><path fill="none" d="M48.373 15.967c-.01-.07-.553-.15-1.172-.182.555.059-.846.262 1.172.182zM19.63 15.697l.842-.038c-.688-.072-1.949-.124-2.525-.197-.96.118 2.294.061 1.683.235zM11.162 29.847c.057.1.112-.01.168-.266l-.053-.563c-.048.131-.081.485-.115.829zM26.54 15.744l.386.02.107-.017zM21.776 15.614l.332-.014-.182-.054c-.184.024-.201.046-.15.068zM11.105 22.422l-.046.214c.012.116.023.183.033.215l.013-.429zM27.919 15.797l-.099.029.446.02a3.152 3.152 0 0 0-.347-.049zM11.233 23.22l-.048-.233-.016.479c.02-.046.042-.144.064-.246zM28.927 15.873a2.333 2.333 0 0 1-.409-.063l-.062.043.471.02zM11.048 21.4l-.002.017-.003.434a7.66 7.66 0 0 0 .145-.774c-.054.128-.098.149-.14.323zM33.303 15.693c.135.026.373.047.568.069l.707.043c-.113-.027-.188-.062-.197-.119l.434.012-.75-.116a5.83 5.83 0 0 0-.438.009c-.307.043-.393.075-.324.102zM33.203 15.657a.307.307 0 0 0 .131-.04l-.104.012c-.027.01-.033.021-.027.028zM30.158 15.366l-.385.091c.477-.017.718-.057 1.022-.093a8.41 8.41 0 0 0-.637.002zM11.194 17.142l-.013-.036-.076 1.098c.028-.115.066-.161.12-.102l.02-.247.017-1.396-.008-.121c-.026.168-.048.431-.068.702l.008.102zM13.355 15.245l.367.08c.163-.031.266-.066-.367-.08z"/><path fill="none" d="M13.94 15.371l-.218-.047c-.194.035-.477.063.218.047zM12.518 15.739a2.82 2.82 0 0 1 .331-.022l-.384-.003c.037.005.051.015.053.025zM11.296 18.005l-.016.174.015-.105zM25.824 39.588c-.032.027-.025.047.001.066l.952.019-.052-.007c-.213-.046-.354-.094-.901-.078zM11.04 19.219v.012l-.004.401.003-.009z"/><path fill="#A1F6FF" d="M46.482 39.794l.5.013a3.652 3.652 0 0 0-.5-.013zM48.301 40.188c1.232.026 1.199-.172 2.445-.045l-.021-.146.699.062c-.209-.05.42-.106.07-.186.379.178-2.557-.074-1.463.161-.809-.175-1.799-.2-3.055-.229.4.033.604.133.938.202l.416-.147c1.33.046 1.014.266-.029.328zM11.007 21.999l.036-.148.003-.434zM11.281 19.228l-.011.885.062-.741c-.017-.018-.032-.076-.051-.144zM11.268 16.233l-.013.103.009.122zM11.286 15.89l.123.241a.49.49 0 0 1 .067-.134c-.034-.066-.072-.224-.105-.153l.001-.097.366.007-.176-.077-.273-.011-.003.224zM11.377 19.395l.011-.14-.015.06zM11.247 17.855l-.02.247c-.054-.059-.091-.014-.12.102l-.067 1.016-.001.403c.083-.329.159-.88.241-1.441l.016-.176-.001.069.031-.209.083 1.059.075-1.127-.17-.322.006-.37-.077.933.004-.184z"/><path fill="#A1F6FF" d="M11.446 15.629l-.197-.074-.063.006.044.492c.015-.15.023-.29.026-.423l.19-.001zM11.046 21.402v.015l.002-.017zM11.094 20.158l-.053.238.004.625a8.33 8.33 0 0 0 .049-.863zM11.538 15.932c-.024.017-.042.041-.063.066.026.048.048.055.063-.066zM11.293 20.656a1.945 1.945 0 0 1-.107.419 7.696 7.696 0 0 1-.144.774c-.006.434-.022.826-.055 1.116l.068-.312-.002-.076.006.059.046-.214-.014.429c.038.123.071-.282.113-.565.013-.347.028-.689.057-1.03l.051.17-.006-.677a.43.43 0 0 0-.013-.093z"/><path fill="#A1F6FF" d="M11.305 20.606l.002.143c.008.115.012.333.009.684.05.18.079.271.146-.208l-.102-1.301-.13.876c.026-.118.049-.208.064-.143l.011-.051zM11.168 23.466l.015-.479c-.046-.216-.084-.302-.091.632l-.019-.471c-.027.354-.063.449-.088.921.006-.008.014-.015.02-.013.075-.56.146-.414.247-.768l-.021-.07c-.02.104-.042.202-.063.248zM11.338 23.068l.01.896c.004-.481 0-.752-.01-.896zM11.338 23.068l-.002-.157-.01.048v.018c.004.02.009.044.012.091zM11.104 26.196c.002-.394.011-.614.023-.731l-.054-.135.031.866zM11.354 25.56l.016-.371-.095.134a.991.991 0 0 0 .079.237zM11.28 24.503c-.031.062-.055.258-.08.452l.037.203c.006-.243.013-.523.043-.655zM11.043 16.8c-.071.285-.126.747-.087-.317l-.022-.115a.364.364 0 0 1-.054.11c.002.271.012.625-.044.546.09.25.14.68.032 1.4.157-.188.14-.965.165-1.333l.01-.291zM11.186 17.039l-.004.067.012.036zM10.88 16.456l.027-.208c-.025-.092-.028.03-.027.208zM12.381 15.374l-.235-.051c-.201.038-.49.069.235.051zM11.722 15.236l.424.086c.17-.032.302-.068-.424-.086zM11.408 15.437l.174-.011-.619-.089-.001.01.004-.006c.076.022.323.057.442.096zM11.02 15.504l.071.056-.006-.1.178-.013c-.018-.027-.107-.038-.237-.046l-.006.103zM11.512 22.094c.029-.354.129-.372.146-1.339-.067.974-.137.196-.146 1.339zM11.574 17.609l-.03-.084-.038 1.5zM20.001 15.826c.059-.029.01-.054-.088-.078-.098.023-.098.049.088.078zM18.357 15.421c-.249-.021-.363-.017-.429-.004l.197.026.232-.022zM21.776 15.614c-.051-.022-.034-.044.149-.069l-.023-.008a7.001 7.001 0 0 1-1.087-.055l.468.141-.664.029c-.012.004-.015.009-.031.014l1.188-.052z"/><path fill="#A1F6FF" d="M19.63 15.697c.61-.173-2.644-.116-1.683-.234l-.107-.016c-.055.027-.106.062-.346.076l-1.073-.137c-.051.155 2.907.222 3.492.364.148-.034.521-.054.844-.053l-.284-.038-.843.038zM20.937 15.702c.208.008.365.031.372.071.538-.011.75-.027.805-.046-.082-.08-.85-.071-1.177-.025zM20.815 15.483l-.084-.028c.002.011.038.018.084.028zM20.3 15.359c.122-.027.157-.046.061-.031l-.43.014c.108.012.233.017.369.017zM19.42 15.416l-.271.025.093.03c.307.003.599-.03.819-.066l-.187-.059c-.433.018-.829.035-1.094-.023l.269.086c.065-.011.166-.012.371.007zM12.728 15.966c-.212-.003-.367-.007-.342-.016l.342.016 1.057-.015-.905-.151c.174.012.314.012.441.005-.122-.022-.196-.046-.182-.076l.265.009-.335-.022-.221-.002c-.126.002-.235.01-.331.022 0 .024-.104.048-.151.071l.203.057c-.241-.015-.25-.035-.203-.057l-.12-.031c-.199.047-.296.101-.601.066.33.074.426.125.643.175l1.187.168c.098-.103.536-.111.993-.134l-.603-.087c-.042.092-.665.034-1.137.002z"/><path fill="#A1F6FF" d="M12.728 15.966c.472.03 1.097.09 1.137-.002l-.069-.01-1.068.012z"/><path fill="#A1F6FF" d="M13.795 15.954l-.01-.001-1.057.013zM12.386 15.951c-.025.009.13.015.341.016l-.341-.016zM21.054 15.813c1.414.066-.682.14.9.146.249-.087-.199-.137-.9-.146zM38.416 15.739l.174-.01-.817-.179-.173.011zM26.503 15.593a1.657 1.657 0 0 1-.273-.062c-.393-.077.436-.257-.937-.133.602.085.099.188 1.21.195zM28.024 15.463c-.574.02-.286.121.182.181l.306-.006c-.262-.047.016-.135-.488-.175zM37.221 15.344l-.369.007.142.008zM40.414 15.626c.234.033.174.081.898.089l-.811-.101-.087.012zM41.332 15.714l.688-.002c.141-.016.215-.028.242-.038-.459-.003-1.002-.047-.93.04zM41.457 15.494l-.164.022.057.001zM39.771 15.599l.564.037.076-.009a5.08 5.08 0 0 0-.64-.028zM33.533 15.888c.594-.035.705-.062.611-.088l-.693.005c.125.021.186.047.082.083zM33.871 15.762c-.193-.022-.434-.043-.566-.069.066.027.283.049.566.069zM31.248 15.601c-.078.027.002.05.141.069.326-.046.686-.097 1.353-.078-.473-.029-1.011-.068-1.494.009zM34.854 15.843a2.344 2.344 0 0 0-.24-.028c.07.012.152.021.24.028z"/><path fill="#A1F6FF" d="M35.574 15.483l1.674.087c.32.003.492.013.59.027l.586-.075-.475-.022c-.104-.118.939-.18 1.48-.063 1.127-.091-1.506-.086-.199-.137-2.473-.105.291.158-2.781.165-.434-.043-.289-.074-.002-.094-.465-.017-.943.032-.873.112zM33.896 15.558l-.27.035c.145-.009.291-.011.438-.009l-.168-.026zM37.408 15.96l-.174.009.717.108c.389-.118-.314-.175-1.08-.224l-.004.007c.233.016.424.045.541.1zM39.283 15.6h-.002.49l-1.137-.066c.028.035.389.049.649.066zM35.301 15.774l-.487-.074-.436-.012c.01.055.084.093.197.119l.658.049 1.285-.006-.166-.021.043-.001a10.34 10.34 0 0 1-.828-.07l-.266.016zM30.797 15.365l.144-.015a8.073 8.073 0 0 0-.698-.003l-.084.021c.296-.011.504-.011.638-.003zM32.008 15.384l.461-.109c-.553-.006-.653.01-.648.035l.102-.001c-.09.047-.04.068.085.075z"/><path fill="#A1F6FF" d="M37.836 15.597l-.066.009-.521-.035H36.8c.338.055.236.089-.025.113l.877.136c.523-.054 2.051-.071 1.85-.171l-.188.025c-1.382.022-1.207-.04-1.478-.077zM33.129 15.436l.121-.033c.211-.077.4-.068.672-.056.01-.01.021-.021.049-.035a9.933 9.933 0 0 0-1.365.078c.205.001.404.011.523.046zM33.203 15.657c-.004-.008 0-.018.027-.027l.104-.012.008-.004-.215-.002a5.017 5.017 0 0 0-.387.054c.178.007.344.01.463-.009zM34.201 15.449l.982-.019c-.34-.054-.977-.012-1.193-.042-.07.015-.043.036.211.061zM35.676 15.354a1.053 1.053 0 0 0-.262.06c.184-.018.244-.038.262-.06zM29.995 15.364l-.141.016.112-.005a.09.09 0 0 0 .029-.011zM31.164 15.583l-.341-.015c-.101.045-.181.083-.113.1-.012-.021.104-.046.454-.085zM30.719 15.676c-.185.004-.501-.019-.817.001.51.062.831.062 1.102.039a1.713 1.713 0 0 1-.285-.04zM27.033 15.747c.13-.015.299-.021.483-.019-.29-.036-.521-.066-.95-.054l-.268.05.242.021.493.002zM25.97 15.785c.072-.017.197-.028.354-.035l-.117-.01-.237.045zM28.361 15.919l.059-.042-.065-.001c.024.014.032.027.006.043zM28.266 15.846l.189.006.062-.043-.505-.03-.094.018c.144.015.268.03.348.049zM29.924 15.81l.267.027a1.186 1.186 0 0 0-.267-.027z"/><path fill="#A1F6FF" d="M29.924 15.81c-.507-.046-1.118-.059-1.406 0 .091.027.239.048.409.063l.415.028c.89.047 2.054.039 1.765.182.854-.151-.727-.159-1.611-.206.11-.041.261-.067.428-.067zM33.152 15.442l.098-.04-.121.034zM41.979 15.463c.984.117 1.438.215 2.242.294-.107-.119.783-.022 1.309-.053-.917-.246-1.69-.125-3.551-.241zM46.816 15.472c-.008-.013-.064-.031-.193-.058l.795.028-1.072-.136c1.432.166-1.393.082-.848.2.271-.057 1.301.02 1.318-.028l-.457-.035.457.029zM38.795 15.877c1.168.156-.09-.02 1.229-.023-.366-.078-.786.022-1.229.023zM50.369 15.504l-.668-.046c.252.028.506.041.668.046zM50.369 15.504l.703.059c-.035-.013-.037-.025-.029-.039l-.238-.032a5.133 5.133 0 0 1-.436.012zM50.766 16.205c.037-.029.08-.129.115-.292a1.742 1.742 0 0 0-.432-.082c.256.06-.412.257.301.212l.016.162zM38.562 39.66c-.373.051.082.109.553.179l.115.017-.031-.002c.324.049.635.104.654.162l.215.006c-.339-.196-.379-.116-1.506-.362zM45.338 39.786l.533.021a2.458 2.458 0 0 0-.533-.021zM32.502 39.643l-.267-.041c.077.016.159.028.267.041zM29.262 39.66l.045.003.029-.083zM52.303 37.352c-.041.035-.086.041-.135-.021-.08-1.395-.133-2.872-.174-4.387-.301.945-.797 2.215-1.156 2 .006.605.027 1.22.098 1.886l-.158.287c-.072 1.354-.078 2.239-.1 3.302.533.791 1.475-2.352 1.617-3.021l.008-.046zM50.881 25.532l.027.078c.016-1.034-.02-2.564-.043-4.069a13.199 13.199 0 0 0-.084 2.057c.002 2.195.1 5.074.07 6.745l-.029-.082c.031.535.047 1.029.051 1.502l.111-.206c-.213-2.062.041-3.633-.103-6.025zM20 39.541l.094-.004c-.414-.018-.737-.041-.261-.096-.688.039-.403.055-.804.131l.328-.01.643-.021z"/><path fill="#A1F6FF" d="M19.03 39.568l-.01.004.337-.01zM20.1 39.539l-.002-.002-.098.004zM11.295 28.982c-.006.007-.012.023-.018.038l.053.563c-.056.256-.111.364-.168.265-.024.261-.05.514-.08.653l-.043.604c.109-.197.196-.49.292-1.484l.007.042c.02-.521.034-1.068.068-1.318-.062-.074-.116-.306-.165-.574-.016.091-.035.133-.061.102l.115 1.109zM11.019 26.686c-.034-.034-.07.05-.106.313.05.082.09.102.106-.313zM10.905 27.305c.055.362.1.544.138.659l.029-.397-.167-.262zM11.049 29.328l-.019-.136c-.006 1.581-.198.032-.306.751l.272.421c.001-.335.026-.676.053-1.036zM20.115 39.55l.065.136c1.205.07 2.299.021 3.828.125l.017-.047-.015.006c-.296-.175-1.185-.191-2.072-.277l-1.838.05c.336.015.729.021.809.038l-.794-.031zM19.179 39.82l.189-.092-.82-.084.472-.072-1.073.048c.557.043 1.035.086 1.232.2zM31.413 39.786c-.39.089-.206.22 1 .216l-.498-.107c1.236.027.354.166 1.398.172h-.004.086l.316-.002c.119-.129-1.358-.229-1.311-.312-.694-.063-1.316-.101-1.147-.235.593-.019.75.034.98.082-.083-.024-.099-.057-.104-.084-1.715-.076-1.335.189-2.376.168.331.037.475.128 1.66.102zM22.365 41.445l-.307.015c.126 0 .238.002.307-.015zM21.492 41.573c.036-.054.117-.081.216-.097l-.586.024c.103.025.207.052.37.073zM43.736 39.975c-.74-.066-1.377-.158-2.512-.119l-.057.024c.729.027 1.352.069 1.881.187-.583-.129.095-.105.688-.092zM29.307 39.663l-.006.013.152-.003z"/><path fill="#A1F6FF" d="M39.113 40.3l.57-.091c.15.03.436.053.994.057.922-.135.666-.181.5-.244l.316-.113c.762.023.932.113.715.188l-.422-.021c.027.042.113.062.234.066-.143.027-.33.051-.562.063.611.013.889-.031 1.188-.062.232-.002.438.01.479.074l.34-.068.109.004.137.013-.002-.011c.58.021.387.133.305.113.711.059 1.217-.074.961-.029-1.334.101-.428-.094-1.27-.109l-.004-.03.389-.033.24.021c-.078-.02-.023-.036.039-.062.359.022.771.029 1.275.022l-1.363-.295 1.059.035c1.15.057.391.229 1.785.194-.734.316-2.137.352-3.154.562-1.582-.008-1.758.005-3.779-.052.303.257-2.918.423-4.646.572l-1.064-.09c-2.42.242-5.616.561-9.375.655-.885-.048-1.655.073-2.126-.126l.173-.011-.463-.07c2.375-.13 4.435-.333 6.094-.501l.979.082c1.588-.14 4.542-.293 4.263-.529 1.859.051 2.02.041 3.471.047l.201-.033c-.008.056-.039.103.754.101-.676-.022-.535-.085-.48-.146l.771-.103c.51.011.955.062.75.136l.414-.146-.795-.03zm3.143-.03l.66.031c.367.049.391.127 1.211.133-.191-.076-.707-.104-1.211-.133a6.208 6.208 0 0 0-.66-.031zM25.36 39.635a17.68 17.68 0 0 1-.942-.064l-.317.156c.812.052.952-.029 1.259-.092z"/><path fill="#A1F6FF" d="M44.021 40.055l-.333-.03.009.041zM11.059 40.701l-.116.025 1.915.061c-.195-.06-.522-.101-1.799-.086zM27.643 39.895c.153-.056.625-.133-.021-.137 2.408-.051.287.282 2.29.231l-.416-.091.645.011c-.4-.015-.702-.097-1.071-.16-.859-.054-1.599-.065-2.296-.076l.192.032-.192-.032-.951-.019c.145.11 1.118.127 1.82.241zM13.308 39.695l1.292-.057h.008c.368-.07.106-.082.735-.123-.434.053-.14.073.241.09h.005l.876-.024c-.961-.106-.974-.354-1.998-.392a63.15 63.15 0 0 0-1.96-.037c-.412 0-.266.003-.306.008l-.046.021c-.01-.009-.021-.016-.036-.026-.015-.048-.03.071-.048-.271l-.004.231-.006.033-.017.074a.587.587 0 0 1-.045.112c.002.056-.018.146.056.222.064.039.041.074.268.099.251.027.567.04.985.04zM39.025 40.07l-.998-.215-.137-.006.549.116c-1.316.007-1.52-.135-1.092-.235-2.014.045-1.268-.227-2.82-.082.537.067.906.195 1.438.216l-.701-.009.154.033c1.404-.001 1.928.219 3.607.182zM33.033 39.822l.205.027c.166-.061.68-.142-.025-.147 2.107-.044 1.039.18 1.662.243-.172.119.492.142.033.246l-.215-.025.178.038-.4.067c-1.439-.008-.922-.149-1.156-.205l.082-.002.561.009c-.292-.171-.337-.141-.925-.251zm1.098.139l.463.135c.679-.096-.074-.103-.463-.135l-.184-.053c-.064.028.032.039.184.053zM44.127 40.434c-.189-.076-.705-.104-1.211-.133.367.051.391.127 1.211.133zM42.256 40.27l.66.031a6.208 6.208 0 0 0-.66-.031zM42.65 40.143c.23-.002.434.01.477.076l.344-.07.104.004a4.5 4.5 0 0 0-.925-.01zM41.787 40.07c.029.043.117.062.236.07.078-.017.141-.029.188-.048l-.424-.022zM44.012 40.266c.711.059 1.217-.072.961-.029-1.334.103-.426-.094-1.268-.106l.002.026c.582.018.387.126.305.109zM43.697 40.066l.004.034.389-.038-.069-.007zM38.445 40.594c-.676-.025-.535-.086-.482-.146l-.27.044c-.009.056-.041.106.752.102zM39.482 40.482l.414-.149-.785-.033-.379.048c.508.009.956.06.75.134z"/><path fill="#A1F6FF" d="M34.871 40.204l.037-.011-.215-.027zM34.131 39.961l-.184-.053c-.064.028.032.039.184.053zM34.131 39.961l.463.135c.679-.096-.074-.103-.463-.135zM32.235 39.602zM20 39.541l-.643.021.643-.021zM19.37 39.729l.183-.088.627.047-.065-.136.796.025c-.081-.015-.474-.025-.81-.036l-.1.002-.643.021-.336.013-.472.069.82.083zM39.793 39.842l.459.012a3.556 3.556 0 0 0-.459-.012zM44.395 39.914c.145.068-.234.068-.658.061l.631.049c.093-.031.214-.069.027-.11zM40.252 39.854c.369.031.551.119.857.188l.064-.021c-.088-.035-.145-.078-.01-.141l-.911-.026z"/><path fill="#A1F6FF" d="M42.209 40.096c.699.03 1.133-.007 1.484-.025l-.008-.043.334.027.133.004-.064.006.24.021c-.078-.021-.023-.038.037-.062l-.629-.049c-.594-.014-1.271-.037-.688.09-.529-.115-1.15-.158-1.879-.188-.139.062-.08.104.008.139l.318-.117c.761.031.931.121.714.197zM43.709 40.161l-.002-.009-.133-.002zM42.023 40.141c-.141.027-.33.051-.562.063.613.013.889-.031 1.189-.062-.212.003-.453.01-.627-.001zM43.705 40.126l-.004-.026-.326.027z"/><path fill="#A1F6FF" d="M44.021 40.055l.069.007.064-.007zM42.209 40.096a1.245 1.245 0 0 1-.188.045c.172.016.412.004.627.002.229-.021.484-.031.924.01l.135.002-.004-.024-.328.001.324-.025-.006-.027c-.351.009-.783.046-1.484.016zM11.001 19.768l.035-.136.004-.401zM11.186 17.039c.021-.27.043-.533.069-.703l-.026-.283-.026.229c-.099-.115-.143.062-.161.52.051-.198.106-.294.144.237zM11.321 17.106l.002-.045.02.318.049-.732.049-.46-.033-.055c-.046.172-.073.278-.087.974z"/><path fill="#A1F6FF" d="M11.106 18.204l.076-1.098c-.099-.309-.131-.241-.146-.016l.004 2.142v-.012c.006-.465.023-.833.066-1.016zM11.264 16.458l-.018 1.396a9.69 9.69 0 0 0 .018-1.396zM12.464 15.712l.384.003.221.002h.039l-.432-.181c-.542.03-.825.081-1.231.091l.117.048c.354.018.526.051.684.101l.271-.04c-.001-.007-.015-.017-.053-.024z"/><path fill="#A1F6FF" d="M11.229 16.053l.026.283.013-.103-.004.224c.023.324.027.86-.018 1.396l-.002.185.077-.933c.013-.695.042-.801.087-.975l-.122-.24.005-.225.273.011-.117-.048h-.191a5.481 5.481 0 0 1-.027.425zM11.04 19.219l.066-1.017c-.043.185-.06.553-.066 1.017zM11.182 17.106l.004-.067c-.039-.531-.094-.435-.143-.238l-.007.291c.014-.227.047-.295.146.014zM12.849 15.715l.221.002-.221-.002zM12.518 15.739l-.271.04.121.031c.046-.024.15-.048.15-.071zM12.569 15.866l-.202-.056c-.048.021-.037.04.202.056zM11.036 19.632c-.006.398-.02.757-.05 1.024l.057-.262-.003-.774-.004.012zM11.42 19.057l-.011-.133-.021.331zM11.332 19.373c.013.018.027.003.042-.056l-.015-.269-.027.325zM11.28 18.179c-.098 1.017-.145 1.953-.232 3.219.042-.172.086-.193.139-.323l.043-.276c-.026.115-.053.258-.079.312.025-.727.034-1.373.086-2.025l.044.142.014-1.154-.015.105zM10.97 21.947c.026-.278.052-.439.076-.543v-.379c-.027.228-.056.363-.076.922z"/><path fill="#A1F6FF" d="M11.295 18.074l-.014 1.154c.019.068.034.126.05.144l.027-.325.015.268.015-.06.021-.331-.083-1.06-.031.21zM11.28 18.179c-.082.563-.157 1.114-.241 1.441l.003.774.053-.238a8.646 8.646 0 0 1-.049.864v.38l.001-.004c.087-1.264.135-2.2.233-3.217zM11.293 20.656c-.015-.065-.038.025-.064.143l-.043.276c.033-.077.069-.192.107-.419zM11.315 21.57v-.137l-.001-.006z"/><path fill="#A1F6FF" d="M11.314 21.427l.001.007c.001-.351-.001-.569-.009-.683l.008.676zM11.305 20.606l-.011.05c.005.02.009.046.013.093l-.002-.143zM11.183 22.985l.049.233c.036-.168.071-.339.091-.251l.002-.008.01-.267-.127.183c.007-.244.007-.646.044-.813a.986.986 0 0 0-.046.224l-.023.699zM11.059 22.636l-.004.017.02.495.018-.296a1.344 1.344 0 0 1-.034-.216zM11.252 23.289c.029.082.054.048.073-.312l-.001-.009c-.025.146-.048.24-.072.321z"/><path fill="#A1F6FF" d="M11.093 22.853l-.018.296.018.471c.005-.934.045-.849.092-.632l.023-.698c-.043.281-.077.685-.115.563zM11.053 22.578l.002.076.004-.018zM11.325 22.968c-.022-.087-.056.082-.092.252l.021.07c.022-.082.045-.176.071-.322zM11.326 22.978v-.019l-.001.009zM11.02 15.504l-.079-.058.018-.099c-.003.003-.008-.002-.012-.022.039-.008.208-.007.585.006.721-.138-.649-.007-.587-.108l-.069.028c.054.271.08.565.031.998l.027.119c.068-.216.075-.596.086-.864z"/><path fill="#A1F6FF" d="M11.175 15.562l-.001-.013c.36-.028.364-.071.234-.112l-.146.01c.016.021-.017.053-.093.098l.006.017zM10.876 16.483l.004-.005v-.022zM10.907 16.249l-.027.208v.022a.364.364 0 0 0 .054-.11l-.027-.12z"/><path fill="#A1F6FF" d="M11.02 15.504l.005-.103c.13.008.217.021.237.046l.146-.01c-.121-.039-.366-.076-.443-.097-.001.004-.002.006-.005.006l-.018.098.078.06zM12.502 15.456l.638-.039-.659-.099z"/><path fill="none" d="M11.468 19.854c.027-.324.117-.339.134-1.23-.062.897-.128.183-.134 1.23z"/><path fill="#A1F6FF" d="M11.522 16.135l-.027-.06-.034.963c.02-.516.041-.67.061-.903zM20.93 15.785c.053-.026.008-.049-.081-.07-.089.02-.09.044.081.07zM20.756 15.697l.093.017.088-.012zM21.677 15.469l-.078-.023c.002.008.036.016.078.023zM17.927 15.417l-.283-.036c-.008.024.068.046.195.066a.3.3 0 0 1 .088-.03zM21.677 15.469l.225.068.245-.014-.222.022.182.054-.332.014c.098.043.425.081.338.112.004.004.014.007.017.01 1.845-.04-.425-.135.767-.229-.329.041-1.002.003-1.22-.037zM20.473 15.66l.147-.006c.348-.147-2.651-.093-1.471-.213l-.1-.032c-.143.019-.091.08-.418.099l-.505-.064-.178.02c.576.072 1.837.123 2.525.196z"/><path fill="#A1F6FF" d="M21.776 15.614l-1.187.053c.016-.005.019-.009.031-.014l-.147.006.284.038.181.004c.326-.045 1.095-.055 1.176.025.087-.032-.24-.069-.338-.112zM22.148 15.523l-.246.015.023.007zM18.125 15.442l-.197-.026a.264.264 0 0 0-.087.03l.107.016.177-.02zM19.42 15.416a1.655 1.655 0 0 0-.372-.006l.1.032.272-.026zM20.233 15.459c.644.007 1.261-.168 1.027-.13l-.961.03-.24.044.174.056zM19.808 15.323l.067.021.057-.003z"/><path fill="#A1F6FF" d="M20.3 15.359c-.137 0-.262-.004-.369-.018l-.057.003.187.059.239-.044zM14.635 15.697l.244.009c-.855-.08-1.048.07-1.558.101.244.043.696.076 1.128.106.343 0 .743-.005.856-.014 0-.005.007-.006.004-.011.053.004.036.008-.004.011.013.053-.139.063-.351.057l.245.027a5.694 5.694 0 0 1-.733.069l.477.063c.138-.146 1.034-.083 1.582-.186-.577-.08-1.951-.112-1.89-.232z"/><path fill="#A1F6FF" d="M15.306 15.899c-.113.009-.514.016-.856.014l.505.042c.212.007.364-.002.351-.056zM15.31 15.888c.003.005-.004.006-.004.011.04-.003.057-.007.004-.011z"/><path fill="#A1F6FF" d="M15.2 15.985l-.245-.028-.698-.043c-.195-.001-.335-.005-.315-.014l.315.014h.193c-.433-.032-.885-.064-1.128-.106a3.917 3.917 0 0 1-.441-.005l.904.151.087-.001c-.002-.005.007-.008.003-.013.059.005.042.009-.003.013 0 .005-.007.009-.008.015l.603.089c.256-.017.519-.032.733-.072z"/><path fill="#A1F6FF" d="M13.942 15.899c-.021.007.12.013.315.014l-.315-.014zM14.955 15.956l-.505-.042h-.193zM13.865 15.963l.007-.012-.077.003z"/><path fill="#A1F6FF" d="M13.872 15.951l-.087.002.01.001zM13.875 15.937c.004.006-.005.008-.003.013.045-.004.062-.008.003-.013z"/><path fill="none" d="M21.894 15.773c1.298.061-.625.129.826.136.23-.083-.18-.126-.826-.136z"/><path fill="#A1F6FF" d="M37.824 15.706l.162-.012-.752-.162-.16.011zM25.202 15.567l-.166-.037c-.812-.043.358-.274-1.069-.146.576.085.029.186 1.235.183z"/><path fill="none" d="M26.641 15.594l-.138-.001c.303.049.749.083 1.045.042-1.208.002-.425-.136-1.076-.189-.305.01-.343.046-.242.083.054.011.125.02.229.024l.182.041z"/><path fill="#A1F6FF" d="M26.503 15.593l.138.001-.182-.04a1.655 1.655 0 0 1-.229-.024c.055.02.151.044.273.063zM34.238 15.36c.184.004.4 0 .668-.022l-.668.022zM39.496 15.65c.121-.024-.012-.038-.213-.05a.834.834 0 0 1 .213.05zM38.793 15.476l-.369.048.207.009c-.008-.014.031-.034.162-.057z"/><path fill="#A1F6FF" d="M38.631 15.532l-.207-.009-.59.075c.271.037.098.099 1.477.078l.188-.026a1.032 1.032 0 0 0-.211-.05c-.265-.017-.626-.031-.657-.068zM37.248 15.571l.521.035.066-.009a5.049 5.049 0 0 0-.587-.026zM33.99 15.388c.049-.01.133-.021.248-.028l-.318-.012c-.01.018.018.032.07.04zM35.572 15.756l1.199-.07-.652-.101c-.728.079-.787.13-.547.171zM32.081 15.447l.523-.058-.594-.005-.317.075c.152-.012.281-.014.388-.012zM31.524 15.838c1.197-.072.273-.107-.136-.167l-.383.045c.304.026.706.054.519.122zM36.443 15.371c.178.008.352.023.492.055.4-.033.279-.052.057-.066-.188.01-.354.011-.5.009l-.049.002zM35.307 15.458l.107-.043-.232.016a.555.555 0 0 1 .125.027zM36.492 15.367l.355-.016c-.346-.017-.738-.027-.098-.055-1.275-.054-1.033-.001-1.074.057.22-.022.454.008.817.014zM31.37 15.364c.313-.005.206.021.135.047.544-.018.328-.068.318-.103-.394.004-.667.02-.883.04.161.009.29.02.361.033l.069-.017zM32.74 15.666l-.437-.013c.023.155.55.162 1.148.154-.32-.051-1.074-.068-.711-.141zM33.203 15.657c.008.012.041.025.102.035-.066-.027.018-.06.322-.102l-.293.026a.307.307 0 0 1-.131.041zM33.871 15.762c.123.012.227.025.273.038l.471.015-.037-.009-.707-.044z"/><path fill="#A1F6FF" d="M35.514 15.646c-.398.007-.92-.052-1.449-.061l.75.115c.308.012.591.02.699-.054zM34.854 15.843c.09.015.168.034.227.06l-.162.009.66.099c.236-.071.025-.118-.344-.155l-.381-.013zM30.709 15.667c0 .002.006.006.01.008h.061a.322.322 0 0 1-.071-.008zM32.74 15.593l.387.019.01-.001zM30.242 15.347l.308-.073c-.904-.011-.497.047-.555.09l.247-.017z"/><path fill="#A1F6FF" d="M30.829 15.51l.193-.053c.045-.043.009-.08-.225-.093-.307.036-.546.078-1.023.093l.385-.091-.193.008c-.051.014-.174.024-.443.027.152-.054-.902-.107-1.374-.034 2.158-.105.363.256.85.272l-.487-.003c.106.021.302.032.688.03-.277.038-.676.016-.994-.026h-.011c1.294.159 1.275-.119 2.629-.077l.139-.066-.134.013z"/><path fill="#A1F6FF" d="M29.199 15.667c-.385.001-.582-.011-.688-.031l-.306.005c.318.043.716.065.994.026zM36.994 15.359l-.143-.008-.359.016c.147.003.309.002.502-.008zM33.871 15.762c-.283-.02-.5-.042-.566-.069-.061-.01-.094-.023-.102-.035a2.527 2.527 0 0 1-.461.007c-.363.073.393.09.709.14l.693-.005a2.42 2.42 0 0 0-.273-.038zM34.613 15.815c.09.006.17.016.24.028l.381.013-.658-.05.037.009zM30.242 15.347l-.247.017a.075.075 0 0 1-.029.01l.192-.008.084-.019zM33.398 15.507a5.355 5.355 0 0 0-.605.023c.146.012.328.011.605-.023z"/><path fill="#A1F6FF" d="M36.799 15.571h.449l-1.672-.087c-.072-.081.404-.13.865-.111l.053-.003c-.361-.006-.602-.038-.816-.013-.018.021-.076.042-.26.059l-.107.044a.746.746 0 0 0-.123-.029l-.982.019c-.254-.024-.281-.045-.211-.06-.055-.008-.08-.021-.066-.04-.271-.013-.459-.022-.674.055l.113-.031c.613-.011-.25.091.281.109 1.127-.092.91.197 2.107.024-.383.181-1.354.027-2.256.005-.479.153-1.642-.073-2.536-.011l-.139.068.341.015c-.349.04-.463.065-.455.085a.31.31 0 0 0 .07.008h-.06c.038.016.151.029.285.04l.382-.045c-.138-.019-.217-.042-.14-.069.483-.076 1.021-.038 1.494-.008l.396.018-.012.001.215.003-.01.004.293-.027.271-.034.17.026c.527.009 1.051.068 1.449.061-.105.074-.393.067-.699.054l.486.074.271-.018c-.24-.041-.182-.091.545-.17l.652.101c.264-.028.362-.062.03-.117z"/><path fill="#A1F6FF" d="M31.505 15.411c-.056.022-.094.043.121.052l.064-.003.316-.075c-.125-.007-.178-.027-.082-.076l-.102.001c.011.033.227.083-.317.101zM31.022 15.458l.28-.076a2.678 2.678 0 0 0-.361-.032l-.144.015c.234.014.27.051.225.093zM32.783 15.53l.348-.094c-.119-.034-.318-.044-.525-.046l-.523.058c.315.007.46.061.7.082z"/><path fill="#A1F6FF" d="M33.129 15.436l-.348.094h.012c.189-.021.393-.026.604-.023l.166-.021-.066.024c.902.021 1.875.175 2.258-.004-1.199.171-.98-.117-2.107-.026-.531-.019.33-.12-.279-.108l-.113.031-.1.039-.027-.006zM26.324 15.75c.318.026.533.069.455.115l.147-.101-.386-.021-.216.007zM25.134 15.64l-.55.102c.233-.055 1.05-.046 1.623-.001l.091-.017c-.441-.043-.638-.098-1.164-.084z"/><path fill="#A1F6FF" d="M26.298 15.723l-.091.017.117.01.216-.006zM28.217 15.764l.242.023a1.496 1.496 0 0 0-.242-.023zM27.82 15.826l.099-.029a13.412 13.412 0 0 0-.886-.05l-.107.017c.241.074.873.091 1.429.111a.307.307 0 0 0-.088-.029l-.447-.02zM28.217 15.764a9.192 9.192 0 0 0-.7-.036l.497.051a1.57 1.57 0 0 1 .203-.015zM28.457 15.853l-.036.024c.586.021 1.068.045.879.136.317-.055.266-.09.044-.113l-.415-.028-.472-.019z"/><path fill="#A1F6FF" d="M27.033 15.747c.313.009.635.026.886.05l.094-.018-.497-.051a4.285 4.285 0 0 0-.483.019zM28.266 15.846c.042.008.069.02.089.029l.065.001.035-.024-.189-.006zM29.344 15.9l-.415-.028.415.028z"/><path fill="#FFF" d="M32.081 15.447a4.01 4.01 0 0 0-.389.012l-.066.015.455-.027zM31.352 15.417l.153-.003c.071-.027.178-.054-.135-.048l-.068.019c.054.007.083.018.05.032zM30.829 15.51l.132-.01a.337.337 0 0 0 .061-.041l-.193.051z"/><path fill="#FFF" d="M32.793 15.53l-.02.001.008-.001c-.238-.021-.383-.075-.703-.083l-.455.027.065-.015-.063.003c-.215-.008-.178-.029-.122-.052l-.153.004c.033-.012.004-.023-.05-.034l-.28.076a.395.395 0 0 1-.061.042c.894-.062 2.058.164 2.536.01l-.1-.003a2.772 2.772 0 0 1-.602.025z"/><path fill="#FFF" d="M33.398 15.507l.098.003.066-.024zM30.242 15.347l2.541.183-.008.001z"/><path fill="#A1F6FF" d="M41.332 15.716v-.002h-.02zM41.35 15.517c-.412.106 1.074.096.912.157l.268-.005c-.384-.103-.745-.137-1.18-.152zM39.275 15.447l1.229.167.789-.098c-.51-.017-1.129-.013-2.018-.069z"/><path fill="#A1F6FF" d="M41.35 15.517l-.057-.001-.791.098.811.101h.02c-.07-.088.475-.042.934-.041.157-.061-1.329-.051-.917-.157zM43.533 15.402l.73.027-.988-.126c1.312.151-1.277.076-.775.184.311-.066 1.701.06 1.033-.085z"/><path fill="none" d="M36.521 15.849c.416.056.334.041.346.013l-.346-.013zM37.479 15.807c-.32-.07-.693.013-1.08.019l.473.028c.024-.021.132-.045.607-.047z"/><path fill="#A1F6FF" d="M36.521 15.849l.346.013.004-.008-.473-.028-.043.001zM46.816 15.477l.182.008-.182-.013zM46.359 15.442l.457.035v-.005z"/><path fill="#A1F6FF" d="M46.998 15.485l.824.054c-.25-.054.221-.129.295-.156a4.33 4.33 0 0 1-1.119.102zM32.527 39.721c-.078.012-.117.022-.126.032l.63.069-.504-.101z"/><path fill="#A1F6FF" d="M33.711 40.064h-.316l.561.009c-.289-.171-.334-.142-.92-.251l-.628-.069c-.054.081 1.424.185 1.303.311z"/><path fill="none" d="M38.746 39.836l.451.016-.082-.013a3.237 3.237 0 0 0-.369-.003z"/><path fill="#A1F6FF" d="M39.115 39.839l.082.013h.033zM33.307 40.064l.005.002.083-.002z"/><path fill="none" d="M10.783 32.59c.006-.246.033-.588.043-.638-.029.088-.04.331-.043.638z"/><path fill="#A1F6FF" d="M23.994 39.721l.044.002.024-.077zM50.842 31.817c-.064 1.246-.072 2.056-.094 3.033a.279.279 0 0 0 .092.09l.031-3.181-.029.058zM51.707 19.324c-.102.456-.027.793-.078 1.241.24 3.756.254 8.21.367 12.376.113-.373.205-.701.238-.863l.006-.039c-.039.034-.078.037-.123-.021-.283-4.787-.195-10.678-.496-15.38.045-.456-.021-.766.07-1.303-.021.053-.041-.027-.061-.173-.941.087-3.223.142-1.41.282l.574.05c.197-.015.393-.04.574-.072l.025.089a.45.45 0 0 1-.031-.083c-.133.027-.297.064-.324.099l.191.032c-.086.686-.201.978-.285 1.718a12.19 12.19 0 0 0-.107 2.144l.023 2.121c.141-1.216.396-2.308.469-3.825.189-2.401.239 1.804.378 1.607z"/><path fill="#A1F6FF" d="M51.4 15.509l-.025-.089a5.84 5.84 0 0 1-.572.072l.24.032c.027-.034.191-.072.326-.099a.591.591 0 0 0 .031.084zM51.629 20.565c.051-.448-.021-.787.078-1.241-.141.197-.189-4.008-.371-1.609-.074 1.519-.328 2.608-.471 3.825.027 1.505.062 3.036.045 4.069l-.025-.077c.141 2.392-.111 3.963.104 6.022l-.113.207-.027 3.181c.354.216.854-1.051 1.15-2-.116-4.167-.128-8.621-.37-12.377z"/><path fill="#FFF" d="M15.499 39.609l.088-.002c-.381-.019-.675-.039-.241-.088-.63.037-.369.049-.735.121l.302-.016.586-.015z"/><path fill="#FFF" d="M14.609 39.639l-.008.002.31-.013zM15.499 39.609l.092-.002h-.004z"/><path fill="#A1F6FF" d="M11.162 29.847c.034-.344.067-.698.115-.827-.089-.854-.148-.811-.234-1.056l-.06.825.126-.584c-.007.4-.035.77-.062 1.123.039.285.078.451.115.519zM10.996 30.558c.033.095.062.054.086-.059l-.086-.134v.193zM10.913 26.999c-.056-.097-.122-.26-.169.058l.162.248-.017-.109.024-.197zM10.986 24.07c-.029.036-.06.171-.092.466.076.526.132.682.179.793l-.01-.268c.054.628.092.267.138-.108-.071-.412-.131-.868-.194-.897l-.035.319.014-.305z"/><path fill="#A1F6FF" d="M11.128 25.465c.051.146.101.403.172 1.26-.09.42-.181.434-.274-.357l-.005.318c.071.07.141.627.224 1.084.071-.399.07-1.755.127-2.182-.005-.005-.01-.018-.017-.027-.056.947-.177-.606-.227-.096z"/><path fill="#A1F6FF" d="M11.274 25.323l-.037-.166-.005.231zM10.97 24.375l.035-.319c-.006-.002-.014.004-.02.013l-.015.306z"/><path fill="#A1F6FF" d="M11.062 25.062l.01.268.054.135c.052-.51.171 1.044.228.095a1.031 1.031 0 0 1-.08-.237l-.042.062.005-.229-.037-.203c-.045.375-.084.737-.138.109zM11.019 26.686c-.016.416-.056.395-.106.313l-.025.197.017.109.167.262-.029.397c.084.245.143.202.234 1.056a.103.103 0 0 1 .018-.038l-.112-1.109c.026.03.046-.012.061-.103-.084-.458-.154-1.016-.225-1.084zM11.162 29.847c-.037-.068-.076-.234-.113-.52-.027.361-.052.701-.053 1.037l.086.136c.03-.139.056-.392.08-.653zM17.611 39.635l.337-.017-.669-.056-.812.021c.285.032.645.053 1.144.052zM22.365 41.445l.318-.02-.254-.035c.004.03-.019.048-.064.055zM29.301 39.676l-.48.033.251.038.202.013zM29.756 39.684a3.026 3.026 0 0 0-.303-.014l.303.014zM25.826 39.654c-.025-.021-.032-.039-.001-.066.547-.016.689.032.901.078-.079-.023-.091-.051-.096-.079-.729-.032-1.043.003-1.268.048l.464.019z"/><path fill="#A1F6FF" d="M11.34 29.661c.069.359-.084.568-.013 1.408.055-.25.099-1.062.134-1.632-.027-.075-.046.01-.082.174.06-1.671.18.686.276-.629l.005.531v.021c-.015.349-.038.645.016.893.094 3.694.461 4.793.396 8.462-.11-1.539-.271-2.925-.332-5.271-.059-.273-.033-.595-.018-.974a6.767 6.767 0 0 0-.002-.667l-.004.067c-.106 1.431-.237-1.139-.302.683.039-.181.059-.272.089-.188-.039.618-.086 1.505-.146 1.777-.081-.952.107-1.158.006-1.582-.156 1.604-.285 1.537-.513 1.924.031.521.052.871.101.859-.025.799-.064.979-.154.729-.021.027-.027-.036-.028-.145-.005 1.008.041 2.522-.166 2.369.02.644.02 1.529.011 2.247l.33.005-.433.101-.011-.031.116-3.08c.032-.86.049-1.75.019-2.832.189.144.146-1.248.151-2.172.001.095.009.158.027.129.082.231.119.063.145-.666-.047.006-.064-.312-.093-.791l.178-.28-.054.727.137-.636c-.018.968-.145 1.778-.124 2.565.15.414.186-1.522.323-1.719l-.121-1.208c.081.104.111-.509.136-1.168zm-.571 6.314v.135-.135c.004-.336.015-.599.047-.689-.013.051-.041.42-.047.689zM39.416 40.038c.164.039-.008.117.268.171.266-.05.51-.109.699-.193l-.316.006.049.026-.611-.008h-.088l-.006-.002.092.002.35-.004c.006-.009.006-.015 0-.022-.551-.021-.244-.134-1.105-.18l-.973-.031.254.055c1.135.037.291.176 1.387.18zM24.038 39.723l-.013.041.076-.037zM35.713 39.955l-.299-.066-.439.008c-.051.021-.078.03-.098.049.152.014.402.019.836.009zM19.972 41.391h.438c-.802-.08.398-.25-1.183-.259l-.753.222-.636-.137c.348-.021.521-.029.786-.021l-.272-.016h-.001c-.244-.008-.888-.016-.958.062-1.178-.028.046-.148-.705-.202l-.543-.021-.215.129c-.342-.121-1.542-.073-2.125-.195l-.068.07c-1.16-.168.353-.027.72-.153l-1.596-.075c.342.117.027.299 1.377.339a6.01 6.01 0 0 0-.722.021l.585.127.693-.199c1.45.007.348.163 1.083.234l-.404.002c.965-.014.905.106 1.396.17.13-.188.881-.027.859-.166l.66.1-.161.012c.433.185 1.14.071 1.951.113l.944-.029c-.228-.078-.419-.139-1.15-.128zM21.708 41.477l.35-.017c-.118 0-.245.002-.35.017z"/><path fill="#A1F6FF" d="M15.808 40.893c-.089.068.067.104.336.121l.004-.002.539.024.772.004c-.298-.149 0-.347-2.071-.306l-.415.147-.385-.015.351.146.869-.119zM39.502 40.038l.613.008-.051-.026-.217-.006c.004.008.008.016 0 .022l-.345.002zM39.416 40.038h.086l-.09-.002zM10.769 35.975c.006-.269.035-.638.047-.689-.034.091-.044.355-.047.689zM11.04 31.104l-.053.726.138-.636c-.019.968-.146 1.779-.124 2.566.149.413.185-1.523.323-1.72l-.121-1.208c.081.1.112-.512.136-1.171l-.007-.041c-.096.995-.183 1.287-.292 1.484zM28.463 39.998l.426.123c.623-.088-.071-.098-.426-.123z"/><path fill="#A1F6FF" d="M12.071 38.889l-.004.231-.005.03-.017.074a.61.61 0 0 1-.045.111c.002.057-.018.146.056.223.064.039.041.073.268.098.25.025.566.039.985.039l1.292-.057-.434.062 1.556.159-.118-.244.726.025c-.073-.019-.433-.023-.741-.037l.876-.021c.285.029.645.057 1.144.051l.337-.016c.555.041 1.033.085 1.231.197l.189-.092.875.088-.066-.131c1.204.07 2.3.021 3.828.125l.017-.048.077-.036c.811.053.952-.025 1.26-.088l.464.02c.142.109 1.115.128 1.818.242.154-.056.625-.133-.021-.139 2.407-.05.287.284 2.291.233l-.417-.088.646.008c-.4-.016-.702-.096-1.071-.159l.202.013.027-.082.152-.004.303.014c.327.033.47.127 1.655.104-.39.091-.205.221 1 .217l-.5-.104c1.238.026.356.167 1.4.172.234.056-.283.196 1.154.204l.404-.067.096.021.98.119-1.043-.146c.461-.104-.205-.132-.029-.25.15.019.402.021.836.013l-.299-.07c1.408-.002 1.932.223 3.611.186l-.998-.215c1.139.04.293.18 1.391.186.164.035-.01.118.27.172l-.572.088-.666-.053c.031-.009.023-.01-.014-.004l-1.098-.131.318-.029c-.484-.019-.947.104-2.172.018.105.154 1.123-.021 1.229.133l.311-.064c.809 0 .586.127.506.107.312.025.586.012.754-.007.158.024.242.056.125.077h.326l-.771.104c.027-.029.027-.064-.166-.089l-.348.021c.246.033.248.076.242.112l-.201.037c-1.451-.005-1.609.004-3.471-.046.277.236-2.676.389-4.264.527l-.979-.08c-1.661.167-3.719.371-6.094.498l-.254-.036c.005.026-.019.044-.062.056l-.308.014c-.119 0-.244.002-.35.021l-.586.021c-.229-.061-.419-.121-1.152-.11h.438c-.803-.08.398-.25-1.183-.258l-.753.222-.636-.141c.348-.021.521-.025.786-.021l-.272-.015c.219-.08.067-.112-.252-.131l.054-.055c.636.137 1.946.084 2.316.213l.236-.138.594.021c.819.061-.519.188.767.224.073-.079.778-.069 1.044-.062.51-.187-.815-.146-1.812-.157l-.588-.024-.006.004c-.292-.022-.461-.06-.366-.135l-.944.131-.469-.197c-.219.183-1.963.025-1.052.17l-.41-.006c-.299-.146 0-.345-2.071-.305l-.412.143-.385-.018-.079-.045a.148.148 0 0 1-.056.029l-1.597-.072c-.194-.062-.521-.104-1.798-.087l-.116.024-.329-.002c.008-.721.008-1.605-.011-2.248.206.156.161-1.359.165-2.368.001.104.009.174.028.143.09.25.13.069.157-.727-.049.009-.069-.341-.1-.862.228-.387.356-.32.513-1.924.101.42-.087.627-.006 1.582.059-.273.107-1.159.146-1.779-.03-.083-.051.008-.089.188.064-1.822.196.748.301-.684l.005.577v.022c-.015.379-.041.701.018.975.062 2.341.223 3.726.332 5.265zm24.454 1.42c.461.025.934.057 1.109.123-.753-.006-.773-.078-1.109-.123l-.605-.025c.295-.004.471.009.605.025zm-4.138.043c.562-.012 1.214.041.988.125l.316-.117c.223.016.541.021.867.066l-1.166-.156c-.018.028.006.045.051.062a22.467 22.467 0 0 1-2.059-.196c.093.059 1.315.149 1.003.216zm-.881.026l.321-.021c.492.062-.375.184.598.217-1.208.007-.342-.115-.919-.196zm-3.209-.431l.166.048c.354.026 1.049.036.426.125l-.426-.125c-.137-.011-.23-.022-.166-.048zm.683.239l1.152.159-.901-.104-.251-.055zm-1.192.091l1.069.143c-.579-.08-1.133-.025-1.069-.143zm-1.742-.402c.69-.089-.105-.119-.809-.127-.25.088.627.088.809.127zm-5.742-.075c.646.009 1.375.034.745.118-.17-.036-.975-.036-.745-.118z"/><path fill="#A1F6FF" d="M37.328 40.113l-.383.035c1.219-.028.227.177 1.285.105-.31-.044-.82-.098-.902-.14zM37.635 40.428c-.178-.068-.648-.096-1.109-.119.335.045.355.117 1.109.119zM35.918 40.277l.604.031a5.704 5.704 0 0 0-.604-.031zM28.463 39.998l-.166-.051c-.064.026.029.037.166.051z"/><path fill="#A1F6FF" d="M37.795 40.357l-.346.021c.242.033.244.077.24.114l.27-.042c.029-.035.029-.068-.164-.093zM38.445 40.245l-.16.022c.154.027.24.058.123.082h.324l.379-.051-.666-.053zM38.23 40.26l.178-.015.025-.003-1.098-.129h-.008c.083.042.593.096.903.147zM22.065 41.314c.073-.082.778-.071 1.044-.062.511-.186-.815-.146-1.812-.16.82.058-.519.191.768.222zM18.099 41.051l.055-.058c.636.139 1.945.086 2.315.214l.236-.135c-.293-.021-.461-.059-.366-.133l-.945.133-.469-.196c-.219.179-1.963.026-1.053.169l.227.006z"/><path fill="#A1F6FF" d="M21.297 41.092l-.588-.024-.006.004zM34.967 40.225l.984.117-1.043-.149-.037.011zM33.693 40.359c.221.013.541.021.867.063l-1.166-.155c-.016.027.006.047.051.062l.309.009-.061.021zM25.237 39.748c-.25.088.627.088.809.127.69-.092-.106-.119-.809-.127zM19.37 39.729l.875.089-.066-.132-.626-.047zM11.722 32.645a6.75 6.75 0 0 0-.001-.667l-.005.066.005.577.001.024zM36.945 40.148l.383-.035-.01-.002.02.002.32-.027c-.484-.02-.947.102-2.172.016.107.152 1.125-.021 1.229.133l.312-.065c.807 0 .584.129.502.106.316.026.588.016.756-.006l-.055-.01c-1.058.065-.066-.14-1.285-.112zM38.432 40.242l.014.003c.031-.006.025-.007-.014-.003z"/><path fill="#A1F6FF" d="M37.328 40.113h.008l-.018-.002zM38.432 40.242l-.024.003-.178.015.055.008.16-.023zM32.424 40.579c-.972-.035-.105-.156-.598-.22l-.321.021c.578.079-.288.201.919.199zM32.387 40.352c.562-.012 1.214.041.988.125l.316-.117a2.467 2.467 0 0 1-.248-.025 22.874 22.874 0 0 1-2.059-.195c.093.055 1.315.145 1.003.212z"/><path fill="#A1F6FF" d="M33.693 40.359l.061-.021-.309-.011c.051.017.137.027.248.032zM17.393 41.234c.07-.073.714-.064.958-.055h.001c-.536-.027-.766-.082-.89-.145l-.773-.006c.75.059-.475.179.704.206z"/><path fill="#A1F6FF" d="M18.351 41.18c.219-.08.067-.115-.252-.132l-.021.026-.207-.031-.409-.005c.123.062.353.114.889.142z"/><path fill="#A1F6FF" d="M18.099 41.051l-.228-.008.206.031zM13.734 41.018l.069-.074c.584.127 1.784.078 2.125.195l.215-.127c-.269-.021-.425-.053-.336-.121l-.867.121-.351-.146-.135-.007c-.367.127-1.88-.011-.72.159z"/><path fill="#A1F6FF" d="M14.51 40.833a.143.143 0 0 1-.057.026l.135.006-.078-.032zM16.148 41.012l-.004.002.544.018zM28.98 40.186l.25.052.902.107zM28.857 40.42l-1.069-.141c-.064.116.49.061 1.069.141zM20.304 39.8c-.229.082.577.082.745.118.628-.084-.1-.109-.745-.118zM15.499 39.609l-.588.019.588-.019zM14.911 39.628l-.31.013-.434.062 1.556.161-.119-.246.727.026c-.074-.02-.433-.024-.741-.037l-.093.006-.586.015zM11.659 29.533a6.217 6.217 0 0 0 0-.611l-.004.06.004.531v.02z"/><g><path fill="#BFD669" d="M10.737 34.619s7.084-4.616 14.759-2.952c7.674 1.665 26.459.59 26.459.59V46.57H10.737V34.619z"/><path fill="#4B8779" d="M51.891 30.739c-.334-.33-.844-.554-1.699-.554-3.191 0-2.213 4.224-6.438 4.224-4.223 0-4.402-3.399-6.076-3.399-1.676 0-2.268 2.163-3.555 2.163s-1.494-3.502-4.43-3.502-3.915 3.915-5.254 3.915c-1.339 0-2.987-4.533-5.717-4.172-2.73.36-2.679 3.966-5.202 3.966-1.068 0-2.052-.229-2.833-.496v13.61h41.204V30.739z"/><path fill="#48A843" d="M51.891 35.541c-.502.594-1.135 1.031-1.906 1.031-2.418 0-4.221-4.688-7.414-4.688s-3.658 4.068-7.934 4.068c-4.274 0-6.025-3.656-9.219-3.656-3.193 0-4.43 2.627-6.851 2.163-2.421-.463-3.708-2.987-6.387-2.987-.521 0-1.023.114-1.494.296v14.724h41.203V35.541h.002z"/><path fill="#69B737" d="M50.502 40.246c-1.389-.206-4.996-5.512-11.178-5.82s-8.602 5.614-12.774 5.46c-4.172-.155-5.717-3.761-10.25-5.151-2.851-.873-4.663-.566-5.614-.219v11.978h41.218v-6.632c-.258.255-.695.49-1.402.384"/><path fill="#A1B25B" d="M21.935 36.792s.02-3.418-1.144-4.241M22.635 36.309s-1.141-1.123 1.072-3.982M22.483 36.843s-.155-3.308-.912-4.83M28.054 38.675s.02-3.419-1.143-4.241M28.753 38.191s-1.141-1.125 1.072-3.986M28.601 38.725s-.156-3.308-.912-4.83M46.916 37.331s.02-3.419-1.145-4.24M47.615 36.848s-1.139-1.121 1.072-3.984M47.465 37.382s-.156-3.309-.912-4.831"/><path fill="#FFF" d="M22.062 20.651c.146-.227.228-.472.226-.725-.009-1.18-1.734-2.122-3.854-2.106-1.562.012-2.898.541-3.49 1.288-.998.102-1.755.583-1.75 1.162.004.644.955 1.161 2.122 1.153.102-.001.201-.01.3-.02.706.428 1.719.693 2.85.686.133-.001.263-.005.39-.014.337.401 1.072.678 1.927.672 1.167-.008 2.111-.539 2.105-1.184-.003-.373-.33-.701-.826-.912z"/></g></g></svg>