<?xml version="1.0" encoding="UTF-8" standalone="no"?>
<svg
   xmlns:dc="http://purl.org/dc/elements/1.1/"
   xmlns:cc="http://creativecommons.org/ns#"
   xmlns:rdf="http://www.w3.org/1999/02/22-rdf-syntax-ns#"
   xmlns:svg="http://www.w3.org/2000/svg"
   xmlns="http://www.w3.org/2000/svg"
   id="svg16"
   version="1.1"
   viewBox="-0.5 0 58.171749 57"
   height="57"
   width="58.171749">
  <metadata
     id="metadata22">
    <rdf:RDF>
      <cc:Work
         rdf:about="">
        <dc:format>image/svg+xml</dc:format>
        <dc:type
           rdf:resource="http://purl.org/dc/dcmitype/StillImage" />
        <dc:title></dc:title>
      </cc:Work>
    </rdf:RDF>
  </metadata>
  <defs
     id="defs20" />
  <path
     style="opacity:0.3;fill:#333333"
     id="path2"
     d="m 15.266691,52 c -1.792,0 -3.646,-1.183 -3.646,-3.16 V 32.357 h -1.192 c -0.9750001,0 -1.8440001,-0.419 -2.3840001,-1.149 -0.543,-0.736 -0.688,-1.697 -0.399,-2.638 L 11.416691,16.293 c 0.441,-1.435 1.829,-2.552 3.347,-2.759 V 11.31 c 0,-2.287 1.578,-3.31 3.143,-3.31 h 6.286 c 1.564,0 3.143,1.023 3.143,3.31 v 2.19 h 17.568 c 1.701,0 3.355,1.211 3.85,2.816 l 3.771,12.227 c 0.292,0.947 0.145,1.916 -0.404,2.66 -0.542,0.733 -1.408,1.154 -2.378,1.154 h -1.192 V 48.84 c 0,1.978 -1.854,3.16 -3.646,3.16 z" />
  <path
     style="fill:#ffffff"
     id="path4"
     d="m 12.266691,49 c -1.792,0 -3.6460001,-1.183 -3.6460001,-3.16 V 29.357 h -1.192 c -0.975,0 -1.844,-0.42 -2.384,-1.15 C 4.5016905,27.472 4.3566905,26.511 4.6456905,25.57 L 8.4166909,13.293 c 0.441,-1.435 1.8290001,-2.552 3.3470001,-2.759 V 8.31 c 0,-2.287 1.578,-3.31 3.143,-3.31 h 6.286 c 1.564,0 3.143,1.023 3.143,3.31 v 2.19 h 17.568 c 1.701,0 3.355,1.211 3.85,2.816 l 3.771,12.227 c 0.291,0.947 0.144,1.916 -0.405,2.66 -0.542,0.733 -1.408,1.154 -2.378,1.154 h -1.191 V 45.84 c 0,1.978 -1.854,3.16 -3.646,3.16 z" />
  <path
     style="fill:#966020"
     id="path6"
     d="m 48.021691,26.006 -3.772,-12.228 c -0.293,-0.954 -1.35,-1.707 -2.347,-1.707 h -19.14 V 8.31 c 0,-1.569 -1.099,-1.739 -1.571,-1.739 h -6.286 c -0.473,0 -1.571,0.17 -1.571,1.739 v 3.761 h -1.067 c -0.998,0 -2.055,0.73 -2.3480001,1.684 l -3.772,12.276 c -0.293,0.954 0.283,1.754 1.281,1.754 H 10.192691 V 45.84 c 0,0.997 1.077,1.589 2.075,1.589 h 29.636 c 0.997,0 2.074,-0.592 2.074,-1.589 V 29.51 27.785 h 2.764 c 0.996,0 1.573,-0.825 1.28,-1.779 z" />
  <path
     style="fill:#f9a737"
     id="path8"
     d="m 21.976691,8.31 c 0,-0.315 0,-0.953 -0.785,-0.953 h -6.286 c -0.785,0 -0.785,0.638 -0.785,0.953 v 10.047 h 7.856 z" />
  <path
     style="fill:#f9a737"
     id="path10"
     d="m 12.266691,46.643 c -0.61,0 -1.29,-0.33 -1.29,-0.803 V 27 H 7.4276909 c -0.222,0 -0.396,-0.068 -0.487,-0.193 -0.096,-0.129 -0.11,-0.322 -0.042,-0.544 L 10.669691,13.986 c 0.188,-0.611 0.919,-1.129 1.597,-1.129 h 29.636 c 0.662,0 1.408,0.538 1.596,1.151 l 3.772,12.23 c 0.07,0.227 0.053,0.428 -0.049,0.564 -0.095,0.128 -0.266,0.198 -0.482,0.198 h -3.549 v 18.84 c 0,0.473 -0.68,0.803 -1.289,0.803 z" />
  <path
     style="fill:#966020"
     id="path12"
     d="m 32.224691,37.675 c 0,-2.835 -2.307,-5.141 -5.141,-5.141 a 5.147,5.147 0 0 0 -5.108,5.712 v 9.183 h 10.215 v -9.183 a 5.12,5.12 0 0 0 0.034,-0.571 z" />
  <path
     style="fill:#ffffff"
     id="path14"
     d="m 22.762691,46.643 v -8.439 l -0.005,-0.043 a 4.325,4.325 0 0 1 -0.029,-0.485 c 0,-2.401 1.954,-4.355 4.355,-4.355 2.401,0 4.355,1.954 4.355,4.355 0,0.164 -0.012,0.325 -0.029,0.485 l -0.005,0.086 v 8.396 z" />
</svg>
