<?xml version="1.0" encoding="utf-8"?>
<!-- Generator: Adobe Illustrator 18.1.1, SVG Export Plug-In . SVG Version: 6.00 Build 0)  -->
<!DOCTYPE svg PUBLIC "-//W3C//DTD SVG 1.1//EN" "http://www.w3.org/Graphics/SVG/1.1/DTD/svg11.dtd">
<svg version="1.1" id="Layer_1" xmlns="http://www.w3.org/2000/svg" xmlns:xlink="http://www.w3.org/1999/xlink" x="0px" y="0px"
	 width="56.1px" height="50.3px" viewBox="0 0 56.1 50.3" enable-background="new 0 0 56.1 50.3" xml:space="preserve">
<g>
	<path opacity="0.5" fill="#757575" enable-background="new    " d="M26.5,50.3c-1.8-0.1-3.4-1.1-4.3-2.7l-0.4-0.7l-0.6,0.2
		c-2,0.7-4.3,0.1-5.7-1.6c-0.9-1-1.3-2.3-1.2-3.6c-0.2,0-0.3,0.1-0.5,0.1c-0.6,0.1-1.2,0.1-1.8,0.1c-2.9-0.2-5.5-1.9-6.8-4.5
		C2.1,31.1,1,23.9,2,16.8c0.5-3.5,3.2-6.3,6.7-6.8c0.6-0.1,1.2-0.1,1.8-0.1c4,0.3,7.9,1.2,11.6,2.7c1.5-1,3.1-1.6,4.9-1.9
		c1.8-0.3,3.5-0.2,5.2,0.3c3-2.6,6.4-4.7,10.1-6.2c0.6-0.2,1.1-0.4,1.7-0.5c0.6-0.1,1.2-0.1,1.7-0.1c2.9,0.2,5.5,1.9,6.8,4.5
		c3.2,6.5,4.3,13.7,3.3,20.8c-0.5,3.5-3.2,6.3-6.7,6.8c-0.2,0-0.3,0-0.5,0.1c0.5,1.2,0.5,2.6-0.1,3.8c-0.8,2-2.8,3.3-4.9,3.2H43
		l-0.1,0.8c-0.4,2.2-2.1,3.9-4.3,4.2c-1.9,0.3-3.8-0.5-5-2c-0.3-0.4-0.7-1-1.1-1.6c-0.2,0.7-0.4,1.3-0.6,1.8
		c-0.6,1.8-2.2,3.1-4.1,3.4C27.3,50.3,26.9,50.4,26.5,50.3 M24.6,27.1l-1,8.3c-0.1,0.9-0.3,1.8-0.4,2.8l2.3-0.8l0.5,0.9
		c0.3-1.6,0.5-3.4,0.6-5.2l0.3-14.2c-0.5,0.3-1,0.6-1.5,1.1l-2,2.1l-2.6-1.3c-3.4-1.7-7-2.7-10.8-3c0,0,0,0-0.1,0s-0.2,0.1-0.3,0.3
		c-0.8,5.6,0.1,11.2,2.6,16.3c0.1,0.1,0.2,0.2,0.2,0.2h0.1c1.8-0.7,3.4-1.6,5-2.6L24.6,27.1z M29.5,18.4l4.7,13.5
		c0.6,1.7,1.4,3.3,2.1,4.8l0.2-1l2.5,0.1c-0.5-0.9-0.9-1.7-1.3-2.5l-3.4-7.6l8,2.2c1.8,0.5,3.7,0.8,5.6,0.9c0.2,0,0.3-0.1,0.3-0.3
		c0.8-5.6-0.1-11.2-2.6-16.3c-0.1-0.1-0.2-0.2-0.2-0.2c-0.1,0-0.1,0-0.2,0c-3.5,1.4-6.7,3.5-9.4,6.2l-2,2.1l-2.6-1.4
		C30.7,18.6,30.1,18.4,29.5,18.4"/>
	<path fill="#FFFFFF" d="M50.5,24.8c-0.3,1.8-1.7,3.3-3.5,3.5c-0.3,0-0.6,0.1-0.9,0c-2.2-0.1-4.3-0.5-6.3-1.1c1,2.1,2.3,4.3,3.6,6
		c0.3,0.4,0.3,0.9,0.2,1.3c-0.2,0.5-0.7,0.8-1.3,0.8l-3.9-0.1l-0.7,4.1c-0.1,0.6-0.5,1-1.1,1.1c-0.5,0.1-1-0.1-1.3-0.5
		c-1.6-2.1-4.4-6.3-6.1-11.1c-0.1,5.1-1.5,9.9-2.4,12.5c-0.2,0.5-0.6,0.8-1.1,0.9c-0.6,0.1-1.1-0.2-1.4-0.7l-2-3.7l-3.7,1.3
		c-0.5,0.2-1.1,0-1.5-0.4c-0.3-0.4-0.4-0.8-0.2-1.3c0.7-2,1.3-4.5,1.5-6.8c-1.8,1.2-3.7,2.2-5.7,3c-0.3,0.1-0.6,0.2-0.9,0.3
		c-1.8,0.3-3.6-0.6-4.4-2.3c-2.9-5.8-3.9-12.2-3-18.6C4.6,11.2,6,9.8,7.9,9.5c0.3,0,0.6-0.1,0.9,0c4.3,0.3,8.5,1.5,12.3,3.4
		c1.3-1.3,3-2.3,4.9-2.6c2-0.3,3.9,0.1,5.5,0.9c3-3,6.6-5.4,10.7-7.1c0.3-0.1,0.6-0.2,0.9-0.2c1.8-0.3,3.6,0.6,4.4,2.3
		C50.4,12,51.4,18.4,50.5,24.8"/>
	<path fill="#FFFFFF" d="M25,46.1c-1.8-0.1-3.4-1.1-4.3-2.7l-0.4-0.7l-0.6,0.2c-2,0.7-4.3,0.1-5.7-1.6c-0.9-1-1.3-2.3-1.2-3.6
		c-0.2,0-0.3,0.1-0.5,0.1c-0.6,0.1-1.2,0.1-1.8,0.1C7.6,37.7,5,36,3.7,33.4c-3.2-6.5-4.3-13.7-3.3-20.8C1,9,3.7,6.2,7.3,5.7
		C7.8,5.6,8.4,5.5,9,5.6c4,0.3,7.9,1.2,11.6,2.7c1.5-1,3.1-1.6,4.9-1.9c1.8-0.3,3.5-0.2,5.2,0.3c3-2.6,6.4-4.7,10.1-6.2
		c0.6-0.2,1.1-0.4,1.7-0.5c0.6,0,1.2,0,1.8,0c2.9,0.2,5.5,1.9,6.8,4.5c3.2,6.5,4.3,13.7,3.3,20.8c-0.5,3.5-3.2,6.3-6.7,6.8
		c-0.2,0-0.3,0-0.5,0.1c0.5,1.2,0.5,2.6-0.1,3.8c-0.8,2-2.8,3.3-4.9,3.2h-0.6L41.5,40c-0.4,2.2-2.1,3.9-4.3,4.2
		c-1.9,0.3-3.8-0.5-5-2c-0.3-0.4-0.7-1-1.1-1.6c-0.2,0.7-0.4,1.3-0.6,1.8c-0.6,1.8-2.2,3.1-4.1,3.4C25.8,46.1,25.4,46.1,25,46.1
		 M23.1,22.8l-1,8.3c-0.1,0.9-0.3,1.8-0.4,2.8l2.3-0.8l0.5,0.9c0.3-1.6,0.5-3.4,0.6-5.2l0.3-14.2c-0.5,0.3-1,0.6-1.5,1.1l-2,2.1
		l-2.6-1.3c-3.4-1.7-7-2.7-10.8-3c0,0,0,0-0.1,0s-0.2,0.1-0.3,0.3C7.3,19.4,8.2,25,10.7,30.1C10.8,30,11,30,11,30h0.1
		c1.8-0.7,3.4-1.6,5-2.6L23.1,22.8z M28,14.1l4.7,13.5c0.6,1.7,1.4,3.3,2.1,4.8l0.2-1l2.5,0.1c-0.5-0.9-0.9-1.7-1.3-2.5l-3.4-7.6
		l8,2.2c1.8,0.5,3.7,0.8,5.6,0.9c0.2,0,0.3-0.1,0.3-0.3c0.8-5.6-0.1-11.2-2.6-16.3c-0.1-0.1-0.2-0.2-0.2-0.2c-0.1,0-0.1,0-0.2,0
		c-3.5,1.4-6.7,3.5-9.4,6.2l-2,2.1l-2.6-1.4C29.2,14.4,28.6,14.2,28,14.1"/>
	<path fill="#00AEEF" d="M24.5,41.3l-2.1-4l-4.1,1.4c-0.7,0.2-1.4-0.4-1.2-1.1c1.4-4.3,2.6-10.6,0.8-14l8.6-4.5
		c4,7.5,1.1,17.8-0.4,22.1C25.9,41.9,24.9,42,24.5,41.3"/>
	<path fill="#0C6472" d="M25.5,42.2c-0.6,0.1-1.1-0.2-1.4-0.7l-2-3.7l-3.7,1.3c-0.5,0.2-1.1,0-1.5-0.4c-0.3-0.4-0.4-0.8-0.2-1.3
		c1.4-4.3,2.5-10.5,0.8-13.7l-0.2-0.4l9.3-4.9l0.2,0.4c4.1,7.7,1.1,18.3-0.4,22.5C26.4,41.8,26,42.1,25.5,42.2 M22.6,36.8l2.3,4.3
		c0.1,0.2,0.3,0.3,0.5,0.2c0.1,0,0.3-0.1,0.4-0.3c1.4-4,4.2-14.1,0.6-21.4l-7.8,4.1c1,2.4,1.3,7.2-1,14c-0.1,0.2,0,0.4,0.1,0.5
		c0.1,0.2,0.3,0.2,0.5,0.1L22.6,36.8z"/>
	<path fill="#00AEEF" d="M37.1,39.3l0.8-4.4l4.3,0.1c0.8,0,1.2-0.8,0.8-1.4c-2.7-3.6-5.8-9.3-5.1-13.1l-9.6-1.7
		c-1.5,8.3,4.4,17.3,7.2,20.9C35.9,40.3,36.9,40.1,37.1,39.3"/>
	<path fill="#0C6472" d="M36.4,40.5L36.4,40.5c-0.5,0.1-1-0.1-1.3-0.5c-2.7-3.5-8.7-12.7-7.2-21.3l0.1-0.4l10.4,1.8l-0.1,0.4
		c-0.6,3.6,2.3,9.1,5,12.8c0.3,0.4,0.3,0.9,0.2,1.3c-0.2,0.5-0.7,0.8-1.3,0.8l-3.9-0.1l-0.7,4.1C37.4,40,37,40.4,36.4,40.5
		 M28.6,19.3c-1.2,8.1,4.6,16.8,7.2,20.2c0.2,0.2,0.4,0.2,0.4,0.2c0.2,0,0.4-0.1,0.4-0.4l0.9-4.8l4.7,0.1c0.2,0,0.4-0.1,0.5-0.3
		c0-0.1,0.1-0.3-0.1-0.5c-4.2-5.7-5.5-10.4-5.2-13L28.6,19.3z"/>
	<path fill="#00AEEF" d="M7.7,31.4L7.7,31.4c-2.8-5.7-3.8-12-2.9-18.3c0.3-1.9,2-3.3,4-3.2c6.3,0.4,12.3,2.7,17.3,6.6
		c1.5,1.2,1.9,3.4,0.8,5.1c-3.5,5.2-8.5,9.3-14.4,11.6C10.6,33.9,8.5,33.1,7.7,31.4"/>
	<path fill="#0C6472" d="M11.7,33.9c-1.8,0.3-3.6-0.6-4.4-2.3C4.5,25.8,3.5,19.4,4.4,13C4.6,11.2,6,9.8,7.9,9.5c0.3,0,0.6-0.1,0.9,0
		c6.4,0.4,12.5,2.8,17.5,6.7c1.7,1.3,2.1,3.8,0.9,5.6c-3.6,5.3-8.6,9.4-14.6,11.8C12.3,33.7,12,33.8,11.7,33.9 M8,10.4
		c-1.4,0.2-2.6,1.4-2.8,2.8c-0.9,6.2,0.1,12.4,2.8,18c0.6,1.3,2.1,2.1,3.5,1.8c0.2,0,0.5-0.1,0.7-0.2c5.8-2.3,10.7-6.3,14.2-11.5
		c1-1.4,0.7-3.4-0.7-4.5c-4.9-3.9-10.8-6.1-17-6.5C8.5,10.3,8.2,10.3,8,10.4"/>
	<path fill="#00AEEF" d="M47.2,6.4L47.2,6.4c2.8,5.7,3.8,12,2.9,18.3c-0.3,1.9-2,3.3-4,3.2c-6.3-0.4-12.3-2.7-17.3-6.6
		c-1.5-1.2-1.9-3.4-0.8-5.1c3.5-5.2,8.5-9.3,14.4-11.6C44.2,3.9,46.3,4.7,47.2,6.4"/>
	<path fill="#0C6472" d="M47,28.3c-0.3,0-0.6,0.1-0.9,0c-6.4-0.4-12.5-2.8-17.5-6.7c-1.7-1.3-2.1-3.8-0.9-5.6
		c3.6-5.3,8.6-9.4,14.6-11.8C42.6,4.1,42.9,4,43.2,4c1.8-0.3,3.6,0.6,4.4,2.3c2.8,5.8,3.8,12.2,2.9,18.5C50.2,26.6,48.8,28,47,28.3
		 M43.3,4.8c-0.2,0-0.5,0.1-0.7,0.2c-5.8,2.3-10.7,6.3-14.2,11.5c-1,1.4-0.7,3.4,0.7,4.5c4.9,3.9,10.8,6.1,17,6.5c0.2,0,0.5,0,0.7,0
		c1.4-0.2,2.6-1.4,2.8-2.8c0.9-6.2-0.1-12.4-2.8-18C46.1,5.3,44.7,4.6,43.3,4.8"/>
	<path fill="#0C6472" d="M19.7,18.6l-3.9-0.3c-0.3,0-0.5-0.3-0.5-0.5s0.2-0.4,0.5-0.5l3.9-0.3c0.5,0,0.9,0.3,0.9,0.8
		s-0.3,0.8-0.8,0.9C19.8,18.6,19.7,18.6,19.7,18.6"/>
	<path fill="#0C6472" d="M21,23l-3.6,1.4c-0.3,0.1-0.5,0-0.7-0.3c-0.1-0.2,0-0.5,0.2-0.6l3.3-2c0.4-0.2,0.9-0.1,1.1,0.3
		c0.2,0.4,0.1,0.9-0.3,1.1C21.1,23,21,23,21,23"/>
	<path fill="#0C6472" d="M35.5,19.6l3.8,0.7c0.3,0.1,0.5,0.3,0.4,0.6c0,0.2-0.3,0.4-0.5,0.4l-3.9-0.1c-0.5,0-0.8-0.4-0.8-0.8
		c0-0.5,0.4-0.8,0.8-0.8C35.4,19.6,35.4,19.6,35.5,19.6"/>
	<path fill="#0C6472" d="M34.6,15.1l3.8-1.1c0.3-0.1,0.5,0.1,0.6,0.3c0.1,0.2-0.1,0.5-0.3,0.6l-3.5,1.7c-0.4,0.2-0.9,0-1.1-0.4
		C33.9,15.8,34.1,15.3,34.6,15.1C34.5,15.1,34.5,15.1,34.6,15.1"/>
	<path fill="#00AEEF" d="M35.6,17.6c0.7,4.5-2.4,8.8-6.9,9.5s-8.8-2.4-9.5-6.9s2.4-8.8,6.9-9.5S34.9,13.1,35.6,17.6"/>
	<path fill="#0C6472" d="M28.8,27.5c-4.7,0.7-9.2-2.5-10-7.2c-0.7-4.7,2.5-9.2,7.2-10c4.7-0.7,9.2,2.5,10,7.2
		C36.8,22.3,33.5,26.8,28.8,27.5 M26.2,11.1c-4.3,0.7-7.2,4.7-6.5,9s4.7,7.2,9,6.5s7.2-4.7,6.5-9C34.5,13.4,30.5,10.5,26.2,11.1"/>
</g>
</svg>
