<svg xmlns="http://www.w3.org/2000/svg" width="56.1" height="50.3" viewBox="0 0 56.1 50.3"><path opacity=".5" fill="#757575" d="M26.5 50.3c-1.8-.1-3.4-1.1-4.3-2.7l-.4-.7-.6.2c-2 .7-4.3.1-5.7-1.6-.9-1-1.3-2.3-1.2-3.6-.2 0-.3.1-.5.1-.6.1-1.2.1-1.8.1-2.9-.2-5.5-1.9-6.8-4.5C2.1 31.1 1 23.9 2 16.8c.5-3.5 3.2-6.3 6.7-6.8.6-.1 1.2-.1 1.8-.1 4 .3 7.9 1.2 11.6 2.7 1.5-1 3.1-1.6 4.9-1.9 1.8-.3 3.5-.2 5.2.3 3-2.6 6.4-4.7 10.1-6.2.6-.2 1.1-.4 1.7-.5.6-.1 1.2-.1 1.7-.1 2.9.2 5.5 1.9 6.8 4.5 3.2 6.5 4.3 13.7 3.3 20.8-.5 3.5-3.2 6.3-6.7 6.8-.2 0-.3 0-.5.1.5 1.2.5 2.6-.1 3.8-.8 2-2.8 3.3-4.9 3.2H43l-.1.8c-.4 2.2-2.1 3.9-4.3 4.2-1.9.3-3.8-.5-5-2-.3-.4-.7-1-1.1-1.6-.2.7-.4 1.3-.6 1.8-.6 1.8-2.2 3.1-4.1 3.4-.5.3-.9.4-1.3.3m-1.9-23.2l-1 8.3c-.1.9-.3 1.8-.4 2.8l2.3-.8.5.9c.3-1.6.5-3.4.6-5.2l.3-14.2c-.5.3-1 .6-1.5 1.1l-2 2.1-2.6-1.3c-3.4-1.7-7-2.7-10.8-3h-.1c-.1 0-.2.1-.3.3-.8 5.6.1 11.2 2.6 16.3l.2.2h.1c1.8-.7 3.4-1.6 5-2.6l7.1-4.9zm4.9-8.7l4.7 13.5c.6 1.7 1.4 3.3 2.1 4.8l.2-1 2.5.1c-.5-.9-.9-1.7-1.3-2.5l-3.4-7.6 8 2.2c1.8.5 3.7.8 5.6.9.2 0 .3-.1.3-.3.8-5.6-.1-11.2-2.6-16.3l-.2-.2h-.2c-3.5 1.4-6.7 3.5-9.4 6.2l-2 2.1-2.6-1.4c-.5-.3-1.1-.5-1.7-.5"/><path fill="#FFF" d="M50.5 24.8c-.3 1.8-1.7 3.3-3.5 3.5-.3 0-.6.1-.9 0-2.2-.1-4.3-.5-6.3-1.1 1 2.1 2.3 4.3 3.6 6 .3.4.3.9.2 1.3-.2.5-.7.8-1.3.8l-3.9-.1-.7 4.1c-.1.6-.5 1-1.1 1.1-.5.1-1-.1-1.3-.5-1.6-2.1-4.4-6.3-6.1-11.1-.1 5.1-1.5 9.9-2.4 12.5-.2.5-.6.8-1.1.9-.6.1-1.1-.2-1.4-.7l-2-3.7-3.7 1.3c-.5.2-1.1 0-1.5-.4-.3-.4-.4-.8-.2-1.3.7-2 1.3-4.5 1.5-6.8-1.8 1.2-3.7 2.2-5.7 3l-.9.3c-1.8.3-3.6-.6-4.4-2.3-2.9-5.8-3.9-12.2-3-18.6.2-1.8 1.6-3.2 3.5-3.5.3 0 .6-.1.9 0 4.3.3 8.5 1.5 12.3 3.4 1.3-1.3 3-2.3 4.9-2.6 2-.3 3.9.1 5.5.9 3-3 6.6-5.4 10.7-7.1.3-.1.6-.2.9-.2 1.8-.3 3.6.6 4.4 2.3 2.9 5.8 3.9 12.2 3 18.6"/><path fill="#FFF" d="M25 46.1c-1.8-.1-3.4-1.1-4.3-2.7l-.4-.7-.6.2c-2 .7-4.3.1-5.7-1.6-.9-1-1.3-2.3-1.2-3.6-.2 0-.3.1-.5.1-.6.1-1.2.1-1.8.1-2.9-.2-5.5-1.9-6.8-4.5C.5 26.9-.6 19.7.4 12.6 1 9 3.7 6.2 7.3 5.7c.5-.1 1.1-.2 1.7-.1 4 .3 7.9 1.2 11.6 2.7 1.5-1 3.1-1.6 4.9-1.9 1.8-.3 3.5-.2 5.2.3 3-2.6 6.4-4.7 10.1-6.2.6-.2 1.1-.4 1.7-.5h1.8c2.9.2 5.5 1.9 6.8 4.5 3.2 6.5 4.3 13.7 3.3 20.8-.5 3.5-3.2 6.3-6.7 6.8-.2 0-.3 0-.5.1.5 1.2.5 2.6-.1 3.8-.8 2-2.8 3.3-4.9 3.2h-.6l-.1.8c-.4 2.2-2.1 3.9-4.3 4.2-1.9.3-3.8-.5-5-2-.3-.4-.7-1-1.1-1.6-.2.7-.4 1.3-.6 1.8-.6 1.8-2.2 3.1-4.1 3.4-.6.3-1 .3-1.4.3m-1.9-23.3l-1 8.3c-.1.9-.3 1.8-.4 2.8l2.3-.8.5.9c.3-1.6.5-3.4.6-5.2l.3-14.2c-.5.3-1 .6-1.5 1.1l-2 2.1-2.6-1.3c-3.4-1.7-7-2.7-10.8-3h-.1c-.1 0-.2.1-.3.3-.8 5.6.1 11.2 2.6 16.3.1-.1.3-.1.3-.1h.1c1.8-.7 3.4-1.6 5-2.6l7-4.6zm4.9-8.7l4.7 13.5c.6 1.7 1.4 3.3 2.1 4.8l.2-1 2.5.1c-.5-.9-.9-1.7-1.3-2.5l-3.4-7.6 8 2.2c1.8.5 3.7.8 5.6.9.2 0 .3-.1.3-.3.8-5.6-.1-11.2-2.6-16.3l-.2-.2h-.2c-3.5 1.4-6.7 3.5-9.4 6.2l-2 2.1-2.6-1.4c-.5-.2-1.1-.4-1.7-.5"/><path fill="#00AEEF" d="M24.5 41.3l-2.1-4-4.1 1.4c-.7.2-1.4-.4-1.2-1.1 1.4-4.3 2.6-10.6.8-14l8.6-4.5c4 7.5 1.1 17.8-.4 22.1-.2.7-1.2.8-1.6.1"/><path fill="#0C6472" d="M25.5 42.2c-.6.1-1.1-.2-1.4-.7l-2-3.7-3.7 1.3c-.5.2-1.1 0-1.5-.4-.3-.4-.4-.8-.2-1.3 1.4-4.3 2.5-10.5.8-13.7l-.2-.4 9.3-4.9.2.4c4.1 7.7 1.1 18.3-.4 22.5 0 .5-.4.8-.9.9m-2.9-5.4l2.3 4.3c.1.2.3.3.5.2.1 0 .3-.1.4-.3 1.4-4 4.2-14.1.6-21.4l-7.8 4.1c1 2.4 1.3 7.2-1 14-.1.2 0 .4.1.5.1.2.3.2.5.1l4.4-1.5z"/><path fill="#00AEEF" d="M37.1 39.3l.8-4.4 4.3.1c.8 0 1.2-.8.8-1.4-2.7-3.6-5.8-9.3-5.1-13.1l-9.6-1.7c-1.5 8.3 4.4 17.3 7.2 20.9.4.6 1.4.4 1.6-.4"/><path fill="#0C6472" d="M36.4 40.5c-.5.1-1-.1-1.3-.5-2.7-3.5-8.7-12.7-7.2-21.3l.1-.4 10.4 1.8-.1.4c-.6 3.6 2.3 9.1 5 12.8.3.4.3.9.2 1.3-.2.5-.7.8-1.3.8l-3.9-.1-.7 4.1c-.2.6-.6 1-1.2 1.1m-7.8-21.2c-1.2 8.1 4.6 16.8 7.2 20.2.2.2.4.2.4.2.2 0 .4-.1.4-.4l.9-4.8 4.7.1c.2 0 .4-.1.5-.3 0-.1.1-.3-.1-.5-4.2-5.7-5.5-10.4-5.2-13l-8.8-1.5z"/><path fill="#00AEEF" d="M7.7 31.4c-2.8-5.7-3.8-12-2.9-18.3.3-1.9 2-3.3 4-3.2 6.3.4 12.3 2.7 17.3 6.6 1.5 1.2 1.9 3.4.8 5.1-3.5 5.2-8.5 9.3-14.4 11.6-1.9.7-4-.1-4.8-1.8"/><path fill="#0C6472" d="M11.7 33.9c-1.8.3-3.6-.6-4.4-2.3C4.5 25.8 3.5 19.4 4.4 13c.2-1.8 1.6-3.2 3.5-3.5.3 0 .6-.1.9 0 6.4.4 12.5 2.8 17.5 6.7 1.7 1.3 2.1 3.8.9 5.6-3.6 5.3-8.6 9.4-14.6 11.8l-.9.3M8 10.4c-1.4.2-2.6 1.4-2.8 2.8-.9 6.2.1 12.4 2.8 18 .6 1.3 2.1 2.1 3.5 1.8.2 0 .5-.1.7-.2 5.8-2.3 10.7-6.3 14.2-11.5 1-1.4.7-3.4-.7-4.5-4.9-3.9-10.8-6.1-17-6.5-.2 0-.5 0-.7.1"/><path fill="#00AEEF" d="M47.2 6.4c2.8 5.7 3.8 12 2.9 18.3-.3 1.9-2 3.3-4 3.2-6.3-.4-12.3-2.7-17.3-6.6-1.5-1.2-1.9-3.4-.8-5.1 3.5-5.2 8.5-9.3 14.4-11.6 1.8-.7 3.9.1 4.8 1.8"/><path fill="#0C6472" d="M47 28.3c-.3 0-.6.1-.9 0-6.4-.4-12.5-2.8-17.5-6.7-1.7-1.3-2.1-3.8-.9-5.6 3.6-5.3 8.6-9.4 14.6-11.8.3-.1.6-.2.9-.2 1.8-.3 3.6.6 4.4 2.3 2.8 5.8 3.8 12.2 2.9 18.5-.3 1.8-1.7 3.2-3.5 3.5M43.3 4.8c-.2 0-.5.1-.7.2-5.8 2.3-10.7 6.3-14.2 11.5-1 1.4-.7 3.4.7 4.5 4.9 3.9 10.8 6.1 17 6.5h.7c1.4-.2 2.6-1.4 2.8-2.8.9-6.2-.1-12.4-2.8-18-.7-1.4-2.1-2.1-3.5-1.9M19.7 18.6l-3.9-.3c-.3 0-.5-.3-.5-.5s.2-.4.5-.5l3.9-.3c.5 0 .9.3.9.8s-.3.8-.8.9c0-.1-.1-.1-.1-.1M21 23l-3.6 1.4c-.3.1-.5 0-.7-.3-.1-.2 0-.5.2-.6l3.3-2c.4-.2.9-.1 1.1.3.2.4.1.9-.3 1.1.1.1 0 .1 0 .1"/><path fill="#0C6472" d="M35.5 19.6l3.8.7c.3.1.5.3.4.6 0 .2-.3.4-.5.4l-3.9-.1c-.5 0-.8-.4-.8-.8 0-.5.4-.8.8-.8h.2M34.6 15.1l3.8-1.1c.3-.1.5.1.6.3.1.2-.1.5-.3.6l-3.5 1.7c-.4.2-.9 0-1.1-.4-.2-.4 0-.9.5-1.1-.1 0-.1 0 0 0"/><path fill="#00AEEF" d="M35.6 17.6c.7 4.5-2.4 8.8-6.9 9.5s-8.8-2.4-9.5-6.9 2.4-8.8 6.9-9.5 8.8 2.4 9.5 6.9"/><path fill="#0C6472" d="M28.8 27.5c-4.7.7-9.2-2.5-10-7.2-.7-4.7 2.5-9.2 7.2-10 4.7-.7 9.2 2.5 10 7.2.8 4.8-2.5 9.3-7.2 10m-2.6-16.4c-4.3.7-7.2 4.7-6.5 9s4.7 7.2 9 6.5 7.2-4.7 6.5-9c-.7-4.2-4.7-7.1-9-6.5"/></svg>