<?xml version="1.0" encoding="utf-8"?>
<!-- Generator: Adobe Illustrator 15.0.0, SVG Export Plug-In . SVG Version: 6.00 Build 0)  -->
<!DOCTYPE svg PUBLIC "-//W3C//DTD SVG 1.1//EN" "http://www.w3.org/Graphics/SVG/1.1/DTD/svg11.dtd">
<svg version="1.1" id="Layer_2" xmlns="http://www.w3.org/2000/svg" xmlns:xlink="http://www.w3.org/1999/xlink" x="0px" y="0px"
	 width="64px" height="64px" viewBox="0 0 64 64" enable-background="new 0 0 64 64" xml:space="preserve">
<g opacity="0.3">
	<g>
		<g>
			<path fill="#333333" d="M10.398,39.997c0.061,0.064,0.111,0.116,0.126,0.085C10.473,40.005,10.426,39.986,10.398,39.997z"/>
		</g>
		<g>
			<path fill="#333333" d="M6.821,28.979L6.57,29.207C6.651,29.28,6.72,29.102,6.821,28.979z"/>
		</g>
		<g>
			<path fill="#333333" d="M9.248,24.228l0.049-0.085C9.279,24.099,9.248,24.228,9.248,24.228z"/>
		</g>
		<g>
			<path fill="#333333" d="M17.657,10.981c-0.022,0.047-0.026,0.083-0.008,0.078s0.036-0.031,0.041-0.06S17.68,10.934,17.657,10.981
				z"/>
		</g>
		<g>
			<path fill="#333333" d="M12.714,45.542c-0.001-0.009-0.002-0.012-0.003-0.018C12.635,45.453,12.667,45.499,12.714,45.542z"/>
		</g>
		<g>
			<path fill="#333333" d="M19.05,51.82c0.003,0.03,0.022,0.064,0.089,0.123C19.121,51.894,19.086,51.857,19.05,51.82z"/>
		</g>
		<g>
			<path fill="#333333" d="M22.583,51.562c-0.043-0.007-0.052,0.001-0.021,0.018c0.032,0.016,0.173-0.014,0.167-0.02
				C22.724,51.554,22.626,51.57,22.583,51.562z"/>
		</g>
		<g>
			<path fill="#333333" d="M52.754,29.919c-0.175-0.386-0.488-1.007-0.695-1.38c-0.208-0.373-1.026-1.83-1.579-2.781l-0.2-0.344
				c-0.553-0.951-1.105-1.958-1.227-2.237s-1.159-2.059-1.698-3.018c0,0-4.605-8.189-4.841-8.38
				c-0.122-0.104-0.122-0.104-0.122-0.104c-0.271-0.51-0.479-0.916-0.462-0.901c0.018,0.015-0.052-0.122-0.152-0.302
				s-0.844-0.386-1.602-0.329c-0.759,0.057-2.033-0.03-2.723,0.101s-2.234,0.157-3.334,0.158l-7.84-0.001
				c-1.1,0.006-2.899-0.018-3.999-0.054l-2.119-0.068c-1.1-0.036-2.483,0.694-3.076,1.621l-1.182,1.654
				c-0.551,0.952-1.081,1.793-1.179,1.87s-0.311,0.438-0.672,1.001s-1.118,1.797-1.681,2.742l-1.842,2.945
				c-0.576,0.938-1.139,1.841-1.251,2.008s-0.465,0.82-0.783,1.45s-0.79,1.241-0.827,1.335s-0.342,0.513-0.392,0.682
				s-0.429,0.913-0.725,1.642s-0.38,2.52,0.104,3.507l2.973,5.989c0.487,0.986,1.173,2.423,1.524,3.191
				c0.351,0.77,0.738,1.799,1.051,2.394s0.729,1.486,0.864,1.772s0.636,1.063,1.003,1.62s0.714,1.377,0.738,1.556
				c0.023,0.18,0.584,0.845,0.694,0.953c0.11,0.109,0.241,0.311,0.275,0.39c0,0,0,0,0.03,0.07c0.067,0.14,0.143,0.272,0.223,0.398
				c0.161,0.25,0.161,0.25,0.161,0.25c0.194,0.24,1.176,0.424,2.183,0.407c1.006-0.016,2.195-0.058,2.642-0.093
				s0.468,0.086,0.591,0.097s1.127-0.158,2.226-0.209l3.971,0.146c1.1-0.013,2.312-0.047,2.693-0.075
				c0.381-0.028,1.325-0.054,2.065-0.106c0.74-0.054,1.398,0.006,1.438,0.007c0.041,0.001,0.888,0.051,1.559,0.036
				c0.672-0.015,1.519-0.068,1.881-0.119c0.362-0.052,1.339-0.08,1.972,0.021c0,0,0,0,0.211,0.036
				c0.346,0.051,0.346,0.051,0.346,0.051c0.512,0.014,1.045-0.133,1.186-0.325c0.141-0.193,0.987-1.229,1.527-2.188l0.396-0.569
				c0.573-0.939,1.333-2.079,1.687-2.534c0.354-0.455,0.851-1.297,1.102-1.871c0.252-0.573,0.734-1.466,1.145-2.219
				c0.411-0.752,0.809-1.467,0.884-1.587s0.253-0.405,0.329-0.542c0.075-0.136,0.59-0.94,1.142-1.789
				c0.552-0.848,1.409-2.345,1.905-3.326l1.067-1.828C52.837,31.762,52.93,30.306,52.754,29.919z M17.244,12.261
				c-0.001-0.002,0.005-0.011,0.015-0.02s0.02-0.021,0.009-0.002S17.245,12.264,17.244,12.261z"/>
		</g>
		<g>
			<path fill="#333333" d="M40.178,10.311c-0.038,0.008-0.01,0.066,0.036,0.084C40.214,10.395,40.22,10.311,40.178,10.311z"/>
		</g>
		<g>
			<path fill="#333333" d="M6.955,28.874c0.011-0.002,0.013-0.005,0.006-0.004s-0.031,0.008-0.036,0.012S6.944,28.876,6.955,28.874z
				"/>
		</g>
		<g>
			<path fill="#333333" d="M8.422,37.327c-0.024-0.023,0.022,0.035,0.104,0.129s0.101,0.113,0.044,0.042S8.446,37.351,8.422,37.327z
				"/>
		</g>
		<g>
			<path fill="#333333" d="M51.086,27.032"/>
		</g>
	</g>
</g>
<g opacity="0.3">
	<g>
		<g>
			<path fill="#333333" d="M9.398,40.997c0.061,0.064,0.111,0.116,0.126,0.085C9.473,41.005,9.426,40.986,9.398,40.997z"/>
		</g>
		<g>
			<path fill="#333333" d="M5.821,29.979L5.57,30.207C5.651,30.28,5.72,30.102,5.821,29.979z"/>
		</g>
		<g>
			<path fill="#333333" d="M8.248,25.228l0.049-0.085C8.279,25.099,8.248,25.228,8.248,25.228z"/>
		</g>
		<g>
			<path fill="#333333" d="M16.657,11.981c-0.022,0.047-0.026,0.083-0.008,0.078s0.036-0.031,0.041-0.06S16.68,11.934,16.657,11.981
				z"/>
		</g>
		<g>
			<path fill="#333333" d="M11.714,46.542c-0.001-0.009-0.002-0.012-0.003-0.018C11.635,46.453,11.667,46.499,11.714,46.542z"/>
		</g>
		<g>
			<path fill="#333333" d="M18.05,52.82c0.003,0.03,0.022,0.064,0.089,0.123C18.121,52.894,18.086,52.857,18.05,52.82z"/>
		</g>
		<g>
			<path fill="#333333" d="M21.583,52.562c-0.043-0.007-0.052,0.001-0.021,0.018c0.032,0.016,0.173-0.014,0.167-0.02
				C21.724,52.554,21.626,52.57,21.583,52.562z"/>
		</g>
		<g>
			<path fill="#333333" d="M16.244,13.261c-0.001-0.002,0.005-0.011,0.015-0.02s0.02-0.021,0.009-0.002S16.245,13.264,16.244,13.261
				z"/>
		</g>
		<g>
			<path fill="#333333" d="M39.178,11.311c-0.038,0.008-0.01,0.066,0.036,0.084C39.214,11.395,39.22,11.311,39.178,11.311z"/>
		</g>
		<g>
			<path fill="#333333" d="M5.955,29.874c0.011-0.002,0.013-0.005,0.006-0.004s-0.031,0.008-0.036,0.012S5.944,29.876,5.955,29.874z
				"/>
		</g>
		<g>
			<path fill="#333333" d="M7.422,38.327c-0.024-0.023,0.022,0.035,0.104,0.129s0.101,0.113,0.044,0.042S7.446,38.351,7.422,38.327z
				"/>
		</g>
		<g>
			<path fill="#333333" d="M50.086,28.032"/>
		</g>
	</g>
</g>
<g>
	<g>
		<g>
			<path fill="#FFFFFF" d="M7.398,37.997c0.061,0.064,0.111,0.116,0.126,0.085C7.473,38.005,7.426,37.986,7.398,37.997z"/>
		</g>
		<g>
			<path fill="#FFFFFF" d="M3.821,26.979L3.57,27.207C3.651,27.28,3.72,27.102,3.821,26.979z"/>
		</g>
		<g>
			<path fill="#FFFFFF" d="M6.248,22.228l0.049-0.085C6.279,22.099,6.248,22.228,6.248,22.228z"/>
		</g>
		<g>
			<path fill="#FFFFFF" d="M14.657,8.981c-0.022,0.047-0.026,0.083-0.008,0.078s0.036-0.031,0.041-0.06S14.68,8.934,14.657,8.981z"
				/>
		</g>
		<g>
			<path fill="#FFFFFF" d="M9.714,43.542c-0.001-0.009-0.002-0.012-0.003-0.018C9.635,43.453,9.667,43.499,9.714,43.542z"/>
		</g>
		<g>
			<path fill="#FFFFFF" d="M16.05,49.82c0.003,0.03,0.022,0.064,0.089,0.123C16.121,49.894,16.086,49.857,16.05,49.82z"/>
		</g>
		<g>
			<path fill="#FFFFFF" d="M19.583,49.562c-0.043-0.007-0.052,0.001-0.021,0.018c0.032,0.016,0.173-0.014,0.167-0.02
				C19.724,49.554,19.626,49.57,19.583,49.562z"/>
		</g>
		<g>
			<path fill="#FFFFFF" d="M49.754,27.919c-0.175-0.386-0.488-1.007-0.695-1.38c-0.208-0.373-1.026-1.83-1.579-2.781l-0.2-0.344
				c-0.553-0.951-1.105-1.958-1.227-2.237s-1.159-2.059-1.698-3.018c0,0-4.605-8.189-4.841-8.38
				c-0.122-0.104-0.122-0.104-0.122-0.104c-0.271-0.51-0.479-0.916-0.462-0.901c0.018,0.015-0.052-0.122-0.152-0.302
				s-1.119-0.358-2.216-0.268l-1.447,0.056c-1.098,0.077-2.896,0.141-3.995,0.142l-7.84-0.001c-1.1,0.006-2.899-0.018-3.999-0.054
				L17.161,8.28c-1.1-0.036-2.483,0.694-3.076,1.621l-1.182,1.654c-0.551,0.952-1.081,1.793-1.179,1.87s-0.311,0.438-0.672,1.001
				s-1.118,1.797-1.681,2.742l-1.842,2.945c-0.576,0.938-1.139,1.841-1.251,2.008s-0.465,0.82-0.783,1.45s-0.79,1.241-0.827,1.335
				s-0.342,0.513-0.392,0.682s-0.429,0.913-0.725,1.642s-0.38,2.52,0.104,3.507l2.973,5.989c0.487,0.986,1.173,2.423,1.524,3.191
				c0.351,0.77,0.738,1.799,1.051,2.394s0.729,1.486,0.864,1.772s0.636,1.063,1.003,1.62s0.714,1.377,0.738,1.556
				c0.023,0.18,0.584,0.845,0.694,0.953c0.11,0.109,0.241,0.311,0.275,0.39c0,0,0,0,0.03,0.07c0.067,0.14,0.143,0.272,0.223,0.398
				c0.161,0.25,0.161,0.25,0.161,0.25c0.194,0.24,1.176,0.424,2.183,0.407c1.006-0.016,2.195-0.058,2.642-0.093
				s0.468,0.086,0.591,0.097s1.127-0.158,2.226-0.209l3.971,0.146c1.1-0.013,2.312-0.047,2.693-0.075s1.325-0.054,2.066-0.106
				c0.74-0.054,1.398,0.006,1.438,0.007c0.041,0.001,0.888,0.051,1.559,0.036c0.672-0.015,1.519-0.068,1.881-0.119
				c0.362-0.052,1.339-0.08,1.972,0.021c0,0,0,0,0.211,0.036c0.346,0.051,0.346,0.051,0.346,0.051
				c0.512,0.014,1.045-0.133,1.186-0.325c0.141-0.193,0.987-1.229,1.527-2.188l0.396-0.569c0.573-0.939,1.333-2.079,1.687-2.534
				c0.354-0.455,0.851-1.297,1.102-1.871c0.252-0.573,0.734-1.466,1.145-2.219c0.411-0.752,0.809-1.467,0.884-1.587
				s0.253-0.405,0.329-0.542c0.075-0.136,0.59-0.94,1.142-1.789c0.552-0.848,1.409-2.345,1.905-3.326l1.067-1.828
				C49.838,29.762,49.93,28.306,49.754,27.919z M14.244,10.261c-0.001-0.002,0.005-0.011,0.015-0.02s0.02-0.021,0.009-0.002
				S14.245,10.264,14.244,10.261z"/>
		</g>
		<g>
			<path fill="#FFFFFF" d="M3.955,26.874c0.011-0.002,0.013-0.005,0.006-0.004s-0.031,0.008-0.036,0.012S3.944,26.876,3.955,26.874z
				"/>
		</g>
		<g>
			<path fill="#FFFFFF" d="M5.422,35.327c-0.024-0.023,0.022,0.035,0.104,0.129s0.101,0.113,0.044,0.042S5.446,35.351,5.422,35.327z
				"/>
		</g>
		<g>
			<path fill="#FFFFFF" d="M48.086,25.032"/>
		</g>
	</g>
</g>
<path fill="#C45757" d="M14.401,11.313c0.55-0.952,1.899-1.867,2.999-1.867h18.758c1.1,0,2.436,0.923,2.969,1.885l8.746,15.88
	c0.533,0.962,0.52,2.563-0.031,3.517l-9.141,15.916c-0.549,0.953-1.898,1.803-2.999,1.803H16.617c-1.1,0-2.426-0.846-2.945-1.815
	L5.207,30.817c-0.52-0.97-0.494-2.623,0.055-3.576L14.401,11.313z"/>
<path fill="#F36C6C" d="M16.617,47.445c-0.706,0-1.709-0.626-2.063-1.287L6.089,30.344c-0.356-0.663-0.337-1.953,0.038-2.604
	l9.141-15.93c0.404-0.701,1.44-1.365,2.132-1.365h18.758c0.674,0,1.711,0.678,2.094,1.369l8.746,15.878
	c0.363,0.655,0.352,1.886-0.021,2.534l-9.143,15.917c-0.385,0.668-1.422,1.301-2.132,1.301H16.617z"/>
</svg>
