<svg xmlns="http://www.w3.org/2000/svg" width="64" height="64" viewBox="0 0 64 64"><g opacity=".3"><path fill="#333" d="M10.398 39.997c.061.064.111.116.126.085-.051-.077-.098-.096-.126-.085zM6.821 28.979l-.251.228c.081.073.15-.105.251-.228zM9.248 24.228l.049-.085c-.018-.044-.049.085-.049.085zM17.657 10.981c-.022.047-.026.083-.008.078s.036-.031.041-.06-.01-.065-.033-.018zM12.714 45.542l-.003-.018c-.076-.071-.044-.025.003.018zM19.05 51.82c.003.03.022.064.089.123a.36.36 0 0 0-.089-.123zM22.583 51.562c-.043-.007-.052.001-.021.018.032.016.173-.014.167-.02-.005-.006-.103.01-.146.002z"/><path fill="#333" d="M52.754 29.919a23.122 23.122 0 0 0-.695-1.38c-.208-.373-1.026-1.83-1.579-2.781l-.2-.344c-.553-.951-1.105-1.958-1.227-2.237s-1.159-2.059-1.698-3.018c0 0-4.605-8.189-4.841-8.38l-.122-.104c-.271-.51-.479-.916-.462-.901.018.015-.052-.122-.152-.302s-.844-.386-1.602-.329c-.759.057-2.033-.03-2.723.101s-2.234.157-3.334.158l-7.84-.001c-1.1.006-2.899-.018-3.999-.054l-2.119-.068c-1.1-.036-2.483.694-3.076 1.621l-1.182 1.654c-.551.952-1.081 1.793-1.179 1.87s-.311.438-.672 1.001-1.118 1.797-1.681 2.742l-1.842 2.945c-.576.938-1.139 1.841-1.251 2.008s-.465.82-.783 1.45-.79 1.241-.827 1.335-.342.513-.392.682-.429.913-.725 1.642-.38 2.52.104 3.507l2.973 5.989c.487.986 1.173 2.423 1.524 3.191.351.77.738 1.799 1.051 2.394s.729 1.486.864 1.772.636 1.063 1.003 1.62.714 1.377.738 1.556c.023.18.584.845.694.953.11.109.241.311.275.39l.03.07c.067.14.143.272.223.398l.161.25c.194.24 1.176.424 2.183.407 1.006-.016 2.195-.058 2.642-.093s.468.086.591.097 1.127-.158 2.226-.209l3.971.146c1.1-.013 2.312-.047 2.693-.075.381-.028 1.325-.054 2.065-.106.74-.054 1.398.006 1.438.007.041.001.888.051 1.559.036.672-.015 1.519-.068 1.881-.119.362-.052 1.339-.08 1.972.021l.211.036.346.051c.512.014 1.045-.133 1.186-.325.141-.193.987-1.229 1.527-2.188l.396-.569c.573-.939 1.333-2.079 1.687-2.534.354-.455.851-1.297 1.102-1.871.252-.573.734-1.466 1.145-2.219.411-.752.809-1.467.884-1.587s.253-.405.329-.542c.075-.136.59-.94 1.142-1.789a42.705 42.705 0 0 0 1.905-3.326l1.067-1.828c.498-.978.591-2.434.415-2.821zm-35.51-17.658c-.001-.002.005-.011.015-.02s.02-.021.009-.002-.023.025-.024.022z"/><path fill="#333" d="M40.178 10.311c-.038.008-.01.066.036.084 0 0 .006-.084-.036-.084zM6.955 28.874c.011-.002.013-.005.006-.004s-.031.008-.036.012.019-.006.03-.008zM8.422 37.327c-.024-.023.022.035.104.129s.101.113.044.042-.124-.147-.148-.171z"/></g><g opacity=".3"><path fill="#333" d="M9.398 40.997c.061.064.111.116.126.085-.051-.077-.098-.096-.126-.085zM5.821 29.979l-.251.228c.081.073.15-.105.251-.228zM8.248 25.228l.049-.085c-.018-.044-.049.085-.049.085zM16.657 11.981c-.022.047-.026.083-.008.078s.036-.031.041-.06-.01-.065-.033-.018zM11.714 46.542l-.003-.018c-.076-.071-.044-.025.003.018zM18.05 52.82c.003.03.022.064.089.123a.36.36 0 0 0-.089-.123zM21.583 52.562c-.043-.007-.052.001-.021.018.032.016.173-.014.167-.02-.005-.006-.103.01-.146.002zM16.244 13.261c-.001-.002.005-.011.015-.02s.02-.021.009-.002-.023.025-.024.022zM39.178 11.311c-.038.008-.01.066.036.084 0 0 .006-.084-.036-.084zM5.955 29.874c.011-.002.013-.005.006-.004s-.031.008-.036.012.019-.006.03-.008zM7.422 38.327c-.024-.023.022.035.104.129s.101.113.044.042-.124-.147-.148-.171z"/></g><path fill="#FFF" d="M7.398 37.997c.061.064.111.116.126.085-.051-.077-.098-.096-.126-.085zM3.821 26.979l-.251.228c.081.073.15-.105.251-.228zM6.248 22.228l.049-.085c-.018-.044-.049.085-.049.085zM14.657 8.981c-.022.047-.026.083-.008.078s.036-.031.041-.06-.01-.065-.033-.018zM9.714 43.542l-.003-.018c-.076-.071-.044-.025.003.018zM16.05 49.82c.003.03.022.064.089.123a.36.36 0 0 0-.089-.123zM19.583 49.562c-.043-.007-.052.001-.021.018.032.016.173-.014.167-.02-.005-.006-.103.01-.146.002z"/><path fill="#FFF" d="M49.754 27.919a23.122 23.122 0 0 0-.695-1.38c-.208-.373-1.026-1.83-1.579-2.781l-.2-.344c-.553-.951-1.105-1.958-1.227-2.237s-1.159-2.059-1.698-3.018c0 0-4.605-8.189-4.841-8.38l-.122-.104c-.271-.51-.479-.916-.462-.901.018.015-.052-.122-.152-.302s-1.119-.358-2.216-.268l-1.447.056a70.114 70.114 0 0 1-3.995.142l-7.84-.001c-1.1.006-2.899-.018-3.999-.054l-2.12-.067c-1.1-.036-2.483.694-3.076 1.621l-1.182 1.654c-.551.952-1.081 1.793-1.179 1.87s-.311.438-.672 1.001-1.118 1.797-1.681 2.742l-1.842 2.945c-.576.938-1.139 1.841-1.251 2.008s-.465.82-.783 1.45-.79 1.241-.827 1.335-.342.513-.392.682-.429.913-.725 1.642-.38 2.52.104 3.507l2.973 5.989c.487.986 1.173 2.423 1.524 3.191.351.77.738 1.799 1.051 2.394s.729 1.486.864 1.772.636 1.063 1.003 1.62.714 1.377.738 1.556c.023.18.584.845.694.953.11.109.241.311.275.39l.03.07c.067.14.143.272.223.398l.161.25c.194.24 1.176.424 2.183.407 1.006-.016 2.195-.058 2.642-.093s.468.086.591.097 1.127-.158 2.226-.209l3.971.146c1.1-.013 2.312-.047 2.693-.075s1.325-.054 2.066-.106c.74-.054 1.398.006 1.438.007.041.001.888.051 1.559.036.672-.015 1.519-.068 1.881-.119.362-.052 1.339-.08 1.972.021l.211.036.346.051c.512.014 1.045-.133 1.186-.325.141-.193.987-1.229 1.527-2.188l.396-.569c.573-.939 1.333-2.079 1.687-2.534.354-.455.851-1.297 1.102-1.871.252-.573.734-1.466 1.145-2.219.411-.752.809-1.467.884-1.587s.253-.405.329-.542c.075-.136.59-.94 1.142-1.789a42.705 42.705 0 0 0 1.905-3.326l1.067-1.828c.498-.979.59-2.435.414-2.822zm-35.51-17.658c-.001-.002.005-.011.015-.02s.02-.021.009-.002-.023.025-.024.022z"/><path fill="#FFF" d="M3.955 26.874c.011-.002.013-.005.006-.004s-.031.008-.036.012.019-.006.03-.008zM5.422 35.327c-.024-.023.022.035.104.129s.101.113.044.042-.124-.147-.148-.171z"/><path fill="#C45757" d="M14.401 11.313c.55-.952 1.899-1.867 2.999-1.867h18.758c1.1 0 2.436.923 2.969 1.885l8.746 15.88c.533.962.52 2.563-.031 3.517l-9.141 15.916c-.549.953-1.898 1.803-2.999 1.803H16.617c-1.1 0-2.426-.846-2.945-1.815L5.207 30.817c-.52-.97-.494-2.623.055-3.576l9.139-15.928z"/><path fill="#F36C6C" d="M16.617 47.445c-.706 0-1.709-.626-2.063-1.287L6.089 30.344c-.356-.663-.337-1.953.038-2.604l9.141-15.93c.404-.701 1.44-1.365 2.132-1.365h18.758c.674 0 1.711.678 2.094 1.369l8.746 15.878c.363.655.352 1.886-.021 2.534l-9.143 15.917c-.385.668-1.422 1.301-2.132 1.301H16.617z"/></svg>