<svg xmlns="http://www.w3.org/2000/svg" width="64" height="64" viewBox="0 0 64 64"><g opacity=".3"><path fill="#333" d="M12.862 44.78c.061.063.111.116.126.085-.05-.077-.097-.095-.126-.085zM9.285 33.762l-.251.228c.081.072.151-.105.251-.228zM11.712 29.011l.049-.085c-.018-.044-.049.085-.049.085zM20.122 15.764c-.022.047-.026.083-.008.078.018-.005.036-.031.041-.06.005-.029-.011-.065-.033-.018zM15.179 50.325l-.003-.019c-.076-.07-.044-.024.003.019zM21.515 56.604c.003.03.022.064.089.123a.363.363 0 0 0-.089-.123zM25.048 56.346c-.043-.007-.052.002-.021.019.032.016.173-.015.167-.021-.006-.007-.103.01-.146.002zM19.708 17.044c-.001-.002.005-.011.015-.02.01-.009.02-.021.009-.002-.011.019-.023.025-.024.022zM42.643 15.094c-.039.008-.011.066.035.084 0 0 .006-.084-.035-.084zM9.419 33.656c.011-.004.013-.006.006-.004a.11.11 0 0 0-.036.012c-.005.004.019-.005.03-.008zM10.887 42.109c-.024-.022.022.035.104.13.082.094.101.112.044.042a3.322 3.322 0 0 0-.148-.172z"/></g><g fill="#FFF"><path d="M11.999 47.6l.199-.713.248-.658h1.08l.58.558.536 3.211z"/><path d="M13.179 47.325l-.003-.019c-.076-.07-.044-.024.003.019z"/></g><g fill="#FFF"><path d="M18.942 54.477c-.252-.223-.395-.483-.423-.776l-.274-2.834 1.986 2.041c.064.065.217.223.309.471l-1.598 1.098z"/><path d="M19.515 53.604c.003.03.022.064.089.123a.363.363 0 0 0-.089-.123z"/></g><g fill="#FFF"><path d="M22.815 54.229l-.252-.049-.694-.328.169-.761.187-.753.895-.053.064-.057h.46l.31.405.417.517-.268.527c-.177.385-.557.551-1.042.551h-.246v.001z"/><path d="M23.048 53.346c-.043-.007-.053 0-.021.019.032.016.173-.015.167-.021-.006-.008-.103.01-.146.002z"/></g><path fill="#FFF" d="M21.985 54.512c-.164-.014-.293-.201-.377-.238-.568.041-1.751-.045-2.754-.045h-.136c-.825 0-2.292.041-2.841-.639l-.062-.015-.16-.214c-.104-.164-.199-.312-.283-.488l-.049-.102c0 .002-.045-.053-.064-.073-.004-.003-.895-.896-.978-1.527a7.792 7.792 0 0 0-.581-1.135c-.879-1.335-1.023-1.642-1.072-1.741l-.061-.131c-.17-.359-.516-1.094-.784-1.604-.208-.396-.425-.914-.655-1.463-.141-.339-.283-.681-.421-.98a138.248 138.248 0 0 0-1.511-3.164l-2.973-5.988c-.641-1.311-.51-3.402-.135-4.328.169-.417.364-.839.514-1.163.088-.188.158-.337.188-.415.057-.194.189-.409.368-.689l.083-.131c.014-.051.084-.152.223-.357a9.01 9.01 0 0 0 .603-.977c.243-.482.669-1.295.845-1.559.111-.164.664-1.053 1.23-1.975l1.846-2.951c.558-.937 1.322-2.183 1.688-2.752l.23-.363c.271-.426.408-.643.568-.799.117-.161.497-.752 1.028-1.67l1.233-1.734c.73-1.145 2.381-2.041 3.812-2.041l2.229.091c.98.032 2.523.076 3.617.076h8.189c1.08 0 2.841-.085 3.926-.161L39.986 11c.188-.017.416-.031.637-.031 2.04 0 2.367.581 2.49.8.074.134.152.272.209.42.046.095.169.333.326.632.17.149.582.703 5.041 8.633l.648 1.139c.689 1.204 1.002 1.754 1.096 1.969.082.191.568 1.096 1.174 2.133l.199.346c.558.956 1.379 2.422 1.588 2.797.22.393.549 1.047.733 1.453.349.77.138 2.562-.435 3.689l-1.096 1.879a42.363 42.363 0 0 1-1.932 3.369 86.242 86.242 0 0 0-1.107 1.731c-.082.146-.271.453-.354.582-.079.129-.46.813-.854 1.536-.414.759-.875 1.611-1.106 2.142-.283.647-.823 1.562-1.229 2.082-.33.427-1.072 1.544-1.623 2.441l-.428.62c-.436.777-1.132 1.677-1.43 2.061l-.111.107c-.5.683-1.602.697-1.927.697h-.073l-.139.026-.58-.071a6.229 6.229 0 0 0-.895-.045c-.319 0-.611.021-.769.041-.449.064-1.369.118-1.999.133l-.284.004c-.526 0-1.079-.026-1.274-.036l-.135-.007a9.263 9.263 0 0 0-1.254-.003c-.432.03-.929.053-1.35.071-.301.013-.559.023-.714.035-.405.03-1.642.065-2.756.078l-4.02-.147c-.586.03-1.217.107-1.635.159a6.583 6.583 0 0 1-.541.052l-.092-.005z"/><path fill="#961D1D" d="M53.218 31.703a23.107 23.107 0 0 0-.694-1.38c-.209-.373-1.025-1.83-1.58-2.781l-.199-.344c-.553-.951-1.105-1.958-1.227-2.238-.121-.279-1.16-2.059-1.699-3.017 0 0-4.604-8.189-4.84-8.38l-.123-.104c-.271-.51-.479-.916-.461-.901.018.014-.052-.122-.152-.303-.102-.18-1.119-.357-2.217-.267l-1.446.056a70.082 70.082 0 0 1-3.995.142h-7.84c-1.1.006-2.899-.019-3.999-.054l-2.119-.068c-1.1-.035-2.483.694-3.075 1.621l-1.182 1.653c-.551.952-1.082 1.794-1.18 1.87s-.311.438-.672 1.001-1.118 1.797-1.682 2.741l-1.842 2.945c-.576.938-1.139 1.842-1.251 2.009-.112.167-.465.82-.783 1.451-.318.63-.79 1.241-.827 1.335-.037.094-.342.512-.392.682-.05.168-.429.912-.725 1.642-.296.729-.38 2.519.104 3.505l2.974 5.99c.486.986 1.173 2.422 1.523 3.191.352.77.738 1.799 1.052 2.394s.729 1.487.864 1.772c.135.285.637 1.062 1.003 1.619.366.559.714 1.378.737 1.557.023.18.584.846.694.953.11.109.241.311.275.39l.03.07c.067.14.143.272.223.397l.161.25c.194.24 1.177.424 2.183.407 1.006-.016 2.195-.057 2.642-.093s.468.086.591.098c.123.01 1.127-.158 2.227-.209l3.971.146c1.1-.013 2.312-.048 2.693-.075s1.324-.054 2.065-.105c.74-.053 1.397.006 1.438.006.041.002.887.052 1.559.037.672-.016 1.52-.068 1.881-.119.363-.053 1.339-.08 1.973.021l.211.036.346.051c.512.014 1.045-.134 1.187-.324.141-.193.987-1.229 1.526-2.188l.396-.57c.573-.938 1.333-2.077 1.688-2.532.354-.455.851-1.297 1.102-1.871.252-.573.734-1.465 1.145-2.219.412-.753.81-1.468.885-1.588.074-.119.252-.404.328-.542.076-.136.59-.94 1.143-1.788a42.564 42.564 0 0 0 1.904-3.326l1.068-1.828c.494-.982.587-2.439.41-2.824zm-35.51-17.658c-.001-.003.006-.012.015-.02.009-.009.02-.021.009-.003-.01.02-.023.025-.024.023z"/><g><path fill="#ED0C0C" d="M17.865 15.231c.549-.953 1.899-1.732 2.999-1.732h18.758c1.101 0 2.437.788 2.968 1.75l8.748 15.812c.532.962.518 2.53-.031 3.483l-9.142 15.847c-.55.953-1.899 1.732-2.999 1.732H20.081c-1.1 0-2.425-.793-2.945-1.764L8.672 34.573c-.52-.97-.496-2.542.054-3.495l9.139-15.847z"/></g></svg>