<?xml version="1.0" encoding="utf-8"?>
<!-- Generator: Adobe Illustrator 15.0.0, SVG Export Plug-In . SVG Version: 6.00 Build 0)  -->
<!DOCTYPE svg PUBLIC "-//W3C//DTD SVG 1.1//EN" "http://www.w3.org/Graphics/SVG/1.1/DTD/svg11.dtd">
<svg version="1.1" id="Layer_2" xmlns="http://www.w3.org/2000/svg" xmlns:xlink="http://www.w3.org/1999/xlink" x="0px" y="0px"
	 width="64px" height="64px" viewBox="0 0 64 64" enable-background="new 0 0 64 64" xml:space="preserve">
<g opacity="0.3">
	<g>
		<g>
			<path fill="#333333" d="M12.862,44.78c0.061,0.063,0.111,0.116,0.126,0.085C12.938,44.788,12.891,44.77,12.862,44.78z"/>
		</g>
		<g>
			<path fill="#333333" d="M9.285,33.762L9.034,33.99C9.115,34.062,9.185,33.885,9.285,33.762z"/>
		</g>
		<g>
			<path fill="#333333" d="M11.712,29.011l0.049-0.085C11.743,28.882,11.712,29.011,11.712,29.011z"/>
		</g>
		<g>
			<path fill="#333333" d="M20.122,15.764c-0.022,0.047-0.026,0.083-0.008,0.078c0.018-0.005,0.036-0.031,0.041-0.06
				C20.16,15.753,20.144,15.717,20.122,15.764z"/>
		</g>
		<g>
			<path fill="#333333" d="M15.179,50.325c-0.001-0.009-0.002-0.013-0.003-0.019C15.1,50.236,15.132,50.282,15.179,50.325z"/>
		</g>
		<g>
			<path fill="#333333" d="M21.515,56.604c0.003,0.03,0.022,0.064,0.089,0.123C21.585,56.677,21.551,56.641,21.515,56.604z"/>
		</g>
		<g>
			<path fill="#333333" d="M25.048,56.346c-0.043-0.007-0.052,0.002-0.021,0.019c0.032,0.016,0.173-0.015,0.167-0.021
				C25.188,56.337,25.091,56.354,25.048,56.346z"/>
		</g>
		<g>
			<path fill="#333333" d="M19.708,17.044c-0.001-0.002,0.005-0.011,0.015-0.02c0.01-0.009,0.02-0.021,0.009-0.002
				C19.721,17.041,19.709,17.047,19.708,17.044z"/>
		</g>
		<g>
			<path fill="#333333" d="M42.643,15.094c-0.039,0.008-0.011,0.066,0.035,0.084C42.678,15.178,42.684,15.094,42.643,15.094z"/>
		</g>
		<g>
			<path fill="#333333" d="M9.419,33.656c0.011-0.004,0.013-0.006,0.006-0.004c-0.007,0-0.031,0.008-0.036,0.012
				C9.384,33.668,9.408,33.659,9.419,33.656z"/>
		</g>
		<g>
			<path fill="#333333" d="M10.887,42.109c-0.024-0.022,0.022,0.035,0.104,0.13c0.082,0.094,0.101,0.112,0.044,0.042
				C10.978,42.21,10.911,42.134,10.887,42.109z"/>
		</g>
		<g>
			<path fill="#333333" d="M53.55,31.815"/>
		</g>
	</g>
</g>
<g>
	<polygon fill="#FFFFFF" points="11.999,47.6 12.198,46.887 12.446,46.229 13.526,46.229 14.106,46.787 14.642,49.998 	"/>
	<path fill="#FFFFFF" d="M13.179,47.325c-0.001-0.009-0.002-0.013-0.003-0.019C13.1,47.236,13.132,47.282,13.179,47.325z"/>
</g>
<g>
	<path fill="#FFFFFF" d="M18.942,54.477c-0.252-0.223-0.395-0.483-0.423-0.776l-0.274-2.834l1.986,2.041
		c0.064,0.065,0.217,0.223,0.309,0.471L18.942,54.477z"/>
	<path fill="#FFFFFF" d="M19.515,53.604c0.003,0.03,0.022,0.064,0.089,0.123C19.585,53.677,19.551,53.641,19.515,53.604z"/>
</g>
<g>
	<path fill="#FFFFFF" d="M22.815,54.229l-0.252-0.049l-0.694-0.328l0.169-0.761l0.187-0.753l0.895-0.053l0.064-0.057h0.46
		l0.31,0.405l0.417,0.517l-0.268,0.527c-0.177,0.385-0.557,0.551-1.042,0.551H22.815L22.815,54.229z"/>
	<path fill="#FFFFFF" d="M23.048,53.346c-0.043-0.007-0.053,0-0.021,0.019c0.032,0.016,0.173-0.015,0.167-0.021
		C23.188,53.336,23.091,53.354,23.048,53.346z"/>
</g>
<g>
	<path fill="#FFFFFF" d="M21.985,54.512c-0.164-0.014-0.293-0.201-0.377-0.238c-0.568,0.041-1.751-0.045-2.754-0.045h-0.136
		c-0.825,0-2.292,0.041-2.841-0.639l-0.062-0.015l-0.16-0.214c-0.104-0.164-0.199-0.312-0.283-0.488l-0.049-0.102
		c0,0.002-0.045-0.053-0.064-0.073c-0.004-0.003-0.895-0.896-0.978-1.527c-0.024-0.063-0.288-0.688-0.581-1.135
		c-0.879-1.335-1.023-1.642-1.072-1.741l-0.061-0.131c-0.17-0.359-0.516-1.094-0.784-1.604c-0.208-0.396-0.425-0.914-0.655-1.463
		c-0.141-0.339-0.283-0.681-0.421-0.98c-0.349-0.764-1.028-2.188-1.511-3.164l-2.973-5.988c-0.641-1.311-0.51-3.402-0.135-4.328
		c0.169-0.417,0.364-0.839,0.514-1.163c0.088-0.188,0.158-0.337,0.188-0.415c0.057-0.194,0.189-0.409,0.368-0.689l0.083-0.131
		c0.014-0.051,0.084-0.152,0.223-0.357c0.167-0.244,0.419-0.613,0.603-0.977c0.243-0.482,0.669-1.295,0.845-1.559
		c0.111-0.164,0.664-1.053,1.23-1.975l1.846-2.951c0.558-0.937,1.322-2.183,1.688-2.752l0.23-0.363
		c0.271-0.426,0.408-0.643,0.568-0.799c0.117-0.161,0.497-0.752,1.028-1.67l1.233-1.734c0.73-1.145,2.381-2.041,3.812-2.041
		l2.229,0.091c0.98,0.032,2.523,0.076,3.617,0.076h8.189c1.08,0,2.841-0.085,3.926-0.161L39.986,11
		c0.188-0.017,0.416-0.031,0.637-0.031c2.04,0,2.367,0.581,2.49,0.8c0.074,0.134,0.152,0.272,0.209,0.42
		c0.046,0.095,0.169,0.333,0.326,0.632c0.17,0.149,0.582,0.703,5.041,8.633l0.648,1.139c0.689,1.204,1.002,1.754,1.096,1.969
		c0.082,0.191,0.568,1.096,1.174,2.133l0.199,0.346c0.558,0.956,1.379,2.422,1.588,2.797c0.22,0.393,0.549,1.047,0.733,1.453
		c0.349,0.77,0.138,2.562-0.435,3.689l-1.096,1.879c-0.48,0.957-1.361,2.492-1.932,3.369c-0.529,0.812-1.021,1.584-1.107,1.731
		c-0.082,0.146-0.271,0.453-0.354,0.582c-0.079,0.129-0.46,0.813-0.854,1.536c-0.414,0.759-0.875,1.611-1.106,2.142
		c-0.283,0.647-0.823,1.562-1.229,2.082c-0.33,0.427-1.072,1.544-1.623,2.441l-0.428,0.62c-0.436,0.777-1.132,1.677-1.43,2.061
		l-0.111,0.107c-0.5,0.683-1.602,0.697-1.927,0.697h-0.073l-0.139,0.026l-0.58-0.071c-0.213-0.035-0.534-0.045-0.895-0.045
		c-0.319,0-0.611,0.021-0.769,0.041c-0.449,0.064-1.369,0.118-1.999,0.133l-0.284,0.004c-0.526,0-1.079-0.026-1.274-0.036
		l-0.135-0.007c-0.098-0.008-0.354-0.023-0.685-0.023c-0.174,0-0.369,0.005-0.569,0.02c-0.432,0.03-0.929,0.053-1.35,0.071
		c-0.301,0.013-0.559,0.023-0.714,0.035c-0.405,0.03-1.642,0.065-2.756,0.078l-4.02-0.147c-0.586,0.03-1.217,0.107-1.635,0.159
		c-0.273,0.033-0.467,0.052-0.541,0.052L21.985,54.512z"/>
	<path fill="#961D1D" d="M53.218,31.703c-0.175-0.386-0.487-1.007-0.694-1.38c-0.209-0.373-1.025-1.83-1.58-2.781l-0.199-0.344
		c-0.553-0.951-1.105-1.958-1.227-2.238c-0.121-0.279-1.16-2.059-1.699-3.017c0,0-4.604-8.189-4.84-8.38
		c-0.123-0.104-0.123-0.104-0.123-0.104c-0.271-0.51-0.479-0.916-0.461-0.901c0.018,0.014-0.052-0.122-0.152-0.303
		c-0.102-0.18-1.119-0.357-2.217-0.267l-1.446,0.056c-1.097,0.077-2.896,0.141-3.995,0.142h-7.84
		c-1.1,0.006-2.899-0.019-3.999-0.054l-2.119-0.068c-1.1-0.035-2.483,0.694-3.075,1.621l-1.182,1.653
		c-0.551,0.952-1.082,1.794-1.18,1.87s-0.311,0.438-0.672,1.001s-1.118,1.797-1.682,2.741l-1.842,2.945
		c-0.576,0.938-1.139,1.842-1.251,2.009c-0.112,0.167-0.465,0.82-0.783,1.451c-0.318,0.63-0.79,1.241-0.827,1.335
		c-0.037,0.094-0.342,0.512-0.392,0.682c-0.05,0.168-0.429,0.912-0.725,1.642c-0.296,0.729-0.38,2.519,0.104,3.505l2.974,5.99
		c0.486,0.986,1.173,2.422,1.523,3.191c0.352,0.77,0.738,1.799,1.052,2.394s0.729,1.487,0.864,1.772
		c0.135,0.285,0.637,1.062,1.003,1.619c0.366,0.559,0.714,1.378,0.737,1.557c0.023,0.18,0.584,0.846,0.694,0.953
		c0.11,0.109,0.241,0.311,0.275,0.39c0,0,0,0,0.03,0.07c0.067,0.14,0.143,0.272,0.223,0.397c0.161,0.25,0.161,0.25,0.161,0.25
		c0.194,0.24,1.177,0.424,2.183,0.407c1.006-0.016,2.195-0.057,2.642-0.093s0.468,0.086,0.591,0.098
		c0.123,0.01,1.127-0.158,2.227-0.209l3.971,0.146c1.1-0.013,2.312-0.048,2.693-0.075s1.324-0.054,2.065-0.105
		c0.74-0.053,1.397,0.006,1.438,0.006c0.041,0.002,0.887,0.052,1.559,0.037c0.672-0.016,1.52-0.068,1.881-0.119
		c0.363-0.053,1.339-0.08,1.973,0.021c0,0,0,0,0.211,0.036c0.346,0.051,0.346,0.051,0.346,0.051
		c0.512,0.014,1.045-0.134,1.187-0.324c0.141-0.193,0.987-1.229,1.526-2.188l0.396-0.57c0.573-0.938,1.333-2.077,1.688-2.532
		c0.354-0.455,0.851-1.297,1.102-1.871c0.252-0.573,0.734-1.465,1.145-2.219c0.412-0.753,0.81-1.468,0.885-1.588
		c0.074-0.119,0.252-0.404,0.328-0.542c0.076-0.136,0.59-0.94,1.143-1.788c0.552-0.849,1.409-2.345,1.904-3.326l1.068-1.828
		C53.302,33.545,53.395,32.088,53.218,31.703z M17.708,14.045c-0.001-0.003,0.006-0.012,0.015-0.02
		c0.009-0.009,0.02-0.021,0.009-0.003C17.722,14.042,17.709,14.047,17.708,14.045z"/>
</g>
<g>
	<path fill="#ED0C0C" d="M17.865,15.231c0.549-0.953,1.899-1.732,2.999-1.732h18.758c1.101,0,2.437,0.788,2.968,1.75l8.748,15.812
		c0.532,0.962,0.518,2.53-0.031,3.483l-9.142,15.847c-0.55,0.953-1.899,1.732-2.999,1.732H20.081c-1.1,0-2.425-0.793-2.945-1.764
		L8.672,34.573c-0.52-0.97-0.496-2.542,0.054-3.495L17.865,15.231z"/>
</g>
</svg>
