<?xml version="1.0" encoding="utf-8"?>
<!-- Generator: Adobe Illustrator 15.0.0, SVG Export Plug-In . SVG Version: 6.00 Build 0)  -->
<!DOCTYPE svg PUBLIC "-//W3C//DTD SVG 1.1//EN" "http://www.w3.org/Graphics/SVG/1.1/DTD/svg11.dtd">
<svg version="1.1" id="Layer_1" xmlns="http://www.w3.org/2000/svg" xmlns:xlink="http://www.w3.org/1999/xlink" x="0px" y="0px"
	 width="100px" height="66px" viewBox="0 0 100 66" enable-background="new 0 0 100 66" xml:space="preserve">
<g id="Layer_1_1_">
	<g>
		<polygon fill="#355E7C" points="10.242,49.011 20.796,29.9 32.807,48.166 23.839,51.564 22.057,48.598 20.182,48.657 
			19.281,51.952 		"/>
		<path fill="#FFFFFF" d="M20.913,32.934l9.507,14.458l-5.911,2.239l-1.581-2.636l-3.955,0.133l-0.771,2.822l-5.667-1.846
			L20.913,32.934z M19.952,44.135l2.241-0.396l-0.942-2.562L19.952,44.135z"/>
		<polygon fill="#355E7C" points="25.775,48.38 40.516,21.682 57.281,47.178 45.356,51.695 42.785,47.41 38.932,47.537 
			37.646,52.244 		"/>
		<path fill="#FFFFFF" d="M40.633,24.716l14.262,21.688l-8.867,3.361l-2.372-3.953l-5.931,0.195l-1.158,4.234l-8.5-2.766
			L40.633,24.716z M39.192,41.518l3.361-0.592l-1.412-3.843L39.192,41.518z"/>
		<polygon fill="#355E7C" points="49.309,47.749 68.238,13.463 89.758,46.189 74.877,51.827 71.514,46.223 65.686,46.416 
			64.014,52.537 		"/>
		<path fill="#FFFFFF" d="M68.355,16.496l19.016,28.919l-11.824,4.479l-3.162-5.271l-7.908,0.263l-1.543,5.648L51.6,46.846
			L68.355,16.496z M66.436,38.9l4.48-0.791l-1.883-5.12L66.436,38.9z"/>
	</g>
</g>
</svg>
