<?xml version="1.0" encoding="utf-8"?>
<!-- Generator: Adobe Illustrator 15.0.0, SVG Export Plug-In . SVG Version: 6.00 Build 0)  -->
<!DOCTYPE svg PUBLIC "-//W3C//DTD SVG 1.1//EN" "http://www.w3.org/Graphics/SVG/1.1/DTD/svg11.dtd">
<svg version="1.1" id="Layer_1" xmlns="http://www.w3.org/2000/svg" xmlns:xlink="http://www.w3.org/1999/xlink" x="0px" y="0px"
	 width="100px" height="66px" viewBox="0 0 100 66" enable-background="new 0 0 100 66" xml:space="preserve">
<g id="Layer_2">
	<g>
		<polygon fill="#355E7C" points="10.242,48.011 20.796,28.9 32.807,47.166 23.839,50.564 22.057,47.598 20.182,47.657 
			19.281,50.952 		"/>
		<path fill="#579ED3" d="M20.913,31.934l9.507,14.458l-5.911,2.239l-1.581-2.636l-3.955,0.133l-0.771,2.822l-5.667-1.846
			L20.913,31.934z M19.952,43.135l2.241-0.396l-0.942-2.562L19.952,43.135z"/>
		<polygon fill="#355E7C" points="25.775,47.38 40.516,20.682 57.281,46.178 45.356,50.695 42.785,46.41 38.932,46.537 
			37.646,51.244 		"/>
		<path fill="#579ED3" d="M40.633,23.716l14.262,21.688l-8.867,3.361l-2.372-3.953l-5.931,0.195l-1.158,4.234l-8.5-2.766
			L40.633,23.716z M39.192,40.518l3.361-0.592l-1.412-3.843L39.192,40.518z"/>
		<polygon fill="#355E7C" points="49.309,46.749 68.238,12.463 89.758,45.189 74.877,50.827 71.514,45.223 65.686,45.416 
			64.014,51.537 		"/>
		<path fill="#579ED3" d="M68.355,15.496l19.016,28.919l-11.824,4.479l-3.162-5.271l-7.908,0.263l-1.543,5.648L51.6,45.846
			L68.355,15.496z M66.436,37.9l4.48-0.791l-1.883-5.12L66.436,37.9z"/>
	</g>
</g>
</svg>
