<svg xmlns="http://www.w3.org/2000/svg" width="100" height="66" viewBox="0 0 100 66"><path fill="#355E7C" d="M10.242 48.011L20.796 28.9l12.011 18.266-8.968 3.398-1.782-2.966-1.875.059-.901 3.295z"/><path fill="#579ED3" d="M20.913 31.934l9.507 14.458-5.911 2.239-1.581-2.636-3.955.133-.771 2.822-5.667-1.846 8.378-15.17zm-.961 11.201l2.241-.396-.942-2.562-1.299 2.958z"/><path fill="#355E7C" d="M25.775 47.38l14.741-26.698 16.765 25.496-11.925 4.517-2.571-4.285-3.853.127-1.286 4.707z"/><path fill="#579ED3" d="M40.633 23.716l14.262 21.688-8.867 3.361-2.372-3.953-5.931.195-1.158 4.234-8.5-2.766 12.566-22.759zm-1.441 16.802l3.361-.592-1.412-3.843-1.949 4.435z"/><path fill="#355E7C" d="M49.309 46.749l18.929-34.286 21.52 32.726-14.881 5.638-3.363-5.604-5.828.193-1.672 6.121z"/><path fill="#579ED3" d="M68.355 15.496l19.016 28.919-11.824 4.479-3.162-5.271-7.908.263-1.543 5.648L51.6 45.846l16.755-30.35zM66.436 37.9l4.48-.791-1.883-5.12-2.597 5.911z"/></svg>