<?xml version="1.0" encoding="utf-8"?>
<!-- Generator: Adobe Illustrator 15.0.0, SVG Export Plug-In . SVG Version: 6.00 Build 0)  -->
<!DOCTYPE svg PUBLIC "-//W3C//DTD SVG 1.1//EN" "http://www.w3.org/Graphics/SVG/1.1/DTD/svg11.dtd">
<svg version="1.1" id="Layer_1" xmlns="http://www.w3.org/2000/svg" xmlns:xlink="http://www.w3.org/1999/xlink" x="0px" y="0px"
	 width="480px" height="360px" viewBox="0 0 480 360" enable-background="new 0 0 480 360" xml:space="preserve">
<g id="fixed">
	<path fill="#DCFCFF" d="M0.01,0H480v53.146H0.01V0z"/>
	<path id="Mountains" fill="#2D7F5C" d="M0.01,35.6c0,0,17.15-11.476,50.225,0.674c33.073,12.15,65.472,10.125,79.646,8.101
		c14.174-2.024,49.271-18.225,80.32-14.175c31.049,4.05,51.972,18.224,66.822,18.899c14.849,0.674,18.896-7.426,38.474-9.451
		c19.575-2.024,67.496,5.4,89.771-1.35c22.275-6.749,74.732,3.66,74.732,3.66V360H0.01V35.6z"/>
	<path id="Far_x5F_Hill" fill="#3F7C31" d="M0.01,65.048c25.649-0.675,88.022-3.8,183.192,7.675
		c95.17,11.473,172.792,4.725,207.89,4.725c35.104,0,88.907,1.972,88.907,1.972V360H0.01V65.048z"/>
	<path id="Field_x5F_Hill" fill="#94B748" d="M0.01,100.949c31.049-1.35,92.748,8.896,129.195,10.246
		c36.447,1.35,74.247-4.85,159.292-4.45c85.045,0.4,163.152,22.674,191.502,23.349V360H0.01V100.949z"/>
	<path id="Field" fill="#769E41" d="M0.01,169.569c3.717-0.076,45.562-0.984,114.574-4.396c51.461-2.544,99.428-4.754,122.82-5.815
		c0.283,0.118,0.465,0.187,0.497,0.197l0.081-0.224c8.965-0.408,14.167-0.64,14.348-0.647l3.975-0.177l-3.02-2.591
		c-0.021-0.02-2.271-1.957-6.662-6.347c-2.622-2.623-4.95-5.52-8.474-9.903c-2.405-2.992-5.398-6.716-9.432-11.529
		c-6.41-7.65-15.42-15.152-21.228-19.67c-1.656,0.078-3.288,0.157-4.893,0.237c5.076,3.809,16.333,12.655,23.706,21.457
		c4.013,4.788,6.994,8.498,9.392,11.479c3.588,4.464,5.958,7.414,8.701,10.157c1.629,1.628,2.963,2.92,4.008,3.911
		c-2.416,0.108-5.938,0.267-10.396,0.47c-1.133-0.527-3.039-1.555-4.556-3.071c-0.786-0.786-2.599-3.812-4.517-7.017
		c-3.96-6.613-9.383-15.67-15.069-21.568c-5.59-5.795-12.554-11.907-16.812-15.532c-1.558,0.081-3.092,0.161-4.601,0.243
		c3.292,2.738,12.282,10.359,19.145,17.477c5.438,5.639,10.754,14.517,14.635,21c2.583,4.313,3.978,6.611,4.991,7.625
		c0.396,0.395,0.811,0.759,1.231,1.098c-3.694,0.168-7.839,0.358-12.381,0.567c-0.741-2.642-4.069-13.076-13.464-25.887
		c-6.997-9.542-14.739-17.362-19.228-21.606c-1.479,0.081-2.938,0.161-4.376,0.24c3.521,3.184,12.818,11.984,21.063,23.228
		c8.311,11.334,11.739,20.888,12.758,24.175c-3.8,0.175-7.845,0.361-12.109,0.561c-0.882-2.389-5.083-13.333-12.479-26.132
		c-5.617-9.722-11.695-17.392-15.198-21.505c-1.35,0.072-2.682,0.145-3.994,0.214c2.819,3.179,10.03,11.729,16.465,22.867
		c6.559,11.351,10.551,21.193,11.897,24.709c-4.438,0.207-9.091,0.424-13.932,0.65c-0.693-3.744-3.314-16.885-7.671-27.366
		c-2.478-6.711-8.187-15.692-11.49-20.617c-1.242,0.062-2.473,0.121-3.688,0.179c2.885,4.226,9.615,14.446,12.232,21.557
		l0.023,0.062c4.042,9.712,6.621,22.191,7.413,26.336c-3.418,0.16-6.923,0.325-10.502,0.495c-0.106-1.166-1.585-16.634-6.503-31.165
		c-2.248-6.52-5.207-13.488-6.788-17.1c-1.138,0.047-2.266,0.094-3.382,0.135c1.347,3.037,4.712,10.801,7.188,17.982
		c4.667,13.79,6.162,28.48,6.333,30.295c-2.71,0.129-5.459,0.261-8.246,0.394c-0.354-3.919-1.34-13.664-3.081-23.122
		c-1.94-10.528-6.153-22.02-7.431-25.373c-1,0.029-1.992,0.055-2.979,0.076l-0.319,0.127c0.054,0.137,5.433,13.814,7.63,25.739
		c1.702,9.24,2.67,18.764,3.03,22.702c-3.764,0.181-7.591,0.363-11.468,0.552c0.044-3.219,0.182-18.225-0.986-27.275
		c-1.13-8.754-3.021-19.347-3.457-21.753c-0.98,0.009-1.957,0.014-2.929,0.015l-0.261,0.048c0.021,0.123,2.256,12.285,3.521,22.094
		c1.152,8.928,0.994,24.392,0.958,27.021c-3.405,0.165-6.844,0.332-10.315,0.5c0.104-5.54,0.412-20.414,0.923-30.863
		c0.485-9.954,1.448-16.38,1.866-18.815c-1.065-0.01-2.129-0.025-3.188-0.046c-0.47,2.821-1.355,9.118-1.824,18.708
		c-0.518,10.625-0.831,25.789-0.931,31.17c-2.394,0.117-4.8,0.234-7.217,0.353c-0.074-2.452-0.065-10.183,1.961-25.128
		c1.829-13.486,3.812-21.683,4.771-25.186c-0.489-0.016-0.977-0.032-1.466-0.049c-0.583-0.022-1.174-0.047-1.77-0.072
		c-1.045,3.928-2.907,11.984-4.656,24.883c-2.075,15.298-2.078,23.111-1.99,25.707c-2.114,0.104-4.234,0.208-6.361,0.312
		c-1.073,0.054-2.14,0.105-3.2,0.157c0.293-2.969,1.325-11.605,4.357-23.982c3.767-15.378,9.464-26.875,9.521-26.99l-0.446-0.224
		c-0.942-0.049-1.896-0.104-2.863-0.162c-1.494,3.177-6.024,13.373-9.271,26.627c-3.277,13.38-4.247,22.296-4.479,24.887
		c-3.677,0.178-7.271,0.349-10.782,0.513c0.635-3.264,2.322-11.362,5.452-22.677c3.957-14.304,14.282-28.822,14.862-29.631
		c-1.2-0.086-2.417-0.177-3.65-0.273c-2.942,4.32-10.792,16.57-14.249,29.064c-3.418,12.357-5.141,20.959-5.651,23.667
		c-3.482,0.16-6.877,0.313-10.187,0.46c0.049-3.394,1.082-9.956,5.683-22.03c5.021-12.634,10.259-20.45,13.77-24.78
		c3.794-4.682,6.438-6.406,6.463-6.424l-0.204-0.318c-1.308-0.112-2.629-0.229-3.964-0.352c-3.883,3.535-11.687,12.329-19,30.731
		c-3.856,10.124-5.872,18.105-5.898,23.311c-2.871,0.125-5.67,0.246-8.403,0.361c0.198-2.626,1.257-11.155,6.896-24.225
		c6.847-15.872,22.52-29.97,22.677-30.11l-0.406-0.456c-1.117-0.106-2.239-0.216-3.37-0.328
		c-4.346,4.172-15.945,16.091-21.792,29.646c-6.095,14.13-7.03,23.077-7.173,25.605c-3.165,0.131-6.23,0.257-9.196,0.375
		c0.779-3.843,3.472-15.266,10.118-28.303c8.075-15.839,24.318-27.438,24.481-27.554l-0.098-0.139
		c-1.437-0.146-2.882-0.296-4.336-0.447c-5.089,4.047-16.332,13.916-22.853,26.707c-7.367,14.451-9.97,26.729-10.55,29.861
		c-2.263,0.089-4.462,0.173-6.6,0.254c1.482-4.98,6.326-20.61,11.463-30.152c6.229-11.565,18.96-24.537,25.017-27.043l0,0
		c-1.742-0.186-3.492-0.373-5.249-0.562c-7.426,5.264-17.443,16.646-22.54,26.111c-5.781,10.734-10.996,28.264-12.013,31.771
		c-2.016,0.075-3.972,0.146-5.866,0.214c1.48-5.375,6.044-20.881,12.718-33.973c8.01-15.711,24.995-24.191,25.166-24.275
		l-0.062-0.129c-1.705-0.185-3.413-0.371-5.124-0.558c-5.75,3.536-16.606,11.413-22.785,23.531
		c-7.24,14.202-12.036,31.164-13.208,35.52c-1.602,0.057-3.157,0.11-4.664,0.162c1.756-7.506,7.312-29.53,14.529-40.871
		c8.029-12.618,21.659-17.957,23.492-18.629c-2.078-0.228-4.157-0.452-6.232-0.676c-5.505,2.817-14.012,8.333-19.918,17.614
		c-7.865,12.36-13.6,35.919-15.135,42.671c-1.824,0.061-3.567,0.116-5.233,0.17c1.554-6.742,7.073-29.068,14.477-40.7
		c8.59-13.5,23.133-19.553,23.337-19.635c0,0,0,0,0.001,0l-0.164-0.403c-1.695-0.183-3.387-0.36-5.072-0.539
		c-5.233,2.853-14.402,8.896-20.76,18.886c-8.102,12.732-13.792,36.747-15.076,42.494c-2.763,0.085-5.271,0.159-7.519,0.223
		c1.365-5.303,5.991-22.057,13.073-35.212l0.029-0.059c8.721-17.978,25.937-26.046,26.109-26.125l-0.307-0.669
		c-1.44-0.148-2.874-0.293-4.301-0.436c-5.694,3.338-17.382,11.539-24.321,25.824c-7.675,14.271-12.508,32.584-13.558,36.769
		c-2.555,0.068-4.665,0.123-6.318,0.163c1.316-4.741,7.947-27.624,16.607-40.812l0.052-0.083
		c9.453-16.544,24.388-21.509,24.537-21.557l-0.196-0.619c-1.739-0.168-3.463-0.331-5.172-0.487
		c-5.491,2.777-14.966,8.981-21.88,21.058C9.4,136.968,2.965,158.58,1.236,164.742l-0.228-16.756
		c2.48-5.756,7.664-17.318,13.125-26.662c10.333-14.443,23.398-18.267,23.529-18.303l-0.131-0.468
		c-7.361-0.651-14.383-1.17-20.818-1.463c-0.085,0.034-0.167,0.065-0.253,0.101l-0.003-0.111c-3.677-0.165-7.16-0.256-10.405-0.256
		c-2.483,1.141-4.499,2.608-6.045,4.178v64.563l0,0v0.003L0.01,169.569L0.01,169.569z M11.53,119.555l-0.077,0.119
		c-3.958,6.762-7.771,14.669-10.545,20.771l-0.106-7.792c1.87-4.184,5.159-10.961,8.865-15.99
		c6.589-8.737,16.744-12.639,20.622-13.87C25.181,105.525,17.911,110.611,11.53,119.555z M22.265,102.629
		c-4.806,2.376-10.649,6.217-15.124,12.148c-2.424,3.289-4.642,7.207-6.436,10.734l-0.085-6.279
		c0.325-0.985,1.584-4.156,5.211-7.557C12.471,105.7,18.78,103.46,22.265,102.629z M15.107,101.777
		c-3.368,1.531-7.323,3.904-11.407,7.58c-1.298,1.218-2.336,2.42-3.166,3.539l-0.047-3.474
		C3.588,104.404,9.975,102.213,15.107,101.777z"/>
	<path id="Closest_x5F_Hill" fill="#79A826" d="M0.01,163.167c0,0,89.372-1.35,179.818-6.075
		c90.445-4.725,205.863-7.425,229.488-10.799c23.623-3.375,70.684-9.449,70.684-9.449V360H0.01V163.167z"/>
</g>
<g id="Flowers">
	<path id="Color_1_x3C_Compound_Path_x3E__1_" fill="#669303" d="M420.375,336.396c-0.302,1.004-2.347,0.338-4.888-0.43
		c-2.541-0.77-4.062-3.203-4.062-3.203s2.606-1.195,5.147-0.438C419.121,333.096,420.677,335.391,420.375,336.396z M393.844,325.52
		c0.272-1.013,2.336-0.396,4.897,0.285c2.562,0.691,4.144,3.084,4.144,3.084s-2.562,1.275-5.133,0.586
		C395.189,328.784,393.57,326.534,393.844,325.52z M97.368,205.916c0.154,0.761-1.413,1.041-3.338,1.432
		c-1.925,0.396-3.765-0.675-3.765-0.675s1.281-1.69,3.206-2.083C95.397,204.2,97.214,205.154,97.368,205.916z M78.04,214.426
		c-0.616,0.475-1.557-0.812-2.752-2.369c-1.196-1.559-1.05-3.677-1.05-3.677s2.085,0.406,3.28,1.964
		C78.715,211.902,78.656,213.952,78.04,214.426z M433.21,209.338c-0.159,0.525-1.229,0.178-2.559-0.222
		c-1.33-0.4-2.122-1.677-2.122-1.677s1.354-0.627,2.688-0.229C432.554,207.609,433.368,208.812,433.21,209.338z M419.323,203.646
		c0.143-0.53,1.224-0.215,2.562,0.146c1.342,0.36,2.169,1.614,2.169,1.614s-1.345,0.668-2.687,0.307
		C420.028,205.354,419.18,204.176,419.323,203.646z M304.076,263.352c0.222,0.965-1.532,1.152-3.688,1.442
		c-2.15,0.289-4.307-1.222-4.307-1.222s1.352-1.977,3.495-2.268C301.741,261.018,303.855,262.391,304.076,263.352z M279.016,272.336
		c-0.964-0.227-0.375-1.884,0.297-3.941c0.672-2.06,2.961-3.312,2.961-3.312s1.201,2.078,0.528,4.14
		C282.131,271.271,279.979,272.562,279.016,272.336z M59.367,316.627c-0.226,0.996,1.48,1.012,3.575,1.087
		c2.093,0.075,4.197-1.667,4.197-1.667s-1.289-1.865-3.382-1.938C61.666,314.029,59.592,315.631,59.367,316.627z M94.263,316.783
		c0.629-0.812-0.892-1.562-2.73-2.533c-1.84-0.973-4.472-0.294-4.472-0.294s0.354,2.257,2.192,3.229
		C91.093,318.157,93.634,317.594,94.263,316.783z"/>
	<path id="Color_2_x3C_Compound_Path_x3E__1_" fill="#618400" d="M415.061,340.05c-0.938,0.468-2.107-0.925-3.3-3.3
		c-1.182-2.375,0.188-3.6,0.188-3.6s2.834,0.476,4.016,2.85C417.142,338.376,416,339.583,415.061,340.05z M399.052,321.715
		c0.927-0.492,2.146,0.864,3.396,3.205s-0.08,3.604-0.08,3.604s-2.854-0.396-4.104-2.729
		C397.02,323.448,398.126,322.209,399.052,321.715z M95.177,210.157c-0.45,0.634-1.705,0.138-3.307-1s-1.137-2.411-1.137-2.411
		s2.015-0.682,3.615,0.455C95.95,208.338,95.627,209.523,95.177,210.157z M73.267,214.32c-0.766-0.125-0.872-1.473-0.554-3.407
		c0.317-1.938,1.667-2.082,1.667-2.082s1.497,1.51,1.18,3.448C75.242,214.217,74.033,214.447,73.267,214.32z M430.428,211.251
		c-0.492,0.244-1.104-0.483-1.727-1.728c-0.619-1.242,0.096-1.885,0.096-1.885s1.483,0.244,2.104,1.482
		C431.518,210.374,430.92,211.006,430.428,211.251z M422.049,201.654c0.485-0.26,1.122,0.451,1.775,1.677
		c0.646,1.226-0.042,1.886-0.042,1.886s-1.49-0.205-2.146-1.43C420.985,202.562,421.564,201.912,422.049,201.654z M301.861,268.406
		c-0.469,0.742-1.92-0.004-3.801-1.581c-1.892-1.576-1.438-3.116-1.438-3.116s2.235-0.643,4.117,0.936
		C302.624,266.221,302.332,267.664,301.861,268.406z M275.418,268.117c-0.465-0.748,0.835-1.721,3.071-2.711
		c2.235-0.991,3.432,0.088,3.432,0.088s-0.389,2.29-2.625,3.281C277.059,269.766,275.883,268.865,275.418,268.117z M61.474,321.52
		c0.449,0.703,1.869-0.188,3.718-1.979c1.847-1.785,1.429-3.298,1.429-3.298s-2.171-0.429-4.02,1.354
		C60.753,319.384,61.024,320.814,61.474,321.52z M94.478,311.42c-0.1-0.835-1.757-0.627-4.176,0.201
		c-2.419,0.829-2.693,2.387-2.693,2.387s1.76,1.324,4.179,0.496C94.205,313.674,94.578,312.254,94.478,311.42z"/>
	<path id="Color_3_x3C_Compound_Path_x3E__1_" fill="#BACF86" d="M397.881,328.271c-0.169-1.155-2.343-1.801-4.854-1.438
		c-0.479,0.069-0.93,0.169-1.351,0.292c1.272-1.758,3.646-2.501,2.699-2.904c-1.069-0.468-5.312-0.648-6.321,1.684
		c-0.341,0.779-0.562,1.447-0.682,2.015c-0.341-0.422-0.803-0.882-1.389-1.386c-1.924-1.66-5.657,0.354-6.424,1.23
		c-0.688,0.803,1.908,0.396,3.844,1.523c-0.545,0.062-1.121,0.188-1.711,0.391c-2.418,0.776-4.086,2.312-3.729,3.43
		c0.359,1.104,2.278,0.642,4.697-0.146c1.461-0.473,2.766-0.945,3.492-1.498c-0.092,0.562-0.051,1.184,0.146,1.803
		c0.525,1.625,1.723,1.396,2.934,1.012c1.214-0.396,1.98-0.803,1.466-2.43c-0.146-0.451-0.363-0.854-0.624-1.189
		c0.89,0.225,2.146,0.22,3.52,0.021C396.112,330.307,398.049,329.427,397.881,328.271z M79.39,204.336
		c-0.229-0.833-1.884-1.105-3.697-0.609c-0.341,0.094-0.662,0.207-0.958,0.336c0.775-1.397,2.448-2.168,1.72-2.381
		c-0.83-0.244-3.961,0-4.493,1.805c-0.178,0.605-0.284,1.117-0.318,1.543c-0.287-0.271-0.669-0.567-1.144-0.895
		c-1.563-1.046-4.125,0.771-4.606,1.489c-0.433,0.647,1.441,0.12,2.959,0.774c-0.393,0.101-0.805,0.244-1.22,0.438
		c-1.706,0.793-2.793,2.071-2.429,2.854c0.364,0.781,1.73,0.271,3.438-0.521c1.031-0.479,1.945-0.944,2.432-1.417
		c-0.019,0.416,0.068,0.864,0.272,1.312c0.533,1.146,1.387,0.867,2.24,0.479c0.854-0.396,1.389-0.77,0.856-1.913
		c-0.149-0.317-0.345-0.599-0.566-0.819c0.674,0.084,1.597-0.033,2.586-0.307C78.275,205.991,79.618,205.17,79.39,204.336z
		 M421.438,205.085c-0.089-0.604-1.227-0.938-2.543-0.747c-0.235,0.035-0.479,0.088-0.689,0.152c0.666-0.92,1.896-1.311,1.411-1.523
		c-0.562-0.24-2.78-0.342-3.312,0.879c-0.18,0.416-0.296,0.771-0.354,1.062c-0.188-0.227-0.417-0.467-0.729-0.734
		c-1.007-0.869-2.962,0.188-3.355,0.646c-0.354,0.416,0.994,0.212,2.011,0.801c-0.282,0.037-0.583,0.104-0.896,0.201
		c-1.267,0.408-2.141,1.212-1.949,1.793c0.188,0.582,1.188,0.335,2.459-0.074c0.771-0.246,1.444-0.497,1.828-0.785
		c-0.052,0.291-0.021,0.616,0.074,0.942c0.275,0.851,0.897,0.729,1.531,0.524c0.634-0.205,1.041-0.418,0.767-1.271
		c-0.073-0.238-0.188-0.447-0.329-0.625c0.474,0.115,1.126,0.113,1.854,0.01C420.511,206.15,421.524,205.689,421.438,205.085z
		 M426.632,208.241c-0.312-0.042-0.626-0.054-0.911-0.038c0.896-0.76,2.27-0.805,1.829-1.148c-0.477-0.383-2.59-1.062-3.424-0.029
		c-0.258,0.32-0.446,0.604-0.583,0.854c-0.111-0.28-0.289-0.604-0.541-0.979c-0.741-1.104-2.905-0.604-3.413-0.27
		c-0.446,0.299,0.842,0.458,1.663,1.242c-0.229-0.023-0.468-0.032-0.717-0.023c-1.329,0.051-2.396,0.584-2.366,1.193
		c0.023,0.611,1.104,0.881,2.433,0.832c0.729-0.025,1.375-0.145,1.812-0.343c-0.104,0.2-0.18,0.427-0.212,0.675
		c-0.117,0.889,0.319,1.021,0.979,1.109c0.66,0.088,1.294,0.093,1.411-0.795c0.045-0.34,0.007-0.662-0.093-0.939
		c0.426,0.215,1.143,0.338,1.94,0.441c1.312,0.176,2.352,0.229,2.432-0.371C428.955,209.047,427.951,208.415,426.632,208.241z
		 M291.129,263.659c-0.375-0.093-0.744-0.149-1.1-0.177c1.604-1.125,3.64-1.021,3.101-1.674c-0.614-0.748-3.674-2.279-5.308-0.568
		c-0.553,0.578-0.977,1.092-1.275,1.548c-0.091-0.481-0.248-1.028-0.49-1.666c-0.785-2.067-4.312-1.513-5.211-0.987
		c-0.812,0.477,1.252,0.967,2.245,2.569c-0.425-0.112-0.896-0.188-1.399-0.21c-2.082-0.098-3.896,0.705-4.059,1.791
		c-0.16,1.086,1.438,1.293,3.521,1.39c1.259,0.058,2.4,0.062,3.146-0.185c-0.276,0.455-0.483,1.012-0.571,1.619
		c-0.229,1.59,0.73,1.771,1.772,1.812c1.044,0.056,1.771-0.057,2.004-1.646c0.062-0.44,0.062-0.862-0.006-1.242
		c0.569,0.479,1.502,0.882,2.59,1.146c1.996,0.486,3.763,0.35,4.076-0.723C294.484,265.408,293.124,264.148,291.129,263.659z
		 M81.242,316.664c-0.148-1.143-1.849-1.986-3.795-1.885c-0.472,0.021-0.913,0.104-1.312,0.223c0.931-1.688,2.859-2.205,2.102-2.703
		c-0.841-0.554-4.14-1.139-4.875,1.039c-0.227,0.669-0.375,1.245-0.458,1.753c-0.28-0.479-0.677-1.021-1.192-1.628
		c-1.528-1.801-4.389-0.188-4.963,0.6c-0.504,0.692,1.395,0.576,2.9,1.769c-0.333,0.021-0.68,0.09-1.028,0.187
		c-1.867,0.521-3.139,1.85-2.845,2.961c0.296,1.116,1.945,1.271,3.812,0.762c1.019-0.279,1.887-0.703,2.422-1.209
		c-0.059,0.396-0.064,0.844-0.005,1.311c0.217,1.674,0.897,1.781,1.874,1.73c0.977-0.061,1.878-0.242,1.662-1.916
		c-0.083-0.646-0.276-1.229-0.537-1.703c0.698,0.26,1.77,0.256,2.946,0.188C79.897,318.025,81.39,317.809,81.242,316.664z
		 M294.873,226.843c-0.271,0.015-0.523,0.062-0.754,0.128c0.535-0.971,1.645-1.269,1.209-1.555
		c-0.482-0.318-2.379-0.654-2.803,0.598c-0.131,0.387-0.217,0.721-0.271,1.012c-0.154-0.271-0.387-0.59-0.688-0.938
		c-0.883-1.033-2.521-0.105-2.854,0.348c-0.291,0.396,0.812,0.33,1.677,1.021c-0.188,0.02-0.396,0.044-0.602,0.104
		c-1.069,0.297-1.807,1.062-1.637,1.698c0.172,0.646,1.117,0.729,2.188,0.437c0.598-0.158,1.096-0.405,1.396-0.703
		c-0.033,0.23-0.041,0.488-0.01,0.77c0.125,0.965,0.521,1.021,1.072,0.994c0.562-0.025,1.08-0.146,0.957-1.104
		c-0.049-0.368-0.156-0.707-0.312-0.979c0.397,0.146,1.021,0.146,1.692,0.112c1.118-0.062,1.979-0.188,1.896-0.846
		C296.971,227.271,295.992,226.785,294.873,226.843z"/>
	<path id="Color_2_x3C_Compound_Path_x3E_" fill="#B1C661" d="M415.896,327.973c-0.479-0.08-0.938-0.125-1.363-0.137
		c1.751-1.281,4.229-1.26,3.464-1.938c-0.878-0.771-4.854-2.262-6.532-0.354c-0.562,0.646-0.98,1.207-1.268,1.708
		c-0.194-0.507-0.492-1.087-0.896-1.74c-1.312-2.177-5.493-1.398-6.491-0.804c-0.896,0.547,1.697,0.972,3.188,2.642
		c-0.538-0.104-1.126-0.154-1.743-0.154c-2.541,0-4.602,0.941-4.602,2.109c0,1.166,1.972,1.312,4.513,1.312
		c1.535,0,2.924-0.059,3.785-0.354c-0.258,0.5-0.409,1.104-0.409,1.76c0,1.709,1.201,1.854,2.475,1.854
		c1.274,0,2.146-0.146,2.146-1.854c0-0.479-0.082-0.93-0.229-1.326c0.777,0.482,1.979,0.867,3.346,1.102
		c2.512,0.426,4.614,0.188,4.812-0.969C420.275,329.674,418.403,328.396,415.896,327.973z M92.597,202.486
		c-0.352-0.021-0.692-0.01-1.015,0.021c1.17-1.1,2.996-1.31,2.369-1.733c-0.714-0.48-3.771-1.219-4.83,0.336
		c-0.356,0.521-0.614,0.979-0.776,1.367c-0.188-0.354-0.46-0.754-0.813-1.199c-1.166-1.479-4.163-0.527-4.841,0
		c-0.611,0.479,1.334,0.562,2.577,1.646c-0.403-0.021-0.841-0.015-1.294,0.041c-1.866,0.229-3.295,1.111-3.188,1.971
		c0.104,0.856,1.565,0.782,3.433,0.562c1.127-0.146,2.144-0.312,2.749-0.604c-0.144,0.396-0.201,0.854-0.142,1.324
		c0.155,1.262,1.051,1.262,1.985,1.146c0.937-0.111,1.558-0.305,1.402-1.562c-0.042-0.351-0.144-0.673-0.286-0.951
		c0.615,0.282,1.53,0.457,2.554,0.506c1.879,0.086,3.409-0.279,3.448-1.146C95.968,203.338,94.476,202.57,92.597,202.486z
		 M430.866,204.928c-0.245-0.041-0.485-0.062-0.714-0.07c0.918-0.67,2.216-0.648,1.812-1.014c-0.459-0.402-2.541-1.181-3.419-0.182
		c-0.299,0.34-0.517,0.637-0.664,0.9c-0.102-0.271-0.253-0.57-0.467-0.924c-0.69-1.146-2.875-0.732-3.396-0.427
		c-0.472,0.287,0.893,0.519,1.661,1.388c-0.271-0.062-0.587-0.082-0.897-0.082c-1.329,0-2.408,0.496-2.408,1.104
		c0,0.605,1.028,0.688,2.354,0.688c0.812,0,1.531-0.021,1.981-0.188c-0.136,0.262-0.216,0.578-0.216,0.921
		c0,0.896,0.629,0.976,1.295,0.976c0.667,0,1.119-0.074,1.119-0.976c0-0.251-0.046-0.481-0.122-0.692
		c0.407,0.256,1.035,0.455,1.752,0.572c1.312,0.229,2.418,0.102,2.521-0.507C433.158,205.818,432.178,205.15,430.866,204.928z
		 M285.083,257.368c-0.331-1.06-2.209-1.49-4.192-0.964c-0.479,0.127-0.922,0.3-1.312,0.502c0.69-1.818,2.591-2.738,1.733-3.047
		c-0.951-0.344-4.438-0.176-4.854,2.062c-0.125,0.687-0.188,1.271-0.194,1.771c-0.361-0.396-0.854-0.816-1.479-1.28
		c-1.854-1.392-4.537,0.78-5.007,1.667c-0.407,0.771,1.521,0.234,3.257,1.041c-0.339,0.104-0.688,0.229-1.021,0.398
		c-1.846,0.9-2.938,2.449-2.459,3.455c0.479,1.002,2.189,0.781,4.025-0.119c1.003-0.485,1.828-1.088,2.298-1.688
		c0.013,0.396,0.062,0.816,0.2,1.251c0.479,1.554,1.201,1.508,2.191,1.242c0.99-0.267,1.896-0.646,1.402-2.196
		c-0.186-0.593-0.477-1.105-0.812-1.511c0.76,0.093,1.854-0.146,3.062-0.463C283.914,258.965,285.414,258.428,285.083,257.368z
		 M86.498,311.652c-0.322-0.184-0.646-0.319-0.96-0.428c1.619-0.849,3.427-0.279,3.044-1.104c-0.438-0.928-2.948-3.21-4.681-1.755
		c-0.582,0.481-1.04,0.938-1.378,1.354c-0.009-0.521-0.072-1.146-0.19-1.854c-0.389-2.359-3.642-2.537-4.531-2.18
		c-0.801,0.323,0.977,1.293,1.622,3.204c-0.365-0.211-0.776-0.396-1.226-0.521c-1.857-0.561-3.613-0.104-3.922,1.015
		c-0.31,1.115,1.093,1.687,2.949,2.233c1.122,0.335,2.15,0.586,2.858,0.482c-0.321,0.424-0.592,0.969-0.766,1.594
		c-0.453,1.633,0.385,2.031,1.315,2.312c0.932,0.277,1.602,0.324,2.055-1.309c0.126-0.453,0.185-0.9,0.188-1.312
		c0.439,0.633,1.213,1.26,2.149,1.773c1.717,0.949,3.324,1.181,3.772,0.125C89.244,314.232,88.216,312.604,86.498,311.652z
		 M286.761,226.089c-0.116-0.772-1.239-1.208-2.506-0.967c-0.306,0.06-0.592,0.151-0.851,0.269c0.576-1.242,1.824-1.771,1.322-2.049
		c-0.562-0.307-2.726-0.42-3.158,1.146c-0.137,0.482-0.229,0.896-0.271,1.253c-0.188-0.31-0.455-0.646-0.805-1.022
		c-1.026-1.104-2.861,0.256-3.225,0.85c-0.316,0.523,0.924,0.272,1.928,0.975c-0.221,0.049-0.443,0.104-0.676,0.213
		c-1.207,0.521-2.021,1.544-1.81,2.289c0.218,0.746,1.29,0.706,2.496,0.188c0.66-0.281,1.229-0.648,1.562-1.055
		c-0.026,0.281-0.025,0.594,0.021,0.906c0.17,1.135,0.613,1.146,1.25,1.023c0.641-0.121,1.227-0.332,1.054-1.467
		c-0.062-0.438-0.198-0.819-0.385-1.127c0.458,0.111,1.157,0.021,1.925-0.127C285.908,227.145,286.877,226.863,286.761,226.089z"/>
	<path id="Color_1_x3C_Compound_Path_x3E_" fill="#C0CF7C" d="M407.808,334.301c-0.604-0.08-1.192-0.102-1.747-0.072
		c1.691-1.459,4.321-1.529,3.512-2.188c-0.91-0.729-4.948-2.038-6.541-0.062c-0.484,0.604-0.855,1.146-1.114,1.612
		c-0.214-0.53-0.562-1.146-1.032-1.854c-1.414-2.107-5.552-1.156-6.521-0.516c-0.854,0.568,1.604,0.877,3.181,2.375
		c-0.438-0.049-0.896-0.062-1.371-0.048c-2.54,0.097-4.562,1.115-4.521,2.281c0.046,1.167,2.104,1.687,4.646,1.59
		c1.385-0.051,2.622-0.271,3.458-0.648c-0.194,0.382-0.337,0.812-0.396,1.286c-0.229,1.691,0.606,1.95,1.875,2.117
		c1.267,0.166,2.479,0.182,2.69-1.517c0.086-0.646,0.021-1.271-0.176-1.8c0.812,0.406,2.185,0.646,3.706,0.848
		c2.52,0.333,4.493,0.45,4.646-0.708C412.246,335.842,410.327,334.633,407.808,334.301z M87.227,207.867
		c-0.457-0.006-0.893,0.033-1.292,0.104c1.112-1.225,3.036-1.52,2.374-1.929c-0.733-0.455-3.818-1.05-4.81,0.548
		c-0.3,0.486-0.525,0.913-0.672,1.287c-0.206-0.373-0.515-0.794-0.927-1.271c-1.23-1.424-4.184-0.352-4.838,0.215
		c-0.574,0.496,1.264,0.498,2.552,1.457c-0.323,0.016-0.663,0.035-1.012,0.101c-1.855,0.299-3.25,1.229-3.113,2.085
		c0.138,0.854,1.7,1.046,3.556,0.747c1.013-0.162,1.901-0.438,2.48-0.791c-0.109,0.297-0.174,0.628-0.177,0.979
		c-0.011,1.271,0.627,1.379,1.57,1.393c0.942,0.009,1.833-0.1,1.844-1.355c0.004-0.479-0.104-0.935-0.292-1.306
		c0.636,0.229,1.662,0.271,2.798,0.283c1.882,0.021,3.342-0.073,3.35-0.938C90.626,208.598,89.108,207.883,87.227,207.867z
		 M297.834,258.449c-0.359-0.139-0.717-0.24-1.062-0.311c1.604-0.978,3.562-0.615,3.062-1.355c-0.574-0.842-3.496-2.771-5.131-1.202
		c-0.557,0.53-0.979,1.008-1.283,1.44c-0.072-0.506-0.211-1.088-0.427-1.771c-0.703-2.216-4.146-2.059-5.028-1.621
		c-0.8,0.396,1.188,1.141,2.104,2.898c-0.401-0.164-0.857-0.297-1.354-0.381c-2.021-0.342-3.805,0.271-3.988,1.367
		c-0.187,1.1,1.355,1.489,3.375,1.836c1.227,0.207,2.33,0.344,3.062,0.18c-0.284,0.436-0.501,0.979-0.604,1.598
		c-0.271,1.604,0.652,1.904,1.672,2.075c1.014,0.172,1.725,0.146,1.99-1.456c0.069-0.447,0.075-0.881,0.025-1.277
		c0.541,0.562,1.438,1.08,2.479,1.48c1.922,0.732,3.644,0.792,3.979-0.268C301.04,260.637,299.755,259.186,297.834,258.449z
		 M74.612,310.053c-0.173-1.148-1.845-1.798-3.731-1.438c-0.457,0.087-0.883,0.225-1.266,0.396c0.857-1.854,2.717-2.645,1.968-3.058
		c-0.831-0.458-4.045-0.626-4.704,1.706c-0.2,0.709-0.335,1.322-0.404,1.854c-0.283-0.45-0.681-0.95-1.193-1.512
		c-1.53-1.646-4.264,0.383-4.8,1.271c-0.473,0.773,1.368,0.404,2.859,1.43c-0.323,0.07-0.656,0.184-0.993,0.326
		c-1.798,0.771-2.999,2.301-2.684,3.406c0.316,1.104,1.921,1.056,3.719,0.271c0.98-0.422,1.813-0.97,2.318-1.562
		c-0.046,0.42-0.041,0.875,0.03,1.347c0.253,1.688,0.917,1.713,1.862,1.532c0.946-0.187,1.816-0.494,1.563-2.188
		c-0.099-0.646-0.3-1.226-0.566-1.683c0.685,0.175,1.724,0.027,2.863-0.188C73.343,311.626,74.786,311.207,74.612,310.053z
		 M167.035,261.361c-0.271,0.015-0.524,0.06-0.754,0.129c0.535-0.973,1.644-1.27,1.208-1.557c-0.483-0.316-2.379-0.654-2.804,0.599
		c-0.131,0.387-0.216,0.719-0.264,1.012c-0.161-0.278-0.386-0.589-0.685-0.94c-0.878-1.035-2.523-0.104-2.854,0.354
		c-0.29,0.396,0.808,0.332,1.673,1.021c-0.192,0.021-0.393,0.051-0.597,0.104c-1.073,0.299-1.805,1.061-1.636,1.699
		c0.17,0.646,1.119,0.729,2.191,0.438c0.592-0.162,1.091-0.408,1.396-0.707c-0.035,0.229-0.043,0.49-0.008,0.77
		c0.125,0.96,0.516,1.021,1.077,0.992c0.562-0.025,1.079-0.143,0.954-1.104c-0.048-0.369-0.158-0.707-0.31-0.98
		c0.401,0.146,1.017,0.146,1.695,0.111c1.121-0.062,1.979-0.188,1.894-0.84C169.132,261.789,168.154,261.305,167.035,261.361z
		 M179.921,267.426c-0.117-0.773-1.238-1.208-2.505-0.967c-0.306,0.059-0.593,0.15-0.85,0.271c0.575-1.246,1.822-1.773,1.32-2.051
		c-0.558-0.312-2.716-0.43-3.158,1.146c-0.136,0.481-0.223,0.896-0.268,1.255c-0.192-0.309-0.456-0.646-0.805-1.023
		c-1.026-1.104-2.861,0.256-3.223,0.854c-0.316,0.521,0.926,0.271,1.928,0.964c-0.22,0.049-0.444,0.109-0.676,0.213
		c-1.206,0.521-2.013,1.545-1.801,2.29c0.213,0.745,1.291,0.706,2.497,0.188c0.66-0.282,1.22-0.65,1.561-1.051
		c-0.032,0.274-0.031,0.59,0.017,0.899c0.17,1.142,0.615,1.146,1.25,1.024c0.635-0.119,1.219-0.328,1.049-1.471
		c-0.064-0.438-0.203-0.812-0.38-1.129c0.458,0.116,1.157,0.021,1.923-0.125C179.068,268.482,180.037,268.201,179.921,267.426z
		 M330.2,322.713c-0.211-0.117-0.423-0.201-0.63-0.271c1.05-0.549,2.225-0.188,1.976-0.711c-0.282-0.604-1.903-2.068-3.021-1.137
		c-0.389,0.318-0.685,0.609-0.896,0.887c-0.006-0.346-0.042-0.735-0.119-1.213c-0.251-1.521-2.353-1.641-2.927-1.397
		c-0.519,0.209,0.63,0.835,1.048,2.062c-0.229-0.139-0.502-0.254-0.792-0.343c-1.2-0.354-2.333-0.062-2.532,0.655
		c-0.192,0.721,0.705,1.086,1.904,1.44c0.729,0.218,1.396,0.378,1.854,0.312c-0.209,0.271-0.393,0.625-0.498,1.027
		c-0.293,1.055,0.25,1.312,0.854,1.49c0.604,0.183,1.033,0.213,1.327-0.848c0.081-0.298,0.114-0.586,0.114-0.854
		c0.283,0.404,0.785,0.812,1.395,1.146c1.105,0.609,2.146,0.768,2.438,0.08C331.975,324.378,331.309,323.326,330.2,322.713z"/>
	<path id="Color_2_Compund_path" fill="#FFD93B" d="M387.491,328.834c0.71-0.229,1.387-0.104,1.511,0.281
		c0.125,0.385-0.352,0.883-1.061,1.105c-0.709,0.229-1.396,0.104-1.52-0.275C386.309,329.561,386.782,329.062,387.491,328.834z
		 M71.791,205.688c0.5-0.229,1.009-0.201,1.135,0.069s-0.178,0.681-0.678,0.912c-0.5,0.233-1.008,0.202-1.135-0.069
		C70.986,206.329,71.29,205.92,71.791,205.688z M415.975,205.4c0.372-0.119,0.729-0.055,0.791,0.146
		c0.064,0.201-0.184,0.462-0.556,0.582c-0.371,0.119-0.725,0.056-0.79-0.146C415.354,205.781,415.604,205.521,415.975,205.4z
		 M287.27,264.346c-0.055,0.377-0.594,0.658-1.203,0.631c-0.604-0.021-1.062-0.354-1.01-0.729c0.061-0.376,0.596-0.658,1.207-0.63
		C286.874,263.643,287.324,263.971,287.27,264.346z M72.229,316.729c0.053,0.396,0.558,0.691,1.129,0.662
		c0.57-0.023,0.993-0.375,0.942-0.771c-0.051-0.396-0.556-0.69-1.129-0.662C72.599,315.989,72.178,316.334,72.229,316.729z
		 M164.035,262.482c0.029,0.228,0.32,0.396,0.647,0.381c0.329-0.018,0.571-0.215,0.542-0.442c-0.028-0.228-0.319-0.396-0.647-0.381
		C164.248,262.059,164.005,262.256,164.035,262.482z M291.873,227.964c0.029,0.228,0.32,0.397,0.648,0.382
		c0.328-0.019,0.562-0.217,0.543-0.443c-0.03-0.227-0.32-0.396-0.649-0.379C292.086,227.538,291.844,227.736,291.873,227.964z"/>
	<path id="Color_1__x3C_Compound_Path_x3E_" fill="#FFC639" d="M410.117,328.036c0.676,0,1.225,0.224,1.225,0.497
		c0,0.271-0.548,0.498-1.225,0.498s-1.229-0.229-1.229-0.498C408.895,328.26,409.441,328.036,410.117,328.036z M88.358,203.055
		c0.497-0.062,0.919,0.055,0.943,0.254c0.025,0.202-0.356,0.416-0.854,0.479c-0.497,0.062-0.919-0.054-0.945-0.255
		C87.479,203.328,87.861,203.115,88.358,203.055z M427.841,204.963c0.354,0,0.646,0.116,0.646,0.26c0,0.146-0.287,0.262-0.646,0.262
		c-0.354,0-0.641-0.107-0.641-0.262C427.2,205.079,427.487,204.963,427.841,204.963z M293.221,257.732
		c0.537,0.091,0.938,0.373,0.896,0.631c-0.044,0.259-0.516,0.394-1.053,0.303c-0.537-0.09-0.938-0.373-0.896-0.631
		C292.214,257.777,292.686,257.643,293.221,257.732z M65.815,310.941c0.041,0.271,0.479,0.414,0.982,0.312
		c0.503-0.095,0.876-0.396,0.835-0.665c-0.041-0.269-0.479-0.406-0.982-0.312C66.148,310.373,65.774,310.67,65.815,310.941z
		 M174.016,268.021c0.027,0.183,0.323,0.271,0.659,0.215c0.338-0.064,0.589-0.266,0.562-0.446c-0.028-0.183-0.322-0.276-0.659-0.213
		C174.239,267.641,173.988,267.841,174.016,268.021z M280.855,226.686c0.021,0.188,0.312,0.277,0.658,0.215
		c0.338-0.062,0.588-0.266,0.562-0.438c-0.027-0.188-0.324-0.271-0.66-0.214C281.078,226.305,280.828,226.504,280.855,226.686z"/>
	<path id="Color_3_x3C_Compound_Path_x3E_" fill="#FFDB45" d="M401.896,335.895c-0.979-0.129-1.729-0.553-1.678-0.938
		c0.062-0.396,0.894-0.611,1.855-0.48c0.973,0.131,1.719,0.561,1.666,0.946C403.699,335.807,402.868,336.023,401.896,335.895z
		 M83.035,209.568c-0.727-0.008-1.312-0.25-1.311-0.545c0.002-0.297,0.594-0.528,1.319-0.522s1.312,0.251,1.31,0.546
		C84.352,209.341,83.761,209.575,83.035,209.568z M423.521,209.081c-0.52-0.067-0.899-0.29-0.872-0.496
		c0.021-0.207,0.462-0.319,0.971-0.253c0.51,0.066,0.896,0.289,0.872,0.496C424.466,209.035,424.03,209.148,423.521,209.081z
		 M275.557,259.432c0.112,0.361,0.825,0.489,1.594,0.286c0.771-0.202,1.295-0.661,1.188-1.021c-0.106-0.361-0.823-0.489-1.592-0.287
		C275.973,258.611,275.443,259.07,275.557,259.432z M83.185,311.557c-0.104,0.383-0.771,0.521-1.488,0.307
		c-0.716-0.213-1.211-0.689-1.105-1.069c0.105-0.382,0.771-0.519,1.489-0.306C82.796,310.695,83.291,311.177,83.185,311.557z
		 M328.061,322.65c-0.062,0.246-0.49,0.332-0.961,0.188c-0.463-0.139-0.772-0.443-0.715-0.688c0.068-0.246,0.498-0.332,0.963-0.195
		C327.809,322.094,328.129,322.404,328.061,322.65z"/>
</g>
<g id="FarTreeLine">
	<path id="Far_Trees" fill="#295440" d="M33.131,64.016l-0.01,1.832l-0.462-0.002l0.01-1.822c-2.124-0.116-3.81-2.383-3.794-5.159
		c0.016-2.843,1.809-5.138,4.003-5.125c2.195,0.012,3.962,2.327,3.946,5.169C36.808,61.616,35.181,63.82,33.131,64.016z
		 M27.566,57.145c0.018-3.144-2.517-5.705-5.659-5.724c-3.144-0.017-5.705,2.517-5.724,5.659c-0.017,3.002,2.297,5.469,5.243,5.7
		l-0.017,2.881l0.772,0.005l0.018-2.878C25.177,62.619,27.549,60.167,27.566,57.145z M14.008,55.666
		c0.021-3.745-1.264-6.788-2.868-6.797c-1.604-0.01-2.923,3.02-2.942,6.765c-0.021,3.425,1.054,6.257,2.466,6.722l-0.02,3.367
		l0.772,0.004l0.019-3.355C12.867,61.954,13.989,59.117,14.008,55.666z M46.652,58.57c0.013-2.207-1.768-4.006-3.975-4.019
		c-2.207-0.012-4.005,1.767-4.018,3.974c-0.012,2.082,1.571,3.8,3.604,3.998l-0.015,2.543l0.773,0.004l0.014-2.545
		C45.055,62.335,46.641,60.643,46.652,58.57z M57.346,54.994c0.021-3.812-2.021-6.914-4.562-6.928
		c-2.541-0.015-4.618,3.064-4.641,6.875c-0.02,3.643,1.847,6.629,4.229,6.9l-0.021,3.619l0.772,0.004l0.021-3.626
		C55.481,61.521,57.326,58.583,57.346,54.994z M67.654,57.762c0.015-2.607-2.088-4.734-4.696-4.748
		c-2.608-0.016-4.734,2.086-4.749,4.695c-0.015,2.555,2.004,4.643,4.539,4.74l-0.018,3.174l0.771,0.004l0.018-3.21
		C65.84,62.127,67.641,60.161,67.654,57.762z M2.473,53.234c-0.922-0.006-1.773,0.287-2.472,0.783v6.905
		c0.55,0.39,1.194,0.655,1.896,0.747l-0.021,3.812l0.772,0.004l0.021-3.788c2.228-0.115,4.005-1.945,4.019-4.204
		C6.7,55.154,4.812,53.247,2.473,53.234z"/>
</g>
<g id="SmallTrees">
	<path fill="#295440" d="M274.795,72.962c0.012-2.208-1.768-4.006-3.975-4.019c-2.207-0.012-4.006,1.768-4.021,3.975
		c-0.012,2.082,1.571,3.799,3.604,3.998l-0.016,2.542l0.772,0.005l0.017-2.545C273.198,76.727,274.783,75.033,274.795,72.962z
		 M285.488,69.385c0.021-3.812-2.021-6.914-4.562-6.928s-4.619,3.064-4.641,6.876c-0.021,3.644,1.846,6.629,4.229,6.899
		l-0.021,3.619l0.771,0.004l0.021-3.625C283.624,75.912,285.468,72.975,285.488,69.385z"/>
</g>
<g id="FirstTrees">
	<path fill="#3F725C" d="M368.626,152.105h-1.437v-7.895h1.437V152.105z M337.947,144.57h-1.438v7.894h1.438V144.57z M316.6,145.826
		h-1.437v7.894h1.437V145.826z M393.384,142.597h-1.436v7.895h1.436V142.597z M414.374,140.982h-1.438v7.894h1.438V140.982z
		 M436.979,136.139h-1.436v7.895h1.436V136.139z M292.738,146.723H291.3v7.895h1.438V146.723L292.738,146.723z"/>
	<path fill="#669B32" d="M379.999,130.5c0,8.824-5.524,15.978-12.339,15.978s-12.34-7.152-12.34-15.978s5.521-15.977,12.34-15.977
		C374.475,114.523,379.999,121.676,379.999,130.5z M337.285,126c-5.84,0-10.575,4.735-10.575,10.575
		c0,5.84,4.735,10.575,10.575,10.575c5.841,0,10.574-4.735,10.574-10.575C347.859,130.735,343.125,126,337.285,126z M315.91,122.4
		c-2.98,0-5.398,5.641-5.398,12.6s2.418,12.6,5.398,12.6c2.979,0,5.396-5.641,5.396-12.6S318.893,122.4,315.91,122.4z
		 M392.636,130.95c-4.101,0-7.426,3.324-7.426,7.425s3.325,7.425,7.426,7.425c4.104,0,7.425-3.324,7.425-7.425
		S396.735,130.95,392.636,130.95z M413.561,116.55c-4.723,0-8.55,5.742-8.55,12.825c0,7.084,3.827,12.825,8.55,12.825
		c4.729,0,8.561-5.741,8.561-12.825C422.11,122.292,418.282,116.55,413.561,116.55z M435.835,120.6c-4.846,0-8.774,3.93-8.774,8.775
		c0,4.847,3.938,8.775,8.774,8.775s8.775-3.93,8.775-8.775S440.682,120.6,435.835,120.6z M292.285,131.85
		c-4.35,0-7.875,3.525-7.875,7.875c0,4.351,3.525,7.875,7.875,7.875s7.876-3.525,7.876-7.875
		C300.161,135.376,296.635,131.85,292.285,131.85z"/>
</g>
<g>
	<path id="shape1" fill="#FFFFFF" d="M352.311,9.949h-30.709c-2.113,0-3.841,1.719-3.841,3.839c0,1.032,0.409,1.968,1.073,2.659
		h-16.725c-2.121,0-3.838,1.719-3.838,3.838c0,2.119,1.717,3.839,3.838,3.839h34.256c2.119,0,3.839-1.72,3.839-3.839
		c0-1.032-0.409-1.967-1.073-2.658h13.18c2.121,0,3.85-1.719,3.85-3.839C356.148,11.668,354.432,9.949,352.311,9.949z"/>
</g>
<g>
	<path id="shape2" fill="#FFFFFF" d="M120.809,14c0,2.609-2.114,4.725-4.725,4.725H91.785c-2.609,0-4.726-2.115-4.726-4.725l0,0
		c0-2.609,2.115-4.725,4.726-4.725h24.299C118.693,9.273,120.809,11.391,120.809,14L120.809,14z"/>
</g>
</svg>
