<svg xmlns="http://www.w3.org/2000/svg" xmlns:xlink="http://www.w3.org/1999/xlink" width="708" height="132" viewBox="0 0 708 132"><pattern x="-41.5" y="372.5" width="71.999" height="72" patternUnits="userSpaceOnUse" id="b" viewBox="28.856 -76.621 71.999 72" overflow="visible"><g fill="none"><path d="M28.856-4.621h71.999v-72H28.856z"/><path d="M28.856-76.621h71.999v72H28.856z"/><path d="M28.856-4.621v-72h71.999v72zM5.106-10.621l6 6M5.106-4.621l6-6"/><path stroke="#231F20" stroke-width=".3" stroke-linejoin="round" d="M21.372-66.105l17.999-18M21.372-60.105l23.999-24M21.372-54.105l29.999-30M21.372-48.105l35.999-36M21.372-42.105l41.999-42M21.372-36.105l47.999-48M21.372-30.105l53.999-54M21.372-24.105l59.999-60M21.372-18.105l65.999-66M21.372-12.105l71.999-72M21.372-6.105l77.999-78M21.372-.105l83.999-84M27.372-.105l77.999-78M33.371-.105l72-72M39.371-.105l66-66M45.371-.105l60-60M51.371-.105l54-54M57.371-.105l48-48M63.371-.105l42-42M69.371-.105l36-36M75.371-.105l30-30M81.371-.105l24-24M87.371-.105l18-18M93.371-.105l12-12"/><path stroke="#231F20" stroke-width=".3" stroke-linejoin="bevel" d="M.106-63.121l10-10"/></g></pattern><path fill="#B9C0C6" d="M0 0h708v.999H0z"/><path fill="#E9ECF0" d="M0 2h709v129.986H0z"/><linearGradient id="a" gradientUnits="userSpaceOnUse" x1="353" y1="600.499" x2="353" y2="543.376" gradientTransform="translate(0 -484)"><stop offset="0" stop-color="#fff"/><stop offset=".09" stop-color="#fff" stop-opacity=".91"/><stop offset="1" stop-color="#fff" stop-opacity="0"/></linearGradient><path opacity=".75" fill="url(#a)" d="M45 116c-12.131 0-22-9.869-22-22V38c0-12.131 9.869-22 22-22h616c12.131 0 22 9.869 22 22v56c0 12.131-9.869 22-22 22H45z"/><path fill="#FFF" d="M707 2h1v125h-1zM0 1h707v.999H0z"/><path fill="#C9CFD3" d="M661 13H45c-11.58 0-21 9.421-21 21v4c0-11.579 9.42-21 21-21h616c11.58 0 21 9.421 21 21v-4c0-11.579-9.42-21-21-21z"/><path fill="#D9DEE2" d="M661 17H45c-11.58 0-21 9.421-21 21v56c0 11.579 9.42 21 21 21h616c11.58 0 21-9.421 21-21V38c0-11.579-9.42-21-21-21z"/><pattern id="c" xlink:href="#b" patternTransform="translate(550.865 16786.71)"/><path opacity=".25" fill="url(#c)" d="M661 17H45c-11.58 0-21 9.421-21 21v56c0 11.579 9.42 21 21 21h616c11.58 0 21-9.421 21-21V38c0-11.579-9.42-21-21-21z"/><path fill="#B3B3B3" d="M0 127h709v1H0z"/></svg>