<?xml version="1.0" encoding="utf-8"?>
<!-- Generator: Adobe Illustrator 15.0.0, SVG Export Plug-In . SVG Version: 6.00 Build 0)  -->
<!DOCTYPE svg PUBLIC "-//W3C//DTD SVG 1.1//EN" "http://www.w3.org/Graphics/SVG/1.1/DTD/svg11.dtd">
<svg version="1.1" id="Layer_1" xmlns="http://www.w3.org/2000/svg" xmlns:xlink="http://www.w3.org/1999/xlink" x="0px" y="0px"
	 width="708px" height="132px" viewBox="0 0 708 132" enable-background="new 0 0 708 132" xml:space="preserve">
<pattern  x="-41.5" y="372.5" width="71.999" height="72" patternUnits="userSpaceOnUse" id="SVGID_3_" viewBox="28.856 -76.621 71.999 72" overflow="visible">
	<g>
		<polygon fill="none" points="28.856,-4.621 100.855,-4.621 100.855,-76.621 28.856,-76.621 		"/>
		<g>
			<polygon fill="none" points="28.856,-76.621 100.855,-76.621 100.855,-4.621 28.856,-4.621 			"/>
			<g>
				<polygon fill="none" points="28.856,-4.621 28.856,-76.621 100.855,-76.621 100.855,-4.621 				"/>
				<line fill="none" x1="5.106" y1="-10.621" x2="11.106" y2="-4.621"/>
				<line fill="none" x1="5.106" y1="-4.621" x2="11.106" y2="-10.621"/>
				
					<line fill="none" stroke="#231F20" stroke-width="0.3" stroke-linejoin="round" x1="21.372" y1="-66.105" x2="39.371" y2="-84.105"/>
				
					<line fill="none" stroke="#231F20" stroke-width="0.3" stroke-linejoin="round" x1="21.372" y1="-60.105" x2="45.371" y2="-84.105"/>
				
					<line fill="none" stroke="#231F20" stroke-width="0.3" stroke-linejoin="round" x1="21.372" y1="-54.105" x2="51.371" y2="-84.105"/>
				
					<line fill="none" stroke="#231F20" stroke-width="0.3" stroke-linejoin="round" x1="21.372" y1="-48.105" x2="57.371" y2="-84.105"/>
				
					<line fill="none" stroke="#231F20" stroke-width="0.3" stroke-linejoin="round" x1="21.372" y1="-42.105" x2="63.371" y2="-84.105"/>
				
					<line fill="none" stroke="#231F20" stroke-width="0.3" stroke-linejoin="round" x1="21.372" y1="-36.105" x2="69.371" y2="-84.105"/>
				
					<line fill="none" stroke="#231F20" stroke-width="0.3" stroke-linejoin="round" x1="21.372" y1="-30.105" x2="75.371" y2="-84.105"/>
				
					<line fill="none" stroke="#231F20" stroke-width="0.3" stroke-linejoin="round" x1="21.372" y1="-24.105" x2="81.371" y2="-84.105"/>
				
					<line fill="none" stroke="#231F20" stroke-width="0.3" stroke-linejoin="round" x1="21.372" y1="-18.105" x2="87.371" y2="-84.105"/>
				
					<line fill="none" stroke="#231F20" stroke-width="0.3" stroke-linejoin="round" x1="21.372" y1="-12.105" x2="93.371" y2="-84.105"/>
				
					<line fill="none" stroke="#231F20" stroke-width="0.3" stroke-linejoin="round" x1="21.372" y1="-6.105" x2="99.371" y2="-84.105"/>
				
					<line fill="none" stroke="#231F20" stroke-width="0.3" stroke-linejoin="round" x1="21.372" y1="-0.105" x2="105.371" y2="-84.105"/>
				
					<line fill="none" stroke="#231F20" stroke-width="0.3" stroke-linejoin="round" x1="27.372" y1="-0.105" x2="105.371" y2="-78.105"/>
				
					<line fill="none" stroke="#231F20" stroke-width="0.3" stroke-linejoin="round" x1="33.371" y1="-0.105" x2="105.371" y2="-72.105"/>
				
					<line fill="none" stroke="#231F20" stroke-width="0.3" stroke-linejoin="round" x1="39.371" y1="-0.105" x2="105.371" y2="-66.105"/>
				
					<line fill="none" stroke="#231F20" stroke-width="0.3" stroke-linejoin="round" x1="45.371" y1="-0.105" x2="105.371" y2="-60.105"/>
				
					<line fill="none" stroke="#231F20" stroke-width="0.3" stroke-linejoin="round" x1="51.371" y1="-0.105" x2="105.371" y2="-54.105"/>
				
					<line fill="none" stroke="#231F20" stroke-width="0.3" stroke-linejoin="round" x1="57.371" y1="-0.105" x2="105.371" y2="-48.105"/>
				
					<line fill="none" stroke="#231F20" stroke-width="0.3" stroke-linejoin="round" x1="63.371" y1="-0.105" x2="105.371" y2="-42.105"/>
				
					<line fill="none" stroke="#231F20" stroke-width="0.3" stroke-linejoin="round" x1="69.371" y1="-0.105" x2="105.371" y2="-36.105"/>
				
					<line fill="none" stroke="#231F20" stroke-width="0.3" stroke-linejoin="round" x1="75.371" y1="-0.105" x2="105.371" y2="-30.105"/>
				
					<line fill="none" stroke="#231F20" stroke-width="0.3" stroke-linejoin="round" x1="81.371" y1="-0.105" x2="105.371" y2="-24.105"/>
				
					<line fill="none" stroke="#231F20" stroke-width="0.3" stroke-linejoin="round" x1="87.371" y1="-0.105" x2="105.371" y2="-18.105"/>
				
					<line fill="none" stroke="#231F20" stroke-width="0.3" stroke-linejoin="round" x1="93.371" y1="-0.105" x2="105.371" y2="-12.105"/>
				
					<line fill="none" stroke="#231F20" stroke-width="0.3" stroke-linejoin="bevel" x1="0.106" y1="-63.121" x2="10.106" y2="-73.121"/>
			</g>
		</g>
	</g>
</pattern>
<rect fill="#B9C0C6" width="708" height="0.999"/>
<rect y="2" fill="#E9ECF0" width="709" height="129.986"/>
<linearGradient id="SVGID_1_" gradientUnits="userSpaceOnUse" x1="353.0005" y1="600.499" x2="353.0005" y2="543.3761" gradientTransform="matrix(1 0 0 1 0 -484)">
	<stop  offset="0" style="stop-color:#FFFFFF"/>
	<stop  offset="0.0896" style="stop-color:#FFFFFF;stop-opacity:0.9104"/>
	<stop  offset="1" style="stop-color:#FFFFFF;stop-opacity:0"/>
</linearGradient>
<path opacity="0.75" fill="url(#SVGID_1_)" enable-background="new    " d="M45,116c-12.131,0-22-9.869-22-22V38
	c0-12.131,9.869-22,22-22h616c12.131,0,22,9.869,22,22v56c0,12.131-9.869,22-22,22H45z"/>
<rect x="707" y="2" fill="#FFFFFF" width="1" height="125"/>
<g>
	<rect y="1" fill="#FFFFFF" width="707" height="0.999"/>
</g>
<path fill="#C9CFD3" d="M661,13H45c-11.58,0-21,9.421-21,21v4c0-11.579,9.42-21,21-21h616c11.58,0,21,9.421,21,21v-4
	C682,22.421,672.58,13,661,13z"/>
<path fill="#D9DEE2" d="M661,17H45c-11.58,0-21,9.421-21,21v56c0,11.579,9.42,21,21,21h616c11.58,0,21-9.421,21-21V38
	C682,26.421,672.58,17,661,17z"/>
<pattern  id="SVGID_2_" xlink:href="#SVGID_3_" patternTransform="matrix(1 0 0 1 550.8647 16786.7109)">
</pattern>
<path opacity="0.25" fill="url(#SVGID_2_)" enable-background="new    " d="M661,17H45c-11.58,0-21,9.421-21,21v56
	c0,11.579,9.42,21,21,21h616c11.58,0,21-9.421,21-21V38C682,26.421,672.58,17,661,17z"/>
<rect y="127" fill="#B3B3B3" width="709" height="1"/>
</svg>
