<svg xmlns="http://www.w3.org/2000/svg" width="51" height="57" viewBox="3 -13 51 57"><linearGradient id="a" gradientUnits="userSpaceOnUse" x1="-87.444" y1="-1194.49" x2="-87.444" y2="-1161.657" gradientTransform="matrix(1 0 0 -1 116 -1153.074)"><stop offset="0" stop-color="#fff"/><stop offset=".09" stop-color="#fff" stop-opacity=".91"/><stop offset="1" stop-color="#fff" stop-opacity="0"/></linearGradient><path opacity=".75" fill="url(#a)" d="M13.6 41.5c-4.4 0-8-3.6-8-8v-30c0-4.4 3.6-8 8-8h30c4.4 0 8 3.6 8 8v30c0 4.4-3.6 8-8 8h-30z"/><linearGradient id="b" gradientUnits="userSpaceOnUse" x1="-87.444" y1="-1194.49" x2="-87.444" y2="-1161.657" gradientTransform="matrix(1 0 0 -1 116 -1153.074)"><stop offset="0" stop-color="#fff"/><stop offset=".09" stop-color="#fff" stop-opacity=".91"/><stop offset="1" stop-color="#fff" stop-opacity="0"/></linearGradient><path opacity=".75" fill="url(#b)" d="M13.6 41.5c-4.4 0-8-3.6-8-8v-30c0-4.4 3.6-8 8-8h30c4.4 0 8 3.6 8 8v30c0 4.4-3.6 8-8 8h-30z"/><path fill="#D3924A" d="M51.1 33.5c0 4.1-3.4 7.5-7.5 7.5h-30c-4.1 0-7.5-3.4-7.5-7.5v-30C6.1-.6 9.4-4 13.6-4h30c4.1 0 7.5 3.4 7.5 7.5v30z"/><path fill="#FFB255" d="M43.6-3.5h-30c-3.9 0-7 3.1-7 7v30c0 3.9 3.1 7 7 7h30c3.9 0 7-3.1 7-7v-30c0-3.9-3.2-7-7-7z"/><path fill-opacity=".2" d="M43.6-3.5h-30c-3.9 0-7 3.1-7 7v30c0 3.9 3.1 7 7 7h30c3.9 0 7-3.1 7-7v-30c0-3.9-3.2-7-7-7zm5.5 37c0 3-2.5 5.5-5.5 5.5h-30c-3 0-5.5-2.5-5.5-5.5v-30c0-3 2.5-5.5 5.5-5.5h30c3 0 5.5 2.5 5.5 5.5v30z"/><linearGradient id="c" gradientUnits="userSpaceOnUse" x1="28.616" y1="4.392" x2="28.616" y2="29.587" gradientTransform="matrix(1 0 0 -1 0 32)"><stop offset="0" stop-color="#fff"/><stop offset=".09" stop-color="#fff" stop-opacity=".91"/><stop offset="1" stop-color="#fff" stop-opacity="0"/></linearGradient><path opacity=".3" fill="url(#c)" d="M36.1 27.6c-1 0-2-1-2-1.9V25h-.5v.7c0 .9-.7 1.9-1.7 1.9h-7.7c-.9 0-1.6-.8-1.6-1.9V25h-1v.7c0 .9-.8 1.9-1.8 1.9h-7.5c-1 0-1.7-1-1.7-1.9V23h1v-2h-1v-2.9c0-.9.5-2.1 1.7-2.1H15c.5-3.6 3.8-6.5 7.6-6.5 2.4 0 4.7 1.2 6.1 3.1.6-.8 1.4-1.5 2.3-2l-6.6-3.9 7.5-4.2v2.7c3.3.2 5.9 1.3 7.8 3.2 2.5 2.6 3 5.9 3.1 7.7h1.1c1.1 0 1.8 1.2 1.8 2.1v.9h1v6h-1v.7c0 1-.9 1.9-1.9 1.9l-7.7-.1zm-23.5-2h7V23h1.5v-2h-1.5v-2.9-.1h-7v1h1v6h-1v.6zm23.5 0s.1 0 0 0l7.5.1V23h1v-2h-1v-2.9-.1h-.9l.2.5-.4-.5h-6.1s0 .1-.1.1v.9h1.1v6h-1.3v.6zM24.6 25v.6h7V23h1v-2h-1v-2.9-.1h-7v1h1v6h-1zm10-2h.8v-2h-.8v2zm-11.5 0h.5v-2h-.5v2zm10.5-4h.7v-1c0-.9.8-2 1.9-2h3c-.5-1.8-2.3-3.5-4.4-3.5-2.1 0-3.9 1.8-4.4 3.5h1.5c1.1 0 1.7 1.3 1.7 2.1v.9zm-12 0h1v-.9c0-1 .6-2.1 1.6-2.1H27c-.5-1.8-2.3-3.5-4.4-3.5-2.1 0-3.9 1.8-4.4 3.5h1.7c1.1 0 1.7 1.2 1.7 2.1v.9zm10-10.8v2c1.4-.6 3.1-.8 4.7-.5-1.2-.9-2.7-1.3-4.7-1.5zm-3.2-1.5l1.2.7V6.2h.3v-.4l-1.5.9z"/><path fill="none" stroke="#D3924A" stroke-width="1.5" stroke-miterlimit="10" d="M44.6 20v-1.9c0-.4-.4-1.1-.8-1.1h-2.1c0-.5.2-4.8-2.8-8-1.9-2-4.6-3-8-3V4.1l-4.5 2.5 4.2 2.5v-2c3.5 0 5.7.9 7.4 2.7.9 1 1.6 2.1 2 3.2-1.2-1.6-3.1-2.6-5.2-2.6-2.7 0-5.1 1.6-6.1 4-1-2.3-3.4-4.1-6.1-4.1-3.7 0-6.6 3-6.6 6.5h-3.7c-.4 0-.7.7-.7 1.1V20h1v4h-1v1.7c0 .4.3.9.7.9h7.5c.4 0 .8-.5.8-.9V24h1.5v-4h-1.5v-1.9c0-.4-.3-1.1-.7-1.1H17c0-2.5 2.5-5.5 5.5-5.5 3.1 0 5.5 3 5.5 5.5h-3.9c-.4 0-.6.7-.6 1.1V20h1v4h-1v1.7c0 .4.2.9.6.9h7.7c.4 0 .7-.5.7-.9V24h1v-4h-1v-1.9c0-.4-.3-1.1-.7-1.1h-2.6c0-2.5 2.5-5.5 5.5-5.5 3.1 0 5.5 3 5.5 5.5h-4.1c-.4 0-.9.6-.9 1v2h1.1v4H35v1.7c0 .4.6.9 1 .9h7.6c.4 0 .9-.5.9-.9V24h1v-4h-.9z"/><path fill="#FFF" d="M44.6 20.3v-1.9c0-.4-.4-1.1-.8-1.1h-2.1c0-.5.2-4.8-2.8-8-1.9-2-4.6-3-8-3V4.4L26.4 7l4.2 2.5v-2c3.5 0 5.7.9 7.4 2.7.9 1 1.6 2.1 2 3.2-1.2-1.6-3.1-2.6-5.2-2.6-2.7 0-5.1 1.6-6.1 4-1-2.3-3.4-4.1-6.1-4.1-3.7 0-6.6 3-6.6 6.5h-3.7c-.4 0-.7.7-.7 1.1v1.9h1v4h-1V26c0 .4.3.9.7.9h7.5c.4 0 .8-.5.8-.9v-1.7h1.5v-4h-1.5v-1.9c0-.4-.3-1.1-.7-1.1H17c0-2.5 2.5-5.5 5.5-5.5 3.1 0 5.5 3 5.5 5.5h-3.9c-.4 0-.6.7-.6 1.1v1.9h1v4h-1V26c0 .4.2.9.6.9h7.7c.4 0 .7-.5.7-.9v-1.7h1v-4h-1v-1.9c0-.4-.3-1.1-.7-1.1h-2.6c0-2.5 2.5-5.5 5.5-5.5 3.1 0 5.5 3 5.5 5.5h-4.1c-.4 0-.9.6-.9 1v2h1.1v4H35V26c0 .4.6.9 1 .9h7.6c.4 0 .9-.5.9-.9v-1.7h1v-4h-.9z"/></svg>