<svg xmlns="http://www.w3.org/2000/svg" width="51" height="57" viewBox="0 0 51 57"><linearGradient id="a" gradientUnits="userSpaceOnUse" x1="-90.555" y1="-1116.074" x2="-90.555" y2="-1071.074" gradientTransform="matrix(1 0 0 -1 116 -1061.074)"><stop offset="0" stop-opacity=".5"/><stop offset=".09" stop-opacity=".455"/><stop offset="1" stop-opacity="0"/></linearGradient><path opacity=".5" fill="url(#a)" d="M47.945 47.5c0 4.125-3.375 7.5-7.5 7.5h-30c-4.125 0-7.5-3.375-7.5-7.5v-30c0-4.125 3.375-7.5 7.5-7.5h30c4.125 0 7.5 3.375 7.5 7.5v30z"/><path fill="#C9BF8B" d="M47.945 46.5c0 4.125-3.375 7.5-7.5 7.5h-30c-4.125 0-7.5-3.375-7.5-7.5v-30c0-4.125 3.375-7.5 7.5-7.5h30c4.125 0 7.5 3.375 7.5 7.5v30z"/><linearGradient id="b" gradientUnits="userSpaceOnUse" x1="-90.555" y1="-1117.672" x2="-90.555" y2="-1073.103" gradientTransform="matrix(1 0 0 -1 116 -1061.074)"><stop offset="0" stop-opacity=".5"/><stop offset=".09" stop-opacity=".455"/><stop offset="1" stop-opacity="0"/></linearGradient><path opacity=".5" fill="url(#b)" d="M47.945 48.5c0 4.125-3.375 7.5-7.5 7.5h-30c-4.125 0-7.5-3.375-7.5-7.5v-30c0-4.125 3.375-7.5 7.5-7.5h30c4.125 0 7.5 3.375 7.5 7.5v30z"/><path fill="#D3924A" d="M48.057 46.5c0 4.125-3.375 7.5-7.5 7.5h-30c-4.125 0-7.5-3.375-7.5-7.5v-30c0-4.125 3.375-7.5 7.5-7.5h30c4.125 0 7.5 3.375 7.5 7.5v30z"/><path fill="#D3924A" d="M48.057 36.5c0 4.125-3.375 7.5-7.5 7.5h-30c-4.125 0-7.5-3.375-7.5-7.5v-28c0-4.125 3.375-7.5 7.5-7.5h30c4.125 0 7.5 3.375 7.5 7.5v28z"/><path fill="#FFCB83" d="M40.557 1.5h-30c-3.858 0-7 3.14-7 7v30c0 3.859 3.142 7 7 7h30c3.859 0 7-3.141 7-7v-30c0-3.86-3.141-7-7-7zm6.5 37c0 3.584-2.916 6.5-6.5 6.5h-30a6.508 6.508 0 0 1-6.5-6.5v-30c0-3.584 2.916-6.5 6.5-6.5h30c3.584 0 6.5 2.916 6.5 6.5v30z"/><path opacity=".3" fill="#FFF" d="M40.557 1.5h-30c-3.858 0-7 3.14-7 7v30c0 3.859 3.142 7 7 7h30c3.859 0 7-3.141 7-7v-30c0-3.86-3.141-7-7-7zm6.5 37c0 3.584-2.916 6.5-6.5 6.5h-30a6.508 6.508 0 0 1-6.5-6.5v-30c0-3.584 2.916-6.5 6.5-6.5h30c3.584 0 6.5 2.916 6.5 6.5v30z"/><path fill="#F7EC9F" d="M40.557 2h-30a6.508 6.508 0 0 0-6.5 6.5v30c0 3.584 2.916 6.5 6.5 6.5h30c3.584 0 6.5-2.916 6.5-6.5v-30c0-3.584-2.916-6.5-6.5-6.5z"/><path fill="#FFB255" d="M40.557 2h-30a6.508 6.508 0 0 0-6.5 6.5v30c0 3.584 2.916 6.5 6.5 6.5h30c3.584 0 6.5-2.916 6.5-6.5v-30c0-3.584-2.916-6.5-6.5-6.5z"/><linearGradient id="c" gradientUnits="userSpaceOnUse" x1="-90.444" y1="1696.575" x2="-90.444" y2="1728.873" gradientTransform="translate(116 -1695)"><stop offset="0" stop-color="#fff" stop-opacity=".5"/><stop offset=".5" stop-color="#fff" stop-opacity="0"/><stop offset="1" stop-color="#fff" stop-opacity="0"/></linearGradient><path fill="url(#c)" d="M4.056 38.5c0 3.584 2.916 6.5 6.5 6.5h30c3.584 0 6.5-2.916 6.5-6.5v-30c0-3.584-2.916-6.5-6.5-6.5h-30a6.508 6.508 0 0 0-6.5 6.5"/><linearGradient id="d" gradientUnits="userSpaceOnUse" x1="25.56" y1="32.8" x2="25.56" y2="7.607"><stop offset="0" stop-color="#fff"/><stop offset=".09" stop-color="#fff" stop-opacity=".91"/><stop offset="1" stop-color="#fff" stop-opacity="0"/></linearGradient><path opacity=".3" fill="url(#d)" d="M33.039 32.8c-.981 0-1.98-.978-1.98-1.937v-.677h-.502v.677c0 .933-.693 1.932-1.725 1.932l-7.692.005c-.918 0-1.583-.814-1.583-1.937v-.678h-.999v.68c0 .913-.779 1.935-1.821 1.935H9.272c-1.026 0-1.715-1-1.715-1.935v-2.68h1v-2h-1v-2.87c0-.859.529-2.13 1.666-2.13h2.739c.513-3.639 3.77-6.547 7.567-6.547 2.41 0 4.652 1.182 6.088 3.116a7.666 7.666 0 0 1 2.283-2.009l-6.555-3.927 7.493-4.213.001 2.675c3.278.181 5.882 1.271 7.752 3.245 2.468 2.608 3.012 5.851 3.106 7.657h1.088c1.097 0 1.771 1.239 1.771 2.127l.006.877h1v6h-1v.676c0 .975-.937 1.932-1.891 1.932l-7.632.006zm-23.482-2h6.976l.024-2.614h1.5v-2h-1.5v-2.87a.533.533 0 0 0-.024-.13H9.577a.59.59 0 0 0-.02.13v.87h1v6h-1v.614zm23.502-.057c.02.021.044.041.065.057l7.438-.005v-2.607h1l-.002-2-1-.004-.004-2.873a.51.51 0 0 0-.043-.127h-.88l.164.474-.37-.474-6.103.003a.385.385 0 0 0-.057.106l.002.894h1.108l.001 6h-1.321v.556zm-11.503-.557v.614l6.983-.005.018-2.608h1v-2h-1v-2.872a.551.551 0 0 0-.032-.128l-6.955-.001a.78.78 0 0 0-.014.129v.871h1v6h-1zm10.001-1.999h.823l-.001-2h-.822v2zm-11.5-.001h.499v-2h-.499v2zm10.5-3.999h.717v-.952c0-.928.834-2.048 1.869-2.048h2.96c-.524-1.775-2.331-3.538-4.384-3.538-2.055.001-3.861 1.764-4.386 3.538h1.495c1.113 0 1.729 1.258 1.729 2.128v.872zm-12-.001h.999v-.871c0-1.032.569-2.129 1.625-2.129h2.739c-.524-1.775-2.331-3.538-4.385-3.538-2.054.001-3.861 1.764-4.385 3.538h1.719c1.102 0 1.688 1.237 1.688 2.13v.87zm10.004-10.748v1.971a7.737 7.737 0 0 1 4.657-.517c-1.209-.885-2.687-1.343-4.657-1.454zm-3.231-1.564l1.231.738v-1.2h.28v-.387l-1.511.849z"/><path fill="none" stroke="#D3924A" stroke-width="1.5" stroke-miterlimit="10" d="M41.557 25.184v-1.873c0-.421-.353-1.127-.771-1.127H38.71c.019-.5.164-4.79-2.844-7.97-1.892-1.997-4.589-2.959-8.025-2.959l-.001-1.94-4.502 2.531 4.223 2.53v-1.965c3.5 0 5.688.893 7.354 2.654a9.068 9.068 0 0 1 1.974 3.237c-1.218-1.561-3.072-2.567-5.203-2.566-2.729 0-5.051 1.646-6.073 3.993-1.025-2.349-3.357-4.091-6.083-4.091-3.67 0-6.638 3.047-6.638 6.547H9.223c-.42 0-.666.71-.666 1.13v1.87h1v4h-1v1.68c0 .42.295.935.715.935h7.464c.421 0 .821-.515.821-.935v-1.68h1.5v-4h-1.5v-1.87c0-.42-.27-1.13-.688-1.13h-2.871c-.001-2.5 2.481-5.536 5.537-5.538 3.053 0 5.538 3.038 5.538 5.538h-3.892c-.42 0-.625.709-.625 1.129v1.871h1v4h-1v1.678c0 .42.163.937.583.937l7.693-.005c.42 0 .725-.51.725-.932v-1.677h1v-4h-1v-1.872c0-.419-.312-1.128-.729-1.128H26.18c0-2.5 2.483-5.536 5.537-5.538 3.055-.001 5.538 3.038 5.539 5.538h-4.113c-.42 0-.869.628-.869 1.048v1.952h1.105l.001 4h-1.321v1.677c0 .42.561.937.979.937l7.634-.005c.421 0 .891-.512.891-.932v-1.676h1v-4h-1.002v-.004h-.004z"/><path fill="#FFF" d="M41.557 25.5v-1.873c0-.421-.353-1.127-.771-1.127H38.71c.019-.5.164-4.79-2.844-7.97-1.892-1.997-4.589-2.959-8.025-2.959l-.001-1.939-4.502 2.531 4.223 2.53v-1.965c3.5 0 5.688.893 7.354 2.654a9.068 9.068 0 0 1 1.974 3.237c-1.218-1.561-3.072-2.567-5.203-2.566-2.729 0-5.051 1.646-6.073 3.993-1.025-2.349-3.357-4.091-6.083-4.091-3.67 0-6.638 3.047-6.638 6.547H9.223c-.42 0-.666.71-.666 1.13v1.87h1v4h-1v1.68c0 .42.295.935.715.935h7.464c.421 0 .821-.515.821-.935v-1.68h1.5v-4h-1.5v-1.87c0-.42-.27-1.13-.688-1.13h-2.871c-.001-2.5 2.481-5.536 5.537-5.538 3.053 0 5.538 3.038 5.538 5.538h-3.892c-.42 0-.625.709-.625 1.129v1.871h1v4h-1v1.678c0 .42.163.937.583.937l7.693-.005c.42 0 .725-.51.725-.932v-1.677h1v-4h-1v-1.872c0-.419-.312-1.128-.729-1.128H26.18c0-2.5 2.483-5.536 5.537-5.538 3.055-.001 5.538 3.038 5.539 5.538h-4.113c-.42 0-.869.628-.869 1.048v1.952h1.105l.001 4h-1.321v1.677c0 .42.561.937.979.937l7.634-.005c.421 0 .891-.512.891-.932v-1.676h1v-4h-1.002V25.5h-.004z"/></svg>