<?xml version="1.0" encoding="utf-8"?>
<!-- Generator: Adobe Illustrator 15.0.0, SVG Export Plug-In . SVG Version: 6.00 Build 0)  -->
<!DOCTYPE svg PUBLIC "-//W3C//DTD SVG 1.1//EN" "http://www.w3.org/Graphics/SVG/1.1/DTD/svg11.dtd">
<svg version="1.1" id="Layer_1" xmlns="http://www.w3.org/2000/svg" xmlns:xlink="http://www.w3.org/1999/xlink" x="0px" y="0px"
	 width="51px" height="57px" viewBox="0 0 51 57" enable-background="new 0 0 51 57" xml:space="preserve">
<g>
	<g>
		
			<linearGradient id="SVGID_1_" gradientUnits="userSpaceOnUse" x1="-90.5552" y1="-1116.0737" x2="-90.5552" y2="-1071.0742" gradientTransform="matrix(1 0 0 -1 116 -1061.0742)">
			<stop  offset="0" style="stop-color:#000000;stop-opacity:0.5"/>
			<stop  offset="0.0896" style="stop-color:#000000;stop-opacity:0.4552"/>
			<stop  offset="1" style="stop-color:#000000;stop-opacity:0"/>
		</linearGradient>
		<path opacity="0.5" fill="url(#SVGID_1_)" enable-background="new    " d="M47.945,47.5c0,4.125-3.375,7.5-7.5,7.5h-30
			c-4.125,0-7.5-3.375-7.5-7.5v-30c0-4.125,3.375-7.5,7.5-7.5h30c4.125,0,7.5,3.375,7.5,7.5V47.5z"/>
		<path fill="#C9BF8B" d="M47.945,46.5c0,4.125-3.375,7.5-7.5,7.5h-30c-4.125,0-7.5-3.375-7.5-7.5v-30c0-4.125,3.375-7.5,7.5-7.5h30
			c4.125,0,7.5,3.375,7.5,7.5V46.5z"/>
		
			<linearGradient id="SVGID_2_" gradientUnits="userSpaceOnUse" x1="-90.5552" y1="-1117.6724" x2="-90.5552" y2="-1073.1028" gradientTransform="matrix(1 0 0 -1 116 -1061.0742)">
			<stop  offset="0" style="stop-color:#000000;stop-opacity:0.5"/>
			<stop  offset="0.0896" style="stop-color:#000000;stop-opacity:0.4552"/>
			<stop  offset="1" style="stop-color:#000000;stop-opacity:0"/>
		</linearGradient>
		<path opacity="0.5" fill="url(#SVGID_2_)" enable-background="new    " d="M47.945,48.5c0,4.125-3.375,7.5-7.5,7.5h-30
			c-4.125,0-7.5-3.375-7.5-7.5v-30c0-4.125,3.375-7.5,7.5-7.5h30c4.125,0,7.5,3.375,7.5,7.5V48.5z"/>
	</g>
	<g>
		<path fill="#D3924A" d="M48.057,46.5c0,4.125-3.375,7.5-7.5,7.5h-30c-4.125,0-7.5-3.375-7.5-7.5v-30c0-4.125,3.375-7.5,7.5-7.5h30
			c4.125,0,7.5,3.375,7.5,7.5V46.5z"/>
	</g>
	<path fill="#D3924A" d="M48.057,36.5c0,4.125-3.375,7.5-7.5,7.5h-30c-4.125,0-7.5-3.375-7.5-7.5v-28c0-4.125,3.375-7.5,7.5-7.5h30
		c4.125,0,7.5,3.375,7.5,7.5V36.5z"/>
	<g>
		<path fill="#FFCB83" d="M40.557,1.5h-30c-3.858,0-7,3.14-7,7v30c0,3.859,3.142,7,7,7h30c3.859,0,7-3.141,7-7v-30
			C47.557,4.64,44.416,1.5,40.557,1.5z M47.057,38.5c0,3.584-2.916,6.5-6.5,6.5h-30c-3.584,0-6.5-2.916-6.5-6.5v-30
			c0-3.584,2.916-6.5,6.5-6.5h30c3.584,0,6.5,2.916,6.5,6.5V38.5z"/>
		<path opacity="0.3" fill="#FFFFFF" enable-background="new    " d="M40.557,1.5h-30c-3.858,0-7,3.14-7,7v30c0,3.859,3.142,7,7,7
			h30c3.859,0,7-3.141,7-7v-30C47.557,4.64,44.416,1.5,40.557,1.5z M47.057,38.5c0,3.584-2.916,6.5-6.5,6.5h-30
			c-3.584,0-6.5-2.916-6.5-6.5v-30c0-3.584,2.916-6.5,6.5-6.5h30c3.584,0,6.5,2.916,6.5,6.5V38.5z"/>
		<path fill="#F7EC9F" d="M40.557,2h-30c-3.584,0-6.5,2.916-6.5,6.5v30c0,3.584,2.916,6.5,6.5,6.5h30c3.584,0,6.5-2.916,6.5-6.5v-30
			C47.057,4.916,44.141,2,40.557,2z"/>
		<path fill="#FFB255" d="M40.557,2h-30c-3.584,0-6.5,2.916-6.5,6.5v30c0,3.584,2.916,6.5,6.5,6.5h30c3.584,0,6.5-2.916,6.5-6.5v-30
			C47.057,4.916,44.141,2,40.557,2z"/>
		
			<linearGradient id="SVGID_3_" gradientUnits="userSpaceOnUse" x1="-90.4438" y1="1696.5752" x2="-90.4438" y2="1728.8734" gradientTransform="matrix(1 0 0 1 116 -1695)">
			<stop  offset="0" style="stop-color:#FFFFFF;stop-opacity:0.5"/>
			<stop  offset="0.5" style="stop-color:#FFFFFF;stop-opacity:0"/>
			<stop  offset="1" style="stop-color:#FFFFFF;stop-opacity:0"/>
		</linearGradient>
		<path fill="url(#SVGID_3_)" d="M4.056,38.5c0,3.584,2.916,6.5,6.5,6.5h30c3.584,0,6.5-2.916,6.5-6.5v-30
			c0-3.584-2.916-6.5-6.5-6.5h-30c-3.584,0-6.5,2.916-6.5,6.5"/>
	</g>
	<linearGradient id="SVGID_4_" gradientUnits="userSpaceOnUse" x1="25.5601" y1="32.7998" x2="25.5601" y2="7.6069">
		<stop  offset="0" style="stop-color:#FFFFFF"/>
		<stop  offset="0.0896" style="stop-color:#FFFFFF;stop-opacity:0.9104"/>
		<stop  offset="1" style="stop-color:#FFFFFF;stop-opacity:0"/>
	</linearGradient>
	<path opacity="0.3" fill="url(#SVGID_4_)" enable-background="new    " d="M33.039,32.8L33.039,32.8
		c-0.981,0-1.98-0.978-1.98-1.937v-0.677h-0.502v0.677c0,0.933-0.693,1.932-1.725,1.932L21.14,32.8
		c-0.918,0-1.583-0.814-1.583-1.937v-0.678h-0.999v0.68c0,0.913-0.779,1.935-1.821,1.935H9.272c-1.026,0-1.715-1-1.715-1.935v-2.68
		h1v-2h-1v-2.87c0-0.859,0.529-2.13,1.666-2.13h2.739c0.513-3.639,3.77-6.547,7.567-6.547c2.41,0,4.652,1.182,6.088,3.116
		c0.623-0.821,1.402-1.502,2.283-2.009l-6.555-3.927l7.493-4.213l0.001,2.675c3.278,0.181,5.882,1.271,7.752,3.245
		c2.468,2.608,3.012,5.851,3.106,7.657h1.088c1.097,0,1.771,1.239,1.771,2.127l0.006,0.877h1v6h-1v0.676
		c0,0.975-0.937,1.932-1.891,1.932L33.039,32.8z M9.557,30.8h6.976l0.024-2.614h1.5v-2h-1.5v-2.87c0-0.033-0.01-0.081-0.024-0.13
		H9.577c-0.012,0.048-0.02,0.096-0.02,0.13v0.87h1v6h-1V30.8z M33.059,30.743c0.02,0.021,0.044,0.041,0.065,0.057l7.438-0.005
		v-2.607h1l-0.002-2l-1-0.004l-0.004-2.873c-0.003-0.028-0.021-0.079-0.043-0.127h-0.88l0.164,0.474l-0.37-0.474l-6.103,0.003
		c-0.026,0.036-0.05,0.079-0.057,0.106l0.002,0.894h1.108l0.001,6h-1.321V30.743z M21.556,30.186V30.8l6.983-0.005l0.018-2.608h1v-2
		h-1v-2.872c-0.002-0.031-0.015-0.08-0.032-0.128l-6.955-0.001c-0.008,0.045-0.014,0.091-0.014,0.129v0.871h1v6H21.556z
		 M31.557,28.187h0.823l-0.001-2h-0.822V28.187z M20.057,28.186h0.499v-2h-0.499V28.186z M30.557,24.187h0.717v-0.952
		c0-0.928,0.834-2.048,1.869-2.048h2.96c-0.524-1.775-2.331-3.538-4.384-3.538c-2.055,0.001-3.861,1.764-4.386,3.538h1.495
		c1.113,0,1.729,1.258,1.729,2.128V24.187z M18.557,24.186h0.999v-0.871c0-1.032,0.569-2.129,1.625-2.129h2.739
		c-0.524-1.775-2.331-3.538-4.385-3.538c-2.054,0.001-3.861,1.764-4.385,3.538h1.719c1.102,0,1.688,1.237,1.688,2.13V24.186z
		 M28.561,13.438v1.971c1.422-0.641,3.104-0.836,4.657-0.517C32.009,14.007,30.531,13.549,28.561,13.438z M25.33,11.874l1.231,0.738
		v-1.2h0.28v-0.387L25.33,11.874z"/>
	<path fill="none" stroke="#D3924A" stroke-width="1.5" stroke-miterlimit="10" d="M41.557,25.184v-1.873
		c0-0.421-0.353-1.127-0.771-1.127H38.71c0.019-0.5,0.164-4.79-2.844-7.97c-1.892-1.997-4.589-2.959-8.025-2.959L27.84,9.315
		l-4.502,2.531l4.223,2.53v-1.965c3.5,0,5.688,0.893,7.354,2.654c0.938,0.988,1.595,2.141,1.974,3.237
		c-1.218-1.561-3.072-2.567-5.203-2.566c-2.729,0-5.051,1.646-6.073,3.993c-1.025-2.349-3.357-4.091-6.083-4.091
		c-3.67,0-6.638,3.047-6.638,6.547H9.223c-0.42,0-0.666,0.71-0.666,1.13v1.87h1v4h-1v1.68c0,0.42,0.295,0.935,0.715,0.935h7.464
		c0.421,0,0.821-0.515,0.821-0.935v-1.68h1.5v-4h-1.5v-1.87c0-0.42-0.27-1.13-0.688-1.13h-2.871c-0.001-2.5,2.481-5.536,5.537-5.538
		c3.053,0,5.538,3.038,5.538,5.538h-3.892c-0.42,0-0.625,0.709-0.625,1.129v1.871h1v4h-1v1.678c0,0.42,0.163,0.937,0.583,0.937
		l7.693-0.005c0.42,0,0.725-0.51,0.725-0.932v-1.677h1v-4h-1v-1.872c0-0.419-0.312-1.128-0.729-1.128H26.18
		c0-2.5,2.483-5.536,5.537-5.538c3.055-0.001,5.538,3.038,5.539,5.538h-4.113c-0.42,0-0.869,0.628-0.869,1.048v1.952h1.105l0.001,4
		h-1.321v1.677c0,0.42,0.561,0.937,0.979,0.937l7.634-0.005c0.421,0,0.891-0.512,0.891-0.932v-1.676h1v-4h-1.002v-0.004H41.557z"/>
	<path fill="#FFFFFF" d="M41.557,25.5v-1.873c0-0.421-0.353-1.127-0.771-1.127H38.71c0.019-0.5,0.164-4.79-2.844-7.97
		c-1.892-1.997-4.589-2.959-8.025-2.959L27.84,9.632l-4.502,2.531l4.223,2.53v-1.965c3.5,0,5.688,0.893,7.354,2.654
		c0.938,0.988,1.595,2.141,1.974,3.237c-1.218-1.561-3.072-2.567-5.203-2.566c-2.729,0-5.051,1.646-6.073,3.993
		c-1.025-2.349-3.357-4.091-6.083-4.091c-3.67,0-6.638,3.047-6.638,6.547H9.223c-0.42,0-0.666,0.71-0.666,1.13v1.87h1v4h-1v1.68
		c0,0.42,0.295,0.935,0.715,0.935h7.464c0.421,0,0.821-0.515,0.821-0.935v-1.68h1.5v-4h-1.5v-1.87c0-0.42-0.27-1.13-0.688-1.13
		h-2.871c-0.001-2.5,2.481-5.536,5.537-5.538c3.053,0,5.538,3.038,5.538,5.538h-3.892c-0.42,0-0.625,0.709-0.625,1.129v1.871h1v4h-1
		v1.678c0,0.42,0.163,0.937,0.583,0.937l7.693-0.005c0.42,0,0.725-0.51,0.725-0.932v-1.677h1v-4h-1v-1.872
		c0-0.419-0.312-1.128-0.729-1.128H26.18c0-2.5,2.483-5.536,5.537-5.538c3.055-0.001,5.538,3.038,5.539,5.538h-4.113
		c-0.42,0-0.869,0.628-0.869,1.048v1.952h1.105l0.001,4h-1.321v1.677c0,0.42,0.561,0.937,0.979,0.937l7.634-0.005
		c0.421,0,0.891-0.512,0.891-0.932v-1.676h1v-4h-1.002V25.5H41.557z"/>
</g>
</svg>
