<?xml version="1.0" encoding="utf-8"?>
<!-- Generator: Adobe Illustrator 19.0.0, SVG Export Plug-In . SVG Version: 6.00 Build 0)  -->
<!DOCTYPE svg PUBLIC "-//W3C//DTD SVG 1.1//EN" "http://www.w3.org/Graphics/SVG/1.1/DTD/svg11.dtd">
<svg version="1.1" id="Layer_1" xmlns="http://www.w3.org/2000/svg" xmlns:xlink="http://www.w3.org/1999/xlink" x="0px" y="0px"
	 width="51px" height="57px" viewBox="3 -13 51 57" enable-background="new 3 -13 51 57" xml:space="preserve">
<g>
	
		<linearGradient id="SVGID_1_" gradientUnits="userSpaceOnUse" x1="-87.444" y1="-1194.4902" x2="-87.444" y2="-1161.6572" gradientTransform="matrix(1 0 0 -1 116 -1153.0742)">
		<stop  offset="0" style="stop-color:#FFFFFF"/>
		<stop  offset="8.960000e-02" style="stop-color:#FFFFFF;stop-opacity:0.9104"/>
		<stop  offset="1" style="stop-color:#FFFFFF;stop-opacity:0"/>
	</linearGradient>
	<path opacity="0.75" fill="url(#SVGID_1_)" enable-background="new    " d="M13.6,41.5c-4.4,0-8-3.6-8-8v-30c0-4.4,3.6-8,8-8h30
		c4.4,0,8,3.6,8,8v30c0,4.4-3.6,8-8,8H13.6z"/>
	
		<linearGradient id="SVGID_2_" gradientUnits="userSpaceOnUse" x1="-87.444" y1="-1194.4902" x2="-87.444" y2="-1161.6572" gradientTransform="matrix(1 0 0 -1 116 -1153.0742)">
		<stop  offset="0" style="stop-color:#FFFFFF"/>
		<stop  offset="8.960000e-02" style="stop-color:#FFFFFF;stop-opacity:0.9104"/>
		<stop  offset="1" style="stop-color:#FFFFFF;stop-opacity:0"/>
	</linearGradient>
	<path opacity="0.75" fill="url(#SVGID_2_)" enable-background="new    " d="M13.6,41.5c-4.4,0-8-3.6-8-8v-30c0-4.4,3.6-8,8-8h30
		c4.4,0,8,3.6,8,8v30c0,4.4-3.6,8-8,8H13.6z"/>
	<path fill="#D3924A" d="M51.1,33.5c0,4.1-3.4,7.5-7.5,7.5h-30c-4.1,0-7.5-3.4-7.5-7.5v-30C6.1-0.6,9.4-4,13.6-4h30
		c4.1,0,7.5,3.4,7.5,7.5V33.5z"/>
	<path fill="#FFB255" d="M43.6-3.5h-30c-3.9,0-7,3.1-7,7v30c0,3.9,3.1,7,7,7h30c3.9,0,7-3.1,7-7v-30C50.6-0.4,47.4-3.5,43.6-3.5z"/>
	<path fill-opacity="0.2" d="M43.6-3.5h-30c-3.9,0-7,3.1-7,7v30c0,3.9,3.1,7,7,7h30c3.9,0,7-3.1,7-7v-30C50.6-0.4,47.4-3.5,43.6-3.5
		z M49.1,33.5c0,3-2.5,5.5-5.5,5.5h-30c-3,0-5.5-2.5-5.5-5.5v-30c0-3,2.5-5.5,5.5-5.5h30c3,0,5.5,2.5,5.5,5.5V33.5z"/>
	<g>
		
			<linearGradient id="SVGID_3_" gradientUnits="userSpaceOnUse" x1="28.6155" y1="4.392" x2="28.6155" y2="29.587" gradientTransform="matrix(1 0 0 -1 0 32)">
			<stop  offset="0" style="stop-color:#FFFFFF"/>
			<stop  offset="8.960000e-02" style="stop-color:#FFFFFF;stop-opacity:0.9104"/>
			<stop  offset="1" style="stop-color:#FFFFFF;stop-opacity:0"/>
		</linearGradient>
		<path opacity="0.3" fill="url(#SVGID_3_)" enable-background="new    " d="M36.1,27.6L36.1,27.6c-1,0-2-1-2-1.9V25h-0.5v0.7
			c0,0.9-0.7,1.9-1.7,1.9l-7.7,0c-0.9,0-1.6-0.8-1.6-1.9V25h-1v0.7c0,0.9-0.8,1.9-1.8,1.9h-7.5c-1,0-1.7-1-1.7-1.9V23h1v-2h-1v-2.9
			c0-0.9,0.5-2.1,1.7-2.1H15c0.5-3.6,3.8-6.5,7.6-6.5c2.4,0,4.7,1.2,6.1,3.1c0.6-0.8,1.4-1.5,2.3-2l-6.6-3.9l7.5-4.2l0,2.7
			c3.3,0.2,5.9,1.3,7.8,3.2c2.5,2.6,3,5.9,3.1,7.7h1.1c1.1,0,1.8,1.2,1.8,2.1l0,0.9h1v6h-1v0.7c0,1-0.9,1.9-1.9,1.9L36.1,27.6z
			 M12.6,25.6h7l0-2.6h1.5v-2h-1.5v-2.9c0,0,0-0.1,0-0.1h-7c0,0,0,0.1,0,0.1V19h1v6h-1V25.6z M36.1,25.6
			C36.1,25.6,36.2,25.6,36.1,25.6l7.5,0.1V23h1l0-2l-1,0l0-2.9c0,0,0-0.1,0-0.1h-0.9l0.2,0.5L42.5,18l-6.1,0c0,0,0,0.1-0.1,0.1
			l0,0.9h1.1l0,6h-1.3L36.1,25.6L36.1,25.6z M24.6,25v0.6l7,0l0-2.6h1v-2h-1v-2.9c0,0,0-0.1,0-0.1l-7,0c0,0,0,0.1,0,0.1V19h1v6
			C25.6,25,24.6,25,24.6,25z M34.6,23h0.8l0-2h-0.8V23z M23.1,23h0.5v-2h-0.5V23z M33.6,19h0.7v-1c0-0.9,0.8-2,1.9-2h3
			c-0.5-1.8-2.3-3.5-4.4-3.5c-2.1,0-3.9,1.8-4.4,3.5h1.5c1.1,0,1.7,1.3,1.7,2.1C33.6,18.1,33.6,19,33.6,19z M21.6,19h1v-0.9
			c0-1,0.6-2.1,1.6-2.1H27c-0.5-1.8-2.3-3.5-4.4-3.5c-2.1,0-3.9,1.8-4.4,3.5h1.7c1.1,0,1.7,1.2,1.7,2.1V19z M31.6,8.2v2
			c1.4-0.6,3.1-0.8,4.7-0.5C35.1,8.8,33.6,8.4,31.6,8.2z M28.4,6.7l1.2,0.7V6.2h0.3V5.8L28.4,6.7z"/>
		<path fill="none" stroke="#D3924A" stroke-width="1.5" stroke-miterlimit="10" d="M44.6,20v-1.9c0-0.4-0.4-1.1-0.8-1.1h-2.1
			c0-0.5,0.2-4.8-2.8-8c-1.9-2-4.6-3-8-3l0-1.9l-4.5,2.5l4.2,2.5v-2c3.5,0,5.7,0.9,7.4,2.7c0.9,1,1.6,2.1,2,3.2
			c-1.2-1.6-3.1-2.6-5.2-2.6c-2.7,0-5.1,1.6-6.1,4c-1-2.3-3.4-4.1-6.1-4.1c-3.7,0-6.6,3-6.6,6.5h-3.7c-0.4,0-0.7,0.7-0.7,1.1V20h1v4
			h-1v1.7c0,0.4,0.3,0.9,0.7,0.9h7.5c0.4,0,0.8-0.5,0.8-0.9V24h1.5v-4h-1.5v-1.9c0-0.4-0.3-1.1-0.7-1.1h-2.9c0-2.5,2.5-5.5,5.5-5.5
			c3.1,0,5.5,3,5.5,5.5h-3.9c-0.4,0-0.6,0.7-0.6,1.1V20h1v4h-1v1.7c0,0.4,0.2,0.9,0.6,0.9l7.7,0c0.4,0,0.7-0.5,0.7-0.9V24h1v-4h-1
			v-1.9c0-0.4-0.3-1.1-0.7-1.1h-2.6c0-2.5,2.5-5.5,5.5-5.5c3.1,0,5.5,3,5.5,5.5h-4.1c-0.4,0-0.9,0.6-0.9,1v2h1.1l0,4h-1.3v1.7
			c0,0.4,0.6,0.9,1,0.9l7.6,0c0.4,0,0.9-0.5,0.9-0.9V24h1v-4L44.6,20L44.6,20L44.6,20L44.6,20z"/>
		<path fill="#FFFFFF" d="M44.6,20.3v-1.9c0-0.4-0.4-1.1-0.8-1.1h-2.1c0-0.5,0.2-4.8-2.8-8c-1.9-2-4.6-3-8-3l0-1.9L26.4,7l4.2,2.5
			v-2c3.5,0,5.7,0.9,7.4,2.7c0.9,1,1.6,2.1,2,3.2c-1.2-1.6-3.1-2.6-5.2-2.6c-2.7,0-5.1,1.6-6.1,4c-1-2.3-3.4-4.1-6.1-4.1
			c-3.7,0-6.6,3-6.6,6.5h-3.7c-0.4,0-0.7,0.7-0.7,1.1v1.9h1v4h-1V26c0,0.4,0.3,0.9,0.7,0.9h7.5c0.4,0,0.8-0.5,0.8-0.9v-1.7h1.5v-4
			h-1.5v-1.9c0-0.4-0.3-1.1-0.7-1.1h-2.9c0-2.5,2.5-5.5,5.5-5.5c3.1,0,5.5,3,5.5,5.5h-3.9c-0.4,0-0.6,0.7-0.6,1.1v1.9h1v4h-1V26
			c0,0.4,0.2,0.9,0.6,0.9l7.7,0c0.4,0,0.7-0.5,0.7-0.9v-1.7h1v-4h-1v-1.9c0-0.4-0.3-1.1-0.7-1.1h-2.6c0-2.5,2.5-5.5,5.5-5.5
			c3.1,0,5.5,3,5.5,5.5h-4.1c-0.4,0-0.9,0.6-0.9,1v2h1.1l0,4h-1.3V26c0,0.4,0.6,0.9,1,0.9l7.6,0c0.4,0,0.9-0.5,0.9-0.9v-1.7h1v-4
			L44.6,20.3L44.6,20.3L44.6,20.3L44.6,20.3z"/>
	</g>
</g>
</svg>
