<svg xmlns="http://www.w3.org/2000/svg" width="51" height="57" viewBox="0 0 51 57"><linearGradient id="a" gradientUnits="userSpaceOnUse" x1="25.402" y1="-551" x2="25.402" y2="-506" gradientTransform="matrix(1 0 0 -1 0 -496)"><stop offset="0" stop-opacity=".5"/><stop offset=".09" stop-opacity=".455"/><stop offset="1" stop-opacity="0"/></linearGradient><path opacity=".5" fill="url(#a)" d="M47.902 47.5c0 4.125-3.375 7.5-7.5 7.5h-30c-4.125 0-7.5-3.375-7.5-7.5v-30c0-4.125 3.375-7.5 7.5-7.5h30c4.125 0 7.5 3.375 7.5 7.5v30z"/><path fill="#C9BF8B" d="M47.902 46.5c0 4.125-3.375 7.5-7.5 7.5h-30c-4.125 0-7.5-3.375-7.5-7.5v-30c0-4.125 3.375-7.5 7.5-7.5h30c4.125 0 7.5 3.375 7.5 7.5v30z"/><linearGradient id="b" gradientUnits="userSpaceOnUse" x1="25.402" y1="-552.597" x2="25.402" y2="-508.027" gradientTransform="matrix(1 0 0 -1 0 -496)"><stop offset="0" stop-opacity=".5"/><stop offset=".09" stop-opacity=".455"/><stop offset="1" stop-opacity="0"/></linearGradient><path opacity=".5" fill="url(#b)" d="M47.902 48.5c0 4.125-3.375 7.5-7.5 7.5h-30c-4.125 0-7.5-3.375-7.5-7.5v-30c0-4.125 3.375-7.5 7.5-7.5h30c4.125 0 7.5 3.375 7.5 7.5v30z"/><path fill="#A86AAD" d="M48.014 46.5c0 4.125-3.375 7.5-7.5 7.5h-30c-4.125 0-7.5-3.375-7.5-7.5v-30c0-4.125 3.375-7.5 7.5-7.5h30c4.125 0 7.5 3.375 7.5 7.5v30z"/><path fill="#A86AAD" d="M10.513 53.5c-3.86 0-7-3.141-7-7v-30c0-3.86 3.14-7 7-7h30c3.857 0 7 3.14 7 7v30c0 3.859-3.143 7-7 7h-30z"/><path fill="#A86AAD" d="M48.014 36.5c0 4.125-3.375 7.5-7.5 7.5h-30c-4.125 0-7.5-3.375-7.5-7.5v-28c0-4.125 3.375-7.5 7.5-7.5h30c4.125 0 7.5 3.375 7.5 7.5v28z"/><g><path fill="#C5B4D8" d="M40.514 1.5h-30c-3.86 0-7 3.14-7 7v30c0 3.859 3.14 7 7 7h30c3.859 0 7-3.141 7-7v-30c0-3.86-3.141-7-7-7zm6.5 37c0 3.584-2.916 6.5-6.5 6.5h-30a6.508 6.508 0 0 1-6.5-6.5v-30c0-3.584 2.916-6.5 6.5-6.5h30c3.584 0 6.5 2.916 6.5 6.5v30z"/><path opacity=".3" fill="#FFF" d="M40.514 1.5h-30c-3.86 0-7 3.14-7 7v30c0 3.859 3.14 7 7 7h30c3.859 0 7-3.141 7-7v-30c0-3.86-3.141-7-7-7zm6.5 37c0 3.584-2.916 6.5-6.5 6.5h-30a6.508 6.508 0 0 1-6.5-6.5v-30c0-3.584 2.916-6.5 6.5-6.5h30c3.584 0 6.5 2.916 6.5 6.5v30z"/><path fill="#F7EC9F" d="M40.514 2h-30a6.508 6.508 0 0 0-6.5 6.5v30c0 3.584 2.916 6.5 6.5 6.5h30c3.584 0 6.5-2.916 6.5-6.5v-30c0-3.584-2.916-6.5-6.5-6.5z"/><path fill="#CD7CD1" d="M40.514 2h-30a6.508 6.508 0 0 0-6.5 6.5v30c0 3.584 2.916 6.5 6.5 6.5h30c3.584 0 6.5-2.916 6.5-6.5v-30c0-3.584-2.916-6.5-6.5-6.5z"/><linearGradient id="c" gradientUnits="userSpaceOnUse" x1="25.556" y1="-1051.575" x2="25.556" y2="-1083.873" gradientTransform="matrix(1 0 0 -1 0 -1050)"><stop offset="0" stop-color="#fff" stop-opacity=".5"/><stop offset=".5" stop-color="#fff" stop-opacity="0"/><stop offset="1" stop-color="#fff" stop-opacity="0"/></linearGradient><path fill="url(#c)" d="M4.056 38.5c0 3.584 2.916 6.5 6.5 6.5h30c3.584 0 6.5-2.916 6.5-6.5v-30c0-3.584-2.916-6.5-6.5-6.5h-30a6.508 6.508 0 0 0-6.5 6.5v30z"/></g><g><path fill="#FFF" d="M31.471 37.812v-12c0-.412.088-.75.5-.75s.5.338.5.75v7.48c0 .976.715 2.209 1.689 2.209h.207c.975 0 2.104-1.233 2.104-2.209v-7.208-2.021c0-2.75-2.783-5.563-6.082-5.563h-9.5c-3.3 0-5.417 2.812-5.417 5.563v9.229c0 .976.214 2.209 1.189 2.209h.207c.975 0 2.604-1.233 2.604-2.209v-7.48c0-.412.088-.75.5-.75.412 0 .5.338.5.75V39.5h11v-1.688h-.001zM25.764 18.422c-2.758 0-5-2.243-5-5s2.242-5 5-5c2.755 0 5 2.243 5 5s-2.244 5-5 5z"/><path fill="#A86AAD" d="M20.471 35.812v-10c0-.412-.088-.75-.5-.75-.412 0-.5.338-.5.75v7.48c0 .976-1.629 2.209-2.604 2.209h-.207c-.975 0-1.189-1.233-1.189-2.209v-7.208-2.021c0-2.75 2.118-5.563 5.417-5.563h1.324c-.395-.5-.756-1-1.067-1h-.257c-3.862 0-6.417 2.967-6.417 6.563v9.228c0 1.666.523 3.209 2.189 3.209h.207c.661 0 1.604-.4 2.604-.764V38.5h1v-2.688zM34.16 36.5h.207c1.666 0 3.104-1.543 3.104-3.209v-9.228c0-3.26-2.896-6.563-7.082-6.563h-.007c-.312 0-.674.5-1.067 1h1.074c3.299 0 6.082 2.812 6.082 5.563v9.229c0 .976-1.129 2.209-2.104 2.209h-.207c-.975 0-1.689-1.233-1.689-2.209v-7.48c0-.412-.088-.75-.5-.75s-.5.338-.5.75V38.5h1v-2.764c1 .364 1.028.764 1.689.764zM19.888 13.399c0-3.036 2.315-5.584 5.273-5.884-3.031.302-5.397 2.953-5.397 6.063 0 1.456.518 2.422 1.381 3.922h.34c-.983-1-1.597-2.553-1.597-4.101z"/><path fill="#A86AAD" d="M31.639 13.406c0 1.549-.613 3.094-1.597 4.094h.34c.862-1.5 1.382-2.498 1.382-3.954a5.999 5.999 0 0 0-5.397-5.969c2.956.3 5.272 2.793 5.272 5.829zM26.994 18.5c-.396 0-.805.171-1.23.171s-.834-.171-1.231-.171h-2.32c.995.5 2.22 1.171 3.551 1.171 1.332 0 2.558-.671 3.55-1.171h-2.32zM28.348 18.5h.967c.396-.5.756-1 1.067-1h-.34c-.481 1-1.056 1-1.694 1zM22.212 18.5h.967c-.639 0-1.212 0-1.694-1h-.34c.311 0 .673.5 1.067 1z"/><path fill="#A86AAD" d="M19.888 13.399c0 1.549.614 3.102 1.597 4.102h1.103c-1.104-1-1.823-2.409-1.823-3.954 0-2.757 2.242-5.062 4.999-5.062s5 2.337 5 5.094c0 1.544-.719 2.922-1.822 3.922h1.104c.979-1 1.599-2.545 1.599-4.094 0-3.036-2.315-5.592-5.274-5.892-.197-.02-.397-.062-.601-.062-.205 0-.404.058-.603.077-2.963.3-5.279 2.833-5.279 5.869z"/><path fill="#A86AAD" d="M22.587 17.5h-1.103c.482 1 1.056 1 1.694 1h1.353c-.726-.5-1.383-1-1.944-1zM28.348 18.5c.639 0 1.213 0 1.694-1h-1.103c-.562 0-1.219.5-1.946 1h1.355zM19.471 38.5h13v1h-13z"/></g></svg>