<svg xmlns="http://www.w3.org/2000/svg" width="51" height="57" viewBox="0 0 51 57"><linearGradient id="a" gradientUnits="userSpaceOnUse" x1="25.557" y1="608.415" x2="25.557" y2="575.582" gradientTransform="translate(0 -554)"><stop offset="0" stop-color="#fff"/><stop offset=".09" stop-color="#fff" stop-opacity=".91"/><stop offset="1" stop-color="#fff" stop-opacity="0"/></linearGradient><path opacity=".75" fill="url(#a)" d="M10.556 54.5c-4.411 0-8-3.589-8-8v-30c0-4.411 3.589-8 8-8h30c4.409 0 8 3.589 8 8v30c0 4.411-3.591 8-8 8h-30z"/><linearGradient id="b" gradientUnits="userSpaceOnUse" x1="25.557" y1="608.415" x2="25.557" y2="575.582" gradientTransform="translate(0 -554)"><stop offset="0" stop-color="#fff"/><stop offset=".09" stop-color="#fff" stop-opacity=".91"/><stop offset="1" stop-color="#fff" stop-opacity="0"/></linearGradient><path opacity=".75" fill="url(#b)" d="M10.556 54.5c-4.411 0-8-3.589-8-8v-30c0-4.411 3.589-8 8-8h30c4.409 0 8 3.589 8 8v30c0 4.411-3.591 8-8 8h-30z"/><path fill="#A86AAD" d="M48.057 46.5c0 4.125-3.375 7.5-7.5 7.5h-30c-4.125 0-7.5-3.375-7.5-7.5v-30c0-4.125 3.375-7.5 7.5-7.5h30c4.125 0 7.5 3.375 7.5 7.5v30z"/><path fill="#CD7CD1" d="M40.557 9.5h-30c-3.86 0-7 3.14-7 7v30c0 3.859 3.14 7 7 7h30c3.859 0 7-3.141 7-7v-30c0-3.86-3.142-7-7-7z"/><path fill-opacity=".2" d="M40.557 9.5h-30c-3.86 0-7 3.14-7 7v30c0 3.859 3.14 7 7 7h30c3.859 0 7-3.141 7-7v-30c0-3.86-3.142-7-7-7zm5.5 37c0 3.032-2.468 5.5-5.5 5.5h-30a5.506 5.506 0 0 1-5.5-5.5v-30c0-3.033 2.467-5.5 5.5-5.5h30c3.032 0 5.5 2.467 5.5 5.5v30z"/><path fill-opacity=".1" d="M40.557 9.5h-30c-3.86 0-7 3.14-7 7v30c0 3.859 3.14 7 7 7h30c3.859 0 7-3.141 7-7v-30c0-3.86-3.142-7-7-7zm5.5 37c0 3.032-2.468 5.5-5.5 5.5h-30a5.506 5.506 0 0 1-5.5-5.5v-30c0-3.033 2.467-5.5 5.5-5.5h30c3.032 0 5.5 2.467 5.5 5.5v30z"/><g><path fill="#FFF" d="M31.471 45.159V33.415c0-.403.098-.733.5-.733.403 0 .5.33.5.733V40.733c0 .955.551 1.768 1.506 1.768h.203c.953 0 2.291-.812 2.291-1.768v-7.05-1.979c0-2.691-2.957-5.202-6.187-5.202h-9.298c-3.229 0-5.516 2.511-5.516 5.202v9.029c0 .955.423 1.768 1.377 1.768h.203c.954 0 2.42-.812 2.42-1.768V33.415c0-.403.097-.733.5-.733s.5.33.5.733V46.5h11v-1.341h.001zM25.758 26.182a4.9 4.9 0 0 1-4.893-4.894 4.9 4.9 0 0 1 4.893-4.895 4.9 4.9 0 0 1 4.895 4.895 4.903 4.903 0 0 1-4.895 4.894z"/><path fill="#A86AAD" d="M20.471 43.202v-9.788c0-.403-.097-.733-.5-.733s-.5.33-.5.733V40.732c0 .955-1.466 1.768-2.42 1.768h-.203c-.954 0-1.377-.812-1.377-1.768v-7.05-1.979c0-2.691 2.286-5.202 5.516-5.202h1.296c-.386-1-.739-1-1.044-1h-.252c-3.78 0-6.516 2.684-6.516 6.202v9.032c0 1.632.747 2.767 2.377 2.767h.203c.646 0 1.42-.019 2.42-.371v2.371h1v-2.3zM33.977 43.5h.203c1.629 0 3.291-1.136 3.291-2.768v-9.03c0-3.19-3.088-6.203-7.187-6.203h-.005c-.307 0-.66 0-1.045 1h1.051c3.23 0 6.188 2.511 6.188 5.203v9.03c0 .953-1.34 1.767-2.293 1.767h-.203c-.953 0-1.504-.812-1.504-1.767v-7.318c0-.403-.098-.734-.5-.734-.404 0-.5.331-.5.734V45.5h1v-2.371c.998.353.857.371 1.504.371zM20.008 21.376c0-2.971 2.266-5.521 5.161-5.814-2.967.295-5.282 2.973-5.282 6.017 0 1.424.507 2.921 1.352 3.921h.332c-.962-1-1.563-2.608-1.563-4.124z"/><path fill="#A86AAD" d="M31.508 21.383c0 1.516-.601 3.117-1.562 4.117h.334c.844-1 1.351-2.555 1.351-3.979a5.872 5.872 0 0 0-5.284-5.843c2.894.294 5.161 2.734 5.161 5.705zM26.962 26.5c-.388 0-.786.168-1.204.168s-.816-.168-1.204-.168H22.282c.975 0 2.173 1.147 3.476 1.147S28.26 26.5 29.234 26.5H26.962z"/><path fill="#A86AAD" d="M28.287 26h.945c.387-.5.74-.5 1.045-1h-.332c-.47 1-1.033 1-1.658 1zM22.282 26h.946c-.625 0-1.186 0-1.658-1h-.332c.305.5.658.5 1.044 1z"/><path fill="#A86AAD" d="M20.008 21.376c0 1.516.602 3.125 1.562 4.125h1.079c-1.081-1-1.784-2.468-1.784-3.979 0-2.698 2.194-5.01 4.893-5.01s4.895 2.37 4.895 5.068c0 1.511-.702 2.921-1.783 3.921h1.079c.961-1 1.562-2.601 1.562-4.117 0-2.972-2.268-5.528-5.162-5.822-.193-.02-.39-.088-.588-.088-.2 0-.396.098-.59.117-2.897.293-5.163 2.813-5.163 5.785z"/><path fill="#A86AAD" d="M22.649 25.5H21.57c.473 1 1.033 1 1.658 1h1.325c-.711 0-1.355-1-1.904-1zM28.287 26.5c.625 0 1.188 0 1.658-1h-1.078c-.551 0-1.193 1-1.905 1h1.325zM19.471 45.5h13v1h-13z"/></g></svg>