<?xml version="1.0" encoding="utf-8"?>
<!-- Generator: Adobe Illustrator 15.0.0, SVG Export Plug-In . SVG Version: 6.00 Build 0)  -->
<!DOCTYPE svg PUBLIC "-//W3C//DTD SVG 1.1//EN" "http://www.w3.org/Graphics/SVG/1.1/DTD/svg11.dtd">
<svg version="1.1" id="Layer_1" xmlns="http://www.w3.org/2000/svg" xmlns:xlink="http://www.w3.org/1999/xlink" x="0px" y="0px"
	 width="51px" height="57px" viewBox="0 0 51 57" enable-background="new 0 0 51 57" xml:space="preserve">
<g>
	<g>
		
			<linearGradient id="SVGID_1_" gradientUnits="userSpaceOnUse" x1="25.4019" y1="-550.9995" x2="25.4019" y2="-506" gradientTransform="matrix(1 0 0 -1 0 -496)">
			<stop  offset="0" style="stop-color:#000000;stop-opacity:0.5"/>
			<stop  offset="0.0896" style="stop-color:#000000;stop-opacity:0.4552"/>
			<stop  offset="1" style="stop-color:#000000;stop-opacity:0"/>
		</linearGradient>
		<path opacity="0.5" fill="url(#SVGID_1_)" enable-background="new    " d="M47.902,47.5c0,4.125-3.375,7.5-7.5,7.5h-30
			c-4.125,0-7.5-3.375-7.5-7.5v-30c0-4.125,3.375-7.5,7.5-7.5h30c4.125,0,7.5,3.375,7.5,7.5V47.5z"/>
		<path fill="#C9BF8B" d="M47.902,46.5c0,4.125-3.375,7.5-7.5,7.5h-30c-4.125,0-7.5-3.375-7.5-7.5v-30c0-4.125,3.375-7.5,7.5-7.5h30
			c4.125,0,7.5,3.375,7.5,7.5V46.5z"/>
		
			<linearGradient id="SVGID_2_" gradientUnits="userSpaceOnUse" x1="25.4019" y1="-552.5972" x2="25.4019" y2="-508.0269" gradientTransform="matrix(1 0 0 -1 0 -496)">
			<stop  offset="0" style="stop-color:#000000;stop-opacity:0.5"/>
			<stop  offset="0.0896" style="stop-color:#000000;stop-opacity:0.4552"/>
			<stop  offset="1" style="stop-color:#000000;stop-opacity:0"/>
		</linearGradient>
		<path opacity="0.5" fill="url(#SVGID_2_)" enable-background="new    " d="M47.902,48.5c0,4.125-3.375,7.5-7.5,7.5h-30
			c-4.125,0-7.5-3.375-7.5-7.5v-30c0-4.125,3.375-7.5,7.5-7.5h30c4.125,0,7.5,3.375,7.5,7.5V48.5z"/>
	</g>
	<path fill="#A86AAD" d="M48.014,46.5c0,4.125-3.375,7.5-7.5,7.5h-30c-4.125,0-7.5-3.375-7.5-7.5v-30c0-4.125,3.375-7.5,7.5-7.5h30
		c4.125,0,7.5,3.375,7.5,7.5V46.5z"/>
	<path fill="#A86AAD" d="M10.513,53.5c-3.86,0-7-3.141-7-7v-30c0-3.86,3.14-7,7-7h30c3.857,0,7,3.14,7,7v30c0,3.859-3.143,7-7,7
		H10.513z"/>
	<path fill="#A86AAD" d="M48.014,36.5c0,4.125-3.375,7.5-7.5,7.5h-30c-4.125,0-7.5-3.375-7.5-7.5v-28c0-4.125,3.375-7.5,7.5-7.5h30
		c4.125,0,7.5,3.375,7.5,7.5V36.5z"/>
	<g>
		<path fill="#C5B4D8" d="M40.514,1.5h-30c-3.86,0-7,3.14-7,7v30c0,3.859,3.14,7,7,7h30c3.859,0,7-3.141,7-7v-30
			C47.514,4.64,44.373,1.5,40.514,1.5z M47.014,38.5c0,3.584-2.916,6.5-6.5,6.5h-30c-3.584,0-6.5-2.916-6.5-6.5v-30
			c0-3.584,2.916-6.5,6.5-6.5h30c3.584,0,6.5,2.916,6.5,6.5V38.5z"/>
		<path opacity="0.3" fill="#FFFFFF" enable-background="new    " d="M40.514,1.5h-30c-3.86,0-7,3.14-7,7v30c0,3.859,3.14,7,7,7h30
			c3.859,0,7-3.141,7-7v-30C47.514,4.64,44.373,1.5,40.514,1.5z M47.014,38.5c0,3.584-2.916,6.5-6.5,6.5h-30
			c-3.584,0-6.5-2.916-6.5-6.5v-30c0-3.584,2.916-6.5,6.5-6.5h30c3.584,0,6.5,2.916,6.5,6.5V38.5z"/>
		<path fill="#F7EC9F" d="M40.514,2h-30c-3.584,0-6.5,2.916-6.5,6.5v30c0,3.584,2.916,6.5,6.5,6.5h30c3.584,0,6.5-2.916,6.5-6.5v-30
			C47.014,4.916,44.098,2,40.514,2z"/>
		<path fill="#CD7CD1" d="M40.514,2h-30c-3.584,0-6.5,2.916-6.5,6.5v30c0,3.584,2.916,6.5,6.5,6.5h30c3.584,0,6.5-2.916,6.5-6.5v-30
			C47.014,4.916,44.098,2,40.514,2z"/>
		
			<linearGradient id="SVGID_3_" gradientUnits="userSpaceOnUse" x1="25.5562" y1="-1051.5752" x2="25.5562" y2="-1083.8734" gradientTransform="matrix(1 0 0 -1 0 -1050)">
			<stop  offset="0" style="stop-color:#FFFFFF;stop-opacity:0.5"/>
			<stop  offset="0.5" style="stop-color:#FFFFFF;stop-opacity:0"/>
			<stop  offset="1" style="stop-color:#FFFFFF;stop-opacity:0"/>
		</linearGradient>
		<path fill="url(#SVGID_3_)" d="M4.056,38.5c0,3.584,2.916,6.5,6.5,6.5h30c3.584,0,6.5-2.916,6.5-6.5v-30
			c0-3.584-2.916-6.5-6.5-6.5h-30c-3.584,0-6.5,2.916-6.5,6.5V38.5z"/>
	</g>
	<g>
		<g>
			<path fill="#FFFFFF" d="M31.471,37.812v-6.25v-2.5v-3.25c0-0.412,0.088-0.75,0.5-0.75s0.5,0.338,0.5,0.75v0.272v5.479v1v0.729
				c0,0.976,0.715,2.209,1.689,2.209h0.207c0.975,0,2.104-1.233,2.104-2.209v-1.729v-5.479c0-0.723,0-1.421,0-2.021
				c0-2.75-2.783-5.563-6.082-5.563h-9.5c-3.3,0-5.417,2.812-5.417,5.563c0,0.601,0,1.299,0,2.021v5.479v1.729
				c0,0.976,0.214,2.209,1.189,2.209h0.207c0.975,0,2.604-1.233,2.604-2.209v-0.729v-1v-5.479v-0.272c0-0.412,0.088-0.75,0.5-0.75
				c0.412,0,0.5,0.338,0.5,0.75v1.75v1.5v2.5v1v5.25V39.5h11v-1.688H31.471z"/>
		</g>
		<path fill="#FFFFFF" d="M25.764,18.422c-2.758,0-5-2.243-5-5c0-2.757,2.242-5,5-5c2.755,0,5,2.243,5,5
			C30.764,16.179,28.52,18.422,25.764,18.422z"/>
		<path fill="#A86AAD" d="M20.471,35.812v-3.25v-1v-2.5v-1.5v-1.75c0-0.412-0.088-0.75-0.5-0.75c-0.412,0-0.5,0.338-0.5,0.75v0.272
			v5.479v1v0.729c0,0.976-1.629,2.209-2.604,2.209H16.66c-0.975,0-1.189-1.233-1.189-2.209v-1.729v-5.479c0-0.723,0-1.421,0-2.021
			c0-2.75,2.118-5.563,5.417-5.563h1.324c-0.395-0.5-0.756-1-1.067-1h-0.257c-3.862,0-6.417,2.967-6.417,6.563v9.228
			c0,1.666,0.523,3.209,2.189,3.209h0.207c0.661,0,1.604-0.4,2.604-0.764V38.5h1V35.812z"/>
		<path fill="#A86AAD" d="M34.16,36.5h0.207c1.666,0,3.104-1.543,3.104-3.209v-9.228c0-3.26-2.896-6.563-7.082-6.563h-0.007
			c-0.312,0-0.674,0.5-1.067,1h1.074c3.299,0,6.082,2.812,6.082,5.563c0,0.601,0,1.299,0,2.021v5.479v1.729
			c0,0.976-1.129,2.209-2.104,2.209H34.16c-0.975,0-1.689-1.233-1.689-2.209v-0.729v-1v-5.479v-0.272c0-0.412-0.088-0.75-0.5-0.75
			s-0.5,0.338-0.5,0.75v3.25v2.498v4.25V38.5h1v-2.764C33.471,36.1,33.499,36.5,34.16,36.5z"/>
		<path fill="#A86AAD" d="M19.888,13.399c0-3.036,2.315-5.584,5.273-5.884c-3.031,0.302-5.397,2.953-5.397,6.063
			c0,1.456,0.518,2.422,1.381,3.922h0.34C20.502,16.5,19.888,14.947,19.888,13.399z"/>
		<path fill="#A86AAD" d="M31.639,13.406c0,1.549-0.613,3.094-1.597,4.094h0.34c0.862-1.5,1.382-2.498,1.382-3.954
			c0-3.111-2.367-5.668-5.397-5.969C29.323,7.877,31.639,10.37,31.639,13.406z"/>
		<path fill="#A86AAD" d="M26.994,18.5c-0.396,0-0.805,0.171-1.23,0.171S24.93,18.5,24.533,18.5H23.18h-0.967
			c0.995,0.5,2.22,1.171,3.551,1.171c1.332,0,2.558-0.671,3.55-1.171h-0.967H26.994z"/>
		<path fill="#A86AAD" d="M28.348,18.5h0.967c0.396-0.5,0.756-1,1.067-1h-0.34C29.561,18.5,28.986,18.5,28.348,18.5z"/>
		<path fill="#A86AAD" d="M22.212,18.5h0.967c-0.639,0-1.212,0-1.694-1h-0.34C21.456,17.5,21.818,18,22.212,18.5z"/>
		<path fill="#A86AAD" d="M19.888,13.399c0,1.549,0.614,3.102,1.597,4.102h1.103c-1.104-1-1.823-2.409-1.823-3.954
			c0-2.757,2.242-5.062,4.999-5.062s5,2.337,5,5.094c0,1.544-0.719,2.922-1.822,3.922h1.104c0.979-1,1.599-2.545,1.599-4.094
			c0-3.036-2.315-5.592-5.274-5.892c-0.197-0.02-0.397-0.062-0.601-0.062c-0.205,0-0.404,0.058-0.603,0.077
			C22.204,7.83,19.888,10.363,19.888,13.399z"/>
		<path fill="#A86AAD" d="M22.587,17.5h-1.103c0.482,1,1.056,1,1.694,1h1.353C23.805,18,23.148,17.5,22.587,17.5z"/>
		<path fill="#A86AAD" d="M28.348,18.5c0.639,0,1.213,0,1.694-1h-1.103c-0.562,0-1.219,0.5-1.946,1H28.348z"/>
		<rect x="19.471" y="38.5" fill="#A86AAD" width="13" height="1"/>
	</g>
</g>
</svg>
