<?xml version="1.0" encoding="utf-8"?>
<!-- Generator: Adobe Illustrator 15.0.0, SVG Export Plug-In . SVG Version: 6.00 Build 0)  -->
<!DOCTYPE svg PUBLIC "-//W3C//DTD SVG 1.1//EN" "http://www.w3.org/Graphics/SVG/1.1/DTD/svg11.dtd">
<svg version="1.1" id="Layer_1" xmlns="http://www.w3.org/2000/svg" xmlns:xlink="http://www.w3.org/1999/xlink" x="0px" y="0px"
	 width="51px" height="57px" viewBox="0 0 51 57" enable-background="new 0 0 51 57" xml:space="preserve">
<g>
	
		<linearGradient id="SVGID_1_" gradientUnits="userSpaceOnUse" x1="25.5566" y1="608.415" x2="25.5566" y2="575.5817" gradientTransform="matrix(1 0 0 1 0 -554)">
		<stop  offset="0" style="stop-color:#FFFFFF"/>
		<stop  offset="0.0896" style="stop-color:#FFFFFF;stop-opacity:0.9104"/>
		<stop  offset="1" style="stop-color:#FFFFFF;stop-opacity:0"/>
	</linearGradient>
	<path opacity="0.75" fill="url(#SVGID_1_)" enable-background="new    " d="M10.556,54.5c-4.411,0-8-3.589-8-8v-30
		c0-4.411,3.589-8,8-8h30c4.409,0,8,3.589,8,8v30c0,4.411-3.591,8-8,8H10.556z"/>
	
		<linearGradient id="SVGID_2_" gradientUnits="userSpaceOnUse" x1="25.5566" y1="608.415" x2="25.5566" y2="575.5817" gradientTransform="matrix(1 0 0 1 0 -554)">
		<stop  offset="0" style="stop-color:#FFFFFF"/>
		<stop  offset="0.0896" style="stop-color:#FFFFFF;stop-opacity:0.9104"/>
		<stop  offset="1" style="stop-color:#FFFFFF;stop-opacity:0"/>
	</linearGradient>
	<path opacity="0.75" fill="url(#SVGID_2_)" enable-background="new    " d="M10.556,54.5c-4.411,0-8-3.589-8-8v-30
		c0-4.411,3.589-8,8-8h30c4.409,0,8,3.589,8,8v30c0,4.411-3.591,8-8,8H10.556z"/>
	<g>
		<path fill="#A86AAD" d="M48.057,46.5c0,4.125-3.375,7.5-7.5,7.5h-30c-4.125,0-7.5-3.375-7.5-7.5v-30c0-4.125,3.375-7.5,7.5-7.5h30
			c4.125,0,7.5,3.375,7.5,7.5V46.5z"/>
		<g>
			<path fill="#CD7CD1" d="M40.557,9.5h-30c-3.86,0-7,3.14-7,7v30c0,3.859,3.14,7,7,7h30c3.859,0,7-3.141,7-7v-30
				C47.557,12.64,44.415,9.5,40.557,9.5z"/>
		</g>
		<path fill-opacity="0.2" d="M40.557,9.5h-30c-3.86,0-7,3.14-7,7v30c0,3.859,3.14,7,7,7h30c3.859,0,7-3.141,7-7v-30
			C47.557,12.64,44.415,9.5,40.557,9.5z M46.057,46.5c0,3.032-2.468,5.5-5.5,5.5h-30c-3.033,0-5.5-2.468-5.5-5.5v-30
			c0-3.033,2.467-5.5,5.5-5.5h30c3.032,0,5.5,2.467,5.5,5.5V46.5z"/>
	</g>
	<path fill-opacity="0.1" d="M40.557,9.5h-30c-3.86,0-7,3.14-7,7v30c0,3.859,3.14,7,7,7h30c3.859,0,7-3.141,7-7v-30
		C47.557,12.64,44.415,9.5,40.557,9.5z M46.057,46.5c0,3.032-2.468,5.5-5.5,5.5h-30c-3.033,0-5.5-2.468-5.5-5.5v-30
		c0-3.033,2.467-5.5,5.5-5.5h30c3.032,0,5.5,2.467,5.5,5.5V46.5z"/>
	<g>
		<g>
			<path fill="#FFFFFF" d="M31.471,45.159v-6.116v-2.447v-3.181c0-0.403,0.098-0.733,0.5-0.733c0.403,0,0.5,0.33,0.5,0.733v0.267
				v5.361v0.979v0.711c0,0.955,0.551,1.768,1.506,1.768h0.203c0.953,0,2.291-0.812,2.291-1.768v-1.689v-5.361
				c0-0.707,0-1.391,0-1.979c0-2.691-2.957-5.202-6.187-5.202h-9.298c-3.229,0-5.516,2.511-5.516,5.202c0,0.589,0,1.271,0,1.979
				v5.361v1.689c0,0.955,0.423,1.768,1.377,1.768h0.203c0.954,0,2.42-0.812,2.42-1.768v-0.711v-0.979v-5.361v-0.267
				c0-0.403,0.097-0.733,0.5-0.733c0.403,0,0.5,0.33,0.5,0.733v1.713v1.468v2.447v0.979v5.138V46.5h11V45.159L31.471,45.159z"/>
		</g>
		<path fill="#FFFFFF" d="M25.758,26.182c-2.698,0-4.893-2.196-4.893-4.894c0-2.698,2.194-4.895,4.893-4.895
			c2.699,0,4.895,2.195,4.895,4.895C30.65,23.986,28.456,26.182,25.758,26.182z"/>
		<path fill="#A86AAD" d="M20.471,43.202v-3.181v-0.979v-2.447v-1.468v-1.713c0-0.403-0.097-0.733-0.5-0.733
			c-0.403,0-0.5,0.33-0.5,0.733v0.267v5.361v0.979v0.711c0,0.955-1.466,1.768-2.42,1.768h-0.203c-0.954,0-1.377-0.812-1.377-1.768
			v-1.689v-5.361c0-0.707,0-1.391,0-1.979c0-2.691,2.286-5.202,5.516-5.202h1.296c-0.386-1-0.739-1-1.044-1h-0.252
			c-3.78,0-6.516,2.684-6.516,6.202v9.032c0,1.632,0.747,2.767,2.377,2.767h0.203c0.646,0,1.42-0.019,2.42-0.371v2.371h1V43.202z"/>
		<path fill="#A86AAD" d="M33.977,43.5h0.203c1.629,0,3.291-1.136,3.291-2.768v-9.03c0-3.19-3.088-6.203-7.187-6.203h-0.005
			c-0.307,0-0.66,0-1.045,1h1.051c3.23,0,6.188,2.511,6.188,5.203c0,0.588,0,1.271,0,1.978v5.362v1.69
			c0,0.953-1.34,1.767-2.293,1.767h-0.203c-0.953,0-1.504-0.812-1.504-1.767V40.02v-0.979V33.68v-0.266
			c0-0.403-0.098-0.734-0.5-0.734c-0.404,0-0.5,0.331-0.5,0.734v3.181v2.447v4.159V45.5h1v-2.371
			C33.471,43.482,33.33,43.5,33.977,43.5z"/>
		<path fill="#A86AAD" d="M20.008,21.376c0-2.971,2.266-5.521,5.161-5.814c-2.967,0.295-5.282,2.973-5.282,6.017
			c0,1.424,0.507,2.921,1.352,3.921h0.332C20.609,24.5,20.008,22.892,20.008,21.376z"/>
		<path fill="#A86AAD" d="M31.508,21.383c0,1.516-0.601,3.117-1.562,4.117h0.334c0.844-1,1.351-2.555,1.351-3.979
			c0-3.045-2.315-5.547-5.284-5.843C29.241,15.972,31.508,18.412,31.508,21.383z"/>
		<path fill="#A86AAD" d="M26.962,26.5c-0.388,0-0.786,0.168-1.204,0.168S24.942,26.5,24.554,26.5h-1.326h-0.946
			c0.975,0,2.173,1.147,3.476,1.147S28.26,26.5,29.234,26.5h-0.946H26.962z"/>
		<path fill="#A86AAD" d="M28.287,26h0.945c0.387-0.5,0.74-0.5,1.045-1h-0.332C29.475,26,28.912,26,28.287,26z"/>
		<path fill="#A86AAD" d="M22.282,26h0.946c-0.625,0-1.186,0-1.658-1h-0.332C21.543,25.5,21.896,25.5,22.282,26z"/>
		<path fill="#A86AAD" d="M20.008,21.376c0,1.516,0.602,3.125,1.562,4.125h1.079c-1.081-1-1.784-2.468-1.784-3.979
			c0-2.698,2.194-5.01,4.893-5.01c2.699,0,4.895,2.37,4.895,5.068c0,1.511-0.702,2.921-1.783,3.921h1.079
			c0.961-1,1.562-2.601,1.562-4.117c0-2.972-2.268-5.528-5.162-5.822c-0.193-0.02-0.39-0.088-0.588-0.088
			c-0.2,0-0.396,0.098-0.59,0.117C22.274,15.884,20.008,18.404,20.008,21.376z"/>
		<path fill="#A86AAD" d="M22.649,25.5H21.57c0.473,1,1.033,1,1.658,1h1.325C23.842,26.5,23.198,25.5,22.649,25.5z"/>
		<path fill="#A86AAD" d="M28.287,26.5c0.625,0,1.188,0,1.658-1h-1.078c-0.551,0-1.193,1-1.905,1H28.287z"/>
		<rect x="19.471" y="45.5" fill="#A86AAD" width="13" height="1"/>
	</g>
</g>
</svg>
