<svg xmlns="http://www.w3.org/2000/svg" width="51" height="57" viewBox="0 0 51 57"><linearGradient id="a" gradientUnits="userSpaceOnUse" x1="25.445" y1="-1104.999" x2="25.445" y2="-1060" gradientTransform="matrix(1 0 0 -1 0 -1050)"><stop offset="0" stop-opacity=".5"/><stop offset=".09" stop-opacity=".455"/><stop offset="1" stop-opacity="0"/></linearGradient><path opacity=".5" fill="url(#a)" d="M47.945 47.5c0 4.125-3.375 7.5-7.5 7.5h-30c-4.125 0-7.5-3.375-7.5-7.5v-30c0-4.125 3.375-7.5 7.5-7.5h30c4.125 0 7.5 3.375 7.5 7.5v30z"/><path fill="#C9BF8B" d="M47.945 46.5c0 4.125-3.375 7.5-7.5 7.5h-30c-4.125 0-7.5-3.375-7.5-7.5v-30c0-4.125 3.375-7.5 7.5-7.5h30c4.125 0 7.5 3.375 7.5 7.5v30z"/><linearGradient id="b" gradientUnits="userSpaceOnUse" x1="25.445" y1="-1106.597" x2="25.445" y2="-1062.027" gradientTransform="matrix(1 0 0 -1 0 -1050)"><stop offset="0" stop-opacity=".5"/><stop offset=".09" stop-opacity=".455"/><stop offset="1" stop-opacity="0"/></linearGradient><path opacity=".5" fill="url(#b)" d="M47.945 48.5c0 4.125-3.375 7.5-7.5 7.5h-30c-4.125 0-7.5-3.375-7.5-7.5v-30c0-4.125 3.375-7.5 7.5-7.5h30c4.125 0 7.5 3.375 7.5 7.5v30z"/><path fill="#3A699B" d="M48.057 46.5c0 4.125-3.375 7.5-7.5 7.5h-30c-4.125 0-7.5-3.375-7.5-7.5v-30c0-4.125 3.375-7.5 7.5-7.5h30c4.125 0 7.5 3.375 7.5 7.5v30z"/><path fill="#3A699B" d="M10.556 53.5c-3.86 0-7-3.141-7-7v-30c0-3.86 3.14-7 7-7h30c3.856 0 7 3.14 7 7v30c0 3.859-3.144 7-7 7h-30z"/><path fill="#3A699B" d="M48.057 36.5c0 4.125-3.375 7.5-7.5 7.5h-30c-4.125 0-7.5-3.375-7.5-7.5v-28c0-4.125 3.375-7.5 7.5-7.5h30c4.125 0 7.5 3.375 7.5 7.5v28z"/><path fill="#4B8CE3" d="M40.557 1.5h-30c-3.86 0-7 3.14-7 7v30c0 3.859 3.14 7 7 7h30c3.859 0 7-3.141 7-7v-30c0-3.86-3.141-7-7-7zm6.5 37c0 3.584-2.916 6.5-6.5 6.5h-30a6.508 6.508 0 0 1-6.5-6.5v-30c0-3.584 2.916-6.5 6.5-6.5h30c3.584 0 6.5 2.916 6.5 6.5v30z"/><path opacity=".3" fill="#FFF" d="M47.557 8.5a7 7 0 0 0-7-7h-30a7 7 0 0 0-7 7v30a7 7 0 0 0 7 7h30a7 7 0 0 0 7-7v-30zm-.5 30a6.5 6.5 0 0 1-6.5 6.5h-30a6.5 6.5 0 0 1-6.5-6.5v-30a6.5 6.5 0 0 1 6.5-6.5h30a6.5 6.5 0 0 1 6.5 6.5v30z"/><path fill="#F7EC9F" d="M40.557 2h-30a6.508 6.508 0 0 0-6.5 6.5v30c0 3.584 2.916 6.5 6.5 6.5h30c3.584 0 6.5-2.916 6.5-6.5v-30c0-3.584-2.916-6.5-6.5-6.5z"/><path fill="#4B8CE3" d="M40.557 2h-30a6.508 6.508 0 0 0-6.5 6.5v30c0 3.584 2.916 6.5 6.5 6.5h30c3.584 0 6.5-2.916 6.5-6.5v-30c0-3.584-2.916-6.5-6.5-6.5z"/><linearGradient id="c" gradientUnits="userSpaceOnUse" x1="25.556" y1="-1051.575" x2="25.556" y2="-1083.873" gradientTransform="matrix(1 0 0 -1 0 -1050)"><stop offset="0" stop-color="#fff" stop-opacity=".5"/><stop offset=".5" stop-color="#fff" stop-opacity="0"/><stop offset="1" stop-color="#fff" stop-opacity="0"/></linearGradient><path fill="url(#c)" d="M4.056 38.5c0 3.584 2.916 6.5 6.5 6.5h30c3.584 0 6.5-2.916 6.5-6.5v-30c0-3.584-2.916-6.5-6.5-6.5h-30a6.508 6.508 0 0 0-6.5 6.5v30z"/><linearGradient id="d" gradientUnits="userSpaceOnUse" x1="26.102" y1="-1082.873" x2="26.102" y2="-1062.556" gradientTransform="matrix(1 0 0 -1 0 -1050)"><stop offset="0" stop-color="#fff"/><stop offset=".09" stop-color="#fff" stop-opacity=".91"/><stop offset="1" stop-color="#fff" stop-opacity="0"/></linearGradient><path opacity=".3" fill="url(#d)" d="M30.057 34h-9.208l6.497-6.5h-15.79v-7.989l14.79-.01L19.849 13h10.915l9.882 9.992"/><path fill="#3D759B" d="M30.557 13.5h-9.501l6.495 6.5-15.495.011V27h16.495l-6.495 6.5h8.001l10-10.5z"/><path fill="#FFF" d="M23.263 33l6.494-6.5H12.556v-4.99l17.201-.011L23.263 15h6.587l9 9-9 9z"/></svg>