<svg xmlns="http://www.w3.org/2000/svg" width="51" height="57" viewBox="0 0 51 57"><linearGradient id="a" gradientUnits="userSpaceOnUse" x1="25.557" y1="608.415" x2="25.557" y2="575.582" gradientTransform="translate(0 -554)"><stop offset="0" stop-color="#fff"/><stop offset=".09" stop-color="#fff" stop-opacity=".91"/><stop offset="1" stop-color="#fff" stop-opacity="0"/></linearGradient><path opacity=".75" fill="url(#a)" d="M10.556 54.5c-4.411 0-8-3.589-8-8v-30c0-4.411 3.589-8 8-8h30c4.41 0 8 3.589 8 8v30c0 4.411-3.59 8-8 8h-30z"/><linearGradient id="b" gradientUnits="userSpaceOnUse" x1="25.557" y1="608.415" x2="25.557" y2="575.582" gradientTransform="translate(0 -554)"><stop offset="0" stop-color="#fff"/><stop offset=".09" stop-color="#fff" stop-opacity=".91"/><stop offset="1" stop-color="#fff" stop-opacity="0"/></linearGradient><path opacity=".75" fill="url(#b)" d="M10.556 54.5c-4.411 0-8-3.589-8-8v-30c0-4.411 3.589-8 8-8h30c4.41 0 8 3.589 8 8v30c0 4.411-3.59 8-8 8h-30z"/><path fill="#3D759B" d="M48.057 46.5c0 4.125-3.375 7.5-7.5 7.5h-30c-4.125 0-7.5-3.375-7.5-7.5v-30c0-4.125 3.375-7.5 7.5-7.5h30c4.125 0 7.5 3.375 7.5 7.5v30z"/><path fill="#4B8CE3" d="M40.557 9.5h-30c-3.86 0-7 3.14-7 7v30c0 3.859 3.14 7 7 7h30c3.859 0 7-3.141 7-7v-30c0-3.86-3.141-7-7-7z"/><path fill-opacity=".2" d="M40.557 9.5h-30c-3.86 0-7 3.14-7 7v30c0 3.859 3.14 7 7 7h30c3.859 0 7-3.141 7-7v-30c0-3.86-3.141-7-7-7zm5.5 37c0 3.032-2.468 5.5-5.5 5.5h-30a5.506 5.506 0 0 1-5.5-5.5v-30c0-3.033 2.467-5.5 5.5-5.5h30c3.032 0 5.5 2.467 5.5 5.5v30z"/><linearGradient id="c" gradientUnits="userSpaceOnUse" x1="26.102" y1="594.373" x2="26.102" y2="574.056" gradientTransform="translate(0 -554)"><stop offset="0" stop-color="#fff"/><stop offset=".09" stop-color="#fff" stop-opacity=".91"/><stop offset="1" stop-color="#fff" stop-opacity="0"/></linearGradient><path opacity=".3" fill="url(#c)" d="M30.057 41.5h-9.208l6.497-6.5h-15.79v-7.989l14.79-.01-6.497-6.501h10.915l9.882 9.991"/><path fill="#3D759B" d="M30.557 21h-9.501l6.495 6.5-15.495.011V34.5h16.495L22.056 41h8.001l10-10.5z"/><path fill="#FFF" d="M23.263 40.5l6.494-6.5H12.556v-4.99l17.201-.011-6.494-6.499h6.587l9 9-9 9z"/></svg>