<?xml version="1.0" encoding="utf-8"?>
<!-- Generator: Adobe Illustrator 15.0.0, SVG Export Plug-In . SVG Version: 6.00 Build 0)  -->
<!DOCTYPE svg PUBLIC "-//W3C//DTD SVG 1.1//EN" "http://www.w3.org/Graphics/SVG/1.1/DTD/svg11.dtd">
<svg version="1.1" id="Layer_1" xmlns="http://www.w3.org/2000/svg" xmlns:xlink="http://www.w3.org/1999/xlink" x="0px" y="0px"
	 width="51px" height="57px" viewBox="0 0 51 57" enable-background="new 0 0 51 57" xml:space="preserve">
<g>
	<g>
		
			<linearGradient id="SVGID_1_" gradientUnits="userSpaceOnUse" x1="25.4448" y1="-1104.9995" x2="25.4448" y2="-1060" gradientTransform="matrix(1 0 0 -1 0 -1050)">
			<stop  offset="0" style="stop-color:#000000;stop-opacity:0.5"/>
			<stop  offset="0.0896" style="stop-color:#000000;stop-opacity:0.4552"/>
			<stop  offset="1" style="stop-color:#000000;stop-opacity:0"/>
		</linearGradient>
		<path opacity="0.5" fill="url(#SVGID_1_)" enable-background="new    " d="M47.945,47.5c0,4.125-3.375,7.5-7.5,7.5h-30
			c-4.125,0-7.5-3.375-7.5-7.5v-30c0-4.125,3.375-7.5,7.5-7.5h30c4.125,0,7.5,3.375,7.5,7.5V47.5z"/>
		<path fill="#C9BF8B" d="M47.945,46.5c0,4.125-3.375,7.5-7.5,7.5h-30c-4.125,0-7.5-3.375-7.5-7.5v-30c0-4.125,3.375-7.5,7.5-7.5h30
			c4.125,0,7.5,3.375,7.5,7.5V46.5z"/>
		
			<linearGradient id="SVGID_2_" gradientUnits="userSpaceOnUse" x1="25.4448" y1="-1106.5972" x2="25.4448" y2="-1062.0273" gradientTransform="matrix(1 0 0 -1 0 -1050)">
			<stop  offset="0" style="stop-color:#000000;stop-opacity:0.5"/>
			<stop  offset="0.0896" style="stop-color:#000000;stop-opacity:0.4552"/>
			<stop  offset="1" style="stop-color:#000000;stop-opacity:0"/>
		</linearGradient>
		<path opacity="0.5" fill="url(#SVGID_2_)" enable-background="new    " d="M47.945,48.5c0,4.125-3.375,7.5-7.5,7.5h-30
			c-4.125,0-7.5-3.375-7.5-7.5v-30c0-4.125,3.375-7.5,7.5-7.5h30c4.125,0,7.5,3.375,7.5,7.5V48.5z"/>
	</g>
	<path fill="#3A699B" d="M48.057,46.5c0,4.125-3.375,7.5-7.5,7.5h-30c-4.125,0-7.5-3.375-7.5-7.5v-30c0-4.125,3.375-7.5,7.5-7.5h30
		c4.125,0,7.5,3.375,7.5,7.5V46.5z"/>
	<path fill="#3A699B" d="M10.556,53.5c-3.86,0-7-3.141-7-7v-30c0-3.86,3.14-7,7-7h30c3.856,0,7,3.14,7,7v30c0,3.859-3.144,7-7,7
		H10.556z"/>
	<path fill="#3A699B" d="M48.057,36.5c0,4.125-3.375,7.5-7.5,7.5h-30c-4.125,0-7.5-3.375-7.5-7.5v-28c0-4.125,3.375-7.5,7.5-7.5h30
		c4.125,0,7.5,3.375,7.5,7.5V36.5z"/>
	<g>
		<path fill="#4B8CE3" d="M40.557,1.5h-30c-3.86,0-7,3.14-7,7v30c0,3.859,3.14,7,7,7h30c3.859,0,7-3.141,7-7v-30
			C47.557,4.64,44.416,1.5,40.557,1.5z M47.057,38.5c0,3.584-2.916,6.5-6.5,6.5h-30c-3.584,0-6.5-2.916-6.5-6.5v-30
			c0-3.584,2.916-6.5,6.5-6.5h30c3.584,0,6.5,2.916,6.5,6.5V38.5z"/>
		<path opacity="0.3" fill="#FFFFFF" enable-background="new    " d="M47.557,8.5c0-3.866-3.135-7-7-7h-30c-3.866,0-7,3.134-7,7v30
			c0,3.866,3.134,7,7,7h30c3.865,0,7-3.134,7-7V8.5z M47.057,38.5c0,3.59-2.91,6.5-6.5,6.5h-30c-3.59,0-6.5-2.91-6.5-6.5v-30
			c0-3.59,2.91-6.5,6.5-6.5h30c3.59,0,6.5,2.91,6.5,6.5V38.5z"/>
		<path fill="#F7EC9F" d="M40.557,2h-30c-3.584,0-6.5,2.916-6.5,6.5v30c0,3.584,2.916,6.5,6.5,6.5h30c3.584,0,6.5-2.916,6.5-6.5v-30
			C47.057,4.916,44.141,2,40.557,2z"/>
		<path fill="#4B8CE3" d="M40.557,2h-30c-3.584,0-6.5,2.916-6.5,6.5v30c0,3.584,2.916,6.5,6.5,6.5h30c3.584,0,6.5-2.916,6.5-6.5v-30
			C47.057,4.916,44.141,2,40.557,2z"/>
		
			<linearGradient id="SVGID_3_" gradientUnits="userSpaceOnUse" x1="25.5562" y1="-1051.5752" x2="25.5562" y2="-1083.8734" gradientTransform="matrix(1 0 0 -1 0 -1050)">
			<stop  offset="0" style="stop-color:#FFFFFF;stop-opacity:0.5"/>
			<stop  offset="0.5" style="stop-color:#FFFFFF;stop-opacity:0"/>
			<stop  offset="1" style="stop-color:#FFFFFF;stop-opacity:0"/>
		</linearGradient>
		<path fill="url(#SVGID_3_)" d="M4.056,38.5c0,3.584,2.916,6.5,6.5,6.5h30c3.584,0,6.5-2.916,6.5-6.5v-30
			c0-3.584-2.916-6.5-6.5-6.5h-30c-3.584,0-6.5,2.916-6.5,6.5V38.5z"/>
	</g>
	
		<linearGradient id="SVGID_4_" gradientUnits="userSpaceOnUse" x1="26.1016" y1="-1082.8726" x2="26.1016" y2="-1062.5562" gradientTransform="matrix(1 0 0 -1 0 -1050)">
		<stop  offset="0" style="stop-color:#FFFFFF"/>
		<stop  offset="0.0896" style="stop-color:#FFFFFF;stop-opacity:0.9104"/>
		<stop  offset="1" style="stop-color:#FFFFFF;stop-opacity:0"/>
	</linearGradient>
	<polyline opacity="0.3" fill="url(#SVGID_4_)" enable-background="new    " points="30.057,34 20.849,34 27.346,27.5 11.556,27.5 
		11.556,19.511 26.346,19.501 19.849,13 30.764,13 40.646,22.992 	"/>
	<polygon fill="#3D759B" points="30.557,13.5 21.056,13.5 27.551,20 12.056,20.011 12.056,27 28.551,27 22.056,33.5 30.057,33.5 
		40.057,23 	"/>
	<polygon fill="#FFFFFF" points="23.263,33 29.757,26.5 12.556,26.5 12.556,21.51 29.757,21.499 23.263,15 29.85,15 38.85,24 
		29.85,33 	"/>
</g>
</svg>
