<svg xmlns="http://www.w3.org/2000/svg" width="1024" height="7" viewBox="0 0 1024 7"><path fill="#FFF" stroke="#B9C0C6" stroke-width=".5" stroke-miterlimit="10" d="M155.194.448H-.25V6.53c.5.009.205.022.269.022.86 0 .932-1.052 1.792-1.052.859 0 .896.974 1.756.974.859 0 .877-1.013 1.737-1.013.859 0 .869.993 1.728.993s.864-1.003 1.724-1.003c.859 0 .861.999 1.72.999s.86-1.001 1.72-1.001.859.999 1.719.999.859-1 1.719-1 .86 1 1.719 1c.86 0 .86-1 1.72-1s.86 1 1.72 1 .86-1 1.72-1c.859 0 .859 1 1.719 1s.859-1 1.719-1 .859 1 1.719 1 .859-1 1.719-1 .859 1 1.719 1c.859 0 .859-1 1.719-1s.86 1 1.72 1 .86-1 1.72-1c.859 0 .859 1 1.719 1 .86 0 .86-1 1.719-1s.859 1 1.719 1c.86 0 .86-1 1.719-1s.859 1 1.719 1c.86 0 .86-1 1.72-1s.86 1 1.72 1 .86-1 1.719-1 .859 1 1.719 1c.859 0 .859-1 1.719-1 .859 0 .859 1 1.719 1s.86-1 1.72-1c.859 0 .859 1 1.72 1 .859 0 .859-1 1.719-1s.86 1 1.719 1c.86 0 .86-1 1.72-1s.86 1 1.72 1 .86-1 1.72-1 .86 1 1.72 1 .86-1 1.72-1c.859 0 .859 1 1.719 1 .86 0 .86-1 1.72-1s.86 1 1.72 1 .86-1 1.72-1c.859 0 .859 1 1.719 1 .86 0 .86-1 1.72-1s.86 1 1.72 1 .86-1 1.72-1 .86 1 1.72 1 .86-1 1.72-1c.859 0 .859 1 1.719 1s.86-1 1.72-1 .86 1 1.72 1 .86-1 1.72-1 .86 1 1.72 1 .86-1 1.72-1c.859 0 .859 1 1.719 1 .859 0 .859-1 1.718-1s.859 1 1.719 1c.86 0 .86-1 1.72-1s.86 1 1.72 1c.859 0 .859-1 1.719-1 .86 0 .86 1 1.72 1s.86-1 1.72-1 .86 1 1.719 1c.86 0 .86-1 1.72-1s.86 1 1.721 1c.86 0 .86-1 1.72-1s.86 1 1.72 1 .86-1 1.72-1 .86 1 1.72 1 .86-1 1.72-1 .86 1 1.721 1 .86-1 1.721-1 .86 1 1.721 1 .86-1 1.721-1 .86 1 1.721 1c.861 0 .861-1 1.721-1s.86 1 1.721 1c.859 0 .859-1 1.719-1 .86 0 .86 1 1.72 1 .861 0 .861-1 1.721-1 .861 0 .861 1 1.721 1s.86-1 1.721-1 .861 1 1.721 1 .86-1 1.721-1c.861 0 .861 1 1.722 1 .862 0 .862-1 1.724-1 .861 0 .861 1 1.723 1h.438c.862 0 .862-1 1.723-1 .862 0 .862 1 1.724 1 .861 0 .861-1 1.722-1 .86 0 .86 1 1.721 1s.86-1 1.721-1 .861 1 1.721 1 .86-1 1.721-1c.86 0 .86 1 1.721 1 .86 0 .86-1 1.72-1s.86 1 1.719 1c.861 0 .861-1 1.721-1s.86 1 1.721 1c.86 0 .86-1 1.721-1s.86 1 1.721 1 .86-1 1.721-1 .86 1 1.721 1 .86-1 1.721-1 .86 1 1.72 1 .86-1 1.72-1 .86 1 1.72 1 .86-1 1.72-1 .86 1 1.72 1 .86-1 1.721-1c.86 0 .86 1 1.72 1 .859 0 .859-1 1.719-1s.86 1 1.72 1 .86-1 1.72-1c.859 0 .859 1 1.719 1 .86 0 .86-1 1.72-1s.86 1 1.72 1 .86-1 1.719-1 .859 1 1.718 1c.86 0 .86-1 1.719-1 .86 0 .86 1 1.72 1s.86-1 1.72-1 .86 1 1.72 1 .86-1 1.72-1 .86 1 1.72 1 .86-1 1.719-1c.86 0 .86 1 1.72 1s.86-1 1.72-1 .86 1 1.72 1 .86-1 1.72-1 .86 1 1.72 1 .86-1 1.719-1c.86 0 .86 1 1.72 1s.86-1 1.72-1 .86 1 1.72 1 .86-1 1.719-1c.86 0 .86 1 1.72 1 .859 0 .859-1 1.72-1 .86 0 .86 1 1.72 1s.86-1 1.72-1 .86 1 1.72 1c.859 0 .859-1 1.719-1s.86 1 1.719 1c.86 0 .86-1 1.72-1s.86 1 1.72 1 .86-1 1.719-1c.86 0 .86 1 1.719 1 .86 0 .86-1 1.719-1s.859 1 1.719 1 .86-1 1.72-1 .86 1 1.72 1c.859 0 .859-1 1.719-1s.859 1 1.719 1c.859 0 .859-1 1.719-1s.859 1 1.719 1c.859 0 .859-1 1.719-1 .86 0 .86 1 1.72 1s.86-1 1.72-1 .86 1 1.719 1c.86 0 .86-1 1.719-1s.859 1 1.719 1 .859-1 1.719-1 .859 1 1.719 1 .859-1 1.719-1c.86 0 .86 1 1.72 1s.86-1 1.72-1 .86 1 1.72 1c.859 0 .859-1 1.719-1s.859 1 1.719 1 .859-.999 1.719-.999c.859 0 .859 1.001 1.719 1.001.859 0 .86-.999 1.719-.999.859 0 .861 1.003 1.72 1.003s.862-.993 1.722-.993.866 1.013 1.725 1.013c.86 0 .872-.974 1.731-.974.86 0 .883 1.052 1.743 1.052.836 0 .909-.841 1.703-.887.794.046.867.887 1.703.887.86 0 .883-1.052 1.743-1.052.859 0 .871.974 1.731.974.859 0 .865-1.013 1.725-1.013.859 0 .862.993 1.722.993.859 0 .861-1.003 1.72-1.003s.86.999 1.719.999c.859 0 .86-1.001 1.719-1.001.859 0 .859.999 1.719.999s.859-1 1.719-1 .859 1 1.719 1c.86 0 .86-1 1.72-1s.86 1 1.72 1 .86-1 1.72-1c.859 0 .859 1 1.719 1s.859-1 1.719-1 .859 1 1.719 1 .859-1 1.719-1 .859 1 1.719 1c.859 0 .859-1 1.719-1s.86 1 1.72 1 .86-1 1.72-1c.859 0 .859 1 1.719 1 .86 0 .86-1 1.719-1s.859 1 1.719 1c.86 0 .86-1 1.719-1s.859 1 1.719 1c.86 0 .86-1 1.72-1s.86 1 1.72 1 .86-1 1.719-1 .859 1 1.719 1c.859 0 .859-1 1.719-1 .859 0 .859 1 1.719 1s.86-1 1.72-1c.859 0 .859 1 1.72 1 .859 0 .859-1 1.719-1s.86 1 1.719 1c.86 0 .86-1 1.72-1s.86 1 1.72 1 .86-1 1.72-1 .86 1 1.72 1 .86-1 1.72-1c.859 0 .859 1 1.719 1 .86 0 .86-1 1.72-1s.86 1 1.72 1 .86-1 1.72-1c.859 0 .859 1 1.719 1 .86 0 .86-1 1.72-1s.86 1 1.72 1 .86-1 1.72-1 .86 1 1.72 1 .86-1 1.72-1c.859 0 .859 1 1.719 1s.86-1 1.72-1 .86 1 1.72 1 .86-1 1.72-1 .86 1 1.72 1 .86-1 1.72-1c.859 0 .859 1 1.719 1 .859 0 .859-1 1.718-1s.859 1 1.719 1c.86 0 .86-1 1.72-1s.86 1 1.72 1c.859 0 .859-1 1.719-1 .86 0 .86 1 1.72 1s.86-1 1.72-1 .86 1 1.719 1c.86 0 .86-1 1.72-1s.86 1 1.721 1c.86 0 .86-1 1.72-1s.86 1 1.72 1 .86-1 1.72-1 .86 1 1.72 1 .86-1 1.72-1 .86 1 1.721 1 .86-1 1.721-1 .86 1 1.721 1 .86-1 1.721-1 .86 1 1.721 1c.861 0 .861-1 1.721-1s.86 1 1.721 1c.859 0 .859-1 1.719-1 .86 0 .86 1 1.72 1 .861 0 .861-1 1.721-1 .861 0 .861 1 1.721 1s.86-1 1.721-1 .861 1 1.721 1 .86-1 1.721-1c.861 0 .861 1 1.722 1 .862 0 .862-1 1.724-1 .861 0 .861 1 1.723 1h.438c.862 0 .862-1 1.723-1 .862 0 .862 1 1.724 1 .861 0 .861-1 1.722-1 .86 0 .86 1 1.721 1s.86-1 1.721-1 .861 1 1.721 1 .86-1 1.721-1c.86 0 .86 1 1.721 1 .86 0 .86-1 1.72-1s.86 1 1.719 1c.861 0 .861-1 1.721-1s.86 1 1.721 1c.86 0 .86-1 1.721-1s.86 1 1.721 1 .86-1 1.721-1 .86 1 1.721 1 .86-1 1.721-1 .86 1 1.72 1 .86-1 1.72-1 .86 1 1.72 1 .86-1 1.72-1 .86 1 1.72 1 .86-1 1.721-1c.86 0 .86 1 1.72 1 .859 0 .859-1 1.719-1 .86 0 .86 1 1.72 1s.86-1 1.721-1c.859 0 .859 1 1.719 1s.859-1 1.719-1c.86 0 .86 1 1.721 1 .859 0 .859-1 1.719-1s.859 1 1.719 1 .859-1 1.719-1 .859 1 1.72 1 .86-1 1.72-1 .859 1 1.721 1c.859 0 .859-1 1.719-1 .861 0 .861 1 1.721 1s.859-1 1.719-1c.861 0 .861 1 1.721 1s.859-1 1.721-1c.859 0 .859 1 1.719 1 .86 0 .86-1 1.721-1 .859 0 .859 1 1.72 1s.86-1 1.72-1 .859 1 1.719 1c.86 0 .86-1 1.721-1 .859 0 .859 1 1.72 1s.86-1 1.72-1 .859 1 1.719 1 .859-1 1.721-1c.859 0 .859 1 1.719 1 .86 0 .86-1 1.721-1 .859 0 .859 1 1.719 1s.859-1 1.72-1 .86 1 1.72 1 .859-1 1.719-1c.861 0 .861 1 1.721 1s.859-1 1.719-1c.86 0 .86 1 1.72 1s.86-1 1.72-1 .859 1 1.719 1 .859-1 1.72-1 .86 1 1.72 1 .859-1 1.719-1 .859 1 1.72 1c.859 0 .859-1 1.719-1s.859 1 1.72 1c.859 0 .859-1 1.719-1s.859 1 1.719 1c.86 0 .86-1 1.721-1 .859 0 .859 1 1.719 1s.859-1 1.719-1 .859 1 1.719 1 .859-1 1.719-1 .859 1 1.719 1 .859-1 1.719-1c.86 0 .86 1 1.721 1 .859 0 .859-1 1.719-1 .86 0 .86 1 1.721 1 .859 0 .859-1 1.719-1s.859 1 1.719 1 .859-.999 1.719-.999c.858 0 .859 1.001 1.719 1.001.858 0 .859-.999 1.719-.999s.861 1.003 1.72 1.003.862-.993 1.722-.993.865 1.013 1.725 1.013c.861 0 .873-.974 1.732-.974s.883 1.052 1.742 1.052c.836 0 .91-.841 1.703-.887.795.046.867.887 1.703.887.86 0 .884-1.052 1.744-1.052.859 0 .871.974 1.73.974s.865-1.013 1.726-1.013c.859 0 .862.993 1.722.993s.861-1.003 1.721-1.003c.858 0 .859.999 1.719.999s.859-1.001 1.719-1.001.859.999 1.719.999.859-1 1.719-1 .859 1 1.719 1 .859-1 1.719-1c.86 0 .86 1 1.721 1 .859 0 .859-1 1.719-1s.859 1 1.719 1 .859-1 1.719-1 .859 1 1.719 1 .859-1 1.719-1 .859 1 1.72 1c.859 0 .859-1 1.72-1 .859 0 .859 1 1.719 1 .86 0 .86-1 1.721-1 .859 0 .859 1 1.719 1s.859-1 1.719-1 .859 1 1.719 1 .859-1 1.719-1 .859 1 1.719 1c.861 0 .861-1 1.721-1s.859 1 1.72 1 .86-1 1.72-1 .859 1 1.719 1 .859-1 1.719-1 .859 1 1.72 1 .86-1 1.72-1 .859 1 1.721 1c.859 0 .859-1 1.719-1s.859 1 1.719 1c.86 0 .86-1 1.721-1 .859 0 .859 1 1.719 1 .86 0 .86-1 1.721-1 .859 0 .859 1 1.719 1 .86 0 .86-1 1.721-1 .859 0 .859 1 1.719 1 .86 0 .86-1 1.721-1 .859 0 .859 1 1.719 1 .86 0 .86-1 1.721-1 .859 0 .859 1 1.719 1 .86 0 .86-1 1.721-1 .859 0 .859 1 1.719 1 .86 0 .86-1 1.721-1 .859 0 .859 1 1.72 1s.86-1 1.72-1 .859 1 1.72 1 .86-1 1.72-1 .86 1 1.721 1c.859 0 .859-1 1.72-1s.86 1 1.72 1 .859-1 1.72-1c.858 0 .858 1 1.719 1 .858 0 .858-1 1.718-1s.859 1 1.72 1 .86-1 1.72-1 .86 1 1.721 1c.859 0 .859-1 1.719-1s.859 1 1.719 1c.861 0 .861-1 1.721-1s.859 1 1.719 1c.86 0 .86-1 1.721-1 .859 0 .859 1 1.721 1 .859 0 .859-1 1.719-1 .86 0 .86 1 1.721 1 .859 0 .859-1 1.721-1 .859 0 .859 1 1.72 1s.86-1 1.72-1c.861 0 .861 1 1.721 1 .861 0 .861-1 1.721-1 .861 0 .861 1 1.721 1 .861 0 .861-1 1.721-1 .861 0 .861 1 1.721 1 .861 0 .861-1 1.722-1s.86 1 1.722 1c.859 0 .859-1 1.719-1 .86 0 .86 1 1.721 1s.86-1 1.721-1c.861 0 .861 1 1.721 1 .861 0 .861-1 1.722-1s.86 1 1.722 1c.859 0 .859-1 1.721-1s.861 1 1.722 1c.862 0 .862-1 1.724-1s.861 1 1.723 1h.438c.862 0 .862-1 1.724-1s.862 1 1.724 1 .861-1 1.723-1c.859 0 .859 1 1.721 1 .859 0 .859-1 1.721-1s.861 1 1.721 1c.861 0 .861-1 1.722-1s.86 1 1.722 1c.859 0 .859-1 1.72-1s.86 1 1.72 1 .86-1 1.721-1 .86 1 1.721 1c.861 0 .861-1 1.721-1 .861 0 .861 1 1.721 1 .861 0 .861-1 1.721-1 .861 0 .861 1 1.721 1 .861 0 .861-1 1.721-1 .861 0 .861 1 1.721 1 .86 0 .86-1 1.721-1 .859 0 .859 1 1.72 1s.86-1 1.72-1 .86 1 1.721 1c.859 0 .859-1 1.721-1 .859 0 .859 1 1.719 1s.859-1 1.72-1 .86 1 1.72 1 .86-1 1.721-1c.859 0 .859 1 1.719 1s.859-1 1.719-1c.86 0 .86 1 1.721 1 .859 0 .859-1 1.719-1s.859 1 1.719 1 .859-1 1.719-1 .859 1 1.72 1 .86-1 1.72-1 .859 1 1.721 1c.859 0 .859-1 1.719-1 .861 0 .861 1 1.721 1s.859-1 1.719-1c.861 0 .861 1 1.721 1s.859-1 1.721-1c.859 0 .859 1 1.719 1 .86 0 .86-1 1.721-1 .859 0 .859 1 1.72 1s.86-1 1.72-1 .859 1 1.719 1c.86 0 .86-1 1.721-1 .859 0 .859 1 1.72 1s.86-1 1.72-1 .859 1 1.719 1 .859-1 1.721-1c.859 0 .859 1 1.719 1 .86 0 .86-1 1.721-1 .859 0 .859 1 1.719 1s.859-1 1.72-1 .86 1 1.72 1 .859-1 1.719-1c.861 0 .861 1 1.721 1s.859-1 1.719-1c.86 0 .86 1 1.72 1s.86-1 1.72-1 .859 1 1.719 1 .859-1 1.72-1 .86 1 1.72 1 .859-1 1.719-1 .859 1 1.72 1c.859 0 .859-1 1.719-1s.859 1 1.72 1c.859 0 .859-1 1.719-1s.859 1 1.719 1c.86 0 .86-1 1.721-1 .859 0 .859 1 1.719 1s.859-1 1.719-1 .859 1 1.719 1 .859-1 1.719-1 .859 1 1.719 1 .859-1 1.719-1c.86 0 .86 1 1.721 1 .859 0 .859-1 1.719-1 .86 0 .86 1 1.721 1 .859 0 .859-1 1.719-1s.859 1 1.719 1 .859-.999 1.719-.999c.858 0 .859 1.001 1.719 1.001.858 0 .859-.999 1.719-.999s.861 1.003 1.72 1.003.862-.993 1.722-.993.865 1.013 1.725 1.013c.861 0 .873-.974 1.732-.974s.883 1.052 1.742 1.052c.836 0 .91-.841 1.703-.887.795.046.867.887 1.703.887.86 0 .884-1.052 1.744-1.052.859 0 .871.974 1.73.974s.865-1.013 1.726-1.013c.859 0 .862.993 1.722.993s.861-1.003 1.721-1.003c.858 0 .859.999 1.719.999s.859-1.001 1.719-1.001.859.999 1.719.999.859-1 1.719-1 .859 1 1.719 1 .859-1 1.719-1c.86 0 .86 1 1.721 1 .859 0 .859-1 1.719-1s.859 1 1.719 1 .859-1 1.719-1 .859 1 1.719 1 .859-1 1.719-1 .859 1 1.72 1c.859 0 .859-1 1.72-1 .859 0 .859 1 1.719 1 .86 0 .86-1 1.721-1 .859 0 .859 1 1.719 1s.859-1 1.719-1 .859 1 1.719 1 .859-1 1.719-1 .859 1 1.719 1c.861 0 .861-1 1.721-1s.859 1 1.72 1 .86-1 1.72-1 .859 1 1.719 1 .859-1 1.719-1 .859 1 1.72 1 .86-1 1.72-1 .859 1 1.721 1c.859 0 .859-1 1.719-1s.859 1 1.719 1c.86 0 .86-1 1.721-1 .859 0 .859 1 1.719 1 .86 0 .86-1 1.721-1 .859 0 .859 1 1.719 1 .86 0 .86-1 1.721-1 .859 0 .859 1 1.719 1 .86 0 .86-1 1.721-1 .859 0 .859 1 1.719 1 .86 0 .86-1 1.721-1 .859 0 .859 1 1.719 1 .86 0 .86-1 1.721-1 .859 0 .763 1 1.622 1 .666 0 1.157-.596 1.157-.866V.448H155.194z"/></svg>