<?xml version="1.0" encoding="utf-8"?>
<!-- Generator: Adobe Illustrator 15.0.0, SVG Export Plug-In . SVG Version: 6.00 Build 0)  -->
<!DOCTYPE svg PUBLIC "-//W3C//DTD SVG 1.1//EN" "http://www.w3.org/Graphics/SVG/1.1/DTD/svg11.dtd">
<svg version="1.1" id="Layer_1" xmlns="http://www.w3.org/2000/svg" xmlns:xlink="http://www.w3.org/1999/xlink" x="0px" y="0px"
	 width="1024px" height="7px" viewBox="0 0 1024 7" enable-background="new 0 0 1024 7" xml:space="preserve">
<path fill="#FFFFFF" stroke="#B9C0C6" stroke-width="0.5" stroke-miterlimit="10" d="M155.194,0.448H-0.25v6.082
	c0.5,0.009,0.205,0.022,0.269,0.022c0.86,0,0.932-1.052,1.792-1.052c0.859,0,0.896,0.974,1.756,0.974
	c0.859,0,0.877-1.013,1.737-1.013c0.859,0,0.869,0.993,1.728,0.993s0.864-1.003,1.724-1.003c0.859,0,0.861,0.999,1.72,0.999
	c0.859,0,0.86-1.001,1.72-1.001s0.859,0.999,1.719,0.999s0.859-1,1.719-1s0.86,1,1.719,1c0.86,0,0.86-1,1.72-1s0.86,1,1.72,1
	s0.86-1,1.72-1c0.859,0,0.859,1,1.719,1s0.859-1,1.719-1s0.859,1,1.719,1s0.859-1,1.719-1s0.859,1,1.719,1c0.859,0,0.859-1,1.719-1
	s0.86,1,1.72,1s0.86-1,1.72-1c0.859,0,0.859,1,1.719,1c0.86,0,0.86-1,1.719-1s0.859,1,1.719,1c0.86,0,0.86-1,1.719-1
	s0.859,1,1.719,1c0.86,0,0.86-1,1.72-1s0.86,1,1.72,1s0.86-1,1.719-1s0.859,1,1.719,1c0.859,0,0.859-1,1.719-1
	c0.859,0,0.859,1,1.719,1s0.86-1,1.72-1c0.859,0,0.859,1,1.72,1c0.859,0,0.859-1,1.719-1s0.86,1,1.719,1c0.86,0,0.86-1,1.72-1
	s0.86,1,1.72,1s0.86-1,1.72-1c0.86,0,0.86,1,1.72,1c0.86,0,0.86-1,1.72-1c0.859,0,0.859,1,1.719,1c0.86,0,0.86-1,1.72-1
	s0.86,1,1.72,1s0.86-1,1.72-1c0.859,0,0.859,1,1.719,1c0.86,0,0.86-1,1.72-1s0.86,1,1.72,1s0.86-1,1.72-1c0.86,0,0.86,1,1.72,1
	s0.86-1,1.72-1c0.859,0,0.859,1,1.719,1s0.86-1,1.72-1c0.86,0,0.86,1,1.72,1c0.86,0,0.86-1,1.72-1s0.86,1,1.72,1s0.86-1,1.72-1
	c0.859,0,0.859,1,1.719,1c0.859,0,0.859-1,1.718-1s0.859,1,1.719,1c0.86,0,0.86-1,1.72-1s0.86,1,1.72,1c0.859,0,0.859-1,1.719-1
	c0.86,0,0.86,1,1.72,1c0.86,0,0.86-1,1.72-1s0.86,1,1.719,1c0.86,0,0.86-1,1.72-1c0.86,0,0.86,1,1.721,1c0.86,0,0.86-1,1.72-1
	s0.86,1,1.72,1c0.86,0,0.86-1,1.72-1c0.86,0,0.86,1,1.72,1c0.86,0,0.86-1,1.72-1s0.86,1,1.721,1s0.86-1,1.721-1s0.86,1,1.721,1
	s0.86-1,1.721-1s0.86,1,1.721,1c0.861,0,0.861-1,1.721-1s0.86,1,1.721,1c0.859,0,0.859-1,1.719-1c0.86,0,0.86,1,1.72,1
	c0.861,0,0.861-1,1.721-1c0.861,0,0.861,1,1.721,1s0.86-1,1.721-1s0.861,1,1.721,1s0.86-1,1.721-1c0.861,0,0.861,1,1.722,1
	c0.862,0,0.862-1,1.724-1c0.861,0,0.861,1,1.723,1h0.25h0.188c0.862,0,0.862-1,1.723-1c0.862,0,0.862,1,1.724,1
	c0.861,0,0.861-1,1.722-1c0.86,0,0.86,1,1.721,1s0.86-1,1.721-1s0.861,1,1.721,1s0.86-1,1.721-1c0.86,0,0.86,1,1.721,1
	c0.86,0,0.86-1,1.72-1c0.86,0,0.86,1,1.719,1c0.861,0,0.861-1,1.721-1s0.86,1,1.721,1c0.86,0,0.86-1,1.721-1s0.86,1,1.721,1
	s0.86-1,1.721-1s0.86,1,1.721,1s0.86-1,1.721-1s0.86,1,1.72,1c0.86,0,0.86-1,1.72-1c0.86,0,0.86,1,1.72,1c0.86,0,0.86-1,1.72-1
	s0.86,1,1.72,1c0.86,0,0.86-1,1.721-1c0.86,0,0.86,1,1.72,1c0.859,0,0.859-1,1.719-1s0.86,1,1.72,1c0.86,0,0.86-1,1.72-1
	c0.859,0,0.859,1,1.719,1c0.86,0,0.86-1,1.72-1s0.86,1,1.72,1c0.86,0,0.86-1,1.719-1s0.859,1,1.718,1c0.86,0,0.86-1,1.719-1
	c0.86,0,0.86,1,1.72,1s0.86-1,1.72-1s0.86,1,1.72,1c0.86,0,0.86-1,1.72-1c0.86,0,0.86,1,1.72,1s0.86-1,1.719-1c0.86,0,0.86,1,1.72,1
	s0.86-1,1.72-1c0.86,0,0.86,1,1.72,1s0.86-1,1.72-1s0.86,1,1.72,1c0.86,0,0.86-1,1.719-1c0.86,0,0.86,1,1.72,1s0.86-1,1.72-1
	s0.86,1,1.72,1c0.86,0,0.86-1,1.719-1c0.86,0,0.86,1,1.72,1c0.859,0,0.859-1,1.72-1c0.86,0,0.86,1,1.72,1s0.86-1,1.72-1
	s0.86,1,1.72,1c0.859,0,0.859-1,1.719-1s0.86,1,1.719,1c0.86,0,0.86-1,1.72-1c0.86,0,0.86,1,1.72,1s0.86-1,1.719-1
	c0.86,0,0.86,1,1.719,1c0.86,0,0.86-1,1.719-1s0.859,1,1.719,1s0.86-1,1.72-1s0.86,1,1.72,1c0.859,0,0.859-1,1.719-1
	s0.859,1,1.719,1c0.859,0,0.859-1,1.719-1s0.859,1,1.719,1c0.859,0,0.859-1,1.719-1c0.86,0,0.86,1,1.72,1s0.86-1,1.72-1
	s0.86,1,1.719,1c0.86,0,0.86-1,1.719-1s0.859,1,1.719,1s0.859-1,1.719-1s0.859,1,1.719,1s0.859-1,1.719-1c0.86,0,0.86,1,1.72,1
	s0.86-1,1.72-1s0.86,1,1.72,1c0.859,0,0.859-1,1.719-1s0.859,1,1.719,1s0.859-0.999,1.719-0.999c0.859,0,0.859,1.001,1.719,1.001
	c0.859,0,0.86-0.999,1.719-0.999c0.859,0,0.861,1.003,1.72,1.003c0.859,0,0.862-0.993,1.722-0.993c0.86,0,0.866,1.013,1.725,1.013
	c0.86,0,0.872-0.974,1.731-0.974c0.86,0,0.883,1.052,1.743,1.052c0.836,0,0.909-0.841,1.703-0.887
	c0.794,0.046,0.867,0.887,1.703,0.887c0.86,0,0.883-1.052,1.743-1.052c0.859,0,0.871,0.974,1.731,0.974
	c0.859,0,0.865-1.013,1.725-1.013c0.859,0,0.862,0.993,1.722,0.993c0.859,0,0.861-1.003,1.72-1.003c0.859,0,0.86,0.999,1.719,0.999
	c0.859,0,0.86-1.001,1.719-1.001c0.859,0,0.859,0.999,1.719,0.999s0.859-1,1.719-1s0.859,1,1.719,1c0.86,0,0.86-1,1.72-1
	s0.86,1,1.72,1s0.86-1,1.72-1c0.859,0,0.859,1,1.719,1s0.859-1,1.719-1s0.859,1,1.719,1s0.859-1,1.719-1s0.859,1,1.719,1
	c0.859,0,0.859-1,1.719-1s0.86,1,1.72,1s0.86-1,1.72-1c0.859,0,0.859,1,1.719,1c0.86,0,0.86-1,1.719-1s0.859,1,1.719,1
	c0.86,0,0.86-1,1.719-1s0.859,1,1.719,1c0.86,0,0.86-1,1.72-1s0.86,1,1.72,1s0.86-1,1.719-1s0.859,1,1.719,1
	c0.859,0,0.859-1,1.719-1c0.859,0,0.859,1,1.719,1s0.86-1,1.72-1c0.859,0,0.859,1,1.72,1c0.859,0,0.859-1,1.719-1s0.86,1,1.719,1
	c0.86,0,0.86-1,1.72-1s0.86,1,1.72,1s0.86-1,1.72-1c0.86,0,0.86,1,1.72,1c0.86,0,0.86-1,1.72-1c0.859,0,0.859,1,1.719,1
	c0.86,0,0.86-1,1.72-1s0.86,1,1.72,1s0.86-1,1.72-1c0.859,0,0.859,1,1.719,1c0.86,0,0.86-1,1.72-1s0.86,1,1.72,1s0.86-1,1.72-1
	c0.86,0,0.86,1,1.72,1s0.86-1,1.72-1c0.859,0,0.859,1,1.719,1s0.86-1,1.72-1c0.86,0,0.86,1,1.72,1c0.86,0,0.86-1,1.72-1
	s0.86,1,1.72,1s0.86-1,1.72-1c0.859,0,0.859,1,1.719,1c0.859,0,0.859-1,1.718-1s0.859,1,1.719,1c0.86,0,0.86-1,1.72-1s0.86,1,1.72,1
	c0.859,0,0.859-1,1.719-1c0.86,0,0.86,1,1.72,1c0.86,0,0.86-1,1.72-1s0.86,1,1.719,1c0.86,0,0.86-1,1.72-1c0.86,0,0.86,1,1.721,1
	c0.86,0,0.86-1,1.72-1s0.86,1,1.72,1c0.86,0,0.86-1,1.72-1c0.86,0,0.86,1,1.72,1c0.86,0,0.86-1,1.72-1s0.86,1,1.721,1
	s0.86-1,1.721-1s0.86,1,1.721,1s0.86-1,1.721-1s0.86,1,1.721,1c0.861,0,0.861-1,1.721-1s0.86,1,1.721,1c0.859,0,0.859-1,1.719-1
	c0.86,0,0.86,1,1.72,1c0.861,0,0.861-1,1.721-1c0.861,0,0.861,1,1.721,1s0.86-1,1.721-1s0.861,1,1.721,1s0.86-1,1.721-1
	c0.861,0,0.861,1,1.722,1c0.862,0,0.862-1,1.724-1c0.861,0,0.861,1,1.723,1h0.25h0.188c0.862,0,0.862-1,1.723-1
	c0.862,0,0.862,1,1.724,1c0.861,0,0.861-1,1.722-1c0.86,0,0.86,1,1.721,1s0.86-1,1.721-1s0.861,1,1.721,1s0.86-1,1.721-1
	c0.86,0,0.86,1,1.721,1c0.86,0,0.86-1,1.72-1c0.86,0,0.86,1,1.719,1c0.861,0,0.861-1,1.721-1s0.86,1,1.721,1c0.86,0,0.86-1,1.721-1
	s0.86,1,1.721,1s0.86-1,1.721-1s0.86,1,1.721,1s0.86-1,1.721-1s0.86,1,1.72,1c0.86,0,0.86-1,1.72-1c0.86,0,0.86,1,1.72,1
	c0.86,0,0.86-1,1.72-1s0.86,1,1.72,1c0.86,0,0.86-1,1.721-1c0.86,0,0.86,1,1.72,1c0.859,0,0.859-1,1.719-1c0.86,0,0.86,1,1.72,1
	c0.86,0,0.86-1,1.721-1c0.859,0,0.859,1,1.719,1s0.859-1,1.719-1c0.86,0,0.86,1,1.721,1c0.859,0,0.859-1,1.719-1s0.859,1,1.719,1
	s0.859-1,1.719-1s0.859,1,1.72,1s0.86-1,1.72-1s0.859,1,1.721,1c0.859,0,0.859-1,1.719-1c0.861,0,0.861,1,1.721,1s0.859-1,1.719-1
	c0.861,0,0.861,1,1.721,1s0.859-1,1.721-1c0.859,0,0.859,1,1.719,1c0.86,0,0.86-1,1.721-1c0.859,0,0.859,1,1.72,1s0.86-1,1.72-1
	s0.859,1,1.719,1c0.86,0,0.86-1,1.721-1c0.859,0,0.859,1,1.72,1s0.86-1,1.72-1s0.859,1,1.719,1s0.859-1,1.721-1
	c0.859,0,0.859,1,1.719,1c0.86,0,0.86-1,1.721-1c0.859,0,0.859,1,1.719,1s0.859-1,1.72-1s0.86,1,1.72,1s0.859-1,1.719-1
	c0.861,0,0.861,1,1.721,1s0.859-1,1.719-1c0.86,0,0.86,1,1.72,1c0.86,0,0.86-1,1.72-1s0.859,1,1.719,1s0.859-1,1.72-1s0.86,1,1.72,1
	s0.859-1,1.719-1s0.859,1,1.72,1c0.859,0,0.859-1,1.719-1s0.859,1,1.72,1c0.859,0,0.859-1,1.719-1s0.859,1,1.719,1
	c0.86,0,0.86-1,1.721-1c0.859,0,0.859,1,1.719,1s0.859-1,1.719-1s0.859,1,1.719,1s0.859-1,1.719-1s0.859,1,1.719,1s0.859-1,1.719-1
	c0.86,0,0.86,1,1.721,1c0.859,0,0.859-1,1.719-1c0.86,0,0.86,1,1.721,1c0.859,0,0.859-1,1.719-1s0.859,1,1.719,1
	s0.859-0.999,1.719-0.999c0.858,0,0.859,1.001,1.719,1.001c0.858,0,0.859-0.999,1.719-0.999s0.861,1.003,1.72,1.003
	c0.859,0,0.862-0.993,1.722-0.993s0.865,1.013,1.725,1.013c0.861,0,0.873-0.974,1.732-0.974s0.883,1.052,1.742,1.052
	c0.836,0,0.91-0.841,1.703-0.887c0.795,0.046,0.867,0.887,1.703,0.887c0.86,0,0.884-1.052,1.744-1.052
	c0.859,0,0.871,0.974,1.73,0.974s0.865-1.013,1.726-1.013c0.859,0,0.862,0.993,1.722,0.993s0.861-1.003,1.721-1.003
	c0.858,0,0.859,0.999,1.719,0.999s0.859-1.001,1.719-1.001s0.859,0.999,1.719,0.999s0.859-1,1.719-1s0.859,1,1.719,1
	s0.859-1,1.719-1c0.86,0,0.86,1,1.721,1c0.859,0,0.859-1,1.719-1s0.859,1,1.719,1s0.859-1,1.719-1s0.859,1,1.719,1s0.859-1,1.719-1
	s0.859,1,1.72,1c0.859,0,0.859-1,1.72-1c0.859,0,0.859,1,1.719,1c0.86,0,0.86-1,1.721-1c0.859,0,0.859,1,1.719,1s0.859-1,1.719-1
	s0.859,1,1.719,1s0.859-1,1.719-1s0.859,1,1.719,1c0.861,0,0.861-1,1.721-1s0.859,1,1.72,1s0.86-1,1.72-1s0.859,1,1.719,1
	s0.859-1,1.719-1s0.859,1,1.72,1s0.86-1,1.72-1s0.859,1,1.721,1c0.859,0,0.859-1,1.719-1s0.859,1,1.719,1c0.86,0,0.86-1,1.721-1
	c0.859,0,0.859,1,1.719,1c0.86,0,0.86-1,1.721-1c0.859,0,0.859,1,1.719,1c0.86,0,0.86-1,1.721-1c0.859,0,0.859,1,1.719,1
	c0.86,0,0.86-1,1.721-1c0.859,0,0.859,1,1.719,1c0.86,0,0.86-1,1.721-1c0.859,0,0.859,1,1.719,1c0.86,0,0.86-1,1.721-1
	c0.859,0,0.859,1,1.719,1c0.86,0,0.86-1,1.721-1c0.859,0,0.859,1,1.72,1s0.86-1,1.72-1s0.859,1,1.72,1s0.86-1,1.72-1
	c0.86,0,0.86,1,1.721,1c0.859,0,0.859-1,1.72-1s0.86,1,1.72,1s0.859-1,1.72-1c0.858,0,0.858,1,1.719,1c0.858,0,0.858-1,1.718-1
	s0.859,1,1.72,1s0.86-1,1.72-1c0.86,0,0.86,1,1.721,1c0.859,0,0.859-1,1.719-1s0.859,1,1.719,1c0.861,0,0.861-1,1.721-1
	s0.859,1,1.719,1c0.86,0,0.86-1,1.721-1c0.859,0,0.859,1,1.721,1c0.859,0,0.859-1,1.719-1c0.86,0,0.86,1,1.721,1
	c0.859,0,0.859-1,1.721-1c0.859,0,0.859,1,1.72,1s0.86-1,1.72-1c0.861,0,0.861,1,1.721,1c0.861,0,0.861-1,1.721-1
	c0.861,0,0.861,1,1.721,1c0.861,0,0.861-1,1.721-1c0.861,0,0.861,1,1.721,1c0.861,0,0.861-1,1.722-1s0.86,1,1.722,1
	c0.859,0,0.859-1,1.719-1c0.86,0,0.86,1,1.721,1s0.86-1,1.721-1c0.861,0,0.861,1,1.721,1c0.861,0,0.861-1,1.722-1s0.86,1,1.722,1
	c0.859,0,0.859-1,1.721-1s0.861,1,1.722,1c0.862,0,0.862-1,1.724-1s0.861,1,1.723,1h0.25h0.188c0.862,0,0.862-1,1.724-1
	c0.862,0,0.862,1,1.724,1s0.861-1,1.723-1c0.859,0,0.859,1,1.721,1c0.859,0,0.859-1,1.721-1s0.861,1,1.721,1
	c0.861,0,0.861-1,1.722-1s0.86,1,1.722,1c0.859,0,0.859-1,1.72-1s0.86,1,1.72,1c0.86,0,0.86-1,1.721-1s0.86,1,1.721,1
	c0.861,0,0.861-1,1.721-1c0.861,0,0.861,1,1.721,1c0.861,0,0.861-1,1.721-1c0.861,0,0.861,1,1.721,1c0.861,0,0.861-1,1.721-1
	c0.861,0,0.861,1,1.721,1c0.86,0,0.86-1,1.721-1c0.859,0,0.859,1,1.72,1s0.86-1,1.72-1c0.86,0,0.86,1,1.721,1
	c0.859,0,0.859-1,1.721-1c0.859,0,0.859,1,1.719,1s0.859-1,1.72-1s0.86,1,1.72,1c0.86,0,0.86-1,1.721-1c0.859,0,0.859,1,1.719,1
	s0.859-1,1.719-1c0.86,0,0.86,1,1.721,1c0.859,0,0.859-1,1.719-1s0.859,1,1.719,1s0.859-1,1.719-1s0.859,1,1.72,1s0.86-1,1.72-1
	s0.859,1,1.721,1c0.859,0,0.859-1,1.719-1c0.861,0,0.861,1,1.721,1s0.859-1,1.719-1c0.861,0,0.861,1,1.721,1s0.859-1,1.721-1
	c0.859,0,0.859,1,1.719,1c0.86,0,0.86-1,1.721-1c0.859,0,0.859,1,1.72,1s0.86-1,1.72-1s0.859,1,1.719,1c0.86,0,0.86-1,1.721-1
	c0.859,0,0.859,1,1.72,1s0.86-1,1.72-1s0.859,1,1.719,1s0.859-1,1.721-1c0.859,0,0.859,1,1.719,1c0.86,0,0.86-1,1.721-1
	c0.859,0,0.859,1,1.719,1s0.859-1,1.72-1s0.86,1,1.72,1s0.859-1,1.719-1c0.861,0,0.861,1,1.721,1s0.859-1,1.719-1
	c0.86,0,0.86,1,1.72,1c0.86,0,0.86-1,1.72-1s0.859,1,1.719,1s0.859-1,1.72-1s0.86,1,1.72,1s0.859-1,1.719-1s0.859,1,1.72,1
	c0.859,0,0.859-1,1.719-1s0.859,1,1.72,1c0.859,0,0.859-1,1.719-1s0.859,1,1.719,1c0.86,0,0.86-1,1.721-1c0.859,0,0.859,1,1.719,1
	s0.859-1,1.719-1s0.859,1,1.719,1s0.859-1,1.719-1s0.859,1,1.719,1s0.859-1,1.719-1c0.86,0,0.86,1,1.721,1c0.859,0,0.859-1,1.719-1
	c0.86,0,0.86,1,1.721,1c0.859,0,0.859-1,1.719-1s0.859,1,1.719,1s0.859-0.999,1.719-0.999c0.858,0,0.859,1.001,1.719,1.001
	c0.858,0,0.859-0.999,1.719-0.999s0.861,1.003,1.72,1.003c0.859,0,0.862-0.993,1.722-0.993s0.865,1.013,1.725,1.013
	c0.861,0,0.873-0.974,1.732-0.974s0.883,1.052,1.742,1.052c0.836,0,0.91-0.841,1.703-0.887c0.795,0.046,0.867,0.887,1.703,0.887
	c0.86,0,0.884-1.052,1.744-1.052c0.859,0,0.871,0.974,1.73,0.974s0.865-1.013,1.726-1.013c0.859,0,0.862,0.993,1.722,0.993
	s0.861-1.003,1.721-1.003c0.858,0,0.859,0.999,1.719,0.999s0.859-1.001,1.719-1.001s0.859,0.999,1.719,0.999s0.859-1,1.719-1
	s0.859,1,1.719,1s0.859-1,1.719-1c0.86,0,0.86,1,1.721,1c0.859,0,0.859-1,1.719-1s0.859,1,1.719,1s0.859-1,1.719-1s0.859,1,1.719,1
	s0.859-1,1.719-1s0.859,1,1.72,1c0.859,0,0.859-1,1.72-1c0.859,0,0.859,1,1.719,1c0.86,0,0.86-1,1.721-1c0.859,0,0.859,1,1.719,1
	s0.859-1,1.719-1s0.859,1,1.719,1s0.859-1,1.719-1s0.859,1,1.719,1c0.861,0,0.861-1,1.721-1s0.859,1,1.72,1s0.86-1,1.72-1
	s0.859,1,1.719,1s0.859-1,1.719-1s0.859,1,1.72,1s0.86-1,1.72-1s0.859,1,1.721,1c0.859,0,0.859-1,1.719-1s0.859,1,1.719,1
	c0.86,0,0.86-1,1.721-1c0.859,0,0.859,1,1.719,1c0.86,0,0.86-1,1.721-1c0.859,0,0.859,1,1.719,1c0.86,0,0.86-1,1.721-1
	c0.859,0,0.859,1,1.719,1c0.86,0,0.86-1,1.721-1c0.859,0,0.859,1,1.719,1c0.86,0,0.86-1,1.721-1c0.859,0,0.859,1,1.719,1
	c0.86,0,0.86-1,1.721-1c0.859,0,0.763,1,1.622,1c0.666,0,1.157-0.596,1.157-0.866V0.448H155.194z"/>
</svg>
