<svg xmlns="http://www.w3.org/2000/svg" width="51" height="57" viewBox="0 0 51 57"><linearGradient id="a" gradientUnits="userSpaceOnUse" x1="25.557" y1="608.416" x2="25.557" y2="575.583" gradientTransform="translate(0 -554)"><stop offset="0" stop-color="#fff"/><stop offset=".09" stop-color="#fff" stop-opacity=".91"/><stop offset="1" stop-color="#fff" stop-opacity="0"/></linearGradient><path opacity=".75" fill="url(#a)" d="M10.556 54.5c-4.411 0-8-3.589-8-8v-30c0-4.411 3.589-8 8-8h30c4.411 0 8 3.589 8 8v30c0 4.411-3.589 8-8 8h-30z"/><linearGradient id="b" gradientUnits="userSpaceOnUse" x1="25.557" y1="608.416" x2="25.557" y2="575.583" gradientTransform="translate(0 -554)"><stop offset="0" stop-color="#fff"/><stop offset=".09" stop-color="#fff" stop-opacity=".91"/><stop offset="1" stop-color="#fff" stop-opacity="0"/></linearGradient><path opacity=".75" fill="url(#b)" d="M10.556 54.5c-4.411 0-8-3.589-8-8v-30c0-4.411 3.589-8 8-8h30c4.411 0 8 3.589 8 8v30c0 4.411-3.589 8-8 8h-30z"/><path fill="#3CAA69" d="M48.057 46.5c0 4.125-3.375 7.5-7.5 7.5h-30c-4.125 0-7.5-3.375-7.5-7.5v-30c0-4.125 3.375-7.5 7.5-7.5h30c4.125 0 7.5 3.375 7.5 7.5v30z"/><path fill="#48CC7E" d="M40.557 9.5h-30c-3.86 0-7 3.14-7 7v30c0 3.859 3.14 7 7 7h30c3.859 0 7-3.141 7-7v-30c0-3.86-3.142-7-7-7z"/><linearGradient id="c" gradientUnits="userSpaceOnUse" x1="21.535" y1="598.437" x2="21.535" y2="566.93" gradientTransform="translate(0 -554)"><stop offset="0" stop-color="#fff"/><stop offset=".09" stop-color="#fff" stop-opacity=".91"/><stop offset="1" stop-color="#fff" stop-opacity="0"/></linearGradient><path opacity=".3" fill="url(#c)" d="M25.159 45.5L16.128 37h-4.572V26h4.586l9-9h3.415v10.296l.478.223a4.303 4.303 0 0 1 2.479 3.853 4.302 4.302 0 0 1-2.431 3.886l-.524.253V45.5h-3.4z"/><path fill="#5DB27F" d="M31.014 31.375a3.81 3.81 0 0 0-2.191-3.403l-.454-.211-.312.67V17.5h-2.708l-8.793 8.793v.207h-4.5v10h4.5v.216L25.357 45h2.7V34.277l.356.746.45-.217a3.8 3.8 0 0 0 2.151-3.431zm-2.957 1.4v-2.752c.479.289.784.807.789 1.367a1.62 1.62 0 0 1-.789 1.385z"/><path fill="#5DB27F" d="M35.757 31.345c-.021-3.271-1.961-6.28-4.938-7.669l-.455-.211-1.402 3.022.453.211a5.223 5.223 0 0 1 3.01 4.67 5.223 5.223 0 0 1-2.949 4.708l-.449.216 1.441 3.004.451-.218c2.958-1.428 4.858-4.463 4.838-7.733z"/><path fill="#5DB27F" d="M32.627 19.774l-.454-.211-1.403 3.022.453.211c3.319 1.548 5.479 4.901 5.504 8.543.023 3.642-2.093 7.021-5.394 8.613l-.449.217 1.442 3.003.451-.218c4.455-2.149 7.314-6.718 7.281-11.638-.029-4.92-2.947-9.451-7.431-11.542z"/><g fill="#FFF"><path d="M30.514 31.379a3.289 3.289 0 0 0-1.904-2.954l-.491 1.062a2.121 2.121 0 0 1 1.228 1.9 2.115 2.115 0 0 1-1.203 1.916l.506 1.055a3.292 3.292 0 0 0 1.864-2.979z"/><path d="M35.257 31.348c-.021-3.2-1.927-5.949-4.649-7.219l-.982 2.115a5.691 5.691 0 0 1 3.297 5.12c.016 2.269-1.311 4.235-3.23 5.161l1.011 2.103c2.703-1.306 4.571-4.079 4.553-7.28z"/><path d="M39.562 31.32c-.033-4.918-2.961-9.144-7.146-11.093l-.982 2.115c3.396 1.583 5.769 5.006 5.793 8.993.025 3.985-2.303 7.44-5.676 9.067l1.01 2.102c4.162-2.005 7.035-6.268 7.001-11.184z"/></g><path fill="#FFF" d="M12.556 28h3.5v8h-3.5z"/><g><path fill="#FFF" d="M25.556 19l-8.5 8.5v9l8.5 8h2.001V19z"/></g><path fill-opacity=".17" d="M40.564 9.5h-30c-3.86 0-7 3.14-7 7v30c0 3.859 3.14 7 7 7h30c3.861 0 7-3.141 7-7v-30c0-3.86-3.137-7-7-7zm5.5 37c0 3.033-2.467 5.5-5.5 5.5h-30a5.506 5.506 0 0 1-5.5-5.5v-30c0-3.033 2.467-5.5 5.5-5.5h30c3.033 0 5.5 2.467 5.5 5.5v30z"/></svg>