<?xml version="1.0" encoding="utf-8"?>
<!-- Generator: Adobe Illustrator 15.0.0, SVG Export Plug-In . SVG Version: 6.00 Build 0)  -->
<!DOCTYPE svg PUBLIC "-//W3C//DTD SVG 1.1//EN" "http://www.w3.org/Graphics/SVG/1.1/DTD/svg11.dtd">
<svg version="1.1" id="Layer_1" xmlns="http://www.w3.org/2000/svg" xmlns:xlink="http://www.w3.org/1999/xlink" x="0px" y="0px"
	 width="51px" height="57px" viewBox="0 0 51 57" enable-background="new 0 0 51 57" xml:space="preserve">
<g>
	
		<linearGradient id="SVGID_1_" gradientUnits="userSpaceOnUse" x1="25.5566" y1="608.416" x2="25.5566" y2="575.5827" gradientTransform="matrix(1 0 0 1 0 -554)">
		<stop  offset="0" style="stop-color:#FFFFFF"/>
		<stop  offset="0.0896" style="stop-color:#FFFFFF;stop-opacity:0.9104"/>
		<stop  offset="1" style="stop-color:#FFFFFF;stop-opacity:0"/>
	</linearGradient>
	<path opacity="0.75" fill="url(#SVGID_1_)" enable-background="new    " d="M10.556,54.5c-4.411,0-8-3.589-8-8v-30
		c0-4.411,3.589-8,8-8h30c4.411,0,8,3.589,8,8v30c0,4.411-3.589,8-8,8H10.556z"/>
	
		<linearGradient id="SVGID_2_" gradientUnits="userSpaceOnUse" x1="25.5566" y1="608.416" x2="25.5566" y2="575.5827" gradientTransform="matrix(1 0 0 1 0 -554)">
		<stop  offset="0" style="stop-color:#FFFFFF"/>
		<stop  offset="0.0896" style="stop-color:#FFFFFF;stop-opacity:0.9104"/>
		<stop  offset="1" style="stop-color:#FFFFFF;stop-opacity:0"/>
	</linearGradient>
	<path opacity="0.75" fill="url(#SVGID_2_)" enable-background="new    " d="M10.556,54.5c-4.411,0-8-3.589-8-8v-30
		c0-4.411,3.589-8,8-8h30c4.411,0,8,3.589,8,8v30c0,4.411-3.589,8-8,8H10.556z"/>
	<path fill="#3CAA69" d="M48.057,46.5c0,4.125-3.375,7.5-7.5,7.5h-30c-4.125,0-7.5-3.375-7.5-7.5v-30c0-4.125,3.375-7.5,7.5-7.5h30
		c4.125,0,7.5,3.375,7.5,7.5V46.5z"/>
	<path fill="#48CC7E" d="M40.557,9.5h-30c-3.86,0-7,3.14-7,7v30c0,3.859,3.14,7,7,7h30c3.859,0,7-3.141,7-7v-30
		C47.557,12.64,44.415,9.5,40.557,9.5z"/>
	<g>
		
			<linearGradient id="SVGID_3_" gradientUnits="userSpaceOnUse" x1="21.5352" y1="598.4365" x2="21.5352" y2="566.9303" gradientTransform="matrix(1 0 0 1 0 -554)">
			<stop  offset="0" style="stop-color:#FFFFFF"/>
			<stop  offset="0.0896" style="stop-color:#FFFFFF;stop-opacity:0.9104"/>
			<stop  offset="1" style="stop-color:#FFFFFF;stop-opacity:0"/>
		</linearGradient>
		<path opacity="0.3" fill="url(#SVGID_3_)" enable-background="new    " d="M25.159,45.5L16.128,37h-4.572V26h4.586l9-9h3.415
			v10.296l0.478,0.223c1.495,0.697,2.469,2.209,2.479,3.853c0.012,1.644-0.943,3.169-2.431,3.886l-0.524,0.253V45.5H25.159z"/>
		<path fill="#5DB27F" d="M31.014,31.375c-0.012-1.451-0.871-2.787-2.191-3.403l-0.454-0.211l-0.312,0.67V17.5h-2.708l-8.793,8.793
			V26.5h-4.5v10h4.5v0.216L25.357,45h2.7V34.277l0.356,0.746l0.45-0.217C30.18,34.174,31.021,32.828,31.014,31.375z M28.057,32.775
			v-2.752c0.479,0.289,0.784,0.807,0.789,1.367C28.85,31.956,28.541,32.482,28.057,32.775z"/>
		<path fill="#5DB27F" d="M35.757,31.345c-0.021-3.271-1.961-6.28-4.938-7.669l-0.455-0.211l-1.402,3.022l0.453,0.211
			c1.814,0.846,2.996,2.679,3.01,4.67c0.012,1.989-1.145,3.838-2.949,4.708l-0.449,0.216l1.441,3.004l0.451-0.218
			C33.877,37.65,35.777,34.615,35.757,31.345z"/>
		<path fill="#5DB27F" d="M32.627,19.774l-0.454-0.211l-1.403,3.022l0.453,0.211c3.319,1.548,5.479,4.901,5.504,8.543
			c0.023,3.642-2.093,7.021-5.394,8.613l-0.449,0.217l1.442,3.003l0.451-0.218c4.455-2.149,7.314-6.718,7.281-11.638
			C40.029,26.396,37.111,21.865,32.627,19.774z"/>
	</g>
	<g>
		<path fill="#FFFFFF" d="M30.514,31.379c-0.011-1.311-0.789-2.434-1.904-2.954l-0.491,1.062c0.717,0.337,1.222,1.058,1.228,1.9
			c0.006,0.844-0.49,1.571-1.203,1.916l0.506,1.055C29.757,33.823,30.521,32.688,30.514,31.379z"/>
		<path fill="#FFFFFF" d="M35.257,31.348c-0.021-3.2-1.927-5.949-4.649-7.219l-0.982,2.115c1.932,0.9,3.283,2.85,3.297,5.12
			c0.016,2.269-1.311,4.235-3.23,5.161l1.011,2.103C33.407,37.322,35.275,34.549,35.257,31.348z"/>
		<path fill="#FFFFFF" d="M39.562,31.32c-0.033-4.918-2.961-9.144-7.146-11.093l-0.982,2.115c3.396,1.583,5.769,5.006,5.793,8.993
			c0.025,3.985-2.303,7.44-5.676,9.067l1.01,2.102C36.723,40.499,39.596,36.236,39.562,31.32z"/>
	</g>
	<rect x="12.556" y="28" fill="#FFFFFF" width="3.5" height="8"/>
	<g>
		<polygon fill="#FFFFFF" points="25.556,19 17.056,27.5 17.056,36.5 25.556,44.5 27.557,44.5 27.557,19 		"/>
	</g>
	<path fill-opacity="0.17" d="M40.564,9.5h-30c-3.86,0-7,3.14-7,7v30c0,3.859,3.14,7,7,7h30c3.861,0,7-3.141,7-7v-30
		C47.564,12.64,44.427,9.5,40.564,9.5z M46.064,46.5c0,3.033-2.467,5.5-5.5,5.5h-30c-3.033,0-5.5-2.467-5.5-5.5v-30
		c0-3.033,2.467-5.5,5.5-5.5h30c3.033,0,5.5,2.467,5.5,5.5V46.5z"/>
</g>
</svg>
