<?xml version="1.0" encoding="utf-8"?>
<!-- Generator: Adobe Illustrator 15.0.0, SVG Export Plug-In . SVG Version: 6.00 Build 0)  -->
<!DOCTYPE svg PUBLIC "-//W3C//DTD SVG 1.1//EN" "http://www.w3.org/Graphics/SVG/1.1/DTD/svg11.dtd">
<svg version="1.1" id="Layer_1" xmlns="http://www.w3.org/2000/svg" xmlns:xlink="http://www.w3.org/1999/xlink" x="0px" y="0px"
	 width="51px" height="57px" viewBox="0 0 51 57" enable-background="new 0 0 51 57" xml:space="preserve">
<g>
	<g>
		
			<linearGradient id="SVGID_1_" gradientUnits="userSpaceOnUse" x1="25.4429" y1="-550.9995" x2="25.4429" y2="-506" gradientTransform="matrix(1 0 0 -1 0 -496)">
			<stop  offset="0" style="stop-color:#000000;stop-opacity:0.5"/>
			<stop  offset="0.0896" style="stop-color:#000000;stop-opacity:0.4552"/>
			<stop  offset="1" style="stop-color:#000000;stop-opacity:0"/>
		</linearGradient>
		<path opacity="0.5" fill="url(#SVGID_1_)" enable-background="new    " d="M47.943,47.5c0,4.125-3.375,7.5-7.5,7.5h-30
			c-4.125,0-7.5-3.375-7.5-7.5v-30c0-4.125,3.375-7.5,7.5-7.5h30c4.125,0,7.5,3.375,7.5,7.5V47.5z"/>
		<path fill="#C9BF8B" d="M47.943,46.5c0,4.125-3.375,7.5-7.5,7.5h-30c-4.125,0-7.5-3.375-7.5-7.5v-30c0-4.125,3.375-7.5,7.5-7.5h30
			c4.125,0,7.5,3.375,7.5,7.5V46.5z"/>
		
			<linearGradient id="SVGID_2_" gradientUnits="userSpaceOnUse" x1="25.4429" y1="-552.5981" x2="25.4429" y2="-508.0281" gradientTransform="matrix(1 0 0 -1 0 -496)">
			<stop  offset="0" style="stop-color:#000000;stop-opacity:0.5"/>
			<stop  offset="0.0896" style="stop-color:#000000;stop-opacity:0.4552"/>
			<stop  offset="1" style="stop-color:#000000;stop-opacity:0"/>
		</linearGradient>
		<path opacity="0.5" fill="url(#SVGID_2_)" enable-background="new    " d="M47.943,48.5c0,4.125-3.375,7.5-7.5,7.5h-30
			c-4.125,0-7.5-3.375-7.5-7.5v-30c0-4.125,3.375-7.5,7.5-7.5h30c4.125,0,7.5,3.375,7.5,7.5V48.5z"/>
	</g>
	<path fill="#3CAA69" d="M48.057,46.5c0,4.125-3.375,7.5-7.5,7.5h-30c-4.125,0-7.5-3.375-7.5-7.5v-30c0-4.125,3.375-7.5,7.5-7.5h30
		c4.125,0,7.5,3.375,7.5,7.5V46.5z"/>
	<path fill="#3CAA69" d="M10.556,53.5c-3.86,0-7-3.141-7-7v-30c0-3.86,3.14-7,7-7h30c3.858,0,7,3.14,7,7v30c0,3.859-3.142,7-7,7
		H10.556z"/>
	<path fill="#3CAA69" d="M48.057,36.5c0,4.125-3.375,7.5-7.5,7.5h-30c-4.125,0-7.5-3.375-7.5-7.5v-28c0-4.125,3.375-7.5,7.5-7.5h30
		c4.125,0,7.5,3.375,7.5,7.5V36.5z"/>
	<g>
		<path fill="#68D799" d="M40.557,1.5h-30c-3.86,0-7,3.14-7,7v30c0,3.859,3.14,7,7,7h30c3.859,0,7-3.141,7-7v-30
			C47.557,4.64,44.415,1.5,40.557,1.5z M47.057,38.5c0,3.584-2.916,6.5-6.5,6.5h-30c-3.584,0-6.5-2.916-6.5-6.5v-30
			c0-3.584,2.916-6.5,6.5-6.5h30c3.584,0,6.5,2.916,6.5,6.5V38.5z"/>
		<path opacity="0.5" fill="#FFFFFF" enable-background="new    " d="M40.557,1.5h-30c-3.86,0-7,3.14-7,7v30c0,3.859,3.14,7,7,7h30
			c3.859,0,7-3.141,7-7v-30C47.557,4.64,44.415,1.5,40.557,1.5z M47.057,38.5c0,3.584-2.916,6.5-6.5,6.5h-30
			c-3.584,0-6.5-2.916-6.5-6.5v-30c0-3.584,2.916-6.5,6.5-6.5h30c3.584,0,6.5,2.916,6.5,6.5V38.5z"/>
		<path fill="#F7EC9F" d="M40.557,2h-30c-3.584,0-6.5,2.916-6.5,6.5v30c0,3.584,2.916,6.5,6.5,6.5h30c3.584,0,6.5-2.916,6.5-6.5v-30
			C47.057,4.916,44.141,2,40.557,2z"/>
		<path fill="#48CC7E" d="M40.557,2h-30c-3.584,0-6.5,2.916-6.5,6.5v30c0,3.584,2.916,6.5,6.5,6.5h30c3.584,0,6.5-2.916,6.5-6.5v-30
			C47.057,4.916,44.141,2,40.557,2z"/>
		
			<linearGradient id="SVGID_3_" gradientUnits="userSpaceOnUse" x1="25.5562" y1="-1051.5752" x2="25.5562" y2="-1083.8734" gradientTransform="matrix(1 0 0 -1 0 -1050)">
			<stop  offset="0" style="stop-color:#FFFFFF;stop-opacity:0.5"/>
			<stop  offset="0.5" style="stop-color:#FFFFFF;stop-opacity:0"/>
			<stop  offset="1" style="stop-color:#FFFFFF;stop-opacity:0"/>
		</linearGradient>
		<path fill="url(#SVGID_3_)" d="M4.056,38.5c0,3.584,2.916,6.5,6.5,6.5h30c3.584,0,6.5-2.916,6.5-6.5v-30
			c0-3.584-2.916-6.5-6.5-6.5h-30c-3.584,0-6.5,2.916-6.5,6.5V38.5z"/>
	</g>
	<g>
		
			<linearGradient id="SVGID_4_" gradientUnits="userSpaceOnUse" x1="21.5347" y1="-532.936" x2="21.5347" y2="-501.4304" gradientTransform="matrix(1 0 0 -1 0 -496)">
			<stop  offset="0" style="stop-color:#FFFFFF"/>
			<stop  offset="0.0896" style="stop-color:#FFFFFF;stop-opacity:0.9104"/>
			<stop  offset="1" style="stop-color:#FFFFFF;stop-opacity:0"/>
		</linearGradient>
		<path opacity="0.3" fill="url(#SVGID_4_)" enable-background="new    " d="M25.159,38l-9.031-8.5h-4.572v-11h4.586l9-9h3.415
			v10.296l0.479,0.223c1.494,0.697,2.469,2.21,2.479,3.853c0.012,1.644-0.943,3.169-2.431,3.886l-0.524,0.253V38H25.159z"/>
		<path fill="#5DB27F" d="M31.014,23.875c-0.012-1.451-0.871-2.787-2.19-3.403l-0.454-0.211l-0.312,0.67V10h-2.708l-8.793,8.793V19
			h-4.5v10h4.5v0.216l8.802,8.284h2.701V26.778l0.355,0.746l0.449-0.217C30.18,26.674,31.021,25.328,31.014,23.875z M28.057,25.276
			v-2.753c0.479,0.29,0.784,0.807,0.789,1.367C28.85,24.456,28.541,24.983,28.057,25.276z"/>
		<path fill="#5DB27F" d="M35.757,23.845c-0.021-3.271-1.961-6.28-4.938-7.669l-0.455-0.211l-1.401,3.022l0.453,0.211
			c1.813,0.846,2.996,2.679,3.01,4.67c0.013,1.99-1.146,3.838-2.948,4.708l-0.449,0.216l1.44,3.004l0.451-0.218
			C33.877,30.15,35.777,27.115,35.757,23.845z"/>
		<path fill="#5DB27F" d="M32.627,12.274l-0.454-0.211l-1.403,3.022l0.453,0.211c3.319,1.548,5.479,4.901,5.504,8.543
			c0.022,3.641-2.093,7.021-5.394,8.613l-0.449,0.217l1.442,3.003l0.451-0.218c4.455-2.149,7.313-6.717,7.281-11.638
			C40.029,18.896,37.111,14.365,32.627,12.274z"/>
	</g>
	<g>
		<path fill="#FFFFFF" d="M30.514,23.879c-0.011-1.31-0.789-2.434-1.904-2.954l-0.49,1.062c0.717,0.335,1.222,1.056,1.229,1.9
			c0.006,0.844-0.49,1.571-1.203,1.916l0.506,1.055C29.757,26.323,30.521,25.188,30.514,23.879z"/>
		<path fill="#FFFFFF" d="M35.257,23.848c-0.021-3.2-1.927-5.949-4.649-7.219l-0.981,2.115c1.933,0.9,3.283,2.85,3.297,5.12
			c0.017,2.269-1.312,4.236-3.229,5.161l1.011,2.103C33.407,29.822,35.275,27.049,35.257,23.848z"/>
		<path fill="#FFFFFF" d="M39.562,23.82c-0.033-4.918-2.961-9.142-7.146-11.093l-0.982,2.115c3.396,1.583,5.77,5.006,5.793,8.993
			c0.025,3.986-2.303,7.44-5.676,9.067l1.01,2.102C36.723,32.999,39.596,28.737,39.562,23.82z"/>
	</g>
	<rect x="12.556" y="20.5" fill="#FFFFFF" width="3.5" height="8"/>
	<g>
		<polygon fill="#FFFFFF" points="25.556,11.5 17.056,20 17.056,29 25.556,37 27.557,37 27.557,11.5 		"/>
	</g>
</g>
</svg>
