<svg xmlns="http://www.w3.org/2000/svg" width="51" height="57" viewBox="0 0 51 57"><linearGradient id="a" gradientUnits="userSpaceOnUse" x1="25.443" y1="-551" x2="25.443" y2="-506" gradientTransform="matrix(1 0 0 -1 0 -496)"><stop offset="0" stop-opacity=".5"/><stop offset=".09" stop-opacity=".455"/><stop offset="1" stop-opacity="0"/></linearGradient><path opacity=".5" fill="url(#a)" d="M47.943 47.5c0 4.125-3.375 7.5-7.5 7.5h-30c-4.125 0-7.5-3.375-7.5-7.5v-30c0-4.125 3.375-7.5 7.5-7.5h30c4.125 0 7.5 3.375 7.5 7.5v30z"/><path fill="#C9BF8B" d="M47.943 46.5c0 4.125-3.375 7.5-7.5 7.5h-30c-4.125 0-7.5-3.375-7.5-7.5v-30c0-4.125 3.375-7.5 7.5-7.5h30c4.125 0 7.5 3.375 7.5 7.5v30z"/><linearGradient id="b" gradientUnits="userSpaceOnUse" x1="25.443" y1="-552.598" x2="25.443" y2="-508.028" gradientTransform="matrix(1 0 0 -1 0 -496)"><stop offset="0" stop-opacity=".5"/><stop offset=".09" stop-opacity=".455"/><stop offset="1" stop-opacity="0"/></linearGradient><path opacity=".5" fill="url(#b)" d="M47.943 48.5c0 4.125-3.375 7.5-7.5 7.5h-30c-4.125 0-7.5-3.375-7.5-7.5v-30c0-4.125 3.375-7.5 7.5-7.5h30c4.125 0 7.5 3.375 7.5 7.5v30z"/><path fill="#3CAA69" d="M48.057 46.5c0 4.125-3.375 7.5-7.5 7.5h-30c-4.125 0-7.5-3.375-7.5-7.5v-30c0-4.125 3.375-7.5 7.5-7.5h30c4.125 0 7.5 3.375 7.5 7.5v30z"/><path fill="#3CAA69" d="M10.556 53.5c-3.86 0-7-3.141-7-7v-30c0-3.86 3.14-7 7-7h30c3.858 0 7 3.14 7 7v30c0 3.859-3.142 7-7 7h-30z"/><path fill="#3CAA69" d="M48.057 36.5c0 4.125-3.375 7.5-7.5 7.5h-30c-4.125 0-7.5-3.375-7.5-7.5v-28c0-4.125 3.375-7.5 7.5-7.5h30c4.125 0 7.5 3.375 7.5 7.5v28z"/><path fill="#68D799" d="M40.557 1.5h-30c-3.86 0-7 3.14-7 7v30c0 3.859 3.14 7 7 7h30c3.859 0 7-3.141 7-7v-30c0-3.86-3.142-7-7-7zm6.5 37c0 3.584-2.916 6.5-6.5 6.5h-30a6.508 6.508 0 0 1-6.5-6.5v-30c0-3.584 2.916-6.5 6.5-6.5h30c3.584 0 6.5 2.916 6.5 6.5v30z"/><path opacity=".5" fill="#FFF" d="M40.557 1.5h-30c-3.86 0-7 3.14-7 7v30c0 3.859 3.14 7 7 7h30c3.859 0 7-3.141 7-7v-30c0-3.86-3.142-7-7-7zm6.5 37c0 3.584-2.916 6.5-6.5 6.5h-30a6.508 6.508 0 0 1-6.5-6.5v-30c0-3.584 2.916-6.5 6.5-6.5h30c3.584 0 6.5 2.916 6.5 6.5v30z"/><path fill="#F7EC9F" d="M40.557 2h-30a6.508 6.508 0 0 0-6.5 6.5v30c0 3.584 2.916 6.5 6.5 6.5h30c3.584 0 6.5-2.916 6.5-6.5v-30c0-3.584-2.916-6.5-6.5-6.5z"/><path fill="#48CC7E" d="M40.557 2h-30a6.508 6.508 0 0 0-6.5 6.5v30c0 3.584 2.916 6.5 6.5 6.5h30c3.584 0 6.5-2.916 6.5-6.5v-30c0-3.584-2.916-6.5-6.5-6.5z"/><linearGradient id="c" gradientUnits="userSpaceOnUse" x1="25.556" y1="-1051.575" x2="25.556" y2="-1083.873" gradientTransform="matrix(1 0 0 -1 0 -1050)"><stop offset="0" stop-color="#fff" stop-opacity=".5"/><stop offset=".5" stop-color="#fff" stop-opacity="0"/><stop offset="1" stop-color="#fff" stop-opacity="0"/></linearGradient><path fill="url(#c)" d="M4.056 38.5c0 3.584 2.916 6.5 6.5 6.5h30c3.584 0 6.5-2.916 6.5-6.5v-30c0-3.584-2.916-6.5-6.5-6.5h-30a6.508 6.508 0 0 0-6.5 6.5v30z"/><g><linearGradient id="d" gradientUnits="userSpaceOnUse" x1="21.535" y1="-532.936" x2="21.535" y2="-501.43" gradientTransform="matrix(1 0 0 -1 0 -496)"><stop offset="0" stop-color="#fff"/><stop offset=".09" stop-color="#fff" stop-opacity=".91"/><stop offset="1" stop-color="#fff" stop-opacity="0"/></linearGradient><path opacity=".3" fill="url(#d)" d="M25.159 38l-9.031-8.5h-4.572v-11h4.586l9-9h3.415v10.296l.479.223a4.306 4.306 0 0 1 2.479 3.853 4.302 4.302 0 0 1-2.431 3.886l-.524.253V38h-3.401z"/><path fill="#5DB27F" d="M31.014 23.875a3.81 3.81 0 0 0-2.19-3.403l-.454-.211-.312.67V10H25.35l-8.793 8.793V19h-4.5v10h4.5v.216l8.802 8.284h2.701V26.778l.355.746.449-.217a3.804 3.804 0 0 0 2.15-3.432zm-2.957 1.401v-2.753c.479.29.784.807.789 1.367a1.621 1.621 0 0 1-.789 1.386z"/><path fill="#5DB27F" d="M35.757 23.845c-.021-3.271-1.961-6.28-4.938-7.669l-.455-.211-1.401 3.022.453.211a5.225 5.225 0 0 1 3.01 4.67 5.223 5.223 0 0 1-2.948 4.708l-.449.216 1.44 3.004.451-.218c2.957-1.428 4.857-4.463 4.837-7.733z"/><path fill="#5DB27F" d="M32.627 12.274l-.454-.211-1.403 3.022.453.211c3.319 1.548 5.479 4.901 5.504 8.543.022 3.641-2.093 7.021-5.394 8.613l-.449.217 1.442 3.003.451-.218c4.455-2.149 7.313-6.717 7.281-11.638-.029-4.92-2.947-9.451-7.431-11.542z"/></g><g fill="#FFF"><path d="M30.514 23.879a3.29 3.29 0 0 0-1.904-2.954l-.49 1.062a2.12 2.12 0 0 1 1.229 1.9 2.115 2.115 0 0 1-1.203 1.916l.506 1.055a3.293 3.293 0 0 0 1.862-2.979z"/><path d="M35.257 23.848c-.021-3.2-1.927-5.949-4.649-7.219l-.981 2.115a5.69 5.69 0 0 1 3.297 5.12c.017 2.269-1.312 4.236-3.229 5.161l1.011 2.103c2.701-1.306 4.569-4.079 4.551-7.28z"/><path d="M39.562 23.82c-.033-4.918-2.961-9.142-7.146-11.093l-.982 2.115c3.396 1.583 5.77 5.006 5.793 8.993.025 3.986-2.303 7.44-5.676 9.067l1.01 2.102c4.162-2.005 7.035-6.267 7.001-11.184z"/></g><path fill="#FFF" d="M12.556 20.5h3.5v8h-3.5z"/><g><path fill="#FFF" d="M25.556 11.5l-8.5 8.5v9l8.5 8h2.001V11.5z"/></g></svg>