<svg xmlns="http://www.w3.org/2000/svg" width="51" height="57" viewBox="0 0 51 57"><linearGradient id="a" gradientUnits="userSpaceOnUse" x1="25.556" y1="-550.415" x2="25.556" y2="-517.582" gradientTransform="matrix(1 0 0 -1 0 -496)"><stop offset="0" stop-color="#fff"/><stop offset=".09" stop-color="#fff" stop-opacity=".91"/><stop offset="1" stop-color="#fff" stop-opacity="0"/></linearGradient><path opacity=".75" fill="url(#a)" d="M10.556 54.5c-4.411 0-8-3.589-8-8v-30c0-4.411 3.589-8 8-8h30c4.409 0 8 3.589 8 8v30c0 4.411-3.591 8-8 8h-30z"/><linearGradient id="b" gradientUnits="userSpaceOnUse" x1="25.556" y1="-550.415" x2="25.556" y2="-517.582" gradientTransform="matrix(1 0 0 -1 0 -496)"><stop offset="0" stop-color="#fff"/><stop offset=".09" stop-color="#fff" stop-opacity=".91"/><stop offset="1" stop-color="#fff" stop-opacity="0"/></linearGradient><path opacity=".75" fill="url(#b)" d="M10.556 54.5c-4.411 0-8-3.589-8-8v-30c0-4.411 3.589-8 8-8h30c4.409 0 8 3.589 8 8v30c0 4.411-3.591 8-8 8h-30z"/><path fill="#CCB750" d="M48.057 46.5c0 4.125-3.375 7.5-7.5 7.5h-30c-4.125 0-7.5-3.375-7.5-7.5v-30c0-4.125 3.375-7.5 7.5-7.5h30c4.125 0 7.5 3.375 7.5 7.5v30z"/><path fill="#FFE75A" d="M40.557 9.5h-30c-3.86 0-7 3.14-7 7v30c0 3.859 3.14 7 7 7h30c3.858 0 7-3.141 7-7v-30c0-3.86-3.142-7-7-7z"/><path fill-opacity=".1" d="M40.598 9.5h-30c-3.86 0-7 3.14-7 7v30c0 3.859 3.14 7 7 7h30c3.86 0 7-3.141 7-7v-30c0-3.86-3.14-7-7-7zm5.5 37c0 3.032-2.467 5.5-5.5 5.5h-30a5.506 5.506 0 0 1-5.5-5.5v-30c0-3.033 2.467-5.5 5.5-5.5h30c3.033 0 5.5 2.467 5.5 5.5v30z"/><linearGradient id="c" gradientUnits="userSpaceOnUse" x1="25.549" y1="-537.457" x2="25.549" y2="-516.95" gradientTransform="matrix(1 0 0 -1 0 -496)"><stop offset="0" stop-color="#fff"/><stop offset=".09" stop-color="#fff" stop-opacity=".91"/><stop offset="1" stop-color="#fff" stop-opacity="0"/></linearGradient><path fill="url(#c)" d="M21.631 41.491a9.927 9.927 0 0 1-7.067-2.937 9.932 9.932 0 0 1-2.929-7.068c.002-5.689 4.583-10.497 10.001-10.497l14.475.007-.002 5.589 3.354.001-.005 9.324-3.354-.002-.002 5.588-14.471-.005z"/><path fill="#C9BF8B" d="M21.631 40.991c-5.239-.002-9.499-4.267-9.497-9.505.002-5.239 4.266-10 9.505-9.997l13.97.006-.002 5.589 3.353.001-.002 8.325-3.354-.002-.002 5.588-13.971-.005z"/><path fill="#FFF" d="M21.631 40.491a8.935 8.935 0 0 1-6.36-2.644 8.938 8.938 0 0 1-2.636-6.361c.002-4.96 4.041-8.497 9.001-8.497l13.473.006-.002 5.589 3.354.002-.004 6.324-3.354-.004-.004 5.59-13.468-.005z"/></svg>