<svg xmlns="http://www.w3.org/2000/svg" width="51" height="57" viewBox="0 0 51 57"><linearGradient id="a" gradientUnits="userSpaceOnUse" x1="25.057" y1="1163" x2="25.057" y2="1118" gradientTransform="translate(0 -1108)"><stop offset="0" stop-opacity=".5"/><stop offset=".09" stop-opacity=".455"/><stop offset="1" stop-opacity="0"/></linearGradient><path opacity=".5" fill="url(#a)" d="M47.557 47.5c0 4.125-3.375 7.5-7.5 7.5h-30c-4.125 0-7.5-3.375-7.5-7.5v-30c0-4.125 3.375-7.5 7.5-7.5h30c4.125 0 7.5 3.375 7.5 7.5v30z"/><path fill="#C9BF8B" d="M47.557 46.5c0 4.125-3.375 7.5-7.5 7.5h-30c-4.125 0-7.5-3.375-7.5-7.5v-30c0-4.125 3.375-7.5 7.5-7.5h30c4.125 0 7.5 3.375 7.5 7.5v30z"/><linearGradient id="b" gradientUnits="userSpaceOnUse" x1="25.057" y1="1164.598" x2="25.057" y2="1120.027" gradientTransform="translate(0 -1108)"><stop offset="0" stop-opacity=".5"/><stop offset=".09" stop-opacity=".455"/><stop offset="1" stop-opacity="0"/></linearGradient><path opacity=".5" fill="url(#b)" d="M47.557 48.5c0 4.125-3.375 7.5-7.5 7.5h-30c-4.125 0-7.5-3.375-7.5-7.5v-30c0-4.125 3.375-7.5 7.5-7.5h30c4.125 0 7.5 3.375 7.5 7.5v30z"/><path fill="#CCB750" d="M47.557 46.5c0 4.125-3.375 7.5-7.5 7.5h-30c-4.125 0-7.5-3.375-7.5-7.5v-30c0-4.125 3.375-7.5 7.5-7.5h30c4.125 0 7.5 3.375 7.5 7.5v30z"/><path fill="#CCB752" d="M47.557 36.5c0 4.125-3.375 7.5-7.5 7.5h-30c-4.125 0-7.5-3.375-7.5-7.5v-28c0-4.125 3.375-7.5 7.5-7.5h30c4.125 0 7.5 3.375 7.5 7.5v28z"/><g><path fill="#F7EC9F" d="M40.057 1.5h-30c-3.86 0-7 3.14-7 7v30c0 3.859 3.14 7 7 7h30c3.858 0 7-3.141 7-7v-30c0-3.86-3.142-7-7-7zm6.5 37c0 3.584-2.916 6.5-6.5 6.5h-30a6.508 6.508 0 0 1-6.5-6.5v-30c0-3.584 2.916-6.5 6.5-6.5h30c3.584 0 6.5 2.916 6.5 6.5v30z"/><path opacity=".75" fill="#FFF" d="M40.057 1.5h-30c-3.86 0-7 3.14-7 7v30c0 3.859 3.14 7 7 7h30c3.858 0 7-3.141 7-7v-30c0-3.86-3.142-7-7-7zm6.5 37c0 3.584-2.916 6.5-6.5 6.5h-30a6.508 6.508 0 0 1-6.5-6.5v-30c0-3.584 2.916-6.5 6.5-6.5h30c3.584 0 6.5 2.916 6.5 6.5v30z"/><path fill="#F7EC9F" d="M40.057 2h-30a6.508 6.508 0 0 0-6.5 6.5v30c0 3.584 2.916 6.5 6.5 6.5h30c3.584 0 6.5-2.916 6.5-6.5v-30c0-3.584-2.916-6.5-6.5-6.5z"/><path fill="#FFE75A" d="M40.057 2h-30a6.508 6.508 0 0 0-6.5 6.5v30c0 3.584 2.916 6.5 6.5 6.5h30c3.584 0 6.5-2.916 6.5-6.5v-30c0-3.584-2.916-6.5-6.5-6.5z"/><linearGradient id="c" gradientUnits="userSpaceOnUse" x1="25.556" y1="-1051.575" x2="25.556" y2="-1083.873" gradientTransform="matrix(1 0 0 -1 0 -1050)"><stop offset="0" stop-color="#fff" stop-opacity=".5"/><stop offset=".5" stop-color="#fff" stop-opacity="0"/><stop offset="1" stop-color="#fff" stop-opacity="0"/></linearGradient><path fill="url(#c)" d="M4.056 38.5c0 3.584 2.916 6.5 6.5 6.5h30c3.584 0 6.5-2.916 6.5-6.5v-30c0-3.584-2.916-6.5-6.5-6.5h-30a6.508 6.508 0 0 0-6.5 6.5v30z"/></g><path fill="#CCB750" d="M2.556 8.5h.5v33h-.5z"/><g><linearGradient id="d" gradientUnits="userSpaceOnUse" x1="25.049" y1="1141.456" x2="25.049" y2="1120.949" gradientTransform="translate(0 -1108)"><stop offset="0" stop-color="#fff"/><stop offset=".09" stop-color="#fff" stop-opacity=".91"/><stop offset="1" stop-color="#fff" stop-opacity="0"/></linearGradient><path fill="url(#d)" d="M21.131 33.491a9.927 9.927 0 0 1-7.067-2.937 9.937 9.937 0 0 1-2.929-7.071c.002-5.69 4.583-10.497 10.001-10.497l14.475.007-.002 5.589 3.354.001-.005 9.324-3.354-.002-.002 5.588-14.471-.002z"/><path fill="#C9BF8B" d="M21.131 32.991c-5.239-.002-9.499-4.267-9.497-9.504.002-5.239 4.266-9.999 9.505-9.997l13.97.006-.002 5.589 3.353.001-.002 8.325-3.354-.002-.002 5.588-13.971-.006z"/><path fill="#FFF" d="M21.131 32.491a8.935 8.935 0 0 1-6.36-2.644 8.946 8.946 0 0 1-2.636-6.364c.002-4.961 4.041-8.497 9.001-8.497l13.473.006-.002 5.589 3.354.002-.004 6.324-3.354-.003-.004 5.59-13.468-.003z"/></g></svg>