<?xml version="1.0" encoding="utf-8"?>
<!-- Generator: Adobe Illustrator 15.0.0, SVG Export Plug-In . SVG Version: 6.00 Build 0)  -->
<!DOCTYPE svg PUBLIC "-//W3C//DTD SVG 1.1//EN" "http://www.w3.org/Graphics/SVG/1.1/DTD/svg11.dtd">
<svg version="1.1" id="Layer_1" xmlns="http://www.w3.org/2000/svg" xmlns:xlink="http://www.w3.org/1999/xlink" x="0px" y="0px"
	 width="51px" height="57px" viewBox="0 0 51 57" enable-background="new 0 0 51 57" xml:space="preserve">
<g>
	<g>
		
			<linearGradient id="SVGID_1_" gradientUnits="userSpaceOnUse" x1="25.0571" y1="1163" x2="25.0571" y2="1118" gradientTransform="matrix(1 0 0 1 0 -1108)">
			<stop  offset="0" style="stop-color:#000000;stop-opacity:0.5"/>
			<stop  offset="0.0896" style="stop-color:#000000;stop-opacity:0.4552"/>
			<stop  offset="1" style="stop-color:#000000;stop-opacity:0"/>
		</linearGradient>
		<path opacity="0.5" fill="url(#SVGID_1_)" enable-background="new    " d="M47.557,47.5c0,4.125-3.375,7.5-7.5,7.5h-30
			c-4.125,0-7.5-3.375-7.5-7.5v-30c0-4.125,3.375-7.5,7.5-7.5h30c4.125,0,7.5,3.375,7.5,7.5V47.5z"/>
		<path fill="#C9BF8B" d="M47.557,46.5c0,4.125-3.375,7.5-7.5,7.5h-30c-4.125,0-7.5-3.375-7.5-7.5v-30c0-4.125,3.375-7.5,7.5-7.5h30
			c4.125,0,7.5,3.375,7.5,7.5V46.5z"/>
		
			<linearGradient id="SVGID_2_" gradientUnits="userSpaceOnUse" x1="25.0571" y1="1164.5977" x2="25.0571" y2="1120.0273" gradientTransform="matrix(1 0 0 1 0 -1108)">
			<stop  offset="0" style="stop-color:#000000;stop-opacity:0.5"/>
			<stop  offset="0.0896" style="stop-color:#000000;stop-opacity:0.4552"/>
			<stop  offset="1" style="stop-color:#000000;stop-opacity:0"/>
		</linearGradient>
		<path opacity="0.5" fill="url(#SVGID_2_)" enable-background="new    " d="M47.557,48.5c0,4.125-3.375,7.5-7.5,7.5h-30
			c-4.125,0-7.5-3.375-7.5-7.5v-30c0-4.125,3.375-7.5,7.5-7.5h30c4.125,0,7.5,3.375,7.5,7.5V48.5z"/>
	</g>
	<g>
		<path fill="#CCB750" d="M47.557,46.5c0,4.125-3.375,7.5-7.5,7.5h-30c-4.125,0-7.5-3.375-7.5-7.5v-30c0-4.125,3.375-7.5,7.5-7.5h30
			c4.125,0,7.5,3.375,7.5,7.5V46.5z"/>
	</g>
	<path fill="#CCB752" d="M47.557,36.5c0,4.125-3.375,7.5-7.5,7.5h-30c-4.125,0-7.5-3.375-7.5-7.5v-28c0-4.125,3.375-7.5,7.5-7.5h30
		c4.125,0,7.5,3.375,7.5,7.5V36.5z"/>
	<g>
		<path fill="#F7EC9F" d="M40.057,1.5h-30c-3.86,0-7,3.14-7,7v30c0,3.859,3.14,7,7,7h30c3.858,0,7-3.141,7-7v-30
			C47.057,4.64,43.915,1.5,40.057,1.5z M46.557,38.5c0,3.584-2.916,6.5-6.5,6.5h-30c-3.584,0-6.5-2.916-6.5-6.5v-30
			c0-3.584,2.916-6.5,6.5-6.5h30c3.584,0,6.5,2.916,6.5,6.5V38.5z"/>
		<path opacity="0.75" fill="#FFFFFF" enable-background="new    " d="M40.057,1.5h-30c-3.86,0-7,3.14-7,7v30c0,3.859,3.14,7,7,7h30
			c3.858,0,7-3.141,7-7v-30C47.057,4.64,43.915,1.5,40.057,1.5z M46.557,38.5c0,3.584-2.916,6.5-6.5,6.5h-30
			c-3.584,0-6.5-2.916-6.5-6.5v-30c0-3.584,2.916-6.5,6.5-6.5h30c3.584,0,6.5,2.916,6.5,6.5V38.5z"/>
		<path fill="#F7EC9F" d="M40.057,2h-30c-3.584,0-6.5,2.916-6.5,6.5v30c0,3.584,2.916,6.5,6.5,6.5h30c3.584,0,6.5-2.916,6.5-6.5v-30
			C46.557,4.916,43.641,2,40.057,2z"/>
		<path fill="#FFE75A" d="M40.057,2h-30c-3.584,0-6.5,2.916-6.5,6.5v30c0,3.584,2.916,6.5,6.5,6.5h30c3.584,0,6.5-2.916,6.5-6.5v-30
			C46.557,4.916,43.641,2,40.057,2z"/>
		
			<linearGradient id="SVGID_3_" gradientUnits="userSpaceOnUse" x1="25.5562" y1="-1051.5752" x2="25.5562" y2="-1083.8734" gradientTransform="matrix(1 0 0 -1 0 -1050)">
			<stop  offset="0" style="stop-color:#FFFFFF;stop-opacity:0.5"/>
			<stop  offset="0.5" style="stop-color:#FFFFFF;stop-opacity:0"/>
			<stop  offset="1" style="stop-color:#FFFFFF;stop-opacity:0"/>
		</linearGradient>
		<path fill="url(#SVGID_3_)" d="M4.056,38.5c0,3.584,2.916,6.5,6.5,6.5h30c3.584,0,6.5-2.916,6.5-6.5v-30
			c0-3.584-2.916-6.5-6.5-6.5h-30c-3.584,0-6.5,2.916-6.5,6.5V38.5z"/>
	</g>
	<rect x="2.556" y="8.5" fill="#CCB750" width="0.5" height="33"/>
	<g>
		
			<linearGradient id="SVGID_4_" gradientUnits="userSpaceOnUse" x1="25.0493" y1="1141.4561" x2="25.0493" y2="1120.9492" gradientTransform="matrix(1 0 0 1 0 -1108)">
			<stop  offset="0" style="stop-color:#FFFFFF"/>
			<stop  offset="0.0896" style="stop-color:#FFFFFF;stop-opacity:0.9104"/>
			<stop  offset="1" style="stop-color:#FFFFFF;stop-opacity:0"/>
		</linearGradient>
		<path fill="url(#SVGID_4_)" d="M21.131,33.491c-2.667-0.002-5.178-1.043-7.067-2.937c-1.89-1.894-2.931-4.404-2.929-7.071
			c0.002-5.69,4.583-10.497,10.001-10.497l14.475,0.007l-0.002,5.589l3.354,0.001l-0.005,9.324l-3.354-0.002l-0.002,5.588
			L21.131,33.491z"/>
		<path fill="#C9BF8B" d="M21.131,32.991c-5.239-0.002-9.499-4.267-9.497-9.504c0.002-5.239,4.266-9.999,9.505-9.997l13.97,0.006
			l-0.002,5.589l3.353,0.001l-0.002,8.325l-3.354-0.002l-0.002,5.588L21.131,32.991z"/>
		<path fill="#FFFFFF" d="M21.131,32.491c-2.4-0.002-4.659-0.939-6.36-2.644c-1.701-1.704-2.637-3.964-2.636-6.364
			c0.002-4.961,4.041-8.497,9.001-8.497l13.473,0.006l-0.002,5.589l3.354,0.002l-0.004,6.324l-3.354-0.003l-0.004,5.59
			L21.131,32.491z"/>
	</g>
</g>
</svg>
