<svg xmlns="http://www.w3.org/2000/svg" width="51" height="57" viewBox="0 0 51 57"><linearGradient id="a" gradientUnits="userSpaceOnUse" x1="25.556" y1="-594.661" x2="25.556" y2="-561.828" gradientTransform="matrix(1 0 0 -1 0 -540.074)"><stop offset="0" stop-color="#fff"/><stop offset=".09" stop-color="#fff" stop-opacity=".91"/><stop offset="1" stop-color="#fff" stop-opacity="0"/></linearGradient><path opacity=".75" fill="url(#a)" d="M10.556 54.67c-4.411 0-8-3.59-8-8v-30c0-4.411 3.589-8 8-8h30c4.41 0 8 3.589 8 8v30c0 4.41-3.59 8-8 8h-30z"/><linearGradient id="b" gradientUnits="userSpaceOnUse" x1="25.556" y1="-594.661" x2="25.556" y2="-561.828" gradientTransform="matrix(1 0 0 -1 0 -540.074)"><stop offset="0" stop-color="#fff"/><stop offset=".09" stop-color="#fff" stop-opacity=".91"/><stop offset="1" stop-color="#fff" stop-opacity="0"/></linearGradient><path opacity=".75" fill="url(#b)" d="M10.556 54.67c-4.411 0-8-3.59-8-8v-30c0-4.411 3.589-8 8-8h30c4.41 0 8 3.589 8 8v30c0 4.41-3.59 8-8 8h-30z"/><path fill="#AD1E1E" d="M48.057 46.67c0 4.125-3.375 7.5-7.5 7.5h-30c-4.125 0-7.5-3.375-7.5-7.5v-30c0-4.125 3.375-7.5 7.5-7.5h30c4.125 0 7.5 3.375 7.5 7.5v30z"/><path fill="#EA2424" d="M40.557 9.67h-30c-3.858 0-7 3.14-7 7v30c0 3.859 3.142 7 7 7h30c3.859 0 7-3.141 7-7v-30c0-3.86-3.141-7-7-7z"/><path fill="#AD1E1E" d="M29.466 40.66c5.239-.002 9.499-4.266 9.497-9.504s-4.266-9.999-9.505-9.997l-13.971.006.003 7.589 2.646.001.003 5.324-2.646-.002.002 6.59 13.971-.007z"/><path fill="#FFF" d="M29.466 40.16c2.4 0 4.659-.938 6.36-2.643a8.934 8.934 0 0 0 2.636-6.361c-.002-4.96-4.041-8.497-9.001-8.497l-13.474.006.002 5.589 2.646.002.002 6.325-2.646-.004.003 5.591 13.472-.008z"/><path fill-opacity=".17" d="M40.466 9.67h-30c-3.858 0-7 3.14-7 7v30c0 3.859 3.142 7 7 7h30c3.86 0 7-3.141 7-7v-30c0-3.86-3.14-7-7-7zm5.5 37c0 3.033-2.467 5.5-5.5 5.5h-30a5.506 5.506 0 0 1-5.5-5.5v-30c0-3.033 2.467-5.5 5.5-5.5h30c3.033 0 5.5 2.467 5.5 5.5v30z"/></svg>