<?xml version="1.0" encoding="utf-8"?>
<!-- Generator: Adobe Illustrator 15.0.0, SVG Export Plug-In . SVG Version: 6.00 Build 0)  -->
<!DOCTYPE svg PUBLIC "-//W3C//DTD SVG 1.1//EN" "http://www.w3.org/Graphics/SVG/1.1/DTD/svg11.dtd">
<svg version="1.1" id="Layer_1" xmlns="http://www.w3.org/2000/svg" xmlns:xlink="http://www.w3.org/1999/xlink" x="0px" y="0px"
	 width="51px" height="57px" viewBox="0 0 51 57" enable-background="new 0 0 51 57" xml:space="preserve">
<g>
	<g>
		
			<linearGradient id="SVGID_1_" gradientUnits="userSpaceOnUse" x1="25.4453" y1="1761.0742" x2="25.4453" y2="1716.0742" gradientTransform="matrix(1 0 0 1 0 -1706.0742)">
			<stop  offset="0" style="stop-color:#000000;stop-opacity:0.5"/>
			<stop  offset="0.0896" style="stop-color:#000000;stop-opacity:0.4552"/>
			<stop  offset="1" style="stop-color:#000000;stop-opacity:0"/>
		</linearGradient>
		<path opacity="0.5" fill="url(#SVGID_1_)" enable-background="new    " d="M47.945,47.5c0,4.125-3.375,7.5-7.5,7.5h-30
			c-4.125,0-7.5-3.375-7.5-7.5v-30c0-4.125,3.375-7.5,7.5-7.5h30c4.125,0,7.5,3.375,7.5,7.5V47.5z"/>
		<path fill="#C9BF8B" d="M47.945,46.5c0,4.125-3.375,7.5-7.5,7.5h-30c-4.125,0-7.5-3.375-7.5-7.5v-30c0-4.125,3.375-7.5,7.5-7.5h30
			c4.125,0,7.5,3.375,7.5,7.5V46.5z"/>
		
			<linearGradient id="SVGID_2_" gradientUnits="userSpaceOnUse" x1="25.4453" y1="1762.6719" x2="25.4453" y2="1718.1023" gradientTransform="matrix(1 0 0 1 0 -1706.0742)">
			<stop  offset="0" style="stop-color:#000000;stop-opacity:0.5"/>
			<stop  offset="0.0896" style="stop-color:#000000;stop-opacity:0.4552"/>
			<stop  offset="1" style="stop-color:#000000;stop-opacity:0"/>
		</linearGradient>
		<path opacity="0.5" fill="url(#SVGID_2_)" enable-background="new    " d="M47.945,48.5c0,4.125-3.375,7.5-7.5,7.5h-30
			c-4.125,0-7.5-3.375-7.5-7.5v-30c0-4.125,3.375-7.5,7.5-7.5h30c4.125,0,7.5,3.375,7.5,7.5V48.5z"/>
	</g>
	<path fill="#AD1E1E" d="M48.057,46.5c0,4.125-3.375,7.5-7.5,7.5h-30c-4.125,0-7.5-3.375-7.5-7.5v-30c0-4.125,3.375-7.5,7.5-7.5h30
		c4.125,0,7.5,3.375,7.5,7.5V46.5z"/>
	<path fill="#AD1E1E" d="M10.556,53.5c-3.858,0-7-3.141-7-7v-30c0-3.86,3.142-7,7-7h30c3.856,0,7,3.14,7,7v30c0,3.859-3.144,7-7,7
		H10.556z"/>
	<path fill="#AD1E1E" d="M48.057,36.5c0,4.125-3.375,7.5-7.5,7.5h-30c-4.125,0-7.5-3.375-7.5-7.5v-28c0-4.125,3.375-7.5,7.5-7.5h30
		c4.125,0,7.5,3.375,7.5,7.5V36.5z"/>
	<g>
		<path fill="#F36C6C" d="M40.557,1.5h-30c-3.858,0-7,3.14-7,7v30c0,3.859,3.142,7,7,7h30c3.859,0,7-3.141,7-7v-30
			C47.557,4.64,44.416,1.5,40.557,1.5z M47.057,38.5c0,3.584-2.916,6.5-6.5,6.5h-30c-3.584,0-6.5-2.916-6.5-6.5v-30
			c0-3.584,2.916-6.5,6.5-6.5h30c3.584,0,6.5,2.916,6.5,6.5V38.5z"/>
		<path opacity="0.3" fill="#FFFFFF" enable-background="new    " d="M40.557,1.5h-30c-3.858,0-7,3.14-7,7v30c0,3.859,3.142,7,7,7
			h30c3.859,0,7-3.141,7-7v-30C47.557,4.64,44.416,1.5,40.557,1.5z M47.057,38.5c0,3.584-2.916,6.5-6.5,6.5h-30
			c-3.584,0-6.5-2.916-6.5-6.5v-30c0-3.584,2.916-6.5,6.5-6.5h30c3.584,0,6.5,2.916,6.5,6.5V38.5z"/>
		<path fill="#F7EC9F" d="M40.557,2h-30c-3.584,0-6.5,2.916-6.5,6.5v30c0,3.584,2.916,6.5,6.5,6.5h30c3.584,0,6.5-2.916,6.5-6.5v-30
			C47.057,4.916,44.141,2,40.557,2z"/>
		<path fill="#EA2424" d="M40.557,2h-30c-3.584,0-6.5,2.916-6.5,6.5v30c0,3.584,2.916,6.5,6.5,6.5h30c3.584,0,6.5-2.916,6.5-6.5v-30
			C47.057,4.916,44.141,2,40.557,2z"/>
		
			<linearGradient id="SVGID_3_" gradientUnits="userSpaceOnUse" x1="25.5562" y1="1663.5752" x2="25.5562" y2="1695.8734" gradientTransform="matrix(1 0 0 1 0 -1662)">
			<stop  offset="0" style="stop-color:#FFFFFF;stop-opacity:0.5"/>
			<stop  offset="0.5" style="stop-color:#FFFFFF;stop-opacity:0"/>
			<stop  offset="1" style="stop-color:#FFFFFF;stop-opacity:0"/>
		</linearGradient>
		<path fill="url(#SVGID_3_)" d="M4.056,38.5c0,3.584,2.916,6.5,6.5,6.5h30c3.584,0,6.5-2.916,6.5-6.5v-30
			c0-3.584-2.916-6.5-6.5-6.5h-30c-3.584,0-6.5,2.916-6.5,6.5V38.5z"/>
	</g>
	
		<linearGradient id="SVGID_4_" gradientUnits="userSpaceOnUse" x1="-3933.7075" y1="1739.5371" x2="-3933.7075" y2="1719.0283" gradientTransform="matrix(-1 0 0 1 -3906.4844 -1706.0742)">
		<stop  offset="0" style="stop-color:#FFFFFF"/>
		<stop  offset="0.0896" style="stop-color:#FFFFFF;stop-opacity:0.9104"/>
		<stop  offset="1" style="stop-color:#FFFFFF;stop-opacity:0"/>
	</linearGradient>
	<path opacity="0.5" fill="url(#SVGID_4_)" d="M29.461,12.989l-14.475,0.007l0.002,5.589l0.001,2.915h2.565V26h-2.563l0.001,1.909
		l0.002,5.589l14.471-0.008c2.667-0.002,5.178-1.043,7.067-2.936c1.889-1.896,2.931-4.406,2.929-7.073
		C39.46,17.796,34.879,12.989,29.461,12.989z"/>
	<path fill="#AD1E1E" d="M29.466,32.99c5.239-0.002,9.499-4.266,9.497-9.503c-0.002-5.239-4.266-9.999-9.505-9.997l-13.971,0.006
		l0.003,7.589l2.646,0.001l0.003,5.325l-2.646-0.002l0.002,6.589L29.466,32.99z"/>
	<path fill="#FFFFFF" d="M29.466,32.49c2.4,0,4.659-0.938,6.36-2.643c1.701-1.705,2.637-3.965,2.636-6.365
		c-0.002-4.961-4.041-8.497-9.001-8.497l-13.474,0.006l0.002,5.589l2.646,0.002l0.002,6.325l-2.646-0.003l0.003,5.59L29.466,32.49z"
		/>
</g>
</svg>
