<?xml version="1.0" encoding="utf-8"?>
<!-- Generator: Adobe Illustrator 15.0.0, SVG Export Plug-In . SVG Version: 6.00 Build 0)  -->
<!DOCTYPE svg PUBLIC "-//W3C//DTD SVG 1.1//EN" "http://www.w3.org/Graphics/SVG/1.1/DTD/svg11.dtd">
<svg version="1.1" id="Layer_1" xmlns="http://www.w3.org/2000/svg" xmlns:xlink="http://www.w3.org/1999/xlink" x="0px" y="0px"
	 width="51px" height="57px" viewBox="0 0 51 57" enable-background="new 0 0 51 57" xml:space="preserve">
<g>
	
		<linearGradient id="SVGID_1_" gradientUnits="userSpaceOnUse" x1="25.5562" y1="-594.6606" x2="25.5562" y2="-561.8278" gradientTransform="matrix(1 0 0 -1 0 -540.0742)">
		<stop  offset="0" style="stop-color:#FFFFFF"/>
		<stop  offset="0.0896" style="stop-color:#FFFFFF;stop-opacity:0.9104"/>
		<stop  offset="1" style="stop-color:#FFFFFF;stop-opacity:0"/>
	</linearGradient>
	<path opacity="0.75" fill="url(#SVGID_1_)" enable-background="new    " d="M10.556,54.67c-4.411,0-8-3.59-8-8v-30
		c0-4.411,3.589-8,8-8h30c4.41,0,8,3.589,8,8v30c0,4.41-3.59,8-8,8H10.556z"/>
	
		<linearGradient id="SVGID_2_" gradientUnits="userSpaceOnUse" x1="25.5562" y1="-594.6606" x2="25.5562" y2="-561.8278" gradientTransform="matrix(1 0 0 -1 0 -540.0742)">
		<stop  offset="0" style="stop-color:#FFFFFF"/>
		<stop  offset="0.0896" style="stop-color:#FFFFFF;stop-opacity:0.9104"/>
		<stop  offset="1" style="stop-color:#FFFFFF;stop-opacity:0"/>
	</linearGradient>
	<path opacity="0.75" fill="url(#SVGID_2_)" enable-background="new    " d="M10.556,54.67c-4.411,0-8-3.59-8-8v-30
		c0-4.411,3.589-8,8-8h30c4.41,0,8,3.589,8,8v30c0,4.41-3.59,8-8,8H10.556z"/>
	<path fill="#AD1E1E" d="M48.057,46.67c0,4.125-3.375,7.5-7.5,7.5h-30c-4.125,0-7.5-3.375-7.5-7.5v-30c0-4.125,3.375-7.5,7.5-7.5h30
		c4.125,0,7.5,3.375,7.5,7.5V46.67z"/>
	<path fill="#EA2424" d="M40.557,9.67h-30c-3.858,0-7,3.14-7,7v30c0,3.859,3.142,7,7,7h30c3.859,0,7-3.141,7-7v-30
		C47.557,12.81,44.416,9.67,40.557,9.67z"/>
	<path fill="#AD1E1E" d="M29.466,40.66c5.239-0.002,9.499-4.266,9.497-9.504s-4.266-9.999-9.505-9.997l-13.971,0.006l0.003,7.589
		l2.646,0.001l0.003,5.324l-2.646-0.002l0.002,6.59L29.466,40.66z"/>
	<path fill="#FFFFFF" d="M29.466,40.16c2.4,0,4.659-0.938,6.36-2.643c1.701-1.701,2.637-3.961,2.636-6.361
		c-0.002-4.96-4.041-8.497-9.001-8.497l-13.474,0.006l0.002,5.589l2.646,0.002l0.002,6.325l-2.646-0.004l0.003,5.591L29.466,40.16z"
		/>
	<path fill-opacity="0.17" d="M40.466,9.67h-30c-3.858,0-7,3.14-7,7v30c0,3.859,3.142,7,7,7h30c3.86,0,7-3.141,7-7v-30
		C47.466,12.81,44.326,9.67,40.466,9.67z M45.966,46.67c0,3.033-2.467,5.5-5.5,5.5h-30c-3.033,0-5.5-2.467-5.5-5.5v-30
		c0-3.033,2.467-5.5,5.5-5.5h30c3.033,0,5.5,2.467,5.5,5.5V46.67z"/>
</g>
</svg>
