<svg xmlns="http://www.w3.org/2000/svg" width="51" height="57" viewBox="0 0 51 57"><linearGradient id="a" gradientUnits="userSpaceOnUse" x1="25.445" y1="1761.074" x2="25.445" y2="1716.074" gradientTransform="translate(0 -1706.074)"><stop offset="0" stop-opacity=".5"/><stop offset=".09" stop-opacity=".455"/><stop offset="1" stop-opacity="0"/></linearGradient><path opacity=".5" fill="url(#a)" d="M47.945 47.5c0 4.125-3.375 7.5-7.5 7.5h-30c-4.125 0-7.5-3.375-7.5-7.5v-30c0-4.125 3.375-7.5 7.5-7.5h30c4.125 0 7.5 3.375 7.5 7.5v30z"/><path fill="#C9BF8B" d="M47.945 46.5c0 4.125-3.375 7.5-7.5 7.5h-30c-4.125 0-7.5-3.375-7.5-7.5v-30c0-4.125 3.375-7.5 7.5-7.5h30c4.125 0 7.5 3.375 7.5 7.5v30z"/><linearGradient id="b" gradientUnits="userSpaceOnUse" x1="25.445" y1="1762.672" x2="25.445" y2="1718.102" gradientTransform="translate(0 -1706.074)"><stop offset="0" stop-opacity=".5"/><stop offset=".09" stop-opacity=".455"/><stop offset="1" stop-opacity="0"/></linearGradient><path opacity=".5" fill="url(#b)" d="M47.945 48.5c0 4.125-3.375 7.5-7.5 7.5h-30c-4.125 0-7.5-3.375-7.5-7.5v-30c0-4.125 3.375-7.5 7.5-7.5h30c4.125 0 7.5 3.375 7.5 7.5v30z"/><path fill="#AD1E1E" d="M48.057 46.5c0 4.125-3.375 7.5-7.5 7.5h-30c-4.125 0-7.5-3.375-7.5-7.5v-30c0-4.125 3.375-7.5 7.5-7.5h30c4.125 0 7.5 3.375 7.5 7.5v30z"/><path fill="#AD1E1E" d="M10.556 53.5c-3.858 0-7-3.141-7-7v-30c0-3.86 3.142-7 7-7h30c3.856 0 7 3.14 7 7v30c0 3.859-3.144 7-7 7h-30z"/><path fill="#AD1E1E" d="M48.057 36.5c0 4.125-3.375 7.5-7.5 7.5h-30c-4.125 0-7.5-3.375-7.5-7.5v-28c0-4.125 3.375-7.5 7.5-7.5h30c4.125 0 7.5 3.375 7.5 7.5v28z"/><path fill="#F36C6C" d="M40.557 1.5h-30c-3.858 0-7 3.14-7 7v30c0 3.859 3.142 7 7 7h30c3.859 0 7-3.141 7-7v-30c0-3.86-3.141-7-7-7zm6.5 37c0 3.584-2.916 6.5-6.5 6.5h-30a6.508 6.508 0 0 1-6.5-6.5v-30c0-3.584 2.916-6.5 6.5-6.5h30c3.584 0 6.5 2.916 6.5 6.5v30z"/><path opacity=".3" fill="#FFF" d="M40.557 1.5h-30c-3.858 0-7 3.14-7 7v30c0 3.859 3.142 7 7 7h30c3.859 0 7-3.141 7-7v-30c0-3.86-3.141-7-7-7zm6.5 37c0 3.584-2.916 6.5-6.5 6.5h-30a6.508 6.508 0 0 1-6.5-6.5v-30c0-3.584 2.916-6.5 6.5-6.5h30c3.584 0 6.5 2.916 6.5 6.5v30z"/><path fill="#F7EC9F" d="M40.557 2h-30a6.508 6.508 0 0 0-6.5 6.5v30c0 3.584 2.916 6.5 6.5 6.5h30c3.584 0 6.5-2.916 6.5-6.5v-30c0-3.584-2.916-6.5-6.5-6.5z"/><path fill="#EA2424" d="M40.557 2h-30a6.508 6.508 0 0 0-6.5 6.5v30c0 3.584 2.916 6.5 6.5 6.5h30c3.584 0 6.5-2.916 6.5-6.5v-30c0-3.584-2.916-6.5-6.5-6.5z"/><linearGradient id="c" gradientUnits="userSpaceOnUse" x1="25.556" y1="1663.575" x2="25.556" y2="1695.873" gradientTransform="translate(0 -1662)"><stop offset="0" stop-color="#fff" stop-opacity=".5"/><stop offset=".5" stop-color="#fff" stop-opacity="0"/><stop offset="1" stop-color="#fff" stop-opacity="0"/></linearGradient><path fill="url(#c)" d="M4.056 38.5c0 3.584 2.916 6.5 6.5 6.5h30c3.584 0 6.5-2.916 6.5-6.5v-30c0-3.584-2.916-6.5-6.5-6.5h-30a6.508 6.508 0 0 0-6.5 6.5v30z"/><linearGradient id="d" gradientUnits="userSpaceOnUse" x1="-3933.707" y1="1739.537" x2="-3933.707" y2="1719.028" gradientTransform="matrix(-1 0 0 1 -3906.484 -1706.074)"><stop offset="0" stop-color="#fff"/><stop offset=".09" stop-color="#fff" stop-opacity=".91"/><stop offset="1" stop-color="#fff" stop-opacity="0"/></linearGradient><path opacity=".5" fill="url(#d)" d="M29.461 12.989l-14.475.007.002 5.589.001 2.915h2.565V26h-2.563l.001 1.909.002 5.589 14.471-.008a9.93 9.93 0 0 0 7.067-2.936 9.95 9.95 0 0 0 2.929-7.073c-.001-5.685-4.582-10.492-10-10.492z"/><path fill="#AD1E1E" d="M29.466 32.99c5.239-.002 9.499-4.266 9.497-9.503-.002-5.239-4.266-9.999-9.505-9.997l-13.971.006.003 7.589 2.646.001.003 5.325-2.646-.002.002 6.589 13.971-.008z"/><path fill="#FFF" d="M29.466 32.49c2.4 0 4.659-.938 6.36-2.643a8.95 8.95 0 0 0 2.636-6.365c-.002-4.961-4.041-8.497-9.001-8.497l-13.474.006.002 5.589 2.646.002.002 6.325-2.646-.003.003 5.59 13.472-.004z"/></svg>